<svg width="1100" height="670" viewBox="0 0 1100 670" fill="none" xmlns="http://www.w3.org/2000/svg">
<path d="M223.631 663.048L205.859 642.928L182.217 631.906L161.196 617.57L141.192 601.943L120.509 587.159L102.617 568.862L81.3722 554.8L61.3577 539.173L39.3912 526.008L21.4649 509.777L17.7696 485.843L14.806 460.681L14.5048 435.416L13.039 410.203L10.5522 385.013L9.95137 359.759L15.209 334.315L14.2199 309.074L11.4742 285.873L31.9485 297.164L53.1803 310.886L73.4048 325.888L89.8232 345.757L112.105 358.156L130.772 375.159L154.856 385.251L176.173 398.885L192.19 419.289L214.734 431.285L220.35 456.367L226.607 481.363L230.215 506.843L237.425 532.072L234.665 558.048L238.232 583.914L235.51 609.718L229.68 635.023L223.631 663.048Z" fill="white"/>
<path d="M223.631 663.048L205.859 642.928L182.217 631.906L161.196 617.57L141.192 601.943L120.509 587.159L102.617 568.862L81.3722 554.8L61.3577 539.173L39.3912 526.008L21.4649 509.777L17.7696 485.843L14.806 460.681L14.5048 435.416L13.039 410.203L10.5522 385.013L9.95137 359.759L15.209 334.315L14.2199 309.074L11.4742 285.873L31.9485 297.164L53.1803 310.886L73.4048 325.888L89.8232 345.757L112.105 358.156L130.772 375.159L154.856 385.251L176.173 398.885L192.19 419.289L214.734 431.285L220.35 456.367L226.607 481.363L230.215 506.843L237.425 532.072L234.665 558.048L238.232 583.914L235.51 609.718L229.68 635.023L223.631 663.048Z" stroke="#111111" stroke-width="10.774" stroke-linecap="round" stroke-linejoin="round"/>
<path d="M215.262 432.959L192.792 418.811L173.353 401.951L151.931 387.586L130.456 373.308L111.918 355.289L89.7327 341.908L68.6073 327.171L49.0828 310.389L27.4055 296.341L5.38818 279.442L33.7631 278.915L59.9999 276.47L86.3024 275.482L112.731 277.852L139.075 278.277L165.364 276.938L191.585 273.771L217.959 274.695L244.119 269.891L270.569 273.155L296.666 266.682L322.996 266.416L349.512 271.124L375.611 264.705L402.039 267.064L428.316 265.406L454.593 263.727L480.83 260.995L507.358 266.033L533.48 260.24L559.77 258.603L586.108 258.582L612.407 257.498L638.871 260.824L665.136 258.837L691.474 258.805L717.697 255.68L744.121 257.635L770.316 253.777L796.549 250.939L822.889 250.652L849.187 249.248L876.733 247.057L899.422 264.689L917.377 286.143L939.235 302.93L961.465 319.29L985.971 332.921L1008.64 348.765L1030.24 365.881L1047.87 387.73L1071.32 401.44L1045.26 398.887L1018.73 405.587L992.02 407.867L965.004 401.675L938.37 405.964L911.553 405.086L884.812 406.526L858.029 406.839L831.44 412.041L804.536 409.124L777.916 413.816L751.143 414.107L724.311 413.103L697.693 417.837L670.884 417.172L644.142 418.58L617.312 417.629L590.452 415.902L563.913 422.73L537.13 423.043L510.187 419.105L483.629 425.126L456.772 423.462L429.91 421.692L403.213 424.291L376.338 422.159L349.688 426.033L322.829 424.316L296.198 428.711L269.376 428.259L242.606 429.53L215.262 432.959Z" fill="white"/>
<path d="M215.262 432.959L192.792 418.811L173.353 401.951L151.931 387.586L130.456 373.308L111.918 355.289L89.7327 341.908L68.6073 327.171L49.0828 310.389L27.4055 296.341L5.38818 279.442L33.7631 278.915L59.9999 276.47L86.3024 275.482L112.731 277.852L139.075 278.277L165.364 276.938L191.585 273.771L217.959 274.695L244.119 269.891L270.569 273.155L296.666 266.682L322.996 266.416L349.512 271.124L375.611 264.705L402.039 267.064L428.316 265.406L454.593 263.727L480.83 260.995L507.358 266.033L533.48 260.24L559.77 258.603L586.108 258.582L612.407 257.498L638.871 260.824L665.136 258.837L691.474 258.805L717.697 255.68L744.121 257.635L770.316 253.777L796.549 250.939L822.889 250.652L849.187 249.248L876.733 247.057L899.422 264.689L917.377 286.143L939.235 302.93L961.465 319.29L985.971 332.921L1008.64 348.765L1030.24 365.881L1047.87 387.73L1071.32 401.44L1045.26 398.887L1018.73 405.587L992.02 407.867L965.004 401.675L938.37 405.964L911.553 405.086L884.812 406.526L858.029 406.839L831.44 412.041L804.536 409.124L777.916 413.816L751.143 414.107L724.311 413.103L697.693 417.837L670.884 417.172L644.142 418.58L617.312 417.629L590.452 415.902L563.913 422.73L537.13 423.043L510.187 419.105L483.629 425.126L456.772 423.462L429.91 421.692L403.213 424.291L376.338 422.159L349.688 426.033L322.829 424.316L296.198 428.711L269.376 428.259L242.606 429.53L215.262 432.959Z" stroke="#111111" stroke-width="10.774" stroke-linejoin="round"/>
<path d="M224.403 660.522L251.35 659.245L278.223 657.758L305.26 660.373L332.039 656.687L358.875 653.913L385.893 656.327L412.609 650.653L439.646 653.544L466.406 649.05L493.394 650.347L520.352 651.145L547.096 646.225L574.096 647.852L601.112 650.191L627.883 645.983L654.864 647.1L681.7 644.646L708.682 645.773L735.521 643.404L762.431 642.618L789.324 641.684L816.09 637.04L843.13 639.74L870.109 641.101L897.03 640.9L923.669 632.866L950.775 637.32L977.522 632.474L1004.37 629.988L1031.35 631.264L1058.24 629.425L1084.02 627.688L1089.91 605.394L1090.46 579.589L1091.49 553.939L1093.88 528.242L1091.34 502.607L1088.03 477.127L1085.69 451.464L1078.18 426.756L1070.36 402.442L1045.34 401.013L1018.54 400.539L991.797 401.862L965.121 405.024L938.302 404.094L911.687 408.903L884.782 405.655L858.23 412.143L831.457 412.424L804.486 407.732L777.943 414.167L751.061 411.833L724.329 413.507L697.609 415.212L670.917 417.97L643.934 412.959L617.346 418.778L590.613 420.441L563.821 420.499L537.067 421.609L510.138 418.32L483.419 420.345L456.626 420.403L429.949 423.554L403.072 421.636L376.422 425.531L349.735 428.405L322.952 428.719L296.211 430.158L269.517 432.576L242.745 433.187L213.39 429.48L219.924 456.542L225.659 481.545L233.591 506.473L237.228 532.133L237.808 558.016L230.635 583.622L231.788 609.389L225.505 634.454L224.403 660.522Z" fill="white"/>
<path d="M224.403 660.522L251.35 659.245L278.223 657.758L305.26 660.373L332.039 656.687L358.875 653.913L385.893 656.327L412.609 650.653L439.646 653.544L466.406 649.05L493.394 650.347L520.352 651.145L547.096 646.225L574.096 647.852L601.112 650.191L627.883 645.983L654.864 647.1L681.7 644.646L708.682 645.773L735.521 643.404L762.431 642.618L789.324 641.684L816.09 637.04L843.13 639.74L870.109 641.101L897.03 640.9L923.669 632.866L950.775 637.32L977.522 632.474L1004.37 629.988L1031.35 631.264L1058.24 629.425L1084.02 627.688L1089.91 605.394L1090.46 579.589L1091.49 553.939L1093.88 528.242L1091.34 502.607L1088.03 477.127L1085.69 451.464L1078.18 426.756L1070.36 402.442L1045.34 401.013L1018.54 400.539L991.797 401.862L965.121 405.024L938.302 404.094L911.687 408.903L884.782 405.655L858.23 412.143L831.457 412.424L804.486 407.732L777.943 414.167L751.061 411.833L724.329 413.507L697.609 415.212L670.917 417.97L643.934 412.959L617.346 418.778L590.613 420.441L563.821 420.499L537.067 421.609L510.138 418.32L483.419 420.345L456.626 420.403L429.949 423.554L403.072 421.636L376.422 425.531L349.735 428.405L322.952 428.719L296.211 430.158L269.517 432.576L242.745 433.187L213.39 429.48L219.924 456.542L225.659 481.545L233.591 506.473L237.228 532.133L237.808 558.016L230.635 583.622L231.788 609.389L225.505 634.454L224.403 660.522Z" stroke="#111111" stroke-width="10.774" stroke-linecap="round" stroke-linejoin="round"/>
<path d="M239.263 422.609L217.801 409.023L200.152 391.404L180.411 376.532L159.602 363.082L141.852 345.585L122.913 329.652L103.71 314.079L81.803 302.052L63.3617 285.462L43.9995 271.087L41.9361 246.483L40.7764 221.26L42.5926 195.931L36.1821 170.886L35.2346 145.646L35.3184 120.379L35.9014 95.0832L35.8466 69.8106L33.2598 42.1811L53.0216 60.8728L71.604 76.9464L93.3653 88.7769L112.405 104.238L134.715 115.347L153.662 130.917L171.697 147.734L191.183 162.594L210.233 178.066L231.683 190.716L234.637 217.311L244.677 241.47L250.269 266.831L252.197 292.718L253.435 318.629L254.218 344.621L251.249 370.47L246.321 395.953L239.263 422.609Z" fill="white"/>
<path d="M239.263 422.609L217.801 409.023L200.152 391.404L180.411 376.532L159.602 363.082L141.852 345.585L122.913 329.652L103.71 314.079L81.803 302.052L63.3617 285.462L43.9995 271.087L41.9361 246.483L40.7764 221.26L42.5926 195.931L36.1821 170.886L35.2346 145.646L35.3184 120.379L35.9014 95.0832L35.8466 69.8106L33.2598 42.1811L53.0216 60.8728L71.604 76.9464L93.3653 88.7769L112.405 104.238L134.715 115.347L153.662 130.917L171.697 147.734L191.183 162.594L210.233 178.066L231.683 190.716L234.637 217.311L244.677 241.47L250.269 266.831L252.197 292.718L253.435 318.629L254.218 344.621L251.249 370.47L246.321 395.953L239.263 422.609Z" stroke="white" stroke-width="8.81506" stroke-linecap="round" stroke-linejoin="round"/>
<path d="M230.858 193.845L211.34 176.9L192.983 159.691L169.454 149.318L149.857 133.738L132.82 114.757L109.779 103.739L91.3705 86.5839L73.0335 69.3416L52.0437 55.5785L35.0968 41.7876L57.0817 40.2651L82.3755 41.9868L107.451 37.6185L132.7 38.0861L157.876 36.8322L183.157 38.1819L208.136 31.1247L233.38 31.4541L258.715 34.6429L283.847 31.8369L308.983 29.1692L334.288 31.1991L359.413 28.2231L384.598 26.9158L409.828 26.8413L435.046 26.4586L460.368 28.9562L485.379 22.7917L510.506 19.8582L535.827 22.3451L561.024 21.3673L586.157 18.6145L611.483 20.931L636.728 21.2923L661.957 21.2072L687.026 16.6582L712.3 17.8379L737.497 16.8387L762.66 14.617L787.85 13.4584L813.158 15.286L838.171 8.87671L864.46 8.08317L885.659 26.17L905.65 44.1512L926.039 61.6286L948.893 76.0484L966.847 96.5503L986.706 114.696L1009.89 128.71L1030.24 146.253L1055.18 163.194L1026.26 165.647L1000.53 163.951L974.898 164.689L949.229 164.663L923.704 168.366L897.898 164.534L872.44 170.097L846.86 172.547L821.208 172.732L795.575 173.694L769.98 175.75L744.32 175.681L718.64 175.356L692.874 172.64L667.434 178.714L641.704 176.986L615.979 175.408L590.341 176.263L564.759 178.681L539.07 178.112L513.529 181.646L487.829 180.779L462.33 185.493L436.598 183.436L411 185.386L385.251 183.137L359.819 189.732L333.987 185.167L308.4 187.744L282.764 188.642L257.441 194.424L230.858 193.845Z" fill="#111111"/>
<path d="M230.858 193.845L211.34 176.9L192.983 159.691L169.454 149.318L149.857 133.738L132.82 114.757L109.779 103.739L91.3705 86.5839L73.0335 69.3416L52.0437 55.5785L35.0968 41.7876L57.0817 40.2651L82.3755 41.9868L107.451 37.6185L132.7 38.0861L157.876 36.8322L183.157 38.1819L208.136 31.1247L233.38 31.4541L258.715 34.6429L283.847 31.8369L308.983 29.1692L334.288 31.1991L359.413 28.2231L384.598 26.9158L409.828 26.8413L435.046 26.4586L460.368 28.9562L485.379 22.7917L510.506 19.8582L535.827 22.3451L561.024 21.3673L586.157 18.6145L611.483 20.931L636.728 21.2923L661.957 21.2072L687.026 16.6582L712.3 17.8379L737.497 16.8387L762.66 14.617L787.85 13.4584L813.158 15.286L838.171 8.87671L864.46 8.08317L885.659 26.17L905.65 44.1512L926.039 61.6286L948.893 76.0484L966.847 96.5503L986.706 114.696L1009.89 128.71L1030.24 146.253L1055.18 163.194L1026.26 165.647L1000.53 163.951L974.898 164.689L949.229 164.663L923.704 168.366L897.898 164.534L872.44 170.097L846.86 172.547L821.208 172.732L795.575 173.694L769.98 175.75L744.32 175.681L718.64 175.356L692.874 172.64L667.434 178.714L641.704 176.986L615.979 175.408L590.341 176.263L564.759 178.681L539.07 178.112L513.529 181.646L487.829 180.779L462.33 185.493L436.598 183.436L411 185.386L385.251 183.137L359.819 189.732L333.987 185.167L308.4 187.744L282.764 188.642L257.441 194.424L230.858 193.845Z" stroke="white" stroke-width="8.81506" stroke-linejoin="round"/>
<path d="M240.369 419.039L265.459 418.639L291.204 417.216L316.914 414.815L342.689 414.221L368.676 419.238L394.437 418.272L420.179 416.763L445.796 411.759L471.514 409.591L497.29 409.029L523.295 414.546L548.954 410.731L574.819 412.656L600.386 405.961L626.1 403.677L652.117 409.853L677.771 405.57L703.609 406.442L729.352 404.987L755.148 404.679L780.758 399.473L806.668 402.375L832.296 397.689L858.092 397.392L883.924 398.381L909.561 393.641L935.381 394.312L961.137 392.888L986.978 393.846L1012.85 395.568L1038.41 388.735L1063.26 388.599L1070.27 366.234L1067.87 340.12L1071.87 314.638L1074.74 288.855L1071.94 263.128L1072.44 237.08L1065.46 211.992L1062.27 186.161L1051.42 162.478L1026.13 162.076L1000.51 163.292L974.8 161.926L949.384 168.967L923.703 168.632L897.932 165.459L872.365 168.28L846.803 170.953L821.073 168.938L795.512 171.93L769.891 173.263L744.237 173.353L718.583 173.762L692.826 171.291L667.39 177.481L641.828 180.441L616.061 177.98L590.428 178.984L564.86 181.774L539.109 179.483L513.418 179.149L487.754 179.271L462.25 183.846L436.53 182.704L410.899 183.74L385.311 185.987L359.685 187.183L333.953 185.402L308.516 191.837L282.882 192.82L257.223 192.782L232.021 191.536L237.827 216.645L245.812 241.378L244.686 267.555L245.222 293.194L249.723 318.701L248.367 344.397L251.068 370.458L246.781 396.035L240.369 419.039Z" fill="#111111"/>
<path d="M240.369 419.039L265.459 418.639L291.204 417.216L316.914 414.815L342.689 414.221L368.676 419.238L394.437 418.272L420.179 416.763L445.796 411.759L471.514 409.591L497.29 409.029L523.295 414.546L548.954 410.731L574.819 412.656L600.386 405.961L626.1 403.677L652.117 409.853L677.771 405.57L703.609 406.442L729.352 404.987L755.148 404.679L780.758 399.473L806.668 402.375L832.296 397.689L858.092 397.392L883.924 398.381L909.561 393.641L935.381 394.312L961.137 392.888L986.978 393.846L1012.85 395.568L1038.41 388.735L1063.26 388.599L1070.27 366.234L1067.87 340.12L1071.87 314.638L1074.74 288.855L1071.94 263.128L1072.44 237.08L1065.46 211.992L1062.27 186.161L1051.42 162.478L1026.13 162.076L1000.51 163.292L974.8 161.926L949.384 168.967L923.703 168.632L897.932 165.459L872.365 168.28L846.803 170.953L821.073 168.938L795.512 171.93L769.891 173.263L744.237 173.353L718.583 173.762L692.826 171.291L667.39 177.481L641.828 180.441L616.061 177.98L590.428 178.984L564.86 181.774L539.109 179.483L513.418 179.149L487.754 179.271L462.25 183.846L436.53 182.704L410.899 183.74L385.311 185.987L359.685 187.183L333.953 185.402L308.516 191.837L282.882 192.82L257.223 192.782L232.021 191.536L237.827 216.645L245.812 241.378L244.686 267.555L245.222 293.194L249.723 318.701L248.367 344.397L251.068 370.458L246.781 396.035L240.369 419.039Z" stroke="white" stroke-width="8.81506" stroke-linecap="round" stroke-linejoin="round"/>
<path d="M27.4668 389.373L51.4805 401.436L70.5353 419.915L95.1955 431.147L115.945 447.43L136.95 463.384L159.004 477.994L179.732 494.288L202.05 508.547" fill="white"/>
<path d="M27.4678 389.373L51.4814 401.436L70.5362 419.915L95.1964 431.147L115.946 447.43L136.951 463.384L159.005 477.994L179.733 494.288L202.051 508.547" stroke="#111111" stroke-width="7" stroke-linejoin="round"/>
<path d="M26.9082 415.078L50.9219 427.141L69.9767 445.621L94.6369 456.852L115.387 473.135L136.391 489.089L158.445 503.699L179.173 519.993L201.492 534.253" stroke="#111111" stroke-width="7" stroke-linejoin="round"/>
<path d="M36.6738 451.228L59.3306 465.029L80.5473 480.721L103.162 494.598L124.707 509.842L145.754 525.753L165.391 543.468L186.586 559.181L208.958 573.365" fill="white"/>
<path d="M36.6738 451.228L59.3306 465.029L80.5473 480.721L103.162 494.598L124.707 509.842L145.754 525.753L165.391 543.468L186.586 559.181L208.958 573.365" stroke="#111111" stroke-width="7" stroke-linejoin="round"/>
<path d="M46.2236 125.513L69.6133 137.051L89.2169 153.705L108.871 170.293L131.571 182.761L150.626 200.158L171.337 215.325L189.935 233.335L211.63 247.169" fill="white"/>
<path d="M46.2236 125.513L69.6133 137.051L89.2169 153.705L108.871 170.293L131.571 182.761L150.626 200.158L171.337 215.325L189.935 233.335L211.63 247.169" stroke="#111111" stroke-width="7" stroke-linejoin="round"/>
<path d="M57.5205 236.658L76.3833 254.318L97.6211 268.764L116.351 286.588L140.36 297.295L157.721 316.988L179.334 330.92L199.953 346.208L223.475 357.571" fill="white"/>
<path d="M57.5205 236.658L76.3833 254.318L97.6211 268.764L116.351 286.588L140.36 297.295L157.721 316.988L179.334 330.92L199.953 346.208L223.475 357.571" stroke="#111111" stroke-width="7" stroke-linejoin="round"/>
<path d="M53.3438 200.07L77.0488 211.203L96.0937 228.601L115.231 245.889L135.819 261.21L157.341 275.284L177.076 291.752L199.258 304.93L218.821 321.628" fill="white"/>
<path d="M53.3438 200.07L77.0488 211.203L96.0937 228.601L115.231 245.889L135.819 261.21L157.341 275.284L177.076 291.752L199.258 304.93L218.821 321.628" stroke="#111111" stroke-width="7" stroke-linejoin="round"/>
</svg>
