<svg width="1440" height="1862" viewBox="0 0 1440 1862" fill="none" xmlns="http://www.w3.org/2000/svg">
<path d="M709.893 761.586C709.893 767.566 685.673 774.236 685.443 780.156C685.213 786.076 650.103 790.036 649.633 795.946C649.163 801.906 632.643 805.246 631.933 811.126C631.223 817.056 685.933 830.576 684.983 836.436C684.033 842.336 717.823 856.236 716.643 862.046C715.453 867.896 590.483 845.786 589.063 851.556C587.643 857.326 705.883 894.876 704.233 900.586C702.573 906.316 607.273 883.196 605.393 888.836C603.503 894.496 607.273 900.486 605.163 906.036C603.043 911.616 622.563 924.816 620.233 930.286C617.893 935.776 620.303 942.916 617.753 948.286C615.193 953.666 641.473 973.856 638.703 979.116C635.933 984.376 635.293 992.046 632.313 997.196C629.333 1002.36 566.363 970.826 563.183 975.846C559.993 980.876 656.063 1052.48 652.683 1057.38C649.303 1062.28 633.043 1061.38 629.473 1066.13C625.903 1070.88 564.393 1031.59 560.623 1036.2C556.853 1040.81 607.183 1092.89 603.233 1097.35C599.283 1101.81 500.323 1018.48 496.203 1022.77C492.083 1027.06 511.143 1051.67 506.853 1055.8C502.563 1059.92 471.023 1031.19 466.573 1035.14C462.123 1039.09 470.203 1053.45 465.593 1057.22C460.983 1060.99 460.933 1066.69 456.173 1070.28C451.423 1073.86 450.683 1079.21 445.783 1082.6C440.893 1085.98 503.923 1192.57 498.893 1195.76C493.863 1198.95 479.103 1190.96 473.943 1193.95C468.783 1196.94 420.693 1123.08 415.413 1125.86C410.133 1128.64 403.543 1125.57 398.153 1128.13C392.763 1130.69 406.593 1174.32 401.103 1176.66C395.613 1179 400.453 1209.34 394.873 1211.46C389.313 1213.57 382.153 1215.71 376.493 1217.6C370.863 1219.48 333.123 1115.86 327.393 1117.51C321.663 1119.16 341.673 1213.04 335.873 1214.46C330.073 1215.88 332.633 1262.88 326.783 1264.07C320.933 1265.26 313.183 1272 307.283 1272.95C301.383 1273.9 283.723 1201.71 277.793 1202.42C271.863 1203.13 264.393 1184.1 258.433 1184.58C252.473 1185.06 250.223 1258.22 244.253 1258.45C238.333 1258.68 230.243 1208.52 224.263 1208.52C218.283 1208.52 209.743 1270.1 203.823 1269.86C197.853 1269.62 191.053 1247.18 185.143 1246.71C179.233 1246.24 176.593 1203.38 170.703 1202.67C164.813 1201.96 154.463 1228.24 148.603 1227.3C142.703 1226.35 136.383 1221.83 130.563 1220.65C124.713 1219.46 109.073 1253.9 103.313 1252.48C97.5528 1251.06 117.193 1152.52 111.483 1150.87C105.773 1149.22 83.0928 1203.2 77.4628 1201.32C71.8328 1199.44 47.3428 1244.81 41.7928 1242.71C36.2428 1240.61 68.8428 1141.61 63.3728 1139.28C57.9028 1136.95 50.9428 1140.8 45.5728 1138.24C40.1928 1135.68 1.29281 1199.16 -3.96719 1196.39C-9.24719 1193.62 17.3428 1131.95 12.1928 1128.97C7.03281 1125.99 -25.3072 1167.35 -30.3272 1164.16C-35.3572 1160.97 -65.7972 1192.19 -70.6872 1188.81C-75.5772 1185.43 -51.5372 1138.52 -56.2972 1134.94C-61.0572 1131.36 -19.9672 1070.19 -24.5772 1066.42C-29.1872 1062.65 -61.9572 1093.65 -66.4172 1089.71C-70.8772 1085.77 -126.607 1135.47 -130.897 1131.34C-135.187 1127.22 -110.817 1091.7 -114.947 1087.41C-119.077 1083.12 -66.9372 1027.5 -70.8872 1023.04C-74.8372 1018.58 -154.627 1078.66 -158.397 1074.05C-162.167 1069.44 -154.567 1053.74 -158.147 1048.98C-161.727 1044.22 -193.957 1057.57 -197.347 1052.67C-200.737 1047.77 -107.157 978.156 -110.347 973.126C-113.537 968.096 -157.027 988.606 -160.007 983.446C-162.987 978.286 -169.477 974.976 -172.257 969.706C-175.037 964.436 -234.157 985.766 -236.717 980.386C-239.277 975.006 -250.357 970.336 -252.697 964.856C-255.037 959.376 -230.317 940.396 -232.437 934.816C-234.557 929.236 -160.477 896.346 -162.367 890.686C-164.257 885.026 -267.277 910.166 -268.937 904.426C-270.597 898.686 -187.117 869.166 -188.547 863.366C-189.967 857.596 -182.567 850.786 -183.747 844.926C-184.927 839.066 -230.767 841.576 -231.717 835.686C-232.667 829.796 -279.287 828.686 -279.997 822.756C-280.707 816.826 -145.547 797.536 -146.027 791.576C-146.507 785.616 -151.647 782.776 -151.877 776.806C-152.107 770.836 -196.607 767.576 -196.607 761.596C-196.607 755.616 -259.107 748.076 -258.867 742.146C-258.627 736.216 -280.267 726.876 -279.797 720.956C-279.327 714.996 -222.347 713.336 -221.637 707.446C-220.927 701.516 -166.507 704.026 -165.557 698.166C-164.607 692.266 -177.097 685.656 -175.917 679.846C-174.727 673.996 -281.357 643.136 -279.937 637.366C-278.517 631.596 -217.237 639.886 -215.587 634.186C-213.937 628.486 -143.957 644.906 -142.077 639.276C-140.197 633.646 -223.237 598.226 -221.127 592.666C-219.007 587.086 -138.707 613.426 -136.377 607.956C-134.037 602.466 -161.117 585.316 -158.567 579.946C-156.007 574.566 -183.527 554.266 -180.757 549.006C-177.987 543.746 -188.837 529.926 -185.857 524.776C-182.877 519.626 -201.577 499.286 -198.387 494.256C-195.197 489.226 -101.927 543.716 -98.5472 538.816C-95.1672 533.916 -119.987 510.356 -116.407 505.596C-112.827 500.836 -78.5772 522.036 -74.8072 517.426C-71.0372 512.816 -74.5272 504.836 -70.5772 500.376C-66.6272 495.916 -151.157 409.196 -147.037 404.906C-142.917 400.616 -130.277 401.046 -125.987 396.916C-121.697 392.786 -82.0272 424.806 -77.5772 420.856C-73.1272 416.906 -46.0972 439.816 -41.4872 436.046C-36.8772 432.276 -40.1672 419.556 -35.4072 415.976C-30.6472 412.396 -9.76719 432.926 -4.86719 429.536C0.0328126 426.146 0.992796 419.566 6.0228 416.376C11.0528 413.186 24.9428 428.146 30.1028 425.166C35.2628 422.186 15.1228 375.896 20.4028 373.126C25.6828 370.356 58.4328 425.886 63.8228 423.326C69.2128 420.766 68.3428 410.736 73.8228 408.396C79.3028 406.056 72.3028 377.676 77.8728 375.556C83.4428 373.436 78.6828 344.356 84.3428 342.466C89.9728 340.586 89.9828 319.416 95.7128 317.756C101.443 316.096 122.383 373.346 128.183 371.916C133.983 370.486 145.273 404.926 151.123 403.736C156.973 402.546 142.243 293.916 148.143 292.956C154.043 291.996 161.983 297.996 167.923 297.286C173.863 296.576 184.543 344.146 190.503 343.676C196.413 343.206 197.573 246.296 203.543 246.056C209.513 245.816 218.293 391.876 224.273 391.876C230.253 391.876 234.163 369.786 240.093 370.026C246.023 370.266 249.423 377.176 255.333 377.646C261.243 378.116 270.903 328.426 276.793 329.136C282.683 329.846 288.213 331.236 294.073 332.176C299.933 333.116 293.823 391.596 299.643 392.776C305.463 393.956 314.953 369.006 320.723 370.426C326.493 371.846 355.473 287.196 361.183 288.846C366.893 290.496 353.553 355.586 359.193 357.466C364.853 359.356 350.193 412.766 355.743 414.876C361.293 416.986 384.943 369.266 390.413 371.596C395.883 373.926 416.693 342.206 422.063 344.766C427.433 347.326 408.273 398.136 413.533 400.896C418.793 403.656 452.453 354.496 457.603 357.476C462.753 360.456 425.623 431.926 430.653 435.116C435.683 438.306 437.483 442.126 442.383 445.506C447.283 448.886 506.633 375.966 511.393 379.546C516.153 383.126 452.333 472.786 456.943 476.556C461.553 480.326 461.973 484.266 466.423 488.216C470.883 492.166 511.973 453.466 516.263 457.586C520.553 461.706 509.843 479.046 513.963 483.346C518.083 487.636 502.373 507.296 506.323 511.756C510.273 516.206 517.283 514.726 521.053 519.336C524.823 523.946 519.593 532.296 523.173 537.056C526.753 541.806 571.063 515.006 574.453 519.906C577.843 524.806 599.383 517.336 602.573 522.366C605.753 527.386 568.803 555.836 571.793 560.996C574.773 566.146 576.993 569.776 579.763 575.056C582.533 580.336 670.023 543.436 672.583 548.826C675.133 554.196 670.483 564.976 672.823 570.456C675.153 575.926 651.813 593.056 653.923 598.636C656.033 604.196 622.493 622.336 624.383 627.996C626.263 633.626 641.573 634.486 643.233 640.216C644.883 645.916 584.043 666.686 585.473 672.486C586.903 678.286 585.293 681.696 586.483 687.546C587.673 693.396 736.683 672.336 737.633 678.236C738.573 684.096 742.333 692.746 743.043 698.676C743.753 704.606 679.863 718.806 680.343 724.766C680.813 730.676 588.453 740.856 588.683 746.836C588.913 752.816 709.893 755.596 709.893 761.576V761.586Z" fill="#C0C0C0"/>
<path d="M956.832 846.589C960.046 851.631 943.209 870.275 946.197 875.391C949.186 880.506 921.709 902.719 924.489 907.955C927.297 913.233 915.162 924.93 917.724 930.27C920.313 935.652 973.714 917.643 976.063 923.095C978.434 928.58 1014.4 922.137 1016.53 927.671C1018.67 933.243 901.404 981.778 903.308 987.407C905.213 993.035 1025.1 961.138 1026.78 966.84C1028.46 972.564 935.672 1004.3 937.118 1010.06C938.567 1015.85 944.966 1018.88 946.17 1024.69C947.382 1030.54 970.938 1031.17 971.914 1037.04C972.892 1042.93 978.762 1047.65 979.498 1053.55C980.232 1059.46 1013.25 1062.36 1013.74 1068.28C1014.23 1074.21 1017.81 1081.02 1018.07 1086.97C1018.33 1092.92 948.281 1100.18 948.298 1106.12C948.312 1112.08 1067.81 1120.81 1067.59 1126.76C1067.38 1132.71 1053.18 1140.69 1052.73 1146.62C1052.27 1152.54 979.282 1152.47 978.581 1158.39C977.88 1164.3 1048.32 1181.16 1047.38 1187.05C1046.45 1192.93 918.209 1175.86 917.041 1181.69C915.873 1187.53 945.174 1198.03 943.777 1203.82C942.374 1209.6 900.335 1202.33 898.706 1208.05C897.077 1213.77 911.609 1221.54 909.749 1227.2C907.888 1232.85 910.91 1237.69 908.826 1243.27C906.745 1248.85 908.997 1253.75 906.687 1259.25C904.381 1264.73 1014.83 1320.72 1012.3 1326.12C1009.77 1331.51 993.033 1332.71 990.29 1338C987.546 1343.3 907.291 1306.87 904.333 1312.05C901.375 1317.23 894.168 1318.19 890.999 1323.24C887.831 1328.3 922.946 1357.65 919.575 1362.58C916.203 1367.5 936.594 1390.49 933.028 1395.27C929.474 1400.04 924.587 1405.69 920.83 1410.33C917.093 1414.94 829.568 1347.85 825.624 1352.33C821.679 1356.8 889.018 1425.2 884.89 1429.52C880.763 1433.83 908.187 1472.09 903.893 1476.24C899.6 1480.38 896.688 1490.23 892.224 1494.21C887.76 1498.18 834.062 1446.8 829.443 1450.59C824.825 1454.37 808.296 1442.34 803.529 1445.95C798.761 1449.56 836.191 1512.46 831.281 1515.86C826.413 1519.24 792.627 1481.29 787.585 1484.51C782.542 1487.72 808.444 1544.24 803.323 1547.22C798.159 1550.22 780.363 1534.96 775.127 1537.74C769.891 1540.52 744.625 1505.8 739.277 1508.36C733.928 1510.93 739.328 1538.66 733.881 1541.01C728.395 1543.38 720.636 1542.97 715.095 1545.1C709.522 1547.24 714.847 1584.69 709.227 1586.59C703.607 1588.49 667.197 1494.84 661.495 1496.52C655.793 1498.2 665.686 1555.91 659.928 1557.35C654.17 1558.79 657.908 1610.21 652.1 1611.42C646.291 1612.64 620.562 1511.63 614.697 1512.61C608.832 1513.58 605.033 1520.57 599.129 1521.3C593.216 1522.03 594.538 1596.47 588.614 1596.96C582.673 1597.47 571.943 1531.17 565.999 1531.43C560.046 1531.69 555.009 1583.95 549.061 1583.96C543.105 1583.97 534.219 1626.66 528.279 1626.44C522.339 1626.22 517.393 1573.74 511.455 1573.28C505.517 1572.82 507.283 1499.15 501.369 1498.45C495.455 1497.75 484.487 1541.5 478.608 1540.58C472.729 1539.65 452.453 1611.52 446.615 1610.34C440.783 1609.18 442.238 1566.12 436.45 1564.73C430.661 1563.33 444.728 1488.4 439 1486.76C433.272 1485.13 398.287 1578.68 392.63 1576.82C386.973 1574.96 384.941 1557.63 379.364 1555.54C373.786 1553.45 353.786 1582.04 348.293 1579.73C342.8 1577.42 384.29 1468.42 378.897 1465.89C373.503 1463.36 347.856 1504.04 342.57 1501.29C337.283 1498.54 330.031 1499.24 324.854 1496.29C319.677 1493.34 281.291 1543.1 276.241 1539.94C271.19 1536.78 259.336 1538.8 254.418 1535.44C249.499 1532.07 260.14 1502.78 255.353 1499.22C250.566 1495.65 295.352 1428.09 290.716 1424.34C286.08 1420.58 212.724 1497.16 208.239 1493.21C203.754 1489.26 258.278 1419.5 253.954 1415.37C249.655 1411.27 252.234 1401.55 248.089 1397.24C243.944 1392.94 206.64 1419.7 202.672 1415.24C198.705 1410.78 158.797 1434.91 155.011 1430.29C151.224 1425.67 254.826 1336.75 251.217 1331.98C247.608 1327.21 241.748 1327.58 238.344 1322.67C234.941 1317.76 195.665 1338.93 192.451 1333.89C189.236 1328.85 132.481 1356.09 129.496 1350.96C126.51 1345.83 103.242 1349.59 100.456 1344.34C97.6487 1339.06 144.804 1307.03 142.236 1301.69C139.647 1296.3 186.885 1269.17 184.536 1263.71C182.165 1258.23 168.08 1259.37 165.952 1253.83C163.811 1248.26 57.3082 1279.56 55.4039 1273.93C53.4996 1268.3 109.629 1242.35 107.956 1236.66C106.284 1230.96 174.119 1207.19 172.678 1201.43C171.237 1195.68 82.1751 1210.45 80.9655 1204.63C79.7535 1198.78 161.624 1177.83 160.648 1171.96C159.67 1166.07 127.617 1166.17 126.88 1160.27C126.147 1154.36 92.0287 1152.03 91.5369 1146.11C91.0451 1140.18 74.4671 1134.36 74.2115 1128.42C73.9559 1122.47 47.2536 1115.38 47.2396 1109.42C47.2256 1103.46 155.165 1099.27 155.381 1093.32C155.597 1087.38 122.003 1080.85 122.463 1074.91C122.923 1068.97 163.2 1068.44 163.901 1062.53C164.602 1056.61 157.369 1051.76 158.302 1045.87C159.236 1039.99 41.3409 1012.31 42.5088 1006.47C43.6768 1000.64 54.5664 994.209 55.9637 988.42C57.3611 982.632 108.024 988.307 109.653 982.584C111.283 976.861 146.39 981.649 148.251 975.992C150.112 970.335 140.5 961.378 142.589 955.8C144.678 950.223 173.321 956.31 175.631 950.818C177.94 945.325 175.213 939.261 177.739 933.867C180.266 928.473 200.02 933.621 202.769 928.334C205.518 923.048 163.652 894.841 166.616 889.667C169.579 884.493 227.045 913.713 230.214 908.657C233.383 903.6 227.257 895.611 230.62 890.692C233.983 885.773 212.825 865.605 216.382 860.823C219.939 856.041 200.293 834.079 204.05 829.442C207.787 824.831 196.415 806.974 200.355 802.494C204.294 798.014 252.726 835.033 256.848 830.709C260.97 826.385 289.004 849.357 293.297 845.209C297.59 841.061 226.775 757.379 231.234 753.398C235.693 749.417 245.613 750.208 250.24 746.416C254.867 742.625 289.445 776.996 294.218 773.396C298.948 769.823 247.832 687.482 252.737 684.07C257.642 680.659 343.561 799.101 348.604 795.886C353.646 792.672 345.069 771.943 350.198 768.958C355.327 765.972 361.909 769.971 367.145 767.191C372.381 764.41 353.815 717.317 359.164 714.75C364.512 712.182 369.922 710.382 375.369 708.024C380.816 705.667 407.1 758.263 412.642 756.13C418.183 753.996 412.774 727.856 418.402 725.952C424.031 724.047 402.964 637.09 408.666 635.412C414.368 633.734 438.108 695.79 443.875 694.344C449.663 692.895 466.012 745.812 471.827 744.608C477.641 743.404 471.931 690.452 477.796 689.476C483.661 688.5 484.157 650.567 490.062 649.839C495.966 649.111 507.123 702.255 513.042 701.754C518.961 701.254 520.918 641.707 526.862 641.451C532.807 641.196 539.917 721.421 545.873 721.407C551.829 721.393 555.401 723.646 561.349 723.862C567.298 724.078 578.145 630.686 584.083 631.146C590.022 631.606 584.404 741.517 590.318 742.218C596.232 742.919 598.704 746.015 604.579 746.954C610.464 747.887 624.309 693.166 630.141 694.334C635.973 695.502 636.263 715.881 642.049 717.292C647.829 718.695 645.15 743.717 650.878 745.355C656.601 746.984 661.717 741.968 667.374 743.828C673.031 745.689 673.109 755.541 678.687 757.631C684.259 759.712 707.216 713.294 712.709 715.604C718.201 717.913 732.349 700.035 737.743 702.562C743.123 705.085 727.259 748.938 732.554 751.682C737.835 754.422 741.658 756.29 746.832 759.253C752.006 762.216 805.945 684.071 811.001 687.239C816.038 690.397 817.911 701.986 822.83 705.349C827.736 708.709 817.263 735.7 822.042 739.271C826.81 742.826 808.279 776.151 812.915 779.908C817.527 783.645 830.899 776.14 835.379 780.079C839.835 783.999 799.698 834.217 804.021 838.34C808.345 842.462 808.82 846.202 812.968 850.496C817.117 854.789 931.445 756.929 935.418 761.394C939.36 765.83 947.181 771.102 950.967 775.721C954.754 780.34 908.513 826.658 912.122 831.426C915.695 836.156 843.287 894.389 846.695 899.308C850.104 904.227 953.612 841.538 956.827 846.58L956.832 846.589Z" fill="#C0C0C0"/>
<path d="M1732.89 887.586C1732.89 893.566 1708.67 900.236 1708.44 906.156C1708.21 912.076 1673.1 916.036 1672.63 921.946C1672.16 927.906 1655.64 931.246 1654.93 937.126C1654.22 943.056 1708.93 956.576 1707.98 962.436C1707.03 968.336 1740.82 982.236 1739.64 988.046C1738.45 993.896 1613.48 971.786 1612.06 977.556C1610.64 983.326 1728.88 1020.88 1727.23 1026.59C1725.57 1032.32 1630.27 1009.2 1628.39 1014.84C1626.5 1020.5 1630.27 1026.49 1628.16 1032.04C1626.04 1037.62 1645.56 1050.82 1643.23 1056.29C1640.89 1061.78 1643.3 1068.92 1640.75 1074.29C1638.19 1079.67 1664.47 1099.86 1661.7 1105.12C1658.93 1110.38 1658.29 1118.05 1655.31 1123.2C1652.33 1128.36 1589.36 1096.83 1586.18 1101.85C1582.99 1106.88 1679.06 1178.48 1675.68 1183.38C1672.3 1188.28 1656.04 1187.38 1652.47 1192.13C1648.9 1196.88 1587.39 1157.59 1583.62 1162.2C1579.85 1166.81 1630.18 1218.89 1626.23 1223.35C1622.28 1227.81 1523.32 1144.48 1519.2 1148.77C1515.08 1153.06 1534.14 1177.67 1529.85 1181.8C1525.56 1185.92 1494.02 1157.19 1489.57 1161.14C1485.12 1165.09 1493.2 1179.45 1488.59 1183.22C1483.98 1186.99 1483.93 1192.69 1479.17 1196.28C1474.42 1199.86 1473.68 1205.21 1468.78 1208.6C1463.89 1211.98 1526.92 1318.57 1521.89 1321.76C1516.86 1324.95 1502.1 1316.96 1496.94 1319.95C1491.78 1322.94 1443.69 1249.08 1438.41 1251.86C1433.13 1254.64 1426.54 1251.57 1421.15 1254.13C1415.76 1256.69 1429.59 1300.32 1424.1 1302.66C1418.61 1305 1423.45 1335.34 1417.87 1337.46C1412.31 1339.57 1405.15 1341.71 1399.49 1343.6C1393.86 1345.48 1356.12 1241.86 1350.39 1243.51C1344.66 1245.16 1364.67 1339.04 1358.87 1340.46C1353.07 1341.88 1355.63 1388.88 1349.78 1390.07C1343.93 1391.26 1336.18 1398 1330.28 1398.95C1324.38 1399.9 1306.72 1327.71 1300.79 1328.42C1294.86 1329.13 1287.39 1310.1 1281.43 1310.58C1275.47 1311.06 1273.22 1384.22 1267.25 1384.45C1261.33 1384.68 1253.24 1334.52 1247.26 1334.52C1241.28 1334.52 1232.74 1396.1 1226.82 1395.86C1220.85 1395.62 1214.05 1373.18 1208.14 1372.71C1202.23 1372.24 1199.59 1329.38 1193.7 1328.67C1187.81 1327.96 1177.46 1354.24 1171.6 1353.3C1165.7 1352.35 1159.38 1347.83 1153.56 1346.65C1147.71 1345.46 1132.07 1379.9 1126.31 1378.48C1120.55 1377.06 1140.19 1278.52 1134.48 1276.87C1128.77 1275.22 1106.09 1329.2 1100.46 1327.32C1094.83 1325.44 1070.34 1370.81 1064.79 1368.71C1059.24 1366.61 1091.84 1267.61 1086.37 1265.28C1080.9 1262.95 1073.94 1266.8 1068.57 1264.24C1063.19 1261.68 1024.29 1325.16 1019.03 1322.39C1013.75 1319.62 1040.34 1257.95 1035.19 1254.97C1030.03 1251.99 997.693 1293.35 992.673 1290.16C987.643 1286.97 957.203 1318.19 952.313 1314.81C947.423 1311.43 971.463 1264.52 966.703 1260.94C961.943 1257.36 1003.03 1196.19 998.423 1192.42C993.813 1188.65 961.043 1219.65 956.583 1215.71C952.123 1211.77 896.393 1261.47 892.103 1257.34C887.813 1253.22 912.183 1217.7 908.053 1213.41C903.923 1209.12 956.063 1153.5 952.113 1149.04C948.163 1144.58 868.373 1204.66 864.603 1200.05C860.833 1195.44 868.433 1179.74 864.853 1174.98C861.273 1170.22 829.043 1183.57 825.653 1178.67C822.263 1173.77 915.843 1104.16 912.653 1099.13C909.463 1094.1 865.973 1114.61 862.993 1109.45C860.013 1104.29 853.523 1100.98 850.743 1095.71C847.963 1090.44 788.843 1111.77 786.283 1106.39C783.723 1101.01 772.643 1096.34 770.303 1090.86C767.963 1085.38 792.683 1066.4 790.563 1060.82C788.443 1055.24 862.523 1022.35 860.633 1016.69C858.743 1011.03 755.723 1036.17 754.063 1030.43C752.403 1024.69 835.883 995.166 834.453 989.366C833.033 983.596 840.433 976.786 839.253 970.926C838.073 965.066 792.233 967.576 791.283 961.686C790.333 955.796 743.713 954.686 743.003 948.756C742.293 942.826 877.453 923.536 876.973 917.576C876.493 911.616 871.353 908.776 871.123 902.806C870.893 896.836 826.393 893.576 826.393 887.596C826.393 881.616 763.893 874.076 764.133 868.146C764.373 862.216 742.733 852.876 743.203 846.956C743.673 840.996 800.653 839.336 801.363 833.446C802.073 827.516 856.493 830.026 857.443 824.166C858.393 818.266 845.903 811.656 847.083 805.846C848.273 799.996 741.643 769.136 743.063 763.366C744.483 757.596 805.763 765.886 807.413 760.186C809.063 754.486 879.043 770.906 880.923 765.276C882.803 759.646 799.763 724.226 801.873 718.666C803.993 713.086 884.293 739.426 886.623 733.956C888.963 728.466 861.883 711.316 864.433 705.946C866.993 700.566 839.473 680.266 842.243 675.006C845.013 669.746 834.163 655.926 837.143 650.776C840.123 645.626 821.423 625.286 824.613 620.256C827.803 615.226 921.073 669.716 924.453 664.816C927.833 659.916 903.013 636.356 906.593 631.596C910.173 626.836 944.423 648.036 948.193 643.426C951.963 638.816 948.473 630.836 952.423 626.376C956.373 621.916 871.843 535.196 875.963 530.906C880.083 526.616 892.723 527.046 897.013 522.916C901.303 518.786 940.973 550.806 945.423 546.856C949.873 542.906 976.903 565.816 981.513 562.046C986.123 558.276 982.833 545.556 987.593 541.976C992.353 538.396 1013.23 558.926 1018.13 555.536C1023.03 552.146 1023.99 545.566 1029.02 542.376C1034.05 539.186 1047.94 554.146 1053.1 551.166C1058.26 548.186 1038.12 501.896 1043.4 499.126C1048.68 496.356 1081.43 551.886 1086.82 549.326C1092.21 546.766 1091.34 536.736 1096.82 534.396C1102.3 532.056 1095.3 503.676 1100.87 501.556C1106.44 499.436 1101.68 470.356 1107.34 468.466C1112.97 466.586 1112.98 445.416 1118.71 443.756C1124.44 442.096 1145.38 499.346 1151.18 497.916C1156.98 496.486 1168.27 530.926 1174.12 529.736C1179.97 528.546 1165.24 419.916 1171.14 418.956C1177.04 417.996 1184.98 423.996 1190.92 423.286C1196.86 422.576 1207.54 470.146 1213.5 469.676C1219.41 469.206 1220.57 372.296 1226.54 372.056C1232.51 371.816 1241.29 517.876 1247.27 517.876C1253.25 517.876 1257.16 495.786 1263.09 496.026C1269.02 496.266 1272.42 503.176 1278.33 503.646C1284.24 504.116 1293.9 454.426 1299.79 455.136C1305.68 455.846 1311.21 457.236 1317.07 458.176C1322.93 459.116 1316.82 517.596 1322.64 518.776C1328.46 519.956 1337.95 495.006 1343.72 496.426C1349.49 497.846 1378.47 413.196 1384.18 414.846C1389.89 416.496 1376.55 481.586 1382.19 483.466C1387.85 485.356 1373.19 538.766 1378.74 540.876C1384.29 542.986 1407.94 495.266 1413.41 497.596C1418.88 499.926 1439.69 468.206 1445.06 470.766C1450.43 473.326 1431.27 524.136 1436.53 526.896C1441.79 529.656 1475.45 480.496 1480.6 483.476C1485.75 486.456 1448.62 557.926 1453.65 561.116C1458.68 564.306 1460.48 568.126 1465.38 571.506C1470.28 574.886 1529.63 501.966 1534.39 505.546C1539.15 509.126 1475.33 598.786 1479.94 602.556C1484.55 606.326 1484.97 610.266 1489.42 614.216C1493.88 618.166 1534.97 579.466 1539.26 583.586C1543.55 587.706 1532.84 605.046 1536.96 609.346C1541.08 613.636 1525.37 633.296 1529.32 637.756C1533.27 642.206 1540.28 640.726 1544.05 645.336C1547.82 649.946 1542.59 658.296 1546.17 663.056C1549.75 667.806 1594.06 641.006 1597.45 645.906C1600.84 650.806 1622.38 643.336 1625.57 648.366C1628.75 653.386 1591.8 681.836 1594.79 686.996C1597.77 692.146 1599.99 695.776 1602.76 701.056C1605.53 706.336 1693.02 669.436 1695.58 674.826C1698.13 680.196 1693.48 690.976 1695.82 696.456C1698.15 701.926 1674.81 719.056 1676.92 724.636C1679.03 730.196 1645.49 748.336 1647.38 753.996C1649.26 759.626 1664.57 760.486 1666.23 766.216C1667.88 771.916 1607.04 792.686 1608.47 798.486C1609.9 804.286 1608.29 807.696 1609.48 813.546C1610.67 819.396 1759.68 798.336 1760.63 804.236C1761.57 810.096 1765.33 818.746 1766.04 824.676C1766.75 830.606 1702.86 844.806 1703.34 850.766C1703.81 856.676 1611.45 866.856 1611.68 872.836C1611.91 878.816 1732.89 881.596 1732.89 887.576V887.586Z" fill="#C0C0C0"/>
<path d="M1438.85 632.296L1434.52 657.416L1418.94 682.961L1409.46 709.619L1414.58 739.031L1392.17 763.241L1407.66 794.643L1400.4 821.731L1391.41 848.483L1371.83 873.137L1383.9 904.021L1358.19 927.372L1367.19 957.716L1348.44 982.347L1350.73 1011.38L1357.09 1041.54L1342.61 1066.93L1324.11 1090.3L1337.96 1123.01L1318.08 1145.92L1299.24 1169.1L1310.9 1201.28L1293.2 1224.78L1293.11 1253.51L1289.28 1281.13L1279.36 1306.94L1253.7 1328.04L1249.89 1355.67L1245.05 1382.98L1226.4 1406.64L1227.83 1440.65L1209.09 1459.4L1184.95 1459.47L1158.28 1457.77L1130.22 1462.29L1102.67 1461.48L1075.19 1459.65L1047.96 1456.35L1021.5 1449.47L999.192 1424.88L969.426 1432.57L941.063 1433.79L917.618 1415.1L888.698 1418.29L866.033 1397.11L837.83 1397.34L814.792 1378.07L789.137 1368.78L758.031 1379.38L730.148 1377.96L707.192 1358.92L682.934 1358.81L663.024 1366.13L641.11 1350.88L613.532 1353.79L588.779 1339.64L561.513 1339.13L533.814 1351.2L505.628 1333.77L477.778 1337.03L449.825 1330.16L422.022 1343.07L394.112 1343.11L366.204 1351.09L338.303 1342.12L310.42 1338.45L282.355 1352.92L254.564 1342.31L226.936 1335.31L198.833 1343.78L173.991 1321.56L143.427 1342.39L117.305 1331.21L91.7921 1319.66L65.5099 1311.45L37.6329 1289.07L36.0471 1263.24L41.2418 1232.32L42.1587 1202.41L18.2443 1175.87L40.4297 1143.8L36.0482 1115.15L28.8691 1088.2L18.5129 1060.22L19.6493 1032.67L17.9806 1004.98L29.1492 978.103L26.2167 950.346L24.6629 922.667L25.3875 895.129L34.4085 868.187L49.3095 841.682L53.8595 814.452L51.8141 786.734L51.8838 759.161L45.2902 731.084L61.2771 704.71L40.4299 675.529L61.6939 649.58L65.0217 622.258L69.2723 595.002L64.1338 567.012L60.5484 539.135L79.0942 513.026L67.0433 484.474L59.948 456.309L68.1753 429.393L77.2448 428.644L101.443 439.15L129.511 442.423L159.549 428.607L187.241 437.154L214.545 449.179L244.224 439.672L273 437.817L301.383 438.324L317.557 449.93L305.588 469.204L274.737 450.41L249.246 466.983L222.576 477.163L195.344 480.097L166.458 463.375L138.766 477.355L120.137 485.136L121.733 509.446L103.862 537.666L106.43 566.171L103.759 594.596L107.597 623.112L106.761 651.566L125.056 680.281L114.019 708.599L99.7469 736.861L113.429 765.52L121.462 794.092L123.535 822.588L97.4983 850.699L116.66 879.435L102.694 907.391L108.174 936.333L93.7975 962.927L86.7699 990.745L106.131 1022.22L92.2332 1049.04L74.8183 1075.63L94.3081 1106.45L70.4651 1132.72L74.5487 1161.74L79.6502 1190.53L73.7374 1218.84L77.3319 1247.18L93.0577 1267.9L109.854 1278.54L137.975 1275.76L165.54 1278.89L192.94 1283.81L221.194 1279.39L248.707 1283.12L275.974 1289.68L303.079 1298.08L330.471 1303.27L358.965 1296.14L387.149 1292.47L412.864 1316.55L442.384 1297.81L468.538 1316.95L496.269 1318.42L524.255 1316.9L551.97 1318.44L580.102 1315.29L603.926 1318.61L629.436 1316.16L651.844 1293.71L677.789 1310.18L681.459 1339.02L711.716 1332.46L734.803 1359.61L763.25 1359.83L789.246 1372.39L817.201 1375.08L844.77 1379.75L872.313 1384.5L903.862 1369.12L930.789 1376.97L955.271 1397.17L982.499 1403.53L1011.43 1401.3L1039.85 1401.68L1067.25 1407.16L1090.98 1431.1L1121.61 1420.4L1150.57 1418.01L1178.17 1422.54L1203.09 1440.39L1214.59 1414.78L1210.9 1384.4L1227.35 1360.21L1225.33 1330.41L1236.98 1304.74L1251.91 1280.01L1255.24 1251.88L1263.52 1225.19L1265 1196.61L1289.02 1174.22L1286.58 1144.63L1285 1115.5L1308.82 1092.45L1313.41 1064.63L1303.63 1035.74L1320.31 1008.75L1316.94 979.113L1315.19 949.771L1329.46 923.559L1347.34 898.056L1345.3 868.651L1338.29 838.276L1350.95 811.751L1369.29 786.355L1358.04 755.129L1366.22 727.736L1366.05 698.688L1391.21 674.649L1388.72 645.17L1371.23 624.942L1345.98 611.036L1327.01 589.96L1354.1 578.868L1380.28 600.556L1416.52 595.518L1438.85 632.296Z" fill="#111111"/>
<path d="M1438.85 632.296L1434.52 657.416L1418.94 682.961L1409.46 709.619L1414.58 739.031L1392.17 763.241L1407.66 794.643L1400.4 821.731L1391.41 848.483L1371.83 873.137L1383.9 904.021L1358.19 927.372L1367.19 957.716L1348.44 982.347L1350.73 1011.38L1357.09 1041.54L1342.61 1066.93L1324.11 1090.3L1337.96 1123.01L1318.08 1145.92L1299.24 1169.1L1310.9 1201.28L1293.2 1224.78L1293.11 1253.51L1289.28 1281.13L1279.36 1306.94L1253.7 1328.04L1249.89 1355.67L1245.05 1382.98L1226.4 1406.64L1227.83 1440.65L1209.09 1459.4L1184.95 1459.47L1158.28 1457.77L1130.22 1462.29L1102.67 1461.48L1075.19 1459.65L1047.96 1456.35L1021.5 1449.47L999.192 1424.88L969.426 1432.57L941.063 1433.79L917.618 1415.1L888.698 1418.29L866.033 1397.11L837.83 1397.34L814.792 1378.07L789.137 1368.78L758.031 1379.38L730.148 1377.96L707.192 1358.92L682.934 1358.81L663.024 1366.13L641.11 1350.88L613.532 1353.79L588.779 1339.64L561.513 1339.13L533.814 1351.2L505.628 1333.77L477.778 1337.03L449.825 1330.16L422.022 1343.07L394.112 1343.11L366.204 1351.09L338.303 1342.12L310.42 1338.45L282.355 1352.92L254.564 1342.31L226.936 1335.31L198.833 1343.78L173.991 1321.56L143.427 1342.39L117.305 1331.21L91.7921 1319.66L65.5099 1311.45L37.6329 1289.07L36.0471 1263.24L41.2419 1232.32L42.1587 1202.41L18.2443 1175.87L40.4297 1143.8L36.0482 1115.15L28.8691 1088.2L18.5129 1060.22L19.6493 1032.67L17.9806 1004.98L29.1492 978.103L26.2167 950.346L24.6629 922.667L25.3875 895.129L34.4085 868.187L49.3095 841.682L53.8594 814.452L51.8141 786.734L51.8838 759.161L45.2902 731.084L61.2771 704.71L40.4299 675.529L61.6939 649.58L65.0217 622.258L69.2723 595.002L64.1338 567.012L60.5484 539.135L79.0942 513.026L67.0433 484.474L59.9481 456.309L68.1753 429.393L77.2448 428.644L101.443 439.15L129.511 442.423L159.549 428.607L187.241 437.154L214.545 449.179L244.224 439.672L273 437.817L301.383 438.324L317.557 449.93L305.588 469.204L274.737 450.41L249.246 466.983L222.576 477.163L195.344 480.097L166.458 463.375L138.766 477.355L120.137 485.136L121.733 509.446L103.862 537.666L106.43 566.171L103.759 594.596L107.597 623.112L106.761 651.566L125.056 680.281L114.019 708.599L99.7469 736.861L113.429 765.52L121.462 794.092L123.535 822.588L97.4983 850.699L116.66 879.435L102.694 907.391L108.174 936.333L93.7975 962.927L86.7699 990.745L106.131 1022.22L92.2332 1049.04L74.8183 1075.63L94.3081 1106.45L70.4651 1132.72L74.5487 1161.74L79.6502 1190.53L73.7374 1218.84L77.3319 1247.18L93.0577 1267.9L109.854 1278.54L137.975 1275.76L165.54 1278.89L192.94 1283.81L221.194 1279.39L248.707 1283.12L275.974 1289.68L303.079 1298.08L330.471 1303.27L358.965 1296.14L387.149 1292.47L412.864 1316.55L442.384 1297.81L468.538 1316.95L496.269 1318.42L524.255 1316.9L551.97 1318.44L580.102 1315.29L603.926 1318.61L629.436 1316.16L651.844 1293.71L677.789 1310.18L681.459 1339.02L711.716 1332.46L734.803 1359.61L763.25 1359.83L789.246 1372.39L817.201 1375.08L844.77 1379.75L872.313 1384.5L903.862 1369.12L930.789 1376.97L955.271 1397.17L982.499 1403.53L1011.43 1401.3L1039.85 1401.68L1067.25 1407.16L1090.98 1431.1L1121.61 1420.4L1150.57 1418.01L1178.17 1422.54L1203.09 1440.39L1214.59 1414.78L1210.9 1384.4L1227.35 1360.21L1225.33 1330.41L1236.98 1304.74L1251.91 1280.01L1255.24 1251.88L1263.52 1225.19L1265 1196.61L1289.02 1174.22L1286.58 1144.63L1285 1115.5L1308.82 1092.45L1313.41 1064.63L1303.63 1035.74L1320.31 1008.75L1316.94 979.113L1315.19 949.771L1329.46 923.559L1347.34 898.056L1345.3 868.651L1338.29 838.276L1350.95 811.751L1369.29 786.355L1358.04 755.129L1366.22 727.736L1366.05 698.688L1391.21 674.649L1388.72 645.17L1371.23 624.942L1345.98 611.036L1327.01 589.96L1354.1 578.868L1380.28 600.556L1416.52 595.518L1438.85 632.296Z" fill="#111111" stroke="white" stroke-width="5" stroke-miterlimit="10"/>
<path d="M1314.44 1036.2L1303.87 1062.94L1301.95 1090.91L1286.57 1115.88L1301.95 1148.62L1274.99 1170.41L1287.01 1202.71L1258.63 1223.78L1248.9 1250.03L1248.01 1278.86L1233.1 1303.58L1239.35 1334.61L1223.63 1359.07L1209.55 1383.98L1217.97 1415.83L1203.61 1443.95L1177.68 1425.08L1149.22 1424.89L1120.16 1427.79L1093.63 1417.9L1063.83 1424.5L1036.38 1419.26L1012.79 1394.66L983.764 1397.32L958.007 1383.55L927.97 1391.31L902.223 1377.52L875.225 1370.02L844.752 1379.97L820.915 1356.55L790.877 1364.32L765.658 1347.87L737.996 1343.68L710.539 1338.44L686.838 1328.88L669.545 1318.19L648.02 1316.47L624.748 1304.09L604.419 1314.48L579.176 1325.74L552.908 1307.74L524.101 1318.59L497.921 1299.75L469.01 1311.71L441.454 1308.36L414.449 1298.88L386.88 1295.65L357.7 1310.51L331.158 1295.81L303.818 1290.03L275.683 1293.12L248.965 1280.44L220.939 1282.31L193.672 1275.81L166.259 1271.01L137.027 1285.85L110.321 1273.61L82.2728 1275L83.6833 1246L69.5348 1219.12L60.3253 1190.8L69.2376 1161.75L56.0639 1133.18L76.9034 1104.56L76.7978 1076.01L59.8248 1046.98L59.7316 1018.25L63.6894 989.686L71.5979 961.349L77.6707 932.998L66.957 903.459L77.5514 875.904L93.3384 848.904L90.1184 820.132L93.5861 791.99L84.0849 762.626L84.3006 734.179L106.362 707.763L96.0928 678.335L98.8096 650.117L100.721 621.823L104.043 593.665L107.183 565.478L120.561 538.253L107.286 508.541L128.067 482.003L116.473 469.521L132.196 443.69L166.82 442.835L176.568 409.094L206.145 397.687L232.219 374.563L261.839 392.119L258.306 419.201L248.036 452.21L255.321 480.89L248.245 507.704L253.711 536.149L238.393 561.894L241.981 590.089L227.572 615.944L229.266 643.894L228.186 671.485L230.841 699.566L215.608 725.313L212.024 752.575L229.154 782.536L206.212 807.29L201.741 834.444L211.035 863.382L206.868 890.579L196.57 916.967L197.315 944.802L195.701 972.325L178.831 997.872L185.536 1026.47L183.523 1053.95L180.358 1081.27L173.694 1108.14L174.738 1136.01L156.104 1161.33L154.321 1188.84L157.363 1217.88L186.844 1229.99L214.927 1222.91L242.328 1227.08L270.322 1224.06L296.915 1236.48L325.557 1228.11L351.556 1243.91L380.025 1238.69L406.189 1250.92L436.467 1235.61L464.588 1236.17L490.667 1248.26L516.778 1259.06L545.313 1258.44L567.824 1282.67L597.962 1276.76L621.729 1293.36L651.049 1307.16L649.755 1267.53L667.524 1241.78L654.003 1212.04L670.581 1186.2L658.832 1156.63L664.159 1129.31L678.426 1103.2L680.134 1075.4L669.726 1045.97L696.321 1021.54L688.723 992.475L701.278 966.155L698.681 937.763L698.947 909.764L703.792 882.389L701.99 854.102L705.363 826.522L707.85 798.819L712.596 771.433L716.763 743.958L733.544 718.231L741.023 691.223L745.074 663.743L733.58 634.107L733.808 606.103L745.879 579.737L757.437 542.153L782.542 540L804.768 520.923L830.822 510.906L856.541 496.069L886.654 509.842L913.112 496.079L941.717 511.656L968.876 499.024L996.552 501.108L1024.06 505.247L1051.56 507.596L1080.14 496.425L1106.97 507.863L1135.46 502.571L1162.11 512.982L1189.25 518.727L1215.3 530.603L1245.49 518.886L1270.44 535.622L1298.81 535.346L1324.25 554.411L1330.03 589.516L1345.56 611.365L1373.92 622.734L1393.94 642.675L1377.88 672.012L1369.39 699.34L1366.03 727.696L1354.03 754.333L1361.46 784.803L1348.2 811.198L1353.62 841.27L1332.82 866.196L1343.25 897.244L1337.36 925.089L1331.03 952.854L1310.41 977.846L1326.57 1009.94L1314.44 1036.2Z" fill="white"/>
<path d="M1314.44 1036.2L1303.87 1062.94L1301.95 1090.91L1286.57 1115.88L1301.95 1148.62L1274.99 1170.41L1287.01 1202.71L1258.63 1223.78L1248.9 1250.03L1248.01 1278.86L1233.1 1303.58L1239.35 1334.61L1223.63 1359.07L1209.55 1383.98L1217.97 1415.83L1203.61 1443.95L1177.68 1425.08L1149.22 1424.89L1120.16 1427.79L1093.63 1417.9L1063.83 1424.5L1036.38 1419.26L1012.79 1394.66L983.764 1397.32L958.007 1383.55L927.97 1391.31L902.223 1377.52L875.225 1370.02L844.752 1379.97L820.915 1356.55L790.877 1364.32L765.658 1347.87L737.996 1343.68L710.539 1338.44L686.838 1328.88L669.545 1318.19L648.02 1316.47L624.748 1304.09L604.419 1314.48L579.176 1325.74L552.908 1307.74L524.101 1318.59L497.921 1299.75L469.01 1311.71L441.454 1308.36L414.449 1298.88L386.88 1295.65L357.7 1310.51L331.158 1295.81L303.818 1290.03L275.683 1293.12L248.965 1280.44L220.939 1282.31L193.672 1275.81L166.259 1271.01L137.027 1285.85L110.321 1273.61L82.2728 1275L83.6833 1246L69.5348 1219.12L60.3253 1190.8L69.2376 1161.75L56.0639 1133.18L76.9034 1104.56L76.7978 1076.01L59.8248 1046.98L59.7316 1018.25L63.6894 989.686L71.5979 961.349L77.6707 932.998L66.957 903.459L77.5514 875.904L93.3384 848.904L90.1184 820.132L93.5861 791.99L84.0849 762.626L84.3006 734.179L106.362 707.763L96.0928 678.335L98.8096 650.117L100.721 621.823L104.043 593.665L107.183 565.478L120.561 538.253L107.286 508.541L128.067 482.003L116.473 469.521L132.196 443.69L166.82 442.835L176.568 409.094L206.145 397.687L232.219 374.563L261.839 392.119L258.306 419.201L248.036 452.21L255.321 480.89L248.245 507.704L253.711 536.149L238.393 561.894L241.981 590.089L227.572 615.944L229.266 643.894L228.186 671.485L230.841 699.566L215.608 725.313L212.024 752.575L229.154 782.536L206.212 807.29L201.741 834.444L211.035 863.382L206.868 890.579L196.57 916.967L197.315 944.802L195.701 972.325L178.831 997.872L185.536 1026.47L183.523 1053.95L180.358 1081.27L173.694 1108.14L174.738 1136.01L156.104 1161.33L154.321 1188.84L157.363 1217.88L186.844 1229.99L214.927 1222.91L242.328 1227.08L270.322 1224.06L296.915 1236.48L325.557 1228.11L351.556 1243.91L380.025 1238.69L406.189 1250.92L436.467 1235.61L464.588 1236.17L490.667 1248.26L516.778 1259.06L545.313 1258.44L567.824 1282.67L597.962 1276.76L621.729 1293.36L651.049 1307.16L649.755 1267.53L667.524 1241.78L654.003 1212.04L670.581 1186.2L658.832 1156.63L664.159 1129.31L678.426 1103.2L680.134 1075.4L669.726 1045.97L696.321 1021.54L688.723 992.475L701.278 966.155L698.681 937.763L698.947 909.764L703.792 882.389L701.99 854.102L705.363 826.522L707.85 798.819L712.596 771.433L716.763 743.958L733.544 718.231L741.023 691.223L745.074 663.743L733.58 634.107L733.808 606.103L745.879 579.737L757.437 542.153L782.542 540L804.768 520.923L830.822 510.906L856.541 496.069L886.654 509.842L913.112 496.079L941.717 511.656L968.876 499.024L996.552 501.108L1024.06 505.247L1051.56 507.596L1080.14 496.425L1106.97 507.863L1135.46 502.571L1162.11 512.982L1189.25 518.727L1215.3 530.603L1245.49 518.886L1270.44 535.622L1298.81 535.346L1324.25 554.411L1330.03 589.516L1345.56 611.365L1373.92 622.734L1393.94 642.675L1377.88 672.012L1369.39 699.34L1366.03 727.696L1354.03 754.333L1361.46 784.803L1348.2 811.198L1353.62 841.27L1332.82 866.196L1343.25 897.244L1337.36 925.089L1331.03 952.854L1310.41 977.846L1326.57 1009.94L1314.44 1036.2Z" stroke="#111111" stroke-width="5" stroke-miterlimit="10"/>
<path d="M744.335 579.518L735.003 606.271L731.47 633.825L735.951 662.484L723.436 688.793L727.841 717.443L732.727 746.147L718.792 772.273L724.487 801.092L719.085 828.381L716.507 856.066L700.991 881.974L692.925 908.909L700.757 938.023L698.011 965.681L682.867 991.662L686.854 1020.23L688.146 1048.44L684.507 1075.98L671.682 1102.29L677.61 1131.11L666.633 1157.67L660.023 1184.81L663.188 1213.25L652.971 1239.94L659.996 1268.79L650.787 1303.92L621.672 1293.57L595.716 1284.61L570.276 1273.16L542.849 1269.16L515.646 1264.56L489.516 1254.4L462.678 1247.26L434.376 1248.97L407.236 1243.74L380.791 1232.88L353.636 1226.56L324.445 1238.39L298.539 1219.87L269.604 1232.18L242.431 1225.61L214.874 1223.49L187.21 1223.34L165.029 1216.08L171.809 1191.12L168.076 1162.9L167.407 1135.09L171.176 1107.84L170.75 1080.05L188.39 1054.62L191.013 1027.22L196.369 1000.19L190.559 971.708L201.118 945.349L194.345 916.734L194.042 888.964L199.155 861.89L210.271 835.609L218.799 808.982L210.277 780.139L220.699 753.764L232.549 727.566L224.104 698.731L228.507 671.569L233.337 644.463L239.054 617.473L244.983 590.514L249.372 563.343L249.428 535.614L248.293 507.727L254.805 480.834L257.383 453.428L259.503 419.354L272.889 386.751L271.516 351.694L281.712 348.541L308.679 352.294L335.666 355.6L362.832 357.541L390.647 357.451L417.035 364.93L439.619 384.99L469.113 381.459L495.343 389.168L521.473 397.408L542.268 417.931L571.6 419.288L590.22 442.847L618.998 446.487L640.733 463.309L667.845 471.033L689.474 487.904L708.566 508.259L733.755 519.666L750.338 539.598L744.335 579.518Z" fill="white"/>
<path d="M744.335 579.518L735.003 606.271L731.47 633.825L735.951 662.484L723.436 688.793L727.841 717.443L732.727 746.147L718.792 772.273L724.487 801.092L719.085 828.381L716.507 856.066L700.991 881.974L692.925 908.909L700.757 938.023L698.011 965.681L682.867 991.662L686.854 1020.23L688.146 1048.44L684.507 1075.98L671.682 1102.29L677.61 1131.11L666.633 1157.67L660.023 1184.81L663.188 1213.25L652.971 1239.94L659.996 1268.79L650.787 1303.92L621.672 1293.57L595.716 1284.61L570.276 1273.16L542.849 1269.16L515.646 1264.56L489.516 1254.4L462.678 1247.26L434.376 1248.97L407.236 1243.74L380.791 1232.88L353.636 1226.56L324.445 1238.39L298.539 1219.87L269.604 1232.18L242.431 1225.61L214.874 1223.49L187.21 1223.34L165.029 1216.08L171.809 1191.12L168.076 1162.9L167.407 1135.09L171.176 1107.84L170.75 1080.05L188.39 1054.62L191.013 1027.22L196.369 1000.19L190.559 971.708L201.118 945.349L194.345 916.734L194.042 888.964L199.155 861.89L210.271 835.609L218.799 808.982L210.277 780.139L220.699 753.764L232.549 727.566L224.104 698.731L228.507 671.569L233.337 644.463L239.054 617.473L244.983 590.514L249.372 563.343L249.428 535.614L248.293 507.727L254.805 480.834L257.383 453.428L259.503 419.354L272.889 386.751L271.516 351.694L281.712 348.541L308.679 352.294L335.666 355.6L362.832 357.541L390.647 357.451L417.035 364.93L439.619 384.99L469.113 381.459L495.343 389.168L521.473 397.408L542.268 417.931L571.6 419.288L590.22 442.847L618.998 446.487L640.733 463.309L667.845 471.033L689.474 487.904L708.566 508.259L733.755 519.666L750.338 539.598L744.335 579.518Z" stroke="#111111" stroke-width="5" stroke-miterlimit="10"/>
<path d="M159.998 456.554L164.257 484.84L149.593 511.378L158.355 540.087L153.126 567.496L145.241 594.667L146.349 622.659L146.167 650.537L136.931 677.595L132.95 705.137L133.399 733.062L131.099 760.748L137.258 789.17L128.02 816.251L127.977 844.129L121.309 871.445L118.71 899.104L121.648 927.225L113.888 954.465L118.21 982.68L115.327 1010.32L117.662 1038.35L115.312 1066L107.831 1093.3L98.6403 1120.58L99.0205 1148.49L101.104 1176.49" fill="white"/>
<path d="M159.998 456.554L164.257 484.84L149.593 511.378L158.355 540.087L153.126 567.496L145.241 594.667L146.349 622.659L146.167 650.537L136.931 677.595L132.95 705.137L133.399 733.062L131.099 760.748L137.258 789.17L128.02 816.251L127.977 844.129L121.309 871.445L118.71 899.104L121.648 927.225L113.888 954.465L118.21 982.68L115.327 1010.32L117.662 1038.35L115.312 1066L107.831 1093.3L98.6403 1120.58L99.0205 1148.49L101.104 1176.49" stroke="#111111" stroke-width="5" stroke-miterlimit="10"/>
<path d="M219.279 402.173L220.935 429.98L216.49 457.036L218.788 484.915L204.274 510.743L204.133 538.331L211.959 566.887L201.252 593.183L196.364 620.182L198.578 648.059L193.1 674.991L185.834 701.706L188.712 729.666L184.16 756.71L183.04 784.18L176.516 810.986L177.338 838.691L168.206 865.18L157.888 891.528L163.734 919.845L152.836 946.112L157.243 974.26L145.497 1000.43L150.4 1028.64L144.946 1055.58L135.446 1082.03L135.539 1109.67L138.788 1140.7L137.078 1171.18L140.703 1200.15" fill="white"/>
<path d="M219.279 402.173L220.935 429.98L216.49 457.036L218.788 484.915L204.274 510.743L204.133 538.331L211.959 566.887L201.252 593.183L196.364 620.182L198.578 648.059L193.1 674.991L185.834 701.706L188.712 729.666L184.16 756.71L183.04 784.18L176.516 810.986L177.338 838.691L168.206 865.18L157.888 891.528L163.734 919.845L152.836 946.112L157.243 974.26L145.497 1000.43L150.4 1028.64L144.946 1055.58L135.446 1082.03L135.539 1109.67L138.788 1140.7L137.078 1171.18L140.703 1200.15" stroke="#111111" stroke-width="5" stroke-miterlimit="10"/>
<path d="M1364.33 663.249L1352.35 689.03L1341.07 714.96L1343.3 743.822L1328.12 768.909L1329.05 797.484L1318.83 823.651L1315.56 851.319L1308.93 878.261L1311.62 907.22L1299.82 933.037L1297.69 960.958L1286.39 986.885L1283.69 1014.68L1276.75 1041.56L1269.69 1068.41L1267.5 1095.13L1251.27 1118.78L1246.42 1144.9L1252.63 1173.54L1243.85 1198.81L1231.6 1223.24L1232.53 1250.81L1227.76 1277.07L1219.98 1302.6L1203.67 1325.55L1202.8 1355.06" fill="white"/>
<path d="M1364.33 663.249L1352.35 689.03L1341.07 714.96L1343.3 743.822L1328.12 768.909L1329.05 797.484L1318.83 823.651L1315.56 851.319L1308.93 878.261L1311.62 907.22L1299.82 933.037L1297.69 960.958L1286.39 986.885L1283.69 1014.68L1276.75 1041.56L1269.69 1068.41L1267.5 1095.13L1251.27 1118.78L1246.42 1144.9L1252.63 1173.54L1243.85 1198.81L1231.6 1223.24L1232.53 1250.81L1227.76 1277.07L1219.98 1302.6L1203.67 1325.55L1202.8 1355.06" stroke="#111111" stroke-width="5" stroke-miterlimit="10"/>
<path d="M1320.08 606.002L1318.27 634.014L1317.77 662.297L1301.39 687.294L1302.07 715.835L1290.64 741.855L1296.32 771.439L1286.58 797.805L1271.59 823.069L1273.64 851.91L1272.09 879.997L1259.51 905.758L1254.41 933.095L1249.32 960.443L1245.07 987.971L1237.36 1014.76L1232.91 1042.25L1219.18 1067.72L1213.3 1094.89L1217.12 1124.2L1211.77 1151.5L1199.95 1177.36L1196.15 1205L1191.61 1232.5L1181.55 1258.71L1171.95 1284.96L1164.83 1311.73L1157.49 1337.53" fill="white"/>
<path d="M1320.08 606.002L1318.27 634.014L1317.77 662.297L1301.39 687.294L1302.07 715.835L1290.64 741.855L1296.32 771.439L1286.58 797.805L1271.59 823.069L1273.64 851.91L1272.09 879.997L1259.51 905.758L1254.41 933.095L1249.32 960.443L1245.07 987.971L1237.36 1014.76L1232.91 1042.25L1219.18 1067.72L1213.3 1094.89L1217.12 1124.2L1211.77 1151.5L1199.95 1177.36L1196.15 1205L1191.61 1232.5L1181.55 1258.71L1171.95 1284.96L1164.83 1311.73L1157.49 1337.53" stroke="#111111" stroke-width="5" stroke-miterlimit="10"/>
<path d="M719.413 1289.16L746.842 1284.15L773.452 1292.74L799.977 1301.34L827.145 1300.74L854.499 1298.23L881.435 1301.1L907.955 1308.1L934.956 1309.92L962.236 1309.43L989.119 1312.7L1016.42 1313.08L1043.06 1318.41L1069.23 1325.9L1095.81 1330.93L1122.91 1335.02L1133.35 1312.14L1143.29 1285.77L1137.49 1255.72L1149.19 1229.79L1153.54 1202.15L1160.99 1175.22L1169.64 1148.55L1178.46 1121.93L1172.52 1091.99L1180.04 1065.07L1197.55 1040.37L1195.5 1011.32L1210.43 986.043L1217.05 958.922L1211.42 929.073L1216.72 901.657L1230.68 876.154L1239.43 849.489L1239.44 820.904L1251.55 794.982L1254.21 766.99L1252.42 738.015L1272.26 713.794L1274.73 685.757L1282.12 658.792L1287.85 631.462L1287.95 602.91L1298.67 576.685L1293.94 547.093" fill="white"/>
<path d="M719.413 1289.16L746.842 1284.15L773.452 1292.74L799.977 1301.34L827.145 1300.74L854.499 1298.23L881.435 1301.1L907.955 1308.1L934.956 1309.92L962.236 1309.43L989.119 1312.7L1016.42 1313.08L1043.06 1318.41L1069.23 1325.9L1095.81 1330.93L1122.91 1335.02L1133.35 1312.14L1143.29 1285.77L1137.49 1255.72L1149.19 1229.79L1153.54 1202.15L1160.99 1175.22L1169.64 1148.55L1178.46 1121.93L1172.52 1091.99L1180.04 1065.07L1197.55 1040.37L1195.5 1011.32L1210.43 986.043L1217.05 958.922L1211.42 929.073L1216.72 901.657L1230.68 876.154L1239.43 849.489L1239.44 820.904L1251.55 794.982L1254.21 766.99L1252.42 738.015L1272.26 713.794L1274.73 685.757L1282.12 658.792L1287.85 631.462L1287.95 602.91L1298.67 576.685L1293.94 547.093" stroke="#111111" stroke-width="5" stroke-miterlimit="10"/>
<path d="M780.846 519.402L772.886 574.332L779.001 629.556L767.567 682.802L754.158 735.825L759.875 791.004L742.769 843.61L739.967 897.837L737.334 952.075L728.449 1005.61L723.565 1059.6L723.542 1114.13L710.354 1167.19L706.897 1220.29L722.588 1198.41L737.368 1224.38L739.018 1169.72L745.078 1115.07L752.632 1060.56L761.137 1006.16L767.978 951.583L768.372 896.381L770.584 841.353L787.3 787.743L781.637 731.951L795.777 678.089L800.679 623.326L804.025 568.41L808.906 513.28L780.846 519.402Z" fill="#111111"/>
<path d="M780.846 519.402L772.886 574.332L779.001 629.556L767.567 682.802L754.158 735.825L759.875 791.004L742.769 843.61L739.967 897.837L737.334 952.075L728.449 1005.61L723.565 1059.6L723.542 1114.13L710.354 1167.19L706.897 1220.29L722.588 1198.41L737.368 1224.38L739.018 1169.72L745.078 1115.07L752.632 1060.56L761.137 1006.16L767.978 951.583L768.372 896.381L770.584 841.353L787.3 787.743L781.637 731.951L795.777 678.089L800.679 623.326L804.025 568.41L808.906 513.28L780.846 519.402Z" stroke="#111111" stroke-width="5" stroke-miterlimit="10"/>
</svg>
