<svg width="1001" height="1275" viewBox="0 0 1001 1275" fill="none" xmlns="http://www.w3.org/2000/svg">
<path d="M202.226 729.005L188.138 736.929L174.608 744.193L159.629 747.888L146.684 756.316L133.024 763.017L119.041 769.064L103.914 773.158L89.7583 779.343L76.4894 787.154L65.4397 798.202L51.347 805.054L42.1635 817.937L32.5764 829.779L22.7582 841.15L11.0991 851.689L4.23556 865.643L1.50781 880.961L2.37363 896.011L6.64388 910.111L12.4398 923.313L17.1556 938.631L29.7688 947.655L42.7225 955.587L57.2775 960.034L70.6178 967.038L85.2442 970.544L100.383 971.33L113.892 981.323L129.582 975.1L144.444 981.311L159.679 979.451L174.844 979.102L189.836 981.945L204.979 982.067L219.85 986.593L234.968 987.034L250.317 984.195L265.549 983.41L280.39 987.815L295.508 988.516L310.622 989.394L325.328 994.424L340.778 992.119L355.405 997.238L370.691 996.969L384.973 1003.12L400.423 1002.68L415.218 1007L415.508 997.431L410.342 983.347L401.709 970.754L397.817 956.037L394.98 940.722L388.428 927.159L381.846 913.617L372.578 901.432L364.727 888.557L359.688 874.234L348.394 863.149L341.522 849.783L340.451 833.365L332.78 820.398L323.664 808.208L317.052 794.691L309.176 781.85L303.725 767.704L293.986 756.887L279.595 750.021L264.448 744.781L248.275 743.332L233.64 736.215L218.681 730.945L202.226 729.005Z" stroke="white" stroke-width="3" stroke-miterlimit="10"/>
<path d="M510.776 1260.31L498.85 1246.65L481.734 1241.9L466.004 1234.11L454.413 1220.93L449.09 1204.27L439.634 1188.61L452.886 1174.6L466.236 1162.4L479.961 1148.56L498.443 1143.73L514.925 1142.33L530.873 1138.79L548.175 1140.4L561.84 1128.15L577.872 1124.91L594.179 1122.62L609.057 1115.22L626.048 1115.21L640.113 1105.14L656.395 1102.62L673.39 1102.3L686.737 1090.34L704.639 1092.6L717.208 1078.69L734.647 1079.25L750.804 1075.87L767.366 1073.41L779.51 1059.39L793.69 1051.03L811.488 1051.26L823.255 1037.66L838.664 1032.33L852.768 1024.38L871.225 1023.65L882.522 1010.87L896.949 1002.47L910.645 991.401L915.317 974.537L928.575 963.202L937.797 949.116L939.811 930.971L946.135 915.668L958.53 902.374L958.328 884.851L956.681 868.28L961.473 850.03L950.706 835.61L943.985 819.575L926.019 812.949L920.271 794.947L901.077 792.089L890.718 778.603L876.556 769.364L860.344 764.851L843.341 765.865L826.843 768.188L810.602 765.545L793.704 759.976L777.238 762.989L760.431 763.53L745.25 772.397L727.846 770.821L711.443 774.073L695.702 779.65L682.021 791.204L665.339 793.584L650.48 801.09L633.586 803.488L621.902 818.152L609.591 823.344L599.152 836.361L585.226 846.982L577.74 862.029L567.828 875.413L558.854 889.434L547.51 901.833L537.161 914.91L534.361 933.177L515.458 940.382L508.634 955.883L501.906 971.448L490.422 983.75L487.019 1001.6L468.825 1009.29L461.047 1024.15L455.787 1040.72L441.023 1050.78L434.281 1066.09L421.597 1078.3L408.894 1090.17L390.156 1096.36L378.409 1110.66L378.544 1130.57L365.885 1145.97L368.553 1164.6L376.393 1179.37L385.431 1192.55L396.26 1204.37L407.647 1216.05L419.508 1227.86L438.523 1226.67L452.097 1235.08L464.479 1247.06L480.076 1251.48L494.421 1259.62L510.776 1260.31Z" stroke="white" stroke-width="3" stroke-miterlimit="10"/>
<path d="M827.099 562.115L821.807 559.804L827.119 549.751L830.203 536.82L816.053 530.612L818.544 514.634L807.359 508.62L792.951 507.166L787.827 495.663L779.015 488.212L769.837 481.189L764.881 467.796L752.229 465.788L738.728 465.59L730.39 457.064L722.175 448.113L711.02 444.305L703.71 433.372L691.751 431.116L682.118 424.404L671.118 420.417L657.564 421.901L647.229 412.824L634.347 408.063L631.273 391.232L614.891 389.405L609.292 376.748L606.455 365.109L605.881 352.419L611.885 341.205L626.774 338.716L634.16 329.695L642.085 320.618L649.879 310.009L663.779 310.196L676.727 307.513L686.109 298.65L693.636 287.826L704.504 281.43L711.946 271.271L724.683 265.571L728.001 252.349L734.427 241.637L735.521 228.874L742.692 218.634L737.558 207.137L734.777 196.444L738.079 184.077L738.388 171.242L722.557 166.524L725.447 150.912L718.322 140.876L706.39 135.811L699.769 125.251L690.644 117.447L679.736 112.396L666.732 111.347L656.499 105.953L646.181 100.724L635.115 96.9884L624.672 91.99L614.505 86.3784L602.589 84.2057L593.899 75.5937L588.498 62.8143L583.113 54.598L583.264 44.8255L575.635 28.6567L591.697 23.8859L597.402 19.4216L603.087 7.00488L593.335 16.8005L583.06 21.4065L569.463 20.3217L561.966 29.9327L547.393 31.0471L547.647 46.6257L542.437 55.6992L532.135 66.0553L541.59 76.4642L545.963 86.6356L557.194 89.9722L558.664 105.597L567.657 112.313L580.724 112.603L586.563 124.15L602.157 124.192L607.605 137.625L612.881 148.241L608.679 156.263L611.77 172.145L604.649 181.753L592.396 186.27L589.667 200.094L574.175 200.783L568.665 213.197L558.964 220.935L543.014 217.734L532.204 222.857L524.144 233.418L510.932 233.955L500.683 240.424L494.765 256.319L478.343 249.583L469.423 259.227L460.413 268.855L446.825 267.987L436.936 275.676L424.031 276.223L415.001 286.088L403.971 291.159L389.217 286.952L380.781 298.479L371.91 309.095L358.046 302.785L344.393 305.716L335.95 315.063L323.499 317.005L316.421 328.132L306.129 333.81L301.542 347.404L284.514 344.479L279.874 357.206L271.329 365.149L268.857 377.786L253.784 382.089L257.923 396.059L253.154 405.666L245.278 414.542L242.737 419.102L234.284 417.991L239.458 406.055L235.866 394.756L245.713 385.742L243.693 372.425L246.079 359.873L258.387 354.12L270.505 348.522L274.749 336.461L267.885 321.997L281.924 314.403L275.231 301.716L280.998 291.04L279.218 278.561L267.944 271.532L260.869 262.712L252.386 254.697L243.63 246.599L248.376 257.203L249.559 268.62L255.056 280.895L244.023 290.048L244.579 303.091L231.269 308.043L223.179 315.66L225.182 333.583L208.237 332.29L205.703 347.437L192.65 349.359L183.129 355.65L177.873 368.063L164.157 369.438L159.168 380.671L153.499 390.582L139.438 394.99L135.704 406.497L133.193 418.165L131.466 429.741L126.661 440.562L123.198 451.891L126.068 464.08L127.238 475.488L116.508 487.727L125.29 498.518L119.243 512.719L136 518.855L141.781 528.37L144.816 540.091L152.079 549.181L159.036 558.934L168.807 565.663L176.759 575.208L187.482 580.701L199.435 583.322L210.87 588.363L221.106 580.826L222.625 568.149L229.918 558.874L235.636 548.673L241.808 538.739L249.068 529.441L252.604 517.954L257.369 507.186L262.471 495.729L277.396 498.818L281.924 511.641L280.23 523.078L281.769 535.126L281.459 547.252L293.435 558.868L279.502 571.558L292.11 583.147L294.433 595.165L282.428 607.773L283.782 619.83L295.379 631.463L289.437 643.82L285.249 656.108L287.19 668.139L295.046 679.926L290.785 692.218L291.626 704.295L298.879 716.108L294.984 728.383L296.447 740.44L298.74 750.869L305.882 748.413L317.828 751.39L329.438 745.739L341.46 749.656L353.699 757.005L365.246 750.856L377.341 754.568L389.25 754.842L400.702 748.195L412.866 752.251L424.166 744.189L436.079 744.651L448.19 747.384L459.856 744.634L471.301 739.573L483.043 738.001L494.86 737.226L507.235 741.845L519.346 743.503L530.046 732.386L542.895 740.394L554.66 738.756L566.253 735.775L576.621 723.668L588.893 726.191L600.905 726.593L612.261 722.432L623.624 718.505L636.595 724.654L648.165 721.881L658.167 710.322L672.051 720.539L681.868 708.667L694.727 712.696L706.752 712.221L718.177 708.838L728.39 700.309L740.26 699.132L753.594 703.21L762.735 691.908L775.301 692.366L785.408 685.462L799.585 688.456L807.287 676.652L821.204 676.791L830.846 668.901L840.33 660.707L839.517 644.684L856.508 640.157L851.215 625.937L850.962 614.493L844.186 604.779L849.192 589.343L833.104 585.769L835.13 568.558L827.099 562.115Z" stroke="white" stroke-width="3" stroke-miterlimit="10"/>
<path d="M544.442 108.301L523.54 121.133L504.194 136.936L468.393 143.916L442.714 148.946L416.469 146.395L390.218 146.451L361.713 145.735L360.066 147.363L375.285 124.097L395.512 104.082L419.4 88.5928L445.943 77.9397L472.407 75.9564L498.215 80.8017L521.826 91.9405L544.561 106.049L544.442 108.301Z" fill="white"/>
<path d="M544.442 108.301L523.54 121.133L504.194 136.936L468.393 143.916L442.714 148.946L416.469 146.395L390.218 146.451L361.713 145.735L360.066 147.363L375.285 124.097L395.512 104.082L419.4 88.5928L445.943 77.9397L472.407 75.9564L498.215 80.8017L521.826 91.9405L544.561 106.049L544.442 108.301Z" stroke="#111111" stroke-width="3.89752" stroke-linejoin="round"/>
<path d="M544.626 110.148L543.105 107.119" stroke="#111111" stroke-width="3.89752" stroke-miterlimit="10"/>
<path d="M540.799 184.538L515.668 198.391L486.404 200.25L457.489 203.492L428.401 201.589L399.354 201.763L370.088 202.887L363.909 200.292L360.29 173.154L361.311 144.627L390.26 144.144L416.459 147.1L442.752 149.758L467.966 142.787L504.134 136.796L525.482 124.038L544.118 107.81L544.588 134.066L546.559 160.38L540.799 184.538Z" fill="white"/>
<path d="M540.799 184.538L515.668 198.391L486.404 200.25L457.489 203.492L428.401 201.589L399.354 201.763L370.088 202.887L363.909 200.292L360.29 173.154L361.311 144.627L390.26 144.144L416.459 147.1L442.752 149.758L467.966 142.787L504.134 136.796L525.482 124.038L544.118 107.81L544.588 134.066L546.559 160.38L540.799 184.538Z" stroke="#111111" stroke-width="3.89752" stroke-miterlimit="10"/>
<path d="M369.436 186.489L367.364 190.649L348.001 200.41L334.696 218.045L339.755 253.743L343.8 260.94L343.662 271.539L342.97 300.054L342.571 311.088L351.701 319.018L357.525 342.45L355.474 375.681L346.738 380.358L321.278 393.266L297.58 409.18L276.216 428.115L256.309 448.357L235.872 467.941L215.674 488.307L201.17 513.018L188.475 538.782L181.502 568.124L170.216 596.085L162.58 625.235L158.034 655.082L160.267 685.14L158.661 686.686L161.477 714.867L163.719 743.207L174.49 769.728L182.975 796.499L192.669 822.871L202.532 849.46L218.033 873.149L234.275 896.26L252.938 917.464L272.434 937.989L294.144 956.258L319.857 968.575L341.718 987.479L368.284 997.825L376.514 1003.28L380.305 1019.62L368.435 1046.85L363.481 1043.54L358.803 1070.88L363.288 1097.36L371.412 1112.06L401.72 1118.16L432.302 1121.42L462.808 1124.06L493.205 1130.32L524.068 1130.7L554.439 1124.15L583.344 1124.95L611.201 1118.03L638.222 1108.59L664.721 1098.08L690.067 1085.05L697.917 1071.51L696.246 1029.61L688.076 1023.07L674.68 1014.65L666.528 985.87L665.916 983.274L679.662 972.205L699.698 952.333L720.428 934.455L742.428 917.634L760.745 896.984L774.639 872.998L791.433 851.263L805.084 827.408L818.135 803.027L823.278 775.738L833.036 749.833L833.441 722.163L834.105 694.884L837.7 666.204L834.361 637.741L833.106 608.962L823.989 581.605L813.658 555.023L807.687 526.6L790.013 503.595L778.202 477.152L756.24 458.245L737.989 436.221L716.784 416.763L691.514 402.988L667.311 387.35L664.665 389.459L655.714 380.676L652.858 381.413L631.293 370.248L608.465 362.052L585.452 354.292L579.689 345.385L574.019 331.989L582.06 300.257L583.859 299.556L581.562 268.491L581.471 261.835L582.487 260.739L581.725 249.111L583.413 231.411L584.355 206.621L578.399 182.411L557.496 173.587L534.702 169.484L507.737 177.922L480.089 179.738L452.298 180.172L425.139 186.745L397.421 189.408L369.436 186.489Z" fill="white"/>
<path d="M369.436 186.489L367.364 190.649L348.001 200.41L334.696 218.045L339.755 253.743L343.8 260.94L343.662 271.539L342.97 300.054L342.571 311.088L351.701 319.018L357.525 342.45L355.474 375.681L346.738 380.358L321.278 393.266L297.58 409.18L276.216 428.115L256.309 448.357L235.872 467.941L215.674 488.307L201.17 513.018L188.475 538.782L181.502 568.124L170.216 596.085L162.58 625.235L158.034 655.082L160.267 685.14L158.661 686.686L161.477 714.867L163.719 743.207L174.49 769.728L182.975 796.499L192.669 822.871L202.532 849.46L218.033 873.149L234.275 896.26L252.938 917.464L272.434 937.989L294.144 956.258L319.857 968.575L341.718 987.479L368.284 997.825L376.514 1003.28L380.305 1019.62L368.435 1046.85L363.481 1043.54L358.803 1070.88L363.288 1097.36L371.412 1112.06L401.72 1118.16L432.302 1121.42L462.808 1124.06L493.205 1130.32L524.068 1130.7L554.439 1124.15L583.344 1124.95L611.201 1118.03L638.222 1108.59L664.721 1098.08L690.067 1085.05L697.917 1071.51L696.246 1029.61L688.076 1023.07L674.68 1014.65L666.528 985.87L665.916 983.274L679.662 972.205L699.698 952.333L720.428 934.455L742.428 917.634L760.745 896.984L774.639 872.998L791.433 851.263L805.084 827.408L818.135 803.027L823.278 775.738L833.036 749.833L833.441 722.163L834.105 694.884L837.7 666.204L834.361 637.741L833.106 608.962L823.989 581.605L813.658 555.023L807.687 526.6L790.013 503.595L778.202 477.152L756.24 458.245L737.989 436.221L716.784 416.763L691.514 402.988L667.311 387.35L664.665 389.459L655.714 380.676L652.858 381.413L631.293 370.248L608.465 362.052L585.452 354.292L579.689 345.385L574.019 331.989L582.06 300.257L583.859 299.556L581.562 268.491L581.471 261.835L582.487 260.739L581.725 249.111L583.413 231.411L584.355 206.621L578.399 182.411L557.496 173.587L534.702 169.484L507.737 177.922L480.089 179.738L452.298 180.172L425.139 186.745L397.421 189.408L369.436 186.489Z" stroke="#111111" stroke-width="3.89752" stroke-miterlimit="10"/>
<path d="M367.034 208.91L370.579 243.396" stroke="#111111" stroke-width="3.89752" stroke-miterlimit="10"/>
<path d="M550.905 195.422L559.222 227.719" stroke="#111111" stroke-width="3.89752" stroke-miterlimit="10"/>
<path d="M373.34 257.897L403.705 265.687L435.032 268.312L468.36 268.133L500.297 258.251" stroke="#111111" stroke-width="3.89752" stroke-miterlimit="10"/>
<path d="M518.215 256.493L544.804 252.801L559.628 242.722" stroke="#111111" stroke-width="3.89752" stroke-miterlimit="10"/>
<path d="M376.516 273.353L374.822 299.554" stroke="#111111" stroke-width="3.89752" stroke-miterlimit="10"/>
<path d="M561.659 258.113L564.524 281.425" stroke="#111111" stroke-width="3.89752" stroke-miterlimit="10"/>
<path d="M378.55 315.16L405.813 316.444L433.122 314.411L459.982 314.101" stroke="#111111" stroke-width="3.89752" stroke-miterlimit="10"/>
<path d="M479.716 313.777L508.991 314.295" stroke="#111111" stroke-width="3.89752" stroke-miterlimit="10"/>
<path d="M523.107 303.816L548.239 300.13L573.583 297.311" stroke="#111111" stroke-width="3.89752" stroke-miterlimit="10"/>
<path d="M351.961 399.324L371.882 380.164L389.502 358.758L388.959 330.333" stroke="#111111" stroke-width="3.89752" stroke-miterlimit="10"/>
<path d="M193.951 707.39L218.897 694.08L241.904 706.796L254.595 684.573L271.128 668.161L300.351 667.577L329.579 664.606L353.022 654.571L376.698 645.811L401.205 639.216L435.151 637.83L464.881 649.196L496.956 637.545L530.087 628.274L553.164 624.35L576.8 624.541L604.368 645.595L630.294 632.723L657.424 627.704L684.422 636.614L713.287 639.904L736.889 633.546L759.935 641.315L783.808 646.237L806.872 652.925L816.625 663.868L810.852 692.713L811.764 721.333L801.706 748.216L794.107 775.268L789.929 803.675L778.511 829.75L762.468 853.28L748.474 878.06L726.014 895.843L706.238 915.706L683.521 932.439L660.642 947.753L634.281 956.339L611.069 971.47L585.341 981.226L558.206 986.321L531.347 990.194L504.528 991.965L476.674 990.781L449.648 983.493L422.121 979.255L394.372 974.598L368.661 963.36L343.221 951.749L321.145 934.471L295.115 922.684L278.191 899.911L261.807 877.672L246.953 855.751L235.356 831.937L222.603 808.791L208.696 785.839L204.026 759.419L194.063 734.458L193.951 707.39Z" fill="#111111"/>
<path d="M200.49 596.568L213.641 569.274L224.637 541.5L238.128 514.713L257.546 491.777L277.304 469.559L297.424 447.723L318.097 426.005" stroke="#111111" stroke-width="3.89752" stroke-miterlimit="10"/>
<path d="M196.687 636.141L190.812 663.602L192.097 691.592L195.267 719.208L195.566 747.332L202.923 774.37L214.399 799.881L226.751 824.711L240.833 848.565L255.062 872.677L273.456 893.796L296.43 909.972L319.543 925.205L341.651 941.774L365.074 956.619L389.125 970.773L415.448 980.064L440.857 986.073L466.676 989.719L492.784 989.857L519.881 994.02L547.201 992.215L574.179 987.38L599.526 976.905L624.081 965.484L652.818 955.638L678.075 939.043L699.15 917.144L723.128 899.204L742.895 876.742L762.323 853.885L777.989 828.252L789.485 800.571L795.529 772.041L807.406 744.749L806.579 714.991L810.91 686.193L809.929 657.126L811.113 627.84L804.132 599.441" stroke="#111111" stroke-width="3.89752" stroke-miterlimit="10"/>
<path d="M609.797 375.674L636.709 384.749L659.908 401.403L683.644 416.432L708.537 430.064L727.878 450.78L747.525 470.732L766.509 491.739L778.419 517.4L789.421 543.652" stroke="#111111" stroke-width="3.89752" stroke-miterlimit="10"/>
<path d="M414.924 147.12L417.694 176.468" stroke="#111111" stroke-width="3.89752" stroke-miterlimit="10"/>
<path d="M387.608 162.352L392.258 188.23" stroke="#111111" stroke-width="3.89752" stroke-miterlimit="10"/>
<path d="M477.858 145.65L479.635 179.199" stroke="#111111" stroke-width="3.89752" stroke-miterlimit="10"/>
<path d="M525.179 174.3L522.753 146.233" stroke="#111111" stroke-width="3.89752" stroke-miterlimit="10"/>
<path d="M535.421 121.782L536.48 140.79" stroke="#111111" stroke-width="3.89752" stroke-miterlimit="10"/>
<path d="M513.853 142.666L518.877 132.701" stroke="#111111" stroke-width="3.89752" stroke-miterlimit="10"/>
<path d="M519.19 153.832L520.621 174.679" stroke="#111111" stroke-width="3.89752" stroke-miterlimit="10"/>
<path d="M381.384 187.9L377.467 171.379" stroke="#111111" stroke-width="3.89752" stroke-miterlimit="10"/>
<path d="M443.588 130.192L467.495 121.241" stroke="#111111" stroke-width="3.89752" stroke-miterlimit="10"/>
<path d="M448.042 105.876L458.593 94.3781" stroke="#111111" stroke-width="3.89752" stroke-miterlimit="10"/>
<path d="M502.544 106.204L513.635 104.511" stroke="#111111" stroke-width="3.89752" stroke-miterlimit="10"/>
<path d="M503.819 121.578L513.068 120.276" stroke="#111111" stroke-width="3.89752" stroke-miterlimit="10"/>
<path d="M410.106 108.358L419.902 100.01" stroke="#111111" stroke-width="3.89752" stroke-miterlimit="10"/>
<path d="M387.083 133.373L427.787 118.141" stroke="#111111" stroke-width="3.89752" stroke-miterlimit="10"/>
<path d="M429.366 121.753L414.789 116.624" stroke="#111111" stroke-width="3.89752" stroke-miterlimit="10"/>
<path d="M353.931 345.279L382.172 355.832L411.318 363.75L441.614 360.691L471.542 364.449L501.568 361.73L530.011 351.538L558.664 343.02L587.125 333.299" stroke="#111111" stroke-width="3.89752" stroke-miterlimit="10"/>
<path d="M347.699 360.183L374.656 364.298L400.977 369.533L427.317 377.541L454.574 377.659L481.563 374.112L508.375 370.151L538.318 362.3L568.308 354.215L591.436 335.975" stroke="#111111" stroke-width="3.89752" stroke-miterlimit="10"/>
<path d="M581.804 394.138L587.731 423.366L591.865 453.319L595.158 483.381L596.492 513.875L616.593 532.032L637.201 549.265L659.391 564.558L678.73 583.341L701.381 598.071L723.002 614.07L742.325 630.743L760.743 612.552L778.388 591.974L795.221 570.708L811.799 549.23L828.211 527.61L845.248 508.042L830.146 486.563L810.583 467.675L791.708 448.135L771.696 429.666L754.018 409.003L734.889 389.699L715.841 372.031L689.017 371.353L662.996 382.177L635.168 382.885L608.432 389.672L581.804 394.138Z" fill="white"/>
<path d="M581.804 394.138L587.731 423.366L591.865 453.319L595.158 483.381L596.492 513.875L616.593 532.032L637.201 549.265L659.391 564.558L678.73 583.341L701.381 598.071L723.002 614.07L742.325 630.743L760.743 612.552L778.388 591.974L795.221 570.708L811.799 549.23L828.211 527.61L845.248 508.042L830.146 486.563L810.583 467.675L791.708 448.135L771.696 429.666L754.018 409.003L734.889 389.699L715.841 372.031L689.017 371.353L662.996 382.177L635.168 382.885L608.432 389.672L581.804 394.138Z" stroke="#111111" stroke-width="3.89752" stroke-miterlimit="10"/>
<path d="M561.669 340.927L582.903 352.453L594.473 374.884L612.135 399.418L634.768 421.067" stroke="#111111" stroke-width="3.89752" stroke-miterlimit="10"/>
<path d="M621.495 407.161L617.967 424.637L633.254 424.489L629.989 412.437L621.495 407.161Z" fill="#111111"/>
<path d="M621.495 407.161L617.967 424.637L633.254 424.489L629.989 412.437L621.495 407.161Z" stroke="#111111" stroke-width="3.89752" stroke-miterlimit="10"/>
<path d="M606.454 488.271L611.944 496.379" stroke="#111111" stroke-width="3.89752" stroke-miterlimit="10"/>
<path d="M604.51 495.568L612.3 502.804" stroke="#111111" stroke-width="3.89752" stroke-miterlimit="10"/>
<path d="M602.24 504.726L620.729 518.416" stroke="#111111" stroke-width="3.89752" stroke-miterlimit="10"/>
<path d="M697.332 381.951L702.931 389.936" stroke="#111111" stroke-width="3.89752" stroke-miterlimit="10"/>
<path d="M704.129 378.934L709.248 389.323" stroke="#111111" stroke-width="3.89752" stroke-miterlimit="10"/>
<path d="M709.515 379.029L727.733 393.091" stroke="#111111" stroke-width="3.89752" stroke-miterlimit="10"/>
<path d="M750.206 607.559L741.506 600.268" stroke="#111111" stroke-width="3.89752" stroke-miterlimit="10"/>
<path d="M746.908 615.91L730.328 604.669" stroke="#111111" stroke-width="3.89752" stroke-miterlimit="10"/>
<path d="M743.519 619.532L719.046 601.826L696.25 582.087" stroke="#111111" stroke-width="3.89752" stroke-miterlimit="10"/>
<path d="M828.384 517.103L817.862 511.963" stroke="#111111" stroke-width="3.89752" stroke-miterlimit="10"/>
<path d="M833.059 516.045L819.483 501.257" stroke="#111111" stroke-width="3.89752" stroke-miterlimit="10"/>
<path d="M837.203 510.8L813.644 491.955L790.439 472.702" stroke="#111111" stroke-width="3.89752" stroke-miterlimit="10"/>
</svg>
