<svg width="277" height="1113" viewBox="0 0 277 1113" fill="none" xmlns="http://www.w3.org/2000/svg">
<g clip-path="url(#clip0_1769_5918)">
<path d="M159.807 265.193L140.193 260.122L122.431 263.135L104.64 263.19L93.7245 281.139L81.136 303.798L90.3954 323.083L79.9189 342.513L85.4434 361.943L93.1687 381.373L78.2404 400.803L93.48 420.238L84.2706 439.507L88.0222 461.894L80.1412 481.618L68.1419 500.882L65.9687 522.142L66.1299 543.564L65.8909 565.097L73.6219 588.31L81.2027 584.116L81.3973 604.245L87.3441 624.363L86.755 644.492L78.7184 664.643L88.1611 684.755L79.1185 704.912L82.8034 725.035L77.2344 745.181L86.3382 765.293L75.8672 785.45L81.2917 805.573L76.6175 825.719L84.3151 845.831L81.4751 865.971L72.0712 886.128L82.042 906.24L71.7711 926.396L87.1718 946.498L80.2635 966.649L83.5259 986.778L81.9086 1006.98L68.3975 1015.76L59.2215 1029.14L42.587 1036.74L44.9657 1041.58L50.5736 1045.68L35.0061 1054.11L20.6725 1064.52L4.89941 1082.65L33.8779 1086.74L57.6987 1078.46L59.1104 1082.46L81.8752 1082.76L97.5761 1090.3L112.143 1107.73L131.962 1110.46L149.508 1106.7L165.782 1098.97L179.17 1085.99L198.873 1095.83L206.632 1093.21L204.97 1088.85L226.94 1090.27L243.963 1076.85L258.553 1059.2L240.067 1039.44L269.791 1032.46L248.154 1020.2L229.602 1016.93L218.531 1002.42L216.352 983.821L205.025 963.653L208.216 943.352L210.856 923.051L215.535 902.739L212.584 882.493L216.547 862.181L211.578 841.958L209.888 821.702L204.653 801.478L213.423 781.116L213.662 760.843L206.042 740.642L210.05 720.33L212.84 700.029L217.931 679.706L212.662 659.483L213.879 639.199L213.862 618.92L211.083 598.674L208.066 578.423L216.547 558.067L207.199 537.877L202.046 514.231L222.255 508.849L209.738 489.535L220.12 468.802L217.997 449.028L217.681 429.282L208.671 409.974L217.608 389.795L201.88 370.715L217.392 350.353L206.826 329.153L210.844 307.571L208.249 286.105L209.572 264.566L204.581 241.891L186.512 228.608L168.488 242.54L159.807 265.193Z" fill="white"/>
<path d="M159.807 265.193L140.193 260.122L122.431 263.135L104.64 263.19L93.7245 281.139L81.136 303.798L90.3954 323.083L79.9189 342.513L85.4434 361.943L93.1687 381.373L78.2404 400.803L93.48 420.238L84.2706 439.507L88.0222 461.894L80.1412 481.618L68.1419 500.882L65.9687 522.142L66.1299 543.564L65.8909 565.097L73.6219 588.31L81.2027 584.116L81.3973 604.245L87.3441 624.363L86.755 644.492L78.7184 664.643L88.1611 684.755L79.1185 704.912L82.8034 725.035L77.2344 745.181L86.3382 765.293L75.8672 785.45L81.2917 805.573L76.6175 825.719L84.3151 845.831L81.4751 865.971L72.0712 886.128L82.042 906.24L71.7711 926.396L87.1718 946.498L80.2635 966.649L83.5259 986.778L81.9086 1006.98L68.3975 1015.76L59.2215 1029.14L42.587 1036.74L44.9657 1041.58L50.5736 1045.68L35.0061 1054.11L20.6725 1064.52L4.89941 1082.65L33.8779 1086.74L57.6987 1078.46L59.1104 1082.46L81.8752 1082.76L97.5761 1090.3L112.143 1107.73L131.962 1110.46L149.508 1106.7L165.782 1098.97L179.17 1085.99L198.873 1095.83L206.632 1093.21L204.97 1088.85L226.94 1090.27L243.963 1076.85L258.553 1059.2L240.067 1039.44L269.791 1032.46L248.154 1020.2L229.602 1016.93L218.531 1002.42L216.352 983.821L205.025 963.653L208.216 943.352L210.856 923.051L215.535 902.739L212.584 882.493L216.547 862.181L211.578 841.958L209.888 821.702L204.653 801.478L213.423 781.116L213.662 760.843L206.042 740.642L210.05 720.33L212.84 700.029L217.931 679.706L212.662 659.483L213.879 639.199L213.862 618.92L211.083 598.674L208.066 578.423L216.547 558.067L207.199 537.877L202.046 514.231L222.255 508.849L209.738 489.535L220.12 468.802L217.997 449.028L217.681 429.282L208.671 409.974L217.608 389.795L201.88 370.715L217.392 350.353L206.826 329.153L210.844 307.571L208.249 286.105L209.572 264.566L204.581 241.891L186.512 228.608L168.488 242.54L159.807 265.193Z" stroke="#111111" stroke-width="6.28306" stroke-miterlimit="10"/>
<path d="M127.843 17.1553L131.456 35.4644L129.188 53.0078L125.137 69.5471L114.916 88.0004L102.094 104.95L95.4358 125.168L85.6151 143.971L81.3467 164.777L81.4412 186.182L92.051 204.735L108.169 216.286L123.436 229.33L142.738 235.411L162.524 233.003L182.382 223.21L194.821 204.857L201.401 184.151L203.302 162.247L198.745 143.899L194.098 125.767L189.707 107.142L179.92 90.7524L167.121 76.6932L154.493 64.2541L146.935 48.0866L136.402 33.9608L127.843 17.1553Z" fill="#C0C0C0"/>
<path d="M127.843 17.1553L131.456 35.4644L129.188 53.0078L125.137 69.5471L114.916 88.0004L102.094 104.95L95.4358 125.168L85.6151 143.971L81.3467 164.777L81.4412 186.182L92.051 204.735L108.169 216.286L123.436 229.33L142.738 235.411L162.524 233.003L182.382 223.21L194.821 204.857L201.401 184.151L203.302 162.247L198.745 143.899L194.098 125.767L189.707 107.142L179.92 90.7524L167.121 76.6932L154.493 64.2541L146.935 48.0866L136.402 33.9608L127.843 17.1553Z" stroke="#111111" stroke-width="6.28306" stroke-miterlimit="10"/>
<path d="M133.767 95.2461L135.545 113L131.038 128.824L120.834 144.714L113.825 162.313L107.311 179.795L103.493 198.121L109.996 215.837L123.557 226.023L138.596 233.885L155.626 234.34L170.22 222.777L181.319 207.453L182.147 188.284L178.64 168.305L170.91 149.519L158.265 133.745L145.171 115.575L133.767 95.2461Z" fill="white"/>
<path d="M133.767 95.2461L135.545 113L131.038 128.824L120.834 144.714L113.825 162.313L107.311 179.795L103.493 198.121L109.996 215.837L123.557 226.023L138.596 233.885L155.626 234.34L170.22 222.777L181.319 207.453L182.147 188.284L178.64 168.305L170.91 149.519L158.265 133.745L145.171 115.575L133.767 95.2461Z" stroke="#111111" stroke-width="6.28306" stroke-miterlimit="10"/>
<path d="M139.84 175.163L139.901 196.54L139.545 217.979L139.123 239.417L139.195 260.855L140.651 282.011L148.032 282.488L145.531 260.877L145.12 239.367L142.402 218.012L141.619 196.524L139.84 175.163Z" fill="#111111"/>
<path d="M139.84 175.163L139.901 196.54L139.545 217.979L139.123 239.417L139.195 260.855L140.651 282.011L148.032 282.488L145.531 260.877L145.12 239.367L142.402 218.012L141.619 196.524L139.84 175.163Z" stroke="#111111" stroke-width="6.28306" stroke-miterlimit="10"/>
<path d="M95.6686 442.115L93.8568 461.19L93.4121 480.376L91.9727 499.489L92.3117 518.67L92.4395 537.772L95.7242 556.436L103.944 536.119" stroke="#111111" stroke-width="6.28306" stroke-miterlimit="10"/>
<path d="M152.717 781.47L151.773 800.622L149.627 819.686L147.815 838.799L147.932 858.002L148.06 877.188L152.667 895.441L161.527 875.434" stroke="#111111" stroke-width="6.28306" stroke-miterlimit="10"/>
<path d="M126.332 360.856L129.483 379.654L128.905 398.545L128.421 417.443L130.422 436.273L129.911 455.171L131.939 473.996L132.028 492.882L132.545 511.718L125.704 522.57L116.772 510.83L116.405 495.939" stroke="#111111" stroke-width="6.28306" stroke-miterlimit="10"/>
<path d="M181.292 563.326L181.592 582.196L183.81 601.015L182.765 619.929L182.187 638.826L185.566 657.618L183.76 676.549L183.693 695.435L184.393 714.343L179.514 724.369L172.044 713.256L172.061 698.436" stroke="#111111" stroke-width="6.28306" stroke-miterlimit="10"/>
<path d="M104.7 854.703L105.729 874.005L104.328 893.319L104.673 912.627L105.612 931.929L103.767 951.253L104.773 970.555L104.511 989.869L104.267 1009.22L98.0199 1022.85L90.4668 1014.15" stroke="#111111" stroke-width="6.28306" stroke-miterlimit="10"/>
<path d="M192.737 647.889L194.949 667.79L197.305 687.686L196.399 707.637L192.364 727.639L195.888 747.518L198.828 767.408L194.076 787.421L199.067 807.278L195.788 827.268L196.888 847.186L196.099 867.138L196.16 887.072L200.845 906.935L199.917 926.892L200.112 946.827L199.067 966.789" stroke="#111111" stroke-width="6.28306" stroke-miterlimit="10"/>
<path d="M112.128 749.052L122.415 765.957L137.183 749.135L135.026 727.913L135.004 706.747L133.976 685.608L132.558 664.481L132.481 643.309L130.396 622.203" stroke="#111111" stroke-width="6.28306" stroke-miterlimit="10"/>
<path d="M95.4261 588.599L95.6651 607.984L94.7869 627.37L95.3427 646.761L95.3483 666.146L94.6758 685.537L94.8481 704.928L95.1426 724.314" stroke="#111111" stroke-width="6.28306" stroke-miterlimit="10"/>
<path d="M159.984 260.8L156.722 280.158L157.961 299.682L157.205 319.134L156.088 338.591L158.05 358.088L156.144 377.54L155.894 397.025L155.377 416.549L158.55 435.89L163.658 454.899L177.225 439.325" stroke="#111111" stroke-width="6.28306" stroke-miterlimit="10"/>
<path d="M187.003 249.925L186.797 270.964L186.053 292.002L185.997 313.047L186.97 334.091L184.646 355.13L185.869 376.18L186.692 397.224" stroke="#111111" stroke-width="6.28306" stroke-miterlimit="10"/>
<path d="M104.382 265.593L106.367 286.632L104.922 307.676L104.327 328.715L106.472 349.759L105.883 370.804L104.16 391.848L105.538 412.892" stroke="#111111" stroke-width="6.28306" stroke-miterlimit="10"/>
<path d="M109.537 1038.41L113.678 1059.13L127.561 1075.19L148.253 1074.61L162.331 1055.15L163.165 1037.64L161.547 1020.15L162.57 1002.62L160.613 985.159" stroke="#111111" stroke-width="6.28306" stroke-miterlimit="10"/>
<path d="M176.544 985.134L177.144 1005.55L177.461 1025.96L177.233 1046.11L191.139 1060.25L204.022 1075.48L204.516 1085.83" stroke="#111111" stroke-width="6.28306" stroke-miterlimit="10"/>
<path d="M63.3701 1078.06L83.1448 1058.92" stroke="#111111" stroke-width="6.28306" stroke-miterlimit="10"/>
</g>
<defs>
<clipPath id="clip0_1769_5918">
<rect width="276.574" height="1113" fill="white"/>
</clipPath>
</defs>
</svg>
