<svg width="1440" height="988" viewBox="0 0 1440 988" fill="none" xmlns="http://www.w3.org/2000/svg">
<g clip-path="url(#clip0_1966_31414)">
<path d="M1401.76 620.93L1382.2 618.04L1364.27 621.82L1346.34 618.97L1328.41 617.81L1310.48 620.48L1292.55 617.88L1274.62 622L1256.7 622.59L1238.77 622.18L1220.84 621.77L1202.91 620.04L1184.98 621.04L1167.05 621.55L1149.12 619.65L1131.19 618.76L1113.26 621.21L1095.33 620.76L1077.4 617.96L1059.47 616.82L1041.54 622.67L1023.61 616.52L1005.68 622.32L987.75 620.63L969.82 620.57L951.89 621.17L933.96 617.24L916.02 616.02L898.09 618.89L880.16 620.56L862.23 620.48L844.3 622.05L826.37 616.54L808.44 616.91L790.51 616.21L772.59 619.9L754.66 617.16L736.73 621.22L718.8 622.74L700.88 622.14L682.95 619.18L665.02 617.24L647.09 621.99L629.16 619.3L611.23 616.06L593.3 620.78L575.37 620.45L557.44 619.96L539.51 619.12L521.57 618.2L503.64 617.88L485.71 619.26L467.78 621.11L449.85 619.96L431.92 620.35L413.98 621.26L396.05 617.75L378.12 620.05L360.19 621L342.25 619.83L324.32 619.41L306.39 620.08L288.45 622.07L270.52 621.53L252.59 616.31L234.66 621.06L216.72 621.63L198.79 622.34L180.86 618.17L162.92 622.47L144.99 617.47L127.05 621.45L109.12 619.88L91.18 622.68L73.24 621.59L55.3 619.09L36.1 620.56L38.29 601.21L37.76 583.1L37.96 564.99L35.5 546.88L38.6 528.77L39.28 510.66L34.38 492.55L37.02 474.44L38.48 456.33L38.3 438.22L38.44 420.1L36.35 401.99L36.64 383.88L37.38 365.77L36.15 347.66L36.36 329.54L34.66 311.43L39.21 293.32L37.96 275.21L39.28 257.09L40.36 238.98L34.43 220.87L40.26 202.76L40.21 184.65L34 166.53L40.44 148.42L39.07 130.31L36.79 112.19L36.45 94.07L36.97 75.96L36.83 57.84L39.31 39.73L36.59 21.6L39 5.11L55.29 2.39L73.22 6.72L91.15 2.05L109.07 4.52L127 5.35L144.93 0.88L162.86 3.86L180.79 0.87L198.72 3.4L216.65 3.55L234.58 1.89L252.51 4.44L270.44 6.33L288.37 1.47L306.3 5.94L324.23 5.3L342.16 4.12L360.09 1.08L378.02 5.21L395.95 6.33L413.88 6.74L431.81 6.16L449.74 4.94L467.67 6.85L485.6 1.16L503.53 2.91L521.46 2.1L539.39 0.16L557.32 4.94L575.25 6.7L593.18 0.63L611.11 2.35L629.05 0L646.97 3.79L664.9 2.11L682.83 0.24L700.76 2.7L718.68 3.33L736.61 2.27L754.54 3.54L772.47 4.84L790.4 4.86L808.33 6.28L826.26 5.17L844.19 6.9L862.12 5.64L880.05 2.07L897.98 0.05L915.91 3.97L933.84 0.08L951.77 2.89L969.71 5.88L987.64 5.72L1005.57 4.53L1023.5 0.15L1041.43 5.59L1059.37 6.87L1077.3 3.75L1095.23 0.78L1113.16 6.83L1131.1 3.52L1149.03 6.31L1166.97 4.25L1184.9 5.16L1202.83 6.84L1220.76 0.19L1238.7 2.32L1256.63 4.35L1274.56 2.33L1292.5 2.93L1310.44 3.92L1328.37 6.44L1346.31 2.34L1364.25 4.52L1382.19 6.94L1398.31 5.28L1396.67 21.59L1399.27 39.7L1400.12 57.81L1397.31 75.92L1396.73 94.03L1400.07 112.14L1400.2 130.25L1403.25 148.36L1398.93 166.47L1396.69 184.58L1402.07 202.7L1398.19 220.81L1397.99 238.92L1402.79 257.03L1397 275.14L1401.26 293.26L1399.87 311.37L1400.49 329.48L1402.53 347.59L1402.56 365.71L1398.13 383.82L1398.8 401.93L1397.58 420.04L1403.23 438.15L1399.43 456.27L1399.44 474.38L1402.33 492.49L1396.72 510.61L1399.6 528.73L1401.45 546.84L1402.78 564.96L1403.46 583.07L1397.05 601.33L1401.76 620.93Z" fill="white"/>
</g>
<path d="M187.407 674.408L196.59 671.657L206.204 674.105L215.591 673.478L224.334 668.535L233.866 668.983L243.872 671.23L252.83 668.041L260.881 661.611L269.485 657.909L280.272 661.222L288.196 655.35L296.039 649.752L305.275 647.821L315.376 647.471L323.384 642.414L331.842 638.333L332.874 638.662L340.69 636.053L348.711 633.684L357.124 632.184L366.208 629.277L373.915 635.264L382.226 637.499L391.294 637.094L398.864 644.358L395.334 633.092L388.903 626.553L379.963 622.887L374.041 615.89L365.023 612.894L358.417 606.725L352.432 599.268L341.585 600.215L335.7 592.125L326.377 591.03L319.622 583.72L311.466 579.446L301.5 581.483L293.063 578.43L284.671 574.372L275.288 577.108L266.623 573.988L257.651 577.252L248.838 575.256L239.649 572.948L230.426 573.316L222.654 578.658L215.681 584.597L208.011 588.561L198.862 590.786L192.388 596.967L184.476 601.777L182.537 611.761L176.956 618.481L169.585 624.594L169.206 631.723L167.386 622.244L170.197 613.606L172.774 605.028L173.582 595.982L176.317 587.437L181.127 579.706L183.929 571.235L191.326 565.071L195.294 557.343L200.014 550.665L206.355 549.509L215.537 551.835L224.294 547.36L233.202 546.211L237.984 538.515L243.379 532.311L252.884 528.725L256.363 520.705L257.454 511.64L263.537 505.055L268.749 497.688L271.635 488.583L278.039 481.451L287.254 478.49L296.854 476.271L300.496 474.421L290.906 474.886L281.268 476.622L272.432 474.329L263.734 473.105L255.702 475.362L245.332 471.139L238.489 478.977L230.787 483.197L223.537 487.949L216.144 492.473L209.975 498.531L201.28 503.22L197.658 511.762L193.879 520.303L196.251 531.705L191.419 541.563L189.966 550.544L185.463 558.343L181.075 566.204L173.006 572.221L174.203 582.779L170.493 590.817L170.035 599.16L165.739 610.202L166.535 600.885L169.093 591.435L166.168 582.012L169.332 572.266L166.175 562.984L167.244 553.071L160.144 544.893L156.712 536.186L152.641 527.888L151.33 517.901L146.454 509.384L136.433 506.429L130.24 498.576L120.154 499.881L111.424 496.447L102.236 495.791L93.0948 496.326L83.6633 496.241L74.7307 499.126L65.282 501.894L59.9545 510.4L51.3486 515.495L45.5899 523.624L43.7144 533.886L46.0693 543.858L47.1327 554.458L55.6197 561.011L65.7601 562.399L75.2549 561.972L82.1761 560.132L87.5698 555.407L86.1301 547.795L83.5618 537.962L75.4745 541.781L68.1897 542.543L61.9604 553.543L53.7769 545.946L51.6124 536.24L54.2712 526.401L62.0427 520.711L70.0008 516.487L79.3246 518.654L89.2143 518.734L95.389 527.087L103.008 531.994L109.862 537.939L117.931 542.616L124.124 549.425L129.213 557.092L135.27 564.097L137.52 573.263L140.381 581.817L145.669 589.597L151.083 597.841L151.839 607.222L150.482 616.612L147.834 625.699L148.229 634.745L148.6 644.034L150.714 654.598L150.337 665.12L146.909 675.015L139.177 682.449L139.478 692.476L134.283 700.717L135.671 711.137L131.194 719.636L128.722 728.916L123.13 736.673L114.431 742.443L113.144 752.682L106.315 759.28L101.948 768.337L92.0921 770.784L82.5204 776.223L75.8559 769.228L80.7596 778.018L84.9664 787.421L95.2933 785.951L103.272 790.9L106.324 781.104L113.664 774.562L121.327 768.067L122.927 758.134L129.683 751.09L131.098 741.103L134.144 732.025L141.175 725.11L142.413 715.068L150.562 708.737L152.288 698.965L159.217 691.969L161.965 682.613L168.827 675.697L178.802 676.673L187.407 674.408Z" fill="white"/>
<path d="M187.407 674.408L187.916 676.103L187.888 676.111L187.86 676.119L187.407 674.408ZM196.59 671.657L196.081 669.962L196.542 669.824L197.01 669.943L196.59 671.657ZM206.204 674.105L206.331 675.869L206.054 675.888L205.784 675.819L206.204 674.105ZM215.591 673.478L216.456 675.021L216.112 675.216L215.717 675.242L215.591 673.478ZM224.334 668.535L223.468 666.992L223.904 666.745L224.405 666.769L224.334 668.535ZM233.866 668.983L233.938 667.217L234.089 667.224L234.238 667.258L233.866 668.983ZM243.872 671.23L244.465 672.897L243.992 673.066L243.5 672.955L243.872 671.23ZM252.83 668.041L253.925 669.429L253.698 669.611L253.424 669.708L252.83 668.041ZM260.881 661.611L259.786 660.223L259.969 660.077L260.184 659.985L260.881 661.611ZM269.485 657.909L268.788 656.283L269.374 656.03L269.987 656.218L269.485 657.909ZM280.272 661.222L281.317 662.649L280.611 663.172L279.77 662.914L280.272 661.222ZM288.196 655.35L287.151 653.923L287.163 653.914L287.176 653.905L288.196 655.35ZM296.039 649.752L295.02 648.307L295.316 648.095L295.673 648.02L296.039 649.752ZM305.275 647.821L304.909 646.09L305.055 646.059L305.204 646.054L305.275 647.821ZM315.376 647.471L316.315 648.97L315.917 649.221L315.447 649.238L315.376 647.471ZM323.384 642.414L322.445 640.914L322.529 640.861L322.618 640.818L323.384 642.414ZM331.842 638.333L331.077 636.737L331.701 636.436L332.364 636.647L331.842 638.333ZM332.874 638.662L333.435 640.341L332.896 640.521L332.353 640.347L332.874 638.662ZM340.69 636.053L340.129 634.375L340.158 634.365L340.187 634.356L340.69 636.053ZM348.711 633.683L348.208 631.987L348.3 631.959L348.395 631.942L348.711 633.683ZM357.124 632.184L357.664 633.869L357.553 633.905L357.439 633.925L357.124 632.184ZM366.208 629.277L365.668 627.592L366.543 627.312L367.274 627.879L366.208 629.277ZM373.915 635.264L373.472 636.972L373.13 636.88L372.849 636.662L373.915 635.264ZM382.226 637.499L382.315 639.265L382.045 639.277L381.784 639.207L382.226 637.499ZM391.294 637.094L391.206 635.328L391.955 635.295L392.5 635.817L391.294 637.094ZM398.864 644.358L400.537 643.835L402.581 650.357L397.658 645.635L398.864 644.358ZM395.334 633.092L396.577 631.852L396.879 632.158L397.007 632.569L395.334 633.092ZM388.903 626.553L389.555 624.916L389.89 625.053L390.145 625.312L388.903 626.553ZM379.963 622.887L379.31 624.524L378.911 624.36L378.631 624.029L379.963 622.887ZM374.041 615.89L374.582 614.211L375.052 614.367L375.373 614.747L374.041 615.89ZM365.023 612.894L364.483 614.573L364.117 614.452L363.834 614.188L365.023 612.894ZM358.417 606.725L357.229 608.019L357.135 607.932L357.055 607.832L358.417 606.725ZM352.432 599.268L352.27 597.507L353.203 597.425L353.793 598.161L352.432 599.268ZM341.585 600.215L341.746 601.976L340.759 602.062L340.172 601.254L341.585 600.215ZM335.7 592.125L335.893 590.369L336.657 590.459L337.113 591.086L335.7 592.125ZM326.377 591.03L326.184 592.787L325.54 592.711L325.096 592.231L326.377 591.03ZM319.622 583.72L320.424 582.152L320.695 582.294L320.903 582.519L319.622 583.72ZM311.466 579.446L311.107 577.713L311.715 577.589L312.268 577.879L311.466 579.446ZM301.5 581.483L301.858 583.216L301.378 583.314L300.916 583.147L301.5 581.483ZM293.063 578.43L292.479 580.094L292.394 580.063L292.312 580.023L293.063 578.43ZM284.671 574.372L284.174 572.674L284.816 572.486L285.422 572.779L284.671 574.372ZM275.288 577.108L275.786 578.806L275.242 578.965L274.707 578.772L275.288 577.108ZM266.623 573.988L266.019 572.324L266.61 572.109L267.205 572.323L266.623 573.988ZM257.651 577.252L258.256 578.916L257.776 579.09L257.277 578.977L257.651 577.252ZM248.838 575.256L248.463 576.981L248.443 576.976L248.423 576.971L248.838 575.256ZM239.649 572.948L239.569 571.182L239.82 571.172L240.064 571.233L239.649 572.948ZM230.426 573.316L229.432 571.853L229.845 571.569L230.346 571.549L230.426 573.316ZM222.654 578.658L221.516 577.305L221.585 577.246L221.659 577.195L222.654 578.658ZM215.681 584.597L216.818 585.951L216.666 586.08L216.489 586.172L215.681 584.597ZM208.011 588.561L208.819 590.136L208.635 590.231L208.433 590.28L208.011 588.561ZM198.862 590.786L197.651 589.499L197.988 589.177L198.44 589.067L198.862 590.786ZM192.388 596.967L193.598 598.254L193.462 598.384L193.301 598.482L192.388 596.967ZM184.476 601.777L182.754 601.427L182.902 600.663L183.563 600.261L184.476 601.777ZM182.537 611.761L184.259 612.111L184.173 612.555L183.885 612.901L182.537 611.761ZM176.956 618.481L178.304 619.621L178.2 619.746L178.076 619.849L176.956 618.481ZM169.586 624.594L167.833 624.488L167.875 623.716L168.466 623.226L169.586 624.594ZM169.206 631.723L170.958 631.828L170.195 646.166L167.483 632.048L169.206 631.723ZM167.386 622.244L165.663 622.57L165.577 622.119L165.718 621.684L167.386 622.244ZM170.197 613.606L171.876 614.127L171.87 614.147L171.864 614.166L170.197 613.606ZM172.774 605.028L174.522 605.197L174.506 605.377L174.454 605.55L172.774 605.028ZM173.582 595.982L171.835 595.813L171.852 595.617L171.912 595.43L173.582 595.982ZM176.317 587.437L174.647 586.885L174.714 586.676L174.829 586.491L176.317 587.437ZM181.127 579.706L182.792 580.274L182.726 580.474L182.615 580.652L181.127 579.706ZM183.929 571.235L182.264 570.667L182.422 570.19L182.806 569.869L183.929 571.235ZM191.326 565.071L192.886 565.891L192.723 566.208L192.449 566.436L191.326 565.071ZM195.294 557.343L193.734 556.523L193.791 556.413L193.863 556.311L195.294 557.343ZM200.014 550.665L198.583 549.634L198.994 549.053L199.691 548.925L200.014 550.665ZM206.355 549.509L206.032 547.769L206.404 547.701L206.773 547.794L206.355 549.509ZM215.537 551.835L216.338 553.413L215.755 553.711L215.119 553.55L215.537 551.835ZM224.294 547.36L223.493 545.782L223.762 545.645L224.061 545.607L224.294 547.36ZM233.202 546.211L234.691 547.156L234.254 547.859L233.436 547.965L233.202 546.211ZM237.984 538.515L236.496 537.57L236.57 537.45L236.662 537.345L237.984 538.515ZM243.379 532.311L242.056 531.141L242.345 530.81L242.755 530.655L243.379 532.311ZM252.884 528.725L254.492 529.442L254.198 530.122L253.508 530.382L252.884 528.725ZM256.363 520.705L258.104 520.928L258.073 521.185L257.971 521.421L256.363 520.705ZM257.454 511.64L255.712 511.416L255.781 510.848L256.167 510.431L257.454 511.64ZM263.537 505.055L264.968 506.087L264.902 506.181L264.825 506.264L263.537 505.055ZM268.749 497.688L270.42 498.235L270.337 498.497L270.179 498.72L268.749 497.688ZM271.635 488.583L269.963 488.035L270.078 487.673L270.331 487.392L271.635 488.583ZM278.039 481.451L276.735 480.261L277.049 479.91L277.497 479.766L278.039 481.451ZM287.254 478.49L286.712 476.805L286.781 476.783L286.852 476.766L287.254 478.49ZM296.854 476.271L297.652 477.851L297.463 477.947L297.256 477.995L296.854 476.271ZM300.496 474.421L300.401 472.655L308.667 472.254L301.293 476L300.496 474.421ZM290.906 474.886L290.587 473.145L290.698 473.125L290.811 473.12L290.906 474.886ZM281.268 476.622L281.587 478.363L281.211 478.431L280.84 478.334L281.268 476.622ZM272.432 474.329L272.664 472.578L272.763 472.592L272.86 472.617L272.432 474.329ZM263.734 473.105L263.253 471.401L263.604 471.303L263.966 471.354L263.734 473.105ZM255.702 475.362L256.182 477.065L255.608 477.226L255.053 477L255.702 475.362ZM245.332 471.139L244.012 469.966L244.828 469.031L245.981 469.5L245.332 471.139ZM238.489 478.977L239.809 480.149L239.605 480.383L239.334 480.531L238.489 478.977ZM230.787 483.197L229.825 481.713L229.882 481.675L229.942 481.642L230.787 483.197ZM223.537 487.949L224.5 489.433L224.478 489.448L224.455 489.462L223.537 487.949ZM216.144 492.473L214.916 491.203L215.058 491.063L215.227 490.96L216.144 492.473ZM209.975 498.531L211.204 499.801L211.027 499.974L210.81 500.091L209.975 498.531ZM201.28 503.22L199.666 502.517L199.906 501.951L200.445 501.66L201.28 503.22ZM197.658 511.762L199.272 512.465L199.266 512.477L199.261 512.49L197.658 511.762ZM193.879 520.303L192.162 520.656L192.046 520.096L192.276 519.575L193.879 520.303ZM196.251 531.705L197.968 531.353L198.092 531.95L197.825 532.496L196.251 531.705ZM191.419 541.563L189.687 541.268L189.73 541.008L189.845 540.772L191.419 541.563ZM189.966 550.544L191.697 550.839L191.645 551.16L191.484 551.44L189.966 550.544ZM185.463 558.343L183.932 557.469L183.939 557.458L183.945 557.447L185.463 558.343ZM181.075 566.204L182.606 567.078L182.423 567.405L182.124 567.628L181.075 566.204ZM173.006 572.221L171.263 572.411L171.148 571.4L171.957 570.797L173.006 572.221ZM174.203 582.779L175.946 582.589L176.002 583.084L175.795 583.533L174.203 582.779ZM170.493 590.817L168.741 590.708L168.759 590.37L168.901 590.063L170.493 590.817ZM170.035 599.16L171.786 599.268L171.771 599.551L171.669 599.814L170.035 599.16ZM165.739 610.202L167.373 610.856L162.95 622.226L163.991 610.04L165.739 610.202ZM166.535 600.885L164.787 600.722L164.8 600.563L164.842 600.41L166.535 600.885ZM169.093 591.435L170.767 590.916L170.921 591.411L170.786 591.91L169.093 591.435ZM166.168 582.012L164.493 582.531L164.325 581.99L164.5 581.453L166.168 582.012ZM169.332 572.266L170.991 571.701L171.182 572.263L171 572.825L169.332 572.266ZM166.175 562.984L164.515 563.548L164.388 563.174L164.43 562.782L166.175 562.984ZM167.244 553.071L168.561 551.911L169.071 552.499L168.988 553.272L167.244 553.071ZM160.144 544.893L158.827 546.053L158.626 545.822L158.514 545.537L160.144 544.893ZM156.712 536.186L158.284 535.411L158.316 535.475L158.342 535.542L156.712 536.186ZM152.641 527.888L151.069 528.664L150.94 528.4L150.902 528.109L152.641 527.888ZM151.33 517.901L152.848 517.025L153.023 517.33L153.069 517.68L151.33 517.901ZM146.454 509.384L146.937 507.687L147.618 507.888L147.972 508.507L146.454 509.384ZM136.433 506.429L135.95 508.126L135.411 507.967L135.062 507.524L136.433 506.429ZM130.24 498.576L130.007 496.822L130.991 496.695L131.611 497.481L130.24 498.576ZM120.154 499.881L120.388 501.635L119.943 501.692L119.524 501.527L120.154 499.881ZM111.424 496.447L111.537 494.683L111.804 494.702L112.053 494.8L111.424 496.447ZM102.236 495.791L102.124 494.026L102.237 494.019L102.349 494.027L102.236 495.791ZM93.0948 496.326L93.2072 498.091L93.1485 498.095L93.0898 498.094L93.0948 496.326ZM83.6633 496.241L83.1185 494.557L83.3864 494.47L83.6683 494.473L83.6633 496.241ZM74.7307 499.126L75.2754 500.81L75.2528 500.817L75.2299 500.824L74.7307 499.126ZM65.282 501.894L63.7966 500.944L64.1486 500.382L64.7827 500.196L65.282 501.894ZM59.9545 510.4L61.4399 511.351L61.2144 511.711L60.85 511.926L59.9545 510.4ZM51.3486 515.495L49.9185 514.462L50.1337 514.158L50.453 513.969L51.3486 515.495ZM45.5899 523.624L43.8643 523.293L43.9346 522.909L44.1598 522.591L45.5899 523.624ZM43.7144 533.886L42.0076 534.285L41.9218 533.922L41.9888 533.555L43.7144 533.886ZM46.0693 543.858L47.776 543.458L47.8031 543.573L47.8149 543.69L46.0693 543.858ZM47.1327 554.458L46.0709 555.859L45.4638 555.39L45.387 554.625L47.1327 554.458ZM55.6197 561.011L55.394 562.763L54.9302 562.7L54.5579 562.412L55.6197 561.011ZM65.7601 562.399L65.849 564.165L65.6911 564.172L65.5344 564.151L65.7601 562.399ZM75.2548 561.972L75.7119 563.682L75.5309 563.73L75.3437 563.738L75.2548 561.972ZM82.1761 560.132L83.3318 561.47L83.0258 561.738L82.6332 561.842L82.1761 560.132ZM87.5698 555.407L89.2932 555.087L89.4816 556.082L88.7255 556.745L87.5698 555.407ZM86.13 547.795L87.8266 547.355L87.8421 547.414L87.8535 547.474L86.13 547.795ZM83.5618 537.962L82.8093 536.36L84.7194 535.458L85.2584 537.522L83.5618 537.962ZM75.4744 541.781L76.2269 543.383L75.9599 543.509L75.6662 543.539L75.4744 541.781ZM68.1897 542.543L66.6645 541.66L67.1074 540.878L67.9979 540.785L68.1897 542.543ZM61.9604 553.543L63.4856 554.427L62.3984 556.347L60.7759 554.84L61.9604 553.543ZM53.7768 545.946L52.5923 547.243L52.186 546.866L52.0651 546.323L53.7768 545.946ZM51.6123 536.24L49.9006 536.617L49.8049 536.188L49.9192 535.765L51.6123 536.24ZM54.2712 526.401L52.5781 525.927L52.7391 525.331L53.2343 524.968L54.2712 526.401ZM62.0427 520.711L61.0057 519.279L61.1069 519.204L61.2176 519.146L62.0427 520.711ZM70.0007 516.487L69.1756 514.921L69.7501 514.616L70.3852 514.764L70.0007 516.487ZM79.3246 518.654L79.3211 520.422L79.1283 520.42L78.9401 520.377L79.3246 518.654ZM89.2143 518.734L89.2177 516.966L90.094 516.973L90.619 517.683L89.2143 518.734ZM95.389 527.087L94.4507 528.575L94.1778 528.399L93.9843 528.138L95.389 527.087ZM103.008 531.994L103.947 530.505L104.053 530.574L104.148 530.657L103.008 531.994ZM109.862 537.939L108.995 539.471L108.849 539.386L108.722 539.276L109.862 537.939ZM117.931 542.616L118.799 541.085L119.036 541.222L119.221 541.426L117.931 542.616ZM124.124 549.425L125.414 548.235L125.505 548.335L125.58 548.448L124.124 549.425ZM129.213 557.092L127.893 558.248L127.82 558.163L127.757 558.069L129.213 557.092ZM135.27 564.097L136.59 562.94L136.87 563.265L136.973 563.682L135.27 564.097ZM137.52 573.263L135.857 573.818L135.834 573.749L135.817 573.677L137.52 573.263ZM140.381 581.817L138.936 582.81L138.797 582.607L138.719 582.373L140.381 581.817ZM145.669 589.597L147.114 588.604L147.122 588.616L147.13 588.628L145.669 589.597ZM151.083 597.841L152.544 596.871L152.795 597.253L152.832 597.708L151.083 597.841ZM151.839 607.222L153.588 607.09L153.604 607.29L153.576 607.488L151.839 607.222ZM150.482 616.612L152.218 616.878L152.2 617.001L152.166 617.12L150.482 616.612ZM147.834 625.699L146.081 625.766L146.068 625.472L146.15 625.191L147.834 625.699ZM148.229 634.745L149.982 634.678L149.983 634.685L148.229 634.745ZM148.6 644.034L146.88 644.373L146.852 644.235L146.847 644.094L148.6 644.034ZM150.714 654.598L152.434 654.258L152.475 654.463L152.468 654.672L150.714 654.598ZM150.337 665.12L152.09 665.195L152.081 665.461L151.994 665.712L150.337 665.12ZM146.909 675.015L148.566 675.607L148.428 676.006L148.124 676.298L146.909 675.015ZM139.177 682.449L137.423 682.492L137.4 681.707L137.962 681.166L139.177 682.449ZM139.478 692.476L141.232 692.433L141.248 692.975L140.961 693.431L139.478 692.476ZM134.283 700.717L132.544 700.941L132.459 700.303L132.801 699.762L134.283 700.717ZM135.671 711.137L137.41 710.912L137.485 711.474L137.222 711.973L135.671 711.137ZM131.194 719.636L129.499 719.168L129.55 718.975L129.643 718.799L131.194 719.636ZM128.722 728.916L130.417 729.384L130.333 729.698L130.144 729.961L128.722 728.916ZM123.13 736.673L124.551 737.718L124.365 737.976L124.1 738.152L123.13 736.673ZM114.431 742.443L112.69 742.211L112.791 741.408L113.46 740.965L114.431 742.443ZM113.144 752.682L114.884 752.915L114.807 753.532L114.362 753.962L113.144 752.682ZM106.315 759.28L104.736 758.5L104.872 758.218L105.096 758.001L106.315 759.28ZM101.948 768.337L103.527 769.117L103.171 769.857L102.378 770.054L101.948 768.337ZM92.0921 770.784L91.2232 769.242L91.4308 769.124L91.6626 769.067L92.0921 770.784ZM82.5204 776.223L83.3893 777.764L82.2051 778.437L81.2583 777.443L82.5204 776.223ZM75.8559 769.227L74.3277 770.087C73.8939 769.309 74.0992 768.331 74.807 767.804C75.5149 767.276 76.5047 767.363 77.118 768.007L75.8559 769.227ZM80.7596 778.018L82.2879 777.159L82.3262 777.228L82.3584 777.3L80.7596 778.018ZM84.9664 787.421L85.2222 789.172L83.9128 789.358L83.3676 788.14L84.9664 787.421ZM95.2933 785.951L95.0376 784.2L95.665 784.111L96.2065 784.447L95.2933 785.951ZM103.272 790.9L104.946 791.439L104.275 793.593L102.358 792.405L103.272 790.9ZM106.324 781.104L104.649 780.565L104.794 780.1L105.157 779.777L106.324 781.104ZM113.664 774.562L112.497 773.234L112.513 773.22L112.53 773.206L113.664 774.562ZM121.327 768.067L123.059 768.36L122.956 769.004L122.461 769.423L121.327 768.067ZM122.927 758.134L121.195 757.84L121.282 757.296L121.662 756.901L122.927 758.134ZM129.683 751.09L131.42 751.35L131.34 751.914L130.948 752.322L129.683 751.09ZM131.098 741.103L129.361 740.843L129.384 740.682L129.436 740.528L131.098 741.103ZM134.144 732.025L132.482 731.45L132.616 731.05L132.915 730.756L134.144 732.025ZM141.175 725.11L142.916 725.339L142.841 725.95L142.405 726.379L141.175 725.11ZM142.413 715.068L140.672 714.84L140.762 714.112L141.337 713.666L142.413 715.068ZM150.562 708.737L152.289 709.058L152.171 709.726L151.639 710.14L150.562 708.737ZM152.288 698.965L150.561 698.645L150.657 698.102L151.043 697.713L152.288 698.965ZM159.217 691.969L160.899 692.481L160.774 692.907L160.462 693.222L159.217 691.969ZM161.965 682.613L160.283 682.101L160.408 681.674L160.721 681.359L161.965 682.613ZM168.827 675.697L167.582 674.443L168.164 673.857L168.986 673.937L168.827 675.697ZM178.802 676.673L179.255 678.384L178.953 678.463L178.643 678.433L178.802 676.673ZM187.407 674.408L186.898 672.713L196.081 669.962L196.59 671.657L197.099 673.352L187.916 676.103L187.407 674.408ZM196.59 671.657L197.01 669.943L206.624 672.391L206.204 674.105L205.784 675.819L196.17 673.371L196.59 671.657ZM206.204 674.105L206.078 672.341L215.464 671.714L215.591 673.478L215.717 675.242L206.331 675.869L206.204 674.105ZM215.591 673.478L214.725 671.935L223.468 666.992L224.334 668.535L225.199 670.078L216.456 675.021L215.591 673.478ZM224.334 668.535L224.405 666.769L233.938 667.217L233.866 668.983L233.795 670.75L224.263 670.301L224.334 668.535ZM233.866 668.983L234.238 667.258L244.243 669.504L243.872 671.23L243.5 672.955L233.495 670.709L233.866 668.983ZM243.872 671.23L243.278 669.562L252.237 666.373L252.83 668.041L253.424 669.708L244.465 672.897L243.872 671.23ZM252.83 668.041L251.735 666.653L259.786 660.223L260.881 661.611L261.976 663L253.925 669.429L252.83 668.041ZM260.881 661.611L260.184 659.985L268.788 656.283L269.485 657.909L270.182 659.536L261.579 663.238L260.881 661.611ZM269.485 657.909L269.987 656.218L280.774 659.531L280.272 661.222L279.77 662.914L268.983 659.6L269.485 657.909ZM280.272 661.222L279.227 659.796L287.151 653.923L288.196 655.35L289.241 656.776L281.317 662.649L280.272 661.222ZM288.196 655.35L287.176 653.905L295.02 648.307L296.039 649.752L297.059 651.197L289.216 656.795L288.196 655.35ZM296.039 649.752L295.673 648.02L304.909 646.09L305.275 647.821L305.642 649.553L296.406 651.483L296.039 649.752ZM305.275 647.821L305.204 646.054L315.305 645.704L315.376 647.471L315.447 649.238L305.346 649.588L305.275 647.821ZM315.376 647.471L314.438 645.971L322.445 640.914L323.384 642.414L324.322 643.913L316.315 648.97L315.376 647.471ZM323.384 642.414L322.618 640.818L331.077 636.737L331.842 638.333L332.608 639.928L324.149 644.009L323.384 642.414ZM331.842 638.333L332.364 636.647L333.396 636.977L332.874 638.662L332.353 640.347L331.321 640.018L331.842 638.333ZM332.874 638.662L332.313 636.984L340.129 634.375L340.69 636.053L341.251 637.732L333.435 640.341L332.874 638.662ZM340.69 636.053L340.187 634.356L348.208 631.987L348.711 633.683L349.214 635.38L341.193 637.75L340.69 636.053ZM348.711 633.683L348.395 631.942L356.808 630.443L357.124 632.184L357.439 633.925L349.027 635.425L348.711 633.683ZM357.124 632.184L356.583 630.498L365.668 627.592L366.208 629.277L366.748 630.963L357.664 633.869L357.124 632.184ZM366.208 629.277L367.274 627.879L374.981 633.866L373.915 635.264L372.849 636.662L365.142 630.675L366.208 629.277ZM373.915 635.264L374.357 633.556L382.669 635.79L382.226 637.499L381.784 639.207L373.472 636.972L373.915 635.264ZM382.226 637.499L382.138 635.732L391.206 635.328L391.294 637.094L391.382 638.861L382.315 639.265L382.226 637.499ZM391.294 637.094L392.5 635.817L400.07 643.081L398.864 644.358L397.658 645.635L390.088 638.371L391.294 637.094ZM398.864 644.358L397.191 644.881L393.662 633.615L395.334 633.092L397.007 632.569L400.537 643.835L398.864 644.358ZM395.334 633.092L394.092 634.333L387.66 627.794L388.903 626.553L390.145 625.312L396.577 631.852L395.334 633.092ZM388.903 626.553L388.25 628.19L379.31 624.524L379.963 622.887L380.616 621.249L389.555 624.916L388.903 626.553ZM379.963 622.887L378.631 624.029L372.709 617.033L374.041 615.89L375.373 614.747L381.295 621.744L379.963 622.887ZM374.041 615.89L373.501 617.569L364.483 614.573L365.023 612.894L365.563 611.215L374.582 614.211L374.041 615.89ZM365.023 612.894L363.834 614.188L357.229 608.019L358.417 606.725L359.605 605.432L366.211 611.601L365.023 612.894ZM358.417 606.725L357.055 607.832L351.07 600.375L352.432 599.268L353.793 598.161L359.779 605.618L358.417 606.725ZM352.432 599.268L352.594 601.03L341.746 601.976L341.585 600.215L341.423 598.453L352.27 597.507L352.432 599.268ZM341.585 600.215L340.172 601.254L334.287 593.165L335.7 592.125L337.113 591.086L342.997 599.175L341.585 600.215ZM335.7 592.125L335.507 593.882L326.184 592.787L326.377 591.03L326.57 589.274L335.893 590.369L335.7 592.125ZM326.377 591.03L325.096 592.231L318.342 584.92L319.622 583.72L320.903 582.519L327.658 589.83L326.377 591.03ZM319.622 583.72L318.821 585.287L310.664 581.014L311.466 579.446L312.268 577.879L320.424 582.152L319.622 583.72ZM311.466 579.446L311.825 581.179L301.858 583.216L301.5 581.483L301.141 579.75L311.107 577.713L311.466 579.446ZM301.5 581.483L300.916 583.147L292.479 580.094L293.063 578.43L293.647 576.767L302.084 579.82L301.5 581.483ZM293.063 578.43L292.312 580.023L283.92 575.965L284.671 574.372L285.422 572.779L293.814 576.837L293.063 578.43ZM284.671 574.372L285.168 576.071L275.786 578.806L275.288 577.108L274.791 575.409L284.174 572.674L284.671 574.372ZM275.288 577.108L274.707 578.772L266.042 575.653L266.623 573.988L267.205 572.323L275.87 575.443L275.288 577.108ZM266.623 573.988L267.228 575.651L258.256 578.916L257.651 577.252L257.047 575.589L266.019 572.324L266.623 573.988ZM257.651 577.252L257.277 578.977L248.463 576.981L248.838 575.256L249.213 573.531L258.026 575.527L257.651 577.252ZM248.838 575.256L248.423 576.971L239.235 574.664L239.649 572.948L240.064 571.233L249.252 573.54L248.838 575.256ZM239.649 572.948L239.729 574.715L230.506 575.083L230.426 573.316L230.346 571.549L239.569 571.182L239.649 572.948ZM230.426 573.316L231.421 574.779L223.648 580.12L222.654 578.658L221.659 577.195L229.432 571.853L230.426 573.316ZM222.654 578.658L223.791 580.011L216.818 585.951L215.681 584.597L214.543 583.244L221.516 577.305L222.654 578.658ZM215.681 584.597L216.489 586.172L208.819 590.136L208.011 588.561L207.203 586.987L214.872 583.023L215.681 584.597ZM208.011 588.561L208.433 590.28L199.283 592.505L198.862 590.786L198.44 589.067L207.59 586.843L208.011 588.561ZM198.862 590.786L200.072 592.073L193.598 598.254L192.388 596.967L191.177 595.68L197.651 589.499L198.862 590.786ZM192.388 596.967L193.301 598.482L185.389 603.292L184.476 601.777L183.563 600.261L191.475 595.451L192.388 596.967ZM184.476 601.777L186.198 602.126L184.259 612.111L182.537 611.761L180.815 611.412L182.754 601.427L184.476 601.777ZM182.537 611.761L183.885 612.901L178.304 619.621L176.956 618.481L175.607 617.341L181.189 610.622L182.537 611.761ZM176.956 618.481L178.076 619.849L170.705 625.962L169.586 624.594L168.466 623.226L175.836 617.113L176.956 618.481ZM169.586 624.594L171.338 624.699L170.958 631.828L169.206 631.723L167.454 631.617L167.833 624.488L169.586 624.594ZM169.206 631.723L167.483 632.048L165.663 622.57L167.386 622.244L169.108 621.919L170.928 631.397L169.206 631.723ZM167.386 622.244L165.718 621.684L168.529 613.045L170.197 613.606L171.864 614.166L169.053 622.804L167.386 622.244ZM170.197 613.606L168.517 613.084L171.095 604.506L172.774 605.028L174.454 605.55L171.876 614.127L170.197 613.606ZM172.774 605.028L171.027 604.859L171.835 595.813L173.582 595.982L175.33 596.151L174.522 605.197L172.774 605.028ZM173.582 595.982L171.912 595.43L174.647 586.885L176.317 587.437L177.988 587.989L175.252 596.534L173.582 595.982ZM176.317 587.437L174.829 586.491L179.639 578.76L181.127 579.706L182.615 580.652L177.806 588.382L176.317 587.437ZM181.127 579.706L179.462 579.138L182.264 570.667L183.929 571.235L185.594 571.803L182.792 580.274L181.127 579.706ZM183.929 571.235L182.806 569.869L190.203 563.705L191.326 565.071L192.449 566.436L185.052 572.6L183.929 571.235ZM191.326 565.071L189.767 564.251L193.734 556.523L195.294 557.343L196.853 558.163L192.886 565.891L191.326 565.071ZM195.294 557.343L193.863 556.311L198.583 549.634L200.014 550.665L201.445 551.697L196.725 558.375L195.294 557.343ZM200.014 550.665L199.691 548.925L206.032 547.769L206.355 549.509L206.677 551.248L200.337 552.405L200.014 550.665ZM206.355 549.509L206.773 547.794L215.955 550.121L215.537 551.835L215.119 553.55L205.936 551.223L206.355 549.509ZM215.537 551.835L214.736 550.257L223.493 545.782L224.294 547.36L225.095 548.938L216.338 553.413L215.537 551.835ZM224.294 547.36L224.061 545.607L232.969 544.457L233.202 546.211L233.436 547.965L224.528 549.114L224.294 547.36ZM233.202 546.211L231.714 545.266L236.496 537.57L237.984 538.515L239.473 539.459L234.691 547.156L233.202 546.211ZM237.984 538.515L236.662 537.345L242.056 531.141L243.379 532.311L244.702 533.481L239.307 539.684L237.984 538.515ZM243.379 532.311L242.755 530.655L252.26 527.069L252.884 528.725L253.508 530.382L244.003 533.967L243.379 532.311ZM252.884 528.725L251.276 528.009L254.754 519.988L256.363 520.705L257.971 521.421L254.492 529.442L252.884 528.725ZM256.363 520.705L254.621 520.481L255.712 511.416L257.454 511.64L259.196 511.863L258.104 520.928L256.363 520.705ZM257.454 511.64L256.167 510.431L262.25 503.846L263.537 505.055L264.825 506.264L258.742 512.849L257.454 511.64ZM263.537 505.055L262.107 504.023L267.318 496.656L268.749 497.688L270.179 498.72L264.968 506.087L263.537 505.055ZM268.749 497.688L267.077 497.141L269.963 488.035L271.635 488.583L273.307 489.13L270.42 498.235L268.749 497.688ZM271.635 488.583L270.331 487.392L276.735 480.261L278.039 481.451L279.343 482.642L272.939 489.773L271.635 488.583ZM278.039 481.451L277.497 479.766L286.712 476.805L287.254 478.49L287.797 480.175L278.581 483.136L278.039 481.451ZM287.254 478.49L286.852 476.766L296.452 474.548L296.854 476.271L297.256 477.995L287.656 480.213L287.254 478.49ZM296.854 476.271L296.057 474.691L299.698 472.841L300.496 474.421L301.293 476L297.652 477.851L296.854 476.271ZM300.496 474.421L300.591 476.187L291.001 476.652L290.906 474.886L290.811 473.12L300.401 472.655L300.496 474.421ZM290.906 474.886L291.225 476.627L281.587 478.363L281.268 476.622L280.949 474.882L290.587 473.145L290.906 474.886ZM281.268 476.622L280.84 478.334L272.004 476.041L272.432 474.329L272.86 472.617L281.696 474.91L281.268 476.622ZM272.432 474.329L272.199 476.08L263.502 474.856L263.734 473.105L263.966 471.354L272.664 472.578L272.432 474.329ZM263.734 473.105L264.215 474.808L256.182 477.065L255.702 475.362L255.221 473.658L263.253 471.401L263.734 473.105ZM255.702 475.362L255.053 477L244.683 472.777L245.332 471.139L245.981 469.5L256.35 473.723L255.702 475.362ZM245.332 471.139L246.652 472.311L239.809 480.149L238.489 478.977L237.168 477.804L244.012 469.966L245.332 471.139ZM238.489 478.977L239.334 480.531L231.633 484.751L230.787 483.197L229.942 481.642L237.643 477.422L238.489 478.977ZM230.787 483.197L231.75 484.681L224.5 489.433L223.537 487.949L222.575 486.465L229.825 481.713L230.787 483.197ZM223.537 487.949L224.455 489.462L217.062 493.985L216.144 492.473L215.227 490.96L222.62 486.436L223.537 487.949ZM216.144 492.473L217.373 493.743L211.204 499.801L209.975 498.531L208.747 497.261L214.916 491.203L216.144 492.473ZM209.975 498.531L210.81 500.091L202.115 504.781L201.28 503.22L200.445 501.66L209.14 496.971L209.975 498.531ZM201.28 503.22L202.894 503.924L199.272 512.465L197.658 511.762L196.043 511.059L199.666 502.517L201.28 503.22ZM197.658 511.762L199.261 512.49L195.483 521.031L193.879 520.303L192.276 519.575L196.054 511.034L197.658 511.762ZM193.879 520.303L195.597 519.951L197.968 531.353L196.251 531.705L194.534 532.058L192.162 520.656L193.879 520.303ZM196.251 531.705L197.825 532.496L192.993 542.354L191.419 541.563L189.845 540.772L194.677 530.914L196.251 531.705ZM191.419 541.563L193.151 541.858L191.697 550.839L189.966 550.544L188.234 550.249L189.687 541.268L191.419 541.563ZM189.966 550.544L191.484 551.44L186.981 559.239L185.463 558.343L183.945 557.447L188.448 549.648L189.966 550.544ZM185.463 558.343L186.993 559.217L182.606 567.078L181.075 566.204L179.545 565.33L183.932 557.469L185.463 558.343ZM181.075 566.204L182.124 567.628L174.055 573.644L173.006 572.221L171.957 570.797L180.026 564.781L181.075 566.204ZM173.006 572.221L174.749 572.031L175.946 582.589L174.203 582.779L172.46 582.969L171.263 572.411L173.006 572.221ZM174.203 582.779L175.795 583.533L172.084 591.571L170.493 590.817L168.901 590.063L172.611 582.026L174.203 582.779ZM170.493 590.817L172.245 590.925L171.786 599.268L170.035 599.16L168.283 599.051L168.741 590.708L170.493 590.817ZM170.035 599.16L171.669 599.814L167.373 610.856L165.739 610.202L164.105 609.548L168.401 598.506L170.035 599.16ZM165.739 610.202L163.991 610.04L164.787 600.722L166.535 600.885L168.283 601.047L167.487 610.364L165.739 610.202ZM166.535 600.885L164.842 600.41L167.4 590.96L169.093 591.435L170.786 591.91L168.228 601.36L166.535 600.885ZM169.093 591.435L167.419 591.954L164.493 582.531L166.168 582.012L167.842 581.494L170.767 590.916L169.093 591.435ZM166.168 582.012L164.5 581.453L167.664 571.707L169.332 572.266L171 572.825L167.835 582.571L166.168 582.012ZM169.332 572.266L167.672 572.83L164.515 563.548L166.175 562.984L167.834 562.42L170.991 571.701L169.332 572.266ZM166.175 562.984L164.43 562.782L165.499 552.869L167.244 553.071L168.988 553.272L167.919 563.185L166.175 562.984ZM167.244 553.071L165.926 554.23L158.827 546.053L160.144 544.893L161.462 543.733L168.561 551.911L167.244 553.071ZM160.144 544.893L158.514 545.537L155.082 536.83L156.712 536.186L158.342 535.542L161.774 544.249L160.144 544.893ZM156.712 536.186L155.14 536.962L151.069 528.664L152.641 527.888L154.213 527.112L158.284 535.411L156.712 536.186ZM152.641 527.888L150.902 528.109L149.59 518.122L151.33 517.901L153.069 517.68L154.38 527.666L152.641 527.888ZM151.33 517.901L149.811 518.778L144.935 510.26L146.454 509.384L147.972 508.507L152.848 517.025L151.33 517.901ZM146.454 509.384L145.971 511.081L135.95 508.126L136.433 506.429L136.916 504.732L146.937 507.687L146.454 509.384ZM136.433 506.429L135.062 507.524L128.869 499.671L130.24 498.576L131.611 497.481L137.804 505.334L136.433 506.429ZM130.24 498.576L130.474 500.33L120.388 501.635L120.154 499.881L119.92 498.127L130.007 496.822L130.24 498.576ZM120.154 499.881L119.524 501.527L110.794 498.093L111.424 496.447L112.053 494.8L120.783 498.234L120.154 499.881ZM111.424 496.447L111.31 498.21L102.123 497.555L102.236 495.791L102.349 494.027L111.537 494.683L111.424 496.447ZM102.236 495.791L102.349 497.556L93.2072 498.091L93.0948 496.326L92.9825 494.561L102.124 494.026L102.236 495.791ZM93.0948 496.326L93.0898 498.094L83.6582 498.009L83.6633 496.241L83.6683 494.473L93.0998 494.558L93.0948 496.326ZM83.6633 496.241L84.208 497.925L75.2754 500.81L74.7307 499.126L74.186 497.442L83.1185 494.557L83.6633 496.241ZM74.7307 499.126L75.2299 500.824L65.7812 503.592L65.282 501.894L64.7827 500.196L74.2315 497.428L74.7307 499.126ZM65.282 501.894L66.7674 502.844L61.4399 511.351L59.9545 510.4L58.469 509.45L63.7966 500.944L65.282 501.894ZM59.9545 510.4L60.85 511.926L52.2442 517.021L51.3486 515.495L50.453 513.969L59.0589 508.875L59.9545 510.4ZM51.3486 515.495L52.7787 516.528L47.02 524.657L45.5899 523.624L44.1598 522.591L49.9185 514.462L51.3486 515.495ZM45.5899 523.624L47.3155 523.954L45.44 534.216L43.7144 533.886L41.9888 533.555L43.8643 523.293L45.5899 523.624ZM43.7144 533.886L45.4212 533.486L47.776 543.458L46.0693 543.858L44.3625 544.257L42.0076 534.285L43.7144 533.886ZM46.0693 543.858L47.8149 543.69L48.8783 554.291L47.1327 554.458L45.387 554.625L44.3236 544.025L46.0693 543.858ZM47.1327 554.458L48.1944 553.057L56.6814 559.61L55.6197 561.011L54.5579 562.412L46.0709 555.859L47.1327 554.458ZM55.6197 561.011L55.8454 559.259L65.9858 560.647L65.7601 562.399L65.5344 564.151L55.394 562.763L55.6197 561.011ZM65.7601 562.399L65.6713 560.632L75.166 560.206L75.2548 561.972L75.3437 563.738L65.849 564.165L65.7601 562.399ZM75.2548 561.972L74.7977 560.262L81.719 558.423L82.1761 560.132L82.6332 561.842L75.7119 563.682L75.2548 561.972ZM82.1761 560.132L81.0204 558.795L86.4141 554.07L87.5698 555.407L88.7255 556.745L83.3318 561.47L82.1761 560.132ZM87.5698 555.407L85.8463 555.728L84.4066 548.116L86.13 547.795L87.8535 547.474L89.2932 555.087L87.5698 555.407ZM86.13 547.795L84.4334 548.235L81.8652 538.402L83.5618 537.962L85.2584 537.522L87.8266 547.355L86.13 547.795ZM83.5618 537.962L84.3142 539.564L76.2269 543.383L75.4744 541.781L74.722 540.179L82.8093 536.36L83.5618 537.962ZM75.4744 541.781L75.6662 543.539L68.3814 544.302L68.1897 542.543L67.9979 540.785L75.2827 540.022L75.4744 541.781ZM68.1897 542.543L69.7149 543.427L63.4856 554.427L61.9604 553.543L60.4352 552.66L66.6645 541.66L68.1897 542.543ZM61.9604 553.543L60.7759 554.84L52.5923 547.243L53.7768 545.946L54.9614 544.649L63.145 552.246L61.9604 553.543ZM53.7768 545.946L52.0651 546.323L49.9006 536.617L51.6123 536.24L53.3241 535.862L55.4886 545.568L53.7768 545.946ZM51.6123 536.24L49.9192 535.765L52.5781 525.927L54.2712 526.401L55.9643 526.875L53.3054 536.714L51.6123 536.24ZM54.2712 526.401L53.2343 524.968L61.0057 519.279L62.0427 520.711L63.0797 522.144L55.3082 527.834L54.2712 526.401ZM62.0427 520.711L61.2176 519.146L69.1756 514.921L70.0007 516.487L70.8259 518.052L62.8678 522.277L62.0427 520.711ZM70.0007 516.487L70.3852 514.764L79.709 516.931L79.3246 518.654L78.9401 520.377L69.6163 518.209L70.0007 516.487ZM79.3246 518.654L79.328 516.886L89.2177 516.966L89.2143 518.734L89.2108 520.502L79.3211 520.422L79.3246 518.654ZM89.2143 518.734L90.619 517.683L96.7938 526.036L95.389 527.087L93.9843 528.138L87.8095 519.785L89.2143 518.734ZM95.389 527.087L96.3274 525.599L103.947 530.505L103.008 531.994L102.07 533.482L94.4507 528.575L95.389 527.087ZM103.008 531.994L104.148 530.657L111.002 536.602L109.862 537.939L108.722 539.276L101.868 533.331L103.008 531.994ZM109.862 537.939L110.73 536.408L118.799 541.085L117.931 542.616L117.063 544.147L108.995 539.471L109.862 537.939ZM117.931 542.616L119.221 541.426L125.414 548.235L124.124 549.425L122.833 550.616L116.641 543.806L117.931 542.616ZM124.124 549.425L125.58 548.448L130.67 556.115L129.213 557.092L127.757 558.069L122.667 550.402L124.124 549.425ZM129.213 557.092L130.533 555.935L136.59 562.94L135.27 564.097L133.95 565.254L127.893 558.248L129.213 557.092ZM135.27 564.097L136.973 563.682L139.223 572.848L137.52 573.263L135.817 573.677L133.567 564.512L135.27 564.097ZM137.52 573.263L139.182 572.707L142.044 581.262L140.381 581.817L138.719 582.373L135.857 573.818L137.52 573.263ZM140.381 581.817L141.827 580.824L147.114 588.604L145.669 589.597L144.223 590.59L138.936 582.81L140.381 581.817ZM145.669 589.597L147.13 588.628L152.544 596.871L151.083 597.841L149.622 598.81L144.207 590.567L145.669 589.597ZM151.083 597.841L152.832 597.708L153.588 607.09L151.839 607.222L150.091 607.355L149.334 597.973L151.083 597.841ZM151.839 607.222L153.576 607.488L152.218 616.878L150.482 616.612L148.746 616.347L150.103 606.957L151.839 607.222ZM150.482 616.612L152.166 617.12L149.518 626.206L147.834 625.699L146.15 625.191L148.798 616.105L150.482 616.612ZM147.834 625.699L149.587 625.631L149.982 634.678L148.229 634.745L146.477 634.812L146.081 625.766L147.834 625.699ZM148.229 634.745L149.983 634.685L150.353 643.973L148.6 644.034L146.847 644.094L146.476 634.805L148.229 634.745ZM148.6 644.034L150.32 643.694L152.434 654.258L150.714 654.598L148.995 654.937L146.88 644.373L148.6 644.034ZM150.714 654.598L152.468 654.672L152.09 665.195L150.337 665.12L148.583 665.046L148.961 654.523L150.714 654.598ZM150.337 665.12L151.994 665.712L148.566 675.607L146.909 675.015L145.252 674.423L148.68 664.529L150.337 665.12ZM146.909 675.015L148.124 676.298L140.392 683.732L139.177 682.449L137.962 681.166L145.694 673.732L146.909 675.015ZM139.177 682.449L140.931 682.407L141.232 692.433L139.478 692.476L137.725 692.519L137.423 682.492L139.177 682.449ZM139.478 692.476L140.961 693.431L135.766 701.671L134.283 700.717L132.801 699.762L137.996 691.521L139.478 692.476ZM134.283 700.717L136.022 700.492L137.41 710.912L135.671 711.137L133.932 711.361L132.544 700.941L134.283 700.717ZM135.671 711.137L137.222 711.973L132.745 720.472L131.194 719.636L129.643 718.799L134.12 710.3L135.671 711.137ZM131.194 719.636L132.889 720.104L130.417 729.384L128.722 728.916L127.028 728.448L129.499 719.168L131.194 719.636ZM128.722 728.916L130.144 729.961L124.551 737.718L123.13 736.673L121.708 735.628L127.301 727.871L128.722 728.916ZM123.13 736.673L124.1 738.152L115.401 743.922L114.431 742.443L113.46 740.965L122.159 735.194L123.13 736.673ZM114.431 742.443L116.171 742.676L114.884 752.915L113.144 752.682L111.403 752.45L112.69 742.211L114.431 742.443ZM113.144 752.682L114.362 753.962L107.533 760.56L106.315 759.28L105.096 758.001L111.925 751.402L113.144 752.682ZM106.315 759.28L107.894 760.061L103.527 769.117L101.948 768.337L100.369 767.556L104.736 758.5L106.315 759.28ZM101.948 768.337L102.378 770.054L92.5215 772.5L92.0921 770.784L91.6626 769.067L101.519 766.62L101.948 768.337ZM92.0921 770.784L92.9609 772.325L83.3893 777.764L82.5204 776.223L81.6515 774.681L91.2232 769.242L92.0921 770.784ZM82.5204 776.223L81.2583 777.443L74.5938 770.448L75.8559 769.227L77.118 768.007L83.7825 775.002L82.5204 776.223ZM75.8559 769.227L77.3841 768.368L82.2879 777.159L80.7596 778.018L79.2314 778.878L74.3277 770.087L75.8559 769.227ZM80.7596 778.018L82.3584 777.3L86.5652 786.702L84.9664 787.421L83.3676 788.14L79.1609 778.737L80.7596 778.018ZM84.9664 787.421L84.7106 785.67L95.0376 784.2L95.2933 785.951L95.5491 787.702L85.2222 789.172L84.9664 787.421ZM95.2933 785.951L96.2065 784.447L104.185 789.396L103.272 790.9L102.358 792.405L94.3802 787.455L95.2933 785.951ZM103.272 790.9L101.597 790.361L104.649 780.565L106.324 781.104L107.998 781.643L104.946 791.439L103.272 790.9ZM106.324 781.104L105.157 779.777L112.497 773.234L113.664 774.562L114.831 775.889L107.491 782.432L106.324 781.104ZM113.664 774.562L112.53 773.206L120.193 766.711L121.327 768.067L122.461 769.423L114.798 775.918L113.664 774.562ZM121.327 768.067L119.595 767.773L121.195 757.84L122.927 758.134L124.659 758.427L123.059 768.36L121.327 768.067ZM122.927 758.134L121.662 756.901L128.417 749.857L129.683 751.09L130.948 752.322L124.192 759.366L122.927 758.134ZM129.683 751.09L127.946 750.829L129.361 740.843L131.098 741.103L132.835 741.364L131.42 751.35L129.683 751.09ZM131.098 741.103L129.436 740.528L132.482 731.45L134.144 732.025L135.807 732.601L132.761 741.679L131.098 741.103ZM134.144 732.025L132.915 730.756L139.946 723.841L141.175 725.11L142.405 726.379L135.374 733.294L134.144 732.025ZM141.175 725.11L139.434 724.882L140.672 714.84L142.413 715.068L144.155 715.297L142.916 725.339L141.175 725.11ZM142.413 715.068L141.337 713.666L149.485 707.335L150.562 708.737L151.639 710.14L143.49 716.471L142.413 715.068ZM150.562 708.737L148.834 708.417L150.561 698.645L152.288 698.965L154.016 699.286L152.289 709.058L150.562 708.737ZM152.288 698.965L151.043 697.713L157.971 690.716L159.217 691.969L160.462 693.222L153.534 700.218L152.288 698.965ZM159.217 691.969L157.534 691.458L160.283 682.101L161.965 682.613L163.648 683.124L160.899 692.481L159.217 691.969ZM161.965 682.613L160.721 681.359L167.582 674.443L168.827 675.697L170.072 676.951L163.21 683.867L161.965 682.613ZM168.827 675.697L168.986 673.937L178.961 674.913L178.802 676.673L178.643 678.433L168.668 677.457L168.827 675.697ZM178.802 676.673L178.349 674.962L186.954 672.697L187.407 674.408L187.86 676.119L179.255 678.384L178.802 676.673Z" fill="#111111"/>
<path d="M403.187 647.701L397.376 640.963L388.7 638.205L382.037 632.404L373.15 631.113L365.73 626.435L357.338 624.451L348.841 623.571L339.563 623.158L330.266 620.889L320.941 622.235L311.566 621.177L302.306 622.689L293.041 623.661L283.93 625.761L274.34 624.444L265.456 627.714L256.142 628.605L246.787 629.665L238.612 634.823L229.966 638.04L220.516 639.381L211.863 642.928L204.563 648.921L197.126 654.367L189.694 659.794L183.777 666.849L176.297 672.551L168.856 675.745L162.049 682.277" stroke="#111111" stroke-width="3.5227" stroke-miterlimit="10"/>
<path d="M353.621 604.329L344.58 605.84L335.657 607.9L326.819 610.369L318.56 614.401L312.211 620.979" fill="white"/>
<path d="M353.621 604.329L344.58 605.84L335.657 607.9L326.819 610.369L318.56 614.401L312.211 620.979" stroke="#111111" stroke-width="3.5227" stroke-miterlimit="10"/>
<path d="M326.456 590.375L317.963 594.322L309.209 597.481L301.053 601.947L292.885 606.376L285.123 611.502L277.937 617.414L271.156 623.808" fill="white"/>
<path d="M326.456 590.375L317.963 594.322L309.209 597.481L301.053 601.947L292.885 606.376L285.123 611.502L277.937 617.414L271.156 623.808" stroke="#111111" stroke-width="3.5227" stroke-miterlimit="10"/>
<path d="M253.676 577.684L246.849 584.28L239.835 590.679L234.358 598.499L227.664 605.242L222.506 613.212L217.57 621.28L212.024 629.012L208.753 637.969L204.271 646.398" fill="white"/>
<path d="M253.676 577.684L246.849 584.28L239.835 590.679L234.358 598.499L227.664 605.242L222.506 613.212L217.57 621.28L212.024 629.012L208.753 637.969L204.271 646.398" stroke="#111111" stroke-width="3.5227" stroke-miterlimit="10"/>
<path d="M297.223 582.485L288.89 585.49L280.692 588.997L273.234 593.877L265.62 598.504L258.789 604.23L252.186 610.231L246.823 617.374L241.206 624.323L237.491 632.473" fill="white"/>
<path d="M297.223 582.485L288.89 585.49L280.692 588.997L273.234 593.877L265.62 598.504L258.789 604.23L252.186 610.231L246.823 617.374L241.206 624.323L237.491 632.473" stroke="#111111" stroke-width="3.5227" stroke-miterlimit="10"/>
<path d="M283.973 480.993L279.974 481.917L281.974 480.993L279.149 483.78L270.722 485.928L262.556 488.993L254.468 492.353L247.423 497.595L240.255 502.497L232.326 506.603L227.127 513.852L221.445 520.423L215.417 526.828L210.968 534.438L207.415 543.743L202.302 552.247" stroke="#111111" stroke-width="3.5227" stroke-miterlimit="10"/>
<path d="M271.837 474.809L264.527 481.397L259.363 489.909" fill="white"/>
<path d="M271.837 474.809L264.527 481.397L259.363 489.909" stroke="#111111" stroke-width="3.5227" stroke-miterlimit="10"/>
<path d="M254.854 476.52L248.499 484.334L242.935 492.738L239.51 502.267" fill="white"/>
<path d="M254.854 476.52L248.499 484.334L242.935 492.738L239.51 502.267" stroke="#111111" stroke-width="3.5227" stroke-miterlimit="10"/>
<path d="M234.821 484.118L230.342 493.492L227.948 503.616L226.628 513.966" fill="white"/>
<path d="M234.821 484.118L230.342 493.492L227.948 503.616L226.628 513.966" stroke="#111111" stroke-width="3.5227" stroke-miterlimit="10"/>
<path d="M216.482 527.031L213.363 517.68L212.465 507.836L215.749 498.572" fill="white"/>
<path d="M216.482 527.031L213.363 517.68L212.465 507.836L215.749 498.572" stroke="#111111" stroke-width="3.5227" stroke-miterlimit="10"/>
<path d="M155.498 625.161L157.335 615.951L156.918 606.603L157.46 597.3L156.857 587.97L157.64 578.655L157.979 569.314L156.774 560.015L157.077 550.632L154.462 541.507L153.043 532.313L152.224 522.906L148.863 514.016L142.319 506.909" fill="white"/>
<path d="M155.498 625.161L157.335 615.951L156.918 606.603L157.46 597.3L156.857 587.97L157.64 578.655L157.979 569.314L156.774 560.015L157.077 550.632L154.462 541.507L153.043 532.313L152.224 522.906L148.863 514.016L142.319 506.909" stroke="#111111" stroke-width="3.5227" stroke-miterlimit="10"/>
<path d="M137.993 564.951L139.387 555.287L139.667 545.513L139.171 535.744L138.238 526.024L137.003 516.275L132.836 507.363L125.95 500.689" fill="white"/>
<path d="M137.993 564.951L139.387 555.287L139.667 545.513L139.171 535.744L138.238 526.024L137.003 516.275L132.836 507.363L125.95 500.689" stroke="#111111" stroke-width="3.5227" stroke-miterlimit="10"/>
<path d="M118.59 542.075L120.5 532.381L121.209 522.495L119.668 512.633L114.427 504.173L106.5 498.358" fill="white"/>
<path d="M118.59 542.075L120.5 532.381L121.209 522.495L119.668 512.633L114.427 504.173L106.5 498.358" stroke="#111111" stroke-width="3.5227" stroke-miterlimit="10"/>
<path d="M96.9697 527.152L100.451 517.309L99.2414 506.99L92.233 499.452" fill="white"/>
<path d="M96.9697 527.152L100.451 517.309L99.2414 506.99L92.233 499.452" stroke="#111111" stroke-width="3.5227" stroke-miterlimit="10"/>
<path d="M1134.89 522.618L1140.02 535.294L1142.31 548.798L1144.9 562.248L1152.47 574.205L1153.17 588.272L1157.13 601.365L1165.02 612.977L1169.3 625.911L1176.79 638.313L1188.11 637.61L1198.34 640.747L1212.86 634.818L1226.58 627.248L1240.86 620.814L1254.83 613.484L1246.51 606.061L1242.29 606.991L1235.37 588.752L1246.49 579.891L1262.33 581.612L1277.11 587.884L1283.19 590.016L1294.6 581.445L1301.82 568.367L1309.96 555.263L1304.87 541.261L1294.92 530.592L1286.09 519.449L1277.31 507.908L1265.97 498.671L1252.2 492.912L1240.21 484.76L1228.1 476.799L1216.03 468.777L1204.96 459.063L1191.23 453.855L1179.73 444.425L1165.72 440.087L1151.53 437.444L1137.42 436.229L1125.01 446.166L1124.09 462.027L1123.17 477.578L1126.23 492.843L1131.81 507.37L1134.89 522.618Z" fill="white"/>
<path d="M1134.89 522.618L1140.02 535.294L1142.31 548.798L1144.9 562.248L1152.47 574.205L1153.17 588.272L1157.13 601.365L1165.02 612.977L1169.3 625.911L1176.79 638.313L1188.11 637.61L1198.34 640.747L1212.86 634.818L1226.58 627.248L1240.86 620.814L1254.83 613.484L1246.51 606.061L1242.29 606.991L1235.37 588.752L1246.49 579.891L1262.33 581.612L1277.11 587.884L1283.19 590.016L1294.6 581.445L1301.82 568.367L1309.96 555.263L1304.87 541.261L1294.92 530.592L1286.09 519.449L1277.31 507.908L1265.97 498.671L1252.2 492.912L1240.21 484.76L1228.1 476.799L1216.03 468.777L1204.96 459.063L1191.23 453.855L1179.73 444.425L1165.72 440.087L1151.53 437.444L1137.42 436.229L1125.01 446.166L1124.09 462.027L1123.17 477.578L1126.23 492.843L1131.81 507.37L1134.89 522.618Z" stroke="#111111" stroke-width="3.22269" stroke-miterlimit="10"/>
<path d="M1197.88 624.163L1210.41 621.053L1222.4 617.172L1233.64 611.269L1246.37 608.081L1243.09 605.727L1234.6 588.517L1246.48 579.773L1262.27 581.804L1277.45 588.321L1288.8 575.081L1289.65 559.66L1274.46 553.578L1258.32 558.876L1247.24 564.272L1235.31 567.522L1223.92 572.109L1211.08 581.142L1199.65 591.869L1190.3 604.059L1188.62 615.676L1197.88 624.163Z" fill="white"/>
<path d="M1197.88 624.163L1210.41 621.053L1222.4 617.172L1233.64 611.269L1246.37 608.081L1243.09 605.727L1234.6 588.517L1246.48 579.773L1262.27 581.804L1277.45 588.321L1288.8 575.081L1289.65 559.66L1274.46 553.578L1258.32 558.876L1247.24 564.272L1235.31 567.522L1223.92 572.109L1211.08 581.142L1199.65 591.869L1190.3 604.059L1188.62 615.676L1197.88 624.163Z" stroke="#111111" stroke-width="3.22269" stroke-miterlimit="10"/>
<path d="M1241.08 494.035L1226.76 485.586" stroke="#111111" stroke-width="3.22269" stroke-miterlimit="10"/>
<path d="M1219.14 479.669L1213.93 475.787" stroke="#111111" stroke-width="3.22269" stroke-miterlimit="10"/>
<path d="M1190.73 452.083L1181 460.262L1167.99 459.574L1156.54 451.081L1155.35 436.694" fill="white"/>
<path d="M1190.73 452.083L1181 460.262L1167.99 459.574L1156.54 451.081L1155.35 436.694" stroke="#111111" stroke-width="3.22269" stroke-miterlimit="10"/>
<path d="M1130.44 505.215L1145.96 507.064L1158.92 516.155L1168.07 528.91L1171.29 540.388L1173.6 552.04L1170.75 563.17L1162.86 573.535L1151.3 579.492L1146.52 564.761L1142.8 549.748L1138.7 534.841L1135.02 519.821L1130.44 505.215Z" fill="white"/>
<path d="M1130.44 505.215L1145.96 507.064L1158.92 516.155L1168.07 528.91L1171.29 540.388L1173.6 552.04L1170.75 563.17L1162.86 573.535L1151.3 579.492L1146.52 564.761L1142.8 549.748L1138.7 534.841L1135.02 519.821L1130.44 505.215Z" stroke="#111111" stroke-width="3.22269" stroke-miterlimit="10"/>
<path d="M1254.98 522.603L1264.92 530.794L1258.92 540.171L1247.63 542.323L1236.48 540.073L1228.56 527.038L1240.7 519.264L1254.98 522.603Z" fill="white"/>
<path d="M1254.98 522.603L1264.92 530.794L1258.92 540.171L1247.63 542.323L1236.48 540.073L1228.56 527.038L1240.7 519.264L1254.98 522.603Z" stroke="#111111" stroke-width="3.22269" stroke-miterlimit="10"/>
<path d="M1194.11 581.488L1186.38 587.691" stroke="#111111" stroke-width="3.22269" stroke-miterlimit="10"/>
<path d="M1184.11 591.506L1181.72 595.7" stroke="#111111" stroke-width="3.22269" stroke-miterlimit="10"/>
<path d="M1277.35 631.803L1282.29 642.069L1289.29 651.305L1294.3 661.077L1300.72 670.269L1305.68 680.218L1310.39 690.302L1317.02 699.405L1323.9 708.646L1333.24 716.466L1339.32 726.233L1340.63 737.368L1345.32 747.042L1352.05 756.141L1355.37 766.327L1359.38 776.301L1360.77 787.019L1364.03 797.191L1368.47 807.043L1374.15 816.185L1376.53 826.37L1383.02 835.001L1384.22 823.807L1381.85 813.058L1379.09 802.44L1378.31 791.561L1375.15 781.032L1375.44 769.902L1372.71 759.286L1371.12 748.431L1366.65 738.195L1365.16 727.254L1358.73 717.635L1356.16 706.894L1348.46 698.77L1343.61 688.507L1334.17 681.172L1331.69 670.166L1325.69 660.934L1317.93 652.444L1315.27 641.713L1308.98 632.544L1305.55 621.398L1301.95 622.303L1299.06 624.734L1292.85 628.551L1293.94 628.467L1284.34 633.448L1282.54 629.35L1277.35 631.803Z" fill="white"/>
<path d="M1277.35 631.803L1282.29 642.069L1289.29 651.305L1294.3 661.077L1300.72 670.269L1305.68 680.218L1310.39 690.302L1317.02 699.405L1323.9 708.646L1333.24 716.466L1339.32 726.233L1340.63 737.368L1345.32 747.042L1352.05 756.141L1355.37 766.327L1359.38 776.301L1360.77 787.019L1364.03 797.191L1368.47 807.043L1374.15 816.185L1376.53 826.37L1383.02 835.001L1384.22 823.807L1381.85 813.058L1379.09 802.44L1378.31 791.561L1375.15 781.032L1375.44 769.902L1372.71 759.286L1371.12 748.431L1366.65 738.195L1365.16 727.254L1358.73 717.635L1356.16 706.894L1348.46 698.77L1343.61 688.507L1334.17 681.172L1331.69 670.166L1325.69 660.934L1317.93 652.444L1315.27 641.713L1308.98 632.544L1305.55 621.398L1301.95 622.303L1299.06 624.734L1292.85 628.551L1293.94 628.467L1284.34 633.448L1282.54 629.35L1277.35 631.803Z" stroke="#111111" stroke-width="2.42536" stroke-miterlimit="10"/>
<path d="M1263.38 581.503L1278.49 571.997L1289.32 558.047" fill="white"/>
<path d="M1263.38 581.503L1278.49 571.997L1289.32 558.047" stroke="#111111" stroke-width="3.22269" stroke-miterlimit="10"/>
<path d="M1256.09 579.952L1265.83 568.401L1272.3 554.89" fill="white"/>
<path d="M1256.09 579.952L1265.83 568.401L1272.3 554.89" stroke="#111111" stroke-width="3.22269" stroke-miterlimit="10"/>
<path d="M1242.6 606.509L1246.09 606.771L1254.76 612.824L1269.19 625.363L1272.32 637.71L1275.57 649.92L1277.36 662.34L1285.36 659.694L1285.14 655.166L1290.09 650.682L1292.51 656.485L1301.27 651.141L1301.45 649.257L1308.49 644.63L1312.8 645.074L1313.68 643.438L1316.79 638.442L1326.57 637.838L1314.21 622.652L1304.98 611.411L1294.74 601.103L1283.19 592.38L1277.23 587.675L1262.33 581.614L1246.47 579.678L1234.57 588.504L1242.6 606.509Z" fill="white"/>
<path d="M1242.6 606.509L1246.09 606.771L1254.76 612.824L1269.19 625.363L1272.32 637.71L1275.57 649.92L1277.36 662.34L1285.36 659.694L1285.14 655.166L1290.09 650.682L1292.51 656.485L1301.27 651.141L1301.45 649.257L1308.49 644.63L1312.8 645.074L1313.68 643.438L1316.79 638.442L1326.57 637.838L1314.21 622.652L1304.98 611.411L1294.74 601.103L1283.19 592.38L1277.23 587.675L1262.33 581.614L1246.47 579.678L1234.57 588.504L1242.6 606.509Z" stroke="#111111" stroke-width="3.22269" stroke-miterlimit="10"/>
<path d="M1248.93 579.23L1254.67 560.259" stroke="#111111" stroke-width="3.22269" stroke-miterlimit="10"/>
<path d="M1305.65 626.782L1296.34 614.693" stroke="#111111" stroke-width="3.22269" stroke-miterlimit="10"/>
<path d="M1291.68 618.236L1301.21 632.123L1311.01 645.847" fill="white"/>
<path d="M1291.68 618.236L1301.21 632.123L1311.01 645.847" stroke="#111111" stroke-width="3.22269" stroke-miterlimit="10"/>
<path d="M1280.94 626.076L1284.35 636.669L1287.74 647.269" fill="white"/>
<path d="M1280.94 626.076L1284.35 636.669L1287.74 647.269" stroke="#111111" stroke-width="3.22269" stroke-miterlimit="10"/>
<path d="M1281.17 606.443L1284.82 611.827" stroke="#111111" stroke-width="3.22269" stroke-miterlimit="10"/>
<path d="M1243.88 579.948L1233.5 571.611L1232.57 570.364" fill="white"/>
<path d="M1243.88 579.948L1233.5 571.611L1232.57 570.364" stroke="#111111" stroke-width="3.22269" stroke-miterlimit="10"/>
<path d="M1236.24 585.885L1219.86 578.495L1219.24 576.748" fill="white"/>
<path d="M1236.24 585.885L1219.86 578.495L1219.24 576.748" stroke="#111111" stroke-width="3.22269" stroke-miterlimit="10"/>
<path d="M1235.3 590.274L1215.52 595.216L1203.23 587.83" fill="white"/>
<path d="M1235.3 590.274L1215.52 595.216L1203.23 587.83" stroke="#111111" stroke-width="3.22269" stroke-miterlimit="10"/>
<path d="M1236.24 598.476L1222.24 607.409L1205.81 611.217L1189.35 605.983" fill="white"/>
<path d="M1236.24 598.476L1222.24 607.409L1205.81 611.217L1189.35 605.983" stroke="#111111" stroke-width="3.22269" stroke-miterlimit="10"/>
<defs>
<clipPath id="clip0_1966_31414">
<rect width="1369.46" height="622.74" fill="white" transform="translate(34)"/>
</clipPath>
</defs>
</svg>
