<svg width="1416" height="950" viewBox="0 0 1416 950" fill="none" xmlns="http://www.w3.org/2000/svg">
<path d="M532.429 397.281C532.429 407.685 511.216 416.775 510.001 426.858C508.762 437.163 513.434 447.655 511.017 457.538C508.552 467.596 498.441 474.293 494.822 483.842C491.204 493.391 488.813 502.357 484.055 511.41C479.259 520.537 493.583 541.545 487.76 549.965C481.911 558.435 473.225 566.645 466.423 574.321C459.608 582.01 444.924 583.064 437.242 589.885C429.572 596.693 417.454 597.698 409.003 603.551C400.577 609.38 393.329 616.473 384.209 621.273C375.164 626.035 364.074 624.981 354.421 628.652C344.88 632.273 336.194 635.981 326.158 638.449C316.121 640.916 306.518 638.771 296.221 640.011C286.147 641.226 277.152 651.408 266.756 651.408C256.36 651.408 247.686 638.548 237.612 637.332C227.315 636.092 218.357 636.303 208.481 633.872C198.606 631.442 187.987 633.947 178.458 630.326C168.806 626.667 157.505 627.647 148.46 622.885C139.34 618.086 128.387 615.965 119.961 610.136C111.535 604.308 110.804 588.955 103.122 582.147C95.4393 575.338 94.0267 564.152 87.2117 556.464C80.3967 548.775 57.9197 554.058 52.0712 545.588C46.2227 537.118 41.7372 527.11 36.9419 517.995C32.1838 508.942 36.3967 495.759 32.729 486.099C29.0613 476.438 8.23221 471.701 5.75403 461.643C3.32541 451.759 28.9869 436.642 27.7479 426.337C26.5335 416.254 21.7631 407.685 21.7631 397.268C21.7631 386.851 23.5845 377.934 24.7988 367.852C26.0379 357.547 18.2688 346.46 20.6974 336.576C23.1632 326.519 26.2857 316.92 29.9039 307.383C33.522 297.847 47.66 293.767 52.4181 284.714C57.2134 275.587 57.5727 265.244 63.3964 256.811C69.2449 248.341 62.2193 229.64 69.0219 221.951C75.8369 214.262 92.292 215.676 99.9743 208.868C107.657 202.059 121.435 204.664 129.898 198.823C138.324 192.994 140.939 179.526 150.046 174.727C159.091 169.965 165.497 159.2 175.137 155.542C184.778 151.884 197.342 158.791 207.391 156.323C217.266 153.893 225.197 140.896 235.493 139.656C245.79 138.416 256.347 153.198 266.743 153.198C277.139 153.198 286.036 154.165 296.11 155.368C306.407 156.608 319.442 140.735 329.317 143.153C339.193 145.571 342.464 168.638 351.993 172.259C361.521 175.88 369.166 179.898 378.212 184.66C387.257 189.422 400.701 184.97 409.127 190.799C417.553 196.627 422.757 205.544 430.427 212.352C438.097 219.161 441.133 228.933 447.948 236.622C454.763 244.31 461.144 250.499 466.992 258.956C472.841 267.414 475.852 275.81 480.647 284.937C485.405 293.99 498.218 298.38 501.873 308.028C505.528 317.677 512.541 325.973 515.007 336.03C517.436 345.914 510.485 357.187 511.724 367.493C512.963 377.798 532.441 386.863 532.441 397.281H532.429Z" fill="#C0C0C0"/>
<path d="M532.424 397.28C532.424 407.684 511.211 416.774 509.996 426.857C508.757 437.162 513.429 447.654 511.012 457.537C508.547 467.595 498.436 474.292 494.818 483.841C491.199 493.39 488.808 502.356 484.05 511.409C479.255 520.536 493.578 541.544 487.755 549.964C481.906 558.434 473.22 566.644 466.418 574.32C459.603 582.009 444.919 583.063 437.237 589.884C429.567 596.692 417.449 597.697 408.998 603.55C400.572 609.379 393.324 616.473 384.204 621.272C375.159 626.034 364.069 624.98 354.416 628.651C344.875 632.272 336.189 635.98 326.153 638.448C316.116 640.915 306.513 638.77 296.216 640.01C286.143 641.225 277.147 651.407 266.751 651.407C256.355 651.407 247.681 638.547 237.607 637.331C227.311 636.091 218.352 636.302 208.476 633.872C198.601 631.441 187.982 633.946 178.453 630.325C168.801 626.666 157.5 627.646 148.455 622.884C139.335 618.085 128.382 615.964 119.956 610.135C111.53 604.307 110.799 588.954 103.117 582.146C95.4344 575.337 94.0218 564.151 87.2068 556.463C80.3919 548.774 57.9148 554.057 52.0663 545.587C46.2178 537.117 41.7323 527.109 36.937 517.994C32.1789 508.941 36.3918 495.758 32.7241 486.098C29.0564 476.437 8.22732 471.7 5.74914 461.642C3.32053 451.758 28.9821 436.641 27.743 426.336C26.5287 416.254 21.7582 407.684 21.7582 397.267C21.7582 386.85 23.5796 377.934 24.7939 367.851C26.033 357.546 18.2639 346.459 20.6926 336.575C23.1583 326.518 26.2808 316.919 29.899 307.383C33.5171 297.846 47.6551 293.766 52.4132 284.713C57.2085 275.586 57.5678 265.243 63.3916 256.81C69.2401 248.34 62.2144 229.639 69.017 221.95C75.832 214.261 92.2871 215.675 99.9695 208.867C107.652 202.058 121.43 204.663 129.893 198.822C138.319 192.993 140.934 179.525 150.041 174.726C159.086 169.964 165.492 159.199 175.133 155.541C184.773 151.883 197.337 158.79 207.386 156.322C217.262 153.892 225.192 140.895 235.489 139.655C245.785 138.415 256.342 153.197 266.738 153.197C277.134 153.197 286.031 154.164 296.105 155.367C306.402 156.608 319.437 140.734 329.312 143.152C339.188 145.57 342.459 168.637 351.988 172.258C361.516 175.879 369.162 179.897 378.207 184.659C387.252 189.421 400.696 184.969 409.122 190.798C417.548 196.627 422.752 205.543 430.422 212.351C438.092 219.16 441.128 228.932 447.943 236.621C454.758 244.309 461.139 250.498 466.988 258.955C472.836 267.413 475.847 275.809 480.642 284.936C485.4 293.989 498.213 298.379 501.868 308.027C505.523 317.676 512.537 325.972 515.002 336.03C517.431 345.913 510.48 357.186 511.719 367.492C512.958 377.797 532.436 386.862 532.436 397.28H532.424Z" stroke="#111111" stroke-width="9" stroke-miterlimit="10"/>
<rect x="200.285" y="336.238" width="51.5812" height="35" transform="rotate(-25.406 200.285 336.238)" fill="white"/>
<path d="M255.673 510.718L274.001 527L263.584 556.253L238 536L255.673 510.718Z" fill="white"/>
<g clip-path="url(#clip0_1981_35855)">
<path d="M1063.31 581.507C1053.26 578.815 1049.97 555.971 1040.55 552.189C1030.91 548.325 1019.57 550.122 1010.65 545.23C1001.57 540.245 997.719 528.745 989.432 522.779C981.144 516.813 973.103 512.182 965.59 505.243C958.015 498.249 934.015 506.647 927.389 498.843C920.721 491.001 915.039 480.486 909.385 471.929C903.722 463.356 906.504 448.9 901.904 439.714C897.313 430.544 899.479 418.578 896.013 408.901C892.563 399.253 887.588 390.416 885.312 380.365C883.053 370.395 886.942 359.956 885.894 349.682C884.866 339.529 883.533 330.179 883.746 319.846C883.96 309.513 888.518 300.792 889.985 290.525C891.419 280.48 883.912 269.156 886.603 259.114C889.294 249.072 903.96 244.023 907.742 234.607C911.605 224.982 913.72 216.274 918.623 207.364C923.527 198.454 923.856 187.548 929.82 179.282C935.852 170.905 937.83 159.736 944.771 152.231C951.767 144.665 956.651 134.633 964.461 128.003C972.272 121.373 987.291 124.64 995.856 118.982C1004.42 113.323 1015.59 114.854 1024.78 110.261C1033.97 105.668 1034.69 82.59 1044.38 79.133C1054.08 75.676 1064.9 73.9335 1074.95 71.6608C1084.93 69.4079 1096.57 76.8891 1106.85 75.8468C1117.13 74.8044 1127.1 55.9111 1137.45 56.1205C1147.63 56.3327 1155.59 85.0325 1165.86 86.5029C1175.92 87.9394 1185.43 85.5494 1195.49 88.2455C1205.55 90.9417 1213.7 95.0088 1223.12 98.7912C1232.75 102.655 1245.47 98.0205 1254.39 102.924C1263.47 107.909 1271.93 113.41 1280.21 119.373C1288.48 125.336 1288.76 140.048 1296.28 146.987C1303.85 153.981 1313.75 157.005 1320.39 164.813C1327.06 172.655 1346.94 170.709 1352.6 179.269C1358.27 187.842 1352.64 203.371 1357.23 212.553C1361.82 221.736 1355.74 234.371 1359.19 244.058C1362.64 253.705 1374.97 259.716 1377.25 269.755C1379.51 279.725 1388.25 288.699 1389.29 298.957C1390.32 309.216 1380.4 319.564 1380.18 329.909C1379.97 340.078 1390.48 351.101 1389.01 361.368C1387.54 371.635 1370.53 378.007 1367.84 388.048C1365.15 398.09 1361.91 406.433 1358.14 415.852C1354.28 425.477 1366.24 442.177 1361.35 451.09C1356.46 460.003 1333.33 457.193 1327.36 465.459C1321.4 473.726 1315.54 480.071 1308.6 487.576C1301.66 495.08 1302.48 509.218 1294.67 515.849C1286.86 522.479 1276.9 525.198 1268.34 530.844C1259.78 536.491 1249.55 536.894 1240.36 541.487C1231.17 546.079 1223.54 550.642 1213.86 554.102C1204.17 557.562 1195.28 558.297 1185.23 560.567C1175.25 562.82 1167.69 574.059 1157.43 575.093C1147.16 576.127 1137.33 580.754 1126.98 580.532C1116.81 580.32 1107.72 570.688 1097.44 569.218C1087.17 567.747 1073.37 584.216 1063.31 581.519L1063.31 581.507Z" fill="#111111"/>
<path d="M1063.31 581.503C1053.26 578.81 1049.97 555.967 1040.55 552.184C1030.91 548.32 1019.57 550.117 1010.65 545.225C1001.57 540.24 997.721 528.74 989.434 522.774C981.146 516.808 973.105 512.177 965.592 505.238C958.017 498.244 934.017 506.642 927.391 498.838C920.723 490.996 915.041 480.482 909.387 471.924C903.724 463.351 906.506 448.895 901.906 439.709C897.315 430.539 899.481 418.573 896.015 408.896C892.565 399.249 887.59 390.411 885.314 380.36C883.055 370.39 886.944 359.951 885.896 349.677C884.868 339.524 883.534 330.174 883.748 319.841C883.962 309.508 888.52 300.787 889.987 290.52C891.421 280.475 883.914 269.151 886.605 259.109C889.296 249.067 903.962 244.018 907.744 234.602C911.607 224.977 913.722 216.269 918.625 207.359C923.529 198.449 923.858 187.543 929.822 179.277C935.854 170.9 937.832 159.731 944.773 152.226C951.769 144.66 956.653 134.628 964.463 127.998C972.274 121.368 987.293 124.635 995.858 118.977C1004.42 113.318 1015.59 114.849 1024.78 110.256C1033.97 105.664 1034.69 82.5851 1044.38 79.1281C1054.08 75.6711 1064.91 73.9287 1074.95 71.6559C1084.93 69.403 1096.57 76.8843 1106.85 75.8419C1117.13 74.7995 1127.1 55.9063 1137.46 56.1156C1147.63 56.3278 1155.59 85.0276 1165.87 86.498C1175.92 87.9345 1185.43 85.5445 1195.49 88.2406C1205.56 90.9368 1213.7 95.0039 1223.12 98.7863C1232.76 102.65 1245.48 98.0156 1254.39 102.92C1263.47 107.904 1271.93 113.405 1280.21 119.368C1288.48 125.331 1288.77 140.043 1296.28 146.982C1303.85 153.977 1313.75 157 1320.39 164.808C1327.06 172.65 1346.94 170.704 1352.61 179.265C1358.27 187.837 1352.64 203.366 1357.23 212.549C1361.82 221.731 1355.74 234.366 1359.19 244.053C1362.64 253.7 1374.97 259.711 1377.25 269.75C1379.51 279.72 1388.25 288.694 1389.29 298.952C1390.33 309.211 1380.4 319.559 1380.18 329.905C1379.98 340.073 1390.48 351.096 1389.01 361.363C1387.54 371.63 1370.53 378.002 1367.84 388.043C1365.15 398.085 1361.91 406.428 1358.14 415.847C1354.28 425.472 1366.24 442.172 1361.35 451.085C1356.46 459.998 1333.33 457.188 1327.37 465.455C1321.4 473.721 1315.54 480.066 1308.6 487.571C1301.66 495.075 1302.48 509.214 1294.67 515.844C1286.86 522.474 1276.9 525.193 1268.34 530.839C1259.78 536.486 1249.55 536.889 1240.36 541.482C1231.17 546.075 1223.54 550.637 1213.86 554.097C1204.18 557.557 1195.29 558.293 1185.23 560.562C1175.25 562.815 1167.7 574.054 1157.43 575.088C1147.17 576.122 1137.34 580.749 1126.98 580.527C1116.81 580.315 1107.72 570.683 1097.44 569.213C1087.17 567.742 1073.37 584.211 1063.31 581.515L1063.31 581.503Z" stroke="white" stroke-width="9" stroke-miterlimit="10"/>
<rect x="1162" y="314" width="42" height="27" fill="#C0C0C0"/>
<rect x="1057.16" y="372" width="27.1786" height="15.1124" transform="rotate(24.0689 1057.16 372)" fill="#C0C0C0"/>
</g>
<path d="M438.161 264.042C447.252 254.952 473.728 265.544 483.598 257.796C493.684 249.874 498.769 236.627 509.516 230.102C520.458 223.469 535.143 226.452 546.647 221.27C558.151 216.089 568.074 210.344 580.141 206.592C592.305 202.807 598.145 171.937 610.59 169.669C623.1 167.378 637.862 167.794 650.513 167.031C663.185 166.267 676.934 178.175 689.606 178.928C702.255 179.681 713.721 189.391 726.218 191.66C738.673 193.929 751.203 194.065 763.364 197.84C775.428 201.582 784.196 212.192 795.837 217.418C807.337 222.591 818.165 226.94 829.091 233.553C840.016 240.166 846.532 250.43 856.611 258.343C866.475 266.083 883.23 265.047 892.313 274.13C901.396 283.213 897.738 302.027 905.478 311.89C913.391 321.97 921.402 329.613 927.907 340.365C934.411 351.117 945.878 358.206 951.039 369.695C956.276 381.325 967.006 390.342 970.748 402.406C974.523 414.567 982.24 425.99 984.509 438.444C986.778 450.898 974.003 464.951 974.767 477.611C975.531 490.272 966.991 501.279 966.228 513.951C965.465 526.623 989.719 541.646 987.428 554.156C985.138 566.666 980.313 579.329 976.539 591.483C972.786 603.549 957.588 611.386 952.352 623.031C947.116 634.676 961.175 657.014 954.553 667.966C948.039 678.724 912.411 669.511 904.49 679.598C896.742 689.467 893.423 701.122 884.321 710.224C875.22 719.325 865.838 725.524 855.968 733.272C845.881 741.194 842.983 757.668 832.225 764.182C821.284 770.815 810.169 776.473 798.676 781.644C787.183 786.815 771.265 778.027 759.199 781.779C747.034 785.564 737.684 794.287 725.228 796.567C712.718 798.857 702.517 821.335 689.855 822.109C677.183 822.872 664.042 807.26 651.381 806.497C638.721 805.733 628.958 791.419 616.46 789.128C604.006 786.859 589.955 796.342 577.805 792.578C565.741 788.836 550.739 792.643 539.12 787.417C527.501 782.191 522.559 765.178 511.623 758.555C500.871 752.05 482.587 756.476 472.507 748.564C462.427 740.651 466.119 718.512 457.036 709.429C447.953 700.346 441.025 691.727 433.274 681.875C425.362 671.795 400.104 674.275 393.588 663.534C387.073 652.793 404.368 629.781 399.207 618.292C394.045 606.803 390.876 596.613 387.134 584.55C383.392 572.486 367.756 564.63 365.487 552.175C363.217 539.721 366.461 527.384 365.708 514.734C364.955 502.084 370.841 490.894 371.604 478.222C372.368 465.55 372.199 454.568 374.479 442.069C376.758 429.569 381.463 419.603 385.248 407.439C389.001 395.372 381.642 380.342 386.878 368.719C392.114 357.096 393.235 343.72 399.868 332.778C406.382 322.021 422.304 318.245 430.226 308.158C438.147 298.072 429.049 273.133 438.15 264.031L438.161 264.042Z" fill="white"/>
<path d="M438.165 264.048C447.256 254.958 473.732 265.55 483.602 257.802C493.688 249.88 498.773 236.632 509.52 230.108C520.462 223.475 535.147 226.458 546.651 221.276C558.155 216.094 568.078 210.35 580.145 206.598C592.309 202.813 598.149 171.943 610.594 169.674C623.104 167.384 637.866 167.8 650.516 167.037C663.188 166.273 676.938 178.181 689.61 178.934C702.259 179.687 713.725 189.397 726.222 191.666C738.676 193.935 751.207 194.071 763.368 197.845C775.432 201.588 784.2 212.198 795.841 217.424C807.341 222.596 818.169 226.946 829.095 233.559C840.02 240.171 846.535 250.436 856.615 258.349C866.479 266.089 883.234 265.053 892.317 274.136C901.4 283.219 897.742 302.033 905.482 311.896C913.395 321.976 921.406 329.619 927.911 340.371C934.415 351.123 945.882 358.212 951.043 369.701C956.28 381.331 967.01 390.348 970.752 402.412C974.527 414.573 982.244 425.996 984.513 438.45C986.782 450.904 974.007 464.957 974.771 477.617C975.534 490.278 966.995 501.285 966.232 513.957C965.468 526.629 989.723 541.652 987.432 554.162C985.142 566.672 980.317 579.335 976.543 591.489C972.79 603.555 957.592 611.392 952.356 623.037C947.12 634.682 961.179 657.02 954.557 667.972C948.043 678.729 912.415 669.517 904.493 679.603C896.745 689.473 893.426 701.128 884.325 710.23C875.224 719.331 865.842 725.53 855.972 733.278C845.885 741.199 842.987 757.674 832.229 764.188C821.288 770.82 810.173 776.479 798.68 781.65C787.186 786.821 771.269 778.033 759.202 781.785C747.038 785.57 737.688 794.293 725.232 796.572C712.722 798.863 702.521 821.341 689.859 822.115C677.187 822.878 664.046 807.266 651.385 806.503C638.725 805.739 628.961 791.425 616.464 789.134C604.01 786.865 589.959 796.348 577.808 792.584C565.745 788.841 550.743 792.649 539.124 787.423C527.505 782.197 522.563 765.184 511.627 758.56C500.875 752.056 482.591 756.482 472.511 748.569C462.431 740.657 466.123 718.517 457.04 709.434C447.957 700.351 441.029 691.733 433.278 681.881C425.366 671.801 400.108 674.281 393.592 663.54C387.077 652.799 404.372 629.787 399.211 618.298C394.049 606.809 390.88 596.619 387.138 584.555C383.396 572.492 367.76 564.635 365.49 552.181C363.221 539.727 366.465 527.39 365.712 514.74C364.959 502.09 370.845 490.9 371.608 478.228C372.372 465.556 372.203 454.574 374.483 442.074C376.762 429.575 381.467 419.609 385.252 407.445C389.004 395.378 381.646 380.348 386.882 368.725C392.118 357.102 393.239 343.725 399.872 332.784C406.386 322.026 422.308 318.251 430.229 308.164C438.151 298.078 429.053 273.139 438.154 264.037L438.165 264.048Z" stroke="#C0C0C0" stroke-width="11.1204" stroke-miterlimit="10"/>
<path d="M809.224 684.632L807.61 683.898L809.224 684.632ZM811.236 660.996L801.176 678.827L821.648 678.624L811.236 660.996ZM773 699.407L773 701.18C778.907 701.179 786.429 701.522 793.335 699.771C800.375 697.985 806.916 693.999 810.838 685.365L809.224 684.632L807.61 683.898C804.223 691.355 798.689 694.755 792.463 696.334C786.103 697.947 779.167 697.633 773 697.634L773 699.407ZM809.224 684.632L810.838 685.365C812.084 682.622 812.783 679.858 813.151 677.195L811.395 676.952L809.638 676.709C809.308 679.099 808.689 681.521 807.61 683.898L809.224 684.632Z" fill="#111111"/>
<path d="M653.536 603.929L653.092 605.645L653.536 603.929ZM691.403 585.993L671.359 590.159L684.989 605.435L691.403 585.993ZM633.921 571.562L632.162 571.786C633.727 584.074 636.551 591.948 640.246 597.068C643.997 602.265 648.532 604.467 653.092 605.645L653.536 603.929L653.979 602.212C649.993 601.182 646.267 599.351 643.121 594.993C639.92 590.556 637.209 583.351 635.679 571.338L633.921 571.562ZM653.536 603.929L653.092 605.645C663.111 608.234 673.209 603.276 680.527 598.06L679.498 596.616L678.469 595.172C671.326 600.263 662.388 604.385 653.979 602.212L653.536 603.929Z" fill="#111111"/>
<path d="M780.019 342.354L781.275 341.103L781.178 341.013L780.019 342.354ZM742.717 317.454L754.226 334.385L763.134 315.952L742.717 317.454ZM811.115 415.467L812.888 415.421C812.537 401.941 812.264 390.904 808.216 379.462C804.157 367.99 796.366 356.258 781.275 341.103L780.019 342.354L778.762 343.605C793.649 358.555 801.055 369.852 804.873 380.645C808.703 391.47 808.99 401.937 809.343 415.513L811.115 415.467ZM780.019 342.354C781.178 341.013 781.178 341.013 781.178 341.012C781.177 341.012 781.177 341.012 781.177 341.012C781.177 341.012 781.176 341.011 781.175 341.01C781.173 341.009 781.171 341.007 781.168 341.004C781.162 340.999 781.153 340.991 781.141 340.98C781.116 340.96 781.081 340.929 781.034 340.889C780.94 340.808 780.802 340.69 780.623 340.537C780.265 340.231 779.742 339.787 779.081 339.23C777.76 338.118 775.888 336.559 773.68 334.767C769.269 331.19 763.495 326.667 758.091 322.937L757.084 324.397L756.076 325.856C761.37 329.509 767.063 333.966 771.446 337.521C773.634 339.296 775.49 340.842 776.797 341.943C777.451 342.493 777.968 342.933 778.321 343.234C778.497 343.384 778.632 343.5 778.723 343.578C778.769 343.618 778.803 343.647 778.826 343.667C778.837 343.677 778.846 343.684 778.851 343.689C778.854 343.691 778.856 343.693 778.858 343.694C778.858 343.695 778.859 343.695 778.859 343.695C778.859 343.696 778.859 343.696 778.859 343.696C778.859 343.696 778.859 343.696 780.019 342.354Z" fill="#111111"/>
<path d="M528.338 444.794L530.102 444.622L530.102 444.622L528.338 444.794ZM538.413 466.269L538.209 445.797L520.582 456.209L538.413 466.269ZM540.627 405L539.74 403.464C533.973 406.795 530.266 412.827 528.212 420.082C526.156 427.348 525.701 436.02 526.573 444.966L528.338 444.794L530.102 444.622C529.259 435.978 529.721 427.772 531.624 421.048C533.53 414.313 536.825 409.243 541.514 406.535L540.627 405ZM528.338 444.794L526.573 444.966C526.866 447.964 527.642 450.707 528.655 453.198L530.298 452.53L531.94 451.862C531.031 449.628 530.356 447.22 530.102 444.622L528.338 444.794Z" fill="#111111"/>
<defs>
<clipPath id="clip0_1981_35855">
<rect width="538" height="523" fill="white" transform="translate(1455.42 135.362) rotate(105)"/>
</clipPath>
</defs>
</svg>
