<svg width="645" height="493" viewBox="0 0 645 493" fill="none" xmlns="http://www.w3.org/2000/svg">
<path d="M505.055 0.000142459H644.793V15.9703C600.876 15.9703 587.567 41.9217 576.92 77.8544L453.152 492.412H427.866L322.729 160.367L225.578 492.412H200.957L63.8805 69.8694C53.2337 36.5983 41.9216 15.9703 0 15.9703V0.000142459H176.337V15.9703C142.4 15.9703 127.096 23.2899 127.096 43.918C127.096 55.2301 130.423 67.8731 134.415 80.5161L232.232 377.294L308.756 114.453L296.113 69.8694C286.797 35.9329 273.488 15.9703 231.567 15.9703V0.000142459H407.238V15.9703C373.301 15.9703 357.997 23.2899 357.997 43.918C357.997 55.2301 361.324 65.2114 365.316 79.1853L458.475 378.625L544.315 93.1591C548.307 79.8507 553.631 62.5498 553.631 46.5796C553.631 25.2862 541.653 15.9703 505.055 15.9703V0.000142459Z" fill="black"/>
</svg>
