<svg width="859" height="279" viewBox="0 0 859 279" fill="none" xmlns="http://www.w3.org/2000/svg">
<path d="M828.702 279C828.639 279 828.576 278.998 828.516 278.993C827.93 278.942 827.399 278.651 827.07 278.2L815.183 261.934L795.543 259.827C795.512 259.825 795.48 259.82 795.449 259.815L775.972 256.835L755.99 262.577C755.801 262.632 755.601 262.659 755.404 262.659C755.241 262.659 755.075 262.64 754.915 262.603L735.382 257.999L715.703 259.156L697.175 260.443C697.125 260.445 697.075 260.448 697.025 260.448C696.886 260.448 696.746 260.433 696.612 260.407L678.449 256.806L661.282 266.977C660.961 267.169 660.591 267.265 660.218 267.265C660.01 267.265 659.8 267.234 659.597 267.173L641.222 261.546L621.426 268.187C621.208 268.26 620.98 268.296 620.754 268.296C620.417 268.296 620.081 268.216 619.781 268.058L600.351 257.88C600.025 257.711 599.76 257.456 599.584 257.153L589.697 239.971C589.615 239.83 589.555 239.682 589.518 239.527L585.008 221.535C584.969 221.38 584.953 221.222 584.958 221.062L585.618 203.446L579.079 189.166L559.381 194.805C559.192 194.858 558.995 194.887 558.798 194.887C558.64 194.887 558.48 194.87 558.325 194.834L538.698 190.366L520.703 194.039C520.658 194.048 520.616 194.056 520.572 194.061L501.93 196.655C501.833 196.669 501.733 196.674 501.636 196.674C501.589 196.674 501.539 196.674 501.491 196.669L483.084 195.426L466.269 207.572C465.919 207.824 465.491 207.958 465.055 207.958C464.929 207.958 464.8 207.946 464.674 207.924L445.893 204.503L427.872 209.834C427.509 210.169 427.01 210.37 426.476 210.37C426.419 210.37 426.361 210.37 426.303 210.363C425.614 210.307 425.026 209.926 424.723 209.386L407.241 212.715C407.11 212.739 406.976 212.753 406.842 212.753C406.358 212.753 405.888 212.589 405.52 212.285L388.45 198.071L369.898 203.516C369.732 203.565 369.561 203.594 369.388 203.599L350.082 204.391C350.053 204.391 350.024 204.391 349.995 204.391C349.666 204.391 349.343 204.316 349.054 204.171L332.037 195.637L312.933 198.381C312.833 198.396 312.73 198.403 312.631 198.403C312.412 198.403 312.197 198.369 311.989 198.303L294.068 192.62L271.858 188.836L270.013 203.523L276.189 223.712C276.331 224.175 276.268 224.672 276.013 225.092L265.984 241.682C265.776 242.027 265.45 242.301 265.059 242.461L245.668 250.369L233.581 266.756C233.2 267.273 232.583 267.552 231.949 267.552C231.595 267.552 231.237 267.464 230.914 267.28L211.334 256.096L194.094 253.882L175.25 264.373C174.94 264.545 174.588 264.635 174.23 264.635C174.08 264.635 173.928 264.618 173.781 264.586L155.447 260.615L137.244 256.782L117.47 254.518L97.5096 256.447C97.4412 256.455 97.3729 256.457 97.3046 256.457C97.1705 256.457 97.0339 256.445 96.9025 256.418L77.173 252.626L60.2583 266.958C59.9377 267.229 59.5277 267.396 59.0914 267.43L39.4408 268.977L17.9558 270.793C17.8953 270.798 17.8349 270.8 17.7744 270.8C16.8257 270.8 15.9978 270.17 15.8349 269.292C15.6588 268.359 16.2922 267.457 17.2882 267.222L17.5195 267.166L18.2291 251.87C18.2396 251.647 18.2948 251.429 18.3894 251.225L25.5958 235.893C25.6089 235.866 25.6221 235.842 25.6352 235.815L33.3462 221.3L38.6892 205.473C38.7444 205.308 38.8258 205.15 38.931 205.005L48.818 191.299L56.7208 176.704L54.6919 164.424L52.4396 156.338L38.676 141.495L20.555 129.703C20.4473 129.632 20.3474 129.552 20.258 129.465L4.05818 113.65C3.7796 113.379 3.60089 113.037 3.54044 112.666L0.0213611 90.6539C-0.102161 89.8853 0.318341 89.1289 1.06736 88.7725C1.35383 88.6367 1.66395 88.5713 1.97144 88.5713C2.46816 88.5713 2.96225 88.7458 3.33807 89.078L6.81247 92.1547L16.6259 82.561C16.8099 82.3816 17.0333 82.2361 17.2803 82.1391L34.3869 75.3409C34.634 75.2439 34.8994 75.193 35.1675 75.193C35.2043 75.193 35.2384 75.193 35.2752 75.1954L53.1965 76.0973L70.9286 73.4861C71.0232 73.4716 71.1204 73.4643 71.2176 73.4643L89.1705 73.2776L106.855 72.7103L122.805 70.344L121.862 53.4647C121.843 53.152 121.914 52.8368 122.067 52.5556L130.093 37.771C130.251 37.4825 130.487 37.2377 130.779 37.0607L144.078 29.0696C144.327 28.9193 144.608 28.8247 144.903 28.7883L162.969 26.6596L178.38 15.524C178.461 15.4658 178.546 15.4124 178.635 15.3664L196.015 6.42973C196.309 6.27942 196.64 6.19941 196.974 6.19941C197.09 6.19941 197.205 6.20911 197.321 6.2285L216.585 9.40943L234.614 4.2477C234.662 4.23557 234.709 4.22345 234.756 4.21133L254.317 0.0460652C254.462 0.0145469 254.612 0 254.762 0C254.89 0 255.022 0.0121224 255.148 0.0363673L274.491 3.60763L293.511 6.52186L312.704 7.27345C312.817 7.2783 312.928 7.29043 313.035 7.31225L331.884 11.0653L350.933 12.9928C351.138 13.0146 351.34 13.0631 351.527 13.1431L369.107 20.453L388.836 14.4233C389.039 14.3626 389.249 14.3311 389.456 14.3311C389.835 14.3311 390.211 14.433 390.534 14.6269L407.478 24.8388L425.993 20.4723C426.153 20.4336 426.319 20.4166 426.482 20.4166C426.765 20.4166 427.049 20.4723 427.309 20.5863L446.219 28.6695L462.395 15.8416C462.663 15.6307 462.986 15.4876 463.333 15.4294L482.332 12.2897C482.448 12.2703 482.563 12.2606 482.679 12.2606C482.703 12.2606 482.726 12.2606 482.75 12.2606L502.293 12.9128L521.591 13.2692L540.459 11.3199L559.281 7.31467C559.426 7.28315 559.576 7.2686 559.726 7.2686C559.841 7.2686 559.954 7.2783 560.067 7.29527L579.508 10.4617L598.593 12.3576L617.348 14.353L635.261 16.1665L654.328 12.8255C654.449 12.8037 654.573 12.794 654.696 12.794C654.988 12.794 655.279 12.8546 655.548 12.971L672.202 20.3172L692.494 15.5361C692.654 15.4973 692.817 15.4803 692.983 15.4803C693.161 15.4803 693.34 15.5022 693.516 15.5482L712.268 20.3996C712.678 20.5063 713.038 20.7318 713.298 21.0421L725.608 35.8169C725.732 35.9648 725.832 36.1321 725.9 36.3091L732.239 52.541C732.329 52.7689 732.368 53.0114 732.352 53.2538L731.377 70.0603L746.208 72.5018L764.053 74.6087C764.129 74.6184 764.205 74.6305 764.282 74.6475L781.78 78.6818L799.231 74.5384C799.391 74.4996 799.556 74.4802 799.722 74.4802C799.751 74.4802 799.78 74.4802 799.809 74.4802L817.885 75.2075C818.003 75.2124 818.119 75.2269 818.235 75.2512C818.235 75.2512 836.13 78.9849 836.137 78.9873L856.524 83.5453C857.397 83.7417 858.017 84.4545 858.03 85.2837C858.043 86.1128 857.449 86.845 856.584 87.0657L846.584 89.609L847.964 111.456C848.006 112.12 847.651 112.751 847.042 113.102L826.873 124.747L814.321 140.833L803.761 159.063C803.704 159.163 803.635 159.257 803.559 159.347L798.602 165.03L798.053 175.225L805.483 190.545L813.995 205.218C814.082 205.368 814.145 205.528 814.185 205.693L817.959 221.894L828.968 234.92C829.17 235.16 829.304 235.444 829.359 235.742L832.227 251.8L839.785 267.886C840.106 268.57 839.943 269.365 839.373 269.894L830.119 278.452C829.748 278.796 829.244 278.985 828.723 278.985L828.702 279Z" fill="white"/>
</svg>
