<svg width="870" height="291" viewBox="0 0 870 291" fill="none" xmlns="http://www.w3.org/2000/svg">
<mask id="path-1-outside-1_1769_5567" maskUnits="userSpaceOnUse" x="-0.389648" y="-0.39209" width="870" height="291" fill="black">
<rect fill="white" x="-0.389648" y="-0.39209" width="870" height="291"/>
<path d="M834.313 284.608C834.25 284.608 834.187 284.605 834.126 284.601C833.54 284.55 833.009 284.259 832.681 283.808L820.794 267.542L801.154 265.435C801.122 265.433 801.09 265.428 801.059 265.423L781.582 262.443L761.6 268.184C761.411 268.24 761.211 268.267 761.014 268.267C760.851 268.267 760.685 268.247 760.525 268.211L740.993 263.607L721.313 264.764L702.785 266.051C702.735 266.053 702.685 266.056 702.635 266.056C702.496 266.056 702.357 266.041 702.223 266.015L684.059 262.414L666.892 272.585C666.572 272.776 666.201 272.873 665.828 272.873C665.62 272.873 665.41 272.842 665.208 272.781L646.832 267.154L627.037 273.795C626.819 273.867 626.59 273.904 626.364 273.904C626.028 273.904 625.691 273.824 625.392 273.666L605.962 263.488C605.636 263.319 605.37 263.064 605.194 262.761L595.307 245.579C595.226 245.438 595.165 245.29 595.129 245.135L590.619 227.143C590.579 226.988 590.563 226.83 590.569 226.67L591.228 209.054L584.69 194.773L564.992 200.413C564.802 200.466 564.605 200.495 564.408 200.495C564.251 200.495 564.09 200.478 563.935 200.442L544.308 195.974L526.313 199.647C526.269 199.656 526.227 199.664 526.182 199.669L507.541 202.263C507.443 202.277 507.343 202.282 507.246 202.282C507.199 202.282 507.149 202.282 507.102 202.277L488.694 201.033L471.879 213.18C471.53 213.432 471.101 213.566 470.665 213.566C470.539 213.566 470.41 213.554 470.284 213.532L451.503 210.111L433.482 215.442C433.12 215.777 432.62 215.978 432.087 215.978C432.029 215.978 431.971 215.978 431.913 215.971C431.225 215.915 430.636 215.534 430.334 214.994L412.851 218.322C412.72 218.347 412.586 218.361 412.452 218.361C411.968 218.361 411.498 218.196 411.13 217.893L394.06 203.679L375.508 209.124C375.343 209.172 375.172 209.202 374.998 209.206L355.692 209.999C355.663 209.999 355.634 209.999 355.605 209.999C355.277 209.999 354.953 209.924 354.664 209.779L337.647 201.244L318.543 203.989C318.443 204.003 318.341 204.011 318.241 204.011C318.023 204.011 317.807 203.977 317.6 203.911L299.678 198.228L277.468 194.444L275.623 209.131L281.799 229.32C281.941 229.783 281.878 230.28 281.623 230.699L271.594 247.29C271.386 247.635 271.061 247.908 270.669 248.068L251.279 255.977L239.192 272.364C238.811 272.881 238.193 273.159 237.56 273.159C237.205 273.159 236.847 273.072 236.524 272.888L216.945 261.704L199.704 259.49L180.86 269.981C180.55 270.153 180.198 270.243 179.841 270.243C179.691 270.243 179.538 270.226 179.391 270.194L161.057 266.223L142.855 262.39L123.081 260.125L103.12 262.055C103.052 262.063 102.983 262.065 102.915 262.065C102.781 262.065 102.644 262.053 102.513 262.026L82.7834 258.234L65.8687 272.566C65.548 272.837 65.138 273.004 64.7018 273.038L45.0512 274.585L23.5661 276.401C23.5057 276.406 23.4452 276.408 23.3848 276.408C22.436 276.408 21.6082 275.778 21.4452 274.9C21.2691 273.967 21.9025 273.065 22.8986 272.83L23.1299 272.774L23.8395 257.478C23.85 257.255 23.9052 257.037 23.9998 256.833L31.2061 241.501C31.2193 241.474 31.2324 241.45 31.2456 241.423L38.9565 226.908L44.2995 211.081C44.3547 210.916 44.4362 210.758 44.5413 210.613L54.4284 196.907L62.3312 182.312L60.3023 170.032L58.0499 161.946L44.2864 147.103L26.1654 135.311C26.0576 135.24 25.9577 135.16 25.8684 135.073L9.66853 119.258C9.38995 118.987 9.21124 118.645 9.15079 118.274L5.63171 96.2618C5.50819 95.4933 5.92869 94.7368 6.67771 94.3804C6.96418 94.2446 7.2743 94.1792 7.58179 94.1792C8.07851 94.1792 8.5726 94.3537 8.94842 94.6859L12.4228 97.7626L22.2363 88.1689C22.4203 87.9895 22.6437 87.844 22.8907 87.747L39.9973 80.9488C40.2443 80.8518 40.5097 80.8009 40.7778 80.8009C40.8146 80.8009 40.8488 80.8009 40.8856 80.8033L58.8068 81.7052L76.5389 79.094C76.6335 79.0795 76.7308 79.0722 76.828 79.0722L94.7808 78.8855L112.466 78.3182L128.416 75.9519L127.472 59.0726C127.454 58.7599 127.525 58.4447 127.677 58.1635L135.704 43.379C135.861 43.0904 136.098 42.8456 136.39 42.6686L149.688 34.6775C149.938 34.5272 150.219 34.4326 150.513 34.3962L168.579 32.2675L183.99 21.1319C184.072 21.0737 184.156 21.0204 184.245 20.9743L201.625 12.0376C201.92 11.8873 202.251 11.8073 202.584 11.8073C202.7 11.8073 202.816 11.817 202.931 11.8364L222.196 15.0173L240.225 9.85561C240.272 9.84348 240.319 9.83136 240.367 9.81924L259.928 5.65398C260.072 5.62246 260.222 5.60791 260.372 5.60791C260.501 5.60791 260.632 5.62003 260.758 5.64428L280.101 9.21554L299.121 12.1298L318.315 12.8814C318.428 12.8862 318.538 12.8983 318.646 12.9202L337.495 16.6733L356.543 18.6007C356.748 18.6225 356.951 18.671 357.137 18.751L374.717 26.0609L394.446 20.0312C394.649 19.9706 394.859 19.939 395.067 19.939C395.445 19.939 395.821 20.0409 396.144 20.2348L413.088 30.4468L431.603 26.0803C431.763 26.0415 431.929 26.0245 432.092 26.0245C432.376 26.0245 432.66 26.0803 432.92 26.1942L451.829 34.2774L468.005 21.4495C468.274 21.2386 468.597 21.0955 468.944 21.0373L487.943 17.8976C488.058 17.8782 488.174 17.8685 488.289 17.8685C488.313 17.8685 488.337 17.8685 488.36 17.8685L507.903 18.5207L527.202 18.8771L546.069 16.9278L564.892 12.9226C565.036 12.8911 565.186 12.8765 565.336 12.8765C565.452 12.8765 565.565 12.8862 565.678 12.9032L585.118 16.0696L604.203 17.9655L622.958 19.9609L640.871 21.7744L659.938 18.4334C660.059 18.4116 660.183 18.4019 660.306 18.4019C660.598 18.4019 660.89 18.4625 661.158 18.5789L677.812 25.9251L698.104 21.144C698.265 21.1052 698.428 21.0882 698.593 21.0882C698.772 21.0882 698.951 21.1101 699.127 21.1561L717.878 26.0075C718.288 26.1142 718.648 26.3397 718.909 26.65L731.219 41.4248C731.342 41.5727 731.442 41.74 731.511 41.917L737.85 58.1489C737.939 58.3768 737.978 58.6193 737.963 58.8617L736.988 75.6682L751.818 78.1097L769.663 80.2166C769.739 80.2263 769.816 80.2384 769.892 80.2554L787.39 84.2897L804.841 80.1463C805.001 80.1075 805.167 80.0881 805.332 80.0881C805.361 80.0881 805.39 80.0881 805.419 80.0881L823.495 80.8154C823.614 80.8203 823.729 80.8348 823.845 80.8591C823.845 80.8591 841.74 84.5928 841.748 84.5952L862.134 89.1532C863.007 89.3496 863.627 90.0624 863.64 90.8916C863.653 91.7208 863.059 92.453 862.195 92.6736L852.195 95.2169L853.574 117.064C853.616 117.728 853.262 118.359 852.652 118.71L832.484 130.355L819.932 146.441L809.372 164.671C809.314 164.77 809.246 164.865 809.169 164.955L804.213 170.638L803.663 180.833L811.093 196.153L819.606 210.826C819.692 210.976 819.756 211.136 819.795 211.301L823.569 227.502L834.578 240.528C834.781 240.768 834.915 241.052 834.97 241.35L837.837 257.408L845.396 273.494C845.716 274.178 845.553 274.973 844.983 275.502L835.729 284.06C835.359 284.404 834.854 284.593 834.334 284.593L834.313 284.608Z"/>
</mask>
<path d="M834.313 284.608C834.25 284.608 834.187 284.605 834.126 284.601C833.54 284.55 833.009 284.259 832.681 283.808L820.794 267.542L801.154 265.435C801.122 265.433 801.09 265.428 801.059 265.423L781.582 262.443L761.6 268.184C761.411 268.24 761.211 268.267 761.014 268.267C760.851 268.267 760.685 268.247 760.525 268.211L740.993 263.607L721.313 264.764L702.785 266.051C702.735 266.053 702.685 266.056 702.635 266.056C702.496 266.056 702.357 266.041 702.223 266.015L684.059 262.414L666.892 272.585C666.572 272.776 666.201 272.873 665.828 272.873C665.62 272.873 665.41 272.842 665.208 272.781L646.832 267.154L627.037 273.795C626.819 273.867 626.59 273.904 626.364 273.904C626.028 273.904 625.691 273.824 625.392 273.666L605.962 263.488C605.636 263.319 605.37 263.064 605.194 262.761L595.307 245.579C595.226 245.438 595.165 245.29 595.129 245.135L590.619 227.143C590.579 226.988 590.563 226.83 590.569 226.67L591.228 209.054L584.69 194.773L564.992 200.413C564.802 200.466 564.605 200.495 564.408 200.495C564.251 200.495 564.09 200.478 563.935 200.442L544.308 195.974L526.313 199.647C526.269 199.656 526.227 199.664 526.182 199.669L507.541 202.263C507.443 202.277 507.343 202.282 507.246 202.282C507.199 202.282 507.149 202.282 507.102 202.277L488.694 201.033L471.879 213.18C471.53 213.432 471.101 213.566 470.665 213.566C470.539 213.566 470.41 213.554 470.284 213.532L451.503 210.111L433.482 215.442C433.12 215.777 432.62 215.978 432.087 215.978C432.029 215.978 431.971 215.978 431.913 215.971C431.225 215.915 430.636 215.534 430.334 214.994L412.851 218.322C412.72 218.347 412.586 218.361 412.452 218.361C411.968 218.361 411.498 218.196 411.13 217.893L394.06 203.679L375.508 209.124C375.343 209.172 375.172 209.202 374.998 209.206L355.692 209.999C355.663 209.999 355.634 209.999 355.605 209.999C355.277 209.999 354.953 209.924 354.664 209.779L337.647 201.244L318.543 203.989C318.443 204.003 318.341 204.011 318.241 204.011C318.023 204.011 317.807 203.977 317.6 203.911L299.678 198.228L277.468 194.444L275.623 209.131L281.799 229.32C281.941 229.783 281.878 230.28 281.623 230.699L271.594 247.29C271.386 247.635 271.061 247.908 270.669 248.068L251.279 255.977L239.192 272.364C238.811 272.881 238.193 273.159 237.56 273.159C237.205 273.159 236.847 273.072 236.524 272.888L216.945 261.704L199.704 259.49L180.86 269.981C180.55 270.153 180.198 270.243 179.841 270.243C179.691 270.243 179.538 270.226 179.391 270.194L161.057 266.223L142.855 262.39L123.081 260.125L103.12 262.055C103.052 262.063 102.983 262.065 102.915 262.065C102.781 262.065 102.644 262.053 102.513 262.026L82.7834 258.234L65.8687 272.566C65.548 272.837 65.138 273.004 64.7018 273.038L45.0512 274.585L23.5661 276.401C23.5057 276.406 23.4452 276.408 23.3848 276.408C22.436 276.408 21.6082 275.778 21.4452 274.9C21.2691 273.967 21.9025 273.065 22.8986 272.83L23.1299 272.774L23.8395 257.478C23.85 257.255 23.9052 257.037 23.9998 256.833L31.2061 241.501C31.2193 241.474 31.2324 241.45 31.2456 241.423L38.9565 226.908L44.2995 211.081C44.3547 210.916 44.4362 210.758 44.5413 210.613L54.4284 196.907L62.3312 182.312L60.3023 170.032L58.0499 161.946L44.2864 147.103L26.1654 135.311C26.0576 135.24 25.9577 135.16 25.8684 135.073L9.66853 119.258C9.38995 118.987 9.21124 118.645 9.15079 118.274L5.63171 96.2618C5.50819 95.4933 5.92869 94.7368 6.67771 94.3804C6.96418 94.2446 7.2743 94.1792 7.58179 94.1792C8.07851 94.1792 8.5726 94.3537 8.94842 94.6859L12.4228 97.7626L22.2363 88.1689C22.4203 87.9895 22.6437 87.844 22.8907 87.747L39.9973 80.9488C40.2443 80.8518 40.5097 80.8009 40.7778 80.8009C40.8146 80.8009 40.8488 80.8009 40.8856 80.8033L58.8068 81.7052L76.5389 79.094C76.6335 79.0795 76.7308 79.0722 76.828 79.0722L94.7808 78.8855L112.466 78.3182L128.416 75.9519L127.472 59.0726C127.454 58.7599 127.525 58.4447 127.677 58.1635L135.704 43.379C135.861 43.0904 136.098 42.8456 136.39 42.6686L149.688 34.6775C149.938 34.5272 150.219 34.4326 150.513 34.3962L168.579 32.2675L183.99 21.1319C184.072 21.0737 184.156 21.0204 184.245 20.9743L201.625 12.0376C201.92 11.8873 202.251 11.8073 202.584 11.8073C202.7 11.8073 202.816 11.817 202.931 11.8364L222.196 15.0173L240.225 9.85561C240.272 9.84348 240.319 9.83136 240.367 9.81924L259.928 5.65398C260.072 5.62246 260.222 5.60791 260.372 5.60791C260.501 5.60791 260.632 5.62003 260.758 5.64428L280.101 9.21554L299.121 12.1298L318.315 12.8814C318.428 12.8862 318.538 12.8983 318.646 12.9202L337.495 16.6733L356.543 18.6007C356.748 18.6225 356.951 18.671 357.137 18.751L374.717 26.0609L394.446 20.0312C394.649 19.9706 394.859 19.939 395.067 19.939C395.445 19.939 395.821 20.0409 396.144 20.2348L413.088 30.4468L431.603 26.0803C431.763 26.0415 431.929 26.0245 432.092 26.0245C432.376 26.0245 432.66 26.0803 432.92 26.1942L451.829 34.2774L468.005 21.4495C468.274 21.2386 468.597 21.0955 468.944 21.0373L487.943 17.8976C488.058 17.8782 488.174 17.8685 488.289 17.8685C488.313 17.8685 488.337 17.8685 488.36 17.8685L507.903 18.5207L527.202 18.8771L546.069 16.9278L564.892 12.9226C565.036 12.8911 565.186 12.8765 565.336 12.8765C565.452 12.8765 565.565 12.8862 565.678 12.9032L585.118 16.0696L604.203 17.9655L622.958 19.9609L640.871 21.7744L659.938 18.4334C660.059 18.4116 660.183 18.4019 660.306 18.4019C660.598 18.4019 660.89 18.4625 661.158 18.5789L677.812 25.9251L698.104 21.144C698.265 21.1052 698.428 21.0882 698.593 21.0882C698.772 21.0882 698.951 21.1101 699.127 21.1561L717.878 26.0075C718.288 26.1142 718.648 26.3397 718.909 26.65L731.219 41.4248C731.342 41.5727 731.442 41.74 731.511 41.917L737.85 58.1489C737.939 58.3768 737.978 58.6193 737.963 58.8617L736.988 75.6682L751.818 78.1097L769.663 80.2166C769.739 80.2263 769.816 80.2384 769.892 80.2554L787.39 84.2897L804.841 80.1463C805.001 80.1075 805.167 80.0881 805.332 80.0881C805.361 80.0881 805.39 80.0881 805.419 80.0881L823.495 80.8154C823.614 80.8203 823.729 80.8348 823.845 80.8591C823.845 80.8591 841.74 84.5928 841.748 84.5952L862.134 89.1532C863.007 89.3496 863.627 90.0624 863.64 90.8916C863.653 91.7208 863.059 92.453 862.195 92.6736L852.195 95.2169L853.574 117.064C853.616 117.728 853.262 118.359 852.652 118.71L832.484 130.355L819.932 146.441L809.372 164.671C809.314 164.77 809.246 164.865 809.169 164.955L804.213 170.638L803.663 180.833L811.093 196.153L819.606 210.826C819.692 210.976 819.756 211.136 819.795 211.301L823.569 227.502L834.578 240.528C834.781 240.768 834.915 241.052 834.97 241.35L837.837 257.408L845.396 273.494C845.716 274.178 845.553 274.973 844.983 275.502L835.729 284.06C835.359 284.404 834.854 284.593 834.334 284.593L834.313 284.608Z" fill="#111111"/>
<path d="M834.313 284.608C834.25 284.608 834.187 284.605 834.126 284.601C833.54 284.55 833.009 284.259 832.681 283.808L820.794 267.542L801.154 265.435C801.122 265.433 801.09 265.428 801.059 265.423L781.582 262.443L761.6 268.184C761.411 268.24 761.211 268.267 761.014 268.267C760.851 268.267 760.685 268.247 760.525 268.211L740.993 263.607L721.313 264.764L702.785 266.051C702.735 266.053 702.685 266.056 702.635 266.056C702.496 266.056 702.357 266.041 702.223 266.015L684.059 262.414L666.892 272.585C666.572 272.776 666.201 272.873 665.828 272.873C665.62 272.873 665.41 272.842 665.208 272.781L646.832 267.154L627.037 273.795C626.819 273.867 626.59 273.904 626.364 273.904C626.028 273.904 625.691 273.824 625.392 273.666L605.962 263.488C605.636 263.319 605.37 263.064 605.194 262.761L595.307 245.579C595.226 245.438 595.165 245.29 595.129 245.135L590.619 227.143C590.579 226.988 590.563 226.83 590.569 226.67L591.228 209.054L584.69 194.773L564.992 200.413C564.802 200.466 564.605 200.495 564.408 200.495C564.251 200.495 564.09 200.478 563.935 200.442L544.308 195.974L526.313 199.647C526.269 199.656 526.227 199.664 526.182 199.669L507.541 202.263C507.443 202.277 507.343 202.282 507.246 202.282C507.199 202.282 507.149 202.282 507.102 202.277L488.694 201.033L471.879 213.18C471.53 213.432 471.101 213.566 470.665 213.566C470.539 213.566 470.41 213.554 470.284 213.532L451.503 210.111L433.482 215.442C433.12 215.777 432.62 215.978 432.087 215.978C432.029 215.978 431.971 215.978 431.913 215.971C431.225 215.915 430.636 215.534 430.334 214.994L412.851 218.322C412.72 218.347 412.586 218.361 412.452 218.361C411.968 218.361 411.498 218.196 411.13 217.893L394.06 203.679L375.508 209.124C375.343 209.172 375.172 209.202 374.998 209.206L355.692 209.999C355.663 209.999 355.634 209.999 355.605 209.999C355.277 209.999 354.953 209.924 354.664 209.779L337.647 201.244L318.543 203.989C318.443 204.003 318.341 204.011 318.241 204.011C318.023 204.011 317.807 203.977 317.6 203.911L299.678 198.228L277.468 194.444L275.623 209.131L281.799 229.32C281.941 229.783 281.878 230.28 281.623 230.699L271.594 247.29C271.386 247.635 271.061 247.908 270.669 248.068L251.279 255.977L239.192 272.364C238.811 272.881 238.193 273.159 237.56 273.159C237.205 273.159 236.847 273.072 236.524 272.888L216.945 261.704L199.704 259.49L180.86 269.981C180.55 270.153 180.198 270.243 179.841 270.243C179.691 270.243 179.538 270.226 179.391 270.194L161.057 266.223L142.855 262.39L123.081 260.125L103.12 262.055C103.052 262.063 102.983 262.065 102.915 262.065C102.781 262.065 102.644 262.053 102.513 262.026L82.7834 258.234L65.8687 272.566C65.548 272.837 65.138 273.004 64.7018 273.038L45.0512 274.585L23.5661 276.401C23.5057 276.406 23.4452 276.408 23.3848 276.408C22.436 276.408 21.6082 275.778 21.4452 274.9C21.2691 273.967 21.9025 273.065 22.8986 272.83L23.1299 272.774L23.8395 257.478C23.85 257.255 23.9052 257.037 23.9998 256.833L31.2061 241.501C31.2193 241.474 31.2324 241.45 31.2456 241.423L38.9565 226.908L44.2995 211.081C44.3547 210.916 44.4362 210.758 44.5413 210.613L54.4284 196.907L62.3312 182.312L60.3023 170.032L58.0499 161.946L44.2864 147.103L26.1654 135.311C26.0576 135.24 25.9577 135.16 25.8684 135.073L9.66853 119.258C9.38995 118.987 9.21124 118.645 9.15079 118.274L5.63171 96.2618C5.50819 95.4933 5.92869 94.7368 6.67771 94.3804C6.96418 94.2446 7.2743 94.1792 7.58179 94.1792C8.07851 94.1792 8.5726 94.3537 8.94842 94.6859L12.4228 97.7626L22.2363 88.1689C22.4203 87.9895 22.6437 87.844 22.8907 87.747L39.9973 80.9488C40.2443 80.8518 40.5097 80.8009 40.7778 80.8009C40.8146 80.8009 40.8488 80.8009 40.8856 80.8033L58.8068 81.7052L76.5389 79.094C76.6335 79.0795 76.7308 79.0722 76.828 79.0722L94.7808 78.8855L112.466 78.3182L128.416 75.9519L127.472 59.0726C127.454 58.7599 127.525 58.4447 127.677 58.1635L135.704 43.379C135.861 43.0904 136.098 42.8456 136.39 42.6686L149.688 34.6775C149.938 34.5272 150.219 34.4326 150.513 34.3962L168.579 32.2675L183.99 21.1319C184.072 21.0737 184.156 21.0204 184.245 20.9743L201.625 12.0376C201.92 11.8873 202.251 11.8073 202.584 11.8073C202.7 11.8073 202.816 11.817 202.931 11.8364L222.196 15.0173L240.225 9.85561C240.272 9.84348 240.319 9.83136 240.367 9.81924L259.928 5.65398C260.072 5.62246 260.222 5.60791 260.372 5.60791C260.501 5.60791 260.632 5.62003 260.758 5.64428L280.101 9.21554L299.121 12.1298L318.315 12.8814C318.428 12.8862 318.538 12.8983 318.646 12.9202L337.495 16.6733L356.543 18.6007C356.748 18.6225 356.951 18.671 357.137 18.751L374.717 26.0609L394.446 20.0312C394.649 19.9706 394.859 19.939 395.067 19.939C395.445 19.939 395.821 20.0409 396.144 20.2348L413.088 30.4468L431.603 26.0803C431.763 26.0415 431.929 26.0245 432.092 26.0245C432.376 26.0245 432.66 26.0803 432.92 26.1942L451.829 34.2774L468.005 21.4495C468.274 21.2386 468.597 21.0955 468.944 21.0373L487.943 17.8976C488.058 17.8782 488.174 17.8685 488.289 17.8685C488.313 17.8685 488.337 17.8685 488.36 17.8685L507.903 18.5207L527.202 18.8771L546.069 16.9278L564.892 12.9226C565.036 12.8911 565.186 12.8765 565.336 12.8765C565.452 12.8765 565.565 12.8862 565.678 12.9032L585.118 16.0696L604.203 17.9655L622.958 19.9609L640.871 21.7744L659.938 18.4334C660.059 18.4116 660.183 18.4019 660.306 18.4019C660.598 18.4019 660.89 18.4625 661.158 18.5789L677.812 25.9251L698.104 21.144C698.265 21.1052 698.428 21.0882 698.593 21.0882C698.772 21.0882 698.951 21.1101 699.127 21.1561L717.878 26.0075C718.288 26.1142 718.648 26.3397 718.909 26.65L731.219 41.4248C731.342 41.5727 731.442 41.74 731.511 41.917L737.85 58.1489C737.939 58.3768 737.978 58.6193 737.963 58.8617L736.988 75.6682L751.818 78.1097L769.663 80.2166C769.739 80.2263 769.816 80.2384 769.892 80.2554L787.39 84.2897L804.841 80.1463C805.001 80.1075 805.167 80.0881 805.332 80.0881C805.361 80.0881 805.39 80.0881 805.419 80.0881L823.495 80.8154C823.614 80.8203 823.729 80.8348 823.845 80.8591C823.845 80.8591 841.74 84.5928 841.748 84.5952L862.134 89.1532C863.007 89.3496 863.627 90.0624 863.64 90.8916C863.653 91.7208 863.059 92.453 862.195 92.6736L852.195 95.2169L853.574 117.064C853.616 117.728 853.262 118.359 852.652 118.71L832.484 130.355L819.932 146.441L809.372 164.671C809.314 164.77 809.246 164.865 809.169 164.955L804.213 170.638L803.663 180.833L811.093 196.153L819.606 210.826C819.692 210.976 819.756 211.136 819.795 211.301L823.569 227.502L834.578 240.528C834.781 240.768 834.915 241.052 834.97 241.35L837.837 257.408L845.396 273.494C845.716 274.178 845.553 274.973 844.983 275.502L835.729 284.06C835.359 284.404 834.854 284.593 834.334 284.593L834.313 284.608Z" stroke="white" stroke-width="11.2161" mask="url(#path-1-outside-1_1769_5567)"/>
</svg>
