<svg width="1225" height="312" viewBox="0 0 1225 312" fill="none" xmlns="http://www.w3.org/2000/svg">
<path d="M858.722 56.1213L863.097 52.3539L857.647 50.4488L858.722 56.1213ZM857.998 21.2768L857.332 27.0117L862.632 24.7213L857.998 21.2768ZM860.207 51.8736L860.691 51.9966C862.25 45.8552 863.543 34.799 860.256 25.2431L859.783 25.4058L859.31 25.5684C862.508 34.865 861.257 45.7022 859.722 51.7506L860.207 51.8736Z" fill="#111111"/>
<path d="M95 160.205L90.9086 156.132L89.4265 161.712L95 160.205ZM45 161.729L50.644 162.945L48.8749 157.449L45 161.729ZM90.6496 159.05L90.7425 158.558C82.1538 156.933 64.1635 155.69 49.1469 159.869L49.281 160.351L49.4151 160.833C64.2343 156.708 82.0585 157.933 90.5566 159.541L90.6496 159.05Z" fill="#111111"/>
<path d="M1014 192.206L1017.91 196.449L1019.63 190.937L1014 192.206ZM1058 192.205L1052.34 191.062L1054.18 196.535L1058 192.205ZM1018.29 193.544L1018.18 194.03C1025.81 195.844 1040.99 197.701 1053.87 194.122L1053.73 193.64L1053.6 193.158C1040.96 196.673 1025.96 194.852 1018.41 193.057L1018.29 193.544Z" fill="#111111"/>
<path d="M1174 168.206L1177.87 172.486L1179.64 166.991L1174 168.206ZM1225 168.205L1219.33 167.102L1221.21 172.561L1225 168.205ZM1178.28 169.586L1178.16 170.071C1186.88 172.252 1205.44 174.67 1220.89 170.148L1220.75 169.668L1220.61 169.189C1205.4 173.639 1187.04 171.261 1178.41 169.101L1178.28 169.586Z" fill="#111111"/>
<path d="M819.407 227.899L814.609 224.687L814.227 230.448L819.407 227.899ZM767.49 236.498L773.226 237.156L770.928 231.859L767.49 236.498ZM814.918 227.601L814.926 227.101C805.812 226.951 786.601 228.287 771.435 234.242L771.617 234.707L771.8 235.172C786.795 229.285 805.858 227.952 814.91 228.101L814.918 227.601Z" fill="#111111"/>
<path d="M726 66.2051L720.498 64.4552L721.734 70.0949L726 66.2051ZM680 79.2052L685.679 80.2472L683.742 74.8083L680 79.2052ZM721.603 67.1683L721.492 66.6809C710.678 69.1509 695.692 73.2323 684.076 77.223L684.238 77.6959L684.4 78.1688C695.976 74.1919 710.928 70.1197 721.714 67.6558L721.603 67.1683Z" fill="#111111"/>
<path d="M946.26 169.153L941.523 165.853L941.034 171.606L946.26 169.153ZM901.501 168.173L906.633 170.816L906.356 165.05L901.501 168.173ZM941.775 168.772L941.813 168.273C931.574 167.505 917.35 167.053 905.978 167.457L905.996 167.957L906.014 168.457C917.342 168.054 931.528 168.505 941.738 169.27L941.775 168.772Z" fill="#111111"/>
<path d="M599.305 217.964L594.508 214.751L594.124 220.512L599.305 217.964ZM555.006 217.826L560.188 220.37L559.8 214.61L555.006 217.826ZM594.817 217.665L594.845 217.166C584.721 216.594 570.69 216.411 559.466 217.024L559.494 217.524L559.521 218.023C570.7 217.412 584.694 217.594 594.789 218.164L594.817 217.665Z" fill="#111111"/>
<path d="M415.442 118.23L410.625 115.047L410.277 120.81L415.442 118.23ZM369.13 118.476L374.34 120.965L373.89 115.209L369.13 118.476ZM410.949 117.959L410.974 117.459C400.318 116.925 385.429 116.85 373.583 117.627L373.616 118.126L373.649 118.625C385.448 117.851 400.298 117.925 410.924 118.458L410.949 117.959Z" fill="#111111"/>
<path d="M498 92.7052L494.035 88.509L492.383 94.0414L498 92.7052ZM477 91.7048L482.467 93.5622L481.342 87.8993L477 91.7048ZM493.687 91.418L493.785 90.9277C490.501 90.2707 485.903 89.804 481.356 90.3316L481.413 90.8282L481.471 91.3249C485.888 90.8124 490.377 91.2657 493.589 91.9083L493.687 91.418Z" fill="#111111"/>
<path d="M348 278.205L352.3 274.352L346.813 272.555L348 278.205ZM348.737 262.205L347.221 267.776L352.804 266.304L348.737 262.205ZM349.401 273.928L349.889 274.036C350.363 271.891 350.685 269.208 350.382 266.5L349.885 266.556L349.388 266.612C349.675 269.178 349.372 271.745 348.913 273.82L349.401 273.928Z" fill="#111111"/>
<path d="M156.727 39.2051L160.675 34.9924L155.053 33.6797L156.727 39.2051ZM156 20.2051L154.802 25.8528L160.292 24.0668L156 20.2051ZM157.75 34.8224L158.247 34.8828C158.6 31.9801 158.672 28.1053 157.881 24.3811L157.392 24.4849L156.903 24.5887C157.665 28.1759 157.598 31.9349 157.254 34.7621L157.75 34.8224Z" fill="#111111"/>
<path d="M629.413 277.606L633.618 273.65L628.09 271.986L629.413 277.606ZM630.038 260.151L628.502 265.716L634.09 264.263L630.038 260.151ZM630.71 273.297L631.199 273.399C631.719 270.902 632.081 267.67 631.666 264.442L631.17 264.506L630.674 264.57C631.07 267.652 630.726 270.766 630.22 273.195L630.71 273.297Z" fill="#111111"/>
<path d="M1121.38 256.208L1117.38 260.367L1122.98 261.756L1121.38 256.208ZM1121.38 282.205L1122.56 276.553L1117.07 278.361L1121.38 282.205ZM1120.3 260.576L1119.81 260.477C1118.82 265.376 1118.15 272.089 1119.49 278.042L1119.97 277.933L1120.46 277.823C1119.17 272.067 1119.81 265.513 1120.79 260.674L1120.3 260.576Z" fill="#111111"/>
<path d="M3.78 157.9C5.505 157.9 6.87 159.37 6.87 161.53C6.87 163.84 5.475 165.385 3.42 165.385C1.785 165.385 0.945 164.44 0.765 163.36V162.535C1.2 163.69 2.04 164.29 3.15 164.29C4.62 164.29 5.37 162.955 5.37 161.305C5.37 159.595 4.41 158.71 3.375 158.71C2.445 158.71 1.725 159.4 1.425 160.3H0.93L1.65 154.18H4.86C5.535 154.18 5.745 153.94 5.835 153.49H6.195L5.985 155.515H2.1L1.68 159.025C2.01 158.47 2.58 157.9 3.78 157.9ZM9.49008 159.685C9.49008 163.405 10.0451 164.83 11.3801 164.83C12.7151 164.83 13.2701 163.405 13.2701 159.685C13.2701 155.965 12.7151 154.555 11.3801 154.555C10.0451 154.555 9.49008 155.965 9.49008 159.685ZM14.8301 159.67C14.8301 163.78 13.1501 165.385 11.3801 165.385C9.61008 165.385 7.93008 163.78 7.93008 159.67C7.93008 155.56 9.61008 154 11.3801 154C13.1501 154 14.8301 155.56 14.8301 159.67ZM19.3418 159.295C19.3418 158.8 19.0718 158.59 18.2918 158.59V158.23L20.3168 157.555H20.6468V158.935C20.9318 158.215 21.5168 157.555 22.6268 157.555C24.5918 157.555 25.6418 159.34 25.6418 161.44C25.6418 163.54 24.5918 165.355 22.6268 165.355C21.5768 165.355 20.9468 164.74 20.6468 164.02V167.245C20.6468 167.74 20.9168 168.1 21.6968 168.1V168.46H18.2918V168.1C19.0718 168.1 19.3418 167.74 19.3418 167.245V159.295ZM20.6468 160.57V162.34C20.6468 163.525 21.2318 164.605 22.3118 164.605C23.5118 164.605 24.1718 163.255 24.1718 161.44C24.1718 159.625 23.5118 158.305 22.3118 158.305C21.2318 158.305 20.6468 159.385 20.6468 160.57ZM30.0806 157.705H32.6606V158.05C31.8956 158.05 31.5506 158.47 31.2056 158.98L29.8706 160.945L31.7006 163.885C31.9856 164.35 32.2856 164.845 33.0806 164.845V165.205H29.6006V164.845C30.1706 164.845 30.4256 164.665 30.4256 164.425C30.4256 164.23 30.3056 164.05 30.1856 163.84L29.0906 162.1L27.8306 163.96C27.7256 164.125 27.6356 164.32 27.6356 164.455C27.6356 164.665 27.8156 164.86 28.3856 164.86V165.205H25.7606V164.86C26.5256 164.86 26.8556 164.44 27.2006 163.93L28.7906 161.59L27.2006 159.025C26.9006 158.56 26.6006 158.065 25.8206 158.065V157.705H29.3006V158.065C28.7306 158.065 28.4756 158.23 28.4756 158.485C28.4756 158.665 28.5806 158.86 28.7156 159.07L29.5706 160.45L30.5906 158.95C30.6956 158.785 30.7856 158.59 30.7856 158.455C30.7856 158.245 30.6506 158.05 30.0806 158.05V157.705Z" fill="#111111"/>
<path d="M147.175 11.2051H142.675V10.8451C143.83 10.8451 144.235 10.4251 144.235 9.85508V1.60508L142.435 3.06008V2.28008L145.135 7.75456e-05H145.615V9.85508C145.615 10.4251 146.02 10.8451 147.175 10.8451V11.2051ZM152.643 1.51508H149.523C148.473 1.51508 148.158 2.07008 147.948 2.85008H147.588L147.888 0.180078H154.023V0.645077C150.798 4.29008 150.768 7.51508 150.768 11.2051H149.223C149.223 6.81008 150.933 3.67508 152.643 1.51508ZM158.207 5.29508C158.207 4.80008 157.937 4.59008 157.157 4.59008V4.23008L159.182 3.55508H159.512V4.93508C159.797 4.21508 160.382 3.55508 161.492 3.55508C163.457 3.55508 164.507 5.34008 164.507 7.44008C164.507 9.54008 163.457 11.3551 161.492 11.3551C160.442 11.3551 159.812 10.7401 159.512 10.0201V13.2451C159.512 13.7401 159.782 14.1001 160.562 14.1001V14.4601H157.157V14.1001C157.937 14.1001 158.207 13.7401 158.207 13.2451V5.29508ZM159.512 6.57008V8.34008C159.512 9.52508 160.097 10.6051 161.177 10.6051C162.377 10.6051 163.037 9.25508 163.037 7.44008C163.037 5.62508 162.377 4.30508 161.177 4.30508C160.097 4.30508 159.512 5.38508 159.512 6.57008ZM168.946 3.70508H171.526V4.05008C170.761 4.05008 170.416 4.47008 170.071 4.98008L168.736 6.94508L170.566 9.88508C170.851 10.3501 171.151 10.8451 171.946 10.8451V11.2051H168.466V10.8451C169.036 10.8451 169.291 10.6651 169.291 10.4251C169.291 10.2301 169.171 10.0501 169.051 9.84008L167.956 8.10008L166.696 9.96008C166.591 10.1251 166.501 10.3201 166.501 10.4551C166.501 10.6651 166.681 10.8601 167.251 10.8601V11.2051H164.626V10.8601C165.391 10.8601 165.721 10.4401 166.066 9.93008L167.656 7.59008L166.066 5.02508C165.766 4.56008 165.466 4.06508 164.686 4.06508V3.70508H168.166V4.06508C167.596 4.06508 167.341 4.23008 167.341 4.48508C167.341 4.66508 167.446 4.86008 167.581 5.07008L168.436 6.45008L169.456 4.95008C169.561 4.78508 169.651 4.59008 169.651 4.45508C169.651 4.24508 169.516 4.05008 168.946 4.05008V3.70508Z" fill="#111111"/>
<path d="M334.67 120.855C334.67 121.425 334.985 121.845 335.885 121.845V122.205H332.075V121.845C332.975 121.845 333.29 121.425 333.29 120.855V118.965H329.15V118.56C330.62 116.85 332.285 114.195 333.035 111.18H334.565C333.695 114.75 331.055 117.345 330.005 118.41H333.29V116.625L334.43 115.425H334.67V118.41H336.44V118.965H334.67V120.855ZM342.112 120.855C342.112 121.425 342.427 121.845 343.327 121.845V122.205H339.517V121.845C340.417 121.845 340.732 121.425 340.732 120.855V118.965H336.592V118.56C338.062 116.85 339.727 114.195 340.477 111.18H342.007C341.137 114.75 338.497 117.345 337.447 118.41H340.732V116.625L341.872 115.425H342.112V118.41H343.882V118.965H342.112V120.855ZM347.712 116.295C347.712 115.8 347.442 115.59 346.662 115.59V115.23L348.687 114.555H349.017V115.935C349.302 115.215 349.887 114.555 350.997 114.555C352.962 114.555 354.012 116.34 354.012 118.44C354.012 120.54 352.962 122.355 350.997 122.355C349.947 122.355 349.317 121.74 349.017 121.02V124.245C349.017 124.74 349.287 125.1 350.067 125.1V125.46H346.662V125.1C347.442 125.1 347.712 124.74 347.712 124.245V116.295ZM349.017 117.57V119.34C349.017 120.525 349.602 121.605 350.682 121.605C351.882 121.605 352.542 120.255 352.542 118.44C352.542 116.625 351.882 115.305 350.682 115.305C349.602 115.305 349.017 116.385 349.017 117.57ZM358.451 114.705H361.031V115.05C360.266 115.05 359.921 115.47 359.576 115.98L358.241 117.945L360.071 120.885C360.356 121.35 360.656 121.845 361.451 121.845V122.205H357.971V121.845C358.541 121.845 358.796 121.665 358.796 121.425C358.796 121.23 358.676 121.05 358.556 120.84L357.461 119.1L356.201 120.96C356.096 121.125 356.006 121.32 356.006 121.455C356.006 121.665 356.186 121.86 356.756 121.86V122.205H354.131V121.86C354.896 121.86 355.226 121.44 355.571 120.93L357.161 118.59L355.571 116.025C355.271 115.56 354.971 115.065 354.191 115.065V114.705H357.671V115.065C357.101 115.065 356.846 115.23 356.846 115.485C356.846 115.665 356.951 115.86 357.086 116.07L357.941 117.45L358.961 115.95C359.066 115.785 359.156 115.59 359.156 115.455C359.156 115.245 359.021 115.05 358.451 115.05V114.705Z" fill="#111111"/>
<path d="M565.67 207.855C565.67 208.425 565.985 208.845 566.885 208.845V209.205H563.075V208.845C563.975 208.845 564.29 208.425 564.29 207.855V205.965H560.15V205.56C561.62 203.85 563.285 201.195 564.035 198.18H565.565C564.695 201.75 562.055 204.345 561.005 205.41H564.29V203.625L565.43 202.425H565.67V205.41H567.44V205.965H565.67V207.855ZM573.112 207.855C573.112 208.425 573.427 208.845 574.327 208.845V209.205H570.517V208.845C571.417 208.845 571.732 208.425 571.732 207.855V205.965H567.592V205.56C569.062 203.85 570.727 201.195 571.477 198.18H573.007C572.137 201.75 569.497 204.345 568.447 205.41H571.732V203.625L572.872 202.425H573.112V205.41H574.882V205.965H573.112V207.855ZM578.712 203.295C578.712 202.8 578.442 202.59 577.662 202.59V202.23L579.687 201.555H580.017V202.935C580.302 202.215 580.887 201.555 581.997 201.555C583.962 201.555 585.012 203.34 585.012 205.44C585.012 207.54 583.962 209.355 581.997 209.355C580.947 209.355 580.317 208.74 580.017 208.02V211.245C580.017 211.74 580.287 212.1 581.067 212.1V212.46H577.662V212.1C578.442 212.1 578.712 211.74 578.712 211.245V203.295ZM580.017 204.57V206.34C580.017 207.525 580.602 208.605 581.682 208.605C582.882 208.605 583.542 207.255 583.542 205.44C583.542 203.625 582.882 202.305 581.682 202.305C580.602 202.305 580.017 203.385 580.017 204.57ZM589.451 201.705H592.031V202.05C591.266 202.05 590.921 202.47 590.576 202.98L589.241 204.945L591.071 207.885C591.356 208.35 591.656 208.845 592.451 208.845V209.205H588.971V208.845C589.541 208.845 589.796 208.665 589.796 208.425C589.796 208.23 589.676 208.05 589.556 207.84L588.461 206.1L587.201 207.96C587.096 208.125 587.006 208.32 587.006 208.455C587.006 208.665 587.186 208.86 587.756 208.86V209.205H585.131V208.86C585.896 208.86 586.226 208.44 586.571 207.93L588.161 205.59L586.571 203.025C586.271 202.56 585.971 202.065 585.191 202.065V201.705H588.671V202.065C588.101 202.065 587.846 202.23 587.846 202.485C587.846 202.665 587.951 202.86 588.086 203.07L588.941 204.45L589.961 202.95C590.066 202.785 590.156 202.59 590.156 202.455C590.156 202.245 590.021 202.05 589.451 202.05V201.705Z" fill="#111111"/>
<path d="M912.67 157.855C912.67 158.425 912.985 158.845 913.885 158.845V159.205H910.075V158.845C910.975 158.845 911.29 158.425 911.29 157.855V155.965H907.15V155.56C908.62 153.85 910.285 151.195 911.035 148.18H912.565C911.695 151.75 909.055 154.345 908.005 155.41H911.29V153.625L912.43 152.425H912.67V155.41H914.44V155.965H912.67V157.855ZM920.112 157.855C920.112 158.425 920.427 158.845 921.327 158.845V159.205H917.517V158.845C918.417 158.845 918.732 158.425 918.732 157.855V155.965H914.592V155.56C916.062 153.85 917.727 151.195 918.477 148.18H920.007C919.137 151.75 916.497 154.345 915.447 155.41H918.732V153.625L919.872 152.425H920.112V155.41H921.882V155.965H920.112V157.855ZM925.712 153.295C925.712 152.8 925.442 152.59 924.662 152.59V152.23L926.687 151.555H927.017V152.935C927.302 152.215 927.887 151.555 928.997 151.555C930.962 151.555 932.012 153.34 932.012 155.44C932.012 157.54 930.962 159.355 928.997 159.355C927.947 159.355 927.317 158.74 927.017 158.02V161.245C927.017 161.74 927.287 162.1 928.067 162.1V162.46H924.662V162.1C925.442 162.1 925.712 161.74 925.712 161.245V153.295ZM927.017 154.57V156.34C927.017 157.525 927.602 158.605 928.682 158.605C929.882 158.605 930.542 157.255 930.542 155.44C930.542 153.625 929.882 152.305 928.682 152.305C927.602 152.305 927.017 153.385 927.017 154.57ZM936.451 151.705H939.031V152.05C938.266 152.05 937.921 152.47 937.576 152.98L936.241 154.945L938.071 157.885C938.356 158.35 938.656 158.845 939.451 158.845V159.205H935.971V158.845C936.541 158.845 936.796 158.665 936.796 158.425C936.796 158.23 936.676 158.05 936.556 157.84L935.461 156.1L934.201 157.96C934.096 158.125 934.006 158.32 934.006 158.455C934.006 158.665 934.186 158.86 934.756 158.86V159.205H932.131V158.86C932.896 158.86 933.226 158.44 933.571 157.93L935.161 155.59L933.571 153.025C933.271 152.56 932.971 152.065 932.191 152.065V151.705H935.671V152.065C935.101 152.065 934.846 152.23 934.846 152.485C934.846 152.665 934.951 152.86 935.086 153.07L935.941 154.45L936.961 152.95C937.066 152.785 937.156 152.59 937.156 152.455C937.156 152.245 937.021 152.05 936.451 152.05V151.705Z" fill="#111111"/>
<path d="M1024.67 181.855C1024.67 182.425 1024.99 182.845 1025.89 182.845V183.205H1022.08V182.845C1022.98 182.845 1023.29 182.425 1023.29 181.855V179.965H1019.15V179.56C1020.62 177.85 1022.29 175.195 1023.04 172.18H1024.57C1023.7 175.75 1021.06 178.345 1020.01 179.41H1023.29V177.625L1024.43 176.425H1024.67V179.41H1026.44V179.965H1024.67V181.855ZM1032.11 181.855C1032.11 182.425 1032.43 182.845 1033.33 182.845V183.205H1029.52V182.845C1030.42 182.845 1030.73 182.425 1030.73 181.855V179.965H1026.59V179.56C1028.06 177.85 1029.73 175.195 1030.48 172.18H1032.01C1031.14 175.75 1028.5 178.345 1027.45 179.41H1030.73V177.625L1031.87 176.425H1032.11V179.41H1033.88V179.965H1032.11V181.855ZM1037.71 177.295C1037.71 176.8 1037.44 176.59 1036.66 176.59V176.23L1038.69 175.555H1039.02V176.935C1039.3 176.215 1039.89 175.555 1041 175.555C1042.96 175.555 1044.01 177.34 1044.01 179.44C1044.01 181.54 1042.96 183.355 1041 183.355C1039.95 183.355 1039.32 182.74 1039.02 182.02V185.245C1039.02 185.74 1039.29 186.1 1040.07 186.1V186.46H1036.66V186.1C1037.44 186.1 1037.71 185.74 1037.71 185.245V177.295ZM1039.02 178.57V180.34C1039.02 181.525 1039.6 182.605 1040.68 182.605C1041.88 182.605 1042.54 181.255 1042.54 179.44C1042.54 177.625 1041.88 176.305 1040.68 176.305C1039.6 176.305 1039.02 177.385 1039.02 178.57ZM1048.45 175.705H1051.03V176.05C1050.27 176.05 1049.92 176.47 1049.58 176.98L1048.24 178.945L1050.07 181.885C1050.36 182.35 1050.66 182.845 1051.45 182.845V183.205H1047.97V182.845C1048.54 182.845 1048.8 182.665 1048.8 182.425C1048.8 182.23 1048.68 182.05 1048.56 181.84L1047.46 180.1L1046.2 181.96C1046.1 182.125 1046.01 182.32 1046.01 182.455C1046.01 182.665 1046.19 182.86 1046.76 182.86V183.205H1044.13V182.86C1044.9 182.86 1045.23 182.44 1045.57 181.93L1047.16 179.59L1045.57 177.025C1045.27 176.56 1044.97 176.065 1044.19 176.065V175.705H1047.67V176.065C1047.1 176.065 1046.85 176.23 1046.85 176.485C1046.85 176.665 1046.95 176.86 1047.09 177.07L1047.94 178.45L1048.96 176.95C1049.07 176.785 1049.16 176.59 1049.16 176.455C1049.16 176.245 1049.02 176.05 1048.45 176.05V175.705Z" fill="#111111"/>
<path d="M1104.69 296.39V295.475C1104.92 294.2 1105.82 293 1107.59 293C1109.36 293 1110.39 294.245 1110.39 296.06C1110.39 297.395 1109.69 298.64 1108.38 300.155L1106.07 302.855H1108.74C1109.84 302.855 1110.32 302.09 1110.51 301.295H1110.87L1110.44 304.205H1104.57V303.755L1107.02 300.635C1108.26 299.045 1108.97 297.59 1108.97 296.24C1108.97 295.025 1108.26 294.215 1107.11 294.215C1105.83 294.215 1105.05 295.415 1104.69 296.39ZM1114.83 296.9C1116.55 296.9 1117.92 298.37 1117.92 300.53C1117.92 302.84 1116.52 304.385 1114.47 304.385C1112.83 304.385 1111.99 303.44 1111.81 302.36V301.535C1112.25 302.69 1113.09 303.29 1114.2 303.29C1115.67 303.29 1116.42 301.955 1116.42 300.305C1116.42 298.595 1115.46 297.71 1114.42 297.71C1113.49 297.71 1112.77 298.4 1112.47 299.3H1111.98L1112.7 293.18H1115.91C1116.58 293.18 1116.79 292.94 1116.88 292.49H1117.24L1117.03 294.515H1113.15L1112.73 298.025C1113.06 297.47 1113.63 296.9 1114.83 296.9ZM1122.43 298.295C1122.43 297.8 1122.16 297.59 1121.38 297.59V297.23L1123.41 296.555H1123.74V297.935C1124.02 297.215 1124.61 296.555 1125.72 296.555C1127.68 296.555 1128.73 298.34 1128.73 300.44C1128.73 302.54 1127.68 304.355 1125.72 304.355C1124.67 304.355 1124.04 303.74 1123.74 303.02V306.245C1123.74 306.74 1124.01 307.1 1124.79 307.1V307.46H1121.38V307.1C1122.16 307.1 1122.43 306.74 1122.43 306.245V298.295ZM1123.74 299.57V301.34C1123.74 302.525 1124.32 303.605 1125.4 303.605C1126.6 303.605 1127.26 302.255 1127.26 300.44C1127.26 298.625 1126.6 297.305 1125.4 297.305C1124.32 297.305 1123.74 298.385 1123.74 299.57ZM1133.17 296.705H1135.75V297.05C1134.99 297.05 1134.64 297.47 1134.3 297.98L1132.96 299.945L1134.79 302.885C1135.08 303.35 1135.38 303.845 1136.17 303.845V304.205H1132.69V303.845C1133.26 303.845 1133.52 303.665 1133.52 303.425C1133.52 303.23 1133.4 303.05 1133.28 302.84L1132.18 301.1L1130.92 302.96C1130.82 303.125 1130.73 303.32 1130.73 303.455C1130.73 303.665 1130.91 303.86 1131.48 303.86V304.205H1128.85V303.86C1129.62 303.86 1129.95 303.44 1130.29 302.93L1131.88 300.59L1130.29 298.025C1129.99 297.56 1129.69 297.065 1128.91 297.065V296.705H1132.39V297.065C1131.82 297.065 1131.57 297.23 1131.57 297.485C1131.57 297.665 1131.67 297.86 1131.81 298.07L1132.66 299.45L1133.68 297.95C1133.79 297.785 1133.88 297.59 1133.88 297.455C1133.88 297.245 1133.74 297.05 1133.17 297.05V296.705Z" fill="#111111"/>
<path d="M1188.67 161.855C1188.67 162.425 1188.99 162.845 1189.89 162.845V163.205H1186.08V162.845C1186.98 162.845 1187.29 162.425 1187.29 161.855V159.965H1183.15V159.56C1184.62 157.85 1186.29 155.195 1187.04 152.18H1188.57C1187.7 155.75 1185.06 158.345 1184.01 159.41H1187.29V157.625L1188.43 156.425H1188.67V159.41H1190.44V159.965H1188.67V161.855ZM1194.46 156.065C1195.94 156.065 1197.41 157.145 1197.41 159.44C1197.41 161.975 1195.96 163.385 1194.1 163.385C1191.76 163.385 1190.81 161.105 1190.81 158.375C1190.81 154.85 1191.91 152 1194.53 152C1195.79 152 1196.48 152.795 1196.71 153.485V154.19C1196.23 153.485 1195.67 153.095 1194.71 153.095C1192.93 153.095 1192.36 155.225 1192.3 157.325C1192.64 156.65 1193.42 156.065 1194.46 156.065ZM1194.17 162.83C1195.52 162.83 1195.85 161.15 1195.85 159.665C1195.85 157.925 1195.31 156.71 1194.17 156.71C1192.93 156.71 1192.3 157.94 1192.3 159.395C1192.3 161.345 1192.81 162.83 1194.17 162.83ZM1201.84 157.295C1201.84 156.8 1201.57 156.59 1200.79 156.59V156.23L1202.82 155.555H1203.15V156.935C1203.43 156.215 1204.02 155.555 1205.13 155.555C1207.09 155.555 1208.14 157.34 1208.14 159.44C1208.14 161.54 1207.09 163.355 1205.13 163.355C1204.08 163.355 1203.45 162.74 1203.15 162.02V165.245C1203.15 165.74 1203.42 166.1 1204.2 166.1V166.46H1200.79V166.1C1201.57 166.1 1201.84 165.74 1201.84 165.245V157.295ZM1203.15 158.57V160.34C1203.15 161.525 1203.73 162.605 1204.81 162.605C1206.01 162.605 1206.67 161.255 1206.67 159.44C1206.67 157.625 1206.01 156.305 1204.81 156.305C1203.73 156.305 1203.15 157.385 1203.15 158.57ZM1212.58 155.705H1215.16V156.05C1214.4 156.05 1214.05 156.47 1213.71 156.98L1212.37 158.945L1214.2 161.885C1214.49 162.35 1214.79 162.845 1215.58 162.845V163.205H1212.1V162.845C1212.67 162.845 1212.93 162.665 1212.93 162.425C1212.93 162.23 1212.81 162.05 1212.69 161.84L1211.59 160.1L1210.33 161.96C1210.23 162.125 1210.14 162.32 1210.14 162.455C1210.14 162.665 1210.32 162.86 1210.89 162.86V163.205H1208.26V162.86C1209.03 162.86 1209.36 162.44 1209.7 161.93L1211.29 159.59L1209.7 157.025C1209.4 156.56 1209.1 156.065 1208.32 156.065V155.705H1211.8V156.065C1211.23 156.065 1210.98 156.23 1210.98 156.485C1210.98 156.665 1211.08 156.86 1211.22 157.07L1212.07 158.45L1213.09 156.95C1213.2 156.785 1213.29 156.59 1213.29 156.455C1213.29 156.245 1213.15 156.05 1212.58 156.05V155.705Z" fill="#111111"/>
<path d="M846.855 5.38008C848.4 5.38008 849.75 6.70008 849.75 8.71008C849.75 10.8251 848.325 12.3851 846.285 12.3851C844.65 12.3851 843.795 11.4401 843.615 10.3901V9.55008C844.05 10.6751 844.86 11.2901 846.015 11.2901C847.485 11.2901 848.265 9.98508 848.265 8.48508C848.265 6.88008 847.305 6.14508 846.3 6.14508C845.52 6.14508 844.995 6.61008 844.65 7.06008V6.10008L847.695 2.51508H845.925C845.13 2.51508 844.53 2.93508 844.32 3.70008H843.96L844.29 1.18008H849.39V1.52508L845.835 5.66508C846.075 5.48508 846.45 5.38008 846.855 5.38008ZM853.607 4.90008C855.332 4.90008 856.697 6.37008 856.697 8.53008C856.697 10.8401 855.302 12.3851 853.247 12.3851C851.612 12.3851 850.772 11.4401 850.592 10.3601V9.53508C851.027 10.6901 851.867 11.2901 852.977 11.2901C854.447 11.2901 855.197 9.95508 855.197 8.30508C855.197 6.59508 854.237 5.71008 853.202 5.71008C852.272 5.71008 851.552 6.40008 851.252 7.30008H850.757L851.477 1.18008H854.687C855.362 1.18008 855.572 0.940077 855.662 0.490078H856.022L855.812 2.51508H851.927L851.507 6.02508C851.837 5.47008 852.407 4.90008 853.607 4.90008ZM861.214 6.29508C861.214 5.80008 860.944 5.59008 860.164 5.59008V5.23008L862.189 4.55508H862.519V5.93508C862.804 5.21508 863.389 4.55508 864.499 4.55508C866.464 4.55508 867.514 6.34008 867.514 8.44008C867.514 10.5401 866.464 12.3551 864.499 12.3551C863.449 12.3551 862.819 11.7401 862.519 11.0201V14.2451C862.519 14.7401 862.789 15.1001 863.569 15.1001V15.4601H860.164V15.1001C860.944 15.1001 861.214 14.7401 861.214 14.2451V6.29508ZM862.519 7.57008V9.34008C862.519 10.5251 863.104 11.6051 864.184 11.6051C865.384 11.6051 866.044 10.2551 866.044 8.44008C866.044 6.62508 865.384 5.30508 864.184 5.30508C863.104 5.30508 862.519 6.38508 862.519 7.57008ZM871.953 4.70508H874.533V5.05008C873.768 5.05008 873.423 5.47008 873.078 5.98008L871.743 7.94508L873.573 10.8851C873.858 11.3501 874.158 11.8451 874.953 11.8451V12.2051H871.473V11.8451C872.043 11.8451 872.298 11.6651 872.298 11.4251C872.298 11.2301 872.178 11.0501 872.058 10.8401L870.963 9.10008L869.703 10.9601C869.598 11.1251 869.508 11.3201 869.508 11.4551C869.508 11.6651 869.688 11.8601 870.258 11.8601V12.2051H867.633V11.8601C868.398 11.8601 868.728 11.4401 869.073 10.9301L870.663 8.59008L869.073 6.02508C868.773 5.56008 868.473 5.06508 867.693 5.06508V4.70508H871.173V5.06508C870.603 5.06508 870.348 5.23008 870.348 5.48508C870.348 5.66508 870.453 5.86008 870.588 6.07008L871.443 7.45008L872.463 5.95008C872.568 5.78508 872.658 5.59008 872.658 5.45508C872.658 5.24508 872.523 5.05008 871.953 5.05008V4.70508Z" fill="#111111"/>
<path d="M619.175 304.205H614.675V303.845C615.83 303.845 616.235 303.425 616.235 302.855V294.605L614.435 296.06V295.28L617.135 293H617.615V302.855C617.615 303.425 618.02 303.845 619.175 303.845V304.205ZM624.643 294.515H621.523C620.473 294.515 620.158 295.07 619.948 295.85H619.588L619.888 293.18H626.023V293.645C622.798 297.29 622.768 300.515 622.768 304.205H621.223C621.223 299.81 622.933 296.675 624.643 294.515ZM630.207 298.295C630.207 297.8 629.937 297.59 629.157 297.59V297.23L631.182 296.555H631.512V297.935C631.797 297.215 632.382 296.555 633.492 296.555C635.457 296.555 636.507 298.34 636.507 300.44C636.507 302.54 635.457 304.355 633.492 304.355C632.442 304.355 631.812 303.74 631.512 303.02V306.245C631.512 306.74 631.782 307.1 632.562 307.1V307.46H629.157V307.1C629.937 307.1 630.207 306.74 630.207 306.245V298.295ZM631.512 299.57V301.34C631.512 302.525 632.097 303.605 633.177 303.605C634.377 303.605 635.037 302.255 635.037 300.44C635.037 298.625 634.377 297.305 633.177 297.305C632.097 297.305 631.512 298.385 631.512 299.57ZM640.946 296.705H643.526V297.05C642.761 297.05 642.416 297.47 642.071 297.98L640.736 299.945L642.566 302.885C642.851 303.35 643.151 303.845 643.946 303.845V304.205H640.466V303.845C641.036 303.845 641.291 303.665 641.291 303.425C641.291 303.23 641.171 303.05 641.051 302.84L639.956 301.1L638.696 302.96C638.591 303.125 638.501 303.32 638.501 303.455C638.501 303.665 638.681 303.86 639.251 303.86V304.205H636.626V303.86C637.391 303.86 637.721 303.44 638.066 302.93L639.656 300.59L638.066 298.025C637.766 297.56 637.466 297.065 636.686 297.065V296.705H640.166V297.065C639.596 297.065 639.341 297.23 639.341 297.485C639.341 297.665 639.446 297.86 639.581 298.07L640.436 299.45L641.456 297.95C641.561 297.785 641.651 297.59 641.651 297.455C641.651 297.245 641.516 297.05 640.946 297.05V296.705Z" fill="#111111"/>
<path d="M778.78 212.9C780.505 212.9 781.87 214.37 781.87 216.53C781.87 218.84 780.475 220.385 778.42 220.385C776.785 220.385 775.945 219.44 775.765 218.36V217.535C776.2 218.69 777.04 219.29 778.15 219.29C779.62 219.29 780.37 217.955 780.37 216.305C780.37 214.595 779.41 213.71 778.375 213.71C777.445 213.71 776.725 214.4 776.425 215.3H775.93L776.65 209.18H779.86C780.535 209.18 780.745 208.94 780.835 208.49H781.195L780.985 210.515H777.1L776.68 214.025C777.01 213.47 777.58 212.9 778.78 212.9ZM784.49 214.685C784.49 218.405 785.045 219.83 786.38 219.83C787.715 219.83 788.27 218.405 788.27 214.685C788.27 210.965 787.715 209.555 786.38 209.555C785.045 209.555 784.49 210.965 784.49 214.685ZM789.83 214.67C789.83 218.78 788.15 220.385 786.38 220.385C784.61 220.385 782.93 218.78 782.93 214.67C782.93 210.56 784.61 209 786.38 209C788.15 209 789.83 210.56 789.83 214.67ZM794.342 214.295C794.342 213.8 794.072 213.59 793.292 213.59V213.23L795.317 212.555H795.647V213.935C795.932 213.215 796.517 212.555 797.627 212.555C799.592 212.555 800.642 214.34 800.642 216.44C800.642 218.54 799.592 220.355 797.627 220.355C796.577 220.355 795.947 219.74 795.647 219.02V222.245C795.647 222.74 795.917 223.1 796.697 223.1V223.46H793.292V223.1C794.072 223.1 794.342 222.74 794.342 222.245V214.295ZM795.647 215.57V217.34C795.647 218.525 796.232 219.605 797.312 219.605C798.512 219.605 799.172 218.255 799.172 216.44C799.172 214.625 798.512 213.305 797.312 213.305C796.232 213.305 795.647 214.385 795.647 215.57ZM805.081 212.705H807.661V213.05C806.896 213.05 806.551 213.47 806.206 213.98L804.871 215.945L806.701 218.885C806.986 219.35 807.286 219.845 808.081 219.845V220.205H804.601V219.845C805.171 219.845 805.426 219.665 805.426 219.425C805.426 219.23 805.306 219.05 805.186 218.84L804.091 217.1L802.831 218.96C802.726 219.125 802.636 219.32 802.636 219.455C802.636 219.665 802.816 219.86 803.386 219.86V220.205H800.761V219.86C801.526 219.86 801.856 219.44 802.201 218.93L803.791 216.59L802.201 214.025C801.901 213.56 801.601 213.065 800.821 213.065V212.705H804.301V213.065C803.731 213.065 803.476 213.23 803.476 213.485C803.476 213.665 803.581 213.86 803.716 214.07L804.571 215.45L805.591 213.95C805.696 213.785 805.786 213.59 805.786 213.455C805.786 213.245 805.651 213.05 805.081 213.05V212.705Z" fill="#111111"/>
<path d="M339.175 304.205H334.675V303.845C335.83 303.845 336.235 303.425 336.235 302.855V294.605L334.435 296.06V295.28L337.135 293H337.615V302.855C337.615 303.425 338.02 303.845 339.175 303.845V304.205ZM344.519 302.855C344.519 303.425 344.834 303.845 345.734 303.845V304.205H341.924V303.845C342.824 303.845 343.139 303.425 343.139 302.855V300.965H338.999V300.56C340.469 298.85 342.134 296.195 342.884 293.18H344.414C343.544 296.75 340.904 299.345 339.854 300.41H343.139V298.625L344.279 297.425H344.519V300.41H346.289V300.965H344.519V302.855ZM350.119 298.295C350.119 297.8 349.849 297.59 349.069 297.59V297.23L351.094 296.555H351.424V297.935C351.709 297.215 352.294 296.555 353.404 296.555C355.369 296.555 356.419 298.34 356.419 300.44C356.419 302.54 355.369 304.355 353.404 304.355C352.354 304.355 351.724 303.74 351.424 303.02V306.245C351.424 306.74 351.694 307.1 352.474 307.1V307.46H349.069V307.1C349.849 307.1 350.119 306.74 350.119 306.245V298.295ZM351.424 299.57V301.34C351.424 302.525 352.009 303.605 353.089 303.605C354.289 303.605 354.949 302.255 354.949 300.44C354.949 298.625 354.289 297.305 353.089 297.305C352.009 297.305 351.424 298.385 351.424 299.57ZM360.858 296.705H363.438V297.05C362.673 297.05 362.328 297.47 361.983 297.98L360.648 299.945L362.478 302.885C362.763 303.35 363.063 303.845 363.858 303.845V304.205H360.378V303.845C360.948 303.845 361.203 303.665 361.203 303.425C361.203 303.23 361.083 303.05 360.963 302.84L359.868 301.1L358.608 302.96C358.503 303.125 358.413 303.32 358.413 303.455C358.413 303.665 358.593 303.86 359.163 303.86V304.205H356.538V303.86C357.303 303.86 357.633 303.44 357.978 302.93L359.568 300.59L357.978 298.025C357.678 297.56 357.378 297.065 356.598 297.065V296.705H360.078V297.065C359.508 297.065 359.253 297.23 359.253 297.485C359.253 297.665 359.358 297.86 359.493 298.07L360.348 299.45L361.368 297.95C361.473 297.785 361.563 297.59 361.563 297.455C361.563 297.245 361.428 297.05 360.858 297.05V296.705Z" fill="#111111"/>
<path d="M696.67 89.8551C696.67 90.4251 696.985 90.8451 697.885 90.8451V91.2051H694.075V90.8451C694.975 90.8451 695.29 90.4251 695.29 89.8551V87.9651H691.15V87.5601C692.62 85.8501 694.285 83.1951 695.035 80.1801H696.565C695.695 83.7501 693.055 86.3451 692.005 87.4101H695.29V85.6251L696.43 84.4251H696.67V87.4101H698.44V87.9651H696.67V89.8551ZM703.474 81.5151H700.354C699.304 81.5151 698.989 82.0701 698.779 82.8501H698.419L698.719 80.1801H704.854V80.6451C701.629 84.2901 701.599 87.5151 701.599 91.2051H700.054C700.054 86.8101 701.764 83.6751 703.474 81.5151ZM709.038 85.2951C709.038 84.8001 708.768 84.5901 707.988 84.5901V84.2301L710.013 83.5551H710.343V84.9351C710.628 84.2151 711.213 83.5551 712.323 83.5551C714.288 83.5551 715.338 85.3401 715.338 87.4401C715.338 89.5401 714.288 91.3551 712.323 91.3551C711.273 91.3551 710.643 90.7401 710.343 90.0201V93.2451C710.343 93.7401 710.613 94.1001 711.393 94.1001V94.4601H707.988V94.1001C708.768 94.1001 709.038 93.7401 709.038 93.2451V85.2951ZM710.343 86.5701V88.3401C710.343 89.5251 710.928 90.6051 712.008 90.6051C713.208 90.6051 713.868 89.2551 713.868 87.4401C713.868 85.6251 713.208 84.3051 712.008 84.3051C710.928 84.3051 710.343 85.3851 710.343 86.5701ZM719.777 83.7051H722.357V84.0501C721.592 84.0501 721.247 84.4701 720.902 84.9801L719.567 86.9451L721.397 89.8851C721.682 90.3501 721.982 90.8451 722.777 90.8451V91.2051H719.297V90.8451C719.867 90.8451 720.122 90.6651 720.122 90.4251C720.122 90.2301 720.002 90.0501 719.882 89.8401L718.787 88.1001L717.527 89.9601C717.422 90.1251 717.332 90.3201 717.332 90.4551C717.332 90.6651 717.512 90.8601 718.082 90.8601V91.2051H715.457V90.8601C716.222 90.8601 716.552 90.4401 716.897 89.9301L718.487 87.5901L716.897 85.0251C716.597 84.5601 716.297 84.0651 715.517 84.0651V83.7051H718.997V84.0651C718.427 84.0651 718.172 84.2301 718.172 84.4851C718.172 84.6651 718.277 84.8601 718.412 85.0701L719.267 86.4501L720.287 84.9501C720.392 84.7851 720.482 84.5901 720.482 84.4551C720.482 84.2451 720.347 84.0501 719.777 84.0501V83.7051Z" fill="#111111"/>
<path d="M445.175 95.2051H440.675V94.8451C441.83 94.8451 442.235 94.4251 442.235 93.8551V85.6051L440.435 87.0601V86.2801L443.135 84.0001H443.615V93.8551C443.615 94.4251 444.02 94.8451 445.175 94.8451V95.2051ZM448.554 91.3201C447.069 91.3201 445.599 90.2401 445.599 87.9451C445.599 85.4101 447.054 84.0001 448.914 84.0001C451.254 84.0001 452.199 86.2801 452.199 89.0101C452.199 92.5351 451.104 95.3851 448.479 95.3851C447.219 95.3851 446.529 94.5901 446.304 93.9001V93.1951C446.784 93.9001 447.339 94.2901 448.299 94.2901C450.084 94.2901 450.654 92.1601 450.714 90.0601C450.369 90.7351 449.589 91.3201 448.554 91.3201ZM448.839 84.5551C447.489 84.5551 447.159 86.2351 447.159 87.7201C447.159 89.4601 447.699 90.6751 448.839 90.6751C450.084 90.6751 450.714 89.4451 450.714 87.9901C450.714 86.0401 450.204 84.5551 448.839 84.5551ZM456.705 89.2951C456.705 88.8001 456.435 88.5901 455.655 88.5901V88.2301L457.68 87.5551H458.01V88.9351C458.295 88.2151 458.88 87.5551 459.99 87.5551C461.955 87.5551 463.005 89.3401 463.005 91.4401C463.005 93.5401 461.955 95.3551 459.99 95.3551C458.94 95.3551 458.31 94.7401 458.01 94.0201V97.2451C458.01 97.7401 458.28 98.1001 459.06 98.1001V98.4601H455.655V98.1001C456.435 98.1001 456.705 97.7401 456.705 97.2451V89.2951ZM458.01 90.5701V92.3401C458.01 93.5251 458.595 94.6051 459.675 94.6051C460.875 94.6051 461.535 93.2551 461.535 91.4401C461.535 89.6251 460.875 88.3051 459.675 88.3051C458.595 88.3051 458.01 89.3851 458.01 90.5701ZM467.444 87.7051H470.024V88.0501C469.259 88.0501 468.914 88.4701 468.569 88.9801L467.234 90.9451L469.064 93.8851C469.349 94.3501 469.649 94.8451 470.444 94.8451V95.2051H466.964V94.8451C467.534 94.8451 467.789 94.6651 467.789 94.4251C467.789 94.2301 467.669 94.0501 467.549 93.8401L466.454 92.1001L465.194 93.9601C465.089 94.1251 464.999 94.3201 464.999 94.4551C464.999 94.6651 465.179 94.8601 465.749 94.8601V95.2051H463.124V94.8601C463.889 94.8601 464.219 94.4401 464.564 93.9301L466.154 91.5901L464.564 89.0251C464.264 88.5601 463.964 88.0651 463.184 88.0651V87.7051H466.664V88.0651C466.094 88.0651 465.839 88.2301 465.839 88.4851C465.839 88.6651 465.944 88.8601 466.079 89.0701L466.934 90.4501L467.954 88.9501C468.059 88.7851 468.149 88.5901 468.149 88.4551C468.149 88.2451 468.014 88.0501 467.444 88.0501V87.7051Z" fill="#111111"/>
</svg>
