<svg width="847" height="1329" viewBox="0 0 847 1329" fill="none" xmlns="http://www.w3.org/2000/svg">
<path d="M248.025 705.801L241.153 719.689L239.104 734.774L226.667 745.29L213.313 735.418L203.495 723.496L195.454 710.17L188.193 696.346L182.518 680.934L175.338 666.158L172.374 649.559L165.811 634.51L154.769 621.266L150.708 604.377L148.55 587.089L141.343 571.379L133.094 556.312L125.46 540.801L115.144 526.632L103.785 516.035L91.6192 506.326L78.5741 497.813L64.3233 492.909L47.7155 493.598L29.9654 490.479L16.5214 501.829L7.70074 514.131L1.5 530.494L8.36252 546.721L19.8575 559.485L22.849 575.875L27.8531 591.74L37.0908 606.317L40.2274 622.753L45.1046 638.671L52.5111 653.684L55.6114 668.886L59.0291 684.162L66.9885 697.533L75.6369 710.787L81.4388 725.21L80.8133 741.564L85.2463 756.25L88.4736 771.298L91.4923 786.909L93.532 802.574L90.622 818.973L98.4818 833.85L101.256 849.451L100.676 865.606L101.818 881.498L107.457 896.637L110.104 912.266L110.802 928.32L121.009 940.985L127.609 955.362L130.138 971.97L138.741 985.351L150.98 996.637L159.147 1010.16L163.499 1025.99L173.326 1038.55L183.343 1050.91L192.971 1063.45L201.936 1076.4L206.324 1092.93L218.172 1103.82L227.646 1116.76L240.147 1126.86L252.104 1137.65L263.626 1139.35L260.544 1155.56L261.641 1171.35L264.669 1186.97L266.083 1202.73L267.262 1218.51L271.831 1234.04L269.8 1250.07L268.005 1266.04L273.163 1281.61L268.902 1297.59L272.646 1313.33L268.821 1327.72L284.776 1335.22L301.538 1337.38L318.626 1334L335.279 1337.9L352.177 1336.49L368.939 1339.76L385.819 1338.38L402.653 1339.12L419.488 1339.82L436.014 1338.44L452.432 1344.24L468.967 1343.86L485.448 1337.42L501.938 1338.67L518.528 1341.45L534.836 1336.89L551.154 1334.83L567.481 1333.61L584.551 1335.46L596.064 1326.65L601.086 1309.76L598.956 1292.51L595.067 1275.26L597.451 1257.87L597.079 1240.44L598.702 1223.08L598.222 1205.41L604.93 1189.49L613.606 1176.74L627.711 1168.49L636.396 1155.08L643.558 1140.8L657.682 1131.49L660.728 1114.8L671.66 1102.96L675.033 1087.17L682.285 1073.29L691.26 1058.77L696.454 1042.83L701.078 1026.72L706.707 1010.92L712.6 995.214L714.757 978.37L719.417 962.298L721.683 945.554L726.434 929.517L734.049 914.251L734.583 896.972L742.86 882.776L745.534 866.984L751.454 851.981L750.974 835.617L757.954 820.632L757.909 804.496L761.417 788.777L759.151 772.667L760.456 756.776L763.575 740.911L763.158 725.264L770.818 710.805L768.071 694.007L774.299 679.221L776.411 663.511L780.482 648.226L787.399 633.577L786.782 617.268L788.677 601.512L791.578 585.92L799.918 571.27L803.544 555.451L806.717 539.523L813.725 524.547L814.84 508.111L816.562 491.848L823.778 476.89L822.174 459.874L825.791 444.073L834.566 429.387L838.419 413.586L840.522 397.441L841.583 381.141L841.655 364.941L845.39 348.161L841.247 331.436L830.278 318.182L817.487 307.195L801.115 307.575L785.123 312.144L776.185 326.268L763.13 337.292L760.193 354.036L756.594 370.181L747.067 384.622L743.957 400.985L745.09 418.273L739.705 432.651L734.556 447.001L728.628 461.035L723.669 473.889L716.099 485.584L711.866 498.865L707.777 515.137L705.085 531.863L696.826 546.966L691.958 563.057L690.208 580.045L684.316 594.777L678.804 609.617L672.241 624.121L669.53 639.777L663.429 653.901L656.195 646.332L649.233 634.193L648.97 617.495L653.457 601.014L650.583 584.134L649.133 567.327L654.944 550.909L651.145 533.975L657.002 517.558L657.736 500.868L659.241 484.215L656.784 467.353L661.625 450.863L656.276 433.902L663.828 417.539L660.419 400.668L663.03 384.069L662.903 367.353L664.399 350.7L664.97 334.01L665.188 317.294L665.287 300.577L662.577 284.549L664.145 268.63L664.816 252.675L667.046 236.756L667.146 220.792L669.684 205.009L668.352 188.601L672.73 173.199L676.411 157.289L674.779 141.18L675.042 124.69L666.729 109.723L655.941 97.1582L640.058 93.5774L624.158 90.6583L611.593 99.479L600.832 110.965L592.13 124.409L589.945 140.563L582.674 154.778L581.795 170.878L572.983 185.111L572.775 201.773L570.001 217.955L570.345 234.563L563.175 250.173L562.522 266.645L565.477 283.561L560.038 299.462L557.201 315.689L557.572 332.342L554.472 348.551L550.574 364.642L551.236 381.332L548.561 397.595L547.428 414.058L543.856 430.212L542.977 446.584L537.755 462.195L532.108 477.788L533.83 494.495L528.182 510.142L529.615 526.732L524.076 542.515L526.56 559.032L525.771 575.331L526.813 558.533L525.571 541.853L523.695 525.027L524.638 508.311L524.348 491.513L525.508 474.796L533.54 458.651L530.204 441.598L530.766 424.846L537.03 408.51L530.793 392.473L534.428 376.427L530.367 360.527L535.299 344.454L535.317 328.462L533.232 312.525L534.41 296.507L534.165 280.524L529.324 264.678L529.252 248.696L527.339 232.777L527.112 216.794L532.089 200.631L526.179 184.857L526.641 168.847L530.947 152.657L526.732 136.847L522.562 121.073L522.852 105.063L526.732 88.7727L521.293 73.1621L519.498 57.3067L520.649 41.0071L516.841 24.3267L505.473 13.4573L492.011 5.53411L476.79 1.5L460.627 6.56756L451.552 20.2382L440.628 31.4884L434.419 46.1018L432.161 61.8666L423.821 76.7701L422.697 93.106L420.748 109.351L426.486 126.059L420.802 142.086L419.415 158.395L422.806 174.704L424.51 190.913L421.156 207.221L419.388 223.403L421.854 239.893L423.731 256.365L420.975 272.565L418.545 288.792L420.268 305.246L414.076 321.255L416.342 337.745L412.816 353.909L410.649 370.154L411.003 386.535L415.626 403.152L410.749 419.56L413.614 436.304L407.023 452.74L412.281 469.52L410.595 486.11L407.694 502.717L409.453 519.371L410.785 535.988L407.957 552.74L408.8 569.666L409.589 578.223L402.354 565.477L393.352 552.387L394.522 536.667L392.482 519.398L393.117 501.929L391.467 484.632L386.916 467.671L387.605 450.111L382.184 433.204L382.021 418.273L378.775 403.669L377.298 389.037L377.352 374.088L374.85 358.342L368.722 345.478L364.107 330.846L358.115 316.197L362.013 300.124L356.547 285.265L357.181 269.764L351.57 253.917L350.5 237.699L353.673 220.937L348.805 205.136L344.889 189.263L342.822 173.126L342.894 156.509L337.519 140.971L331.78 125.66L325.724 110.657L320.476 95.2454L308.464 84.8655L290.07 79.7073L270.453 82.2819L256.238 95.8075L245.55 110.865L242.83 129.005L243.936 147.072L246.955 163.408L246.484 179.925L246.964 196.406L250.182 212.697L252.612 229.024L251.515 245.631L252.848 262.04L255.223 278.974L255.313 295.981L256.891 312.951L253.7 330.04L257.843 346.965L256.809 364.008L256.655 381.023L252.276 397.994L257.698 415.127L256.093 431.463L258.477 447.808L259.193 464.235L261.088 480.589L256.401 497.469L259.329 513.768L263.953 529.905L261.877 546.639L264.814 562.912L268.349 579.112L268.141 595.665L263.391 611.022L260.816 626.823L257.734 642.524L255.721 658.434L255.558 674.716L252.494 690.299L248.025 705.801Z" stroke="white" stroke-width="3" stroke-linejoin="round"/>
<path d="M86.7783 675.676L104.528 670.726L123.566 672.33L140.264 663.9L157.489 655.868L166.744 642.977" stroke="white" stroke-width="3" stroke-miterlimit="10"/>
<path d="M128.306 811.404L140.952 803.916L155.964 799.528L166.689 787.834" stroke="white" stroke-width="3" stroke-miterlimit="10"/>
<path d="M172.156 774.734L184.558 761.027L192.136 744.138L203.731 729.171L207.665 729.842" stroke="white" stroke-width="3" stroke-miterlimit="10"/>
<path d="M194.784 1072.21L209.216 1064.6L222.216 1054.64L234.119 1042.86L251.017 1039.3L265.105 1031.1" stroke="white" stroke-width="3" stroke-miterlimit="10"/>
<path d="M338.634 1221.08L355.695 1218.53L373.554 1219.6L388.892 1209.56L405.99 1207.3L422.779 1203.48L440.429 1199.97L454.571 1210.72L471.687 1210.61L485.693 1220.45L502.409 1220.6L517.612 1227.19L533.812 1229.23L550.193 1228.28L566.493 1232.7L582.203 1226.12L598.974 1226.15" stroke="white" stroke-width="3" stroke-miterlimit="10"/>
<path d="M347.455 1273.41L362.087 1266.95L376.619 1259.6L392.401 1256.77L408.574 1256.13L424.303 1253.96L439.986 1255.07L456.195 1257.74L472.694 1259.35L488.821 1263.38L506.172 1262.47L522.1 1267.38L536.686 1271.92L551.844 1269.35L567.173 1272.26L582.258 1269.21L597.008 1264.33" stroke="white" stroke-width="3" stroke-miterlimit="10"/>
<path d="M251.496 258.604L268.63 259.049L286.144 258.233L297.974 245.024" stroke="white" stroke-width="3" stroke-miterlimit="10"/>
<path d="M255.477 387.778L275.511 385.312L295.555 386.518" stroke="white" stroke-width="3" stroke-miterlimit="10"/>
<path d="M310.857 395.257L328.254 391.105L345.777 387.76L361.27 378.35L375.594 369.91" stroke="white" stroke-width="3" stroke-miterlimit="10"/>
<path d="M275.284 410.812L257.615 405.318" stroke="white" stroke-width="3" stroke-miterlimit="10"/>
<path d="M291.15 419.895L310.034 421.201L328.527 417.384L346.341 412.57" stroke="white" stroke-width="3" stroke-miterlimit="10"/>
<path d="M333.439 583.545L317.674 584.814L302.182 588.132L285.583 586.337L270.534 594.025" stroke="white" stroke-width="3" stroke-miterlimit="10"/>
<path d="M423.5 191.499L439.5 201.499" stroke="white" stroke-width="3" stroke-miterlimit="10"/>
<path d="M464.5 202.095L478.864 200.343L493.186 202.499L505.226 193.655L516.95 189.251L527.5 182.499" stroke="white" stroke-width="3" stroke-miterlimit="10"/>
<path d="M430.945 344.925L449.584 345.523H468.15L486.698 345.324" stroke="white" stroke-width="3" stroke-miterlimit="10"/>
<path d="M421.728 389.037L437.238 392.826L452.985 398.211L468.94 393.579" stroke="white" stroke-width="3" stroke-miterlimit="10"/>
<path d="M554.072 435.279L568.541 435.751L582.982 434.944L597.079 430.846L611.746 429.967L627.983 423.367L644.373 429.65" stroke="white" stroke-width="3" stroke-miterlimit="10"/>
<path d="M580.263 270.108L595.692 270.299L611.348 268.449L625.889 276.508" stroke="white" stroke-width="3" stroke-miterlimit="10"/>
<path d="M634.51 288.312L649.912 293.77L666.366 295.347" stroke="white" stroke-width="3" stroke-miterlimit="10"/>
<path d="M619.569 228.216L635.361 230.818L651.987 227.845L667.861 229.848" stroke="white" stroke-width="3" stroke-miterlimit="10"/>
<path d="M540.782 591.53L556.094 594.277L572.556 591.63L587.777 596.462L600.433 607.068L615.817 611.529" stroke="white" stroke-width="3" stroke-miterlimit="10"/>
<path d="M675.495 668.633L689.447 676.783L700.488 688.885L712.283 699.863L728.365 705.466L739.08 717.758L751.463 728.084L761.363 740.839" stroke="white" stroke-width="3" stroke-miterlimit="10"/>
<path d="M764.39 460.925L778.867 464.306L793.68 466.255L808.031 470.181L822.227 474.795" stroke="white" stroke-width="3" stroke-miterlimit="10"/>
<path d="M732.108 565.912L748.707 566.855L764.88 570.109L780.726 575.123L797.026 577.733" stroke="white" stroke-width="3" stroke-miterlimit="10"/>
<path d="M745.473 592.972L762.017 595.827L776.513 604.367L791.026 612.852" stroke="white" stroke-width="3" stroke-miterlimit="10"/>
<path d="M577.846 647.802V676.627C577.846 678.685 579.822 679.838 583.281 679.838V681.65H566.728V679.838C569.94 679.838 571.916 678.685 571.916 676.627V653.814L565.575 658.179V654.967L575.375 647.802H577.846ZM574.551 633.555C591.764 633.555 605.682 647.473 605.682 664.685C605.682 682.062 591.764 696.062 574.551 696.062C557.174 696.062 543.174 682.062 543.174 664.685C543.174 647.473 557.174 633.555 574.551 633.555ZM574.551 692.686C589.787 692.686 602.305 680.25 602.305 664.685C602.305 649.449 589.787 636.931 574.551 636.931C558.986 636.931 546.551 649.449 546.551 664.685C546.551 680.25 558.986 692.686 574.551 692.686Z" fill="white"/>
</svg>
