<svg width="841" height="1296" viewBox="0 0 841 1296" fill="none" xmlns="http://www.w3.org/2000/svg">
<path d="M273.945 1266.53L288.004 1265.68L300.723 1259.06L307.115 1250.21L312.722 1240.87L312.272 1230.04L308.689 1218.48L301.725 1208.5L291.853 1201.46L279.972 1199.41L269.416 1206.09L263.701 1217.15L262.936 1227.63L267.08 1237.54L275.687 1243.74L287.712 1246.95L299.56 1243.05L302.534 1228.96L292.78 1219.33L284.169 1215.72L276.515 1221.28" stroke="white" stroke-width="6" stroke-miterlimit="10"/>
<path d="M366.682 1234.41L366.899 1233.54L366.846 1234.42L366.682 1234.41Z" stroke="white" stroke-width="6" stroke-miterlimit="10"/>
<path d="M471.699 1223.12L465.981 1212.94L459.75 1203.5L451.202 1196.11L441.01 1191.55L430.694 1187.74L419.727 1183.17L407.492 1187.72L396.124 1192.36L386.301 1199.58L375.932 1206.98L368.459 1218.19L374.187 1208.17L374.306 1196.67L383.097 1187.09L389.505 1175.99L397.902 1166.45L407.025 1157.48L413.602 1147.38L407.867 1139.5L400.301 1132.26L393.153 1124.79L393.157 1118.55L403.722 1109.92L414.696 1110.44L426.024 1107.24L437.353 1108.97L448.283 1109.8L449.756 1117.48L441.71 1124.38L434.664 1132.28L436.958 1145.25L438.95 1158.57L442.128 1171.44L449.532 1177.82L457.929 1183.49L463.43 1191.94L466.142 1202.05L467.354 1212.92L471.699 1223.12Z" stroke="white" stroke-width="6" stroke-miterlimit="10"/>
<path d="M472.775 1234.41L472.634 1234.41L472.521 1233.14L472.775 1234.41Z" stroke="white" stroke-width="6" stroke-miterlimit="10"/>
<path d="M473.644 1238.27L472.113 1250.25L467.87 1261.5L461.1 1271.33L452.371 1279.28L442.364 1285.37L431.522 1290.05L419.727 1292.5L407.833 1290.47L396.439 1286.72L385.923 1280.74L379.005 1270.81L371.531 1261.52L367.019 1250.32L366.385 1238.27L366.773 1234.41L366.45 1233.44L368.882 1218.04L375.445 1206.64L386.205 1199.47L394.947 1190.08L406.897 1185.25L419.727 1183.29L430.852 1187.01L442.551 1188.17L450.83 1196.62L460.775 1202.61L466.569 1212.62L472.609 1222.83L473.871 1232.89L472.484 1234.42L473.644 1238.27Z" stroke="white" stroke-width="6" stroke-miterlimit="10"/>
<path d="M366.896 1233.54L370.212 1218.43" stroke="white" stroke-width="6" stroke-miterlimit="10"/>
<path d="M472.629 1233.12L470.467 1223.29" stroke="white" stroke-width="6" stroke-miterlimit="10"/>
<path d="M339.987 1223.77L337.322 1234.2L335.781 1245.07L330.486 1254.85L322.503 1262.24L312.608 1266.51L302.473 1268.91L292.288 1272.61L280.033 1269.55L269.49 1263.3L258.237 1257.86L250.721 1247.79L246.173 1236.14L245.006 1223.77L246.751 1213.01L250.596 1202.91L255.943 1193.41L262.789 1185.45L272.066 1180.51L281.886 1176.95L292.288 1175.33L304.326 1178.8L316.164 1182.37L326.421 1189.6L333.562 1199.92L338.117 1211.48L339.987 1223.77Z" stroke="white" stroke-width="6" stroke-miterlimit="10"/>
<path d="M616.03 1216.61L614.453 1229.08L610.647 1241.21L600.936 1249.48L591.76 1257.24L580.655 1261.72L568.86 1265.4L557.141 1262.29L545.122 1259.52L534.537 1252.1L527.142 1241.45L523.99 1229.02L523.524 1216.61L522.459 1203.92L528.404 1192.73L536.975 1183.91L544.843 1174.15L556.424 1169.23L568.86 1167.78L580.461 1169.77L591.017 1174.7L600.118 1181.83L608.649 1191.59L614.621 1203.39L616.03 1216.61Z" stroke="white" stroke-width="6" stroke-miterlimit="10"/>
<path d="M384.998 1229.44L386.927 1241.07L388.515 1252.37L393.428 1262.69L401.217 1270.96L410.76 1277.63L425.615 1278.36L438.62 1271.4L446.55 1262.29L451.838 1251.54L452.692 1239.73L451.17 1227.56L442.958 1219.15L432.421 1214.07L420.837 1213.99L409.357 1214.76L401.052 1222.37L399.38 1232.8L401.7 1243.46L406.652 1253.51L416.111 1260.03L427.879 1256.1L435.889 1247.79L428.691 1238.12L416.505 1236.91" stroke="white" stroke-width="6" stroke-miterlimit="10"/>
<path d="M415.4 1147.43L408.124 1158.34L400.64 1168.61L391.458 1177.53L382.999 1187.01L376.873 1198.35L369.064 1207.63L359.603 1215.61L351.308 1224.52L347.929 1237.3L336.111 1243.42L332.509 1256.38L328.51 1253.3L334.136 1244.06L336.926 1234.05L341.53 1223.77L341.093 1211.09L334.264 1200.37L326.153 1191.47L317.168 1183.89L306.073 1180.43L294.853 1173.89L281.175 1176.36L268.433 1182.03L260.599 1193.89L259.744 1192.49L266.094 1182.33L274.25 1173.53L283.646 1166.18L294.409 1160.44L304.581 1154L310.865 1143.01L321.47 1137.08L332.407 1131.53L338.704 1120.55L347.939 1113.01L357.272 1105.58L366.682 1098.43L374.681 1107.86L383.176 1116.96L392.759 1124.99L401.258 1131.32L407.838 1139.51L415.4 1147.43Z" stroke="white" stroke-width="6" stroke-miterlimit="10"/>
<path d="M602.693 1178.65L599.196 1183.72L592.088 1172.83L581.302 1166.63L568.859 1169.36L557.035 1171.39L543.873 1172.57L535.847 1182.85L530.283 1193.75L526.011 1204.82L521.153 1216.61L526.238 1228.45L528.216 1240.85L534.864 1251.79L546.479 1257.86L545.756 1258.45L534.385 1253.96L525.074 1246.81L516.381 1238.93L507.689 1231.05L499.811 1222.2L490.251 1215.35L480.993 1208.14L473.221 1199.16L464.817 1190.93L455.632 1186.21L448.224 1179.37L442.584 1171.21L441.309 1158.13L433.35 1145.93L436.606 1132.83L440.277 1122.75L449.489 1116.76L458.067 1109.26L466.23 1101.28L476.05 1097.03L483.806 1104.23L494.983 1108.54L505.513 1113.79L515.11 1120.43L525.584 1125.76L532.252 1136.7L542.088 1142.97L551.346 1150.1L562.963 1153.76L571.124 1162.51L582.945 1165.87L593.117 1171.07L602.693 1178.65Z" stroke="white" stroke-width="4" stroke-miterlimit="10"/>
<path d="M559.086 1182.59L554.949 1191.76L551.902 1201.4L548.849 1212.21L547.623 1223.46L549.894 1234.58L553.401 1245.46L561.196 1251L569.984 1253.06L582.929 1253.13L592.835 1244.56L599.289 1233.66L599.361 1221.35L595.898 1208.95L585.752 1200.2L575.229 1202.55L571.177 1210.69L569.212 1220.52L571.269 1229.35L575.87 1235.81L584.106 1233.57L589.519 1225.93L580.159 1217.79" stroke="white" stroke-width="6" stroke-miterlimit="10"/>
<path d="M267.518 1110.4L276.187 1120.87L282.226 1134.66L295.565 1139.95L309.363 1142.3L324.313 1143.11L338.128 1143.32L353.32 1135.76L362.924 1144.58L372.128 1150.95L381.823 1159.82L393.774 1163.18L406.27 1162.09L418.429 1170L432.082 1162.47L446.787 1167.92L458.051 1155.78L470.858 1151.81L479.824 1142.73L492.88 1146.35L507.013 1150.11L519.647 1146.83L532.227 1144.67L543.922 1139.43L553.758 1130.88L567.632 1130.46L574.582 1119.11L582.423 1110.15L597.812 1104.83L593.864 1089.03L600.518 1086.73L589.467 1094.61L576.66 1097.07L565.016 1100.1L552.088 1106.35L542.442 1097.81L538.435 1093.87L543.881 1081.89L557.416 1078.19L559.297 1064.35L566.914 1055.31L571.88 1044.7L584.639 1037.12L590.968 1025.29L582.765 1012.44L579.904 1000.88L584.435 986.593L574.392 977.236L565.634 968.108L559.522 957.812L554.017 944.535L561.295 956.479L556.101 967.803L554.145 979.065L559.449 990.271L552.188 1001.63L555.763 1015.95L550.607 1028.46L540.171 1038.44L525.738 1042.55L514.291 1037.37L503.734 1031.22L497.736 1020.42L499.813 1008.54L498.343 995.345L492.459 982.344L494.337 968.547L503.292 957.448L511.803 948.628L510.999 933.2L526.808 933.442L530.318 927.728L518.646 925.578L507.099 927.715L496.355 932.289L482.268 930.859L470.406 937.134L467.031 950.869L466.444 963.01L463.256 975.751L460.861 989.194L445.327 994.676L438.3 1004.59L428.717 1012.13L423.478 1023.85L435.156 1017.51L427.757 1003.9L422.898 991.84L420.996 979.072L422.722 964.911L422.556 952.077L410.219 943.177L411.192 929.934L412.962 916.245L400.248 907.892L399.679 896L400.783 907.414L400.99 919.476L400.78 931.521L401.418 943.406L404.938 955.076L408.911 966.954L406.581 979.016L406.201 991.147L404.811 1003.78L392.852 1009.08L381.125 1013.59L369.271 1005.97L363.797 993.419L358.945 981.143L354.169 970.085L352.75 981.253L346.083 990.607L331.881 996.39L335.305 1010.82L332.468 1021.85L331.119 1032.89L322.242 1043.52L330.573 1053.98L321.224 1064.72L322.491 1078.53L314.501 1068.21L301.532 1063.51L294.247 1052.52L290.889 1039.28L283.824 1027.43L285.432 1018.86L282.371 1031.5L278.982 1044.31L281.816 1057.87L275.669 1070.85L276.432 1084.66L289.829 1092.88L294.091 1105.11L300.749 1115.54L292.68 1115.5L280.418 1112.39L267.518 1110.4Z" fill="white"/>
<path d="M729.693 985.643C734.477 1000.22 739.701 997.156 728.201 1011.28C723.311 1017.29 718.68 1029.48 706.058 1034.11C695.471 1037.96 683.818 1035.1 674.994 1034.35C664.604 1033.46 658.416 1024.3 650.338 1019.04C642.031 1013.63 626.212 1015.48 620.191 1007.77C613.766 999.554 614.187 986.282 610.178 978.222C602.639 963.075 612.152 960.441 604.836 947.555C604.069 946.201 600.657 956.435 599.271 957.149C589.855 961.414 577.553 959.924 567.575 963.101C557.73 966.239 548.669 973.349 538.433 975.54C528.306 977.705 518.017 981.873 507.663 983.219C497.361 984.556 486.471 984.385 476.086 985.011C465.665 985.638 454.92 975.501 444.574 975.514C434.075 975.527 423.795 977.692 413.524 977.184C402.959 976.658 392.507 977.718 382.35 976.754C372.193 975.79 362.224 968.37 352.229 967.011C341.48 965.551 330.314 970.346 320.543 968.646C309.578 966.739 300.25 960.402 290.843 958.416C279.3 955.979 269.212 953.735 260.586 951.583C241.648 946.85 241.398 937.387 227.351 944.176C214.79 950.246 225.465 959.297 216.839 973.129C212.453 980.164 208.519 989.495 201.774 996.985C195.792 1003.63 189.498 1012.03 181.595 1017.46C174.139 1022.58 164.929 1028.69 155.715 1031.46C145.128 1034.65 133.585 1034.74 125.857 1033.56C115.323 1031.96 111.814 1017.94 105.81 1012.43C94.7365 1002.25 86.1449 1007.7 84.338 993.961C82.3338 978.726 80.7111 973.603 86.5002 960.809C90.8157 951.272 104.547 947.143 117.301 951.39C147.146 961.335 144.488 969.272 131.611 984.718C124.252 993.545 119.38 997.568 139.273 996.332C146.018 995.912 150.711 983.872 155.829 972.555C159.553 964.329 169.6 956.895 172.157 948.072C176.459 933.21 185.705 928.871 179.823 915.99C173.289 901.675 160.605 916.029 145.124 904.156C137.993 898.691 127.213 894.08 118.656 885.818C111.696 879.099 109.253 866.503 102.052 857.833C95.7057 850.198 85.8029 844.176 79.7287 834.955C74.2027 826.566 69.988 816.437 65.0278 806.689C60.4492 797.691 64.9138 784.521 61.0807 774.322C57.5195 764.85 49.213 756.939 46.5114 746.407C43.9941 736.603 39.8364 726.776 38.2356 716.025C36.7445 706.01 36.4244 695.469 35.863 684.613C35.3192 674.103 28.7143 663.746 29.0169 653.942C29.3415 643.409 40.2048 633.912 41.3802 624.191C42.6433 613.711 42.709 603.683 44.801 594.133C47.064 583.789 53.5636 575.435 56.5854 566.17C59.8834 556.054 56.7827 544.242 60.7211 535.389C65.0892 525.571 69.8696 516.446 74.6632 508.162C80.1629 498.669 82.268 487.418 87.794 479.906C94.6532 470.579 105.416 465.701 111.328 459.372C124.309 445.474 131.94 454.24 135.502 439.421C139.273 423.722 136.212 424.213 128.138 410.231C103.723 400.23 117.564 401.027 104.398 390.149C91.456 379.455 94.6926 382.584 97.3548 359.412C98.3152 351.062 95.4382 338.703 101.797 325.725C105.302 318.572 120.551 320.167 133.133 314.224C141.668 310.192 146.825 293.349 158.268 289.847C167.921 286.897 179.692 287.524 190.744 284.942C200.897 282.571 212.198 283.237 223.036 281.169C233.504 279.17 244.065 276.536 254.731 274.813C265.397 273.091 275.388 265.627 285.878 264.163C296.886 262.629 308.043 263.466 318.306 262.221C329.744 260.836 341.252 265.495 351.093 264.461C362.439 263.264 373.833 265.631 385.218 265.25C396.604 264.869 408.134 253.578 419.528 254.012C430.909 254.446 441.197 269.646 452.539 270.899C462.095 271.956 472.814 271.789 484.168 273.122C494.159 274.296 505.211 271.36 516.144 272.727C526.367 274.007 537.766 268.905 548.458 270.338C558.844 271.732 569.453 273.003 579.961 274.528C590.486 276.054 601.358 275.808 611.691 277.452C622.366 279.148 632.045 286.165 642.172 287.971C653.048 289.908 664.096 289.281 673.92 291.324C686.761 293.993 699.172 296.022 708.106 300.116C720.439 305.761 731.89 313.558 738.284 320.755C747.099 330.669 748.788 345.487 750.257 355.292C753.024 373.761 745.661 371.723 739.802 387.751C732.486 407.759 738.446 393.8 705.799 406.252C700.479 408.991 699.058 413.269 696.839 418.822C693.98 425.97 693.423 429.599 696.664 436.581C703.041 450.322 710.72 437.418 724.82 451.842C730.583 457.737 730.771 470.15 737.473 480.169C742.429 487.576 758.814 489.838 763.897 499.975C768.023 508.206 762.335 521.969 766.348 532.238C769.76 540.973 772.383 550.462 775.593 560.814C778.404 569.882 779.913 579.66 782.487 590.065C784.79 599.361 791 608.167 793.061 618.598C795.171 629.275 799.627 639.609 800.039 650.124C800.46 660.91 790.838 670.943 789.711 681.479C788.566 692.165 794.702 703.7 792.215 714.04C789.702 724.475 791.496 736.633 787.869 746.631C784.198 756.746 776.729 765.727 772.177 775.295C767.528 785.069 757.989 792.208 752.709 801.312C747.227 810.761 737.85 817.182 731.999 825.799C725.767 834.968 719.373 843.072 713.093 851.163C706.119 860.147 706.676 874.383 700.142 881.86C692.217 890.937 682.476 896.771 676.047 903.332C662.148 917.515 657.451 909.363 648.562 922.696C647.847 929.796 657.114 942.883 661.451 954.914C664.705 963.943 671.196 972.91 674.661 982.767C682.757 1005.77 695.967 1012.62 693.739 994.829C691.221 974.703 678.371 982.838 703.247 967.296C713.027 961.186 721.268 952.981 726.969 957.732C735.771 965.06 725.794 973.739 729.693 985.621V985.643Z" fill="#111111"/>
<path d="M729.693 985.643C734.477 1000.22 739.701 997.156 728.201 1011.28C723.311 1017.29 718.68 1029.48 706.058 1034.11C695.471 1037.96 683.818 1035.1 674.994 1034.35C664.604 1033.46 658.416 1024.3 650.338 1019.04C642.031 1013.63 626.212 1015.48 620.191 1007.77C613.766 999.554 614.187 986.282 610.178 978.222C602.639 963.075 612.152 960.441 604.836 947.555C604.069 946.201 600.657 956.435 599.271 957.149C589.855 961.414 577.553 959.924 567.575 963.101C557.73 966.239 548.669 973.349 538.433 975.54C528.306 977.705 518.017 981.873 507.663 983.219C497.361 984.556 486.471 984.385 476.086 985.011C465.665 985.638 454.92 975.501 444.574 975.514C434.075 975.527 423.795 977.692 413.524 977.184C402.959 976.658 392.507 977.718 382.35 976.754C372.193 975.79 362.224 968.37 352.229 967.011C341.48 965.551 330.314 970.346 320.543 968.646C309.578 966.739 300.25 960.402 290.843 958.416C279.3 955.979 269.212 953.735 260.586 951.583C241.648 946.85 241.398 937.387 227.351 944.176C214.79 950.246 225.465 959.297 216.839 973.129C212.453 980.164 208.519 989.495 201.774 996.985C195.792 1003.63 189.498 1012.03 181.595 1017.46C174.139 1022.58 164.929 1028.69 155.715 1031.46C145.128 1034.65 133.585 1034.74 125.857 1033.56C115.323 1031.96 111.814 1017.94 105.81 1012.43C94.7365 1002.25 86.1449 1007.7 84.338 993.961C82.3338 978.726 80.7111 973.603 86.5002 960.809C90.8157 951.272 104.547 947.143 117.301 951.39C147.146 961.335 144.488 969.272 131.611 984.718C124.252 993.545 119.38 997.568 139.273 996.332C146.018 995.912 150.711 983.872 155.829 972.555C159.553 964.329 169.6 956.895 172.157 948.072C176.459 933.21 185.705 928.871 179.823 915.99C173.289 901.675 160.605 916.029 145.124 904.156C137.993 898.691 127.213 894.08 118.656 885.818C111.696 879.099 109.253 866.503 102.052 857.833C95.7057 850.198 85.8029 844.176 79.7287 834.955C74.2027 826.566 69.988 816.437 65.0278 806.689C60.4492 797.691 64.9138 784.521 61.0807 774.322C57.5195 764.85 49.213 756.939 46.5114 746.407C43.9941 736.603 39.8364 726.776 38.2356 716.025C36.7445 706.01 36.4244 695.469 35.863 684.613C35.3192 674.103 28.7143 663.746 29.0169 653.942C29.3415 643.409 40.2048 633.912 41.3802 624.191C42.6433 613.711 42.709 603.683 44.801 594.133C47.064 583.789 53.5636 575.435 56.5854 566.17C59.8834 556.054 56.7827 544.242 60.7211 535.389C65.0892 525.571 69.8696 516.446 74.6632 508.162C80.1629 498.669 82.268 487.418 87.794 479.906C94.6532 470.579 105.416 465.701 111.328 459.372C124.309 445.474 131.94 454.24 135.502 439.421C139.273 423.722 136.212 424.213 128.138 410.231C103.723 400.23 117.564 401.027 104.398 390.149C91.456 379.455 94.6926 382.584 97.3548 359.412C98.3152 351.062 95.4382 338.703 101.797 325.725C105.302 318.572 120.551 320.167 133.133 314.224C141.668 310.192 146.825 293.349 158.268 289.847C167.921 286.897 179.692 287.524 190.744 284.942C200.897 282.571 212.198 283.237 223.036 281.169C233.504 279.17 244.065 276.536 254.731 274.813C265.397 273.091 275.388 265.627 285.878 264.163C296.886 262.629 308.043 263.466 318.306 262.221C329.744 260.836 341.252 265.495 351.093 264.461C362.439 263.264 373.833 265.631 385.218 265.25C396.604 264.869 408.134 253.578 419.528 254.012C430.909 254.446 441.197 269.646 452.539 270.899C462.095 271.956 472.814 271.789 484.168 273.122C494.159 274.296 505.211 271.36 516.144 272.727C526.367 274.007 537.766 268.905 548.458 270.338C558.844 271.732 569.453 273.003 579.961 274.528C590.486 276.054 601.358 275.808 611.691 277.452C622.366 279.148 632.045 286.165 642.172 287.971C653.048 289.908 664.096 289.281 673.92 291.324C686.761 293.993 699.172 296.022 708.106 300.116C720.439 305.761 731.89 313.558 738.284 320.755C747.099 330.669 748.788 345.487 750.257 355.292C753.024 373.761 745.661 371.723 739.802 387.751C732.486 407.759 738.446 393.8 705.799 406.252C700.479 408.991 699.058 413.269 696.839 418.822C693.98 425.97 693.423 429.599 696.664 436.581C703.041 450.322 710.72 437.418 724.82 451.842C730.583 457.737 730.771 470.15 737.473 480.169C742.429 487.576 758.814 489.838 763.897 499.975C768.023 508.206 762.335 521.969 766.348 532.238C769.76 540.973 772.383 550.462 775.593 560.814C778.404 569.882 779.913 579.66 782.487 590.065C784.79 599.361 791 608.167 793.061 618.598C795.171 629.275 799.627 639.609 800.039 650.124C800.46 660.91 790.838 670.943 789.711 681.479C788.566 692.165 794.702 703.7 792.215 714.04C789.702 724.475 791.496 736.633 787.869 746.631C784.198 756.746 776.729 765.727 772.177 775.295C767.528 785.069 757.989 792.208 752.709 801.312C747.227 810.761 737.85 817.182 731.999 825.799C725.767 834.968 719.373 843.072 713.093 851.163C706.119 860.147 706.676 874.383 700.142 881.86C692.217 890.937 682.476 896.771 676.047 903.332C662.148 917.515 657.451 909.363 648.562 922.696C647.847 929.796 657.114 942.883 661.451 954.914C664.705 963.943 671.196 972.91 674.661 982.767C682.757 1005.77 695.967 1012.62 693.739 994.829C691.221 974.703 678.371 982.838 703.247 967.296C713.027 961.186 721.268 952.981 726.969 957.732C735.771 965.06 725.794 973.739 729.693 985.621V985.643Z" stroke="white" stroke-width="4.58885" stroke-miterlimit="10"/>
<path d="M169.488 314.654C176.838 310.898 187.71 309.741 199.569 307.173C208.749 305.187 218.687 301.322 229.633 299.932C239.409 298.692 249.864 298.429 260.43 297.592C270.539 296.79 280.915 296.338 291.226 295.839C301.537 295.339 312.04 297.526 322.106 297.272C332.811 297 344.135 293.783 353.871 293.713C348.564 297.399 344.67 302.755 343.723 303.842C335.692 313.16 332.995 324.542 326.031 325.015C323.579 325.173 322.978 323.727 316.286 321.343C310.519 319.274 305.624 317.705 299.901 318.818C293.748 320.019 288.397 321.496 285.406 324.945C276.332 335.429 278.639 345.668 273.872 346.557C270.973 347.083 268.14 345.168 260.456 336.735C248.75 323.902 243.76 315.763 237.203 315.562C230.984 315.36 225.932 320.681 221.138 325.015C210.928 334.233 212.191 342.771 206.718 344.234C197.091 346.798 189.223 323.74 177.452 324.099C168.027 324.38 156.063 338.515 153.423 352.733C150.151 351.339 152.261 350.923 149.634 350.252C136.13 346.798 129.775 346.772 147.187 331.445C151.892 327.303 158.138 320.435 169.483 314.637L169.488 314.654Z" stroke="white" stroke-width="4.58885" stroke-miterlimit="10"/>
<path d="M674.186 356.199C666.248 355.682 650.227 356.085 630.785 350.409C618.018 346.679 611.975 340.929 606.668 337.462C600.046 333.136 596.002 326.663 583.073 323.766C568.675 320.536 556.877 322.162 547.22 323.174C534.62 324.493 525.055 326.904 513.661 318.958C508.104 315.079 500.933 310.056 495.087 312.594C489.579 315 488.86 320.01 483.886 320.978C479.435 321.833 478.128 317.411 470.843 315.881C465.927 314.847 460.743 315.991 451.331 321.005C443.034 325.431 443.801 329.854 437.073 332.856C435.464 333.588 419.842 338.817 417.342 335.459C415.522 333.009 425.434 328.096 426.368 320.566C427.469 311.656 418.193 301.904 409.299 295.352C415.505 295.496 414.07 294.379 418.917 294.747C433.802 295.873 430.469 296.215 448.612 298.082C457.208 298.967 467.019 302.364 478.031 303.613C487.347 304.67 497.482 304.512 507.819 305.805C517.463 307.014 527.568 307.194 537.563 308.592C547.558 309.99 557.487 310.814 567.206 312.366C577.332 313.979 586.99 317.161 596.379 318.94C606.883 320.93 616.874 322.464 625.693 324.634C637.271 327.482 646.587 331.703 653.665 334.806C669.397 341.705 675.559 349.971 674.19 356.195L674.186 356.199Z" stroke="white" stroke-width="4.58885" stroke-miterlimit="10"/>
<path d="M674.512 353.355C671.534 366.921 660.447 373.894 640.409 380.775C625.024 386.056 633.668 376.116 606.867 379.513C598.407 380.586 588.763 390.329 575.501 391.679C566.098 392.635 554.805 388.094 542.551 389.181C532.745 390.049 522.403 396.325 510.566 397.268C500.536 398.065 489.16 391.412 477.546 392.262C467.372 393.007 456.543 393.253 445.07 394.033C433.878 394.796 423.102 397.728 412.349 397.938C401.104 398.162 390.214 395.865 379.491 395.563C368.207 395.243 357.392 394.419 346.739 393.608C335.424 392.749 323.863 397.907 313.32 396.601C301.97 395.194 291.049 392.977 280.673 391.184C269.265 389.212 257.915 389.001 247.784 386.744C236.232 384.167 225.448 380.994 215.703 378.298C203.726 374.985 195.503 364.111 186.516 361.078C171.864 356.13 158.68 358.979 152.983 356.546C152.979 356.546 152.431 352.843 152.431 352.838C155.075 338.62 168.197 329.648 177.622 329.368C189.398 329.009 196.893 346.027 206.519 343.463C211.997 342.004 207.954 330.95 218.163 321.737C222.953 317.398 231.057 313.502 237.276 313.704C243.833 313.905 246.46 326.019 258.17 338.853C265.849 347.281 270.8 346.119 273.704 345.589C278.471 344.699 276.019 335.167 285.093 324.683C288.084 321.233 293.904 320.76 300.057 319.559C305.781 318.446 309.71 321.588 315.482 323.657C322.174 326.041 323.692 326.672 326.143 326.515C333.104 326.041 337.691 314.887 345.721 305.573C346.664 304.482 349.383 301.234 354.69 297.548C357.997 295.256 360.988 292.525 365.641 290.882C369.509 289.51 385.32 278.351 400.998 285.149C404.349 286.609 406.432 292.298 409.673 294.669C409.682 294.673 409.621 294.765 409.621 294.774C418.515 301.326 428.72 311.815 427.62 320.725C426.685 328.255 412.748 335.079 414.568 337.529C417.063 340.891 436.334 335.526 437.944 334.794C444.667 331.792 445.829 330.678 454.131 326.252C463.543 321.238 467.029 309.636 471.946 310.666C479.235 312.196 480.292 326.243 484.743 325.388C489.712 324.42 490.195 316.412 495.703 314.006C501.549 311.468 508.553 314.449 514.11 318.327C525.504 326.274 534.451 322.811 547.055 321.492C556.712 320.479 567.576 325.511 581.97 328.741C594.899 331.638 598.083 336.161 604.705 340.492C610.012 343.959 618.945 343.564 631.708 347.294C651.15 352.97 666.578 352.847 674.521 353.364L674.512 353.355Z" fill="white"/>
<path d="M674.512 353.355C671.534 366.921 660.447 373.894 640.409 380.775C625.024 386.056 633.668 376.116 606.867 379.513C598.407 380.586 588.763 390.329 575.501 391.679C566.098 392.635 554.805 388.094 542.551 389.181C532.745 390.049 522.403 396.325 510.566 397.268C500.536 398.065 489.16 391.412 477.546 392.262C467.372 393.007 456.543 393.253 445.07 394.033C433.878 394.796 423.102 397.728 412.349 397.938C401.104 398.162 390.214 395.865 379.491 395.563C368.207 395.243 357.392 394.419 346.739 393.608C335.424 392.749 323.863 397.907 313.32 396.601C301.97 395.194 291.049 392.977 280.673 391.184C269.265 389.212 257.915 389.001 247.784 386.744C236.232 384.167 225.448 380.994 215.703 378.298C203.726 374.985 195.503 364.111 186.516 361.078C171.864 356.13 158.68 358.979 152.983 356.546C152.979 356.546 152.431 352.843 152.431 352.838C155.075 338.62 168.197 329.648 177.622 329.368C189.398 329.009 196.893 346.027 206.519 343.463C211.997 342.004 207.954 330.95 218.163 321.737C222.953 317.398 231.057 313.502 237.276 313.704C243.833 313.905 246.46 326.019 258.17 338.853C265.849 347.281 270.8 346.119 273.704 345.589C278.471 344.699 276.019 335.167 285.093 324.683C288.084 321.233 293.904 320.76 300.057 319.559C305.781 318.446 309.71 321.588 315.482 323.657C322.174 326.041 323.692 326.672 326.143 326.515C333.104 326.041 337.691 314.887 345.721 305.573C346.664 304.482 349.383 301.234 354.69 297.548C357.997 295.256 360.988 292.525 365.641 290.882C369.509 289.51 385.32 278.351 400.998 285.149C404.349 286.609 406.432 292.298 409.673 294.669C409.682 294.673 409.621 294.765 409.621 294.774C418.515 301.326 428.72 311.815 427.62 320.725C426.685 328.255 412.748 335.079 414.568 337.529C417.063 340.891 436.334 335.526 437.944 334.794C444.667 331.792 445.829 330.678 454.131 326.252C463.543 321.238 467.029 309.636 471.946 310.666C479.235 312.196 480.292 326.243 484.743 325.388C489.712 324.42 490.195 316.412 495.703 314.006C501.549 311.468 508.553 314.449 514.11 318.327C525.504 326.274 534.451 322.811 547.055 321.492C556.712 320.479 567.576 325.511 581.97 328.741C594.899 331.638 598.083 336.161 604.705 340.492C610.012 343.959 618.945 343.564 631.708 347.294C651.15 352.97 666.578 352.847 674.521 353.364L674.512 353.355Z" stroke="white" stroke-width="4.58885" stroke-miterlimit="10"/>
<g clip-path="url(#clip0_1983_35883)">
<path d="M104.42 652.889L105.296 634.591L109.592 616.578L118.227 600.162L129.564 585.588L143.253 573.397L157.796 562.466L173.345 552.664L190.87 546.983L209.152 545.436L227.248 546.586L245.365 548.242L263.718 551.393L278.196 563.381L294.192 572.244L307.896 584.567L315.907 601.282L327.241 615.937L331.239 633.932L336.164 651.745L334.605 670.156L332.13 688.215L324.705 704.827L317.953 721.66L309.167 738.014L293.849 748.59L278.837 758.551L264.124 769.774L246.042 773.289L228.21 776.83L209.862 778.558L192.421 772.542L174.692 768.776L158.41 760.671L143.311 750.419L131.101 736.872L122.07 721.194L112.526 705.924L108.313 688.417L105.48 670.806L104.428 652.89L104.42 652.889ZM262.401 683.757L259.137 668.037L250.704 655.36L238.627 646.374L223.769 642.015L209.431 642.291L196.93 649.336L200.331 631.19L211.248 615.894L229.1 611.783L243.924 618.472L256.181 630.017L254.648 616.536L246.614 600.614L228.082 596.78L211.941 598.948L195.485 603.239L186.824 617.924L178.126 632.026L175.931 648.533L172.254 664.713L172.558 681.332L173.955 698.212L183.62 712.163L198.025 719.585L213.138 726.481L231.519 725.602L245.83 714.408L257.911 701.391L262.394 683.749L262.401 683.757ZM236.187 683.944L232.808 705.642L214.375 718.301L199.362 710.462L193.999 694.933L194.845 679.009L201.412 659.697L219.499 649.989L235.8 663.19L236.186 683.959L236.187 683.944Z" fill="white"/>
</g>
<g clip-path="url(#clip1_1983_35883)">
<path d="M302.19 676.75L303.066 658.452L307.362 640.44L315.996 624.023L327.334 609.45L341.022 597.259L355.565 586.327L371.114 576.525L388.639 570.845L406.922 569.298L425.017 570.447L443.134 572.103L461.487 575.255L475.966 587.242L491.962 596.105L505.666 608.428L513.677 625.143L525.01 639.798L529.009 657.794L533.934 675.606L532.374 694.017L529.9 712.077L522.474 728.688L515.722 745.521L506.937 761.875L491.619 772.451L476.607 782.412L461.893 793.635L443.811 797.15L425.98 800.692L407.632 802.419L390.191 796.403L372.462 792.637L356.179 784.532L341.081 774.281L328.871 760.733L319.84 745.056L310.296 729.785L306.082 712.278L303.249 694.667L302.197 676.751L302.19 676.75ZM460.171 707.619L456.907 691.898L448.474 679.221L436.396 670.236L421.538 665.876L407.201 666.152L394.7 673.197L398.101 655.051L409.018 639.756L426.87 635.644L441.694 642.333L453.95 653.879L452.417 640.397L444.383 624.475L425.851 620.642L409.71 622.81L393.254 627.1L384.594 641.785L375.895 655.888L373.7 672.394L370.024 688.574L370.327 705.194L371.724 722.073L381.389 736.024L395.795 743.446L410.907 750.342L429.288 749.464L443.599 738.27L455.681 725.252L460.164 707.611L460.171 707.619ZM433.956 707.806L430.578 729.503L412.144 742.163L397.132 734.324L391.769 718.795L392.615 702.87L399.182 683.558L417.268 673.85L433.57 687.051L433.955 707.82L433.956 707.806Z" fill="white"/>
</g>
<g clip-path="url(#clip2_1983_35883)">
<path d="M494.151 671.094L495.026 652.796L499.323 634.784L507.957 618.367L519.295 603.794L532.983 591.602L547.526 580.671L563.075 570.869L580.6 565.188L598.883 563.642L616.978 564.791L635.095 566.447L653.448 569.598L667.927 581.586L683.923 590.449L697.627 602.772L705.638 619.487L716.971 634.142L720.97 652.137L725.894 669.95L724.335 688.361L721.861 706.421L714.435 723.032L707.683 739.865L698.898 756.219L683.58 766.795L668.568 776.756L653.854 787.979L635.772 791.494L617.941 795.035L599.592 796.763L582.151 790.747L564.423 786.981L548.14 778.876L533.042 768.625L520.832 755.077L511.801 739.4L502.257 724.129L498.043 706.622L495.21 689.011L494.158 671.095L494.151 671.094ZM652.132 701.962L648.867 686.242L640.435 673.565L628.357 664.579L613.499 660.22L599.162 660.496L586.661 667.541L590.062 649.395L600.979 634.099L618.831 629.988L633.655 636.677L645.911 648.223L644.378 634.741L636.344 618.819L617.812 614.986L601.671 617.154L585.215 621.444L576.555 636.129L567.856 650.231L565.661 666.738L561.985 682.918L562.288 699.537L563.685 716.417L573.35 730.368L587.756 737.79L602.868 744.686L621.249 743.807L635.56 732.613L647.641 719.596L652.125 701.954L652.132 701.962ZM625.917 702.149L622.539 723.847L604.105 736.506L589.093 728.667L583.73 713.139L584.576 697.214L591.143 677.902L609.229 668.194L625.53 681.395L625.916 702.164L625.917 702.149Z" fill="white"/>
</g>
<g clip-path="url(#clip3_1983_35883)">
<path d="M839.204 308.075C839.204 311.437 832.343 314.375 831.951 317.633C831.55 320.963 833.061 324.353 832.279 327.547C831.482 330.797 828.212 332.961 827.041 336.046C825.871 339.132 825.098 342.029 823.559 344.955C822.008 347.904 826.641 354.692 824.757 357.413C822.866 360.15 820.056 362.803 817.856 365.284C815.652 367.768 810.903 368.109 808.419 370.313C805.938 372.513 802.019 372.837 799.286 374.729C796.561 376.612 794.216 378.904 791.267 380.455C788.341 381.994 784.755 381.653 781.633 382.84C778.547 384.01 775.738 385.208 772.492 386.005C769.246 386.803 766.14 386.11 762.81 386.51C759.552 386.903 756.642 390.193 753.28 390.193C749.918 390.193 747.113 386.037 743.855 385.645C740.524 385.244 737.627 385.312 734.433 384.527C731.239 383.741 727.805 384.551 724.723 383.381C721.601 382.198 717.946 382.515 715.021 380.976C712.071 379.425 708.529 378.74 705.804 376.857C703.079 374.973 702.842 370.012 700.358 367.812C697.873 365.612 697.416 361.998 695.212 359.513C693.008 357.029 685.738 358.736 683.847 355.999C681.955 353.262 680.505 350.028 678.954 347.082C677.415 344.157 678.777 339.897 677.591 336.776C676.405 333.654 669.668 332.123 668.867 328.873C668.081 325.679 676.381 320.794 675.98 317.464C675.587 314.206 674.045 311.437 674.045 308.071C674.045 304.705 674.634 301.824 675.026 298.566C675.427 295.236 672.914 291.653 673.7 288.46C674.497 285.21 675.507 282.108 676.677 279.026C677.848 275.945 682.42 274.626 683.959 271.701C685.51 268.752 685.626 265.41 687.51 262.685C689.401 259.948 687.129 253.905 689.329 251.42C691.533 248.936 696.855 249.392 699.34 247.192C701.824 244.992 706.281 245.834 709.018 243.946C711.743 242.063 712.588 237.711 715.534 236.16C718.459 234.621 720.531 231.143 723.649 229.961C726.767 228.779 730.83 231.011 734.08 230.213C737.274 229.428 739.839 225.228 743.169 224.828C746.499 224.427 749.914 229.204 753.276 229.204C756.638 229.204 759.516 229.516 762.774 229.905C766.104 230.306 770.32 225.176 773.514 225.958C776.708 226.739 777.766 234.193 780.847 235.363C783.929 236.533 786.402 237.831 789.327 239.37C792.253 240.909 796.601 239.47 799.326 241.354C802.051 243.237 803.734 246.118 806.215 248.318C808.695 250.518 809.677 253.676 811.881 256.161C814.085 258.645 816.149 260.645 818.041 263.378C819.932 266.111 820.906 268.824 822.457 271.773C823.996 274.698 828.139 276.117 829.322 279.235C830.504 282.352 832.772 285.033 833.57 288.283C834.355 291.477 832.107 295.12 832.508 298.45C832.908 301.78 839.208 304.709 839.208 308.075H839.204Z" fill="white"/>
<path d="M839.202 308.075C839.202 311.437 832.341 314.375 831.949 317.633C831.548 320.963 833.059 324.353 832.277 327.547C831.48 330.797 828.21 332.961 827.039 336.046C825.869 339.132 825.096 342.029 823.557 344.955C822.006 347.904 826.639 354.692 824.755 357.413C822.864 360.15 820.054 362.803 817.854 365.284C815.65 367.768 810.901 368.109 808.417 370.313C805.936 372.513 802.017 372.837 799.284 374.729C796.559 376.612 794.214 378.904 791.265 380.455C788.339 381.994 784.753 381.653 781.631 382.84C778.545 384.01 775.736 385.208 772.49 386.005C769.244 386.803 766.138 386.11 762.808 386.51C759.55 386.903 756.64 390.193 753.278 390.193C749.916 390.193 747.111 386.037 743.853 385.645C740.522 385.244 737.625 385.312 734.431 384.527C731.237 383.741 727.803 384.551 724.721 383.381C721.599 382.198 717.944 382.515 715.019 380.976C712.069 379.425 708.527 378.74 705.802 376.857C703.077 374.973 702.84 370.012 700.356 367.812C697.871 365.612 697.414 361.998 695.21 359.513C693.006 357.029 685.736 358.736 683.845 355.999C681.953 353.262 680.503 350.028 678.952 347.082C677.413 344.157 678.775 339.897 677.589 336.776C676.403 333.654 669.666 332.123 668.865 328.873C668.08 325.679 676.379 320.794 675.978 317.464C675.585 314.206 674.043 311.437 674.043 308.071C674.043 304.705 674.632 301.824 675.024 298.566C675.425 295.236 672.913 291.653 673.698 288.46C674.495 285.21 675.505 282.108 676.676 279.026C677.846 275.945 682.418 274.626 683.957 271.701C685.508 268.752 685.624 265.41 687.508 262.685C689.399 259.948 687.127 253.905 689.327 251.42C691.531 248.936 696.853 249.392 699.338 247.192C701.822 244.992 706.279 245.834 709.016 243.946C711.741 242.063 712.586 237.711 715.532 236.16C718.457 234.621 720.529 231.143 723.647 229.961C726.765 228.779 730.828 231.011 734.078 230.213C737.272 229.428 739.837 225.228 743.167 224.828C746.498 224.427 749.912 229.204 753.274 229.204C756.636 229.204 759.514 229.516 762.772 229.905C766.102 230.306 770.318 225.176 773.512 225.958C776.706 226.739 777.764 234.193 780.845 235.363C783.927 236.533 786.4 237.831 789.325 239.37C792.251 240.909 796.599 239.47 799.324 241.354C802.049 243.237 803.732 246.118 806.213 248.318C808.693 250.518 809.675 253.676 811.879 256.161C814.083 258.645 816.147 260.645 818.039 263.378C819.93 266.111 820.904 268.824 822.455 271.773C823.994 274.698 828.138 276.117 829.32 279.235C830.502 282.352 832.77 285.033 833.568 288.283C834.353 291.477 832.105 295.12 832.506 298.45C832.906 301.78 839.206 304.709 839.206 308.075H839.202Z" stroke="#111111" stroke-width="9" stroke-miterlimit="10"/>
</g>
<g clip-path="url(#clip4_1983_35883)">
<path d="M690.318 1100.1C691.465 1097.71 697.323 1097.97 698.713 1095.8C700.133 1093.57 700.221 1090.65 701.864 1088.66C703.538 1086.63 706.59 1086.21 708.472 1084.42C710.353 1082.63 711.889 1080.84 713.977 1079.29C716.081 1077.73 715.119 1071.34 717.381 1070.05C719.654 1068.76 722.547 1067.83 724.951 1066.83C727.359 1065.82 730.836 1067.19 733.346 1066.48C735.853 1065.76 738.737 1066.87 741.317 1066.46C743.888 1066.05 746.329 1065.23 748.946 1065.13C751.542 1065.04 753.964 1066.5 756.578 1066.73C759.161 1066.95 761.558 1067.06 764.127 1067.6C766.697 1068.14 768.658 1069.69 771.151 1070.54C773.591 1071.37 776.773 1070.03 779.152 1071.18C781.532 1072.32 782.099 1076.23 784.27 1077.61C786.49 1079.03 788.564 1079.97 790.556 1081.62C792.549 1083.26 795.255 1083.86 797.037 1085.74C798.843 1087.64 801.537 1088.66 803.082 1090.75C804.64 1092.85 806.914 1094.55 808.199 1096.81C809.485 1099.07 807.959 1102.67 808.967 1105.08C809.974 1107.48 809.064 1110.2 809.775 1112.71C810.487 1115.22 816.215 1116.49 816.619 1119.08C817.023 1121.66 816.946 1124.45 817.039 1127.06C817.129 1129.66 814.711 1132.22 814.485 1134.83C814.259 1137.45 818.504 1140.83 817.962 1143.41C817.428 1145.94 809.887 1146.57 809.034 1149.07C808.2 1151.51 808.347 1154 807.198 1156.39C806.049 1158.77 804.649 1160.61 803.259 1162.79C801.839 1165.01 802.394 1168.41 800.748 1170.4C799.075 1172.43 797.301 1174.29 795.421 1176.07C793.542 1177.86 789.856 1177.24 787.768 1178.78C785.664 1180.35 784.441 1182.68 782.178 1183.97C779.905 1185.26 779.451 1190.32 777.046 1191.33C774.638 1192.34 771.028 1190.2 768.518 1190.91C766.009 1191.63 763.143 1189.51 760.562 1189.92C757.99 1190.32 755.907 1193.12 753.293 1193.21C750.697 1193.31 748.044 1195.07 745.434 1194.84C742.824 1194.62 740.71 1191.65 738.138 1191.11C735.609 1190.58 732.361 1192.68 729.867 1191.83C727.374 1190.98 726.588 1186.43 724.209 1185.28C721.829 1184.14 719.899 1182.93 717.726 1181.55C715.506 1180.13 710.772 1182.33 708.779 1180.69C706.785 1179.04 708.58 1173.4 706.799 1171.52C705.017 1169.64 703.71 1167.88 702.165 1165.79C700.62 1163.7 697.052 1163.24 695.766 1160.98C694.481 1158.71 694.273 1156.1 693.268 1153.69C692.264 1151.29 692.647 1148.72 691.935 1146.2C691.223 1143.69 690.445 1141.57 690.039 1138.99C689.633 1136.41 689.87 1134.15 689.779 1131.53C689.689 1128.94 687.24 1126.52 687.468 1123.91C687.695 1121.29 687.005 1118.62 687.55 1116.05C688.084 1113.51 690.918 1111.7 691.771 1109.2C692.624 1106.71 689.166 1102.48 690.315 1100.1L690.318 1100.1Z" fill="white"/>
<path d="M690.318 1100.1C691.465 1097.71 697.323 1097.97 698.713 1095.8C700.133 1093.57 700.221 1090.65 701.864 1088.66C703.538 1086.63 706.59 1086.21 708.472 1084.42C710.353 1082.63 711.889 1080.84 713.977 1079.29C716.081 1077.73 715.119 1071.34 717.381 1070.05C719.654 1068.76 722.547 1067.83 724.951 1066.83C727.359 1065.82 730.836 1067.19 733.346 1066.48C735.853 1065.76 738.737 1066.87 741.317 1066.46C743.888 1066.05 746.329 1065.23 748.946 1065.13C751.542 1065.04 753.964 1066.5 756.578 1066.73C759.161 1066.95 761.558 1067.06 764.127 1067.6C766.697 1068.14 768.658 1069.69 771.151 1070.54C773.591 1071.37 776.773 1070.03 779.152 1071.18C781.532 1072.32 782.099 1076.23 784.27 1077.61C786.49 1079.03 788.564 1079.97 790.556 1081.62C792.549 1083.26 795.255 1083.86 797.037 1085.74C798.843 1087.64 801.537 1088.66 803.082 1090.75C804.64 1092.85 806.914 1094.55 808.199 1096.81C809.485 1099.07 807.959 1102.67 808.967 1105.08C809.974 1107.48 809.064 1110.2 809.775 1112.71C810.487 1115.22 816.215 1116.49 816.619 1119.08C817.023 1121.66 816.946 1124.45 817.039 1127.06C817.129 1129.66 814.711 1132.22 814.485 1134.83C814.259 1137.45 818.504 1140.83 817.962 1143.41C817.428 1145.94 809.887 1146.57 809.034 1149.07C808.2 1151.51 808.347 1154 807.198 1156.39C806.049 1158.77 804.649 1160.61 803.259 1162.79C801.839 1165.01 802.394 1168.41 800.748 1170.4C799.075 1172.43 797.301 1174.29 795.421 1176.07C793.542 1177.86 789.856 1177.24 787.768 1178.78C785.664 1180.35 784.441 1182.68 782.178 1183.97C779.905 1185.26 779.451 1190.32 777.046 1191.33C774.638 1192.34 771.028 1190.2 768.518 1190.91C766.009 1191.63 763.143 1189.51 760.562 1189.92C757.99 1190.32 755.907 1193.12 753.293 1193.21C750.697 1193.31 748.044 1195.07 745.434 1194.84C742.824 1194.62 740.71 1191.65 738.138 1191.11C735.609 1190.58 732.361 1192.68 729.867 1191.83C727.374 1190.98 726.588 1186.43 724.209 1185.28C721.829 1184.14 719.899 1182.93 717.726 1181.55C715.506 1180.13 710.772 1182.33 708.779 1180.69C706.785 1179.04 708.58 1173.4 706.799 1171.52C705.017 1169.64 703.71 1167.88 702.165 1165.79C700.62 1163.7 697.052 1163.24 695.766 1160.98C694.481 1158.71 694.273 1156.1 693.268 1153.69C692.264 1151.29 692.647 1148.72 691.935 1146.2C691.223 1143.69 690.445 1141.57 690.039 1138.99C689.633 1136.41 689.87 1134.15 689.779 1131.53C689.689 1128.94 687.24 1126.52 687.468 1123.91C687.695 1121.29 687.005 1118.62 687.55 1116.05C688.084 1113.51 690.918 1111.7 691.771 1109.2C692.624 1106.71 689.166 1102.48 690.315 1100.1L690.318 1100.1Z" stroke="#111111" stroke-width="9" stroke-miterlimit="10"/>
</g>
<g clip-path="url(#clip5_1983_35883)">
<path d="M16.424 802.869C15.7896 801.77 17.4741 799.518 16.9876 798.379C16.49 797.215 15.3574 796.392 15.0097 795.201C14.6568 793.988 15.3156 792.665 15.1152 791.436C14.9148 790.207 14.6206 789.115 14.5708 787.869C14.5204 786.613 11.7278 785.267 11.829 784.023C11.9299 782.772 12.346 781.376 12.5959 780.151C12.8463 778.924 14.3317 777.918 14.7266 776.729C15.121 775.543 16.3386 774.699 16.8736 773.566C17.4075 772.437 17.74 771.246 18.4098 770.183C19.0741 769.129 20.3088 768.565 21.1036 767.589C21.8898 766.625 22.5804 765.705 23.4892 764.832C24.3979 763.96 25.5422 763.602 26.5533 762.843C27.5423 762.101 27.871 760.478 28.9681 759.844C30.0653 759.211 31.7647 760.041 32.902 759.555C34.0643 759.059 34.9969 758.491 36.1873 758.145C37.3777 757.8 38.3457 756.889 39.5721 756.691C40.8138 756.489 41.9467 755.697 43.1917 755.649C44.4468 755.6 45.732 755.156 46.9766 755.258C48.2212 755.36 49.2345 756.937 50.4603 757.188C51.6862 757.439 52.5173 758.534 53.7053 758.931C54.8933 759.328 56.9434 757.4 58.077 757.938C59.2107 758.476 60.2942 759.26 61.356 759.93C62.4101 760.596 62.7693 762.245 63.7453 763.042C64.7214 763.839 67.2085 763.07 68.0832 763.981C68.9422 764.877 67.1556 768.037 67.9147 769.049C68.6576 770.04 69.6835 770.654 70.3186 771.754C70.9538 772.855 71.3052 773.907 71.7917 775.046C72.2893 776.21 73.7852 776.907 74.1315 778.099C74.4844 779.311 74.7401 780.515 74.9397 781.743C75.1393 782.97 73.896 784.262 73.9458 785.508C73.9962 786.764 74.5889 787.879 74.4884 789.124C74.3876 790.375 76.2693 791.922 76.0201 793.148C75.7697 794.375 73.9469 795.229 73.5512 796.416C73.1555 797.603 71.5426 798.167 71.0056 799.3C70.4717 800.429 71.0169 802.01 70.3484 803.072C69.6841 804.126 69.6643 805.653 68.87 806.627C68.0757 807.6 66.3285 807.637 65.4184 808.509C64.5244 809.368 64.4799 811.224 63.4688 811.982C62.4577 812.74 60.4423 811.822 59.3451 812.456C58.248 813.089 57.2501 813.529 56.1136 814.016C54.9513 814.513 54.5434 816.983 53.3537 817.329C52.1641 817.676 50.4125 815.439 49.1861 815.637C47.9597 815.836 46.9078 815.877 45.6629 815.925C44.4179 815.974 43.2705 817.263 42.0259 817.161C40.7813 817.059 39.6885 816.434 38.4639 816.183C37.2393 815.931 36.3231 815.084 35.1351 814.687C33.9471 814.291 32.8964 814.026 31.7635 813.489C30.6306 812.952 29.8009 812.249 28.7383 811.577C27.6842 810.911 26.0644 811.228 25.0904 810.432C24.1164 809.636 22.8704 809.187 21.997 808.275C21.138 807.38 21.1844 805.766 20.4253 804.753C19.6662 803.74 17.0578 803.97 16.4227 802.87L16.424 802.869Z" fill="white"/>
<path d="M16.424 802.869C15.7896 801.77 17.4741 799.518 16.9876 798.379C16.49 797.215 15.3574 796.392 15.0097 795.201C14.6568 793.988 15.3156 792.665 15.1152 791.436C14.9148 790.207 14.6206 789.115 14.5708 787.869C14.5204 786.613 11.7278 785.267 11.829 784.023C11.9299 782.772 12.346 781.376 12.5959 780.151C12.8463 778.924 14.3317 777.918 14.7266 776.729C15.121 775.543 16.3386 774.699 16.8736 773.566C17.4075 772.437 17.74 771.246 18.4098 770.183C19.0741 769.129 20.3088 768.565 21.1036 767.589C21.8898 766.625 22.5804 765.705 23.4892 764.832C24.3979 763.96 25.5422 763.602 26.5533 762.843C27.5423 762.101 27.871 760.478 28.9681 759.844C30.0653 759.211 31.7647 760.041 32.902 759.555C34.0643 759.059 34.9969 758.491 36.1873 758.145C37.3777 757.8 38.3457 756.889 39.5721 756.691C40.8138 756.489 41.9467 755.697 43.1917 755.649C44.4468 755.6 45.732 755.156 46.9766 755.258C48.2212 755.36 49.2345 756.937 50.4603 757.188C51.6862 757.439 52.5173 758.534 53.7053 758.931C54.8933 759.328 56.9434 757.4 58.077 757.938C59.2107 758.476 60.2942 759.26 61.356 759.93C62.4101 760.596 62.7693 762.245 63.7453 763.042C64.7214 763.839 67.2085 763.07 68.0832 763.981C68.9422 764.877 67.1556 768.037 67.9147 769.049C68.6576 770.04 69.6835 770.654 70.3186 771.754C70.9538 772.855 71.3052 773.907 71.7917 775.046C72.2893 776.21 73.7852 776.907 74.1315 778.099C74.4844 779.311 74.7401 780.515 74.9397 781.743C75.1393 782.97 73.896 784.262 73.9458 785.508C73.9962 786.764 74.5889 787.879 74.4884 789.124C74.3876 790.375 76.2693 791.922 76.0201 793.148C75.7697 794.375 73.9469 795.229 73.5512 796.416C73.1555 797.603 71.5426 798.167 71.0056 799.3C70.4717 800.429 71.0169 802.01 70.3484 803.072C69.6841 804.126 69.6643 805.653 68.87 806.627C68.0757 807.6 66.3285 807.637 65.4184 808.509C64.5244 809.368 64.4799 811.224 63.4688 811.982C62.4577 812.74 60.4423 811.822 59.3451 812.456C58.248 813.089 57.2501 813.529 56.1136 814.016C54.9513 814.513 54.5434 816.983 53.3537 817.329C52.1641 817.676 50.4125 815.439 49.1861 815.637C47.9597 815.836 46.9078 815.877 45.6629 815.925C44.4179 815.974 43.2705 817.263 42.0259 817.161C40.7813 817.059 39.6885 816.434 38.4639 816.183C37.2393 815.931 36.3231 815.084 35.1351 814.687C33.9471 814.291 32.8964 814.026 31.7635 813.489C30.6306 812.952 29.8009 812.249 28.7383 811.577C27.6842 810.911 26.0644 811.228 25.0904 810.432C24.1164 809.636 22.8704 809.187 21.997 808.275C21.138 807.38 21.1844 805.766 20.4253 804.753C19.6662 803.74 17.0578 803.97 16.4227 802.87L16.424 802.869Z" stroke="#111111" stroke-width="9" stroke-miterlimit="10"/>
</g>
<g clip-path="url(#clip6_1983_35883)">
<path d="M661.516 42.6427C662.33 40.9518 666.487 41.1336 667.473 39.5902C668.481 38.0124 668.543 35.9421 669.709 34.5249C670.896 33.0833 673.062 32.7858 674.397 31.517C675.732 30.2482 676.822 28.9782 678.303 27.8792C679.796 26.7709 679.114 22.2368 680.719 21.3239C682.332 20.4048 684.385 19.75 686.09 19.0346C687.799 18.3181 690.266 19.2951 692.047 18.7875C693.826 18.281 695.872 19.0655 697.703 18.7751C699.527 18.4869 701.26 17.9011 703.116 17.8344C704.958 17.7679 706.676 18.8065 708.531 18.9649C710.364 19.1226 712.065 19.1993 713.888 19.5832C715.711 19.9671 717.103 21.0668 718.872 21.6705C720.603 22.2609 722.861 21.3099 724.549 22.1229C726.238 22.9359 726.64 25.7041 728.181 26.6895C729.756 27.6963 731.228 28.3627 732.641 29.53C734.055 30.6973 735.975 31.1207 737.24 32.4544C738.521 33.8038 740.433 34.5284 741.529 36.0096C742.635 37.5028 744.248 38.704 745.16 40.3102C746.072 41.9163 744.989 44.4684 745.704 46.1756C746.419 47.8829 745.773 49.8111 746.278 51.5936C746.783 53.376 750.847 54.2754 751.134 56.1092C751.421 57.9431 751.366 59.9202 751.432 61.7765C751.496 63.6197 749.78 65.4325 749.62 67.2893C749.46 69.146 752.472 71.5448 752.087 73.373C751.708 75.1692 746.357 75.6189 745.752 77.3905C745.16 79.1239 745.265 80.8895 744.449 82.5824C743.634 84.2752 742.641 85.5818 741.654 87.1252C740.647 88.703 741.041 91.1123 739.873 92.5285C738.685 93.9701 737.427 95.2857 736.093 96.5525C734.759 97.8193 732.144 97.3766 730.663 98.4757C729.17 99.5839 728.302 101.237 726.696 102.151C725.084 103.071 724.761 106.659 723.055 107.377C721.346 108.093 718.784 106.576 717.004 107.082C715.224 107.588 713.19 106.087 711.358 106.374C709.534 106.662 708.055 108.646 706.2 108.714C704.359 108.781 702.476 110.029 700.624 109.869C698.772 109.71 697.272 107.605 695.447 107.22C693.653 106.843 691.348 108.334 689.579 107.731C687.81 107.127 687.252 103.899 685.564 103.086C683.875 102.273 682.506 101.42 680.964 100.437C679.389 99.4299 676.03 100.99 674.615 99.8247C673.201 98.6594 674.474 94.6551 673.21 93.3214C671.946 91.9878 671.019 90.7369 669.923 89.2556C668.826 87.7743 666.295 87.4464 665.382 85.8403C664.47 84.2341 664.323 82.3781 663.61 80.6719C662.897 78.9657 663.169 77.1402 662.663 75.3577C662.158 73.5753 661.606 72.0706 661.318 70.2388C661.03 68.4069 661.198 66.8071 661.134 64.9488C661.07 63.1056 659.332 61.3901 659.494 59.5364C659.655 57.6826 659.165 55.7859 659.552 53.9587C659.931 52.1625 661.942 50.8743 662.547 49.1027C663.153 47.3311 660.699 44.3345 661.514 42.6417L661.516 42.6427Z" fill="white"/>
<path d="M661.516 42.6427C662.33 40.9518 666.487 41.1336 667.473 39.5902C668.481 38.0124 668.543 35.9421 669.709 34.5249C670.896 33.0833 673.062 32.7858 674.397 31.517C675.732 30.2482 676.822 28.9782 678.303 27.8792C679.796 26.7709 679.114 22.2368 680.719 21.3239C682.332 20.4048 684.385 19.75 686.09 19.0346C687.799 18.3181 690.266 19.2951 692.047 18.7875C693.826 18.281 695.872 19.0655 697.703 18.7751C699.527 18.4869 701.26 17.9011 703.116 17.8344C704.958 17.7679 706.676 18.8065 708.531 18.9649C710.364 19.1226 712.065 19.1993 713.888 19.5832C715.711 19.9671 717.103 21.0668 718.872 21.6705C720.603 22.2609 722.861 21.3099 724.549 22.1229C726.238 22.9359 726.64 25.7041 728.181 26.6895C729.756 27.6963 731.228 28.3627 732.641 29.53C734.055 30.6973 735.975 31.1207 737.24 32.4544C738.521 33.8038 740.433 34.5284 741.529 36.0096C742.635 37.5028 744.248 38.704 745.16 40.3102C746.072 41.9163 744.989 44.4684 745.704 46.1756C746.419 47.8829 745.773 49.8111 746.278 51.5936C746.783 53.376 750.847 54.2754 751.134 56.1092C751.421 57.9431 751.366 59.9202 751.432 61.7765C751.496 63.6197 749.78 65.4325 749.62 67.2893C749.46 69.146 752.472 71.5448 752.087 73.373C751.708 75.1692 746.357 75.6189 745.752 77.3905C745.16 79.1239 745.265 80.8895 744.449 82.5824C743.634 84.2752 742.641 85.5818 741.654 87.1252C740.647 88.703 741.041 91.1123 739.873 92.5285C738.685 93.9701 737.427 95.2857 736.093 96.5525C734.759 97.8193 732.144 97.3766 730.663 98.4757C729.17 99.5839 728.302 101.237 726.696 102.151C725.084 103.071 724.761 106.659 723.055 107.377C721.346 108.093 718.784 106.576 717.004 107.082C715.224 107.588 713.19 106.087 711.358 106.374C709.534 106.662 708.055 108.646 706.2 108.714C704.359 108.781 702.476 110.029 700.624 109.869C698.772 109.71 697.272 107.605 695.447 107.22C693.653 106.843 691.348 108.334 689.579 107.731C687.81 107.127 687.252 103.899 685.564 103.086C683.875 102.273 682.506 101.42 680.964 100.437C679.389 99.4299 676.03 100.99 674.615 99.8247C673.201 98.6594 674.474 94.6551 673.21 93.3214C671.946 91.9878 671.019 90.7369 669.923 89.2556C668.826 87.7743 666.295 87.4464 665.382 85.8403C664.47 84.2341 664.323 82.3781 663.61 80.6719C662.897 78.9657 663.169 77.1402 662.663 75.3577C662.158 73.5753 661.606 72.0706 661.318 70.2388C661.03 68.4069 661.198 66.8071 661.134 64.9488C661.07 63.1056 659.332 61.3901 659.494 59.5364C659.655 57.6826 659.165 55.7859 659.552 53.9587C659.931 52.1625 661.942 50.8743 662.547 49.1027C663.153 47.3311 660.699 44.3345 661.514 42.6417L661.516 42.6427Z" stroke="#111111" stroke-width="9" stroke-miterlimit="10"/>
</g>
<defs>
<clipPath id="clip0_1983_35883">
<rect width="232" height="234" fill="white" transform="translate(325.998 787.27) rotate(-175.71)"/>
</clipPath>
<clipPath id="clip1_1983_35883">
<rect width="232" height="234" fill="white" transform="translate(523.768 811.131) rotate(-175.71)"/>
</clipPath>
<clipPath id="clip2_1983_35883">
<rect width="232" height="234" fill="white" transform="translate(715.729 805.475) rotate(-175.71)"/>
</clipPath>
<clipPath id="clip3_1983_35883">
<rect width="174" height="169" fill="white" transform="translate(667.006 223)"/>
</clipPath>
<clipPath id="clip4_1983_35883">
<rect width="136.672" height="132.945" fill="white" transform="translate(783.143 1219.08) rotate(-154.287)"/>
</clipPath>
<clipPath id="clip5_1983_35883">
<rect width="65.5624" height="63.7743" fill="white" transform="translate(88.666 798.23) rotate(150)"/>
</clipPath>
<clipPath id="clip6_1983_35883">
<rect width="96.9768" height="94.332" fill="white" transform="translate(727.381 127.066) rotate(-154.287)"/>
</clipPath>
</defs>
</svg>
