<svg width="546" height="693" viewBox="0 0 546 693" fill="none" xmlns="http://www.w3.org/2000/svg">
<path d="M205.468 387.948L212.653 381.6L222.407 379.791L230.666 375.287L236.533 367.133L245.376 363.543L255.401 361.388L262.199 354.736L266.815 345.523L273.075 338.554L284.257 337.04L288.991 328.385L293.767 320.014L301.343 314.388L310.367 309.835L315.519 301.886L321.489 294.634L322.564 294.501L328.567 288.855L334.856 283.34L341.866 278.451L348.896 272.003L358.401 274.208L366.883 272.752L374.946 268.583L384.862 272.005L376.938 263.256L368.359 260.015L358.708 260.433L350.4 256.563L340.957 257.624L332.376 254.792L323.818 250.53L314.366 255.937L305.635 251.06L296.712 253.974L287.517 250.168L278.322 249.707L270.127 255.735L261.189 256.5L251.869 256.334L244.497 262.752L235.323 263.552L228.545 270.277L219.707 272.16L210.398 273.917L202.178 278.118L197.359 286.227L193.516 294.544L188.214 301.359L180.839 307.215L177.55 315.542L172.382 323.226L174.804 333.105L172.552 341.547L168.421 350.187L171.063 356.82L165.44 348.976L164.373 339.954L163.12 331.084L160.064 322.532L158.968 313.626L160.096 304.589L159.091 295.723L163.226 287.024L163.59 278.344L165.079 270.301L170.351 266.593L179.662 264.856L185.738 257.121L193.344 252.342L194.462 243.349L196.761 235.454L203.889 228.213L203.687 219.472L200.881 210.783L203.646 202.254L205.291 193.379L204.097 183.901L206.924 174.741L214.05 168.188L221.837 162.148L224.368 158.941L215.856 163.384L207.833 169.002L198.85 170.625L190.44 173.16L184.093 178.577L172.91 179.09L169.98 189.076L164.756 196.137L160.164 203.491L155.347 210.699L152.284 218.787L146.354 226.69L146.643 235.964L146.791 245.304L153.72 254.663L153.463 265.64L155.905 274.404L155.084 283.374L154.393 292.352L149.588 301.198L155.097 310.283L155.096 319.137L158.175 326.905L158.9 338.732L155.72 329.938L154.084 320.285L147.481 312.956L146.271 302.779L139.516 295.674L136.334 286.225L126.463 281.776L119.7 275.309L112.528 269.481L107.154 260.963L99.159 255.273L88.8233 256.791L79.9115 252.257L71.3004 257.671L61.9358 258.213L53.3199 261.47L45.2445 265.788L36.6459 269.665L29.7446 276.03L22.3255 282.505L21.0521 292.462L15.373 300.697L13.5498 310.492L16.1456 320.596L22.4607 328.663L27.8668 337.843L38.317 340.235L48.1048 337.244L56.5463 332.875L62.0595 328.303L64.9772 321.751L60.4812 315.443L54.0304 307.591L48.2877 314.449L41.9933 318.196L40.9456 330.796L30.3332 327.328L24.3022 319.422L22.5949 309.374L27.2671 300.949L32.7226 293.777L42.0954 291.835L51.1079 287.762L60.213 292.758L69.1859 294.018L77.8993 296.543L87.1841 297.407L95.6586 300.994L103.491 305.821L111.924 309.643L117.806 317.022L123.988 323.59L132.047 328.437L140.416 333.653L145.032 341.854L147.734 350.95L149.136 360.31L153.284 368.359L157.511 376.638L163.856 385.343L167.921 395.057L168.954 405.478L165.049 415.47L169.522 424.448L168.258 434.109L173.882 442.989L173.378 452.583L175.021 462.046L173.193 471.435L167.712 480.321L170.833 490.158L167.397 499.012L167.226 509.066L159.303 515.42L152.891 524.372L143.91 520.815L152.045 526.741L159.803 533.515L168.563 527.851L177.88 529L176.547 518.825L180.471 509.807L184.707 500.696L181.999 491.006L185.182 481.778L182.283 472.116L181.246 462.596L184.733 453.37L181.651 443.732L186.397 434.567L183.871 424.97L187.23 415.713L185.806 406.064L189.139 396.908L198.604 393.612L205.468 387.948Z" fill="white"/>
<path d="M205.468 387.948L206.641 389.273L206.619 389.292L206.596 389.311L205.468 387.948ZM212.653 381.6L211.48 380.274L211.841 379.955L212.316 379.867L212.653 381.6ZM222.407 379.791L223.261 381.34L223.018 381.473L222.744 381.524L222.407 379.791ZM230.666 375.287L232.099 376.325L231.868 376.646L231.521 376.835L230.666 375.287ZM236.533 367.133L235.101 366.095L235.393 365.688L235.858 365.5L236.533 367.133ZM245.376 363.543L244.701 361.91L244.842 361.853L244.99 361.821L245.376 363.543ZM255.401 361.388L256.638 362.653L256.279 363.005L255.786 363.111L255.401 361.388ZM262.199 354.736L263.775 355.538L263.644 355.798L263.436 356.002L262.199 354.736ZM266.815 345.523L265.239 344.721L265.344 344.512L265.5 344.338L266.815 345.523ZM273.075 338.554L271.76 337.37L272.187 336.894L272.823 336.808L273.075 338.554ZM284.257 337.04L285.803 337.897L285.382 338.668L284.509 338.786L284.257 337.04ZM288.991 328.385L287.444 327.528L287.451 327.515L287.459 327.501L288.991 328.385ZM293.767 320.014L292.235 319.129L292.416 318.813L292.709 318.595L293.767 320.014ZM301.343 314.388L300.285 312.97L300.405 312.881L300.538 312.814L301.343 314.388ZM310.367 309.835L311.848 310.803L311.592 311.198L311.172 311.409L310.367 309.835ZM315.519 301.886L314.038 300.918L314.092 300.835L314.155 300.758L315.519 301.886ZM321.489 294.634L320.125 293.506L320.566 292.971L321.256 292.885L321.489 294.634ZM322.564 294.501L323.777 295.789L323.363 296.179L322.797 296.249L322.564 294.501ZM328.567 288.855L327.354 287.566L327.376 287.545L327.399 287.525L328.567 288.855ZM334.856 283.34L333.688 282.01L333.761 281.947L333.84 281.892L334.856 283.34ZM341.866 278.451L343.063 279.755L342.977 279.833L342.882 279.899L341.866 278.451ZM348.896 272.003L347.699 270.699L348.377 270.078L349.279 270.287L348.896 272.003ZM358.401 274.208L358.715 275.945L358.365 276.005L358.019 275.924L358.401 274.208ZM366.883 272.752L367.704 274.319L367.464 274.443L367.197 274.489L366.883 272.752ZM374.946 268.583L374.126 267.017L374.793 266.672L375.506 266.919L374.946 268.583ZM384.862 272.005L386.162 270.829L390.749 275.894L384.302 273.669L384.862 272.005ZM376.938 263.256L377.547 261.608L377.949 261.76L378.238 262.08L376.938 263.256ZM368.359 260.015L368.266 258.255L368.628 258.239L368.968 258.367L368.359 260.015ZM358.708 260.433L358.801 262.193L358.37 262.212L357.977 262.029L358.708 260.433ZM350.4 256.563L350.187 254.812L350.68 254.757L351.131 254.967L350.4 256.563ZM340.957 257.624L341.17 259.375L340.788 259.418L340.42 259.296L340.957 257.624ZM332.376 254.792L331.839 256.464L331.717 256.424L331.603 256.367L332.376 254.792ZM323.818 250.53L322.933 248.999L323.746 248.534L324.591 248.955L323.818 250.53ZM314.366 255.937L315.252 257.469L314.391 257.961L313.519 257.474L314.366 255.937ZM305.635 251.06L305.074 249.384L305.806 249.145L306.483 249.523L305.635 251.06ZM296.712 253.974L297.273 255.649L296.656 255.851L296.052 255.601L296.712 253.974ZM287.517 250.168L287.589 248.408L287.894 248.424L288.178 248.541L287.517 250.168ZM278.322 249.707L277.27 248.285L277.77 247.917L278.393 247.948L278.322 249.707ZM270.127 255.735L271.179 257.158L270.784 257.449L270.294 257.49L270.127 255.735ZM261.189 256.5L261.355 258.255L261.265 258.263L261.174 258.261L261.189 256.5ZM251.869 256.334L250.706 255L251.211 254.561L251.884 254.573L251.869 256.334ZM244.497 262.752L245.66 264.085L245.233 264.457L244.666 264.507L244.497 262.752ZM235.323 263.552L234.077 262.295L234.524 261.852L235.154 261.797L235.323 263.552ZM228.545 270.277L229.791 271.534L229.428 271.894L228.927 272.001L228.545 270.277ZM219.707 272.16L220.089 273.883L220.069 273.887L220.049 273.891L219.707 272.16ZM210.398 273.917L209.585 272.347L209.808 272.233L210.055 272.186L210.398 273.917ZM202.178 278.118L200.662 277.207L200.918 276.776L201.365 276.548L202.178 278.118ZM197.359 286.227L195.76 285.475L195.797 285.394L195.843 285.316L197.359 286.227ZM193.516 294.544L195.116 295.295L195.033 295.477L194.91 295.634L193.516 294.544ZM188.214 301.359L189.607 302.449L189.48 302.613L189.317 302.743L188.214 301.359ZM180.839 307.215L179.2 306.554L179.371 306.12L179.736 305.831L180.839 307.215ZM177.55 315.542L179.189 316.202L179.12 316.378L179.014 316.535L177.55 315.542ZM172.382 323.226L170.672 323.63L170.486 322.875L170.918 322.233L172.382 323.226ZM174.804 333.105L176.514 332.701L176.622 333.14L176.506 333.575L174.804 333.105ZM172.552 341.547L174.253 342.016L174.212 342.173L174.142 342.319L172.552 341.547ZM168.421 350.187L166.786 350.826L166.5 350.108L166.831 349.415L168.421 350.187ZM171.063 356.82L172.698 356.181L178.011 369.52L169.635 357.837L171.063 356.82ZM165.44 348.976L164.012 349.994L163.744 349.621L163.691 349.167L165.44 348.976ZM164.373 339.954L166.117 339.724L166.119 339.743L166.122 339.763L164.373 339.954ZM163.12 331.084L164.778 330.505L164.839 330.676L164.864 330.854L163.12 331.084ZM160.064 322.532L158.407 323.111L158.34 322.926L158.316 322.731L160.064 322.532ZM158.968 313.626L157.22 313.824L157.193 313.607L157.22 313.391L158.968 313.626ZM160.096 304.589L161.846 304.407L161.87 304.616L161.844 304.824L160.096 304.589ZM159.091 295.723L157.342 295.905L157.285 295.406L157.5 294.954L159.091 295.723ZM163.226 287.024L164.985 287.115L164.97 287.472L164.817 287.793L163.226 287.024ZM163.59 278.344L161.831 278.253L161.836 278.129L161.859 278.007L163.59 278.344ZM165.079 270.301L163.347 269.965L163.477 269.265L164.057 268.857L165.079 270.301ZM170.351 266.593L169.329 265.148L169.638 264.93L170.012 264.861L170.351 266.593ZM179.662 264.856L181.051 265.952L180.646 266.467L180.001 266.588L179.662 264.856ZM185.738 257.121L184.35 256.024L184.536 255.787L184.792 255.626L185.738 257.121ZM193.345 252.342L195.092 252.576L194.99 253.397L194.291 253.836L193.345 252.342ZM194.462 243.349L192.715 243.115L192.732 242.976L192.771 242.841L194.462 243.349ZM196.761 235.454L195.07 234.947L195.193 234.525L195.501 234.212L196.761 235.454ZM203.889 228.213L205.649 228.189L205.666 228.93L205.149 229.455L203.889 228.213ZM203.687 219.472L205.362 218.945L205.442 219.19L205.448 219.448L203.687 219.472ZM200.881 210.783L199.206 211.31L199.03 210.766L199.205 210.225L200.881 210.783ZM203.646 202.254L205.377 202.591L205.357 202.703L205.322 202.812L203.646 202.254ZM205.291 193.379L207.038 193.175L207.072 193.447L207.023 193.716L205.291 193.379ZM204.097 183.901L202.35 184.105L202.303 183.728L202.414 183.367L204.097 183.901ZM206.924 174.741L205.241 174.207L205.38 173.757L205.726 173.439L206.924 174.741ZM214.05 168.188L212.852 166.886L212.905 166.837L212.963 166.792L214.05 168.188ZM221.837 162.148L223.223 163.248L223.091 163.415L222.924 163.544L221.837 162.148ZM224.368 158.941L223.541 157.378L230.879 153.548L225.754 160.041L224.368 158.941ZM215.856 163.384L214.837 161.938L214.93 161.873L215.03 161.821L215.856 163.384ZM207.833 169.002L208.852 170.449L208.539 170.668L208.162 170.736L207.833 169.002ZM198.85 170.625L198.327 168.938L198.423 168.909L198.521 168.891L198.85 170.625ZM190.44 173.16L189.29 171.815L189.568 171.578L189.918 171.472L190.44 173.16ZM184.093 178.577L185.244 179.921L184.789 180.309L184.191 180.336L184.093 178.577ZM172.91 179.09L171.219 178.579L171.569 177.387L172.812 177.33L172.91 179.09ZM169.98 189.076L171.67 189.587L171.583 189.884L171.399 190.133L169.98 189.076ZM164.756 196.137L163.26 195.193L163.296 195.135L163.337 195.08L164.756 196.137ZM160.164 203.491L161.66 204.435L161.646 204.458L161.631 204.48L160.164 203.491ZM155.347 210.699L153.699 210.061L153.77 209.875L153.88 209.71L155.347 210.699ZM152.284 218.787L153.931 219.424L153.844 219.655L153.696 219.853L152.284 218.787ZM146.354 226.69L144.593 226.728L144.574 226.113L144.942 225.624L146.354 226.69ZM146.643 235.964L148.403 235.926L148.403 235.94L148.404 235.953L146.643 235.964ZM146.791 245.304L145.379 246.344L145.039 245.884L145.03 245.315L146.791 245.304ZM153.72 254.663L155.131 253.623L155.495 254.114L155.48 254.721L153.72 254.663ZM153.463 265.64L151.767 266.098L151.696 265.844L151.702 265.582L153.463 265.64ZM155.905 274.404L157.601 273.946L157.688 274.259L157.659 274.581L155.905 274.404ZM155.084 283.374L153.328 283.222L153.329 283.209L153.33 283.197L155.084 283.374ZM154.393 292.352L156.149 292.503L156.12 292.876L155.942 293.204L154.393 292.352ZM149.588 301.198L148.084 302.101L147.557 301.231L148.039 300.345L149.588 301.198ZM155.097 310.283L156.601 309.38L156.858 309.805L156.858 310.3L155.097 310.283ZM155.096 319.137L153.459 319.773L153.334 319.458L153.335 319.12L155.096 319.137ZM158.175 326.905L159.811 326.269L159.915 326.532L159.932 326.813L158.175 326.905ZM158.9 338.732L160.658 338.641L161.405 350.821L157.245 339.317L158.9 338.732ZM155.72 329.938L154.064 330.523L154.01 330.373L153.984 330.216L155.72 329.938ZM154.084 320.285L155.387 319.113L155.734 319.497L155.82 320.007L154.084 320.285ZM147.481 312.956L146.177 314.128L145.798 313.707L145.732 313.147L147.481 312.956ZM146.271 302.779L147.541 301.571L147.95 302.001L148.019 302.587L146.271 302.779ZM139.516 295.674L138.246 296.882L137.974 296.596L137.848 296.223L139.516 295.674ZM136.334 286.225L137.045 284.62L137.754 284.94L138.002 285.677L136.334 286.225ZM126.463 281.776L125.752 283.381L125.474 283.255L125.252 283.044L126.463 281.776ZM119.7 275.309L120.802 273.946L120.858 273.992L120.911 274.041L119.7 275.309ZM112.528 269.481L111.425 270.844L111.197 270.659L111.041 270.411L112.528 269.481ZM107.154 260.963L108.165 259.53L108.452 259.735L108.64 260.033L107.154 260.963ZM99.159 255.273L98.8869 253.53L99.5891 253.427L100.171 253.841L99.159 255.273ZM88.8233 256.791L89.0954 258.534L88.5399 258.616L88.0369 258.36L88.8233 256.791ZM79.9115 252.257L78.9642 250.763L79.8053 250.234L80.6979 250.689L79.9115 252.257ZM71.3003 257.671L72.2476 259.165L71.868 259.404L71.4187 259.43L71.3003 257.671ZM61.9358 258.213L61.2996 256.564L61.5497 256.47L61.8174 256.454L61.9358 258.213ZM53.3199 261.47L52.4782 259.914L52.5779 259.861L52.6837 259.821L53.3199 261.47ZM45.2445 265.788L46.0862 267.343L46.0344 267.371L45.9808 267.395L45.2445 265.788ZM36.6459 269.665L35.4456 268.365L35.6526 268.174L35.9096 268.058L36.6459 269.665ZM29.7446 276.03L30.9449 277.33L30.9274 277.346L30.9094 277.362L29.7446 276.03ZM22.3255 282.505L20.5787 282.265L20.6628 281.607L21.1606 281.172L22.3255 282.505ZM21.0521 292.462L22.7989 292.702L22.745 293.124L22.5047 293.472L21.0521 292.462ZM15.373 300.697L13.6416 300.358L13.7097 299.992L13.9204 299.687L15.373 300.697ZM13.5498 310.492L11.8444 310.915L11.7471 310.537L11.8184 310.154L13.5498 310.492ZM16.1456 320.596L14.763 321.674L14.5329 321.38L14.4402 321.019L16.1456 320.596ZM22.4607 328.664L23.8433 327.586L23.916 327.678L23.9758 327.78L22.4607 328.664ZM27.8667 337.843L27.4896 339.56L26.7418 339.389L26.3516 338.727L27.8667 337.843ZM38.317 340.235L38.8462 341.92L38.3984 342.057L37.9398 341.952L38.317 340.235ZM48.1048 337.244L48.9257 338.81L48.7854 338.883L48.634 338.929L48.1048 337.244ZM56.5463 332.875L57.6778 334.236L57.5336 334.355L57.3672 334.442L56.5463 332.875ZM62.0595 328.303L63.6693 329.033L63.5038 329.404L63.1911 329.664L62.0595 328.303ZM64.9772 321.751L66.4078 320.738L66.9958 321.563L66.587 322.481L64.9772 321.751ZM60.4812 315.443L61.8375 314.332L61.8764 314.379L61.9119 314.429L60.4812 315.443ZM54.0304 307.591L52.676 306.452L54.0326 304.832L55.3867 306.48L54.0304 307.591ZM48.2877 314.449L49.6422 315.588L49.4527 315.814L49.1988 315.965L48.2877 314.449ZM41.9933 318.196L40.2383 318.033L40.3127 317.138L41.0822 316.68L41.9933 318.196ZM40.9456 330.796L42.7006 330.958L42.5177 333.157L40.4132 332.47L40.9456 330.796ZM30.3332 327.328L29.8009 329.002L29.2739 328.83L28.937 328.388L30.3332 327.328ZM24.3022 319.422L22.9059 320.483L22.6395 320.133L22.5661 319.701L24.3022 319.422ZM22.5948 309.374L20.8588 309.653L20.7554 309.045L21.053 308.508L22.5948 309.374ZM27.2671 300.949L25.7252 300.083L25.786 299.974L25.8619 299.874L27.2671 300.949ZM32.7226 293.777L31.3174 292.702L31.7112 292.184L32.3498 292.052L32.7226 293.777ZM42.0954 291.835L42.8332 293.442L42.6574 293.521L42.4682 293.56L42.0954 291.835ZM51.1079 287.762L50.3702 286.155L51.169 285.794L51.9435 286.219L51.1079 287.762ZM60.213 292.758L59.9844 294.502L59.6629 294.457L59.3775 294.3L60.213 292.758ZM69.1859 294.018L69.4145 292.274L69.5396 292.291L69.661 292.327L69.1859 294.018ZM77.8993 296.543L77.7528 298.297L77.5857 298.282L77.4242 298.235L77.8993 296.543ZM87.1841 297.407L87.3306 295.653L87.6038 295.679L87.8571 295.786L87.1841 297.407ZM95.6586 300.994L96.3317 299.372L96.4565 299.425L96.572 299.496L95.6586 300.994ZM103.491 305.821L102.777 307.424L102.674 307.378L102.578 307.318L103.491 305.821ZM111.924 309.643L112.638 308.039L113.029 308.217L113.297 308.553L111.924 309.643ZM117.806 317.022L116.529 318.223L116.479 318.17L116.433 318.112L117.806 317.022ZM123.988 323.59L123.091 325.097L122.88 324.97L122.711 324.791L123.988 323.59ZM132.047 328.437L132.944 326.93L132.956 326.937L132.968 326.945L132.047 328.437ZM140.416 333.653L141.337 332.16L141.724 332.401L141.948 332.799L140.416 333.653ZM145.032 341.854L146.565 341.001L146.663 341.175L146.72 341.367L145.032 341.854ZM147.734 350.95L149.421 350.463L149.457 350.582L149.475 350.705L147.734 350.95ZM149.136 360.31L147.572 361.106L147.437 360.845L147.394 360.555L149.136 360.31ZM153.284 368.359L154.848 367.563L154.851 367.569L153.284 368.359ZM157.511 376.638L156.092 377.667L156.009 377.553L155.945 377.427L157.511 376.638ZM163.856 385.343L165.276 384.314L165.399 384.483L165.48 384.676L163.856 385.343ZM167.921 395.057L169.545 394.389L169.648 394.635L169.674 394.899L167.921 395.057ZM168.954 405.478L170.707 405.321L170.749 405.742L170.595 406.133L168.954 405.478ZM165.049 415.47L163.474 416.244L163.124 415.541L163.408 414.815L165.049 415.47ZM169.522 424.448L171.097 423.675L171.338 424.159L171.268 424.694L169.522 424.448ZM168.258 434.109L166.773 435.042L166.428 434.499L166.511 433.864L168.258 434.109ZM173.882 442.989L175.367 442.056L175.671 442.535L175.641 443.098L173.882 442.989ZM173.378 452.583L171.643 452.869L171.609 452.673L171.619 452.474L173.378 452.583ZM175.021 462.046L176.756 461.76L176.812 462.081L176.75 462.399L175.021 462.046ZM173.193 471.435L174.922 471.787L174.861 472.1L174.694 472.37L173.193 471.435ZM167.712 480.321L166.034 480.84L165.79 480.069L166.211 479.386L167.712 480.321ZM170.833 490.158L172.511 489.64L172.699 490.233L172.475 490.809L170.833 490.158ZM167.397 499.012L165.636 498.966L165.641 498.652L165.754 498.361L167.397 499.012ZM167.226 509.066L168.987 509.113L168.973 509.934L168.336 510.445L167.226 509.066ZM159.303 515.42L157.868 514.385L158.007 514.191L158.193 514.042L159.303 515.42ZM152.891 524.372L154.326 525.407L153.533 526.515L152.256 526.009L152.891 524.372ZM143.91 520.815L142.882 522.235C142.163 521.711 141.94 520.737 142.361 519.962C142.783 519.186 143.718 518.85 144.545 519.178L143.91 520.815ZM152.045 526.741L153.073 525.321L153.136 525.367L153.196 525.419L152.045 526.741ZM159.803 533.515L160.769 534.997L159.658 535.716L158.652 534.838L159.803 533.515ZM168.563 527.851L167.597 526.369L168.129 526.024L168.762 526.102L168.563 527.851ZM177.88 529L179.626 528.787L179.919 531.024L177.68 530.748L177.88 529ZM176.547 518.825L174.801 519.038L174.738 518.554L174.931 518.109L176.547 518.825ZM180.471 509.807L178.855 509.091L178.863 509.071L178.873 509.051L180.471 509.807ZM184.707 500.696L186.403 500.237L186.578 500.864L186.305 501.452L184.707 500.696ZM181.999 491.006L180.303 491.466L180.155 490.935L180.333 490.417L181.999 491.006ZM185.181 481.778L186.868 481.286L187.031 481.831L186.847 482.366L185.181 481.778ZM182.283 472.116L180.597 472.608L180.55 472.452L180.533 472.291L182.283 472.116ZM181.246 462.596L179.496 462.771L179.45 462.352L179.598 461.96L181.246 462.596ZM184.733 453.37L186.41 452.847L186.598 453.434L186.381 454.006L184.733 453.37ZM181.651 443.732L179.974 444.254L179.751 443.556L180.085 442.91L181.651 443.732ZM186.397 434.567L188.099 434.134L188.272 434.79L187.962 435.389L186.397 434.567ZM183.871 424.97L182.168 425.403L182.028 424.87L182.215 424.355L183.871 424.97ZM187.23 415.713L188.972 415.472L189.037 415.912L188.886 416.328L187.23 415.713ZM185.806 406.064L184.064 406.305L183.999 405.865L184.151 405.448L185.806 406.064ZM189.139 396.908L187.484 396.291L187.766 395.515L188.546 395.244L189.139 396.908ZM198.604 393.612L199.732 394.975L199.492 395.174L199.197 395.276L198.604 393.612ZM205.468 387.948L204.295 386.622L211.48 380.274L212.653 381.6L213.826 382.925L206.641 389.273L205.468 387.948ZM212.653 381.6L212.316 379.867L222.07 378.059L222.407 379.791L222.744 381.524L212.99 383.332L212.653 381.6ZM222.407 379.791L221.553 378.243L229.812 373.738L230.666 375.287L231.521 376.835L223.261 381.34L222.407 379.791ZM230.666 375.287L229.234 374.249L235.101 366.095L236.533 367.133L237.966 368.171L232.099 376.325L230.666 375.287ZM236.533 367.133L235.858 365.5L244.701 361.91L245.376 363.543L246.052 365.177L237.209 368.766L236.533 367.133ZM245.376 363.543L244.99 361.821L255.015 359.666L255.401 361.388L255.786 363.111L245.762 365.266L245.376 363.543ZM255.401 361.388L254.163 360.123L260.961 353.471L262.199 354.736L263.436 356.002L256.638 362.653L255.401 361.388ZM262.199 354.736L260.623 353.935L265.239 344.721L266.815 345.523L268.391 346.324L263.775 355.538L262.199 354.736ZM266.815 345.523L265.5 344.338L271.76 337.37L273.075 338.554L274.39 339.739L268.13 346.707L266.815 345.523ZM273.075 338.554L272.823 336.808L284.004 335.294L284.257 337.04L284.509 338.786L273.328 340.3L273.075 338.554ZM284.257 337.04L282.71 336.183L287.444 327.528L288.991 328.385L290.537 329.242L285.803 337.897L284.257 337.04ZM288.991 328.385L287.459 327.501L292.235 319.129L293.767 320.014L295.298 320.898L290.522 329.269L288.991 328.385ZM293.767 320.014L292.709 318.595L300.285 312.97L301.343 314.388L302.402 315.806L294.825 321.432L293.767 320.014ZM301.343 314.388L300.538 312.814L309.562 308.261L310.367 309.835L311.172 311.409L302.148 315.963L301.343 314.388ZM310.367 309.835L308.887 308.867L314.038 300.918L315.519 301.886L316.999 302.854L311.848 310.803L310.367 309.835ZM315.519 301.886L314.155 300.758L320.125 293.506L321.489 294.634L322.853 295.761L316.882 303.013L315.519 301.886ZM321.489 294.634L321.256 292.885L322.331 292.752L322.564 294.501L322.797 296.249L321.722 296.382L321.489 294.634ZM322.564 294.501L321.351 293.212L327.354 287.566L328.567 288.855L329.779 290.144L323.777 295.789L322.564 294.501ZM328.567 288.855L327.399 287.525L333.688 282.01L334.856 283.34L336.024 284.67L329.735 290.184L328.567 288.855ZM334.856 283.34L333.84 281.892L340.85 277.003L341.866 278.451L342.882 279.899L335.873 284.788L334.856 283.34ZM341.866 278.451L340.669 277.148L347.699 270.699L348.896 272.003L350.093 273.307L343.063 279.755L341.866 278.451ZM348.896 272.003L349.279 270.287L358.783 272.492L358.401 274.208L358.019 275.924L348.514 273.719L348.896 272.003ZM358.401 274.208L358.087 272.472L366.569 271.016L366.883 272.752L367.197 274.489L358.715 275.945L358.401 274.208ZM366.883 272.752L366.063 271.186L374.126 267.017L374.946 268.583L375.767 270.15L367.704 274.319L366.883 272.752ZM374.946 268.583L375.506 266.919L385.422 270.34L384.862 272.005L384.302 273.669L374.386 270.248L374.946 268.583ZM384.862 272.005L383.562 273.181L375.638 264.431L376.938 263.256L378.238 262.08L386.162 270.829L384.862 272.005ZM376.938 263.256L376.33 264.903L367.751 261.662L368.359 260.015L368.968 258.367L377.547 261.608L376.938 263.256ZM368.359 260.015L368.452 261.775L358.801 262.193L358.708 260.433L358.615 258.673L368.266 258.255L368.359 260.015ZM358.708 260.433L357.977 262.029L349.67 258.159L350.4 256.563L351.131 254.967L359.439 258.837L358.708 260.433ZM350.4 256.563L350.613 258.314L341.17 259.375L340.957 257.624L340.744 255.873L350.187 254.812L350.4 256.563ZM340.957 257.624L340.42 259.296L331.839 256.464L332.376 254.792L332.913 253.119L341.495 255.951L340.957 257.624ZM332.376 254.792L331.603 256.367L323.045 252.106L323.818 250.53L324.591 248.955L333.149 253.216L332.376 254.792ZM323.818 250.53L324.703 252.061L315.252 257.469L314.366 255.937L313.481 254.406L322.933 248.999L323.818 250.53ZM314.366 255.937L313.519 257.474L304.788 252.596L305.635 251.06L306.483 249.523L315.214 254.401L314.366 255.937ZM305.635 251.06L306.196 252.735L297.273 255.649L296.712 253.974L296.151 252.299L305.074 249.384L305.635 251.06ZM296.712 253.974L296.052 255.601L286.857 251.795L287.517 250.168L288.178 248.541L297.372 252.347L296.712 253.974ZM287.517 250.168L287.446 251.927L278.251 251.467L278.322 249.707L278.393 247.948L287.589 248.408L287.517 250.168ZM278.322 249.707L279.374 251.13L271.179 257.158L270.127 255.735L269.075 254.312L277.27 248.285L278.322 249.707ZM270.127 255.735L270.294 257.49L261.355 258.255L261.189 256.5L261.022 254.745L269.96 253.98L270.127 255.735ZM261.189 256.5L261.174 258.261L251.855 258.095L251.869 256.334L251.884 254.573L261.203 254.739L261.189 256.5ZM251.869 256.334L253.032 257.668L245.66 264.085L244.497 262.752L243.334 261.418L250.706 255L251.869 256.334ZM244.497 262.752L244.666 264.507L235.493 265.307L235.323 263.552L235.154 261.797L244.327 260.997L244.497 262.752ZM235.323 263.552L236.569 264.808L229.791 271.534L228.545 270.277L227.299 269.021L234.077 262.295L235.323 263.552ZM228.545 270.277L228.927 272.001L220.089 273.883L219.707 272.16L219.324 270.437L228.162 268.554L228.545 270.277ZM219.707 272.16L220.049 273.891L210.74 275.648L210.398 273.917L210.055 272.186L219.364 270.429L219.707 272.16ZM210.398 273.917L211.211 275.488L202.991 279.688L202.178 278.118L201.365 276.548L209.585 272.347L210.398 273.917ZM202.178 278.118L203.694 279.029L198.875 287.138L197.359 286.227L195.843 285.316L200.662 277.207L202.178 278.118ZM197.359 286.227L198.959 286.979L195.116 295.295L193.516 294.544L191.917 293.792L195.76 285.475L197.359 286.227ZM193.516 294.544L194.91 295.634L189.607 302.449L188.214 301.359L186.82 300.269L192.123 293.453L193.516 294.544ZM188.214 301.359L189.317 302.743L181.942 308.599L180.839 307.215L179.736 305.831L187.111 299.975L188.214 301.359ZM180.839 307.215L182.477 307.876L179.189 316.202L177.55 315.542L175.912 314.881L179.2 306.554L180.839 307.215ZM177.55 315.542L179.014 316.535L173.846 324.219L172.382 323.226L170.918 322.233L176.086 314.549L177.55 315.542ZM172.382 323.226L174.092 322.822L176.514 332.701L174.804 333.105L173.094 333.51L170.672 323.63L172.382 323.226ZM174.804 333.105L176.506 333.575L174.253 342.016L172.552 341.547L170.85 341.078L173.103 332.636L174.804 333.105ZM172.552 341.547L174.142 342.319L170.011 350.96L168.421 350.187L166.831 349.415L170.962 340.775L172.552 341.547ZM168.421 350.187L170.056 349.549L172.698 356.181L171.063 356.82L169.427 357.458L166.786 350.826L168.421 350.187ZM171.063 356.82L169.635 357.837L164.012 349.994L165.44 348.976L166.867 347.959L172.49 355.802L171.063 356.82ZM165.44 348.976L163.691 349.167L162.624 340.144L164.373 339.954L166.122 339.763L167.188 348.786L165.44 348.976ZM164.373 339.954L162.629 340.184L161.376 331.314L163.12 331.084L164.864 330.854L166.117 339.724L164.373 339.954ZM163.12 331.084L161.462 331.663L158.407 323.111L160.064 322.532L161.722 321.953L164.778 330.505L163.12 331.084ZM160.064 322.532L158.316 322.731L157.22 313.824L158.968 313.626L160.716 313.427L161.812 322.333L160.064 322.532ZM158.968 313.626L157.22 313.391L158.349 304.354L160.096 304.589L161.844 304.824L160.715 313.86L158.968 313.626ZM160.096 304.589L158.347 304.771L157.342 295.905L159.091 295.723L160.841 295.541L161.846 304.407L160.096 304.589ZM159.091 295.723L157.5 294.954L161.634 286.255L163.226 287.024L164.817 287.793L160.683 296.492L159.091 295.723ZM163.226 287.024L161.466 286.933L161.831 278.253L163.59 278.344L165.35 278.435L164.985 287.115L163.226 287.024ZM163.59 278.344L161.859 278.007L163.347 269.965L165.079 270.301L166.811 270.638L165.322 278.681L163.59 278.344ZM165.079 270.301L164.057 268.857L169.329 265.148L170.351 266.593L171.373 268.037L166.101 271.746L165.079 270.301ZM170.351 266.593L170.012 264.861L179.323 263.124L179.662 264.856L180.001 266.588L170.69 268.325L170.351 266.593ZM179.662 264.856L178.273 263.759L184.35 256.024L185.738 257.121L187.127 258.217L181.051 265.952L179.662 264.856ZM185.738 257.121L184.792 255.626L192.398 250.848L193.345 252.342L194.291 253.836L186.685 258.615L185.738 257.121ZM193.345 252.342L191.597 252.108L192.715 243.115L194.462 243.349L196.21 243.582L195.092 252.576L193.345 252.342ZM194.462 243.349L192.771 242.841L195.07 234.947L196.761 235.454L198.452 235.962L196.153 243.856L194.462 243.349ZM196.761 235.454L195.501 234.212L202.628 226.971L203.889 228.213L205.149 229.455L198.022 236.696L196.761 235.454ZM203.889 228.213L202.128 228.237L201.927 219.496L203.687 219.472L205.448 219.448L205.649 228.189L203.889 228.213ZM203.687 219.472L202.012 219.999L199.206 211.31L200.881 210.783L202.556 210.256L205.362 218.945L203.687 219.472ZM200.881 210.783L199.205 210.225L201.97 201.696L203.646 202.254L205.322 202.812L202.557 211.341L200.881 210.783ZM203.646 202.254L201.914 201.917L203.559 193.042L205.291 193.379L207.023 193.716L205.377 202.591L203.646 202.254ZM205.291 193.379L203.544 193.583L202.35 184.105L204.097 183.901L205.844 183.697L207.038 193.175L205.291 193.379ZM204.097 183.901L202.414 183.367L205.241 174.207L206.924 174.741L208.607 175.275L205.78 184.435L204.097 183.901ZM206.924 174.741L205.726 173.439L212.852 166.886L214.05 168.188L215.249 169.49L208.123 176.043L206.924 174.741ZM214.05 168.188L212.963 166.792L220.749 160.752L221.837 162.148L222.924 163.544L215.138 169.584L214.05 168.188ZM221.837 162.148L220.45 161.049L222.982 157.842L224.368 158.941L225.754 160.041L223.223 163.248L221.837 162.148ZM224.368 158.941L225.194 160.505L216.683 164.948L215.856 163.384L215.03 161.821L223.541 157.378L224.368 158.941ZM215.856 163.384L216.875 164.831L208.852 170.449L207.833 169.002L206.814 167.556L214.837 161.938L215.856 163.384ZM207.833 169.002L208.162 170.736L199.179 172.358L198.85 170.625L198.521 168.891L207.504 167.268L207.833 169.002ZM198.85 170.625L199.373 172.312L190.963 174.847L190.44 173.16L189.918 171.472L198.327 168.938L198.85 170.625ZM190.44 173.16L191.591 174.504L185.244 179.921L184.093 178.577L182.943 177.232L189.29 171.815L190.44 173.16ZM184.093 178.577L184.191 180.336L173.007 180.85L172.91 179.09L172.812 177.33L183.996 176.817L184.093 178.577ZM172.91 179.09L174.6 179.601L171.67 189.587L169.98 189.076L168.29 188.565L171.219 178.579L172.91 179.09ZM169.98 189.076L171.399 190.133L166.175 197.193L164.756 196.137L163.337 195.08L168.561 188.019L169.98 189.076ZM164.756 196.137L166.252 197.08L161.66 204.435L160.164 203.491L158.668 202.548L163.26 195.193L164.756 196.137ZM160.164 203.491L161.631 204.48L156.814 211.687L155.347 210.699L153.88 209.71L158.697 202.503L160.164 203.491ZM155.347 210.699L156.995 211.336L153.931 219.424L152.284 218.787L150.636 218.149L153.699 210.061L155.347 210.699ZM152.284 218.787L153.696 219.853L147.766 227.756L146.354 226.69L144.942 225.624L150.872 217.72L152.284 218.787ZM146.354 226.69L148.114 226.652L148.403 235.926L146.643 235.964L144.883 236.002L144.593 226.728L146.354 226.69ZM146.643 235.964L148.404 235.953L148.551 245.293L146.791 245.304L145.03 245.315L144.882 235.975L146.643 235.964ZM146.791 245.304L148.202 244.264L155.131 253.623L153.72 254.663L152.308 255.703L145.379 246.344L146.791 245.304ZM153.72 254.663L155.48 254.721L155.223 265.698L153.463 265.64L151.702 265.582L151.959 254.605L153.72 254.663ZM153.463 265.64L155.159 265.182L157.601 273.946L155.905 274.404L154.209 274.862L151.767 266.098L153.463 265.64ZM155.905 274.404L157.659 274.581L156.838 283.551L155.084 283.374L153.33 283.197L154.151 274.227L155.905 274.404ZM155.084 283.374L156.84 283.526L156.149 292.503L154.393 292.352L152.637 292.2L153.328 283.222L155.084 283.374ZM154.393 292.352L155.942 293.204L151.137 302.05L149.588 301.198L148.039 300.345L152.844 291.499L154.393 292.352ZM149.588 301.198L151.091 300.295L156.601 309.38L155.097 310.283L153.594 311.186L148.084 302.101L149.588 301.198ZM155.097 310.283L156.858 310.3L156.857 319.154L155.096 319.137L153.335 319.12L153.336 310.266L155.097 310.283ZM155.096 319.137L156.732 318.501L159.811 326.269L158.175 326.905L156.538 327.54L153.459 319.773L155.096 319.137ZM158.175 326.905L159.932 326.813L160.658 338.641L158.9 338.732L157.142 338.823L156.417 326.996L158.175 326.905ZM158.9 338.732L157.245 339.317L154.064 330.523L155.72 329.938L157.375 329.353L160.556 338.147L158.9 338.732ZM155.72 329.938L153.984 330.216L152.348 320.563L154.084 320.285L155.82 320.007L157.456 329.66L155.72 329.938ZM154.084 320.285L152.781 321.458L146.177 314.128L147.481 312.956L148.784 311.783L155.387 319.113L154.084 320.285ZM147.481 312.956L145.732 313.147L144.522 302.97L146.271 302.779L148.019 302.587L149.229 312.764L147.481 312.956ZM146.271 302.779L145 303.986L138.246 296.882L139.516 295.674L140.787 294.467L147.541 301.571L146.271 302.779ZM139.516 295.674L137.848 296.223L134.666 286.773L136.334 286.225L138.002 285.677L141.184 295.126L139.516 295.674ZM136.334 286.225L135.623 287.83L125.752 283.381L126.463 281.776L127.174 280.171L137.045 284.62L136.334 286.225ZM126.463 281.776L125.252 283.044L118.49 276.577L119.7 275.309L120.911 274.041L127.673 280.508L126.463 281.776ZM119.7 275.309L118.598 276.672L111.425 270.844L112.528 269.481L113.63 268.118L120.802 273.946L119.7 275.309ZM112.528 269.481L111.041 270.411L105.667 261.893L107.154 260.963L108.64 260.033L114.014 268.551L112.528 269.481ZM107.154 260.963L106.142 262.395L98.1472 256.705L99.159 255.273L100.171 253.841L108.165 259.53L107.154 260.963ZM99.159 255.273L99.4311 257.016L89.0954 258.534L88.8233 256.791L88.5512 255.048L98.8869 253.53L99.159 255.273ZM88.8233 256.791L88.0369 258.36L79.1251 253.826L79.9115 252.257L80.6979 250.689L89.6097 255.223L88.8233 256.791ZM79.9115 252.257L80.8587 253.751L72.2476 259.165L71.3003 257.671L70.3531 256.177L78.9642 250.763L79.9115 252.257ZM71.3003 257.671L71.4187 259.43L62.0541 259.971L61.9358 258.213L61.8174 256.454L71.182 255.912L71.3003 257.671ZM61.9358 258.213L62.5719 259.861L53.9561 263.118L53.3199 261.47L52.6837 259.821L61.2996 256.564L61.9358 258.213ZM53.3199 261.47L54.1616 263.025L46.0862 267.343L45.2445 265.788L44.4028 264.233L52.4782 259.914L53.3199 261.47ZM45.2445 265.788L45.9808 267.395L37.3823 271.272L36.6459 269.665L35.9096 268.058L44.5081 264.181L45.2445 265.788ZM36.6459 269.665L37.8463 270.965L30.9449 277.33L29.7446 276.03L28.5442 274.729L35.4456 268.365L36.6459 269.665ZM29.7446 276.03L30.9094 277.362L23.4904 283.837L22.3255 282.505L21.1606 281.172L28.5797 274.697L29.7446 276.03ZM22.3255 282.505L24.0724 282.744L22.7989 292.702L21.0521 292.462L19.3052 292.222L20.5787 282.265L22.3255 282.505ZM21.0521 292.462L22.5047 293.472L16.8257 301.706L15.373 300.697L13.9204 299.687L19.5995 291.453L21.0521 292.462ZM15.373 300.697L17.1044 301.035L15.2812 310.83L13.5498 310.492L11.8184 310.154L13.6416 300.358L15.373 300.697ZM13.5498 310.492L15.2551 310.069L17.8509 320.173L16.1456 320.596L14.4402 321.019L11.8444 310.915L13.5498 310.492ZM16.1456 320.596L17.5282 319.518L23.8433 327.586L22.4607 328.664L21.0781 329.741L14.763 321.674L16.1456 320.596ZM22.4607 328.664L23.9758 327.78L29.3819 336.96L27.8667 337.843L26.3516 338.727L20.9456 329.547L22.4607 328.664ZM27.8667 337.843L28.2439 336.126L38.6942 338.518L38.317 340.235L37.9398 341.952L27.4896 339.56L27.8667 337.843ZM38.317 340.235L37.7878 338.55L47.5757 335.558L48.1048 337.244L48.634 338.929L38.8462 341.92L38.317 340.235ZM48.1048 337.244L47.284 335.677L55.7254 331.309L56.5463 332.875L57.3672 334.442L48.9257 338.81L48.1048 337.244ZM56.5463 332.875L55.4147 331.515L60.928 326.943L62.0595 328.303L63.1911 329.664L57.6778 334.236L56.5463 332.875ZM62.0595 328.303L60.4497 327.573L63.3674 321.022L64.9772 321.751L66.587 322.481L63.6693 329.033L62.0595 328.303ZM64.9772 321.751L63.5465 322.765L59.0506 316.456L60.4812 315.443L61.9119 314.429L66.4078 320.738L64.9772 321.751ZM60.4812 315.443L59.125 316.553L52.6742 308.702L54.0304 307.591L55.3867 306.48L61.8375 314.332L60.4812 315.443ZM54.0304 307.591L55.3849 308.73L49.6422 315.588L48.2877 314.449L46.9333 313.311L52.676 306.452L54.0304 307.591ZM48.2877 314.449L49.1988 315.965L42.9044 319.712L41.9933 318.196L41.0822 316.68L47.3766 312.933L48.2877 314.449ZM41.9933 318.196L43.7483 318.358L42.7006 330.958L40.9456 330.796L39.1906 330.633L40.2383 318.033L41.9933 318.196ZM40.9456 330.796L40.4132 332.47L29.8009 329.002L30.3332 327.328L30.8655 325.654L41.4779 329.122L40.9456 330.796ZM30.3332 327.328L28.937 328.388L22.9059 320.483L24.3022 319.422L25.6984 318.362L31.7294 326.268L30.3332 327.328ZM24.3022 319.422L22.5661 319.701L20.8588 309.653L22.5948 309.374L24.3309 309.095L26.0383 319.143L24.3022 319.422ZM22.5948 309.374L21.053 308.508L25.7252 300.083L27.2671 300.949L28.809 301.815L24.1367 310.24L22.5948 309.374ZM27.2671 300.949L25.8619 299.874L31.3174 292.702L32.7226 293.777L34.1278 294.852L28.6723 302.024L27.2671 300.949ZM32.7226 293.777L32.3498 292.052L41.7227 290.11L42.0954 291.835L42.4682 293.56L33.0954 295.502L32.7226 293.777ZM42.0954 291.835L41.3577 290.229L50.3702 286.155L51.1079 287.762L51.8457 289.368L42.8332 293.442L42.0954 291.835ZM51.1079 287.762L51.9435 286.219L61.0486 291.215L60.213 292.758L59.3775 294.3L50.2724 289.305L51.1079 287.762ZM60.213 292.758L60.4416 291.013L69.4145 292.274L69.1859 294.018L68.9573 295.763L59.9844 294.502L60.213 292.758ZM69.1859 294.018L69.661 292.327L78.3744 294.852L77.8993 296.543L77.4242 298.235L68.7108 295.71L69.1859 294.018ZM77.8993 296.543L78.0458 294.789L87.3306 295.653L87.1841 297.407L87.0376 299.161L77.7528 298.297L77.8993 296.543ZM87.1841 297.407L87.8571 295.786L96.3317 299.372L95.6586 300.994L94.9856 302.615L86.511 299.029L87.1841 297.407ZM95.6586 300.994L96.572 299.496L104.404 304.323L103.491 305.821L102.578 307.318L94.7453 302.491L95.6586 300.994ZM103.491 305.821L104.205 304.217L112.638 308.039L111.924 309.643L111.21 311.246L102.777 307.424L103.491 305.821ZM111.924 309.643L113.297 308.553L119.179 315.932L117.806 317.022L116.433 318.112L110.551 310.733L111.924 309.643ZM117.806 317.022L119.083 315.821L125.264 322.389L123.988 323.59L122.711 324.791L116.529 318.223L117.806 317.022ZM123.988 323.59L124.885 322.082L132.944 326.93L132.047 328.437L131.15 329.945L123.091 325.097L123.988 323.59ZM132.047 328.437L132.968 326.945L141.337 332.16L140.416 333.653L139.495 335.145L131.126 329.93L132.047 328.437ZM140.416 333.653L141.948 332.799L146.565 341.001L145.032 341.854L143.5 342.707L138.883 334.506L140.416 333.653ZM145.032 341.854L146.72 341.367L149.421 350.463L147.734 350.95L146.046 351.436L143.345 342.341L145.032 341.854ZM147.734 350.95L149.475 350.705L150.877 360.065L149.136 360.31L147.394 360.555L145.992 351.194L147.734 350.95ZM149.136 360.31L150.699 359.515L154.848 367.563L153.284 368.359L151.72 369.154L147.572 361.106L149.136 360.31ZM153.284 368.359L154.851 367.569L159.078 375.848L157.511 376.638L155.945 377.427L151.717 369.148L153.284 368.359ZM157.511 376.638L158.931 375.609L165.276 384.314L163.856 385.343L162.437 386.372L156.092 377.667L157.511 376.638ZM163.856 385.343L165.48 384.676L169.545 394.389L167.921 395.057L166.298 395.724L162.233 386.01L163.856 385.343ZM167.921 395.057L169.674 394.899L170.707 405.321L168.954 405.478L167.202 405.636L166.169 395.214L167.921 395.057ZM168.954 405.478L170.595 406.133L166.689 416.125L165.049 415.47L163.408 414.815L167.313 404.823L168.954 405.478ZM165.049 415.47L166.623 414.697L171.097 423.675L169.522 424.448L167.947 425.222L163.474 416.244L165.049 415.47ZM169.522 424.448L171.268 424.694L170.004 434.354L168.258 434.109L166.511 433.864L167.776 424.203L169.522 424.448ZM168.258 434.109L169.743 433.177L175.367 442.056L173.882 442.989L172.397 443.922L166.773 435.042L168.258 434.109ZM173.882 442.989L175.641 443.098L175.136 452.693L173.378 452.583L171.619 452.474L172.124 442.88L173.882 442.989ZM173.378 452.583L175.113 452.298L176.756 461.76L175.021 462.046L173.286 462.331L171.643 452.869L173.378 452.583ZM175.021 462.046L176.75 462.399L174.922 471.787L173.193 471.435L171.464 471.082L173.292 461.693L175.021 462.046ZM173.193 471.435L174.694 472.37L169.214 481.257L167.712 480.321L166.211 479.386L171.692 470.499L173.193 471.435ZM167.712 480.321L169.39 479.803L172.511 489.64L170.833 490.158L169.155 490.676L166.034 480.84L167.712 480.321ZM170.833 490.158L172.475 490.809L169.039 499.663L167.397 499.012L165.754 498.361L169.191 489.507L170.833 490.158ZM167.397 499.012L169.158 499.059L168.987 509.113L167.226 509.066L165.465 509.02L165.636 498.966L167.397 499.012ZM167.226 509.066L168.336 510.445L160.412 516.799L159.303 515.42L158.193 514.042L166.117 507.688L167.226 509.066ZM159.303 515.42L160.738 516.455L154.326 525.407L152.891 524.372L151.456 523.337L157.868 514.385L159.303 515.42ZM152.891 524.372L152.256 526.009L143.275 522.452L143.91 520.815L144.545 519.178L153.526 522.735L152.891 524.372ZM143.91 520.815L144.938 519.394L153.073 525.321L152.045 526.741L151.017 528.162L142.882 522.235L143.91 520.815ZM152.045 526.741L153.196 525.419L160.954 532.193L159.803 533.515L158.652 534.838L150.894 528.064L152.045 526.741ZM159.803 533.515L158.837 532.033L167.597 526.369L168.563 527.851L169.529 529.333L160.769 534.997L159.803 533.515ZM168.563 527.851L168.762 526.102L178.079 527.251L177.88 529L177.68 530.748L168.364 529.599L168.563 527.851ZM177.88 529L176.133 529.212L174.801 519.038L176.547 518.825L178.293 518.613L179.626 528.787L177.88 529ZM176.547 518.825L174.931 518.109L178.855 509.091L180.471 509.807L182.086 510.523L178.163 519.541L176.547 518.825ZM180.471 509.807L178.873 509.051L183.109 499.941L184.707 500.696L186.305 501.452L182.069 510.562L180.471 509.807ZM184.707 500.696L183.012 501.156L180.303 491.466L181.999 491.006L183.694 490.547L186.403 500.237L184.707 500.696ZM181.999 491.006L180.333 490.417L183.516 481.189L185.181 481.778L186.847 482.366L183.664 491.595L181.999 491.006ZM185.181 481.778L183.495 482.269L180.597 472.608L182.283 472.116L183.97 471.625L186.868 481.286L185.181 481.778ZM182.283 472.116L180.533 472.291L179.496 462.771L181.246 462.596L182.997 462.422L184.034 471.942L182.283 472.116ZM181.246 462.596L179.598 461.96L183.085 452.733L184.733 453.37L186.381 454.006L182.894 463.233L181.246 462.596ZM184.733 453.37L183.056 453.892L179.974 444.254L181.651 443.732L183.328 443.21L186.41 452.847L184.733 453.37ZM181.651 443.732L180.085 442.91L184.831 433.745L186.397 434.567L187.962 435.389L183.216 444.554L181.651 443.732ZM186.397 434.567L184.694 435L182.168 425.403L183.871 424.97L185.574 424.537L188.099 434.134L186.397 434.567ZM183.871 424.97L182.215 424.355L185.574 415.098L187.23 415.713L188.886 416.328L185.527 425.585L183.871 424.97ZM187.23 415.713L185.488 415.954L184.064 406.305L185.806 406.064L187.549 405.823L188.972 415.472L187.23 415.713ZM185.806 406.064L184.151 405.448L187.484 396.291L189.139 396.908L190.795 397.525L187.462 406.681L185.806 406.064ZM189.139 396.908L188.546 395.244L198.011 391.948L198.604 393.612L199.197 395.276L189.732 398.572L189.139 396.908ZM198.604 393.612L197.476 392.249L204.34 386.584L205.468 387.948L206.596 389.311L199.732 394.975L198.604 393.612Z" fill="#111111"/>
<path d="M390.18 273.227L382.082 269.545L373.049 270.679L364.57 268.206L355.961 270.76L347.264 269.624L338.814 271.342L330.731 274.106L322.134 277.622L312.743 279.461L304.84 284.593L295.885 287.563L288.111 292.82L280.105 297.587L272.713 303.314L263.454 306.14L256.758 312.834L248.675 317.549L240.624 322.434L235.363 330.546L228.861 337.093L220.842 342.273L214.471 349.122L210.353 357.625L205.881 365.689L201.407 373.732L198.99 382.619L194.586 390.933L189.168 396.954L185.723 405.738" stroke="#111111" stroke-width="3.5227" stroke-miterlimit="10"/>
<path d="M327.012 254.63L319.436 259.793L312.197 265.405L305.207 271.354L299.397 278.478L296.388 287.113" fill="white"/>
<path d="M327.012 254.63L319.436 259.793L312.197 265.405L305.207 271.354L299.397 278.478L296.388 287.113" stroke="#111111" stroke-width="3.5227" stroke-miterlimit="10"/>
<path d="M296.502 253.351L290.444 260.497L283.819 267.036L278.285 274.511L272.724 281.958L267.823 289.867L263.775 298.248L260.296 306.898" fill="white"/>
<path d="M296.502 253.351L290.444 260.497L283.819 267.036L278.285 274.511L272.724 281.958L267.823 289.867L263.775 298.248L260.296 306.898" stroke="#111111" stroke-width="3.5227" stroke-miterlimit="10"/>
<path d="M225.108 272.346L221.672 281.198L217.985 289.95L216.287 299.347L213.034 308.276L211.688 317.676L210.586 327.071L208.789 336.418L209.571 345.922L209.031 355.454" fill="white"/>
<path d="M225.108 272.346L221.672 281.198L217.985 289.95L216.287 299.347L213.034 308.276L211.688 317.676L210.586 327.071L208.789 336.418L209.571 345.922L209.031 355.454" stroke="#111111" stroke-width="3.5227" stroke-miterlimit="10"/>
<path d="M266.655 258.446L260.349 264.669L254.374 271.291L249.647 278.849L244.671 286.243L240.867 294.306L237.386 302.525L235.508 311.259L233.319 319.924L233.359 328.882" fill="white"/>
<path d="M266.655 258.446L260.349 264.669L254.374 271.291L249.647 278.849L244.671 286.243L240.867 294.306L237.386 302.525L235.508 311.259L233.319 319.924L233.359 328.882" stroke="#111111" stroke-width="3.5227" stroke-miterlimit="10"/>
<path d="M212.117 171.851L208.873 174.367L210.302 172.689L208.905 176.405L202.153 181.889L196.023 188.096L190.087 194.538L185.886 202.252L181.431 209.709L175.952 216.762L174.267 225.524L171.86 233.873L169.07 242.216L168.218 250.992L168.889 260.93L167.809 270.796" stroke="#111111" stroke-width="3.5227" stroke-miterlimit="10"/>
<path d="M198.511 171.324L194.633 180.372L193.508 190.267" fill="white"/>
<path d="M198.511 171.324L194.633 180.372L193.508 190.267" stroke="#111111" stroke-width="3.5227" stroke-miterlimit="10"/>
<path d="M183.807 179.998L181.309 189.758L179.778 199.723L180.659 209.811" fill="white"/>
<path d="M183.807 179.998L181.309 189.758L179.778 199.723L180.659 209.811" stroke="#111111" stroke-width="3.5227" stroke-miterlimit="10"/>
<path d="M168.799 195.298L168.659 205.688L170.725 215.884L173.862 225.836" fill="white"/>
<path d="M168.799 195.298L168.659 205.688L170.725 215.884L173.862 225.836" stroke="#111111" stroke-width="3.5227" stroke-miterlimit="10"/>
<path d="M170.123 241.953L163.375 234.77L158.436 226.208L157.538 216.42" fill="white"/>
<path d="M170.123 241.953L163.375 234.77L158.436 226.208L157.538 216.42" stroke="#111111" stroke-width="3.5227" stroke-miterlimit="10"/>
<path d="M155.852 356.625L153.663 347.493L149.369 339.179L145.965 330.505L141.51 322.287L138.319 313.5L134.715 304.877L129.727 296.939L126.072 288.292L119.875 281.104L114.737 273.35L110.053 265.152L103.278 258.49L94.3602 254.781" fill="white"/>
<path d="M155.852 356.625L153.663 347.493L149.369 339.179L145.965 330.505L141.51 322.287L138.319 313.5L134.715 304.877L129.727 296.939L126.072 288.292L119.875 281.104L114.737 273.35L110.053 265.152L103.278 258.49L94.3602 254.781" stroke="#111111" stroke-width="3.5227" stroke-miterlimit="10"/>
<path d="M114.744 309.295L111.962 299.936L108.122 290.944L103.58 282.282L98.6628 273.848L93.4576 265.513L85.9419 259.169L76.8946 255.996" fill="white"/>
<path d="M114.744 309.295L111.962 299.936L108.122 290.944L103.58 282.282L98.6628 273.848L93.4576 265.513L85.9419 259.169L76.8946 255.996" stroke="#111111" stroke-width="3.5227" stroke-miterlimit="10"/>
<path d="M87.5447 296.66L85.2182 287.057L81.7222 277.784L76.1921 269.475L67.8908 263.992L58.2576 262.036" fill="white"/>
<path d="M87.5447 296.66L85.2182 287.057L81.7222 277.784L76.1921 269.475L67.8908 263.992L58.2576 262.036" stroke="#111111" stroke-width="3.5227" stroke-miterlimit="10"/>
<path d="M61.6653 292.177L60.7036 281.78L55.2831 272.918L45.7625 269.013" fill="white"/>
<path d="M61.6653 292.177L60.7036 281.78L55.2831 272.918L45.7625 269.013" stroke="#111111" stroke-width="3.5227" stroke-miterlimit="10"/>
</svg>
