<svg width="891" height="815" viewBox="0 0 891 815" fill="none" xmlns="http://www.w3.org/2000/svg">
<mask id="path-1-inside-1_1769_5604" fill="white">
<path d="M479.522 406.245L465.865 407.31L454.123 415.812L441.212 419.93L427.094 417.722L414.503 423.408L402.139 431.839L388.573 432.177L374.67 427.541L361.335 426.979L348.434 437.304L334.969 433.372L321.744 429.778L308.41 432.008L294.671 436.889L281.486 434.132L268.163 432.968L266.935 433.974L255.183 434.509L243.27 435.485L231.248 437.875L217.648 438.672L210.169 451.068L200.074 458.582L187.699 462.839L181.015 476.931L180.349 459.437L185.852 446.953L196.101 437.12L200.698 424.273L211.376 415.328L217.289 403.265L221.751 389.746L236.778 385.295L240.8 370.953L252.8 364.481L258.365 350.756L267.272 340.498L281.638 338.027L291.507 329.311L300.834 319.226L314.751 318.034L324.895 309.104L338.515 308.863L349.397 301.413L360.635 293.331L373.202 288.941L386.208 292.217L398.427 296.747L410.633 298.169L423.993 296.391L435.658 301.521L448.596 303.986L455.993 316.8L466.717 323.151L479.553 327.71L483.485 337.392L481.38 323.284L473.457 312.8L465.876 302.277L460.449 290.165L452.672 279.77L442.5 271.607L434.67 261.35L421.772 256.734L412.733 248.128L403.186 241.378L394.112 243.143L382.893 251.248L368.98 249.696L356.461 252.835L346.342 244.705L336.117 238.971L321.626 239.049L313.103 229.777L307.285 217.789L295.952 211.892L285.414 204.446L277.166 193.356L265.139 186.871L251.337 187.661L237.375 189.685L231.594 189.055L244.701 184.605L258.483 181.891L269.253 174.017L280.35 167.698L292.225 166.559L304.129 155.195L317.085 162.426L329.457 164.186L341.478 166.922L353.582 169.266L364.778 174.388L378.711 176.27L387.677 186.187L396.853 196.022L399.14 213.091L410.363 224.191L416.627 235.871L426.42 244.292L436.089 252.86L449.817 256.914L453.277 272.189L462.12 281.361L466.74 292.685L477.811 305.712L472.27 293.217L464.297 281.475L463.704 266.856L454.775 255.024L454.561 240.478L448.366 227.301L453.978 212.191L454.41 198.296L455.896 184.628L452.863 170.084L455.325 155.685L467.369 146.264L471.919 132.086L486.097 128.536L496.177 119.136L508.205 113.346L520.743 109.23L533.373 104.101L546.758 103.355L560.78 102.172L572.021 111.136L586.028 113.627L597.667 121.838L605.112 135.069L606.735 150.146L610.395 165.408L602.139 179.003L589.182 186.315L576.221 190.768L566.04 191.895L556.526 188.209L554.806 176.89L553.536 161.892L566.234 162.89L576.387 160.076L590.036 172.018L597.383 157.136L595.632 142.529L587.337 130.301L574.165 126.541L561.446 124.912L549.96 132.871L536.712 138.237L532.426 153.098L524.545 163.949L518.191 175.835L509.596 186.606L504.546 199.337L501.388 212.67L496.614 225.601L497.991 239.504L498.253 252.885L494.885 266.481L491.568 280.787L495.055 294.196L501.386 306.494L509.305 317.685L513.116 330.438L517.078 343.513L519.308 359.283L524.866 373.672L534.221 385.57L548.177 391.768L552.585 405.83L563.52 414.495L566.658 429.68L576.752 439.084L584.527 450.638L595.765 458.422L610.221 461.8L616.865 475.312L629.207 480.832L639.42 491.068L653.836 489.224L669.306 491.679L674.901 478.44L672.533 493.234L671.395 508.505L656.816 511.954L648.473 523.055L639.671 511.095L626.669 505.924L613.256 500.99L606.339 488.068L593.881 481.891L587.186 468.798L578.736 457.83L565.971 451.978L559.487 438.713L545.501 434.265L538.491 421.634L525.824 415.615L517.64 404.103L505.102 398.16L492.17 404.813L479.522 406.245Z"/>
</mask>
<path d="M479.522 406.245L465.865 407.31L454.123 415.812L441.212 419.93L427.094 417.722L414.503 423.408L402.139 431.839L388.573 432.177L374.67 427.541L361.335 426.979L348.434 437.304L334.969 433.372L321.744 429.778L308.41 432.008L294.671 436.889L281.486 434.132L268.163 432.968L266.935 433.974L255.183 434.509L243.27 435.485L231.248 437.875L217.648 438.672L210.169 451.068L200.074 458.582L187.699 462.839L181.015 476.931L180.349 459.437L185.852 446.953L196.101 437.12L200.698 424.273L211.376 415.328L217.289 403.265L221.751 389.746L236.778 385.295L240.8 370.953L252.8 364.481L258.365 350.756L267.272 340.498L281.638 338.027L291.507 329.311L300.834 319.226L314.751 318.034L324.895 309.104L338.515 308.863L349.397 301.413L360.635 293.331L373.202 288.941L386.208 292.217L398.427 296.747L410.633 298.169L423.993 296.391L435.658 301.521L448.596 303.986L455.993 316.8L466.717 323.151L479.553 327.71L483.485 337.392L481.38 323.284L473.457 312.8L465.876 302.277L460.449 290.165L452.672 279.77L442.5 271.607L434.67 261.35L421.772 256.734L412.733 248.128L403.186 241.378L394.112 243.143L382.893 251.248L368.98 249.696L356.461 252.835L346.342 244.705L336.117 238.971L321.626 239.049L313.103 229.777L307.285 217.789L295.952 211.892L285.414 204.446L277.166 193.356L265.139 186.871L251.337 187.661L237.375 189.685L231.594 189.055L244.701 184.605L258.483 181.891L269.253 174.017L280.35 167.698L292.225 166.559L304.129 155.195L317.085 162.426L329.457 164.186L341.478 166.922L353.582 169.266L364.778 174.388L378.711 176.27L387.677 186.187L396.853 196.022L399.14 213.091L410.363 224.191L416.627 235.871L426.42 244.292L436.089 252.86L449.817 256.914L453.277 272.189L462.12 281.361L466.74 292.685L477.811 305.712L472.27 293.217L464.297 281.475L463.704 266.856L454.775 255.024L454.561 240.478L448.366 227.301L453.978 212.191L454.41 198.296L455.896 184.628L452.863 170.084L455.325 155.685L467.369 146.264L471.919 132.086L486.097 128.536L496.177 119.136L508.205 113.346L520.743 109.23L533.373 104.101L546.758 103.355L560.78 102.172L572.021 111.136L586.028 113.627L597.667 121.838L605.112 135.069L606.735 150.146L610.395 165.408L602.139 179.003L589.182 186.315L576.221 190.768L566.04 191.895L556.526 188.209L554.806 176.89L553.536 161.892L566.234 162.89L576.387 160.076L590.036 172.018L597.383 157.136L595.632 142.529L587.337 130.301L574.165 126.541L561.446 124.912L549.96 132.871L536.712 138.237L532.426 153.098L524.545 163.949L518.191 175.835L509.596 186.606L504.546 199.337L501.388 212.67L496.614 225.601L497.991 239.504L498.253 252.885L494.885 266.481L491.568 280.787L495.055 294.196L501.386 306.494L509.305 317.685L513.116 330.438L517.078 343.513L519.308 359.283L524.866 373.672L534.221 385.57L548.177 391.768L552.585 405.83L563.52 414.495L566.658 429.68L576.752 439.084L584.527 450.638L595.765 458.422L610.221 461.8L616.865 475.312L629.207 480.832L639.42 491.068L653.836 489.224L669.306 491.679L674.901 478.44L672.533 493.234L671.395 508.505L656.816 511.954L648.473 523.055L639.671 511.095L626.669 505.924L613.256 500.99L606.339 488.068L593.881 481.891L587.186 468.798L578.736 457.83L565.971 451.978L559.487 438.713L545.501 434.265L538.491 421.634L525.824 415.615L517.64 404.103L505.102 398.16L492.17 404.813L479.522 406.245Z" fill="white" stroke="#111111" stroke-width="10.03" mask="url(#path-1-inside-1_1769_5604)"/>
<path d="M479.522 406.245L479.708 408.806L479.749 408.802L479.789 408.798L479.522 406.245ZM465.865 407.31L465.679 404.749L465.019 404.8L464.474 405.195L465.865 407.31ZM454.123 415.812L454.838 418.269L455.202 418.153L455.514 417.927L454.123 415.812ZM441.212 419.93L440.857 422.47L441.401 422.555L441.927 422.387L441.212 419.93ZM427.094 417.722L427.45 415.182L426.762 415.074L426.124 415.362L427.094 417.722ZM414.503 423.408L413.533 421.049L413.342 421.135L413.168 421.254L414.503 423.408ZM402.139 431.839L402.202 434.406L402.894 434.389L403.474 433.993L402.139 431.839ZM388.573 432.177L387.837 434.625L388.227 434.755L388.636 434.745L388.573 432.177ZM374.67 427.541L375.407 425.093L375.093 424.989L374.764 424.975L374.67 427.541ZM361.335 426.979L361.428 424.413L360.549 424.376L359.85 424.936L361.335 426.979ZM348.434 437.304L347.782 439.778L348.953 440.12L349.918 439.347L348.434 437.304ZM334.969 433.372L335.62 430.898L335.599 430.892L335.578 430.886L334.969 433.372ZM321.744 429.778L322.353 427.292L321.859 427.158L321.355 427.242L321.744 429.778ZM308.41 432.008L308.021 429.472L307.817 429.506L307.622 429.576L308.41 432.008ZM294.671 436.889L294.198 439.407L294.84 439.542L295.459 439.322L294.671 436.889ZM281.486 434.132L281.959 431.614L281.823 431.585L281.684 431.573L281.486 434.132ZM268.163 432.968L268.361 430.409L267.409 430.326L266.657 430.942L268.163 432.968ZM266.935 433.974L267.046 436.539L267.826 436.504L268.442 436L266.935 433.974ZM255.183 434.509L255.073 431.943L255.031 431.945L254.988 431.948L255.183 434.509ZM243.27 435.485L243.075 432.925L242.942 432.936L242.81 432.962L243.27 435.485ZM231.248 437.875L231.389 440.439L231.549 440.43L231.707 440.399L231.248 437.875ZM217.648 438.672L217.507 436.108L216.253 436.182L215.582 437.295L217.648 438.672ZM210.169 451.068L211.585 453.163L211.978 452.871L212.235 452.445L210.169 451.068ZM200.074 458.582L200.84 461.022L201.19 460.901L201.491 460.677L200.074 458.582ZM187.699 462.839L186.933 460.399L185.964 460.732L185.509 461.691L187.699 462.839ZM181.015 476.931L178.571 477.029L178.952 487.045L183.205 478.08L181.015 476.931ZM180.349 459.437L178.13 458.355L177.882 458.916L177.906 459.535L180.349 459.437ZM185.851 446.953L184.2 445.056L183.838 445.404L183.632 445.871L185.851 446.953ZM196.101 437.12L197.752 439.017L198.184 438.603L198.39 438.027L196.101 437.12ZM200.698 424.273L199.171 422.265L198.645 422.705L198.409 423.366L200.698 424.273ZM211.376 415.328L212.903 417.336L213.312 416.994L213.551 416.507L211.376 415.328ZM217.289 403.265L219.464 404.443L219.544 404.282L219.6 404.11L217.289 403.265ZM221.751 389.746L221.083 387.274L219.857 387.637L219.44 388.901L221.751 389.746ZM236.778 385.295L237.446 387.766L238.743 387.382L239.124 386.025L236.778 385.295ZM240.8 370.953L239.68 368.668L238.75 369.17L238.454 370.223L240.8 370.953ZM252.8 364.481L253.92 366.766L254.705 366.343L255.05 365.491L252.8 364.481ZM258.365 350.756L256.556 349.024L256.277 349.346L256.114 349.747L258.365 350.756ZM267.272 340.498L266.872 337.964L266.034 338.108L265.463 338.766L267.272 340.498ZM281.638 338.027L282.038 340.561L282.701 340.447L283.215 339.993L281.638 338.027ZM291.507 329.311L293.083 331.278L293.177 331.195L293.263 331.102L291.507 329.311ZM300.834 319.226L300.63 316.667L299.716 316.745L299.078 317.435L300.834 319.226ZM314.751 318.034L314.955 320.593L315.729 320.527L316.325 320.003L314.751 318.034ZM324.895 309.104L324.849 306.537L323.984 306.552L323.322 307.135L324.895 309.104ZM338.515 308.863L338.561 311.431L339.265 311.418L339.854 311.015L338.515 308.863ZM349.397 301.413L350.736 303.564L350.759 303.549L350.782 303.532L349.397 301.413ZM360.635 293.331L359.859 290.895L359.533 291.008L359.25 291.212L360.635 293.331ZM373.202 288.941L373.768 286.444L373.088 286.273L372.426 286.504L373.202 288.941ZM386.208 292.217L387.018 289.796L386.898 289.752L386.774 289.72L386.208 292.217ZM398.427 296.747L397.616 299.169L397.882 299.267L398.162 299.3L398.427 296.747ZM410.633 298.169L410.368 300.721L410.657 300.754L410.945 300.716L410.633 298.169ZM423.993 296.391L424.934 294.023L424.33 293.758L423.681 293.844L423.993 296.391ZM435.658 301.521L434.716 303.89L434.963 303.998L435.225 304.048L435.658 301.521ZM448.596 303.986L450.686 302.658L450.114 301.667L449.028 301.46L448.596 303.986ZM455.993 316.8L453.902 318.128L454.235 318.705L454.795 319.036L455.993 316.8ZM466.717 323.151L465.519 325.387L465.719 325.506L465.937 325.583L466.717 323.151ZM479.553 327.71L481.802 326.707L481.372 325.647L480.332 325.278L479.553 327.71ZM483.485 337.392L481.235 338.396L488.938 357.363L485.901 337L483.485 337.392ZM481.38 323.284L483.796 322.891L483.696 322.221L483.295 321.69L481.38 323.284ZM473.457 312.8L471.508 314.347L471.525 314.37L471.543 314.394L473.457 312.8ZM465.876 302.277L463.664 303.367L463.773 303.609L463.927 303.824L465.876 302.277ZM460.449 290.165L462.662 289.075L462.543 288.811L462.371 288.581L460.449 290.165ZM452.672 279.77L454.594 278.186L454.402 277.929L454.155 277.73L452.672 279.77ZM442.5 271.607L440.592 273.21L440.779 273.455L441.017 273.646L442.5 271.607ZM434.67 261.35L436.577 259.747L436.13 259.162L435.455 258.92L434.67 261.35ZM421.772 256.734L420.131 258.635L420.507 258.993L420.987 259.165L421.772 256.734ZM412.733 248.128L414.374 246.227L414.243 246.103L414.096 245.999L412.733 248.128ZM403.186 241.378L404.549 239.249L403.719 238.662L402.736 238.853L403.186 241.378ZM394.112 243.143L393.663 240.618L393.152 240.717L392.724 241.026L394.112 243.143ZM382.893 251.248L382.64 253.801L383.538 253.901L384.282 253.364L382.893 251.248ZM368.98 249.696L369.234 247.143L368.816 247.096L368.408 247.198L368.98 249.696ZM356.461 252.835L354.977 254.874L355.902 255.617L357.033 255.333L356.461 252.835ZM346.342 244.705L347.826 242.667L347.667 242.54L347.491 242.441L346.342 244.705ZM336.117 238.971L337.266 236.706L336.719 236.4L336.1 236.403L336.117 238.971ZM321.626 239.049L319.868 240.831L320.596 241.623L321.643 241.617L321.626 239.049ZM313.103 229.777L310.924 230.94L311.09 231.282L311.345 231.559L313.103 229.777ZM307.285 217.789L309.463 216.627L309.095 215.867L308.367 215.488L307.285 217.789ZM295.952 211.892L294.589 214.022L294.724 214.117L294.869 214.193L295.952 211.892ZM285.414 204.446L283.488 206.024L283.728 206.347L284.051 206.576L285.414 204.446ZM277.166 193.356L279.092 191.777L278.76 191.331L278.28 191.072L277.166 193.356ZM265.139 186.871L266.253 184.587L265.663 184.269L265.001 184.307L265.139 186.871ZM251.337 187.661L251.199 185.097L251.098 185.103L250.998 185.117L251.337 187.661ZM237.375 189.685L237.127 192.24L237.421 192.272L237.714 192.229L237.375 189.685ZM231.594 189.055L230.838 186.611L219.822 190.351L231.346 191.609L231.594 189.055ZM244.701 184.605L244.245 182.081L244.092 182.111L243.944 182.161L244.701 184.605ZM258.483 181.891L258.938 184.415L259.453 184.313L259.883 183.999L258.483 181.891ZM269.253 174.017L268.084 171.759L267.965 171.827L267.853 171.909L269.253 174.017ZM280.35 167.698L280.123 165.141L279.623 165.189L279.182 165.44L280.35 167.698ZM292.225 166.559L292.452 169.117L293.267 169.039L293.872 168.461L292.225 166.559ZM304.129 155.195L305.274 152.928L303.753 152.079L302.482 153.293L304.129 155.195ZM317.085 162.426L315.94 164.693L316.327 164.909L316.761 164.971L317.085 162.426ZM329.457 164.186L329.971 161.676L329.876 161.654L329.781 161.641L329.457 164.186ZM341.478 166.922L340.964 169.432L341.001 169.44L341.039 169.447L341.478 166.922ZM353.582 169.266L354.555 166.912L354.297 166.794L354.021 166.741L353.582 169.266ZM364.778 174.388L363.805 176.742L364.125 176.889L364.471 176.935L364.778 174.388ZM378.711 176.27L380.483 174.504L379.882 173.839L379.018 173.723L378.711 176.27ZM387.677 186.187L385.905 187.953L385.918 187.968L385.932 187.982L387.677 186.187ZM396.853 196.022L399.275 195.669L399.162 194.831L398.598 194.227L396.853 196.022ZM399.14 213.091L396.719 213.444L396.839 214.338L397.465 214.958L399.14 213.091ZM410.363 224.191L412.494 222.934L412.31 222.593L412.038 222.324L410.363 224.191ZM416.627 235.871L414.497 237.128L414.723 237.549L415.08 237.856L416.627 235.871ZM426.42 244.292L427.996 242.331L427.982 242.318L427.968 242.306L426.42 244.292ZM436.089 252.86L434.513 254.821L434.919 255.181L435.431 255.332L436.089 252.86ZM449.817 256.914L452.196 256.324L451.863 254.852L450.475 254.442L449.817 256.914ZM453.277 272.189L450.898 272.779L451.061 273.496L451.56 274.014L453.277 272.189ZM462.12 281.361L464.368 280.354L464.179 279.89L463.837 279.536L462.12 281.361ZM466.74 292.685L464.493 293.693L464.65 294.079L464.917 294.393L466.74 292.685ZM477.811 305.712L475.988 307.42L487.024 320.406L480.028 304.632L477.811 305.712ZM472.27 293.217L474.487 292.137L474.391 291.922L474.26 291.729L472.27 293.217ZM464.297 281.475L461.854 281.579L461.885 282.341L462.307 282.963L464.297 281.475ZM463.704 266.856L466.148 266.752L466.114 265.918L465.62 265.263L463.704 266.856ZM454.775 255.024L452.329 255.059L452.342 255.932L452.859 256.616L454.775 255.024ZM454.561 240.477L457.006 240.443L456.998 239.864L456.753 239.344L454.561 240.477ZM448.366 227.301L446.088 226.365L445.696 227.419L446.174 228.435L448.366 227.301ZM453.978 212.191L456.257 213.128L456.409 212.719L456.423 212.28L453.978 212.191ZM454.41 198.296L451.98 198L451.968 198.104L451.965 198.208L454.41 198.296ZM455.896 184.628L458.325 184.924L458.371 184.5L458.285 184.083L455.896 184.628ZM452.863 170.085L450.456 169.626L450.37 170.129L450.474 170.629L452.863 170.085ZM455.325 155.685L453.862 153.625L453.089 154.23L452.918 155.227L455.325 155.685ZM467.369 146.264L468.833 148.324L469.444 147.846L469.687 147.088L467.369 146.264ZM471.919 132.086L471.348 129.588L470.033 129.917L469.602 131.262L471.919 132.086ZM486.097 128.536L486.668 131.034L487.265 130.884L487.723 130.457L486.097 128.536ZM496.177 119.136L495.154 116.801L494.823 116.961L494.551 117.214L496.177 119.136ZM508.205 113.346L507.471 110.895L507.323 110.943L507.182 111.011L508.205 113.346ZM520.743 109.23L521.476 111.681L521.553 111.656L521.628 111.626L520.743 109.23ZM533.373 104.101L533.238 101.537L532.85 101.559L532.487 101.706L533.373 104.101ZM546.758 103.355L546.892 105.919L546.925 105.918L546.958 105.915L546.758 103.355ZM560.78 102.172L562.257 100.129L561.512 99.5342L560.58 99.6128L560.78 102.172ZM572.021 111.136L570.544 113.18L571.024 113.562L571.617 113.668L572.021 111.136ZM586.028 113.627L587.389 111.497L586.952 111.188L586.432 111.096L586.028 113.627ZM597.667 121.838L599.772 120.535L599.489 120.033L599.028 119.707L597.667 121.838ZM605.112 135.069L607.542 134.785L607.484 134.239L607.217 133.766L605.112 135.069ZM606.735 150.146L604.305 150.429L604.324 150.601L604.364 150.768L606.735 150.146ZM610.395 165.408L612.458 166.792L613.024 165.859L612.767 164.786L610.395 165.408ZM602.139 179.003L603.3 181.265L603.86 180.949L604.202 180.386L602.139 179.003ZM589.182 186.315L589.946 188.755L590.152 188.685L590.343 188.577L589.182 186.315ZM576.221 190.768L576.482 193.321L576.74 193.293L576.986 193.208L576.221 190.768ZM566.04 191.894L565.197 194.304L565.733 194.511L566.301 194.448L566.04 191.894ZM556.526 188.209L554.111 188.609L554.337 190.097L555.683 190.618L556.526 188.209ZM554.806 176.89L552.37 177.112L552.377 177.201L552.391 177.29L554.806 176.89ZM553.536 161.892L553.714 159.331L550.845 159.106L551.1 162.114L553.536 161.892ZM566.234 162.89L566.056 165.451L566.466 165.483L566.862 165.373L566.234 162.89ZM576.387 160.076L577.95 158.105L576.979 157.255L575.759 157.593L576.387 160.076ZM590.036 172.018L588.472 173.99L590.81 176.034L592.207 173.203L590.036 172.018ZM597.383 157.136L599.555 158.322L599.904 157.613L599.809 156.82L597.383 157.136ZM595.632 142.529L598.058 142.213L597.981 141.57L597.623 141.042L595.632 142.529ZM587.337 130.301L589.328 128.814L588.82 128.064L587.974 127.823L587.337 130.301ZM574.165 126.541L574.802 124.063L574.632 124.014L574.457 123.992L574.165 126.541ZM561.446 124.912L561.737 122.363L560.845 122.249L560.096 122.768L561.446 124.912ZM549.96 132.871L550.844 135.267L551.09 135.167L551.31 135.015L549.96 132.871ZM536.712 138.237L535.828 135.841L534.717 136.291L534.372 137.488L536.712 138.237ZM532.426 153.098L534.372 154.658L534.639 154.29L534.767 153.847L532.426 153.098ZM524.545 163.949L522.6 162.39L522.496 162.533L522.412 162.689L524.545 163.949ZM518.191 175.835L520.067 177.486L520.213 177.303L520.324 177.095L518.191 175.835ZM509.596 186.606L507.721 184.955L507.482 185.254L507.339 185.615L509.596 186.606ZM504.546 199.337L502.288 198.346L502.217 198.525L502.172 198.713L504.546 199.337ZM501.388 212.67L503.668 213.602L503.724 213.451L503.761 213.294L501.388 212.67ZM496.614 225.601L494.334 224.669L494.121 225.246L494.182 225.862L496.614 225.601ZM497.991 239.504L500.436 239.456L500.434 239.349L500.424 239.243L497.991 239.504ZM498.253 252.885L500.62 253.536L500.705 253.193L500.698 252.837L498.253 252.885ZM494.885 266.481L492.518 265.83L492.513 265.85L492.508 265.869L494.885 266.481ZM491.568 280.787L489.192 280.175L489.042 280.819L489.209 281.459L491.568 280.787ZM495.055 294.196L492.696 294.868L492.77 295.154L492.904 295.414L495.055 294.196ZM501.386 306.494L499.235 307.712L499.319 307.875L499.424 308.023L501.386 306.494ZM509.305 317.685L511.638 316.92L511.514 316.505L511.267 316.156L509.305 317.685ZM513.116 330.438L510.783 331.202L510.786 331.212L513.116 330.438ZM517.077 343.513L519.497 343.14L519.468 342.936L519.408 342.738L517.077 343.513ZM519.308 359.283L516.889 359.655L516.932 359.959L517.042 360.244L519.308 359.283ZM524.866 373.672L522.6 374.633L522.742 374.999L522.981 375.304L524.866 373.672ZM534.221 385.57L532.336 387.202L532.718 387.689L533.272 387.934L534.221 385.57ZM548.177 391.768L550.5 390.97L550.151 389.859L549.126 389.404L548.177 391.768ZM552.585 405.83L550.263 406.629L550.502 407.393L551.114 407.879L552.585 405.83ZM563.52 414.495L565.91 413.955L565.717 413.022L564.991 412.447L563.52 414.495ZM566.658 429.68L564.268 430.22L564.438 431.041L565.037 431.599L566.658 429.68ZM576.752 439.084L578.749 437.605L578.585 437.362L578.374 437.165L576.752 439.084ZM584.527 450.638L582.531 452.117L582.798 452.513L583.183 452.78L584.527 450.638ZM595.765 458.422L594.421 460.564L594.797 460.825L595.238 460.928L595.765 458.422ZM610.221 461.8L612.394 460.625L611.868 459.555L610.748 459.293L610.221 461.8ZM616.865 475.312L614.692 476.487L615.098 477.311L615.91 477.674L616.865 475.312ZM629.207 480.832L630.893 478.976L630.571 478.653L630.161 478.47L629.207 480.832ZM639.42 491.068L637.733 492.924L638.572 493.764L639.72 493.617L639.42 491.068ZM653.836 489.224L654.197 486.685L653.867 486.632L653.536 486.675L653.836 489.224ZM669.306 491.679L668.945 494.219L670.787 494.511L671.542 492.725L669.306 491.679ZM674.901 478.44L677.313 478.87C677.517 477.595 676.785 476.357 675.605 475.982C674.425 475.607 673.165 476.213 672.666 477.395L674.901 478.44ZM672.533 493.234L670.122 492.803L670.104 492.915L670.095 493.029L672.533 493.234ZM671.395 508.505L671.937 511.01L673.693 510.595L673.833 508.71L671.395 508.505ZM656.816 511.954L656.274 509.449L655.43 509.648L654.895 510.361L656.816 511.954ZM648.473 523.055L646.539 524.623L648.456 527.227L650.394 524.648L648.473 523.055ZM639.671 511.095L641.605 509.527L641.181 508.951L640.533 508.694L639.671 511.095ZM626.669 505.924L627.531 503.522L627.502 503.511L627.473 503.5L626.669 505.924ZM613.256 500.99L611.124 502.245L611.578 503.092L612.451 503.413L613.256 500.99ZM606.339 488.068L608.47 486.813L608.087 486.097L607.379 485.746L606.339 488.068ZM593.881 481.891L591.727 483.103L592.11 483.851L592.84 484.213L593.881 481.891ZM587.186 468.797L589.34 467.586L589.231 467.373L589.086 467.185L587.186 468.797ZM578.736 457.83L580.636 456.217L580.26 455.728L579.711 455.477L578.736 457.83ZM565.971 451.978L563.796 453.147L564.195 453.964L564.996 454.331L565.971 451.978ZM559.487 438.713L561.662 437.544L561.187 436.572L560.192 436.256L559.487 438.713ZM545.501 434.265L543.388 435.555L543.874 436.429L544.796 436.722L545.501 434.265ZM538.491 421.634L540.603 420.344L540.209 419.633L539.495 419.294L538.491 421.634ZM525.824 415.615L523.866 417.148L524.244 417.68L524.82 417.954L525.824 415.615ZM517.64 404.103L519.599 402.569L519.22 402.036L518.643 401.763L517.64 404.103ZM505.102 398.16L506.105 395.82L505.056 395.322L504.023 395.853L505.102 398.16ZM492.17 404.813L492.437 407.366L492.864 407.317L493.25 407.119L492.17 404.813ZM479.522 406.245L479.337 403.684L465.679 404.749L465.865 407.31L466.051 409.87L479.708 408.806L479.522 406.245ZM465.865 407.31L464.474 405.195L452.732 413.697L454.123 415.812L455.514 417.927L467.256 409.424L465.865 407.31ZM454.123 415.812L453.409 413.355L440.498 417.472L441.212 419.93L441.927 422.387L454.838 418.269L454.123 415.812ZM441.212 419.93L441.568 417.39L427.45 415.182L427.094 417.722L426.738 420.262L440.857 422.47L441.212 419.93ZM427.094 417.722L426.124 415.362L413.533 421.049L414.503 423.408L415.472 425.768L428.064 420.081L427.094 417.722ZM414.503 423.408L413.168 421.254L400.805 429.684L402.139 431.839L403.474 433.993L415.837 425.563L414.503 423.408ZM402.139 431.839L402.076 429.271L388.51 429.61L388.573 432.177L388.636 434.745L402.202 434.406L402.139 431.839ZM388.573 432.177L389.309 429.73L375.407 425.093L374.67 427.541L373.934 429.988L387.837 434.625L388.573 432.177ZM374.67 427.541L374.764 424.975L361.428 424.413L361.335 426.979L361.242 429.545L374.577 430.106L374.67 427.541ZM361.335 426.979L359.85 424.936L346.949 435.261L348.434 437.304L349.918 439.347L362.82 429.022L361.335 426.979ZM348.434 437.304L349.085 434.83L335.62 430.898L334.969 433.372L334.318 435.846L347.782 439.778L348.434 437.304ZM334.969 433.372L335.578 430.886L322.353 427.292L321.744 429.778L321.136 432.264L334.361 435.858L334.969 433.372ZM321.744 429.778L321.355 427.242L308.021 429.472L308.41 432.008L308.799 434.544L322.134 432.314L321.744 429.778ZM308.41 432.008L307.622 429.576L293.883 434.456L294.671 436.889L295.459 439.322L309.198 434.441L308.41 432.008ZM294.671 436.889L295.144 434.371L281.959 431.614L281.486 434.132L281.013 436.65L294.198 439.407L294.671 436.889ZM281.486 434.132L281.684 431.573L268.361 430.409L268.163 432.968L267.965 435.527L281.288 436.691L281.486 434.132ZM268.163 432.968L266.657 430.942L265.429 431.948L266.935 433.974L268.442 436L269.67 434.994L268.163 432.968ZM266.935 433.974L266.825 431.408L255.073 431.943L255.183 434.509L255.294 437.074L267.046 436.539L266.935 433.974ZM255.183 434.509L254.988 431.948L243.075 432.925L243.27 435.485L243.465 438.045L255.378 437.069L255.183 434.509ZM243.27 435.485L242.81 432.962L230.788 435.352L231.248 437.875L231.707 440.399L243.729 438.008L243.27 435.485ZM231.248 437.875L231.107 435.312L217.507 436.108L217.648 438.672L217.789 441.236L231.389 440.439L231.248 437.875ZM217.648 438.672L215.582 437.295L208.102 449.69L210.169 451.068L212.235 452.445L219.715 440.05L217.648 438.672ZM210.169 451.068L208.752 448.972L198.658 456.486L200.074 458.582L201.491 460.677L211.585 453.163L210.169 451.068ZM200.074 458.582L199.309 456.141L186.933 460.399L187.699 462.839L188.464 465.279L200.84 461.022L200.074 458.582ZM187.699 462.839L185.509 461.691L178.825 475.783L181.015 476.931L183.205 478.08L189.888 463.987L187.699 462.839ZM181.015 476.931L183.459 476.834L182.793 459.339L180.349 459.437L177.906 459.535L178.571 477.029L181.015 476.931ZM180.349 459.437L182.569 460.519L188.071 448.035L185.851 446.953L183.632 445.871L178.13 458.355L180.349 459.437ZM185.851 446.953L187.503 448.851L197.752 439.017L196.101 437.12L194.449 435.223L184.2 445.056L185.851 446.953ZM196.101 437.12L198.39 438.027L202.988 425.181L200.698 424.273L198.409 423.366L193.811 436.213L196.101 437.12ZM200.698 424.273L202.226 426.282L212.903 417.336L211.376 415.328L209.849 413.319L199.171 422.265L200.698 424.273ZM211.376 415.328L213.551 416.507L219.464 404.443L217.289 403.265L215.114 402.086L209.201 414.149L211.376 415.328ZM217.289 403.265L219.6 404.11L224.062 390.591L221.751 389.746L219.44 388.901L214.978 402.42L217.289 403.265ZM221.751 389.746L222.419 392.217L237.446 387.766L236.778 385.295L236.11 382.823L221.083 387.274L221.751 389.746ZM236.778 385.295L239.124 386.025L243.146 371.683L240.8 370.953L238.454 370.223L234.432 384.565L236.778 385.295ZM240.8 370.953L241.921 373.238L253.92 366.766L252.8 364.481L251.679 362.197L239.68 368.668L240.8 370.953ZM252.8 364.481L255.05 365.491L260.615 351.766L258.365 350.756L256.114 349.747L250.549 363.472L252.8 364.481ZM258.365 350.756L260.173 352.488L269.08 342.23L267.272 340.498L265.463 338.766L256.556 349.024L258.365 350.756ZM267.272 340.498L267.671 343.032L282.038 340.561L281.638 338.027L281.238 335.493L266.872 337.964L267.272 340.498ZM281.638 338.027L283.215 339.993L293.083 331.278L291.507 329.311L289.93 327.345L280.062 336.06L281.638 338.027ZM291.507 329.311L293.263 331.102L302.59 321.017L300.834 319.226L299.078 317.435L289.751 327.521L291.507 329.311ZM300.834 319.226L301.037 321.785L314.955 320.593L314.751 318.034L314.548 315.474L300.63 316.667L300.834 319.226ZM314.751 318.034L316.325 320.003L326.468 311.074L324.895 309.104L323.322 307.135L313.178 316.065L314.751 318.034ZM324.895 309.104L324.941 311.672L338.561 311.431L338.515 308.863L338.469 306.296L324.849 306.537L324.895 309.104ZM338.515 308.863L339.854 311.015L350.736 303.564L349.397 301.413L348.059 299.261L337.177 306.711L338.515 308.863ZM349.397 301.413L350.782 303.532L362.019 295.451L360.635 293.331L359.25 291.212L348.013 299.293L349.397 301.413ZM360.635 293.331L361.411 295.768L373.978 291.378L373.202 288.941L372.426 286.504L359.859 290.895L360.635 293.331ZM373.202 288.941L372.635 291.438L385.641 294.714L386.208 292.217L386.774 289.72L373.768 286.444L373.202 288.941ZM386.208 292.217L385.397 294.639L397.616 299.169L398.427 296.747L399.237 294.326L387.018 289.796L386.208 292.217ZM398.427 296.747L398.162 299.3L410.368 300.721L410.633 298.169L410.898 295.616L398.692 294.195L398.427 296.747ZM410.633 298.169L410.945 300.716L424.305 298.939L423.993 296.391L423.681 293.844L410.321 295.621L410.633 298.169ZM423.993 296.391L423.052 298.76L434.716 303.89L435.658 301.521L436.599 299.153L424.934 294.023L423.993 296.391ZM435.658 301.521L435.225 304.048L448.163 306.513L448.596 303.986L449.028 301.46L436.09 298.995L435.658 301.521ZM448.596 303.986L446.505 305.314L453.902 318.128L455.993 316.8L458.084 315.472L450.686 302.658L448.596 303.986ZM455.993 316.8L454.795 319.036L465.519 325.387L466.717 323.151L467.915 320.915L457.191 314.564L455.993 316.8ZM466.717 323.151L465.937 325.583L478.773 330.142L479.553 327.71L480.332 325.278L467.497 320.719L466.717 323.151ZM479.553 327.71L477.303 328.713L481.235 338.396L483.485 337.392L485.734 336.389L481.802 326.707L479.553 327.71ZM483.485 337.392L485.901 337L483.796 322.891L481.38 323.284L478.964 323.677L481.069 337.785L483.485 337.392ZM481.38 323.284L483.295 321.69L475.372 311.206L473.457 312.8L471.543 314.394L479.466 324.878L481.38 323.284ZM473.457 312.8L475.407 311.253L467.826 300.73L465.876 302.277L463.927 303.824L471.508 314.347L473.457 312.8ZM465.876 302.277L468.089 301.187L462.662 289.075L460.449 290.165L458.237 291.254L463.664 303.367L465.876 302.277ZM460.449 290.165L462.371 288.581L454.594 278.186L452.672 279.77L450.75 281.354L458.527 291.749L460.449 290.165ZM452.672 279.77L454.155 277.73L443.982 269.567L442.5 271.607L441.017 273.646L451.19 281.809L452.672 279.77ZM442.5 271.607L444.407 270.003L436.577 259.747L434.67 261.35L432.763 262.954L440.592 273.21L442.5 271.607ZM434.67 261.35L435.455 258.92L422.557 254.304L421.772 256.734L420.987 259.165L433.884 263.781L434.67 261.35ZM421.772 256.734L423.413 254.834L414.374 246.227L412.733 248.128L411.092 250.029L420.131 258.635L421.772 256.734ZM412.733 248.128L414.096 245.999L404.549 239.249L403.186 241.378L401.823 243.507L411.37 250.257L412.733 248.128ZM403.186 241.378L402.736 238.853L393.663 240.618L394.112 243.143L394.562 245.668L403.636 243.903L403.186 241.378ZM394.112 243.143L392.724 241.026L381.505 249.131L382.893 251.248L384.282 253.364L395.501 245.259L394.112 243.143ZM382.893 251.248L383.147 248.694L369.234 247.143L368.98 249.696L368.727 252.25L382.64 253.801L382.893 251.248ZM368.98 249.696L368.408 247.198L355.888 250.338L356.461 252.835L357.033 255.333L369.553 252.194L368.98 249.696ZM356.461 252.835L357.945 250.797L347.826 242.667L346.342 244.705L344.858 246.744L354.977 254.874L356.461 252.835ZM346.342 244.705L347.491 242.441L337.266 236.706L336.117 238.971L334.968 241.235L345.193 246.97L346.342 244.705ZM336.117 238.971L336.1 236.403L321.609 236.482L321.626 239.049L321.643 241.617L336.134 241.539L336.117 238.971ZM321.626 239.049L323.384 237.268L314.861 227.996L313.103 229.777L311.345 231.559L319.868 240.831L321.626 239.049ZM313.103 229.777L315.281 228.615L309.463 216.627L307.285 217.789L305.106 218.951L310.924 230.94L313.103 229.777ZM307.285 217.789L308.367 215.488L297.034 209.592L295.952 211.892L294.869 214.193L306.202 220.089L307.285 217.789ZM295.952 211.892L297.314 209.763L286.777 202.316L285.414 204.446L284.051 206.576L294.589 214.022L295.952 211.892ZM285.414 204.446L287.34 202.868L279.092 191.777L277.166 193.356L275.239 194.934L283.488 206.024L285.414 204.446ZM277.166 193.356L278.28 191.072L266.253 184.587L265.139 186.871L264.025 189.155L276.052 195.639L277.166 193.356ZM265.139 186.871L265.001 184.307L251.199 185.097L251.337 187.661L251.475 190.225L265.277 189.435L265.139 186.871ZM251.337 187.661L250.998 185.117L237.036 187.142L237.375 189.685L237.714 192.229L251.676 190.205L251.337 187.661ZM237.375 189.685L237.623 187.131L231.842 186.501L231.594 189.055L231.346 191.609L237.127 192.24L237.375 189.685ZM231.594 189.055L232.351 191.498L245.457 187.048L244.701 184.605L243.944 182.161L230.838 186.611L231.594 189.055ZM244.701 184.605L245.156 187.129L258.938 184.415L258.483 181.891L258.028 179.367L244.245 182.081L244.701 184.605ZM258.483 181.891L259.883 183.999L270.653 176.125L269.253 174.017L267.853 171.909L257.083 179.783L258.483 181.891ZM269.253 174.017L270.422 176.275L281.519 169.956L280.35 167.698L279.182 165.44L268.084 171.759L269.253 174.017ZM280.35 167.698L280.577 170.255L292.452 169.117L292.225 166.559L291.998 164.002L280.123 165.141L280.35 167.698ZM292.225 166.559L293.872 168.461L305.776 157.096L304.129 155.195L302.482 153.293L290.578 164.658L292.225 166.559ZM304.129 155.195L302.984 157.462L315.94 164.693L317.085 162.426L318.23 160.159L305.274 152.928L304.129 155.195ZM317.085 162.426L316.761 164.971L329.133 166.73L329.457 164.186L329.781 161.641L317.409 159.882L317.085 162.426ZM329.457 164.186L328.943 166.695L340.964 169.432L341.478 166.922L341.992 164.412L329.971 161.676L329.457 164.186ZM341.478 166.922L341.039 169.447L353.143 171.791L353.582 169.266L354.021 166.741L341.917 164.397L341.478 166.922ZM353.582 169.266L352.608 171.62L363.805 176.742L364.778 174.388L365.751 172.035L354.555 166.912L353.582 169.266ZM364.778 174.388L364.471 176.935L378.403 178.817L378.711 176.27L379.018 173.723L365.085 171.841L364.778 174.388ZM378.711 176.27L376.939 178.036L385.905 187.953L387.677 186.187L389.449 184.421L380.483 174.504L378.711 176.27ZM387.677 186.187L385.932 187.982L395.108 197.817L396.853 196.022L398.598 194.227L389.423 184.392L387.677 186.187ZM396.853 196.022L394.431 196.375L396.719 213.444L399.14 213.091L401.562 212.738L399.275 195.669L396.853 196.022ZM399.14 213.091L397.465 214.958L408.688 226.059L410.363 224.191L412.038 222.324L400.816 211.223L399.14 213.091ZM410.363 224.191L408.233 225.448L414.497 237.128L416.627 235.871L418.758 234.614L412.494 222.934L410.363 224.191ZM416.627 235.871L415.08 237.856L424.873 246.277L426.42 244.292L427.968 242.306L418.175 233.885L416.627 235.871ZM426.42 244.292L424.845 246.253L434.513 254.821L436.089 252.86L437.664 250.899L427.996 242.331L426.42 244.292ZM436.089 252.86L435.431 255.332L449.159 259.386L449.817 256.914L450.475 254.442L436.747 250.388L436.089 252.86ZM449.817 256.914L447.438 257.504L450.898 272.779L453.277 272.189L455.657 271.599L452.196 256.324L449.817 256.914ZM453.277 272.189L451.56 274.014L460.403 283.186L462.12 281.361L463.837 279.536L454.994 270.364L453.277 272.189ZM462.12 281.361L459.872 282.369L464.493 293.693L466.74 292.685L468.988 291.678L464.368 280.354L462.12 281.361ZM466.74 292.685L464.917 294.393L475.988 307.42L477.811 305.712L479.635 304.005L468.564 290.978L466.74 292.685ZM477.811 305.712L480.028 304.632L474.487 292.137L472.27 293.217L470.053 294.298L475.595 306.793L477.811 305.712ZM472.27 293.217L474.26 291.729L466.288 279.987L464.297 281.475L462.307 282.963L470.279 294.705L472.27 293.217ZM464.297 281.475L466.74 281.37L466.148 266.752L463.704 266.856L461.261 266.96L461.854 281.579L464.297 281.475ZM463.704 266.856L465.62 265.263L456.69 253.431L454.775 255.024L452.859 256.616L461.789 268.449L463.704 266.856ZM454.775 255.024L457.22 254.989L457.006 240.443L454.561 240.477L452.115 240.512L452.329 255.059L454.775 255.024ZM454.561 240.477L456.753 239.344L450.559 226.168L448.366 227.301L446.174 228.435L452.368 241.611L454.561 240.477ZM448.366 227.301L450.645 228.238L456.257 213.128L453.978 212.191L451.7 211.254L446.088 226.365L448.366 227.301ZM453.978 212.191L456.423 212.28L456.854 198.385L454.41 198.296L451.965 198.208L451.534 212.103L453.978 212.191ZM454.41 198.296L456.839 198.592L458.325 184.924L455.896 184.628L453.466 184.332L451.98 198L454.41 198.296ZM455.896 184.628L458.285 184.083L455.252 169.54L452.863 170.085L450.474 170.629L453.507 185.172L455.896 184.628ZM452.863 170.085L455.27 170.543L457.732 156.144L455.325 155.685L452.918 155.227L450.456 169.626L452.863 170.085ZM455.325 155.685L456.789 157.745L468.833 148.324L467.369 146.264L465.906 144.204L453.862 153.625L455.325 155.685ZM467.369 146.264L469.687 147.088L474.237 132.91L471.919 132.086L469.602 131.262L465.052 145.44L467.369 146.264ZM471.919 132.086L472.491 134.584L486.668 131.034L486.097 128.536L485.525 126.038L471.348 129.588L471.919 132.086ZM486.097 128.536L487.723 130.457L497.802 121.057L496.177 119.136L494.551 117.214L484.471 126.614L486.097 128.536ZM496.177 119.136L497.199 121.471L509.227 115.68L508.205 113.346L507.182 111.011L495.154 116.801L496.177 119.136ZM508.205 113.346L508.939 115.797L521.476 111.681L520.743 109.23L520.009 106.779L507.471 110.895L508.205 113.346ZM520.743 109.23L521.628 111.626L534.258 106.496L533.373 104.101L532.487 101.706L519.857 106.835L520.743 109.23ZM533.373 104.101L533.507 106.665L546.892 105.919L546.758 103.355L546.624 100.791L533.238 101.537L533.373 104.101ZM546.758 103.355L546.958 105.915L560.981 104.732L560.78 102.172L560.58 99.6128L546.557 100.795L546.758 103.355ZM560.78 102.172L559.304 104.216L570.544 113.18L572.021 111.136L573.498 109.092L562.257 100.129L560.78 102.172ZM572.021 111.136L571.617 113.668L585.624 116.159L586.028 113.627L586.432 111.096L572.425 108.604L572.021 111.136ZM586.028 113.627L584.667 115.758L596.306 123.969L597.667 121.838L599.028 119.707L587.389 111.497L586.028 113.627ZM597.667 121.838L595.562 123.141L603.007 136.372L605.112 135.069L607.217 133.766L599.772 120.535L597.667 121.838ZM605.112 135.069L602.682 135.353L604.305 150.429L606.735 150.146L609.165 149.862L607.542 134.785L605.112 135.069ZM606.735 150.146L604.364 150.768L608.024 166.031L610.395 165.408L612.767 164.786L609.107 149.523L606.735 150.146ZM610.395 165.408L608.333 164.025L600.076 177.619L602.139 179.003L604.202 180.386L612.458 166.792L610.395 165.408ZM602.139 179.003L600.978 176.74L588.021 184.052L589.182 186.315L590.343 188.577L603.3 181.265L602.139 179.003ZM589.182 186.315L588.417 183.874L575.457 188.327L576.221 190.768L576.986 193.208L589.946 188.755L589.182 186.315ZM576.221 190.768L575.96 188.214L565.779 189.341L566.04 191.894L566.301 194.448L576.482 193.321L576.221 190.768ZM566.04 191.894L566.882 189.485L557.368 185.8L556.526 188.209L555.683 190.618L565.197 194.304L566.04 191.894ZM556.526 188.209L558.941 187.809L557.221 176.49L554.806 176.89L552.391 177.29L554.111 188.609L556.526 188.209ZM554.806 176.89L557.242 176.667L555.972 161.669L553.536 161.892L551.1 162.114L552.37 177.112L554.806 176.89ZM553.536 161.892L553.358 164.453L566.056 165.451L566.234 162.89L566.412 160.329L553.714 159.331L553.536 161.892ZM566.234 162.89L566.862 165.373L577.015 162.559L576.387 160.076L575.759 157.593L565.606 160.407L566.234 162.89ZM576.387 160.076L574.823 162.048L588.472 173.99L590.036 172.018L591.599 170.046L577.95 158.105L576.387 160.076ZM590.036 172.018L592.207 173.203L599.555 158.322L597.383 157.136L595.211 155.951L587.864 170.833L590.036 172.018ZM597.383 157.136L599.809 156.82L598.058 142.213L595.632 142.529L593.205 142.845L594.957 157.452L597.383 157.136ZM595.632 142.529L597.623 141.042L589.328 128.814L587.337 130.301L585.346 131.788L593.641 144.016L595.632 142.529ZM587.337 130.301L587.974 127.823L574.802 124.063L574.165 126.541L573.528 129.019L586.7 132.779L587.337 130.301ZM574.165 126.541L574.457 123.992L561.737 122.363L561.446 124.912L561.154 127.461L573.873 129.09L574.165 126.541ZM561.446 124.912L560.096 122.768L548.61 130.727L549.96 132.871L551.31 135.015L562.796 127.056L561.446 124.912ZM549.96 132.871L549.076 130.475L535.828 135.841L536.712 138.237L537.596 140.633L550.844 135.267L549.96 132.871ZM536.712 138.237L534.372 137.488L530.086 152.35L532.426 153.098L534.767 153.847L539.053 138.985L536.712 138.237ZM532.426 153.098L530.481 151.539L522.6 162.39L524.545 163.949L526.491 165.509L534.372 154.658L532.426 153.098ZM524.545 163.949L522.412 162.689L516.058 174.574L518.191 175.835L520.324 177.095L526.679 165.21L524.545 163.949ZM518.191 175.835L516.316 174.183L507.721 184.955L509.596 186.606L511.472 188.257L520.067 177.486L518.191 175.835ZM509.596 186.606L507.339 185.615L502.288 198.346L504.546 199.337L506.804 200.328L511.854 187.597L509.596 186.606ZM504.546 199.337L502.172 198.713L499.015 212.046L501.388 212.67L503.761 213.294L506.919 199.961L504.546 199.337ZM501.388 212.67L499.107 211.738L494.334 224.669L496.614 225.601L498.895 226.533L503.668 213.602L501.388 212.67ZM496.614 225.601L494.182 225.862L495.559 239.765L497.991 239.504L500.424 239.243L499.047 225.34L496.614 225.601ZM497.991 239.504L495.546 239.552L495.808 252.933L498.253 252.885L500.698 252.837L500.436 239.456L497.991 239.504ZM498.253 252.885L495.886 252.234L492.518 265.83L494.885 266.481L497.251 267.132L500.62 253.536L498.253 252.885ZM494.885 266.481L492.508 265.869L489.192 280.175L491.568 280.787L493.944 281.399L497.261 267.093L494.885 266.481ZM491.568 280.787L489.209 281.459L492.696 294.868L495.055 294.196L497.414 293.524L493.927 280.115L491.568 280.787ZM495.055 294.196L492.904 295.414L499.235 307.712L501.386 306.494L503.537 305.276L497.206 292.978L495.055 294.196ZM501.386 306.494L499.424 308.023L507.343 319.214L509.305 317.685L511.267 316.156L503.348 304.965L501.386 306.494ZM509.305 317.685L506.972 318.45L510.783 331.202L513.116 330.438L515.449 329.673L511.638 316.92L509.305 317.685ZM513.116 330.438L510.786 331.212L514.747 344.287L517.077 343.513L519.408 342.738L515.447 329.663L513.116 330.438ZM517.077 343.513L514.658 343.885L516.889 359.655L519.308 359.283L521.727 358.91L519.497 343.14L517.077 343.513ZM519.308 359.283L517.042 360.244L522.6 374.633L524.866 373.672L527.132 372.71L521.574 358.321L519.308 359.283ZM524.866 373.672L522.981 375.304L532.336 387.202L534.221 385.57L536.105 383.937L526.751 372.039L524.866 373.672ZM534.221 385.57L533.272 387.934L547.228 394.133L548.177 391.768L549.126 389.404L535.17 383.205L534.221 385.57ZM548.177 391.768L545.854 392.567L550.263 406.629L552.585 405.83L554.908 405.031L550.5 390.97L548.177 391.768ZM552.585 405.83L551.114 407.879L562.049 416.544L563.52 414.495L564.991 412.447L554.056 403.781L552.585 405.83ZM563.52 414.495L561.13 415.035L564.268 430.22L566.658 429.68L569.048 429.14L565.91 413.955L563.52 414.495ZM566.658 429.68L565.037 431.599L575.131 441.004L576.752 439.084L578.374 437.165L568.279 427.76L566.658 429.68ZM576.752 439.084L574.756 440.564L582.531 452.117L584.527 450.638L586.524 449.158L578.749 437.605L576.752 439.084ZM584.527 450.638L583.183 452.78L594.421 460.564L595.765 458.422L597.109 456.279L585.871 448.495L584.527 450.638ZM595.765 458.422L595.238 460.928L609.694 464.306L610.221 461.8L610.748 459.293L596.292 455.915L595.765 458.422ZM610.221 461.8L608.049 462.975L614.692 476.487L616.865 475.312L619.038 474.137L612.394 460.625L610.221 461.8ZM616.865 475.312L615.91 477.674L628.252 483.194L629.207 480.832L630.161 478.47L617.82 472.95L616.865 475.312ZM629.207 480.832L627.52 482.688L637.733 492.924L639.42 491.068L641.107 489.212L630.893 478.976L629.207 480.832ZM639.42 491.068L639.72 493.617L654.136 491.773L653.836 489.224L653.536 486.675L639.12 488.519L639.42 491.068ZM653.836 489.224L653.475 491.763L668.945 494.219L669.306 491.679L669.667 489.14L654.197 486.685L653.836 489.224ZM669.306 491.679L671.542 492.725L677.137 479.485L674.901 478.44L672.666 477.395L667.07 490.634L669.306 491.679ZM674.901 478.44L672.49 478.01L670.122 492.803L672.533 493.234L674.945 493.664L677.313 478.87L674.901 478.44ZM672.533 493.234L670.095 493.029L668.957 508.3L671.395 508.505L673.833 508.71L674.972 493.439L672.533 493.234ZM671.395 508.505L670.854 506L656.274 509.449L656.816 511.954L657.358 514.459L671.937 511.01L671.395 508.505ZM656.816 511.954L654.895 510.361L646.552 521.462L648.473 523.055L650.394 524.648L658.737 513.547L656.816 511.954ZM648.473 523.055L650.407 521.487L641.605 509.527L639.671 511.095L637.737 512.663L646.539 524.623L648.473 523.055ZM639.671 511.095L640.533 508.694L627.531 503.522L626.669 505.924L625.806 508.325L638.808 513.496L639.671 511.095ZM626.669 505.924L627.473 503.5L614.06 498.567L613.256 500.99L612.451 503.413L625.864 508.347L626.669 505.924ZM613.256 500.99L615.387 499.735L608.47 486.813L606.339 488.068L604.207 489.323L611.124 502.245L613.256 500.99ZM606.339 488.068L607.379 485.746L594.922 479.57L593.881 481.891L592.84 484.213L605.298 490.39L606.339 488.068ZM593.881 481.891L596.035 480.68L589.34 467.586L587.186 468.797L585.032 470.009L591.727 483.103L593.881 481.891ZM587.186 468.797L589.086 467.185L580.636 456.217L578.736 457.83L576.836 459.442L585.286 470.41L587.186 468.797ZM578.736 457.83L579.711 455.477L566.946 449.625L565.971 451.978L564.996 454.331L577.761 460.183L578.736 457.83ZM565.971 451.978L568.146 450.809L561.662 437.544L559.487 438.713L557.312 439.882L563.796 453.147L565.971 451.978ZM559.487 438.713L560.192 436.256L546.206 431.807L545.501 434.265L544.796 436.722L558.782 441.171L559.487 438.713ZM545.501 434.265L547.613 432.975L540.603 420.344L538.491 421.634L536.378 422.923L543.388 435.555L545.501 434.265ZM538.491 421.634L539.495 419.294L526.829 413.276L525.824 415.615L524.82 417.954L537.486 423.973L538.491 421.634ZM525.824 415.615L527.783 414.081L519.599 402.569L517.64 404.103L515.682 405.636L523.866 417.148L525.824 415.615ZM517.64 404.103L518.643 401.763L506.105 395.82L505.102 398.16L504.1 400.5L516.638 406.443L517.64 404.103ZM505.102 398.16L504.023 395.853L491.091 402.506L492.17 404.813L493.25 407.119L506.182 400.466L505.102 398.16ZM492.17 404.813L491.904 402.259L479.256 403.692L479.522 406.245L479.789 408.798L492.437 407.366L492.17 404.813Z" fill="#111111"/>
<path d="M176.819 483.859L181.391 471.43L191.724 462.997L197.892 451.415L209.212 444.903L216.935 434.476L227.258 427.268L238.252 421.533L250.519 416.031L261.922 407.947L275.096 404.858L287.183 398.411L300.351 395.588L313.266 392.012L326.515 390.083L338.768 383.162L352.273 382.976L365.215 379.263L378.293 375.761L391.753 378.57L404.913 378.437L418.253 375.275L431.582 375.595L444.267 380.026L456.874 383.624L469.464 387.2L480.8 393.836L493.588 397.767L505.119 398.243L517.4 403.681" stroke="#111111" stroke-width="5.01499" stroke-miterlimit="10"/>
<path d="M222.593 397.391L235.465 394.683L248.443 392.798L261.503 391.526L274.535 392.727L286.223 398.475" fill="white"/>
<path d="M222.593 397.391L235.465 394.683L248.443 392.798L261.503 391.526L274.535 392.727L286.223 398.475" stroke="#111111" stroke-width="5.01499" stroke-miterlimit="10"/>
<path d="M252.392 363.613L265.698 364.573L278.976 364.301L292.077 366.161L305.178 367.961L318.068 370.944L330.56 375.322L342.741 380.584" fill="white"/>
<path d="M252.392 363.613L265.698 364.573L278.976 364.301L292.077 366.161L305.178 367.961L318.068 370.944L330.56 375.322L342.741 380.584" stroke="#111111" stroke-width="5.01499" stroke-miterlimit="10"/>
<path d="M344.081 307.354L356.42 312.871L368.916 318.017L380.029 325.948L392.259 331.741L403.016 340.05L413.52 348.612L424.684 356.385L433.378 367.065L443.446 376.368" fill="white"/>
<path d="M344.081 307.354L356.42 312.871L368.916 318.017L380.029 325.948L392.259 331.741L403.016 340.05L413.52 348.612L424.684 356.385L433.378 367.065L443.446 376.368" stroke="#111111" stroke-width="5.01499" stroke-miterlimit="10"/>
<path d="M287.885 337.143L300.523 336.883L313.221 337.389L325.583 340.191L338.035 342.56L349.961 346.87L361.713 351.682L372.349 358.735L383.23 365.384L392.135 374.71" fill="white"/>
<path d="M287.885 337.143L300.523 336.883L313.221 337.389L325.583 340.191L338.035 342.56L349.961 346.87L361.713 351.682L372.349 358.735L383.23 365.384L392.135 374.71" stroke="#111111" stroke-width="5.01499" stroke-miterlimit="10"/>
<path d="M226.011 204.802L238.023 197.3L250.938 191.785L264.784 190.703L277.138 189.203L289.58 189.114L302.06 189.475L314.042 193L326.026 195.988L338.649 197.467L349.115 204.754L359.904 210.845L371.077 216.522L380.708 224.709L389.948 235.721L400.901 244.795" fill="white"/>
<path d="M226.011 204.802L238.023 197.3L250.938 191.785L264.784 190.703L277.138 189.203L289.58 189.114L302.06 189.475L314.042 193L326.026 195.988L338.649 197.467L349.115 204.754L359.904 210.845L371.077 216.522L380.708 224.709L389.948 235.721L400.901 244.795" stroke="#111111" stroke-width="5.01499" stroke-miterlimit="10"/>
<path d="M270.302 174.382L283.287 179.632L294.313 188.689" fill="white"/>
<path d="M270.302 174.382L283.287 179.632L294.313 188.689" stroke="#111111" stroke-width="5.01499" stroke-miterlimit="10"/>
<path d="M293.938 167.73L306.227 175.186L317.738 183.882L326.913 195.273" fill="white"/>
<path d="M293.938 167.73L306.227 175.186L317.738 183.882L326.913 195.273" stroke="#111111" stroke-width="5.01499" stroke-miterlimit="10"/>
<path d="M324.505 167.62L335.022 178.237L343.1 191L349.842 204.648" fill="white"/>
<path d="M324.505 167.62L335.022 178.237L343.1 191L349.842 204.648" stroke="#111111" stroke-width="5.01499" stroke-miterlimit="10"/>
<path d="M369.74 217.371L369.441 202.75L365.922 188.624L357.063 177.526" fill="white"/>
<path d="M369.74 217.371L369.441 202.75L365.922 188.624L357.063 177.526" stroke="#111111" stroke-width="5.01499" stroke-miterlimit="10"/>
<path d="M498.793 321.014L491.905 309.222L487.976 296.041L482.782 283.432L479.114 270.177L473.59 257.678L468.651 244.909L465.805 231.378L460.893 218.53L460.027 204.49L457.519 190.99L454.103 177.514L454.352 163.403L459.732 150.074" fill="white"/>
<path d="M498.793 321.014L491.905 309.222L487.976 296.041L482.782 283.432L479.114 270.177L473.59 257.678L468.651 244.909L465.805 231.378L460.893 218.53L460.027 204.49L457.519 190.99L454.103 177.514L454.352 163.403L459.732 150.074" stroke="#111111" stroke-width="5.01499" stroke-miterlimit="10"/>
<path d="M493.398 228.243L486.886 215.586L481.819 202.185L477.795 188.378L474.382 174.408L471.361 160.235L472.682 145.667L478.729 132.755" fill="white"/>
<path d="M493.398 228.243L486.886 215.586L481.819 202.185L477.795 188.378L474.382 174.408L471.361 160.235L472.682 145.667L478.729 132.755" stroke="#111111" stroke-width="5.01499" stroke-miterlimit="10"/>
<path d="M508.486 186.22L501.267 173.795L495.568 160.467L492.904 145.976L495.884 131.464L503.743 119.189" fill="white"/>
<path d="M508.486 186.22L501.267 173.795L495.568 160.467L492.904 145.976L495.884 131.464L503.743 119.189" stroke="#111111" stroke-width="5.01499" stroke-miterlimit="10"/>
<path d="M530.369 154.047L520.966 142.25L517.638 127.301L523.436 113.127" fill="white"/>
<path d="M530.369 154.047L520.966 142.25L517.638 127.301L523.436 113.127" stroke="#111111" stroke-width="5.01499" stroke-miterlimit="10"/>
</svg>
