<svg width="933" height="615" viewBox="0 0 933 615" fill="none" xmlns="http://www.w3.org/2000/svg">
<path d="M34.7989 408.824L30.0248 385.703L28.6972 363.631L29.5076 341.465L30.2723 319.302L25.815 297.361L29.7427 275.061L27.0404 253.048L23.2523 231.08L23.7371 208.927L21.2171 186.903L23.7609 164.66L23.9531 142.438L24.0013 124.211L39.3579 113.704L61.8648 107.037L84.6779 101.121L107.025 93.7678L128.274 83.1047L150.31 74.8136L172.819 69.0447L159.724 46.6282L176.006 27.2072L196.007 20.407L216.039 12.2687L237.581 14.051L258.706 10.2316L279.794 15.1023L301.558 15.8875L322.027 23.3689L332.339 39.4768L331.453 59.0828L317.199 72.8645L338.328 76.5164L359.941 76.6529L381.196 79.8671L402.034 86.7009L423.518 87.9563L444.936 89.7979L466.278 92.4532L481.288 107.952L485.005 132.058L484.768 155.606L483.901 179.127L483.072 202.668L480.146 226.256L484.621 248.454L482.984 270.74L485.781 292.956L481.721 315.278L481.975 337.536L485.004 359.754L483.411 382.93L498.314 406.284L481.006 418.354L461.161 426.102L445.619 440.971L427.972 452.35L408.235 460.257L390.971 472.28L372.627 482.5L356.502 496.418L338.597 507.365L318.111 514.188L297.031 512.384L276.632 510.148L257.393 502.9L237.891 496.758L217.35 494.56L198.831 484.952L178.785 479.235L157.876 476.263L139.546 464.887L119.532 458.999L98.3818 456.801L79.2521 448.031L60.1593 439.137L39.2739 436.079L18.8153 428.225L34.7989 408.824Z" fill="#111111"/>
<path d="M34.7989 408.824L30.0248 385.703L28.6971 363.631L29.5075 341.465L30.2723 319.302L25.815 297.361L29.7427 275.061L27.0404 253.048L23.2522 231.08L23.7371 208.927L21.2171 186.903L23.7609 164.66L23.9531 142.438L24.0013 124.211L39.3579 113.704L61.8648 107.037L84.6778 101.121L107.025 93.7678L128.274 83.1047L150.31 74.8136L172.819 69.0447L159.724 46.6282L176.005 27.2072L196.007 20.407L216.039 12.2687L237.581 14.051L258.706 10.2316L279.794 15.1023L301.558 15.8875L322.027 23.3689L332.339 39.4768L331.453 59.0828L317.199 72.8645L338.328 76.5164L359.941 76.6529L381.196 79.8671L402.034 86.7009L423.518 87.9563L444.936 89.7979L466.278 92.4532L481.288 107.952L485.005 132.058L484.768 155.606L483.901 179.127L483.072 202.668L480.146 226.256L484.621 248.454L482.984 270.74L485.781 292.956L481.721 315.278L481.975 337.536L485.004 359.754L483.411 382.93L498.314 406.284L481.006 418.354L461.161 426.102L445.619 440.971L427.972 452.35L408.235 460.257L390.971 472.28L372.627 482.5L356.502 496.419L338.597 507.365L318.111 514.188L297.031 512.384L276.632 510.148L257.393 502.9L237.891 496.758L217.35 494.56L198.831 484.952L178.785 479.235L157.876 476.263L139.546 464.887L119.532 458.999L98.3818 456.801L79.2521 448.031L60.1593 439.137L39.2739 436.079L18.8153 428.225L34.7989 408.824Z" fill="#111111" stroke="white" stroke-width="6.36637" stroke-miterlimit="10"/>
<path d="M304.302 44.7515L288.123 59.3411L265.101 62.3248L239.791 62.489L214.728 58.5275L190.276 53.4658L206.037 34.4693L226.615 31.6808L247.319 30.2264L268.046 29.0893L288.286 33.4035L304.302 44.7515Z" fill="white"/>
<path d="M304.302 44.7515L288.123 59.3411L265.101 62.3248L239.791 62.489L214.728 58.5275L190.276 53.4658L206.037 34.4693L226.615 31.6808L247.319 30.2264L268.046 29.0893L288.286 33.4035L304.302 44.7515Z" stroke="white" stroke-width="6.36637" stroke-miterlimit="10"/>
<path d="M276.56 255.973L269.114 255.359L261.27 254.601L254.116 249.639L245.725 252.222L238.433 248.098L230.788 246.117L222.954 245.3L215.395 242.792L207.144 244.523L199.286 243.845L191.647 241.836L183.966 240.083L176.09 239.512L168.857 235.008L160.749 235.862L153.083 234.008L145.731 230.232L137.775 230.16L129.736 230.584L122.004 229.15L114.149 228.445L106.859 224.297L99.1677 222.603L90.8696 224.611L83.7557 219.375L76.0562 217.723L68.0973 217.648L59.9441 218.766L52.2833 216.871L44.9425 214.346L45.4282 222.387L47.8249 230.469L48.9864 238.667L48.1376 247.048L50.3223 255.151L48.6754 263.607L49.1083 271.87L52.7999 279.834L49.1063 288.478L52.3872 296.478L51.9987 304.817L55.4452 312.803L53.8944 321.251L54.9036 329.463L57.4228 337.533L56.2099 345.951L58.7325 354.025L57.1215 363.184L65.3623 365.822L73.6382 364.844L81.0542 368.057L88.5435 370.916L96.3443 372.243L104.002 374.282L111.928 375.019L119.781 376.104L127.173 379.442L135.688 377.317L142.868 381.676L150.816 382.298L158.816 382.681L166.058 386.738L174.106 386.881L181.435 390.514L188.819 393.887L197.386 391.509L204.829 394.593L211.951 399.22L220.399 397.432L228.119 399.169L235.66 401.771L243.514 402.876L251.456 403.529L258.44 408.84L266.902 406.993L273.794 412.752L281.892 412.672L290.504 415.194L289.103 405.861L286.972 397.628L289.096 389.051L285.997 380.894L286.915 372.414L287.974 363.92L285.257 355.735L283.617 347.462L285.303 338.919L282.449 330.744L280.431 322.503L280.464 314.094L282.514 305.517L282.58 297.107L281.499 288.784L278.268 280.64L277.509 272.296L278.716 263.751L276.56 255.973Z" fill="white" stroke="white" stroke-width="6.0482" stroke-miterlimit="10"/>
<path d="M459.604 131.061L451.32 136.986L442.832 142.438L433.937 146.941L423.404 147.594L415.133 153.553L406.936 159.685L397.961 164L388.7 167.639L378.921 170.064L368.774 171.625L361.042 178.846L351.076 180.841L340.702 181.873L333.544 190.439L324.696 195.056L316.379 197.626L316.249 206.517L316.406 216.658L315.374 226.855L318.873 236.845L316.641 247.1L317.343 257.217L317.801 267.347L316.128 277.574L321.22 287.489L320.062 297.692L316.833 307.993L320.219 317.988L318.75 328.208L317.978 338.396L319.059 348.497L320.396 358.587L320.321 368.742L323.586 378.743L322.921 388.923L324.649 398.994L326.425 409.064L324.434 419.311L327.376 429.326L328.576 439.422L328.924 449.561L327.582 459.778" stroke="#C0C0C0" stroke-width="4" stroke-miterlimit="10"/>
<path d="M42.3215 153.021L52.6972 154.176L62.5293 158.311L73.0875 158.438L83.5736 158.971L93.9126 160.313L103.662 164.926L114.225 165.03L124.814 164.982L135.127 166.481L145.335 168.556L155.355 171.665L165.245 175.51L176.002 174.534L185.957 178.01L195.765 182.302L206.73 180.186L217.09 181.433L227.269 183.665L237.384 186.247L247.591 188.342L257.627 191.368L268.305 190.844L278.172 194.81L288.458 196.48L298.708 198.337" stroke="#C0C0C0" stroke-width="4" stroke-miterlimit="10"/>
<path d="M80.1592 280.819L79.8823 287.426C79.2362 302.123 77.2057 313.573 71.6679 312.589C69.5913 312.22 68.4376 310.843 67.9761 309.12V306.448C68.899 307.55 70.1912 308.201 71.4833 308.431C75.5444 309.153 77.4365 300.959 77.9441 282.91C77.9902 281.137 76.975 279.644 74.2061 279.152V278.027L97.3263 282.137V283.262C94.5574 282.77 93.5883 283.91 93.5883 285.691V311.705C93.5883 313.486 94.5574 314.971 97.3263 315.463V316.588L85.3739 314.463V313.338C88.1428 313.83 89.1119 312.69 89.1119 310.909V282.411L80.1592 280.819ZM106.128 314.356C106.128 315.903 106.959 317.175 109.359 317.602V318.727L98.8831 316.865V315.74C101.283 316.166 102.113 315.189 102.113 313.642V297.8C102.113 296.253 101.283 294.98 98.8831 294.554V293.429L109.359 295.291V296.416C106.959 295.989 106.128 296.967 106.128 298.513V311.497L116.189 300.63V300.302C116.189 298.755 115.358 297.482 112.958 297.056V295.931L123.434 297.793V298.918C121.034 298.492 120.204 299.469 120.204 301.016V316.858C120.204 318.405 121.034 319.678 123.434 320.104V321.229L112.958 319.367V318.242C115.358 318.668 116.189 317.691 116.189 316.144V303.208L106.128 314.075V314.356ZM131.953 318.947C131.953 320.494 132.784 321.766 135.184 322.193V323.318L124.708 321.456V320.331C127.108 320.757 127.938 319.78 127.938 318.233V302.391C127.938 300.844 127.108 299.571 124.708 299.145V298.02L142.475 301.178V309.943L141.183 309.714C140.398 304.653 139.199 302.143 133.938 301.207L131.953 300.855V318.947ZM157.196 318.747V312.795C155.95 314.401 154.657 314.875 153.135 315.447C150.827 316.256 149.304 316.548 149.304 319.501C149.304 322.032 150.966 323.686 152.858 324.023C155.304 324.457 157.196 321.982 157.196 318.747ZM153.088 302.596C158.534 303.565 161.211 306.853 161.211 311.727V327.945L160.149 327.756L157.611 322.852C156.365 325.537 154.565 327.232 150.827 326.568C147.181 325.92 144.689 323.086 144.689 319.383C144.689 315.118 148.427 314.751 151.842 313.952C155.073 313.214 157.057 311.645 157.057 309.583C157.057 307.802 155.627 306.235 152.812 305.734C149.35 305.119 146.951 306.708 145.797 309.221V306.972C146.397 304.219 148.797 301.833 153.088 302.596ZM173.222 326.284V308.097C168.053 307.179 167.638 308.933 166.854 313.949L165.469 313.703V305.266L184.99 308.736V317.173L183.605 316.927C182.821 311.632 182.406 309.73 177.237 308.811V326.997C177.237 328.544 178.068 329.817 180.467 330.243V331.368L169.992 329.506V328.381C172.391 328.808 173.222 327.83 173.222 326.284ZM200.147 311.431L208.407 312.9V314.024C206.146 313.622 205.407 315.132 204.992 316.277L196.962 338.754C195.947 341.62 194.84 344.423 192.348 343.98C190.594 343.668 189.625 342.371 188.979 340.99V338.787C189.902 339.748 190.871 340.389 192.117 340.611C193.594 340.873 194.701 340.086 195.67 337.399L196.778 334.221L188.886 313.507C188.333 312.002 187.733 310.349 185.471 309.947V308.822L196.224 310.734V311.859C193.501 311.375 193.04 311.949 193.04 312.839C193.04 313.261 193.178 313.754 193.409 314.405L198.808 328.583L202.639 317.499C202.915 316.704 203.285 315.598 203.285 314.895C203.285 313.817 202.408 312.958 200.147 312.556V311.431ZM210.949 318.32C210.949 316.773 210.118 315.969 207.718 315.543V314.418L213.948 313.416L214.963 313.596V317.909C215.84 315.815 217.64 314.072 221.055 314.679C227.1 315.754 230.331 321.906 230.331 328.468C230.331 335.03 227.1 340.127 221.055 339.053C217.825 338.478 215.886 336.212 214.963 333.798V343.876C214.963 345.422 215.794 346.695 218.194 347.122V348.246L207.718 346.384V345.259C210.118 345.686 210.949 344.709 210.949 343.162V318.32ZM214.963 323.018V328.548C214.963 332.251 216.763 335.946 220.086 336.537C223.778 337.193 225.808 333.336 225.808 327.664C225.808 321.993 223.778 317.507 220.086 316.851C216.763 316.26 214.963 319.315 214.963 323.018ZM259.8 341.675C259.8 343.222 260.63 344.495 263.03 344.921V346.046L252.554 344.184V343.059C254.954 343.486 255.785 342.508 255.785 340.962V325.119C255.785 323.572 254.954 322.299 252.554 321.873V320.748L263.03 322.61V323.735C260.63 323.309 259.8 324.286 259.8 325.833V341.675ZM239.356 322.198V327.542L241.848 327.985C248.586 329.182 251.862 332.249 251.862 336.936C251.862 341.623 248.632 343.486 241.848 342.28L232.111 340.549V339.424C234.51 339.851 235.341 338.874 235.341 337.327V321.484C235.341 319.938 234.51 318.665 232.111 318.238V317.114L242.586 318.976V320.101C240.187 319.674 239.356 320.651 239.356 322.198ZM239.356 329.088V340.291L240.74 340.537C244.617 341.226 247.155 339.99 247.155 336.146C247.155 332.209 244.617 330.024 240.74 329.334L239.356 329.088Z" fill="#111111"/>
<g clip-path="url(#clip0_1985_35901)">
<path d="M321.407 471.62L328.402 471.751L332.314 476.867L336.801 481.131L338.101 487.989L346.246 489.633L345.978 497.072L347.634 502.96L351.967 509.418L355.894 517.003L364.94 511.474L358.43 505.539L360.823 497.61L354.427 492.091L358.48 483.708L352.81 476.675L355.316 484.741L361.193 489.169L363.499 495.843L368.273 500.964L372.596 506.372L375.245 511.748L376.614 506.34L378.134 499.97L378.296 493.174L382.692 499.888L388.753 503.262L395.977 504.975L401.909 508.59L406.62 513.917L412.434 517.688L416.559 523.529L421.332 526.793L424.929 530.406L421.413 524.3L419.833 517.51L417.575 510.936L412.458 505.738L407.385 500.88L407.769 492.197L401.321 488.46L397.509 485.356L391.978 484.136L396.018 489.205L400.022 494.346L407.752 495.37L409.325 503.41L416.394 504.838L421.613 508.493L425.348 514.535L433.047 514.117L438.629 517.031L443.655 521.299L450.507 521.005L455.004 528.308L462.206 525.617L468.462 526.264L474.779 530.522L481.429 530.004L486.771 523.37L494.337 526.826L498.825 519.658L503.253 522.619L498.753 517.624L491.77 517.148L488.654 509.624L480.355 511.55L477.34 503.84L472.041 500.301L463.375 502.889L461.325 493.428L454.921 491.888L448.73 489.973L441.49 489.947L435.89 487.22L444.685 484.58L449.273 490.038L453.79 496.445L461.076 496.225L467.884 496.809L474.031 499.33L479.746 503.892L487.109 501.422L493.318 504.282L499.943 504.881L506.718 503.576L513.217 504.91L519.794 506.162L526.432 506.495L533.247 509.352L539.59 504.561L546.15 503.81L552.951 504.485L559.203 501.789L566.149 502.452L571.925 498.247L578.691 497.804L585.804 498.08L590.496 491.501L598.076 492.61L602.296 485.682L609.852 486.237L616.364 484.315L623.354 483.102L626.031 474.562L630.311 472.164L635.473 477.661L642.587 473.948L648.559 476.121L654.748 477.079L660.621 481.903L667.141 479.608L673.397 482.143L679.805 483.712L686.067 480.144L692.662 482.668L699.115 482.143L704.826 477.562L711.219 475.171L718.519 478.352L724.785 475.057L731.221 472.526L738.45 476.982L744.743 472.805L751.555 474.064L757.852 467.917L764.894 473.713L771.354 467.723L778.25 470.428L773.83 464.938L768.38 460.717L761.342 458.38L755.173 455.011L751.165 448.844L757.458 452.996L764.339 453.903L770.638 457.022L778.068 454.726L784.342 458.45L791.077 459.941L797.994 459.616L804.867 457.358L811.634 458.046L818.315 456.725L825.277 457.83L830.988 451.794L837.114 450.563L843.343 449.132L850.603 449.553L855.716 445.092L861.947 442.839L867.481 439.294L873.046 435.806L879.065 432.935L881.702 425.436L891.339 427.235L895.118 421.344L898.725 415.382L905.21 412.832L907.512 405.538L915.856 404.89L920.36 400.024L922.938 394.269L920.861 387.366L915.363 383.479L908.853 380.674L903.524 376.825L902.778 368.077L897.391 364.162L889.429 363.445L887.48 355.308L881.35 352.439L875.244 349.703L869.168 347.116L863.214 344.434L857.472 340.703L852.188 336.779L844.373 340.653L839.465 333.995L847.217 336.472L840.335 331.152L833.895 328.908L826.448 333.404L819.793 332.717L813.75 327.642L807.1 326.789L799.841 330.726L793.417 328.255L786.858 326.734L780.437 323.631L773.455 326.84L766.99 323.018L760.35 326.419L753.763 326.921L747.397 322.926L740.925 323.24L734.788 319.686L728.045 322.317L721.252 324.423L715.587 318.277L708.518 321.651L702.666 316.594L696.3 322.919L690.053 319.176L683.755 317.234L677.496 319.352L671.118 316.75L664.983 320.677L658.523 318.361L652.307 319.854L645.893 319.965L639.815 321.916L633.562 324.622L627.127 321.243L620.713 323.432L614.426 321.51L608.203 319.78L601.31 324.227L595.338 320.111L588.539 319.912L581.635 318.785L575.892 325.331L568.977 324.193L562.247 324.292L555.625 325.134L548.84 325.144L543.433 332.321L536.647 332.175L529.718 331.602L524.018 335.931L518.148 338.342L511.101 338.317L507.581 344.991L499 343.683L495.589 350.306L490.028 353.712L485.376 358.419L476.772 357.624L474.78 365.995L469.993 370.49L460.861 369.138L456.488 374.211L450.126 376.635L448.193 384.897L444.041 390.192L434.57 390.33L440.691 385.916L442.982 379.119L449.762 375.659L452.434 369.14L454.454 362.145L460.829 358.379L462.81 351.341L458.981 355.177L451.968 355.472L446.76 360.675L441.4 365.311L434.976 367.152L426.911 365.096L422.005 370.692L416.418 374.547L409.657 375.794L404.693 380.868L397.978 382.303L391.309 383.959L387.007 389.94L381.205 393.111L372.763 392.339L368.976 398.681L361.631 400.345L358.635 407.137L351.185 410.413L354.417 418.474L350.304 411.541L353.538 404.652L347.53 399.159L345.038 393.491L342.234 388.274L342.711 379.795L334.839 378.613L336.364 386.53L338.715 393.207L338.674 400.13L338.432 406.992L337.708 413.728L336.661 420.244L334.409 426.193L336.239 433.303L333.286 426.684L330.107 421.333L329.569 413.152L322.612 410.072L315.495 410.464L308.927 411.851L304.636 413.91L311.096 416.175L317.387 418.019L320.235 424.463L316.746 430.925L318.288 437.773L319.134 444.585L312.77 449.368L310.803 455.624L313.003 462.16L314.158 470.055L321.407 471.62Z" fill="white"/>
<path d="M321.407 471.62L328.402 471.751L332.314 476.867L336.801 481.131L338.101 487.989L346.246 489.633L345.978 497.072L347.634 502.96L351.967 509.418L355.894 517.003L364.94 511.474L358.43 505.539L360.823 497.61L354.427 492.091L358.48 483.708L352.81 476.675L355.316 484.741L361.193 489.169L363.499 495.843L368.273 500.964L372.596 506.372L375.245 511.748L376.614 506.34L378.134 499.97L378.296 493.174L382.692 499.888L388.753 503.262L395.977 504.975L401.909 508.59L406.62 513.917L412.434 517.688L416.559 523.529L421.332 526.793L424.929 530.406L421.413 524.3L419.833 517.51L417.575 510.936L412.458 505.738L407.385 500.88L407.769 492.197L401.321 488.46L397.509 485.356L391.978 484.136L396.018 489.205L400.022 494.346L407.752 495.37L409.325 503.41L416.394 504.838L421.613 508.493L425.348 514.535L433.047 514.117L438.629 517.031L443.655 521.299L450.507 521.005L455.004 528.308L462.206 525.617L468.462 526.264L474.779 530.522L481.429 530.004L486.771 523.37L494.337 526.826L498.825 519.658L503.253 522.619L498.753 517.624L491.77 517.148L488.654 509.624L480.355 511.55L477.34 503.84L472.041 500.301L463.375 502.889L461.325 493.428L454.921 491.888L448.73 489.973L441.49 489.947L435.89 487.22L444.685 484.58L449.273 490.038L453.79 496.445L461.076 496.225L467.884 496.809L474.031 499.33L479.746 503.892L487.109 501.422L493.318 504.282L499.943 504.881L506.718 503.576L513.217 504.91L519.794 506.162L526.432 506.495L533.247 509.352L539.59 504.561L546.15 503.81L552.951 504.485L559.203 501.789L566.149 502.452L571.925 498.247L578.691 497.804L585.804 498.08L590.496 491.501L598.076 492.61L602.296 485.682L609.852 486.237L616.364 484.315L623.354 483.102L626.031 474.562L630.311 472.164L635.473 477.661L642.587 473.948L648.559 476.121L654.748 477.079L660.621 481.903L667.141 479.608L673.397 482.143L679.805 483.712L686.067 480.144L692.662 482.668L699.115 482.143L704.826 477.562L711.219 475.171L718.519 478.352L724.785 475.057L731.221 472.526L738.45 476.982L744.743 472.805L751.555 474.064L757.852 467.917L764.894 473.713L771.354 467.723L778.25 470.428L773.83 464.938L768.38 460.717L761.342 458.38L755.173 455.011L751.165 448.844L757.458 452.996L764.339 453.903L770.638 457.022L778.068 454.726L784.342 458.45L791.077 459.941L797.994 459.616L804.867 457.358L811.634 458.046L818.315 456.725L825.277 457.83L830.988 451.794L837.114 450.563L843.343 449.132L850.603 449.553L855.716 445.092L861.947 442.839L867.481 439.294L873.046 435.806L879.065 432.935L881.702 425.436L891.339 427.235L895.118 421.344L898.725 415.382L905.21 412.832L907.512 405.538L915.856 404.89L920.36 400.024L922.938 394.269L920.861 387.366L915.363 383.479L908.853 380.674L903.524 376.825L902.778 368.077L897.391 364.162L889.429 363.445L887.48 355.308L881.35 352.439L875.244 349.703L869.168 347.116L863.214 344.434L857.472 340.703L852.188 336.779L844.373 340.653L839.465 333.995L847.217 336.472L840.335 331.152L833.895 328.908L826.448 333.404L819.793 332.717L813.75 327.642L807.1 326.789L799.841 330.726L793.417 328.255L786.858 326.734L780.437 323.631L773.455 326.84L766.99 323.018L760.35 326.419L753.763 326.921L747.397 322.926L740.925 323.24L734.788 319.686L728.045 322.317L721.252 324.423L715.587 318.277L708.518 321.651L702.666 316.594L696.3 322.919L690.053 319.176L683.755 317.234L677.496 319.352L671.118 316.75L664.983 320.677L658.523 318.361L652.307 319.854L645.893 319.965L639.815 321.916L633.562 324.622L627.127 321.243L620.713 323.432L614.426 321.51L608.203 319.78L601.31 324.227L595.338 320.111L588.539 319.912L581.635 318.785L575.892 325.331L568.977 324.193L562.247 324.292L555.625 325.134L548.84 325.144L543.433 332.321L536.647 332.175L529.718 331.602L524.018 335.931L518.148 338.342L511.101 338.317L507.581 344.991L499 343.683L495.589 350.306L490.028 353.712L485.376 358.419L476.772 357.624L474.78 365.995L469.993 370.49L460.861 369.138L456.488 374.211L450.126 376.635L448.193 384.897L444.041 390.192L434.57 390.33L440.691 385.916L442.982 379.119L449.762 375.659L452.434 369.14L454.454 362.145L460.829 358.379L462.81 351.341L458.981 355.177L451.968 355.472L446.76 360.675L441.4 365.311L434.976 367.152L426.911 365.096L422.005 370.692L416.418 374.547L409.657 375.794L404.693 380.868L397.978 382.303L391.309 383.959L387.007 389.94L381.205 393.111L372.763 392.339L368.976 398.681L361.631 400.345L358.635 407.137L351.185 410.413L354.417 418.474L350.304 411.541L353.538 404.652L347.53 399.159L345.038 393.491L342.234 388.274L342.711 379.795L334.839 378.613L336.364 386.53L338.715 393.207L338.674 400.13L338.432 406.992L337.708 413.728L336.661 420.244L334.409 426.193L336.239 433.303L333.286 426.684L330.107 421.333L329.569 413.152L322.612 410.072L315.495 410.464L308.927 411.851L304.636 413.91L311.096 416.175L317.387 418.019L320.235 424.463L316.746 430.925L318.288 437.773L319.134 444.585L312.77 449.368L310.803 455.624L313.003 462.16L314.158 470.055L321.407 471.62Z" stroke="#111111" stroke-width="3" stroke-miterlimit="10"/>
<path d="M361.284 447.066C362.025 443.712 362.099 444.44 363.439 440.523C364.087 438.626 364.494 436.253 365.509 433.938C366.385 431.95 368.093 430.202 369.265 428.127C370.372 426.169 371.583 424.244 372.972 422.39C374.343 420.556 375.693 418.714 377.36 417.149C379.027 415.583 380.698 413.943 382.693 412.808" fill="#111111"/>
<path d="M361.284 447.066C362.025 443.712 362.099 444.44 363.439 440.523C364.087 438.626 364.494 436.253 365.509 433.938C366.385 431.95 368.093 430.202 369.265 428.127C370.372 426.169 371.583 424.244 372.972 422.39C374.343 420.556 375.693 418.714 377.36 417.149C379.027 415.583 380.698 413.943 382.693 412.808" stroke="#111111" stroke-width="1.36526" stroke-miterlimit="10"/>
<path d="M383.571 431.783C383.571 431.783 385.28 430.243 388.014 427.622C389.318 426.373 391.218 425.308 392.884 423.719C394.302 422.369 395.929 421.041 397.495 419.55C398.968 418.149 400.063 416.259 401.583 414.825C403.103 413.391 404.936 412.283 406.425 410.894C408.004 409.415 409.252 407.68 410.694 406.352C412.383 404.795 414.043 403.482 415.39 402.277C417.832 400.095 419.644 398.817 420.227 398.515C421.478 397.871 419.618 399.856 417.035 402.567C415.706 403.965 414.019 405.352 412.63 406.749C410.283 409.103 410.268 408.648 408.714 411.254C406.927 414.244 406.564 414.044 405.091 417.199C403.618 420.354 403.631 420.361 402.157 423.521C400.683 426.68 402.312 427.929 399.421 429.871C396.101 432.11 395.535 430.725 391.558 431.166C387.581 431.606 387.535 431.28 383.565 431.791L383.571 431.783Z" fill="#111111"/>
<path d="M383.571 431.783C383.571 431.783 385.28 430.243 388.014 427.622C389.318 426.373 391.218 425.308 392.884 423.719C394.302 422.369 395.929 421.041 397.495 419.55C398.968 418.149 400.063 416.259 401.583 414.825C403.103 413.391 404.936 412.283 406.425 410.894C408.004 409.415 409.252 407.68 410.694 406.352C412.383 404.795 414.043 403.482 415.39 402.277C417.832 400.095 419.644 398.817 420.227 398.515C421.478 397.871 419.618 399.856 417.035 402.567C415.706 403.965 414.019 405.352 412.63 406.749C410.283 409.103 410.268 408.648 408.714 411.254C406.927 414.244 406.564 414.044 405.091 417.199C403.618 420.354 403.631 420.361 402.157 423.521C400.683 426.68 402.312 427.929 399.421 429.871C396.101 432.11 395.535 430.725 391.558 431.166C387.581 431.606 387.535 431.28 383.565 431.791L383.571 431.783Z" stroke="#111111" stroke-width="1.36526" stroke-miterlimit="10"/>
<path d="M529.901 389.731C528.453 386.837 531.144 388.111 534.098 385.338C535.441 384.077 537.485 383.084 539.303 381.447C540.783 380.112 541.887 378.085 543.633 376.574C545.188 375.229 547.195 374.243 548.927 372.808C550.537 371.472 551.881 369.689 553.617 368.315C555.353 366.941 557.199 365.946 558.953 364.631C560.706 363.315 562.682 362.457 564.453 361.2C566.224 359.943 567.568 358.109 569.368 356.926C571.168 355.743 573.383 355.185 575.22 354.087C577.056 352.989 578.571 351.18 580.449 350.19C582.403 349.158 584.613 348.761 586.536 347.913C588.575 347.011 590.415 345.784 592.392 345.13C594.531 344.42 596.538 343.624 598.567 343.256C601.936 341.759 603.95 341.726 602.345 342.633C599.535 344.211 600.019 343.435 596.545 345.467C594.959 346.396 592.917 347.214 590.833 348.464C589.125 349.487 587.437 350.879 585.486 352.078C583.736 353.154 581.612 353.829 579.723 355.02C577.953 356.134 576.041 357.164 574.197 358.358C572.354 359.552 570.952 361.214 569.148 362.42C567.344 363.625 565.327 364.453 563.562 365.674C561.797 366.895 560.262 368.498 558.542 369.75C556.823 371.002 554.95 372.205 553.285 373.49C551.524 374.846 549.708 376.04 548.118 377.37C546.378 378.822 545.14 380.687 543.674 382.075C541.966 383.69 540.31 385.086 539.068 386.568C537.425 388.531 536.613 390.631 536.015 392.26C534.291 393.835 531.452 392.808 529.914 389.738L529.901 389.731Z" fill="#111111"/>
<path d="M529.901 389.731C528.453 386.837 531.144 388.111 534.098 385.338C535.441 384.077 537.485 383.084 539.303 381.447C540.783 380.112 541.887 378.085 543.633 376.574C545.188 375.229 547.195 374.243 548.927 372.808C550.537 371.472 551.881 369.689 553.617 368.315C555.353 366.941 557.199 365.946 558.953 364.631C560.706 363.315 562.682 362.457 564.453 361.2C566.224 359.943 567.568 358.109 569.368 356.926C571.168 355.743 573.383 355.185 575.22 354.087C577.056 352.989 578.571 351.18 580.449 350.19C582.403 349.158 584.613 348.761 586.536 347.913C588.575 347.011 590.415 345.784 592.392 345.13C594.531 344.42 596.538 343.624 598.567 343.256C601.936 341.759 603.95 341.726 602.345 342.633C599.535 344.211 600.019 343.435 596.545 345.467C594.959 346.396 592.917 347.214 590.833 348.464C589.125 349.487 587.437 350.879 585.486 352.078C583.736 353.154 581.612 353.829 579.723 355.02C577.953 356.134 576.041 357.164 574.197 358.358C572.354 359.552 570.952 361.214 569.148 362.42C567.344 363.625 565.327 364.453 563.562 365.674C561.797 366.895 560.262 368.498 558.542 369.75C556.823 371.002 554.95 372.205 553.285 373.49C551.524 374.846 549.708 376.04 548.118 377.37C546.378 378.822 545.14 380.687 543.674 382.075C541.966 383.69 540.31 385.086 539.068 386.568C537.425 388.531 536.613 390.631 536.015 392.26C534.291 393.835 531.452 392.808 529.914 389.738L529.901 389.731Z" stroke="#111111" stroke-width="1.36526" stroke-miterlimit="10"/>
<path d="M593.383 391.613C592.285 394.657 595.518 393.138 598.776 395.548C600.26 396.642 601.692 398.392 603.689 399.806C605.316 400.957 607.464 401.676 609.375 402.973C611.08 404.128 612.457 405.98 614.343 407.203C616.102 408.34 618.473 408.649 620.356 409.812C622.239 410.975 623.639 412.669 625.533 413.769C627.427 414.869 629.72 415.091 631.629 416.129C633.539 417.167 634.99 419.018 636.921 419.981C638.865 420.952 641.055 421.401 643.006 422.275C644.957 423.149 646.755 424.621 648.734 425.384C650.714 426.148 653.034 426.375 655.047 426.997C657.179 427.653 659.4 427.571 661.442 427.99C663.65 428.442 665.669 429.356 667.725 429.482C671.245 430.574 672.746 431.787 671.043 431.08C668.069 429.846 669.055 429.562 665.364 427.951C663.681 427.215 661.808 426.072 659.591 425.078C657.773 424.264 655.583 423.866 653.499 422.904C651.634 422.044 649.959 420.529 647.943 419.574C646.052 418.673 643.773 418.445 641.801 417.479C639.828 416.513 638.216 415.092 636.284 414.105C634.352 413.119 632.213 412.614 630.317 411.606C628.404 410.59 626.675 409.255 624.817 408.217C622.909 407.147 621.283 405.668 619.478 404.588C617.572 403.449 615.343 402.96 613.611 401.828C611.713 400.589 610.35 398.79 608.724 397.584C606.84 396.181 604.644 395.444 603.236 394.118C601.376 392.364 600.422 390.252 599.634 388.704C597.739 387.345 594.541 388.386 593.378 391.617L593.383 391.613Z" fill="#111111"/>
<path d="M593.383 391.613C592.285 394.657 595.518 393.138 598.776 395.548C600.26 396.642 601.692 398.392 603.689 399.806C605.316 400.957 607.464 401.676 609.375 402.973C611.08 404.128 612.457 405.98 614.343 407.203C616.102 408.34 618.473 408.649 620.356 409.812C622.239 410.975 623.639 412.669 625.533 413.769C627.427 414.869 629.72 415.091 631.629 416.129C633.539 417.167 634.99 419.018 636.921 419.981C638.865 420.952 641.055 421.401 643.006 422.275C644.957 423.149 646.755 424.621 648.734 425.384C650.714 426.148 653.034 426.375 655.047 426.997C657.179 427.653 659.4 427.571 661.442 427.99C663.65 428.442 665.669 429.356 667.725 429.482C671.245 430.574 672.746 431.787 671.043 431.08C668.069 429.846 669.055 429.562 665.364 427.951C663.681 427.215 661.808 426.072 659.591 425.078C657.773 424.264 655.583 423.866 653.499 422.904C651.634 422.044 649.959 420.529 647.943 419.574C646.052 418.673 643.773 418.445 641.801 417.479C639.828 416.513 638.216 415.092 636.284 414.105C634.352 413.119 632.213 412.614 630.317 411.606C628.404 410.59 626.675 409.255 624.817 408.217C622.909 407.147 621.283 405.668 619.478 404.588C617.572 403.449 615.343 402.96 613.611 401.828C611.713 400.589 610.35 398.79 608.724 397.584C606.84 396.181 604.644 395.444 603.236 394.118C601.376 392.364 600.422 390.252 599.634 388.704C597.739 387.345 594.541 388.386 593.378 391.617L593.383 391.613Z" stroke="#111111" stroke-width="1.36526" stroke-miterlimit="10"/>
<path d="M668.559 376.847C668.559 376.847 669.923 375.165 672.55 372.337C673.767 371.026 675.623 369.894 677.258 368.221C678.608 366.836 679.635 364.911 681.214 363.372C682.649 361.979 684.69 361.114 686.273 359.663C687.856 358.212 688.662 356.147 690.263 354.778C691.864 353.408 693.911 352.674 695.543 351.393C697.175 350.112 698.31 348.095 699.989 346.919C701.668 345.742 704.004 345.367 705.742 344.33C707.593 343.225 709.176 341.774 710.985 340.948C712.983 340.035 715.2 339.925 717.092 339.445C719.482 338.16 720.414 336.926 719.283 337.678C716.407 339.591 717.43 339.683 713.957 342.113C712.326 343.255 710.058 344.095 707.971 345.603C706.222 346.869 704.628 348.623 702.69 350.073C700.9 351.415 698.669 352.307 696.815 353.753C694.96 355.199 693.007 356.384 691.229 357.843C689.451 359.302 688.001 361.247 686.31 362.735C684.509 364.324 682.344 365.426 680.789 366.96C679 368.723 677.978 370.971 676.674 372.572C674.891 374.764 673.183 376.457 672.681 378.149C671.49 379.413 670.551 378.375 668.564 376.848L668.559 376.847Z" fill="#111111"/>
<path d="M668.559 376.847C668.559 376.847 669.923 375.165 672.55 372.337C673.767 371.026 675.623 369.894 677.258 368.221C678.608 366.836 679.635 364.911 681.214 363.372C682.649 361.979 684.69 361.114 686.273 359.663C687.856 358.212 688.662 356.147 690.263 354.778C691.864 353.408 693.911 352.674 695.543 351.393C697.175 350.112 698.31 348.095 699.989 346.919C701.668 345.742 704.004 345.367 705.742 344.33C707.593 343.225 709.176 341.774 710.985 340.948C712.983 340.035 715.2 339.925 717.092 339.445C719.482 338.16 720.414 336.926 719.283 337.678C716.407 339.591 717.43 339.683 713.957 342.113C712.326 343.255 710.058 344.095 707.971 345.603C706.222 346.869 704.628 348.623 702.69 350.073C700.9 351.415 698.669 352.307 696.815 353.753C694.96 355.199 693.007 356.384 691.229 357.843C689.451 359.302 688.001 361.247 686.31 362.735C684.509 364.324 682.344 365.426 680.789 366.96C679 368.723 677.978 370.971 676.674 372.572C674.891 374.764 673.183 376.457 672.681 378.149C671.49 379.413 670.551 378.375 668.564 376.848L668.559 376.847Z" stroke="#111111" stroke-width="1.36526" stroke-miterlimit="10"/>
<path d="M784.824 376.838C784.824 376.838 787.117 378.219 790.665 380.179C792.318 381.095 794.514 381.725 796.652 382.936C798.432 383.943 800.276 385.177 802.28 386.333C804.112 387.39 805.886 388.733 807.818 389.877C809.751 391.02 811.285 392.576 813.166 393.725C815.047 394.873 816.758 396.26 818.59 397.424C820.481 398.625 822.417 399.667 824.186 400.848C826.097 402.121 828.453 402.599 830.129 403.809C832.076 405.219 833.47 407.055 834.963 408.313C837.081 410.102 839.04 411.44 839.877 412.756C842.282 416.478 843.868 417.89 842.264 416.364C839.886 414.101 839.769 414.219 837.391 411.956C835.013 409.692 835.216 409.478 832.834 407.209C830.453 404.941 830.261 405.143 827.883 402.88C825.505 400.617 824.898 401.251 822.52 398.988C820.142 396.724 820.699 396.137 818.317 393.873C815.934 391.608 815.748 391.807 813.366 389.539C810.984 387.27 811.383 386.858 809.005 384.595C806.627 382.331 806.189 382.787 803.807 380.519C801.425 378.25 802.46 376.303 799.335 375.274C795.931 374.151 795.59 376.655 792.013 376.864C788.435 377.073 788.396 376.522 784.825 376.829L784.824 376.838Z" fill="#111111"/>
<path d="M784.824 376.838C784.824 376.838 787.117 378.219 790.665 380.179C792.318 381.095 794.514 381.725 796.652 382.936C798.432 383.943 800.276 385.177 802.28 386.333C804.112 387.39 805.886 388.733 807.818 389.877C809.751 391.02 811.285 392.576 813.166 393.725C815.047 394.873 816.758 396.26 818.59 397.424C820.481 398.625 822.417 399.667 824.186 400.848C826.097 402.121 828.453 402.599 830.129 403.809C832.076 405.219 833.47 407.055 834.963 408.313C837.081 410.102 839.04 411.44 839.877 412.756C842.282 416.478 843.868 417.89 842.264 416.364C839.886 414.101 839.769 414.219 837.391 411.956C835.013 409.692 835.216 409.478 832.834 407.209C830.453 404.941 830.261 405.143 827.883 402.88C825.505 400.617 824.898 401.251 822.52 398.988C820.142 396.724 820.699 396.137 818.317 393.873C815.934 391.608 815.748 391.807 813.366 389.539C810.984 387.27 811.383 386.858 809.005 384.595C806.627 382.331 806.189 382.787 803.807 380.519C801.425 378.25 802.46 376.303 799.335 375.274C795.931 374.151 795.59 376.655 792.013 376.864C788.435 377.073 788.396 376.522 784.825 376.829L784.824 376.838Z" stroke="#111111" stroke-width="1.36526" stroke-miterlimit="10"/>
<path d="M699.785 372.822C696.81 371.052 701.991 374.715 705.648 376.495C707.501 377.399 709.723 378.228 711.868 379.481C713.824 380.624 715.806 381.855 717.653 383.233C719.499 384.611 721.558 385.984 723.001 387.617C724.165 388.933 725.207 390.912 726.884 392.576C728.276 393.964 730.396 394.825 731.977 396.32C733.476 397.735 735.025 399.174 736.562 400.582C738.098 401.99 739.776 403.381 741.261 404.711C742.97 406.246 744.319 407.936 745.696 409.146C748.524 411.639 750.376 413.226 750.376 413.226C750.376 413.226 752.815 414.405 756.259 416.135C757.998 417.006 759.915 418.184 762.047 419.163C763.991 420.054 766.199 420.53 768.213 421.336C770.343 422.186 772.444 422.781 774.375 423.343C776.925 424.084 778.989 424.923 780.61 424.757C784.524 424.361 784.436 422.504 784.104 424.441C784.104 424.441 782.188 423.522 778.573 422.257C776.809 421.64 774.628 421.271 772.452 420.414C770.558 419.665 768.348 419.305 766.356 418.4C764.419 417.524 762.517 416.418 760.666 415.417C758.719 414.359 756.971 412.998 755.333 411.835C753.415 410.472 752.148 408.649 750.968 407.182C749.401 405.736 747.836 403.981 746.046 402.437C744.352 400.979 742.474 399.627 740.731 398.184C738.935 396.699 736.555 395.982 734.867 394.626C732.927 393.066 731.491 391.153 729.928 389.925C726.714 387.398 727.276 387.836 724.332 386.155C721.388 384.473 721.595 383.858 718.475 382.284C715.356 380.711 715.28 380.86 712.161 379.282C709.042 377.704 709.148 377.515 706.059 375.873C702.97 374.231 702.794 374.608 699.786 372.818L699.785 372.822Z" fill="#111111"/>
<path d="M699.785 372.822C696.81 371.052 701.991 374.715 705.648 376.495C707.501 377.399 709.723 378.228 711.868 379.481C713.824 380.624 715.806 381.855 717.653 383.233C719.499 384.611 721.558 385.984 723.001 387.617C724.165 388.933 725.207 390.912 726.884 392.576C728.276 393.964 730.396 394.825 731.977 396.32C733.476 397.735 735.025 399.174 736.562 400.582C738.098 401.99 739.776 403.381 741.261 404.711C742.97 406.246 744.319 407.936 745.696 409.146C748.524 411.639 750.376 413.226 750.376 413.226C750.376 413.226 752.815 414.405 756.259 416.135C757.998 417.006 759.915 418.184 762.047 419.163C763.991 420.054 766.199 420.53 768.213 421.336C770.343 422.186 772.444 422.781 774.375 423.343C776.925 424.084 778.989 424.923 780.61 424.757C784.524 424.361 784.436 422.504 784.104 424.441C784.104 424.441 782.188 423.522 778.573 422.257C776.809 421.64 774.628 421.271 772.452 420.414C770.558 419.665 768.348 419.305 766.356 418.4C764.419 417.524 762.517 416.418 760.666 415.417C758.719 414.359 756.971 412.998 755.333 411.835C753.415 410.472 752.148 408.649 750.968 407.182C749.401 405.736 747.836 403.981 746.046 402.437C744.352 400.979 742.474 399.627 740.731 398.184C738.935 396.699 736.555 395.982 734.867 394.626C732.927 393.066 731.491 391.153 729.928 389.925C726.714 387.398 727.276 387.836 724.332 386.155C721.388 384.473 721.595 383.858 718.475 382.284C715.356 380.711 715.28 380.86 712.161 379.282C709.042 377.704 709.148 377.515 706.059 375.873C702.97 374.231 702.794 374.608 699.786 372.818L699.785 372.822Z" stroke="#111111" stroke-width="1.36526" stroke-miterlimit="10"/>
<path d="M416.341 434.033C417.845 436.895 418.906 434.611 422.778 435.916C424.515 436.5 426.593 437.147 428.917 437.947C430.792 438.591 432.976 438.914 435.162 439.681C437.092 440.358 438.937 441.634 441.06 442.395C443.018 443.095 445.249 443.279 447.339 444.038C449.317 444.756 451.398 445.357 453.464 446.126C455.53 446.896 457.394 447.847 459.436 448.622C461.478 449.397 463.277 450.596 465.303 451.381C467.329 452.167 469.534 452.397 471.539 453.197C473.544 453.998 475.512 454.908 477.497 455.723C479.481 456.538 481.325 457.796 483.291 458.636C485.257 459.476 487.124 460.705 489.063 461.569C491.002 462.432 493.041 463.335 494.952 464.226C496.961 465.165 499.024 465.846 500.896 466.776C502.909 467.777 504.761 468.879 506.573 469.863C508.588 470.956 510.897 471.301 512.61 472.356C514.635 473.604 515.906 475.594 517.426 476.773C519.493 478.374 521.322 479.555 522.261 480.972C526.668 484.303 529.052 485.7 526.782 484.124C524.013 482.2 524.825 482.529 521.319 480.164C519.73 479.093 517.824 477.848 515.697 476.436C513.968 475.29 512.108 473.993 510.094 472.678C508.3 471.507 506.248 470.519 504.276 469.253C502.442 468.075 500.521 466.892 498.566 465.662C496.611 464.431 494.623 463.56 492.682 462.359C490.74 461.159 489.184 459.488 487.246 458.321C485.308 457.153 482.95 456.745 481.016 455.61C479.082 454.475 477.114 453.349 475.173 452.25C473.233 451.151 471.174 450.125 469.229 449.08C467.284 448.036 465.375 446.62 463.429 445.635C461.338 444.58 459.302 443.612 457.349 442.719C455.17 441.718 453.047 440.962 451.103 440.209C448.76 439.304 446.691 438.387 444.781 437.921C442.251 437.299 439.844 437.205 437.729 436.746C435.094 436.174 432.762 435.876 430.713 435.521C427.844 435.02 425.611 434.255 423.736 434.067C418.231 433.512 414.671 430.871 416.337 434.028L416.341 434.033Z" fill="#111111"/>
<path d="M416.341 434.033C417.845 436.895 418.906 434.611 422.778 435.916C424.515 436.5 426.593 437.147 428.917 437.947C430.792 438.591 432.976 438.914 435.162 439.681C437.092 440.358 438.937 441.634 441.06 442.395C443.018 443.095 445.249 443.279 447.339 444.038C449.317 444.756 451.398 445.357 453.464 446.126C455.53 446.896 457.394 447.847 459.436 448.622C461.478 449.397 463.277 450.596 465.303 451.381C467.329 452.167 469.534 452.397 471.539 453.197C473.544 453.998 475.512 454.908 477.497 455.723C479.481 456.538 481.325 457.796 483.291 458.636C485.257 459.476 487.124 460.705 489.063 461.569C491.002 462.432 493.041 463.335 494.952 464.226C496.961 465.165 499.024 465.846 500.896 466.776C502.909 467.777 504.761 468.879 506.573 469.863C508.588 470.956 510.897 471.301 512.61 472.356C514.635 473.604 515.906 475.594 517.426 476.773C519.493 478.374 521.322 479.555 522.261 480.972C526.668 484.303 529.052 485.7 526.782 484.124C524.013 482.2 524.825 482.529 521.319 480.164C519.73 479.093 517.824 477.848 515.697 476.436C513.968 475.29 512.108 473.993 510.094 472.678C508.3 471.507 506.248 470.519 504.276 469.253C502.442 468.075 500.521 466.892 498.566 465.662C496.611 464.431 494.623 463.56 492.682 462.359C490.74 461.159 489.184 459.488 487.246 458.321C485.308 457.153 482.95 456.745 481.016 455.61C479.082 454.475 477.114 453.349 475.173 452.25C473.233 451.151 471.174 450.125 469.229 449.08C467.284 448.036 465.375 446.62 463.429 445.635C461.338 444.58 459.302 443.612 457.349 442.719C455.17 441.718 453.047 440.962 451.103 440.209C448.76 439.304 446.691 438.387 444.781 437.921C442.251 437.299 439.844 437.205 437.729 436.746C435.094 436.174 432.762 435.876 430.713 435.521C427.844 435.02 425.611 434.255 423.736 434.067C418.231 433.512 414.671 430.871 416.337 434.028L416.341 434.033Z" stroke="#111111" stroke-width="1.36526" stroke-miterlimit="10"/>
<path d="M479.768 411.409C480.004 411.482 482.45 411.869 486.18 413.218C487.963 413.861 489.916 415.077 492.285 415.935C494.216 416.631 496.561 416.714 498.797 417.517C500.789 418.232 502.76 419.341 504.939 420.125C506.966 420.851 509.236 421.129 511.381 421.893C513.527 422.658 515.22 424.255 517.344 425.011C519.468 425.767 521.475 426.609 523.581 427.358C525.688 428.107 527.743 428.939 529.829 429.675C531.914 430.41 534.276 430.506 536.349 431.23C538.423 431.955 540.669 432.482 542.722 433.19C544.889 433.939 546.718 435.472 548.746 436.165C550.957 436.923 553.289 437.003 555.276 437.667C557.573 438.434 559.443 439.918 561.351 440.531C563.898 441.351 566.176 441.69 567.836 442.159C571.98 443.33 573.271 442.697 569.525 440.791C568.17 440.102 566.182 439.147 563.49 437.938C561.757 437.161 559.595 436.578 557.252 435.567C555.407 434.771 553.35 433.948 551.103 433C549.204 432.194 547.002 431.711 544.804 430.794C542.874 429.988 541.054 428.587 538.881 427.688C536.928 426.878 534.655 426.567 532.502 425.682C530.536 424.869 528.421 424.17 526.282 423.291C524.301 422.481 522.336 421.419 520.204 420.551C518.214 419.739 516.337 418.462 514.213 417.6C512.215 416.786 509.931 416.506 507.812 415.644C505.334 414.638 503.122 413.724 501.036 413.043C498.408 412.187 496.205 411.136 494.142 410.699C491.225 410.075 488.847 409.427 486.925 409.38C481.688 409.254 479.772 411.41 479.772 411.41L479.768 411.409Z" fill="#111111"/>
<path d="M479.768 411.409C480.004 411.482 482.45 411.869 486.18 413.218C487.963 413.861 489.916 415.077 492.285 415.935C494.216 416.631 496.561 416.714 498.797 417.517C500.789 418.232 502.76 419.341 504.939 420.125C506.966 420.851 509.236 421.129 511.381 421.893C513.527 422.658 515.22 424.255 517.344 425.011C519.468 425.767 521.475 426.609 523.581 427.358C525.688 428.107 527.743 428.939 529.829 429.675C531.914 430.41 534.276 430.506 536.349 431.23C538.423 431.955 540.669 432.482 542.722 433.19C544.889 433.939 546.718 435.472 548.746 436.165C550.957 436.923 553.289 437.003 555.276 437.667C557.573 438.434 559.443 439.918 561.351 440.531C563.898 441.351 566.176 441.69 567.836 442.159C571.98 443.33 573.271 442.697 569.525 440.791C568.17 440.102 566.182 439.147 563.49 437.938C561.757 437.161 559.595 436.578 557.252 435.567C555.407 434.771 553.35 433.948 551.103 433C549.204 432.194 547.002 431.711 544.804 430.794C542.874 429.988 541.054 428.587 538.881 427.688C536.928 426.878 534.655 426.567 532.502 425.682C530.536 424.869 528.421 424.17 526.282 423.291C524.301 422.481 522.336 421.419 520.204 420.551C518.214 419.739 516.337 418.462 514.213 417.6C512.215 416.786 509.931 416.506 507.812 415.644C505.334 414.638 503.122 413.724 501.036 413.043C498.408 412.187 496.205 411.136 494.142 410.699C491.225 410.075 488.847 409.427 486.925 409.38C481.688 409.254 479.772 411.41 479.772 411.41L479.768 411.409Z" stroke="#111111" stroke-width="1.36526" stroke-miterlimit="10"/>
<path d="M217.306 495.519C218.912 498.14 219.879 495.272 223.661 495.749C225.406 495.969 227.411 496.525 229.719 496.694C231.616 496.83 233.662 496.885 235.844 496.921C237.805 496.953 239.868 497.578 241.999 497.486C243.989 497.402 245.995 496.638 248.083 496.414C250.171 496.19 252.07 495.753 254.111 495.373C256.152 494.993 258.212 495.073 260.203 494.528C262.194 493.983 264.296 493.788 266.219 493.047C268.013 492.357 269.883 491.061 272.15 490.147C274.044 489.382 276.245 488.933 278.397 488.045C280.334 487.246 282.142 485.856 284.245 484.979C286.21 484.157 288.213 483.244 290.283 482.37C292.354 481.497 294.56 481.311 296.607 480.443C298.653 479.575 300.493 478.403 302.52 477.54C304.547 476.678 306.265 475.135 308.279 474.27C310.292 473.405 312.418 472.744 314.412 471.885C316.406 471.026 318.797 470.868 320.776 470.016C322.755 469.163 324.96 468.474 326.915 467.627C329.015 466.717 330.578 464.787 332.494 463.952C334.65 463.014 336.9 462.652 338.756 461.843C341.037 460.849 343.257 460.393 344.974 459.644C348.757 457.988 347.749 457.806 350.855 456.736C353.961 455.666 353.789 455.11 356.933 454.138C360.077 453.167 360.137 453.357 363.282 452.382C366.428 451.406 366.409 451.352 369.554 450.376C372.699 449.401 372.66 449.283 375.804 448.312C378.948 447.34 378.955 447.355 382.099 446.384C385.244 445.413 385.294 445.579 388.438 444.607C391.583 443.636 391.649 443.841 394.794 442.87C397.938 441.899 398.144 442.557 401.288 441.586C404.433 440.615 404.207 439.884 407.351 438.912C410.496 437.941 410.508 437.98 413.653 437.004C416.798 436.029 416.957 436.555 420.102 435.583C423.246 434.612 422.979 433.745 426.123 432.773C429.268 431.802 429.204 431.583 432.348 430.612C435.492 429.641 435.493 429.636 438.638 428.665C441.782 427.694 441.966 428.289 445.116 427.314C448.266 426.339 448.161 425.979 451.333 425.091C454.505 424.203 454.646 424.86 457.814 424.073C460.983 423.286 460.924 423.059 464.093 422.267C467.263 421.476 467.121 420.929 470.29 420.138C473.459 419.346 473.737 420.47 476.901 419.682C480.065 418.894 479.869 418.094 483.034 417.302C486.198 416.509 486.334 417.036 489.499 416.244C492.664 415.451 492.478 414.699 495.643 413.907C498.807 413.115 498.75 412.883 501.919 412.092C505.088 411.3 505.301 412.163 508.47 411.371C511.639 410.58 511.594 410.41 514.758 409.623C517.921 408.835 517.819 408.406 520.984 407.614C524.148 406.822 524.334 407.546 527.503 406.754C530.672 405.963 530.567 405.552 533.736 404.761C536.905 403.969 537.069 404.625 540.238 403.834C543.407 403.042 543.278 402.558 546.476 401.892C549.675 401.225 549.696 400.726 553.03 400.156C556.364 399.587 556.319 399.311 559.652 398.746C562.985 398.182 563.071 398.681 566.405 398.112C569.739 397.542 569.825 398.037 573.159 397.468C576.493 396.898 576.486 396.86 579.82 396.291C583.154 395.721 583.05 395.117 586.389 394.549C589.727 393.98 589.741 394.088 593.075 393.519C596.409 392.95 596.344 392.551 599.678 391.981C603.012 391.412 603.164 392.301 606.499 391.732C609.833 391.163 609.81 391.025 613.144 390.455C616.478 389.886 616.37 389.253 619.704 388.684C623.038 388.115 623.123 388.614 626.457 388.045C629.792 387.475 629.862 387.875 633.196 387.306C636.53 386.736 636.49 386.485 639.824 385.915C643.158 385.346 643.111 385.056 646.47 384.639C649.829 384.222 649.776 384.66 653.069 384.412C656.363 384.163 656.361 384.145 659.65 383.895C662.938 383.646 662.915 383.296 666.208 383.047C669.501 382.798 669.507 382.924 672.8 382.675C676.093 382.427 676.039 381.693 679.328 381.443C682.616 381.194 682.622 381.241 685.915 380.993C689.208 380.744 689.199 380.659 692.493 380.411C695.786 380.162 695.832 380.807 699.125 380.559C702.418 380.31 702.395 380.038 705.688 379.79C708.982 379.541 709.032 380.242 712.325 379.994C715.618 379.745 715.591 379.417 718.884 379.169C722.177 378.92 722.223 379.514 725.516 379.266C728.81 379.017 728.808 378.999 732.097 378.749C735.385 378.5 735.313 377.467 738.606 377.218C741.899 376.97 741.917 377.024 745.219 376.943C748.52 376.862 748.448 377.634 751.681 377.731C754.915 377.828 754.933 377.291 758.168 377.383C761.403 377.475 761.413 377.2 764.647 377.297C767.881 377.394 767.865 377.945 771.104 378.038C774.343 378.131 774.335 378.342 777.569 378.439C780.802 378.536 780.808 378.343 784.046 378.44C787.285 378.538 787.272 378.827 790.511 378.92C793.75 379.013 793.783 377.85 797.018 377.942C800.253 378.035 800.238 378.522 803.477 378.619C806.715 378.717 806.692 379.392 809.931 379.485C813.17 379.578 813.172 379.486 816.407 379.578C819.641 379.67 819.64 379.762 822.879 379.855C826.118 379.949 826.111 380.123 829.346 380.215C832.58 380.307 832.617 379.095 835.856 379.192C839.094 379.29 839.065 380.241 842.299 380.337C845.533 380.434 845.534 380.559 848.773 380.657C852.011 380.754 851.98 380.611 855.204 380.927C858.428 381.244 858.348 381.309 861.506 381.85C864.664 382.39 864.666 382.377 867.824 382.918C870.982 383.459 871.113 382.692 874.271 383.232C877.429 383.773 877.408 383.894 880.566 384.435C883.724 384.976 883.753 384.806 886.911 385.347C890.068 385.887 889.931 386.69 893.089 387.231C896.246 387.772 896.382 386.978 899.545 387.52C902.707 388.061 902.59 388.743 905.759 389.249C908.927 389.755 903.549 388.242 899.356 387.487C897.534 387.157 895.35 386.778 892.849 386.336C890.873 385.988 888.561 386.414 886.201 386.01C884.165 385.661 882.159 384.297 879.856 383.912C877.783 383.566 875.585 383.324 873.317 382.954C871.22 382.608 869.076 382.047 866.824 381.689C864.712 381.351 862.499 381.226 860.26 380.874C858.021 380.523 855.946 380.265 853.718 379.925C851.491 379.585 849.334 379.723 847.115 379.394C844.895 379.064 842.865 378.274 840.649 377.949C838.433 377.625 836.216 378.031 834.007 377.717C831.799 377.403 829.725 376.734 827.519 376.43C825.313 376.126 823.111 376.34 820.905 376.041C818.698 375.741 816.679 374.537 814.475 374.251C812.271 373.966 810.136 373.568 807.935 373.293C805.734 373.017 803.585 372.649 801.387 372.384C799.188 372.118 796.94 372.55 794.744 372.294C792.549 372.038 790.347 372.035 788.154 371.789C785.971 371.544 783.871 370.46 781.675 370.231C779.48 370.003 777.226 370.439 775.033 370.22C772.841 370.002 770.727 368.97 768.533 368.761C766.339 368.551 764.107 368.695 761.914 368.504C759.722 368.313 757.515 368.12 755.325 367.943C753.134 367.767 750.923 367.573 748.734 367.415C746.545 367.257 744.303 367.436 742.116 367.293C739.929 367.149 737.703 367.068 735.513 366.942C733.323 366.816 731.08 367.111 728.89 367.008C726.701 366.905 724.495 366.223 722.312 366.14C720.128 366.057 717.869 366.575 715.69 366.52C713.511 366.466 711.262 366.579 709.086 366.557C706.911 366.536 704.659 366.284 702.487 366.295C700.315 366.306 698.042 365.857 695.873 365.901C693.705 365.945 691.453 366.612 689.29 366.703C687.128 366.795 684.844 366.81 682.697 366.95C680.549 367.09 678.216 366.829 676.08 367.031C673.823 367.245 671.579 367.11 669.462 367.389C667.199 367.689 665.014 368.049 662.927 368.426C660.588 368.768 658.396 369.377 656.256 369.689C653.902 370.034 651.646 370.238 649.519 370.553C647.142 370.903 645.03 372.074 642.927 372.383C640.52 372.737 638.148 372.142 636.073 372.447C633.615 372.806 631.449 373.566 629.422 373.865C626.873 374.241 624.592 374.188 622.65 374.474C619.879 374.881 617.65 375.012 615.907 375.267C609.195 376.256 608.887 377.006 608.887 377.006C608.887 377.006 606.884 376.543 602.729 377.157C600.915 377.423 598.794 378.029 596.315 378.403C594.357 378.701 592.203 379.066 589.87 379.428C587.849 379.742 585.744 380.388 583.465 380.75C581.415 381.078 579.161 380.812 576.92 381.172C574.849 381.509 572.836 382.697 570.616 383.065C568.53 383.41 566.382 383.767 564.181 384.138C561.98 384.509 559.956 384.952 557.763 385.329C555.569 385.706 553.451 385.698 551.267 386.081C549.082 386.464 547.017 386.849 544.844 387.239C542.672 387.629 540.613 388.14 538.445 388.535C536.276 388.93 534.147 389.096 531.987 389.497C529.826 389.898 527.809 390.73 525.652 391.141C523.495 391.552 521.424 392.102 519.271 392.518C517.117 392.934 514.926 392.896 512.781 393.318C510.635 393.74 508.406 393.575 506.263 394.007C504.121 394.439 502.032 395.018 499.897 395.461C497.762 395.903 495.72 396.744 493.588 397.197C491.456 397.649 489.44 398.61 487.311 399.072C485.181 399.534 483.027 399.848 480.901 400.319C478.774 400.791 476.593 401.018 474.475 401.5C472.356 401.982 470.104 401.947 467.987 402.443C465.871 402.939 463.673 403.182 461.569 403.689C459.464 404.197 457.367 404.9 455.264 405.426C453.161 405.952 451.262 407.414 449.17 407.96C447.077 408.507 444.787 408.479 442.705 409.042C440.623 409.604 438.605 410.63 436.53 411.211C434.454 411.793 432.092 411.619 430.027 412.221C427.961 412.823 425.866 413.628 423.814 414.256C421.763 414.883 419.53 415.281 417.492 415.938C415.454 416.596 413.393 417.577 411.376 418.271C409.36 418.964 407.518 420.551 405.522 421.285C403.423 422.057 401.106 422.08 399.143 422.866C397.057 423.7 395.147 424.794 393.224 425.643C390.249 426.786 387.688 427.155 385.814 427.878C378.613 430.643 382.475 429.961 378.834 431.239C375.799 432.303 376.382 431.272 372.507 432.649C370.797 433.252 369.102 434.928 366.781 435.754C364.933 436.412 362.66 436.443 360.476 437.228C358.572 437.908 356.866 439.514 354.736 440.28C352.802 440.978 350.451 440.793 348.353 441.556C346.399 442.264 344.563 443.496 342.485 444.253C340.52 444.969 338.275 445.084 336.211 445.838C334.147 446.593 332.409 447.819 330.358 448.576C328.308 449.333 326.582 450.648 324.542 451.402C322.501 452.156 320.325 452.301 318.288 453.056C316.252 453.81 314.448 454.988 312.426 455.745C310.403 456.502 308.195 456.646 306.176 457.403C304.158 458.161 302.063 458.643 300.053 459.407C298.043 460.17 296.237 461.44 294.231 462.205C292.226 462.969 289.983 463.125 287.986 463.896C285.988 464.667 284.257 466.176 282.263 466.951C280.27 467.727 278.048 468.002 276.067 468.785C274.086 469.568 272.253 470.865 270.276 471.649C268.3 472.432 266.137 472.93 264.172 473.724C262.208 474.519 259.98 474.909 258.028 475.71C256.077 476.512 254.305 478.064 252.366 478.873C250.427 479.681 248.08 479.907 246.162 480.728C244.124 481.602 242.476 483.213 240.583 484.048C238.531 484.952 236.32 485.271 234.461 486.125C232.386 487.077 230.642 488.421 228.842 489.304C226.721 490.34 224.936 491.544 223.246 492.46C220.976 493.692 218.709 494.578 217.337 495.557L217.306 495.519Z" fill="#111111"/>
<path d="M217.306 495.519C218.912 498.14 219.879 495.272 223.661 495.749C225.406 495.969 227.411 496.525 229.719 496.694C231.616 496.83 233.662 496.885 235.844 496.921C237.805 496.953 239.868 497.578 241.999 497.486C243.989 497.402 245.995 496.638 248.083 496.414C250.171 496.19 252.07 495.753 254.111 495.373C256.152 494.993 258.212 495.073 260.203 494.528C262.194 493.983 264.296 493.788 266.219 493.047C268.013 492.357 269.883 491.061 272.15 490.147C274.044 489.382 276.245 488.933 278.397 488.045C280.334 487.246 282.142 485.856 284.245 484.979C286.21 484.157 288.213 483.244 290.283 482.37C292.354 481.497 294.56 481.311 296.607 480.443C298.653 479.575 300.493 478.403 302.52 477.54C304.547 476.678 306.265 475.135 308.279 474.27C310.292 473.405 312.418 472.744 314.412 471.885C316.406 471.026 318.797 470.868 320.776 470.016C322.755 469.163 324.96 468.474 326.915 467.627C329.015 466.717 330.578 464.787 332.494 463.952C334.65 463.014 336.9 462.652 338.756 461.843C341.037 460.849 343.257 460.393 344.974 459.644C348.757 457.988 347.749 457.806 350.855 456.736C353.961 455.666 353.789 455.11 356.933 454.138C360.077 453.167 360.137 453.357 363.282 452.382C366.428 451.406 366.409 451.352 369.554 450.376C372.699 449.401 372.66 449.283 375.804 448.312C378.948 447.34 378.955 447.355 382.099 446.384C385.244 445.413 385.294 445.579 388.438 444.607C391.583 443.636 391.649 443.841 394.794 442.87C397.938 441.899 398.144 442.557 401.288 441.586C404.433 440.615 404.207 439.884 407.351 438.912C410.496 437.941 410.508 437.98 413.653 437.004C416.798 436.029 416.957 436.555 420.102 435.583C423.246 434.612 422.979 433.745 426.123 432.773C429.268 431.802 429.204 431.583 432.348 430.612C435.492 429.641 435.493 429.636 438.638 428.665C441.782 427.694 441.966 428.289 445.116 427.314C448.266 426.339 448.161 425.979 451.333 425.091C454.505 424.203 454.646 424.86 457.814 424.073C460.983 423.286 460.924 423.059 464.093 422.267C467.263 421.476 467.121 420.929 470.29 420.138C473.459 419.346 473.737 420.47 476.901 419.682C480.065 418.894 479.869 418.094 483.034 417.302C486.198 416.509 486.334 417.036 489.499 416.244C492.664 415.451 492.478 414.699 495.643 413.907C498.807 413.115 498.75 412.883 501.919 412.092C505.088 411.3 505.301 412.163 508.47 411.371C511.639 410.58 511.594 410.41 514.758 409.623C517.921 408.835 517.819 408.406 520.984 407.614C524.148 406.822 524.334 407.546 527.503 406.754C530.672 405.963 530.567 405.552 533.736 404.761C536.905 403.969 537.069 404.625 540.238 403.834C543.407 403.042 543.278 402.558 546.476 401.892C549.675 401.225 549.696 400.726 553.03 400.156C556.364 399.587 556.319 399.311 559.652 398.746C562.985 398.182 563.071 398.681 566.405 398.112C569.739 397.542 569.825 398.037 573.159 397.468C576.493 396.898 576.486 396.86 579.82 396.291C583.154 395.721 583.05 395.117 586.389 394.549C589.727 393.98 589.741 394.088 593.075 393.519C596.409 392.95 596.344 392.551 599.678 391.981C603.012 391.412 603.164 392.301 606.499 391.732C609.833 391.163 609.81 391.025 613.144 390.455C616.478 389.886 616.37 389.253 619.704 388.684C623.038 388.115 623.123 388.614 626.457 388.045C629.792 387.475 629.862 387.875 633.196 387.306C636.53 386.736 636.49 386.485 639.824 385.915C643.158 385.346 643.111 385.056 646.47 384.639C649.829 384.222 649.776 384.66 653.069 384.412C656.363 384.163 656.361 384.145 659.65 383.895C662.938 383.646 662.915 383.296 666.208 383.047C669.501 382.798 669.507 382.924 672.8 382.675C676.093 382.427 676.039 381.693 679.328 381.443C682.616 381.194 682.622 381.241 685.915 380.993C689.208 380.744 689.199 380.659 692.493 380.411C695.786 380.162 695.832 380.807 699.125 380.559C702.418 380.31 702.395 380.038 705.688 379.79C708.982 379.541 709.032 380.242 712.325 379.994C715.618 379.745 715.591 379.417 718.884 379.169C722.177 378.92 722.223 379.514 725.516 379.266C728.81 379.017 728.808 378.999 732.097 378.749C735.385 378.5 735.313 377.467 738.606 377.218C741.899 376.97 741.917 377.024 745.219 376.943C748.52 376.862 748.448 377.634 751.681 377.731C754.915 377.828 754.933 377.291 758.168 377.383C761.403 377.475 761.413 377.2 764.647 377.297C767.881 377.394 767.865 377.945 771.104 378.038C774.343 378.131 774.335 378.342 777.569 378.439C780.802 378.536 780.808 378.343 784.046 378.44C787.285 378.538 787.272 378.827 790.511 378.92C793.75 379.013 793.783 377.85 797.018 377.942C800.253 378.035 800.238 378.522 803.477 378.619C806.715 378.717 806.692 379.392 809.931 379.485C813.17 379.578 813.172 379.486 816.407 379.578C819.641 379.67 819.64 379.762 822.879 379.855C826.118 379.949 826.111 380.123 829.346 380.215C832.58 380.307 832.617 379.095 835.856 379.192C839.094 379.29 839.065 380.241 842.299 380.337C845.533 380.434 845.534 380.559 848.773 380.657C852.011 380.754 851.98 380.611 855.204 380.927C858.428 381.244 858.348 381.309 861.506 381.85C864.664 382.39 864.666 382.377 867.824 382.918C870.982 383.459 871.113 382.692 874.271 383.232C877.429 383.773 877.408 383.894 880.566 384.435C883.724 384.976 883.753 384.806 886.911 385.347C890.068 385.887 889.931 386.69 893.089 387.231C896.246 387.772 896.382 386.978 899.545 387.52C902.707 388.061 902.59 388.743 905.759 389.249C908.927 389.755 903.549 388.242 899.356 387.487C897.534 387.157 895.35 386.778 892.849 386.336C890.873 385.988 888.561 386.414 886.201 386.01C884.165 385.661 882.159 384.297 879.856 383.912C877.783 383.566 875.585 383.324 873.317 382.954C871.22 382.608 869.076 382.047 866.824 381.689C864.712 381.351 862.499 381.226 860.26 380.874C858.021 380.523 855.946 380.265 853.718 379.925C851.491 379.585 849.334 379.723 847.115 379.394C844.895 379.064 842.865 378.274 840.649 377.949C838.433 377.625 836.216 378.031 834.007 377.717C831.799 377.403 829.725 376.734 827.519 376.43C825.313 376.126 823.111 376.34 820.905 376.041C818.698 375.741 816.679 374.537 814.475 374.251C812.271 373.966 810.136 373.568 807.935 373.293C805.734 373.017 803.585 372.649 801.387 372.384C799.188 372.118 796.94 372.55 794.744 372.294C792.549 372.038 790.347 372.035 788.154 371.789C785.971 371.544 783.871 370.46 781.675 370.231C779.48 370.003 777.226 370.439 775.033 370.22C772.841 370.002 770.727 368.97 768.533 368.761C766.339 368.551 764.107 368.695 761.914 368.504C759.722 368.313 757.515 368.12 755.325 367.943C753.134 367.767 750.923 367.573 748.734 367.415C746.545 367.257 744.303 367.436 742.116 367.293C739.929 367.149 737.703 367.068 735.513 366.942C733.323 366.816 731.08 367.111 728.89 367.008C726.701 366.905 724.495 366.223 722.312 366.14C720.128 366.057 717.869 366.575 715.69 366.52C713.511 366.466 711.262 366.579 709.086 366.557C706.911 366.536 704.659 366.284 702.487 366.295C700.315 366.306 698.042 365.857 695.873 365.901C693.705 365.945 691.453 366.612 689.29 366.703C687.128 366.795 684.844 366.81 682.697 366.95C680.549 367.09 678.216 366.829 676.08 367.031C673.823 367.245 671.579 367.11 669.462 367.389C667.199 367.689 665.014 368.049 662.927 368.426C660.588 368.768 658.396 369.377 656.256 369.689C653.902 370.034 651.646 370.238 649.519 370.553C647.142 370.903 645.03 372.074 642.927 372.383C640.52 372.737 638.148 372.142 636.073 372.447C633.615 372.806 631.449 373.566 629.422 373.865C626.873 374.241 624.592 374.188 622.65 374.474C619.879 374.881 617.65 375.012 615.907 375.267C609.195 376.256 608.887 377.006 608.887 377.006C608.887 377.006 606.884 376.543 602.729 377.157C600.915 377.423 598.794 378.029 596.315 378.403C594.357 378.701 592.203 379.066 589.87 379.428C587.849 379.742 585.744 380.388 583.465 380.75C581.415 381.078 579.161 380.812 576.92 381.172C574.849 381.509 572.836 382.697 570.616 383.065C568.53 383.41 566.382 383.767 564.181 384.138C561.98 384.509 559.956 384.952 557.763 385.329C555.569 385.706 553.451 385.698 551.267 386.081C549.082 386.464 547.017 386.849 544.844 387.239C542.672 387.629 540.613 388.14 538.445 388.535C536.276 388.93 534.147 389.096 531.987 389.497C529.826 389.898 527.809 390.73 525.652 391.141C523.495 391.552 521.424 392.102 519.271 392.518C517.117 392.934 514.926 392.896 512.781 393.318C510.635 393.74 508.406 393.575 506.263 394.007C504.121 394.439 502.032 395.018 499.897 395.461C497.762 395.903 495.72 396.744 493.588 397.197C491.456 397.649 489.44 398.61 487.311 399.072C485.181 399.534 483.027 399.848 480.901 400.319C478.774 400.791 476.593 401.018 474.475 401.5C472.356 401.982 470.104 401.947 467.987 402.443C465.871 402.939 463.673 403.182 461.569 403.689C459.464 404.197 457.367 404.9 455.264 405.426C453.161 405.952 451.262 407.414 449.17 407.96C447.077 408.507 444.787 408.479 442.705 409.042C440.623 409.604 438.605 410.63 436.53 411.211C434.454 411.793 432.092 411.619 430.027 412.221C427.961 412.823 425.866 413.628 423.814 414.256C421.763 414.883 419.53 415.281 417.492 415.938C415.454 416.596 413.393 417.577 411.376 418.271C409.36 418.964 407.518 420.551 405.522 421.285C403.423 422.057 401.106 422.08 399.143 422.866C397.057 423.7 395.147 424.794 393.224 425.643C390.249 426.786 387.688 427.155 385.814 427.878C378.613 430.643 382.475 429.961 378.834 431.239C375.799 432.303 376.382 431.272 372.507 432.649C370.797 433.252 369.102 434.928 366.781 435.754C364.933 436.412 362.66 436.443 360.476 437.228C358.572 437.908 356.866 439.514 354.736 440.28C352.802 440.978 350.451 440.793 348.353 441.556C346.399 442.264 344.563 443.496 342.485 444.253C340.52 444.969 338.275 445.084 336.211 445.838C334.147 446.593 332.409 447.819 330.358 448.576C328.308 449.333 326.582 450.648 324.542 451.402C322.501 452.156 320.325 452.301 318.288 453.056C316.252 453.81 314.448 454.988 312.426 455.745C310.403 456.502 308.195 456.646 306.176 457.403C304.158 458.161 302.063 458.643 300.053 459.407C298.043 460.17 296.237 461.44 294.231 462.205C292.226 462.969 289.983 463.125 287.986 463.896C285.988 464.667 284.257 466.176 282.263 466.951C280.27 467.727 278.048 468.002 276.067 468.785C274.086 469.568 272.253 470.865 270.276 471.649C268.3 472.432 266.137 472.93 264.172 473.724C262.208 474.519 259.98 474.909 258.028 475.71C256.077 476.512 254.305 478.064 252.366 478.873C250.427 479.681 248.08 479.907 246.162 480.728C244.124 481.602 242.476 483.213 240.583 484.048C238.531 484.952 236.32 485.271 234.461 486.125C232.386 487.077 230.642 488.421 228.842 489.304C226.721 490.34 224.936 491.544 223.246 492.46C220.976 493.692 218.709 494.578 217.337 495.557L217.306 495.519Z" stroke="white" stroke-width="2" stroke-miterlimit="10"/>
</g>
<defs>
<clipPath id="clip0_1985_35901">
<rect width="680" height="273.375" fill="white" transform="translate(262.15 230) rotate(9.71902)"/>
</clipPath>
</defs>
</svg>
