<svg width="341" height="136" viewBox="0 0 341 136" fill="none" xmlns="http://www.w3.org/2000/svg">
<g clip-path="url(#clip0_1769_5478)">
<rect width="341" height="135.449" fill="#111111"/>
<path d="M16.8468 37.7821H10.0186V66.9201H0V0.62207H10.0186V27.1757H16.8468V0.62207H26.8654V66.9157H16.8468V37.7777V37.7821Z" fill="white"/>
<path d="M43.9746 67.6299H42.0218C34.0438 67.6299 29.7871 63.2639 29.7871 55.0653V41.7907H39.7179V53.3763C39.7179 56.406 40.6921 58.0113 43.0004 58.0113C45.3087 58.0113 46.2785 56.406 46.2785 52.309V50.7963C46.2785 46.073 45.8353 44.3795 42.2017 39.6562L35.8167 31.4577C31.56 25.9318 30.3181 21.6539 30.3181 15.0607V12.9218C30.3181 4.10146 34.7503 0 42.6405 0H44.5056C52.7513 0 55.9416 3.65162 55.9416 11.4929V22.364H46.2785V12.8292C46.2785 10.602 45.8353 8.90854 43.4436 8.90854C41.052 8.90854 40.5166 10.4212 40.5166 13.5436V14.7917C40.5166 18.5359 41.2275 20.5823 44.5934 24.9483L50.9784 33.235C55.4984 39.1138 56.9158 42.5008 56.9158 49.9848V52.1238C56.9158 61.835 52.7513 67.6255 43.9702 67.6255L43.9746 67.6299Z" fill="white"/>
<path d="M82.5445 0.62207V10.2451H69.7744V27.6211H79.793V37.6895H69.7744V56.8473H83.0755V66.9157H59.7559V0.62207H82.5401H82.5445Z" fill="white"/>
<path d="M110.122 54.4437H102.851L101.521 66.9201H92.5645L100.635 0.62207H112.514L121.115 66.9157H111.452L110.122 54.4393V54.4437ZM109.056 44.5517L106.396 20.0489L103.825 44.5517H109.056Z" fill="white"/>
<path d="M132.728 66.9157H122.709V0.62207H138.933C145.581 0.62207 148.951 3.47545 148.951 10.8669V22.6288C148.951 28.1547 146.38 30.2937 144.607 31.0919C146.823 32.071 148.951 33.8527 148.951 38.3114V61.5662C148.951 64.2387 149.482 65.4868 149.925 66.4659V66.9113H139.995C139.551 66.1969 139.02 65.0414 139.02 61.478V41.5176C139.02 38.576 138.489 37.3279 135.299 37.3279H132.728V66.9113V66.9157ZM132.728 27.8857H135.387C138.138 27.8857 139.02 26.104 139.02 23.1624V13.8967C139.02 11.0433 138.402 9.61881 135.387 9.61881H132.728V27.8857Z" fill="white"/>
<path d="M169.168 10.2451V66.9157H159.238V10.2451H150.816V0.62207H177.594V10.2451H169.173H169.168Z" fill="white"/>
<path d="M204.543 54.4437H197.272L195.942 66.9201H186.985L195.055 0.62207H206.935L215.536 66.9157H205.873L204.543 54.4393V54.4437ZM203.477 44.5517L200.817 20.0489L198.246 44.5517H203.477Z" fill="white"/>
<path d="M226.179 0.62207L234.78 36.1768V0.62207H243.912V66.9157H235.754L226.179 28.781V66.9157H217.135V0.62207H226.179Z" fill="white"/>
<path d="M247.637 0.62207H262.974C271.575 0.62207 274.234 5.52177 274.234 13.363V53.7249C274.234 61.8352 271.22 66.9113 262.974 66.9113H247.637V0.62207ZM257.655 57.2927H260.047C263.062 57.2927 263.948 55.6874 263.948 52.124V14.7919C263.948 10.9595 262.974 9.62322 260.49 9.62322H257.655V57.2927Z" fill="white"/>
<path d="M0 68.2603H15.3372C23.9384 68.2603 26.5977 73.16 26.5977 81.0012V121.363C26.5977 129.473 23.5829 134.55 15.3372 134.55H0V68.2559V68.2603ZM10.0186 124.931H12.4146C15.4294 124.931 16.3158 123.326 16.3158 119.762V82.4257C16.3158 78.5933 15.3416 77.257 12.8578 77.257H10.0186V124.927V124.931Z" fill="white"/>
<path d="M52.9337 68.2607V77.8837H40.168V95.2598H50.1866V105.328H40.168V124.486H53.469V134.554H30.1494V68.2607H52.9337Z" fill="white"/>
<path d="M69.4228 135.269H67.47C59.492 135.269 55.2354 130.903 55.2354 122.704V109.429H65.1662V121.015C65.1662 124.045 66.1404 125.65 68.4442 125.65C70.7481 125.65 71.7267 124.045 71.7267 119.948V118.435C71.7267 113.712 71.2835 112.018 67.65 107.295L61.2649 99.0964C57.0082 93.5705 55.7663 89.2926 55.7663 82.6994V80.5605C55.7663 71.7401 60.1986 67.6387 68.0888 67.6387H69.9494C78.1951 67.6387 81.3854 71.2903 81.3854 79.1316V90.0026H71.7223V80.4679C71.7223 78.2407 71.2791 76.5472 68.8831 76.5472C66.487 76.5472 65.9561 78.0599 65.9561 81.1823V82.4304C65.9561 86.1746 66.667 88.2209 70.0328 92.587L76.4178 100.874C80.9378 106.752 82.3596 110.139 82.3596 117.624V119.762C82.3596 129.474 78.1951 135.269 69.4141 135.269H69.4228Z" fill="white"/>
<path d="M95.2217 134.554H85.2031V68.2607H95.2217V134.554Z" fill="white"/>
<path d="M108.262 135.449C102.412 135.449 98.6865 130.192 98.6865 123.33V81.8967C98.6865 74.5009 101.526 67.6387 111.009 67.6387H112.962C123.691 67.6387 124.933 74.6773 124.933 82.5186V89.2882H115.182V81.8041C115.182 78.8626 114.471 77.2572 111.992 77.2572C109.864 77.2572 108.889 78.8626 108.889 81.8041V120.565C108.889 123.683 110.131 125.288 112.167 125.288C114.739 125.288 115.893 123.507 115.893 121.011V104.437H111.373V94.2805H125.381V134.554H119.707C119.619 134.197 118.82 130.903 118.022 128.049C117.311 130.276 113.945 135.445 108.889 135.445H108.271L108.262 135.449Z" fill="white"/>
<path d="M137.871 68.2607L146.472 103.816V68.2607H155.604V134.554H147.446L137.871 96.4197V134.554H128.826V68.2607H137.871Z" fill="white"/>
<path d="M181.759 135.269H179.806C171.828 135.269 167.571 130.903 167.571 122.704V109.429H177.502V121.015C177.502 124.045 178.476 125.65 180.785 125.65C183.093 125.65 184.063 124.045 184.063 119.948V118.435C184.063 113.712 183.619 112.018 179.986 107.295L173.601 99.0964C169.344 93.5705 168.102 89.2926 168.102 82.6994V80.5605C168.102 71.7401 172.535 67.6387 180.425 67.6387H182.29C190.535 67.6387 193.726 71.2903 193.726 79.1316V90.0026H184.063V80.4679C184.063 78.2407 183.619 76.5472 181.228 76.5472C178.836 76.5472 178.301 78.0599 178.301 81.1823V82.4304C178.301 86.1746 179.012 88.2209 182.378 92.587L188.763 100.874C193.283 106.752 194.7 110.139 194.7 117.624V119.762C194.7 129.474 190.535 135.269 181.754 135.269H181.759Z" fill="white"/>
<path d="M213.947 121.104V105.69H223.79V121.015C223.79 128.142 221.486 135.362 211.819 135.362H209.603C199.496 135.362 197.28 128.054 197.28 121.373V80.9182C197.28 74.1485 200.207 67.6436 209.247 67.6436H211.551C222.544 67.6436 223.786 74.9512 223.786 81.4562V93.3063H213.943V81.6326C213.943 78.7792 213.056 77.2665 210.573 77.2665C208.089 77.2665 207.47 78.691 207.47 81.6326V121.015C207.47 123.957 208.444 125.558 210.66 125.558C213.052 125.558 213.943 123.776 213.943 121.104H213.947Z" fill="white"/>
<path d="M243.826 105.421H236.998V134.559H226.979V68.2656H236.998V94.8192H243.826V68.2656H253.845V134.559H243.826V105.421Z" fill="white"/>
<path d="M284.696 119.767C284.696 129.033 281.594 135.361 271.931 135.361H270.245C260.67 135.361 257.3 129.037 257.3 119.767V82.8758C257.3 73.6982 260.758 67.6387 270.153 67.6387H271.838C281.589 67.6387 284.692 73.6982 284.692 82.7876V119.767H284.696ZM274.502 82.3422C274.502 78.867 273.348 77.2617 271.044 77.2617C268.473 77.2617 267.498 78.9552 267.498 82.3422V120.477C267.498 123.33 268.297 125.557 271.132 125.557C273.791 125.557 274.502 123.33 274.502 120.477V82.3422Z" fill="white"/>
<path d="M315.286 119.767C315.286 129.033 312.184 135.361 302.516 135.361H300.831C291.256 135.361 287.886 129.037 287.886 119.767V82.8758C287.886 73.6982 291.344 67.6387 300.744 67.6387H302.429C312.18 67.6387 315.282 73.6982 315.282 82.7876V119.767H315.286ZM305.092 82.3422C305.092 78.867 303.938 77.2617 301.634 77.2617C299.063 77.2617 298.089 78.9552 298.089 82.3422V120.477C298.089 123.33 298.883 125.557 301.722 125.557C304.381 125.557 305.092 123.33 305.092 120.477V82.3422Z" fill="white"/>
<path d="M328.759 68.2603V124.305H340.993V134.55H318.74V68.2559H328.759V68.2603Z" fill="white"/>
</g>
<defs>
<clipPath id="clip0_1769_5478">
<rect width="341" height="135.449" fill="white"/>
</clipPath>
</defs>
</svg>
