<svg width="345" height="440" viewBox="0 0 345 440" fill="none" xmlns="http://www.w3.org/2000/svg">
<path d="M172.081 380.926L180.487 370.143L191.03 361.41L201.377 352.445L207.942 339.911L219.768 332.276L229.122 322.303L235.229 309.665L244.283 299.491L251.275 286.808L245.011 277.358L242.612 266.928L230.228 257.325L216.819 249.228L204.113 240.076L190.788 231.645L188.521 242.561L191.437 245.752L179.108 260.859L165.883 255.662L159.46 241.09L157.502 225.157L156.305 218.82L143.186 213.226L128.262 213.516L112.853 213.018L103.28 224.428L99.0143 238.371L93.7866 251.593L88.1839 264.963L85.8524 279.393L87.7499 294.196L86.6867 308.656L85.8482 323.121L84.9338 337.578L82.0602 352.022L84.4128 366.513L81.997 381.182L85.2429 395.481L90.0478 409.093L96.0494 421.92L110.848 427.693L125.035 420.562L138.955 413.586L150.64 403.309L160.421 391.21L172.081 380.926Z" fill="white"/>
<path d="M172.081 380.926L180.487 370.143L191.03 361.41L201.377 352.445L207.942 339.911L219.768 332.276L229.122 322.303L235.229 309.665L244.283 299.491L251.275 286.808L245.011 277.358L242.612 266.928L230.228 257.325L216.819 249.228L204.113 240.076L190.788 231.645L188.521 242.561L191.437 245.752L179.108 260.859L165.883 255.662L159.46 241.09L157.502 225.157L156.305 218.82L143.186 213.226L128.262 213.516L112.853 213.018L103.28 224.428L99.0143 238.371L93.7866 251.593L88.1839 264.963L85.8524 279.393L87.7499 294.196L86.6867 308.656L85.8482 323.121L84.9338 337.578L82.0602 352.022L84.4128 366.513L81.997 381.182L85.2429 395.481L90.0478 409.093L96.0494 421.92L110.848 427.693L125.035 420.562L138.955 413.586L150.64 403.309L160.421 391.21L172.081 380.926Z" stroke="#111111" stroke-width="3.22269" stroke-miterlimit="10"/>
<path d="M228.492 275.622L219.539 266.327L210.185 257.88L199.461 251.101L190.342 241.675L189.941 245.687L179.289 261.643L165.789 255.733L159.653 241.04L157.71 224.642L140.58 221.434L126.809 228.407L129.135 244.599L141.785 255.927L151.991 262.82L160.763 271.523L170.428 279.097L184.66 285.697L199.658 290.234L214.878 292.231L225.773 287.881L228.492 275.622Z" fill="white"/>
<path d="M228.492 275.622L219.539 266.327L210.185 257.88L199.461 251.101L190.342 241.675L189.941 245.687L179.289 261.643L165.789 255.733L159.653 241.04L157.71 224.642L140.58 221.434L126.809 228.407L129.135 244.599L141.785 255.927L151.991 262.82L160.763 271.523L170.428 279.097L184.66 285.697L199.658 290.234L214.878 292.231L225.773 287.881L228.492 275.622Z" stroke="#111111" stroke-width="3.22269" stroke-miterlimit="10"/>
<path d="M94.2774 303.262L94.1229 319.889" stroke="#111111" stroke-width="3.22269" stroke-miterlimit="10"/>
<path d="M92.8111 329.446L92.0554 335.899" stroke="#111111" stroke-width="3.22269" stroke-miterlimit="10"/>
<path d="M83.1297 367.834L95.0725 372.172L100.977 383.779L99.3493 397.941L87.488 406.156" fill="white"/>
<path d="M83.1297 367.834L95.0725 372.172L100.977 383.779L99.3493 397.941L87.488 406.156" stroke="#111111" stroke-width="3.22269" stroke-miterlimit="10"/>
<path d="M159.242 393.478L153.088 379.115L154.48 363.349L160.945 349.046L169.268 340.518L178.202 332.699L189.257 329.599L202.171 331.251L213.102 338.281L202.74 349.781L191.609 360.513L180.751 371.508L169.592 382.206L159.242 393.478Z" fill="white"/>
<path d="M159.242 393.478L153.088 379.115L154.48 363.349L160.945 349.046L169.268 340.518L178.202 332.699L189.257 329.599L202.171 331.251L213.102 338.281L202.74 349.781L191.609 360.513L180.751 371.508L169.592 382.206L159.242 393.478Z" stroke="#111111" stroke-width="3.22269" stroke-miterlimit="10"/>
<path d="M112.057 276.947L114.181 264.247L125.296 264.758L132.799 273.455L136.421 284.232L129.098 297.606L116.306 290.985L112.057 276.947Z" fill="white"/>
<path d="M112.057 276.947L114.181 264.247L125.296 264.758L132.799 273.455L136.421 284.232L129.098 297.606L116.306 290.985L112.057 276.947Z" stroke="#111111" stroke-width="3.22269" stroke-miterlimit="10"/>
<path d="M193.438 300.215L202.674 303.813" stroke="#111111" stroke-width="3.22269" stroke-miterlimit="10"/>
<path d="M207.105 303.865L211.93 303.838" stroke="#111111" stroke-width="3.22269" stroke-miterlimit="10"/>
<path d="M195.392 202.992L201.807 193.581L206.304 182.904L212.26 173.684L217.008 163.532L223.139 154.26L229.516 145.146L234.079 134.851L238.638 124.274L240.741 112.281L246.154 102.129L255.137 95.43L261.168 86.5354L265.677 76.1543L272.836 68.1913L279.463 59.7297L288.047 53.1751L295.219 45.2614L301.527 36.4916L306.6 27.0032L314.231 19.8587L318.453 9.91801L308.169 14.4793L300.051 21.9053L292.239 29.6022L283.212 35.7133L275.68 43.7166L265.902 49.028L258.077 56.6969L249.479 63.5046L242.849 72.4844L234.129 79.2519L229.014 89.6218L221.004 97.2202L217.817 107.943L211.362 117.279L209.73 129.118L201.445 136.768L196.45 146.575L192.979 157.537L185.02 165.203L180.228 175.235L172.294 183.774L174.878 186.442L178.426 187.728L184.832 191.196L184.217 190.297L193.325 196.121L190.675 199.725L195.392 202.992Z" fill="white"/>
<path d="M195.392 202.992L201.807 193.581L206.304 182.904L212.26 173.684L217.008 163.532L223.139 154.26L229.516 145.146L234.079 134.851L238.638 124.274L240.741 112.281L246.154 102.129L255.137 95.43L261.168 86.5354L265.677 76.1543L272.836 68.1913L279.463 59.7297L288.047 53.1751L295.219 45.2614L301.527 36.4916L306.6 27.0032L314.231 19.8587L318.453 9.91801L308.169 14.4793L300.051 21.9053L292.239 29.6022L283.212 35.7133L275.68 43.7166L265.902 49.028L258.077 56.6969L249.479 63.5046L242.849 72.4844L234.129 79.2519L229.014 89.6218L221.004 97.2202L217.817 107.943L211.362 117.279L209.73 129.118L201.445 136.768L196.45 146.575L192.979 157.537L185.02 165.203L180.228 175.235L172.294 183.774L174.878 186.442L178.426 187.728L184.832 191.196L184.217 190.297L193.325 196.121L190.675 199.725L195.392 202.992Z" stroke="#111111" stroke-width="2.42536" stroke-miterlimit="10"/>
<path d="M158.836 240.228L143.059 231.898L125.575 229.496" fill="white"/>
<path d="M158.836 240.228L143.059 231.898L125.575 229.496" stroke="#111111" stroke-width="3.22269" stroke-miterlimit="10"/>
<path d="M161.138 247.317L146.274 244.658L131.347 245.809" fill="white"/>
<path d="M161.138 247.317L146.274 244.658L131.347 245.809" stroke="#111111" stroke-width="3.22269" stroke-miterlimit="10"/>
<path d="M190.868 245.728L189.348 242.57L190.254 232.038L193.894 213.273L203.018 204.394L211.961 195.473L221.815 187.715L215.53 182.115L211.722 184.571L205.368 182.526L209.177 177.523L200.177 172.613L198.455 173.397L190.932 169.613L189.164 165.662L187.311 165.722L181.429 165.52L176.023 157.361L169.056 175.654L163.936 189.258L160.131 203.277L158.353 217.64L157.261 225.155L159.462 241.09L165.712 255.79L179.294 261.678L190.868 245.728Z" fill="white"/>
<path d="M190.868 245.728L189.348 242.57L190.254 232.038L193.894 213.273L203.018 204.394L211.961 195.473L221.815 187.715L215.53 182.115L211.722 184.571L205.368 182.526L209.177 177.523L200.177 172.613L198.455 173.397L190.932 169.613L189.164 165.662L187.311 165.722L181.429 165.52L176.023 157.361L169.056 175.654L163.936 189.258L160.131 203.277L158.353 217.64L157.261 225.155L159.462 241.09L165.712 255.79L179.294 261.678L190.868 245.728Z" stroke="#111111" stroke-width="3.22269" stroke-miterlimit="10"/>
<path d="M164.094 253.881L144.804 258.39" stroke="#111111" stroke-width="3.22269" stroke-miterlimit="10"/>
<path d="M176.907 181.002L171.094 195.102" stroke="#111111" stroke-width="3.22269" stroke-miterlimit="10"/>
<path d="M176.491 197.368L183.747 182.173L190.73 166.83" fill="white"/>
<path d="M176.491 197.368L183.747 182.173L190.73 166.83" stroke="#111111" stroke-width="3.22269" stroke-miterlimit="10"/>
<path d="M188.64 202.742L196.105 194.496L203.585 186.261" fill="white"/>
<path d="M188.64 202.742L196.105 194.496L203.585 186.261" stroke="#111111" stroke-width="3.22269" stroke-miterlimit="10"/>
<path d="M171.533 212.36L174.371 206.509" stroke="#111111" stroke-width="3.22269" stroke-miterlimit="10"/>
<path d="M167.236 257.892L165.207 271.045L164.596 272.479" fill="white"/>
<path d="M167.236 257.892L165.207 271.045L164.596 272.479" stroke="#111111" stroke-width="3.22269" stroke-miterlimit="10"/>
<path d="M176.193 261.54L177.979 279.414L176.778 280.825" fill="white"/>
<path d="M176.193 261.54L177.979 279.414L176.778 280.825" stroke="#111111" stroke-width="3.22269" stroke-miterlimit="10"/>
<path d="M180.463 260.164L194.624 274.819L194.373 289.153" fill="white"/>
<path d="M180.463 260.164L194.624 274.819L194.373 289.153" stroke="#111111" stroke-width="3.22269" stroke-miterlimit="10"/>
<path d="M187.093 255.25L201.817 262.901L213.323 275.224L217.018 292.094" fill="white"/>
<path d="M187.093 255.25L201.817 262.901L213.323 275.224L217.018 292.094" stroke="#111111" stroke-width="3.22269" stroke-miterlimit="10"/>
</svg>
