<svg width="1114" height="1068" viewBox="0 0 1114 1068" fill="none" xmlns="http://www.w3.org/2000/svg">
<g clip-path="url(#clip0_1985_35900)">
<path d="M390.342 549.005C393.878 557.579 397.9 555.68 402.676 563.636C407.453 571.593 408.161 571.164 412.935 579.11C417.708 587.056 415.322 588.495 420.086 596.443C424.859 604.389 426.22 603.568 430.997 611.524C435.773 619.481 437.403 618.494 442.177 626.44C446.951 634.386 443.128 636.686 447.902 644.632C452.676 652.578 452.761 652.535 457.535 660.481C462.309 668.427 463.579 667.672 468.353 675.618C473.127 683.564 471.383 684.612 476.149 692.571C480.915 700.53 485.091 698.01 489.867 705.966C494.644 713.923 492.486 715.205 497.26 723.152C502.034 731.098 501.558 731.381 506.334 739.337C511.11 747.293 510.092 747.897 514.866 755.844C519.64 763.79 520.154 763.486 524.928 771.432C529.701 779.378 532.194 777.891 536.968 785.838C541.741 793.784 541.9 793.689 546.667 801.648C551.433 809.607 549.53 810.749 554.294 818.698C559.057 826.647 561.568 825.144 566.341 833.091C571.115 841.037 567.171 843.411 571.945 851.357C576.719 859.303 576.656 859.351 581.429 867.297C586.203 875.243 588.182 874.06 592.958 882.016C597.734 889.972 605.766 889.071 604.343 898.235C602.919 907.399 596.97 905.423 590.076 911.24C583.182 917.058 582.607 916.365 575.711 922.173C568.814 927.98 566.822 925.617 559.928 931.434C553.034 937.251 554.405 938.87 547.501 944.69C540.597 950.51 540.096 949.896 533.189 955.706C526.282 961.516 528.668 968.748 519.668 968.09C510.667 967.431 511.709 962.625 505.599 955.849C499.489 949.073 501.711 947.074 495.6 940.298C489.49 933.522 490.985 932.172 484.875 925.395C478.765 918.619 478.774 908.805 471.8 914.686C464.055 921.216 471.501 923.789 474.007 933.595C476.512 943.4 475.828 943.586 478.334 953.392C480.842 963.208 483.831 962.444 486.34 972.26C488.848 982.076 494.923 982.697 490.184 991.643C485.881 999.767 481.471 992.363 472.564 994.639C463.657 996.915 464.287 999.379 455.37 1001.66C446.453 1003.94 446.716 1004.97 437.809 1007.24C428.902 1009.52 428.75 1008.97 419.843 1011.24C410.935 1013.52 409.811 1019.39 402.488 1013.8C394.473 1007.7 400.952 1004.72 399.732 994.724C398.51 984.72 399.596 984.593 398.374 974.588C397.151 964.583 393.217 965.061 391.998 955.067C390.778 945.072 401.104 939.088 391.918 934.926C383.462 931.095 393.971 944.138 393.587 953.413C393.205 962.698 388.952 962.515 388.581 971.797C388.199 981.082 389.742 981.14 389.36 990.425C388.978 999.71 397.312 1004.7 389.75 1010.1C381.414 1016.04 378.957 1006.84 368.883 1005.02C358.809 1003.19 358.618 1004.25 348.542 1002.42C338.465 1000.58 338.148 1002.33 328.072 1000.49C317.996 998.656 318.75 994.493 308.674 992.657C298.598 990.821 295.178 998.193 288.124 990.754C281.746 984.025 286.165 981.486 285.727 972.238C285.29 962.991 285.735 962.963 285.305 953.703C284.875 944.442 286.788 944.351 286.361 935.101C285.931 925.84 286.783 925.806 286.353 916.545C285.923 907.285 284.882 907.336 284.452 898.075C284.022 888.815 285.372 888.749 284.944 879.499C284.517 870.249 283.155 870.306 282.725 861.046C282.295 851.785 283.455 851.736 283.015 842.478C282.575 833.221 281.65 833.263 281.21 824.005C280.77 814.748 282.418 814.671 281.988 805.41C281.558 796.15 279.858 796.229 279.418 786.971C278.978 777.714 277.171 777.799 276.741 768.538C276.311 759.278 279.043 759.15 278.603 749.892C278.163 740.634 274.24 740.819 273.8 731.561C273.371 722.3 273.138 722.317 272.708 713.056C272.278 703.796 276.904 703.582 276.464 694.324C276.034 685.064 273.749 685.174 273.306 675.906C272.864 666.638 271.557 666.703 271.127 657.443C270.697 648.182 274.555 647.702 271.39 638.979C268.225 630.256 265.364 631.816 259.685 624.241C254.005 616.666 256.652 614.688 250.973 607.113C245.293 599.538 242.405 601.707 236.725 594.133C231.046 586.558 233.962 584.371 228.285 576.806C222.608 569.242 219.383 571.647 213.703 564.073C208.024 556.498 207.636 556.791 201.967 549.213C196.297 541.636 199.664 539.108 193.995 531.531C188.326 523.953 188.217 524.035 182.538 516.46C176.858 508.885 175.008 510.272 169.341 502.705C163.674 495.138 165.351 493.87 159.682 486.293C154.012 478.715 150.636 481.246 144.956 473.671C139.277 466.096 140.513 465.167 134.834 457.592C129.154 450.017 130.076 449.33 124.397 441.755C118.717 434.18 120.306 432.989 114.627 425.414C108.947 417.839 106.15 419.942 100.47 412.367C94.7908 404.793 97.5079 402.753 91.8285 395.179C86.1491 387.604 85.8872 387.8 80.2179 380.223C74.5486 372.645 72.3275 374.31 66.6455 366.725C60.9635 359.14 59.8556 359.983 54.1762 352.408C48.4967 344.833 49.635 343.983 43.953 336.398C38.271 328.813 30.9602 329.842 33.4787 320.71C35.9972 311.579 41.1812 315.278 49.8356 312.055C58.4825 308.845 58.9927 310.21 67.6396 307C76.2864 303.79 77.212 306.275 85.8563 303.055C94.5006 299.835 94.0237 298.559 102.671 295.348C111.317 292.138 111.374 292.275 120.021 289.065C128.668 285.855 127.596 282.966 136.24 279.745C144.884 276.525 146.641 281.251 155.298 278.039C163.955 274.826 162.627 271.271 171.274 268.061C179.92 264.851 179.738 264.349 188.383 261.128C197.027 257.908 197.294 258.615 205.938 255.395C214.582 252.174 214.123 250.925 222.767 247.705C231.412 244.485 231.73 245.351 240.374 242.131C249.018 238.91 250.141 241.915 258.788 238.705C267.435 235.495 266.294 232.42 274.951 229.207C283.608 225.994 284.78 229.148 293.424 225.928C302.068 222.708 303.124 211.261 311.231 215.665C319.339 220.07 311.925 227.053 314.205 236.228C316.485 245.403 318.265 244.959 320.555 254.131C322.845 263.304 321.176 263.72 323.466 272.892C325.756 282.064 327.385 281.659 329.675 290.832C331.965 300.004 330.437 300.384 332.717 309.559C335.007 318.731 334.936 318.749 337.227 327.921C339.517 337.094 339.012 337.223 341.292 346.398C343.572 355.573 344.473 355.353 346.753 364.528C349.033 373.703 348.972 373.719 351.262 382.891C353.552 392.064 353.027 392.198 355.317 401.37C357.607 410.543 360.622 409.794 362.902 418.969C365.182 428.144 364.97 428.198 367.26 437.371C369.55 446.543 367.285 447.111 369.565 456.286C371.845 465.461 371.835 465.464 374.125 474.636C376.415 483.809 377.619 483.512 379.909 492.684C382.199 501.857 381.785 501.962 384.068 511.148C386.35 520.333 388.662 520.075 389.773 529.474C390.883 538.872 386.711 540.186 390.314 548.937L390.342 549.005Z" fill="white"/>
<path d="M390.342 549.005C393.878 557.579 397.9 555.68 402.676 563.636C407.453 571.593 408.161 571.164 412.935 579.11C417.708 587.056 415.322 588.495 420.086 596.443C424.859 604.389 426.22 603.568 430.997 611.524C435.773 619.481 437.403 618.494 442.177 626.44C446.951 634.386 443.128 636.686 447.902 644.632C452.676 652.578 452.761 652.535 457.535 660.481C462.309 668.427 463.579 667.672 468.353 675.618C473.127 683.564 471.383 684.612 476.149 692.571C480.915 700.53 485.091 698.01 489.867 705.966C494.644 713.923 492.486 715.205 497.26 723.152C502.034 731.098 501.558 731.381 506.334 739.337C511.11 747.293 510.092 747.897 514.866 755.844C519.64 763.79 520.154 763.486 524.928 771.432C529.701 779.378 532.194 777.891 536.968 785.838C541.741 793.784 541.9 793.689 546.667 801.648C551.433 809.607 549.53 810.749 554.294 818.698C559.057 826.647 561.568 825.144 566.341 833.091C571.115 841.037 567.171 843.411 571.945 851.357C576.719 859.303 576.656 859.351 581.429 867.297C586.203 875.243 588.182 874.06 592.958 882.016C597.734 889.972 605.766 889.071 604.343 898.235C602.919 907.399 596.97 905.423 590.076 911.24C583.182 917.058 582.607 916.365 575.711 922.173C568.814 927.98 566.822 925.617 559.928 931.434C553.034 937.251 554.405 938.87 547.501 944.69C540.597 950.51 540.096 949.896 533.189 955.706C526.282 961.516 528.668 968.748 519.668 968.09C510.667 967.431 511.709 962.625 505.599 955.849C499.489 949.073 501.711 947.074 495.6 940.298C489.49 933.522 490.985 932.172 484.875 925.395C478.765 918.619 478.774 908.805 471.8 914.686C464.055 921.216 471.501 923.789 474.007 933.595C476.512 943.4 475.828 943.586 478.334 953.392C480.842 963.208 483.831 962.444 486.34 972.26C488.848 982.076 494.923 982.697 490.184 991.643C485.881 999.767 481.471 992.363 472.564 994.639C463.657 996.915 464.287 999.379 455.37 1001.66C446.453 1003.94 446.716 1004.97 437.809 1007.24C428.902 1009.52 428.75 1008.97 419.843 1011.24C410.935 1013.52 409.811 1019.39 402.488 1013.8C394.473 1007.7 400.952 1004.72 399.732 994.724C398.51 984.72 399.596 984.593 398.374 974.588C397.151 964.583 393.217 965.061 391.998 955.067C390.778 945.072 401.104 939.088 391.918 934.926C383.462 931.095 393.971 944.138 393.587 953.413C393.205 962.698 388.952 962.515 388.581 971.797C388.199 981.082 389.742 981.14 389.36 990.425C388.978 999.71 397.312 1004.7 389.75 1010.1C381.414 1016.04 378.957 1006.84 368.883 1005.02C358.809 1003.19 358.618 1004.25 348.542 1002.42C338.465 1000.58 338.148 1002.33 328.072 1000.49C317.996 998.656 318.75 994.493 308.674 992.657C298.598 990.821 295.178 998.193 288.124 990.754C281.746 984.025 286.165 981.486 285.727 972.238C285.29 962.991 285.735 962.963 285.305 953.703C284.875 944.442 286.788 944.351 286.361 935.101C285.931 925.84 286.783 925.806 286.353 916.545C285.923 907.285 284.882 907.336 284.452 898.075C284.022 888.815 285.372 888.749 284.944 879.499C284.517 870.249 283.155 870.306 282.725 861.046C282.295 851.785 283.455 851.736 283.015 842.478C282.575 833.221 281.65 833.263 281.21 824.005C280.77 814.748 282.418 814.671 281.988 805.41C281.558 796.15 279.858 796.229 279.418 786.971C278.978 777.714 277.171 777.799 276.741 768.538C276.311 759.278 279.043 759.15 278.603 749.892C278.163 740.634 274.24 740.819 273.8 731.561C273.371 722.3 273.138 722.317 272.708 713.056C272.278 703.796 276.904 703.582 276.464 694.324C276.034 685.064 273.749 685.174 273.306 675.906C272.864 666.638 271.557 666.703 271.127 657.443C270.697 648.182 274.555 647.702 271.39 638.979C268.225 630.256 265.364 631.816 259.685 624.241C254.005 616.666 256.652 614.688 250.973 607.113C245.293 599.538 242.405 601.707 236.725 594.133C231.046 586.558 233.962 584.371 228.285 576.806C222.608 569.242 219.383 571.647 213.703 564.073C208.024 556.498 207.636 556.791 201.967 549.213C196.297 541.636 199.664 539.108 193.995 531.531C188.326 523.953 188.217 524.035 182.538 516.46C176.858 508.885 175.008 510.272 169.341 502.705C163.674 495.138 165.351 493.87 159.682 486.293C154.012 478.715 150.636 481.246 144.956 473.671C139.277 466.096 140.513 465.167 134.834 457.592C129.154 450.017 130.076 449.33 124.397 441.755C118.717 434.18 120.306 432.989 114.627 425.414C108.947 417.839 106.15 419.942 100.47 412.367C94.7908 404.793 97.5079 402.753 91.8285 395.179C86.1491 387.604 85.8872 387.8 80.2179 380.223C74.5486 372.645 72.3275 374.31 66.6455 366.725C60.9635 359.14 59.8556 359.983 54.1762 352.408C48.4967 344.833 49.635 343.983 43.953 336.398C38.271 328.813 30.9602 329.842 33.4787 320.71C35.9972 311.579 41.1812 315.278 49.8356 312.055C58.4825 308.845 58.9927 310.21 67.6396 307C76.2864 303.79 77.212 306.275 85.8563 303.055C94.5006 299.835 94.0237 298.559 102.671 295.348C111.317 292.138 111.374 292.275 120.021 289.065C128.668 285.855 127.596 282.966 136.24 279.745C144.884 276.525 146.641 281.251 155.298 278.039C163.955 274.826 162.627 271.271 171.274 268.061C179.92 264.851 179.738 264.349 188.383 261.128C197.027 257.908 197.294 258.615 205.938 255.395C214.582 252.174 214.123 250.925 222.767 247.705C231.412 244.485 231.73 245.351 240.374 242.131C249.018 238.91 250.141 241.915 258.788 238.705C267.435 235.495 266.294 232.42 274.951 229.207C283.608 225.994 284.78 229.148 293.424 225.928C302.068 222.708 303.124 211.261 311.231 215.665C319.339 220.07 311.925 227.053 314.205 236.228C316.485 245.403 318.265 244.959 320.555 254.131C322.845 263.304 321.176 263.72 323.466 272.892C325.756 282.064 327.385 281.659 329.675 290.832C331.965 300.004 330.437 300.384 332.717 309.559C335.007 318.731 334.936 318.749 337.227 327.921C339.517 337.094 339.012 337.223 341.292 346.398C343.572 355.573 344.473 355.353 346.753 364.528C349.033 373.703 348.972 373.719 351.262 382.891C353.552 392.064 353.027 392.198 355.317 401.37C357.607 410.543 360.622 409.794 362.902 418.969C365.182 428.144 364.97 428.198 367.26 437.371C369.55 446.543 367.285 447.111 369.565 456.286C371.845 465.461 371.835 465.464 374.125 474.636C376.415 483.809 377.619 483.512 379.909 492.684C382.199 501.857 381.785 501.962 384.068 511.148C386.35 520.333 388.662 520.075 389.773 529.474C390.883 538.872 386.711 540.186 390.314 548.937L390.342 549.005Z" stroke="#111111" stroke-width="6.25392" stroke-miterlimit="10"/>
<path d="M307.05 218.165C306.914 227.484 305.793 224.78 302.903 235.954C301.58 241.09 299.7 246.702 296.933 253.218C294.71 258.455 293.998 264.888 290.544 270.655C287.552 275.658 284.153 280.84 280.042 286.011C276.377 290.616 272.825 295.827 268.144 300.412C263.918 304.547 258.149 307.356 252.997 311.362C248.311 315.001 244.719 320.771 239.198 324.215C234.15 327.366 228.791 330.855 222.995 333.767C217.667 336.451 210.145 334.845 204.139 337.273C198.601 339.516 193.427 343.097 187.279 345.098C181.131 347.1 175.125 348.559 169.391 350.035C163.065 351.673 157.699 356.315 151.9 357.366C145.442 358.532 138.921 357.434 133.084 357.957C126.502 358.553 120.315 356.906 114.5 356.8C107.84 356.673 101.371 359.52 95.6631 358.655C89.0141 357.643 82.5796 356.544 77.1403 354.792C70.6349 352.7 65.9137 347.57 60.9978 344.878C54.7434 341.452 48.0833 339.765 44.1291 336.289C35.5147 328.722 35.4578 329.931 31.8563 321.352C28.2547 312.772 31.7075 313.149 30.891 301.491C30.4951 295.858 29.3105 289.244 30.077 282.055C30.7132 276.04 33.8804 270.121 35.8912 263.507C37.6808 257.627 40.3012 252.052 43.5715 246.031C46.4936 240.626 46.9094 233.075 51.2934 227.792C55.2 223.082 62.715 221.463 67.9881 217.006C72.6596 213.058 76.8741 208.248 82.7481 204.628C87.9619 201.413 93.1902 197.581 99.4473 194.702C105.031 192.135 111.071 189.796 117.556 187.557C124.042 185.319 129.026 181.248 134.706 179.647C141.07 177.859 147.707 178.487 153.442 177.312C159.975 175.976 166.271 176.325 172.024 175.683C178.74 174.935 184.813 172.641 190.532 172.708C197.393 172.783 203.984 171.755 209.528 172.738C216.423 173.956 222.175 177.607 227.247 179.732C233.972 182.554 238.538 187.035 242.557 190.343C251.392 197.639 253.495 194.541 257.084 203.156C260.673 211.77 259.547 210.692 260.98 221.309C261.685 226.508 260.128 232.877 259.667 239.536C259.274 245.112 257.78 250.927 255.938 257.067C254.308 262.475 252.14 267.967 248.953 273.515C246.154 278.394 244.486 284.791 240.188 289.568C236.433 293.734 232.018 298.348 226.937 302.292C222.5 305.728 215.716 306.547 210.138 309.726C205.236 312.517 199.227 313.461 193.355 315.994C187.482 318.528 182.764 321.745 177.581 323.565C171.626 325.646 166.407 328.378 161.125 329.684C154.914 331.229 149.398 334.101 144.069 334.72C137.604 335.48 131.536 334.384 126.279 334.06C119.643 333.647 113.611 333.112 108.706 331.514C102.16 329.389 96.8215 326.181 92.9153 323.188C84.4913 316.745 86.1085 317.095 83.0446 308.852C79.4476 299.196 77.3131 300.484 78.4291 288.559C78.9847 282.607 80.3733 274.948 83.7065 267.91C86.3471 262.329 90.4874 255.882 95.8054 250.338C100.087 245.876 107.155 243.221 113.646 239.152C118.932 235.843 125.467 233.754 132.472 230.899C138.678 228.366 143.375 223.089 148.586 221.8C155.292 220.13 161.824 220.053 167.04 220.043C174.115 220.032 178.936 225.341 183.667 227.435C189.976 230.233 195.107 232.419 198.191 236.698C204.032 244.78 203.813 244.05 204.363 253.065C204.913 262.08 205.611 260.557 202.159 270.164C200.43 274.973 197.877 280.477 194.052 285.715C190.896 290.039 186.101 293.459 181.001 297.248C176.715 300.43 171.269 301.768 165.312 304.097C160.352 306.031 155.959 311.995 149.665 313.044C144.381 313.921 138.211 309.817 131.877 309.908C123.192 309.728 118.595 308.159 115.332 303.431C111.674 298.126 112.167 291.632 112.367 284.921C112.662 274.583 108.508 273.944 112.893 264.96C116.785 256.994 118.248 258.384 126.151 253.019C130.715 249.916 136.329 247.675 142.562 247.104C147.828 246.619 153.016 248.144 159.01 251.562C169.986 257.804 168.307 262.053 163.494 267.048C157.175 273.6 155.807 274.897 145.388 278.624" fill="white"/>
<path d="M307.05 218.165C306.914 227.484 305.793 224.78 302.903 235.954C301.58 241.09 299.7 246.702 296.933 253.218C294.71 258.455 293.998 264.888 290.544 270.655C287.552 275.658 284.153 280.84 280.042 286.011C276.377 290.616 272.825 295.827 268.144 300.412C263.918 304.547 258.149 307.356 252.997 311.362C248.311 315.001 244.719 320.771 239.198 324.215C234.15 327.366 228.791 330.855 222.995 333.767C217.667 336.451 210.145 334.845 204.139 337.273C198.601 339.516 193.427 343.097 187.279 345.098C181.131 347.1 175.125 348.559 169.391 350.035C163.065 351.673 157.699 356.315 151.9 357.366C145.442 358.532 138.921 357.434 133.084 357.957C126.502 358.553 120.315 356.906 114.5 356.8C107.84 356.673 101.371 359.52 95.6631 358.655C89.0141 357.643 82.5796 356.544 77.1403 354.792C70.6349 352.7 65.9137 347.57 60.9978 344.878C54.7434 341.452 48.0833 339.765 44.1291 336.289C35.5147 328.722 35.4578 329.931 31.8563 321.352C28.2547 312.772 31.7075 313.149 30.891 301.491C30.4951 295.858 29.3105 289.244 30.077 282.055C30.7132 276.04 33.8804 270.121 35.8912 263.507C37.6808 257.627 40.3012 252.052 43.5715 246.031C46.4936 240.626 46.9094 233.075 51.2934 227.792C55.2 223.082 62.715 221.463 67.9881 217.006C72.6596 213.058 76.8741 208.248 82.7481 204.628C87.9619 201.413 93.1902 197.581 99.4473 194.702C105.031 192.135 111.071 189.796 117.556 187.557C124.042 185.319 129.026 181.248 134.706 179.647C141.07 177.859 147.707 178.487 153.442 177.312C159.975 175.976 166.271 176.325 172.024 175.683C178.74 174.935 184.813 172.641 190.532 172.708C197.393 172.783 203.984 171.755 209.528 172.738C216.423 173.956 222.175 177.607 227.247 179.732C233.972 182.554 238.538 187.035 242.557 190.343C251.392 197.639 253.495 194.541 257.084 203.156C260.673 211.77 259.547 210.692 260.98 221.309C261.685 226.508 260.128 232.877 259.667 239.536C259.274 245.112 257.78 250.927 255.938 257.067C254.308 262.475 252.14 267.967 248.953 273.515C246.154 278.394 244.486 284.791 240.188 289.568C236.433 293.734 232.018 298.348 226.937 302.292C222.5 305.728 215.716 306.547 210.138 309.726C205.236 312.517 199.227 313.461 193.355 315.994C187.482 318.528 182.764 321.745 177.581 323.565C171.626 325.646 166.407 328.378 161.125 329.684C154.914 331.229 149.398 334.101 144.069 334.72C137.604 335.48 131.536 334.384 126.279 334.06C119.643 333.647 113.611 333.112 108.706 331.514C102.16 329.389 96.8215 326.181 92.9153 323.188C84.4913 316.745 86.1085 317.095 83.0446 308.852C79.4476 299.196 77.3131 300.484 78.4291 288.559C78.9847 282.607 80.3733 274.948 83.7065 267.91C86.3471 262.329 90.4874 255.882 95.8054 250.338C100.087 245.876 107.155 243.221 113.646 239.152C118.932 235.843 125.467 233.754 132.472 230.899C138.678 228.366 143.375 223.089 148.586 221.8C155.292 220.13 161.824 220.053 167.04 220.043C174.115 220.032 178.936 225.341 183.667 227.435C189.976 230.233 195.107 232.419 198.191 236.698C204.032 244.78 203.813 244.05 204.363 253.065C204.913 262.08 205.611 260.557 202.159 270.164C200.43 274.973 197.877 280.477 194.052 285.715C190.896 290.039 186.101 293.459 181.001 297.248C176.715 300.43 171.269 301.768 165.312 304.097C160.352 306.031 155.959 311.995 149.665 313.044C144.381 313.921 138.211 309.817 131.877 309.908C123.192 309.728 118.595 308.159 115.332 303.431C111.674 298.126 112.167 291.632 112.367 284.921C112.662 274.583 108.508 273.944 112.893 264.96C116.785 256.994 118.248 258.384 126.151 253.019C130.715 249.916 136.329 247.675 142.562 247.104C147.828 246.619 153.016 248.144 159.01 251.562C169.986 257.804 168.307 262.053 163.494 267.048C157.175 273.6 155.807 274.897 145.388 278.624" stroke="#111111" stroke-width="6.25392" stroke-miterlimit="10"/>
<path d="M434.126 803.757C426.331 798.595 426.568 801.966 417.317 795.024C413.031 791.806 408.072 787.726 402.619 783.31C398.113 779.653 394.218 774.43 389.243 770.075C384.737 766.126 379.076 762.915 374.424 758.477C370.001 754.261 366.997 748.315 362.64 743.727C358.283 739.138 355.276 733.645 351.257 728.863C347.238 724.08 343.222 719.351 339.616 714.334C336.01 709.317 333.82 703.314 330.761 697.996C327.703 692.678 320.491 688.959 318.212 683.323C315.812 677.384 317.683 670.225 316.515 664.263" stroke="#111111" stroke-width="20.8464" stroke-linecap="round" stroke-linejoin="round"/>
<path d="M477.844 740.883C468.979 736.672 472.737 734.033 461.882 728.771C456.795 726.294 450.514 724.026 443.942 720.789C438.442 718.085 433.312 713.586 427.145 710.504C421.473 707.672 413.526 708.777 407.566 705.749C401.607 702.721 396.189 699.243 390.372 696.222C384.554 693.201 378.853 689.709 373.185 686.682C367.192 683.48 361.672 679.813 356.216 676.775C350.032 673.331 344.614 669.476 339.53 666.418C332.713 662.307 328.443 656.922 324.519 653.901" stroke="#111111" stroke-width="20.8464" stroke-linecap="round" stroke-linejoin="round"/>
<path d="M398.564 526.829C404.667 528.734 406.162 536.227 403.516 541.658C401.554 545.688 399.234 551.176 394.962 556.936C391.849 561.131 389.267 566.858 384.624 571.423C380.753 575.22 374.9 577.533 369.803 581.288C365.376 584.55 359.946 586.712 354.471 589.746C349.619 592.438 345.775 597.982 340.038 600.373C334.302 602.764 328.892 604.157 323.95 606.119C318.235 608.386 312.376 608.948 307.473 610.771C301.549 612.973 296.522 615.742 291.733 617.375C285.341 619.557 279.937 621.271 275.5 622.599C264.184 625.974 267.598 627.587 259.126 628.493C250.654 629.399 251.004 626.642 242.136 625.874C236.436 625.373 229.737 626.062 225.133 624.043C219.354 621.508 215.534 615.695 218.154 609.066C219.576 605.453 224.159 601.916 229.769 596.674" stroke="#111111" stroke-width="20.8464" stroke-linecap="round" stroke-linejoin="round"/>
<path d="M391.51 572.354C399.689 571.06 398.126 569.071 407.503 567.707C412.492 566.981 418.372 568.728 424.184 568.824C429.997 568.92 435.628 567.804 440.791 569.4C448.861 571.889 445.652 579.583 437.877 585.572C433.166 589.196 425.986 591.537 420.229 594.772C411.011 599.957 403.554 605.552 403.554 605.552C395.479 609.359 397.529 609.211 387.566 613.629C382.839 615.719 377.048 617.683 370.951 620.263C365.787 622.454 359.483 623 353.708 625.325C348.314 627.5 342.165 628.189 336.51 630.312C330.856 632.434 325.833 635.934 320.274 637.838C314.715 639.743 309.037 642.657 303.559 644.25C297.42 646.034 291.474 647.435 286.14 648.497C279.233 649.886 272.858 651.923 268.114 651.63C257.392 650.97 254.277 644.59 251.984 641.088C247.045 633.507 246.801 630.869 253.382 623.152" stroke="#111111" stroke-width="20.8464" stroke-linecap="round" stroke-linejoin="round"/>
<path d="M384.643 533.184C391.903 526.272 391.06 527.564 399.44 519.731C403.893 515.56 407.781 509.133 413.527 505.137C419.272 501.141 426.278 499.716 432.344 497.521C440.252 494.661 440.269 499.444 437.837 507.736C436.454 512.468 434.487 518.285 431.66 524.107C429.051 529.475 426.233 534.95 423.551 539.734C418.696 548.398 418.311 546.678 413.163 553.814C408.015 560.949 410.043 560.044 402.713 568.533C399.31 572.479 397.184 578.767 392.7 583.872C388.976 588.116 384.958 592.725 380.705 597.512C376.827 601.871 372.806 606.47 368.626 611.078C364.446 615.685 359.219 618.807 355.071 623.288C350.955 627.728 346.274 631.678 342.125 636.03C337.977 640.383 334.577 645.77 330.422 649.973C326.004 654.448 319.522 656.534 315.354 660.515C310.643 665.021 306.26 669.132 302.082 672.738C296.671 677.413 294.272 684.567 290.192 687.169C282.641 691.972 275.812 693.286 272.13 692.603C266.267 691.508 264.528 683.271 264.408 676.405C264.263 667.879 264.065 667.23 266.293 658.603" stroke="#111111" stroke-width="20.8464" stroke-linecap="round" stroke-linejoin="round"/>
<path d="M339.892 492.107C327.989 491.75 330.016 491.221 324.307 476.08C318.599 460.939 318.053 468.867 307.845 463.525C297.637 458.183 303.36 452.751 289.491 450.766C282.357 449.748 274.914 447.315 267.496 447.586C260.482 447.84 252.6 448.993 246.152 454.449C241.402 458.471 237.902 464.099 235.852 468.958C232.171 477.666 236.868 478.155 235.224 486.622C233.579 495.089 231.447 492.6 223.246 499.828C219.154 503.434 214.093 510.612 210.434 518.733C206.775 526.854 202.952 535.556 204.395 541.201C207.269 552.451 207.412 553.135 213.87 563.168C217.352 568.583 214.044 562.08 224.698 569.503C228.714 572.296 230.773 577.278 233.627 581.293C238.369 587.934 243.133 585.147 245.39 592.38C248.488 602.314 242.831 603.545 248.433 613.635C251.541 619.231 258.536 623.156 264.113 627.885C269.125 632.134 274.489 636.831 281.903 638.185C289.317 639.54 296.725 639.82 303.4 638.448C310.799 636.923 317.382 632.96 323.115 630.053C333.887 624.59 335.084 627.339 341.286 618.729C346.336 611.716 342.515 609.604 346.951 602.038C350.248 596.418 355.13 590.642 359.093 588.844C362.755 587.177 371.013 586.487 378.314 582.179C383.924 578.873 390.817 575.197 395.09 570.028C399.363 564.858 400.659 557.341 400.624 550.131C400.6 544.522 399.863 538.944 398.288 533.956C396.532 528.391 394.295 523.089 391.869 518.857C387.185 510.716 380.673 506.915 380.673 506.915C373.304 498.115 375.058 496.687 362.809 492.997C356.56 491.108 348.668 489.865 339.892 492.107Z" fill="#111111"/>
<path d="M339.892 492.107C327.989 491.75 330.016 491.221 324.307 476.08C318.599 460.939 318.053 468.867 307.845 463.525C297.637 458.183 303.36 452.751 289.491 450.766C282.357 449.748 274.914 447.315 267.496 447.586C260.482 447.84 252.6 448.993 246.152 454.449C241.402 458.471 237.902 464.099 235.852 468.958C232.171 477.666 236.868 478.155 235.224 486.622C233.579 495.089 231.447 492.6 223.246 499.828C219.154 503.434 214.093 510.612 210.434 518.733C206.775 526.854 202.952 535.556 204.395 541.201C207.269 552.451 207.412 553.135 213.87 563.168C217.352 568.583 214.044 562.08 224.698 569.503C228.714 572.296 230.773 577.278 233.627 581.293C238.369 587.934 243.133 585.147 245.39 592.38C248.488 602.314 242.831 603.545 248.433 613.635C251.541 619.231 258.536 623.156 264.113 627.885C269.125 632.134 274.489 636.831 281.903 638.185C289.317 639.54 296.725 639.82 303.4 638.448C310.799 636.923 317.382 632.96 323.115 630.053C333.887 624.59 335.084 627.339 341.286 618.729C346.336 611.716 342.515 609.604 346.951 602.038C350.248 596.418 355.13 590.642 359.093 588.844C362.755 587.177 371.013 586.487 378.314 582.179C383.924 578.873 390.817 575.197 395.09 570.028C399.363 564.858 400.659 557.341 400.624 550.131C400.6 544.522 399.863 538.944 398.288 533.956C396.532 528.391 394.295 523.089 391.869 518.857C387.185 510.716 380.673 506.915 380.673 506.915C373.304 498.115 375.058 496.687 362.809 492.997C356.56 491.108 348.668 489.865 339.892 492.107Z" stroke="white" stroke-width="3.12696" stroke-linecap="round" stroke-linejoin="round"/>
<path d="M279.845 492.123C273.926 494.851 267.277 496.744 262.999 500.591C258.012 505.072 256.028 512.044 253.008 516.56C247.078 525.434 244.948 523.245 242.192 531.996C239.367 540.981 242.3 540.963 242.391 551.299C242.452 557.136 243.143 563.544 245.78 569.572C248.134 574.952 252.889 578.234 258.693 582.087C263.421 585.225 267.174 588.795 271.435 590.945C276.77 593.637 280.938 597.274 285.119 598.733C294.388 601.959 292.603 603.265 300.41 603.798C309.476 604.419 308.597 602.664 318.694 600.288C324.012 599.037 330.849 598.344 336.546 595.167C341.565 592.368 347.145 588.231 351.24 583.29C354.798 578.981 357.701 572.828 359.743 566.464C361.636 560.569 360.431 554.422 360.614 549.201C360.832 543.067 359.041 537.823 357.689 532.746C356.073 526.672 353.566 521.912 351.025 517.612C345.978 509.059 348.186 509.28 342.116 503.332C336.045 497.385 336.282 499.659 327.686 495.067C323.313 492.732 318.96 488.411 312.856 487.26C307.782 486.308 301.817 484.981 295.759 485.862C290.697 486.596 285.451 489.518 279.822 492.118L279.845 492.123Z" fill="#111111"/>
<path d="M279.845 492.123C273.926 494.851 267.277 496.744 262.999 500.591C258.012 505.072 256.028 512.044 253.008 516.56C247.078 525.434 244.948 523.245 242.192 531.996C239.367 540.981 242.3 540.963 242.391 551.299C242.452 557.136 243.143 563.544 245.78 569.572C248.134 574.952 252.889 578.234 258.693 582.087C263.421 585.225 267.174 588.795 271.435 590.945C276.77 593.637 280.938 597.274 285.119 598.733C294.388 601.959 292.603 603.265 300.41 603.798C309.476 604.419 308.597 602.664 318.694 600.288C324.012 599.037 330.849 598.344 336.546 595.167C341.565 592.368 347.145 588.231 351.24 583.29C354.798 578.981 357.701 572.828 359.743 566.464C361.636 560.569 360.431 554.422 360.614 549.201C360.832 543.067 359.041 537.823 357.689 532.746C356.073 526.672 353.566 521.912 351.025 517.612C345.978 509.059 348.186 509.28 342.116 503.332C336.045 497.385 336.282 499.659 327.686 495.067C323.313 492.732 318.96 488.411 312.856 487.26C307.782 486.308 301.817 484.981 295.759 485.862C290.697 486.596 285.451 489.518 279.822 492.118L279.845 492.123Z" stroke="white" stroke-width="3.12696" stroke-linecap="round" stroke-linejoin="round"/>
<path d="M304.035 516.482C297.928 523.82 293.526 517.328 284.906 521.908C278.987 525.056 273.356 529.754 271.047 534.992C265.37 547.846 263.238 550.069 259.089 542.211C255.714 535.822 258.538 535.424 261.948 528.937C264.256 524.538 268.989 523.232 273.393 521.773C277.797 520.314 282.322 515.92 287.542 515.382C295.655 514.546 308.952 510.589 304.038 516.492L304.035 516.482Z" fill="#111111"/>
<path d="M304.035 516.482C297.928 523.82 293.526 517.328 284.906 521.908C278.987 525.056 273.356 529.754 271.047 534.992C265.37 547.846 263.238 550.069 259.089 542.211C255.714 535.822 258.538 535.424 261.948 528.937C264.256 524.538 268.989 523.232 273.393 521.773C277.797 520.314 282.322 515.92 287.542 515.382C295.655 514.546 308.952 510.589 304.038 516.492L304.035 516.482Z" stroke="white" stroke-width="3.12696" stroke-linecap="round" stroke-linejoin="round"/>
<path d="M276.651 461.439C270.159 462.431 268.802 463.563 264.515 466.616C260.229 469.67 261.15 463.044 264.256 459.916C270.299 453.842 274.489 455.084 281.026 457.89C287.563 460.695 281.9 460.635 276.651 461.439Z" fill="#111111"/>
<path d="M276.651 461.439C270.159 462.431 268.802 463.563 264.515 466.616C260.229 469.67 261.15 463.044 264.256 459.916C270.299 453.842 274.489 455.084 281.026 457.89C287.563 460.695 281.9 460.635 276.651 461.439Z" stroke="white" stroke-width="3.12696" stroke-linecap="round" stroke-linejoin="round"/>
<path d="M229.807 528.157C233.348 533.804 225.78 535.469 227.421 541.805C229.062 548.142 223.935 542.352 221.592 536.969C218.81 530.59 221.396 524.712 229.807 528.157Z" fill="#111111"/>
<path d="M229.807 528.157C233.348 533.804 225.78 535.469 227.421 541.805C229.062 548.142 223.935 542.352 221.592 536.969C218.81 530.59 221.396 524.712 229.807 528.157Z" stroke="white" stroke-width="3.12696" stroke-linecap="round" stroke-linejoin="round"/>
<path d="M294.615 481.216C290.684 487.051 288.817 479.912 280.618 482.265C276.93 483.326 271.813 483.342 267.387 486.904C262.166 491.1 257.861 497.031 253.809 502.014C246.768 510.666 247.595 527.162 243.714 517.826C240.926 511.126 241.284 510.927 242.863 503.843C244.577 496.154 246.004 496.349 251.386 490.003C254.667 486.131 259.643 482.869 264.739 481.255C270.471 479.436 275.875 478.27 280.288 477.099C286.24 475.514 291.271 475.498 294.615 481.216Z" fill="#111111"/>
<path d="M294.615 481.216C290.684 487.051 288.817 479.912 280.618 482.265C276.93 483.326 271.813 483.342 267.387 486.904C262.166 491.1 257.861 497.031 253.809 502.014C246.768 510.666 247.595 527.162 243.714 517.826C240.926 511.126 241.284 510.927 242.863 503.843C244.577 496.154 246.004 496.349 251.386 490.003C254.667 486.131 259.643 482.869 264.739 481.255C270.471 479.436 275.875 478.27 280.288 477.099C286.24 475.514 291.271 475.498 294.615 481.216Z" stroke="white" stroke-width="3.12696" stroke-linecap="round" stroke-linejoin="round"/>
<path d="M268.212 564.862C267.697 576.827 268.709 576.956 281.643 581.892C294.584 586.815 283.034 574.285 274.534 563.289C271.35 559.165 269.025 556.047 268.214 564.872L268.212 564.862Z" fill="#111111"/>
<path d="M268.212 564.862C267.697 576.827 268.709 576.956 281.643 581.892C294.584 586.815 283.034 574.285 274.534 563.289C271.35 559.165 269.025 556.047 268.214 564.872L268.212 564.862Z" stroke="white" stroke-width="3.12696" stroke-linecap="round" stroke-linejoin="round"/>
</g>
<g clip-path="url(#clip1_1985_35900)">
<path d="M682.474 415.281C677.475 422.573 674.102 420.004 668.069 426.474C662.037 432.944 661.461 432.404 655.433 438.864C649.404 445.325 651.344 447.14 645.324 453.605C639.296 460.066 638.19 459.03 632.157 465.5C626.125 471.97 624.8 470.726 618.772 477.187C612.743 483.647 615.851 486.551 609.823 493.012C603.794 499.473 603.723 499.415 597.694 505.876C591.666 512.337 590.632 511.381 584.603 517.841C578.575 524.302 579.993 525.626 573.969 532.1C567.945 538.574 564.552 535.396 558.519 541.866C552.486 548.335 554.243 549.96 548.214 556.42C542.186 562.881 542.574 563.24 536.541 569.709C530.508 576.179 531.337 576.945 525.309 583.406C519.28 589.866 518.861 589.481 512.833 595.942C506.804 602.403 504.776 600.522 498.747 606.983C492.719 613.444 492.589 613.324 486.565 619.798C480.541 626.272 482.089 627.715 476.069 634.18C470.05 640.646 468.007 638.747 461.979 645.208C455.951 651.668 459.156 654.665 453.128 661.126C447.1 667.587 447.149 667.644 441.12 674.105C435.092 680.566 433.482 679.07 427.449 685.539C421.416 692.009 414.107 689.574 413.615 698.401C413.123 707.228 419.061 706.566 424.334 713.359C429.607 720.151 430.28 719.62 435.557 726.404C440.835 733.188 443.161 731.379 448.434 738.172C453.706 744.965 452.107 746.201 457.388 752.998C462.67 759.795 463.259 759.322 468.545 766.11C473.831 772.899 470.171 779.169 478.693 780.342C487.216 781.515 487.199 776.827 494.241 771.722C501.283 766.617 499.608 764.313 506.65 759.208C513.692 754.103 512.567 752.547 519.609 747.443C526.651 742.338 528.59 733.186 533.926 740.054C539.85 747.679 532.397 748.6 528.114 757.245C523.831 765.89 524.432 766.199 520.149 774.844C515.862 783.498 513.226 782.192 508.939 790.846C504.652 799.5 498.864 798.873 501.506 808.155C503.905 816.584 509.487 810.556 517.339 814.446C525.192 818.337 524.116 820.509 531.977 824.404C539.839 828.299 539.389 829.207 547.242 833.098C555.094 836.988 555.346 836.503 563.199 840.393C571.051 844.284 570.934 849.981 578.87 846.228C587.556 842.126 582.106 838.062 585.228 828.986C588.354 819.901 587.366 819.566 590.492 810.481C593.618 801.396 597.191 802.623 600.313 793.546C603.434 784.47 594.995 776.84 604.385 774.784C613.03 772.891 600.643 782.965 599.16 791.689C597.672 800.421 601.674 801.096 600.177 809.824C598.689 818.556 597.24 818.304 595.752 827.036C594.264 835.769 585.504 838.769 591.482 845.302C598.076 852.494 602.192 844.409 611.947 844.707C621.702 845.004 621.67 846.031 631.429 846.32C641.188 846.608 641.136 848.301 650.896 848.59C660.655 848.879 660.778 844.848 670.537 845.137C680.296 845.425 682.021 852.977 690.075 847.442C697.357 842.434 693.741 839.19 695.985 830.655C698.229 822.12 697.82 822.006 700.059 813.457C702.298 804.908 700.533 804.444 702.768 795.904C705.007 787.355 704.22 787.154 706.459 778.605C708.698 770.056 709.659 770.31 711.898 761.762C714.138 753.213 712.892 752.884 715.127 744.344C717.362 735.805 718.621 736.129 720.86 727.58C723.1 719.031 722.028 718.755 724.276 710.211C726.524 701.667 727.378 701.89 729.626 693.346C731.875 684.802 730.353 684.403 732.593 675.854C734.832 667.305 736.402 667.717 738.65 659.173C740.899 650.629 742.567 651.067 744.806 642.518C747.045 633.97 744.523 633.308 746.772 624.763C749.02 616.219 752.64 617.17 754.889 608.626C757.128 600.077 757.341 600.139 759.581 591.59C761.82 583.041 757.55 581.924 759.798 573.379C762.038 564.831 764.146 565.387 766.399 556.834C768.651 548.281 769.857 548.601 772.096 540.052C774.335 531.503 770.834 530.29 775.516 522.785C780.199 515.281 782.557 517.303 789.356 511.368C796.155 505.433 794.08 503.063 800.88 497.128C807.679 491.194 809.941 493.789 816.74 487.854C823.539 481.92 821.255 479.302 828.049 473.376C834.844 467.45 837.374 470.333 844.173 464.399C850.972 458.464 851.276 458.814 858.066 452.874C864.856 446.935 862.219 443.91 869.009 437.971C875.799 432.031 875.884 432.129 882.683 426.194C889.482 420.259 890.933 421.92 897.718 415.99C904.504 410.059 903.192 408.545 909.982 402.605C916.773 396.666 919.419 399.696 926.218 393.761C933.017 387.826 932.049 386.714 938.848 380.779C945.647 374.845 944.924 374.021 951.723 368.086C958.522 362.151 957.277 360.725 964.076 354.79C970.875 348.855 973.066 351.371 979.865 345.436C986.665 339.501 984.536 337.061 991.335 331.126C998.134 325.191 998.34 325.426 1005.13 319.486C1011.92 313.547 1013.66 315.54 1020.46 309.597C1027.27 303.653 1028.13 304.658 1034.93 298.724C1041.73 292.789 1040.84 291.77 1047.64 285.826C1054.45 279.883 1061.06 282.293 1060.52 273.279C1059.99 264.265 1054.42 266.685 1046.99 261.962C1039.57 257.253 1038.82 258.424 1031.39 253.714C1023.97 249.005 1022.61 251.138 1015.19 246.42C1007.77 241.701 1008.47 240.606 1001.05 235.896C993.622 231.186 993.542 231.302 986.118 226.593C978.693 221.883 980.266 219.402 972.845 214.684C965.425 209.965 962.849 214.023 955.416 209.309C947.982 204.595 949.926 201.544 942.502 196.834C935.077 192.124 935.346 191.692 927.926 186.974C920.506 182.255 920.117 182.861 912.697 178.142C905.277 173.424 905.953 172.351 898.532 167.632C891.112 162.914 890.644 163.657 883.223 158.939C875.803 154.22 874.16 156.799 866.735 152.089C859.31 147.38 860.985 144.739 853.551 140.025C846.118 135.311 844.399 138.019 836.979 133.3C829.559 128.582 830.847 117.699 822.414 120.196C813.98 122.693 819.506 130.676 815.559 138.777C811.611 146.879 810.04 146.112 806.084 154.209C802.128 162.306 803.601 163.025 799.645 171.123C795.689 179.22 794.251 178.519 790.295 186.616C786.338 194.713 787.687 195.371 783.74 203.472C779.784 211.57 779.846 211.6 775.89 219.698C771.934 227.795 772.379 228.016 768.432 236.117C764.484 244.219 763.687 243.835 759.74 251.937C755.793 260.039 755.846 260.065 751.89 268.163C747.934 276.26 748.397 276.489 744.441 284.587C740.484 292.684 737.822 291.387 733.875 299.489C729.928 307.591 730.115 307.684 726.159 315.781C722.202 323.878 724.201 324.857 720.254 332.959C716.307 341.061 716.316 341.065 712.359 349.163C708.403 357.26 707.339 356.744 703.383 364.841C699.427 372.939 699.792 373.119 695.84 381.23C691.888 389.341 689.784 388.642 686.883 397.184C683.981 405.726 687.61 407.779 682.514 415.223L682.474 415.281Z" fill="white"/>
<path d="M682.474 415.281C677.475 422.573 674.102 420.004 668.069 426.474C662.037 432.944 661.461 432.404 655.433 438.864C649.404 445.325 651.344 447.14 645.324 453.605C639.296 460.066 638.19 459.03 632.157 465.5C626.125 471.97 624.8 470.726 618.772 477.187C612.743 483.647 615.851 486.551 609.823 493.012C603.794 499.473 603.723 499.415 597.694 505.876C591.666 512.337 590.632 511.381 584.603 517.841C578.575 524.302 579.993 525.626 573.969 532.1C567.945 538.574 564.552 535.396 558.519 541.866C552.486 548.335 554.243 549.96 548.214 556.42C542.186 562.881 542.574 563.24 536.541 569.709C530.508 576.179 531.337 576.945 525.309 583.406C519.28 589.866 518.861 589.481 512.833 595.942C506.804 602.403 504.776 600.522 498.747 606.983C492.719 613.444 492.589 613.324 486.565 619.798C480.541 626.272 482.089 627.715 476.069 634.18C470.05 640.646 468.007 638.747 461.979 645.208C455.951 651.668 459.156 654.665 453.128 661.126C447.1 667.587 447.149 667.644 441.12 674.105C435.092 680.566 433.482 679.07 427.449 685.539C421.416 692.009 414.107 689.574 413.615 698.401C413.123 707.228 419.061 706.566 424.334 713.359C429.607 720.151 430.28 719.62 435.557 726.404C440.835 733.188 443.161 731.379 448.434 738.172C453.706 744.965 452.107 746.201 457.388 752.998C462.67 759.795 463.259 759.322 468.545 766.11C473.831 772.899 470.171 779.169 478.693 780.342C487.216 781.515 487.199 776.827 494.241 771.722C501.283 766.617 499.608 764.313 506.65 759.208C513.692 754.103 512.567 752.547 519.609 747.443C526.651 742.338 528.59 733.186 533.926 740.054C539.85 747.679 532.397 748.6 528.114 757.245C523.831 765.89 524.432 766.199 520.149 774.844C515.862 783.498 513.226 782.192 508.939 790.846C504.652 799.5 498.864 798.873 501.506 808.155C503.905 816.584 509.487 810.556 517.339 814.446C525.192 818.337 524.116 820.509 531.977 824.404C539.839 828.299 539.389 829.207 547.242 833.098C555.094 836.988 555.346 836.503 563.199 840.393C571.051 844.284 570.934 849.981 578.87 846.228C587.556 842.126 582.106 838.062 585.228 828.986C588.354 819.901 587.366 819.566 590.492 810.481C593.618 801.396 597.191 802.623 600.313 793.546C603.434 784.47 594.995 776.84 604.385 774.784C613.03 772.891 600.643 782.965 599.16 791.689C597.672 800.421 601.674 801.096 600.177 809.824C598.689 818.556 597.24 818.304 595.752 827.036C594.264 835.769 585.504 838.769 591.482 845.302C598.076 852.494 602.192 844.409 611.947 844.707C621.702 845.004 621.67 846.031 631.429 846.32C641.188 846.608 641.136 848.301 650.896 848.59C660.655 848.879 660.778 844.848 670.537 845.137C680.296 845.425 682.021 852.977 690.075 847.442C697.357 842.434 693.741 839.19 695.985 830.655C698.229 822.12 697.82 822.006 700.059 813.457C702.298 804.908 700.533 804.444 702.768 795.904C705.007 787.355 704.22 787.154 706.459 778.605C708.698 770.056 709.659 770.31 711.898 761.762C714.138 753.213 712.892 752.884 715.127 744.344C717.362 735.805 718.621 736.129 720.86 727.58C723.1 719.031 722.028 718.755 724.276 710.211C726.524 701.667 727.378 701.89 729.626 693.346C731.875 684.802 730.353 684.403 732.593 675.854C734.832 667.305 736.402 667.717 738.65 659.173C740.899 650.629 742.567 651.067 744.806 642.518C747.045 633.97 744.523 633.308 746.772 624.763C749.02 616.219 752.64 617.17 754.889 608.626C757.128 600.077 757.341 600.139 759.581 591.59C761.82 583.041 757.55 581.924 759.798 573.379C762.038 564.831 764.146 565.387 766.399 556.834C768.651 548.281 769.857 548.601 772.096 540.052C774.335 531.503 770.834 530.29 775.516 522.785C780.199 515.281 782.557 517.303 789.356 511.368C796.155 505.433 794.08 503.063 800.88 497.128C807.679 491.194 809.941 493.789 816.74 487.854C823.539 481.92 821.255 479.302 828.049 473.376C834.844 467.45 837.374 470.333 844.173 464.399C850.972 458.464 851.276 458.814 858.066 452.874C864.856 446.935 862.219 443.91 869.009 437.971C875.799 432.031 875.884 432.129 882.683 426.194C889.482 420.259 890.933 421.92 897.718 415.99C904.504 410.059 903.192 408.545 909.982 402.605C916.773 396.666 919.419 399.696 926.218 393.761C933.017 387.826 932.049 386.714 938.848 380.779C945.647 374.845 944.924 374.021 951.723 368.086C958.522 362.151 957.277 360.725 964.076 354.79C970.875 348.855 973.066 351.371 979.865 345.436C986.665 339.501 984.536 337.061 991.335 331.126C998.134 325.191 998.34 325.426 1005.13 319.486C1011.92 313.547 1013.66 315.54 1020.46 309.597C1027.27 303.653 1028.13 304.658 1034.93 298.724C1041.73 292.789 1040.84 291.77 1047.64 285.826C1054.45 279.883 1061.06 282.293 1060.52 273.279C1059.99 264.265 1054.42 266.685 1046.99 261.962C1039.57 257.253 1038.82 258.424 1031.39 253.714C1023.97 249.005 1022.61 251.138 1015.19 246.42C1007.77 241.701 1008.47 240.606 1001.05 235.896C993.622 231.186 993.542 231.302 986.118 226.593C978.693 221.883 980.266 219.402 972.845 214.684C965.425 209.965 962.849 214.023 955.416 209.309C947.982 204.595 949.926 201.544 942.502 196.834C935.077 192.124 935.346 191.692 927.926 186.974C920.506 182.255 920.117 182.861 912.697 178.142C905.277 173.424 905.953 172.351 898.532 167.632C891.112 162.914 890.644 163.657 883.223 158.939C875.803 154.22 874.16 156.799 866.735 152.089C859.31 147.38 860.985 144.739 853.551 140.025C846.118 135.311 844.399 138.019 836.979 133.3C829.559 128.582 830.847 117.699 822.414 120.196C813.98 122.693 819.506 130.676 815.559 138.777C811.611 146.879 810.04 146.112 806.084 154.209C802.128 162.306 803.601 163.025 799.645 171.123C795.689 179.22 794.251 178.519 790.295 186.616C786.338 194.713 787.687 195.371 783.74 203.472C779.784 211.57 779.846 211.6 775.89 219.698C771.934 227.795 772.379 228.016 768.432 236.117C764.484 244.219 763.687 243.835 759.74 251.937C755.793 260.039 755.846 260.065 751.89 268.163C747.934 276.26 748.397 276.489 744.441 284.587C740.484 292.684 737.822 291.387 733.875 299.489C729.928 307.591 730.115 307.684 726.159 315.781C722.202 323.878 724.201 324.857 720.254 332.959C716.307 341.061 716.316 341.065 712.359 349.163C708.403 357.26 707.339 356.744 703.383 364.841C699.427 372.939 699.792 373.119 695.84 381.23C691.888 389.341 689.784 388.642 686.883 397.184C683.981 405.726 687.61 407.779 682.514 415.223L682.474 415.281Z" stroke="#111111" stroke-width="5.96161" stroke-miterlimit="10"/>
<path d="M825.815 123.357C824.092 132.072 825.674 129.774 826.15 140.765C826.364 145.817 827.002 151.422 828.289 158.047C829.321 163.371 828.708 169.51 830.783 175.573C832.58 180.832 834.72 186.338 837.527 191.976C840.029 196.997 842.307 202.56 845.761 207.765C848.879 212.459 853.701 216.223 857.709 220.98C861.355 225.304 863.559 231.397 868.023 235.704C872.103 239.644 876.407 243.96 881.234 247.826C885.668 251.387 893 251.383 898.118 254.839C902.836 258.03 906.949 262.396 912.283 265.482C917.618 268.569 922.929 271.122 927.981 273.637C933.555 276.42 937.636 281.813 942.834 283.945C948.623 286.314 954.921 286.584 960.259 288.231C966.278 290.093 972.374 289.786 977.816 290.842C984.051 292.045 989.517 295.984 995.011 296.311C1001.41 296.687 1007.63 296.94 1013.05 296.387C1019.53 295.728 1024.95 291.882 1030.07 290.348C1036.58 288.396 1043.12 288.145 1047.5 285.69C1057.03 280.345 1056.85 281.483 1061.91 274.199C1066.97 266.915 1063.67 266.581 1066.75 255.874C1068.24 250.7 1070.66 244.768 1071.37 237.914C1071.97 232.179 1070.19 226.032 1069.63 219.466C1069.13 213.629 1067.79 207.911 1065.94 201.648C1064.29 196.028 1065.4 188.905 1062.36 183.109C1059.65 177.942 1052.97 174.941 1048.94 169.739C1045.36 165.13 1042.39 159.809 1037.63 155.267C1033.41 151.235 1029.3 146.624 1024.03 142.697C1019.34 139.195 1014.17 135.815 1008.57 132.441C1002.97 129.066 999.126 124.281 994.149 121.66C988.57 118.73 982.258 117.998 977.144 115.764C971.318 113.221 965.378 112.296 960.141 110.556C954.029 108.525 948.822 105.181 943.477 104.107C937.064 102.815 931.124 100.549 925.76 100.364C919.089 100.131 913.001 102.392 907.85 103.367C901.021 104.663 895.874 107.934 891.469 110.221C881.783 115.269 880.438 111.963 875.381 119.283C870.325 126.602 871.588 125.82 868.144 135.435C866.455 140.142 866.643 146.389 865.75 152.689C865.01 157.966 865.248 163.684 865.746 169.774C866.192 175.141 867.124 180.692 868.994 186.497C870.634 191.601 870.919 197.897 873.978 203.204C876.652 207.834 879.853 213.012 883.807 217.699C887.261 221.783 893.424 223.893 897.993 227.965C902.01 231.54 907.425 233.613 912.397 237.141C917.369 240.669 921.129 244.605 925.601 247.331C930.74 250.453 935.063 254.037 939.729 256.304C945.213 258.976 949.786 262.75 954.631 264.385C960.508 266.377 966.383 266.56 971.349 267.301C977.618 268.234 983.348 268.932 988.239 268.417C994.764 267.735 1000.38 265.804 1004.61 263.789C1013.75 259.454 1012.17 259.46 1016.66 252.383C1021.93 244.094 1023.67 245.718 1025 234.378C1025.66 228.719 1025.89 221.302 1024.17 214.078C1022.82 208.351 1020.24 201.517 1016.38 195.293C1013.28 190.283 1007.21 186.404 1001.97 181.322C997.698 177.187 992.021 173.942 986.056 169.889C980.773 166.296 977.441 160.442 972.838 158.206C966.917 155.318 960.843 153.949 955.982 152.905C949.387 151.489 943.838 155.482 939.012 156.495C932.574 157.852 927.356 158.871 923.632 162.248C916.581 168.624 916.929 167.987 914.627 176.283C912.325 184.579 911.977 183.02 913.287 192.662C913.945 197.49 915.232 203.129 917.759 208.772C919.842 213.43 923.634 217.57 927.637 222.115C931.001 225.933 935.813 228.261 940.905 231.615C945.145 234.404 948.057 240.836 953.717 243.064C958.47 244.931 965.037 242.329 970.925 243.672C979.058 245.228 983.655 244.678 987.636 240.918C992.1 236.698 992.93 230.545 994.076 224.249C995.853 214.551 999.853 214.781 997.549 205.533C995.501 197.333 993.861 198.339 987.558 191.768C983.918 187.969 979.13 184.765 973.431 182.995C968.618 181.497 963.478 181.889 957.211 183.885C945.738 187.527 946.46 191.821 949.955 197.434C954.546 204.797 955.564 206.278 964.538 211.822" fill="white"/>
<path d="M825.815 123.357C824.092 132.072 825.674 129.774 826.15 140.765C826.364 145.817 827.002 151.422 828.289 158.047C829.321 163.371 828.708 169.51 830.783 175.573C832.58 180.832 834.72 186.338 837.527 191.976C840.029 196.997 842.307 202.56 845.761 207.765C848.879 212.459 853.701 216.223 857.709 220.98C861.355 225.304 863.559 231.397 868.023 235.704C872.103 239.644 876.407 243.96 881.234 247.826C885.668 251.387 893 251.383 898.118 254.839C902.836 258.03 906.949 262.396 912.283 265.482C917.618 268.569 922.929 271.122 927.981 273.637C933.555 276.42 937.636 281.813 942.834 283.945C948.623 286.314 954.921 286.584 960.259 288.231C966.278 290.093 972.374 289.786 977.816 290.842C984.051 292.045 989.517 295.984 995.011 296.311C1001.41 296.687 1007.63 296.94 1013.05 296.387C1019.53 295.728 1024.95 291.882 1030.07 290.348C1036.58 288.396 1043.12 288.145 1047.5 285.69C1057.03 280.345 1056.85 281.483 1061.91 274.199C1066.97 266.915 1063.67 266.581 1066.75 255.874C1068.24 250.7 1070.66 244.768 1071.37 237.914C1071.97 232.179 1070.19 226.032 1069.63 219.466C1069.13 213.629 1067.79 207.911 1065.94 201.648C1064.29 196.028 1065.4 188.905 1062.36 183.109C1059.65 177.942 1052.97 174.941 1048.94 169.739C1045.36 165.13 1042.39 159.809 1037.63 155.267C1033.41 151.235 1029.3 146.624 1024.03 142.697C1019.34 139.195 1014.17 135.815 1008.57 132.441C1002.97 129.066 999.126 124.281 994.149 121.66C988.57 118.73 982.258 117.998 977.144 115.764C971.318 113.221 965.378 112.296 960.141 110.556C954.029 108.525 948.822 105.181 943.477 104.107C937.064 102.815 931.124 100.549 925.76 100.364C919.089 100.131 913.001 102.392 907.85 103.367C901.021 104.663 895.874 107.934 891.469 110.221C881.783 115.269 880.438 111.963 875.381 119.283C870.325 126.602 871.588 125.82 868.144 135.435C866.455 140.142 866.643 146.389 865.75 152.689C865.01 157.966 865.248 163.684 865.746 169.774C866.192 175.141 867.124 180.692 868.994 186.497C870.634 191.601 870.919 197.897 873.978 203.204C876.652 207.834 879.853 213.012 883.807 217.699C887.261 221.783 893.424 223.893 897.993 227.965C902.01 231.54 907.425 233.613 912.397 237.141C917.369 240.669 921.129 244.605 925.601 247.331C930.74 250.453 935.063 254.037 939.729 256.304C945.213 258.976 949.786 262.75 954.631 264.385C960.508 266.377 966.383 266.56 971.349 267.301C977.618 268.234 983.348 268.932 988.239 268.417C994.764 267.735 1000.38 265.804 1004.61 263.789C1013.75 259.454 1012.17 259.46 1016.66 252.383C1021.93 244.094 1023.67 245.718 1025 234.378C1025.66 228.719 1025.89 221.302 1024.17 214.078C1022.82 208.351 1020.24 201.517 1016.38 195.293C1013.28 190.283 1007.21 186.404 1001.97 181.322C997.698 177.187 992.021 173.942 986.056 169.889C980.773 166.296 977.441 160.442 972.838 158.206C966.917 155.318 960.843 153.949 955.982 152.905C949.387 151.489 943.838 155.482 939.012 156.495C932.574 157.852 927.356 158.871 923.632 162.248C916.581 168.624 916.929 167.987 914.627 176.283C912.325 184.579 911.977 183.02 913.287 192.662C913.945 197.49 915.232 203.129 917.759 208.772C919.842 213.43 923.634 217.57 927.637 222.115C931.001 225.933 935.813 228.261 940.905 231.615C945.145 234.404 948.057 240.836 953.717 243.064C958.47 244.931 965.037 242.329 970.925 243.672C979.058 245.228 983.655 244.678 987.636 240.918C992.1 236.698 992.93 230.545 994.076 224.249C995.853 214.551 999.853 214.781 997.549 205.533C995.501 197.333 993.861 198.339 987.558 191.768C983.918 187.969 979.13 184.765 973.431 182.995C968.618 181.497 963.478 181.889 957.211 183.885C945.738 187.527 946.46 191.821 949.955 197.434C954.546 204.797 955.564 206.278 964.538 211.822" stroke="#111111" stroke-width="5.96161" stroke-miterlimit="10"/>
<path d="M591.074 644.108C599.367 640.842 598.476 643.938 608.479 639.303C613.115 637.153 618.548 634.333 624.509 631.299C629.436 628.783 634.105 624.687 639.608 621.614C644.592 618.828 650.509 616.957 655.727 613.743C660.688 610.69 664.669 605.743 669.643 602.33C674.616 598.917 678.509 594.393 683.206 590.732C687.903 587.071 692.587 583.459 696.944 579.497C701.302 575.535 704.536 570.373 708.444 566.022C712.352 561.671 719.814 559.635 723.058 554.833C726.474 549.772 726.151 542.726 728.424 537.399" stroke="#111111" stroke-width="19.872" stroke-linecap="round" stroke-linejoin="round"/>
<path d="M562.796 576.807C571.898 574.641 568.918 571.435 580.083 568.683C585.317 567.384 591.624 566.517 598.394 564.803C604.059 563.374 609.735 560.198 616.097 558.549C621.948 557.034 629.138 559.643 635.295 558.003C641.452 556.363 647.194 554.196 653.218 552.534C659.242 550.872 665.251 548.748 671.137 547.052C677.36 545.256 683.235 542.932 688.925 541.183C695.374 539.2 701.191 536.681 706.538 534.84C713.71 532.361 718.76 528.187 723.019 526.15" stroke="#111111" stroke-width="19.872" stroke-linecap="round" stroke-linejoin="round"/>
<path d="M679.211 392.972C673.143 393.537 670.261 400.226 671.65 405.815C672.679 409.962 673.752 415.539 676.592 421.758C678.662 426.288 679.932 432.139 683.354 437.317C686.21 441.626 691.208 444.944 695.214 449.458C698.695 453.378 703.327 456.471 707.83 460.387C711.819 463.861 714.303 469.793 719.176 473.161C724.05 476.529 728.818 478.902 733.036 481.713C737.914 484.961 743.265 486.648 747.474 489.32C752.561 492.55 756.698 496.13 760.839 498.603C766.366 501.906 771.063 504.578 774.937 506.696C784.817 512.09 781.314 512.916 789.033 515.443C796.752 517.97 796.973 515.329 805.393 516.374C810.808 517.038 816.916 519.011 821.609 518.043C827.501 516.826 832.217 512.165 831.09 505.464C830.481 501.814 826.911 497.605 822.721 491.604" stroke="#111111" stroke-width="19.872" stroke-linecap="round" stroke-linejoin="round"/>
<path d="M676.75 436.817C669.381 433.987 671.232 432.443 662.76 429.31C658.253 427.642 652.425 428.103 646.986 427.039C641.548 425.975 636.519 423.816 631.388 424.279C623.37 424.997 624.834 432.808 630.895 439.936C634.568 444.25 640.797 447.858 645.523 452.017C653.088 458.682 658.929 465.379 658.929 465.379C665.702 470.531 663.82 469.987 672.232 476.083C676.224 478.97 681.234 481.952 686.406 485.567C690.786 488.635 696.555 490.396 701.478 493.711C706.075 496.809 711.672 498.672 716.522 501.774C721.372 504.875 725.36 509.135 730.166 512.015C734.971 514.895 739.686 518.739 744.477 521.312C749.846 524.194 755.112 526.681 759.874 528.729C766.038 531.395 771.578 534.561 776.059 535.229C786.187 536.743 790.358 531.413 793.192 528.603C799.301 522.515 800.052 520.104 795.449 511.603" stroke="#111111" stroke-width="19.872" stroke-linecap="round" stroke-linejoin="round"/>
<path d="M690.929 401.661C685.532 393.776 686.062 395.147 679.803 386.181C676.48 381.407 674.131 374.644 669.568 369.777C665.004 364.91 658.755 362.192 653.536 358.94C646.73 354.704 645.765 359.16 646.386 367.374C646.736 372.06 647.415 377.875 648.895 383.863C650.261 389.386 651.802 395.051 653.353 400.044C656.159 409.085 656.86 407.558 660.243 415.233C663.626 422.908 661.915 421.661 667.064 431.032C669.453 435.387 670.187 441.672 673.353 447.321C675.983 452.017 678.815 457.112 681.829 462.42C684.58 467.254 687.416 472.34 690.398 477.466C693.381 482.592 697.634 486.54 700.612 491.541C703.568 496.498 707.148 501.111 710.152 505.992C713.156 510.874 715.257 516.571 718.296 521.315C721.527 526.364 727.155 529.596 730.251 534.135C733.749 539.272 737.019 543.975 740.198 548.167C744.315 553.6 745.132 560.746 748.419 563.983C754.507 569.959 760.613 572.541 764.181 572.634C769.865 572.778 773.122 565.443 774.596 559.065C776.424 551.145 776.738 550.579 776.373 542.093" stroke="#111111" stroke-width="19.872" stroke-linecap="round" stroke-linejoin="round"/>
<path d="M740.807 372.248C751.976 374.278 750.191 373.383 758.52 360.399C766.848 347.416 765.783 354.916 776.361 351.962C786.939 349.008 782.682 342.808 796.007 343.71C802.86 344.178 810.283 343.386 817.145 345.112C823.634 346.741 830.754 349.381 835.683 355.748C839.313 360.441 841.458 366.383 842.405 371.321C844.108 380.17 839.632 379.694 839.484 387.915C839.337 396.136 841.818 394.238 848.03 402.605C851.129 406.779 854.423 414.477 856.222 422.775C858.021 431.074 859.858 439.945 857.392 444.922C852.478 454.84 852.209 455.45 844.196 463.522C839.875 467.879 844.25 462.473 832.843 467.279C828.544 469.085 825.636 473.322 822.177 476.498C816.437 481.749 812.55 478.204 809.009 484.5C804.148 493.148 809.178 495.418 801.952 503.714C797.943 508.314 790.642 510.585 784.504 513.887C778.987 516.853 773.054 520.167 765.872 519.958C758.69 519.749 751.727 518.539 745.777 515.935C739.181 513.044 733.83 508.042 729.062 504.194C720.104 496.962 718.441 499.287 714.368 490.028C711.052 482.487 715.034 481.277 712.401 473.341C710.442 467.447 707.037 461.092 703.7 458.629C700.616 456.348 693.054 454.065 687.102 448.599C682.527 444.403 676.831 439.607 673.873 433.939C670.915 428.271 671.199 421.005 672.663 414.29C673.8 409.064 675.594 404.01 678.053 399.673C680.795 394.833 683.933 390.333 687.036 386.869C693.019 380.209 699.845 377.957 699.845 377.957C708.463 371.216 707.11 369.537 719.264 368.528C725.465 368.008 733.07 368.415 740.807 372.248Z" fill="#111111"/>
<path d="M740.807 372.248C751.976 374.278 750.191 373.383 758.52 360.399C766.848 347.416 765.783 354.916 776.361 351.962C786.939 349.008 782.682 342.808 796.007 343.71C802.86 344.178 810.283 343.386 817.145 345.112C823.634 346.741 830.754 349.381 835.683 355.748C839.313 360.441 841.458 366.383 842.405 371.321C844.108 380.17 839.632 379.694 839.484 387.915C839.337 396.136 841.818 394.238 848.03 402.605C851.129 406.779 854.423 414.477 856.222 422.775C858.021 431.074 859.858 439.945 857.392 444.922C852.478 454.84 852.209 455.45 844.196 463.522C839.875 467.879 844.25 462.473 832.843 467.279C828.544 469.085 825.636 473.322 822.177 476.498C816.437 481.749 812.55 478.204 809.009 484.5C804.148 493.148 809.178 495.418 801.952 503.714C797.943 508.314 790.642 510.585 784.504 513.887C778.987 516.853 773.054 520.167 765.872 519.958C758.69 519.749 751.727 518.539 745.777 515.935C739.181 513.044 733.83 508.042 729.062 504.194C720.104 496.962 718.441 499.287 714.368 490.028C711.052 482.487 715.034 481.277 712.401 473.341C710.442 467.447 707.037 461.092 703.7 458.629C700.616 456.348 693.054 454.065 687.102 448.599C682.527 444.403 676.831 439.607 673.873 433.939C670.915 428.271 671.199 421.005 672.663 414.29C673.8 409.064 675.594 404.01 678.053 399.673C680.795 394.833 683.933 390.333 687.036 386.869C693.019 380.209 699.845 377.957 699.845 377.957C708.463 371.216 707.11 369.537 719.264 368.528C725.465 368.008 733.07 368.415 740.807 372.248Z" stroke="white" stroke-width="2.98081" stroke-linecap="round" stroke-linejoin="round"/>
<path d="M796.79 384.183C801.768 387.902 807.591 390.987 810.815 395.423C814.576 400.591 815.041 407.485 816.961 412.295C820.728 421.746 823.148 420.129 823.98 428.835C824.83 437.772 822.1 437.173 819.962 446.793C818.747 452.223 816.831 458.06 813.174 463.156C809.912 467.705 804.827 469.821 798.651 472.261C793.619 474.248 789.411 476.832 785.012 477.99C779.503 479.441 774.896 482.004 770.707 482.535C761.424 483.702 762.83 485.274 755.445 484.222C746.869 483 748.037 481.538 739.094 477.318C734.385 475.096 728.148 473.093 723.467 469C719.344 465.393 714.962 460.428 712.125 455.008C709.663 450.285 708.178 443.972 707.538 437.633C706.943 431.761 709.287 426.269 710.153 421.365C711.167 415.602 713.879 411.069 716.147 406.603C718.86 401.261 722.142 397.321 725.364 393.817C731.769 386.843 729.666 386.611 736.507 382.271C743.347 377.932 742.675 380.005 751.601 377.43C756.142 376.121 761.059 372.957 766.978 373.095C771.897 373.215 777.723 373.162 783.196 375.186C787.77 376.876 792.081 380.641 796.813 384.183L796.79 384.183Z" fill="#111111"/>
<path d="M796.79 384.183C801.768 387.902 807.591 390.987 810.815 395.423C814.576 400.591 815.041 407.485 816.961 412.295C820.728 421.746 823.148 420.129 823.98 428.835C824.83 437.772 822.1 437.173 819.962 446.793C818.747 452.223 816.831 458.06 813.174 463.156C809.912 467.705 804.827 469.821 798.651 472.261C793.619 474.248 789.411 476.832 785.012 477.99C779.503 479.441 774.896 482.004 770.707 482.535C761.424 483.702 762.83 485.274 755.445 484.222C746.869 483 748.037 481.538 739.094 477.318C734.385 475.096 728.148 473.093 723.467 469C719.344 465.393 714.962 460.428 712.125 455.008C709.663 450.285 708.178 443.972 707.538 437.633C706.943 431.761 709.287 426.269 710.153 421.365C711.167 415.602 713.879 411.069 716.147 406.603C718.86 401.261 722.142 397.321 725.364 393.817C731.769 386.843 729.666 386.611 736.507 382.271C743.347 377.932 742.675 380.005 751.601 377.43C756.142 376.121 761.059 372.957 766.978 373.095C771.897 373.215 777.723 373.162 783.196 375.186C787.77 376.876 792.081 380.641 796.813 384.183L796.79 384.183Z" stroke="white" stroke-width="2.98081" stroke-linecap="round" stroke-linejoin="round"/>
<path d="M769.399 402.093C773.637 410.147 779.03 404.968 786.157 410.95C791.051 415.06 795.368 420.559 796.481 425.9C799.222 439.012 800.768 441.508 806.197 435.005C810.612 429.719 808.058 428.786 806.167 422.061C804.889 417.502 800.735 415.344 796.918 413.11C793.102 410.875 789.756 405.88 784.995 404.342C777.597 401.952 765.985 395.622 769.395 402.102L769.399 402.093Z" fill="#111111"/>
<path d="M769.399 402.093C773.637 410.147 779.03 404.968 786.157 410.95C791.051 415.06 795.368 420.559 796.481 425.9C799.222 439.012 800.768 441.508 806.197 435.005C810.612 429.719 808.058 428.786 806.167 422.061C804.889 417.502 800.735 415.344 796.918 413.11C793.102 410.875 789.756 405.88 784.995 404.342C777.597 401.952 765.985 395.622 769.395 402.102L769.399 402.093Z" stroke="white" stroke-width="2.98081" stroke-linecap="round" stroke-linejoin="round"/>
<path d="M805.86 356.208C811.716 358.422 812.756 359.747 816.147 363.445C819.537 367.143 819.994 360.782 817.719 357.249C813.291 350.387 809.137 350.713 802.486 352.031C795.834 353.348 801.126 354.417 805.86 356.208Z" fill="#111111"/>
<path d="M805.86 356.208C811.716 358.422 812.756 359.747 816.147 363.445C819.537 367.143 819.994 360.782 817.719 357.249C813.291 350.387 809.137 350.713 802.486 352.031C795.834 353.348 801.126 354.417 805.86 356.208Z" stroke="white" stroke-width="2.98081" stroke-linecap="round" stroke-linejoin="round"/>
<path d="M836.29 427.714C831.867 432.276 838.593 435.331 835.805 440.913C833.017 446.496 838.946 442.115 842.2 437.562C846.06 432.166 844.816 426.172 836.29 427.714Z" fill="#111111"/>
<path d="M836.29 427.714C831.867 432.276 838.593 435.331 835.805 440.913C833.017 446.496 838.946 442.115 842.2 437.562C846.06 432.166 844.816 426.172 836.29 427.714Z" stroke="white" stroke-width="2.98081" stroke-linecap="round" stroke-linejoin="round"/>
<path d="M785.184 371.082C787.691 377.302 790.849 371.016 798.026 374.838C801.254 376.559 806.022 377.591 809.441 381.79C813.476 386.739 816.312 393.123 819.1 398.574C823.947 408.039 819.902 423.255 825.374 415.321C829.303 409.628 829.009 409.371 828.944 402.453C828.872 394.943 827.503 394.842 823.745 387.857C821.454 383.595 817.462 379.566 813.031 377.049C808.049 374.215 803.242 372.055 799.36 370.088C794.124 367.427 789.437 366.414 785.184 371.082Z" fill="#111111"/>
<path d="M785.184 371.082C787.691 377.302 790.849 371.016 798.026 374.838C801.254 376.559 806.022 377.591 809.441 381.79C813.476 386.739 816.312 393.123 819.1 398.574C823.947 408.039 819.902 423.255 825.374 415.321C829.303 409.628 829.009 409.371 828.944 402.453C828.872 394.943 827.503 394.842 823.745 387.857C821.454 383.595 817.462 379.566 813.031 377.049C808.049 374.215 803.242 372.055 799.36 370.088C794.124 367.427 789.437 366.414 785.184 371.082Z" stroke="white" stroke-width="2.98081" stroke-linecap="round" stroke-linejoin="round"/>
<path d="M793.195 454.311C791.299 465.569 790.33 465.488 777.291 467.522C764.248 469.543 777.504 460.154 787.613 451.59C791.4 448.377 794.186 445.931 793.191 454.32L793.195 454.311Z" fill="#111111"/>
<path d="M793.195 454.311C791.299 465.569 790.33 465.488 777.291 467.522C764.248 469.543 777.504 460.154 787.613 451.59C791.4 448.377 794.186 445.931 793.191 454.32L793.195 454.311Z" stroke="white" stroke-width="2.98081" stroke-linecap="round" stroke-linejoin="round"/>
</g>
<defs>
<clipPath id="clip0_1985_35900">
<rect width="419.388" height="884.534" fill="white" transform="matrix(-0.968869 0.247575 0.247575 0.968869 406.332 107)"/>
</clipPath>
<clipPath id="clip1_1985_35900">
<rect width="399.786" height="843.191" fill="white" transform="translate(755.32) rotate(26.3551)"/>
</clipPath>
</defs>
</svg>
