<svg width="1440" height="2659" viewBox="0 0 1440 2659" fill="none" xmlns="http://www.w3.org/2000/svg">
<path d="M1479.54 1692.83C1464.51 1705.86 1449.14 1682.74 1427.59 1682.99C1409.96 1683.19 1412.88 1678.02 1395.69 1674.72C1376.09 1670.94 1378.98 1667.95 1359.65 1663.29C1342.77 1659.23 1340.29 1672.83 1322.8 1674.04C1305.32 1675.25 1305 1678.95 1287.17 1678.64C1269.35 1678.33 1269.52 1663.79 1251.79 1666.19C1232.14 1668.83 1239.19 1686.86 1220.34 1692.24C1203.56 1697.04 1199.45 1684.94 1181.8 1686.27C1164.14 1687.6 1164.65 1689.86 1147.31 1687.52C1128.93 1685.06 1131.92 1672.16 1113.51 1669.8C1096.15 1667.56 1093.37 1670.64 1075.89 1671.95C1058.4 1673.26 1059.01 1680.36 1041.4 1681.88C1023.8 1683.4 1021.24 1699.83 1004.02 1696.73C984.788 1693.26 992.23 1671.7 973.626 1666.33C956.772 1661.47 952.273 1654.84 934.69 1657.22C915.357 1659.85 920.585 1677.47 902.054 1682.82C885.152 1687.71 884.082 1686.19 866.256 1686.78C848.624 1687.36 849.184 1689.43 831.552 1690.15C813.921 1690.86 814.042 1689.1 796.241 1690.84C778.804 1692.57 778.293 1693.29 761.707 1688.44C741.328 1682.49 749.621 1664.67 728.803 1659.95C711.61 1656.03 705.846 1659.58 688.287 1662.16C670.753 1664.75 673.842 1668.09 656.04 1667.72C638.238 1667.35 638.652 1673.98 620.68 1674.58C602.392 1675.17 603.34 1689.16 585.052 1688.26C566.083 1687.34 569.707 1660.34 550.713 1659.91C531.72 1659.48 534.249 1687.13 515.596 1687.62C497.284 1688.1 498.67 1671.54 480.528 1669.47C462.386 1667.4 462.507 1669.76 445.362 1672.85C426.88 1676.2 426.539 1672.69 408.056 1676.03C390.887 1679.13 394.584 1678.12 377.414 1675.07C358.591 1671.72 358.713 1676.81 339.525 1675.54C320.337 1674.27 320.288 1669.16 302.584 1673.1C284.879 1677.04 288.333 1688.42 270.628 1691.21C252.924 1694 252.316 1685.43 234.611 1685.47C216.907 1685.51 213.235 1699.38 196.527 1694.45C177.534 1688.85 179.625 1686.04 160.486 1680.79C143.73 1676.2 147.038 1672.71 129.43 1672.93C111.823 1673.16 111.848 1669.82 94.435 1672.3C77.0224 1674.78 77.0467 1682.37 59.0748 1682.15C41.1029 1681.92 42.1486 1680.32 24.055 1680.32C5.9615 1680.32 7.32338 1686.08 -10.7702 1686.54C-24.7051 1686.88 -27.9882 1680.42 -39.3696 1673.63C-53.5478 1665.18 -48.4407 1663.91 -48.0516 1649.26C-47.5652 1631.5 -38.7373 1636.89 -36.9134 1619.19C-35.211 1602.73 -48.1732 1606.2 -46.9573 1589.73C-45.6683 1572.37 -37.4241 1576.74 -36.354 1559.39C-35.3326 1542.77 -50.0458 1546.54 -52.3561 1530.01C-54.4962 1514.71 -35.1138 1516.33 -32.0739 1501.13C-29.0339 1485.92 -25.386 1482.72 -30.0797 1468.3C-35.6001 1451.32 -51.8211 1457.68 -52.4534 1440.07C-53.0857 1422.47 -57.0498 1425.28 -53.4991 1408.4C-50.3376 1393.38 -36.6945 1394.04 -41.1449 1379.25C-45.5954 1364.46 -44.428 1364.66 -47.395 1349.34C-50.3619 1334.01 -45.7899 1336.48 -44.8658 1321.58C-43.9417 1306.69 -51.6266 1306.4 -50.216 1291.39C-48.8055 1276.37 -51.6022 1276.39 -50.216 1261.52C-48.8298 1246.64 -61.5975 1243.83 -56.3445 1229.45C-50.5565 1213.66 -30.104 1218.52 -27.4775 1202.13C-25.0456 1187.03 -33.1439 1186.29 -40.0992 1172.22C-48.1246 1155.97 -68.8203 1162.37 -74.9244 1145.55C-80.0801 1131.29 -65.0994 1126.94 -64.3699 1112.03C-63.6403 1097.11 -59.0683 1097.4 -55.8824 1082.69C-52.575 1067.39 -60.5031 1066.01 -56.4661 1050.83C-52.5507 1036.12 -29.7635 1038.97 -27.8666 1023.98C-25.9697 1009.13 -50.897 1007.69 -50.7024 992.756C-50.5079 977.821 -43.7957 977.821 -41.5584 963.01C-39.2237 947.562 -38.2509 950.147 -41.68 934.843C-45.6197 917.16 -56.1743 921.591 -58.8251 903.743C-61.2083 887.66 -26.5777 890.491 -25.2888 874.325C-24.0728 858.816 -62.1811 859.617 -62.8864 844.087C-63.5916 828.558 -44.0146 829.153 -40.7558 814.115C-38.2023 802.422 -51.0186 796.986 -41.8016 788C-32.5846 779.015 -25.1429 772.799 -10.7458 773.209C7.56657 773.722 5.66966 792.903 23.9334 791.919C42.1972 790.934 39.7896 778.482 58.8316 777.21C77.8736 775.938 76.4631 775.712 94.6296 776.287C112.48 776.861 111.24 777.825 129.09 777.476C146.819 777.148 147.305 797.191 165.01 796.329C183.127 795.427 180.793 769.476 198.911 768.819C217.029 768.163 218.998 774.543 236.095 778.789C254.286 783.323 251.975 785.928 270.75 788.103C288.284 790.134 284.563 788.718 301.222 783.651C320.337 777.846 320.434 780.554 340.376 777.271C357.91 774.379 356.743 767.342 374.617 767.178C392.492 767.014 391.495 763.588 409.443 763.075C427.39 762.562 428.266 770.645 445.849 772.738C463.431 774.83 463.164 772.717 480.795 773.866C498.427 775.015 497.454 787.939 514.988 788.267C532.523 788.595 532.985 778.297 550.494 779.179C568.004 780.061 567.712 784.533 585.003 787.426C602.951 790.442 605.164 807.448 622.942 803.776C644.634 799.283 631.478 764.122 653.56 761.229C672.772 758.726 671.167 783.795 690.111 787.467C707.208 790.79 706.259 780.697 723.307 777.189C742.13 773.333 741.036 769.476 760.321 767.855C778.39 766.337 778.074 775.733 795.098 781.067C813.289 786.749 811.513 793.457 830.92 793.293C850.327 793.129 846.484 779.795 866.013 778.933C884.811 778.112 882.282 790.319 901.081 790.626C919.661 790.934 916.548 774.563 934.982 772.45C952.419 770.461 953.659 781.025 971.267 780.964C988.874 780.902 987.852 772.758 1005.39 771.281C1022.92 769.804 1026.54 765.701 1043.62 769.496C1063.75 773.989 1051.91 801.827 1071.61 807.489C1088.24 812.269 1098.29 808.535 1114.68 803.202C1135.81 796.329 1125.94 780.328 1147.56 774.666C1164.63 770.194 1162.44 779.118 1179.27 784.185C1197.9 789.806 1198.41 787.426 1217.5 791.775C1234.45 795.632 1234.3 790.052 1251.84 789.601C1269.37 789.149 1268.08 783.856 1285.54 781.908C1303.01 779.959 1305.15 791.796 1322.8 789.539C1340.46 787.282 1338.76 786.708 1356.22 788.965C1375.02 791.385 1373.12 794.298 1391.99 792.391C1412.86 790.278 1404.64 772.84 1424.85 767.917C1446.37 762.686 1451.82 766.173 1467.21 779.918C1482.6 793.662 1468.47 794.421 1465.43 813.233C1462.98 828.455 1476.31 829.111 1474.97 844.436C1473.63 859.76 1451.09 859.863 1453.44 874.715C1455.8 889.568 1459.21 887.024 1457.36 902.061C1455.41 917.898 1443.91 917.201 1444.01 933.12C1444.11 949.039 1472.97 946.988 1471.42 962.907C1469.76 979.873 1467.6 976.919 1465.65 993.843C1463.85 1009.6 1451.86 1007.34 1453.08 1023.14C1454.22 1038.4 1454.81 1036.6 1451.62 1051.65C1448.48 1066.46 1460.11 1064.99 1464.34 1079.59C1469.25 1096.62 1467.04 1095.02 1469.47 1112.42C1471.68 1128.25 1474.8 1128.81 1469.5 1144.13C1464.19 1159.46 1457.58 1156.67 1456.31 1171.85C1455.05 1187.03 1438.05 1190.39 1443.43 1204.63C1449.6 1221.02 1482.09 1213.51 1483.94 1230.64C1485.67 1246.6 1450.77 1245.02 1450.62 1261.04C1450.48 1277.07 1478.96 1275.26 1477.13 1291.12C1475.16 1308.21 1453.47 1303.59 1453.37 1320.76C1453.27 1337.93 1472.44 1333.54 1476.04 1350.36C1479.25 1365.32 1486.59 1369.01 1481.87 1383.7C1477.16 1398.39 1472.44 1397.08 1468.74 1412.52C1465.24 1427.17 1449.75 1424.77 1448 1439.64C1446.25 1454.52 1453.2 1454.93 1452.93 1469.98C1452.67 1485.04 1443.16 1486.54 1449.09 1500.69C1455.95 1517.09 1459.26 1511.98 1458.87 1529.37C1458.48 1546.77 1460.33 1543.18 1455.34 1560.35C1451.11 1575 1457.14 1572.99 1463.05 1587.23C1469.71 1603.31 1468.64 1602.82 1471.93 1619.6C1474.85 1634.47 1476.13 1630.98 1480.78 1645.55C1488.25 1668.98 1494.84 1679.5 1479.54 1692.75V1692.83Z" fill="white"/>
<path d="M1291.58 2030.37C1278.2 2041.85 1264.52 2021.47 1245.34 2021.69C1229.65 2021.87 1232.25 2017.31 1216.94 2014.4C1199.5 2011.07 1202.07 2008.43 1184.86 2004.33C1169.84 2000.75 1167.63 2012.74 1152.07 2013.8C1136.51 2014.87 1136.22 2018.12 1120.36 2017.85C1104.49 2017.58 1104.64 2004.76 1088.86 2006.88C1071.37 2009.21 1077.65 2025.1 1060.87 2029.84C1045.94 2034.07 1042.28 2023.4 1026.56 2024.58C1010.85 2025.75 1011.3 2027.74 995.868 2025.68C979.504 2023.51 982.166 2012.14 965.78 2010.06C950.324 2008.09 947.856 2010.8 932.293 2011.96C916.729 2013.12 917.27 2019.37 901.598 2020.71C885.926 2022.05 883.653 2036.53 868.327 2033.8C851.205 2030.75 857.829 2011.74 841.269 2007C826.268 2002.72 822.264 1996.88 806.613 1998.98C789.404 2001.29 794.058 2016.82 777.564 2021.54C762.519 2025.85 761.567 2024.51 745.7 2025.03C730.006 2025.54 730.504 2027.36 714.81 2028C699.117 2028.63 699.225 2027.07 683.38 2028.61C667.859 2030.13 667.405 2030.76 652.642 2026.5C634.502 2021.25 641.883 2005.54 623.354 2001.38C608.05 1997.93 602.92 2001.06 587.291 2003.33C571.684 2005.61 574.433 2008.56 558.588 2008.23C542.742 2007.91 543.11 2013.75 527.114 2014.27C510.836 2014.8 511.68 2027.13 495.402 2026.33C478.517 2025.52 481.743 2001.72 464.837 2001.34C447.931 2000.96 450.182 2025.34 433.579 2025.77C417.279 2026.19 418.513 2011.6 402.365 2009.77C386.217 2007.94 386.325 2010.02 371.064 2012.75C354.613 2015.7 354.31 2012.61 337.858 2015.56C322.576 2018.29 325.866 2017.4 310.584 2014.71C293.829 2011.76 293.938 2016.24 276.859 2015.12C259.78 2014 259.736 2009.5 243.978 2012.97C228.219 2016.44 231.293 2026.48 215.534 2028.94C199.775 2031.4 199.234 2023.84 183.476 2023.87C167.717 2023.91 164.448 2036.13 149.577 2031.79C132.671 2026.86 134.533 2024.38 117.497 2019.75C102.583 2015.7 105.527 2012.63 89.8546 2012.83C74.1825 2013.03 74.2042 2010.08 58.7053 2012.27C43.2064 2014.45 43.228 2021.14 27.2313 2020.95C11.2345 2020.75 12.1653 2019.34 -3.93967 2019.34C-20.0447 2019.34 -18.8325 2024.42 -34.9374 2024.81C-47.3409 2025.12 -50.2632 2019.43 -60.3937 2013.44C-73.0136 2005.99 -68.4679 2004.87 -68.1215 1991.96C-67.6886 1976.3 -59.8309 1981.06 -58.2074 1965.45C-56.6922 1950.95 -68.2298 1954.01 -67.1474 1939.49C-66.0002 1924.19 -58.662 1928.04 -57.7096 1912.74C-56.8004 1898.1 -69.8965 1901.42 -71.953 1886.85C-73.8578 1873.36 -56.6056 1874.79 -53.8998 1861.39C-51.194 1847.99 -47.947 1845.17 -52.1248 1832.46C-57.0385 1817.49 -71.4767 1823.1 -72.0395 1807.58C-72.6023 1792.07 -76.1307 1794.54 -72.9703 1779.66C-70.1563 1766.43 -58.0126 1767.01 -61.9739 1753.97C-65.9352 1740.93 -64.8962 1741.11 -67.5371 1727.61C-70.1779 1714.1 -66.1084 1716.27 -65.2858 1703.14C-64.4633 1690.01 -71.3036 1689.76 -70.0481 1676.52C-68.7926 1663.29 -71.2819 1663.31 -70.0481 1650.2C-68.8142 1637.09 -80.1786 1634.61 -75.503 1621.94C-70.3511 1608.01 -52.1464 1612.3 -49.8086 1597.85C-47.6439 1584.54 -54.8522 1583.89 -61.0431 1571.49C-68.1865 1557.17 -86.6076 1562.81 -92.0409 1547.98C-96.6299 1535.42 -83.2957 1531.58 -82.6463 1518.44C-81.9969 1505.29 -77.9274 1505.54 -75.0917 1492.58C-72.1478 1479.09 -79.2045 1477.88 -75.6112 1464.5C-72.1261 1451.53 -51.8434 1454.05 -50.1549 1440.83C-48.4665 1427.74 -70.6542 1426.47 -70.481 1413.31C-70.3078 1400.15 -64.3334 1400.15 -62.3419 1387.09C-60.2638 1373.48 -59.398 1375.75 -62.4501 1362.26C-65.9569 1346.68 -75.3514 1350.58 -77.7109 1334.85C-79.8323 1320.68 -49.0077 1323.17 -47.8604 1308.92C-46.7781 1295.25 -80.6981 1295.96 -81.3259 1282.27C-81.9536 1268.58 -64.5282 1269.11 -61.6276 1255.85C-59.3547 1245.55 -70.7624 1240.76 -62.5584 1232.84C-54.3544 1224.92 -47.7305 1219.44 -34.9158 1219.8C-18.616 1220.25 -20.3044 1237.16 -4.04791 1236.29C12.2086 1235.42 10.0656 1224.45 27.0148 1223.33C43.964 1222.2 42.7085 1222.01 58.8784 1222.51C74.767 1223.02 73.663 1223.87 89.5515 1223.56C105.332 1223.27 105.765 1240.94 121.523 1240.18C137.65 1239.38 135.572 1216.51 151.699 1215.93C167.825 1215.35 169.579 1220.97 184.796 1224.72C200.988 1228.71 198.931 1231.01 215.642 1232.93C231.249 1234.72 227.938 1233.47 242.765 1229C259.779 1223.89 259.866 1226.27 277.616 1223.38C293.223 1220.83 292.184 1214.63 308.094 1214.48C324.005 1214.34 323.117 1211.32 339.092 1210.87C355.067 1210.41 355.847 1217.54 371.497 1219.38C387.147 1221.23 386.909 1219.37 402.603 1220.38C418.297 1221.39 417.431 1232.78 433.038 1233.07C448.645 1233.36 449.056 1224.28 464.642 1225.06C480.227 1225.84 479.968 1229.78 495.358 1232.33C511.333 1234.99 513.303 1249.98 529.127 1246.74C548.435 1242.78 536.725 1211.79 556.38 1209.24C573.48 1207.03 572.052 1229.13 588.914 1232.37C604.132 1235.3 603.288 1226.4 618.462 1223.31C635.216 1219.91 634.242 1216.51 651.408 1215.08C667.491 1213.74 667.21 1222.02 682.362 1226.72C698.554 1231.73 696.974 1237.65 714.248 1237.5C731.521 1237.36 728.101 1225.6 745.483 1224.84C762.216 1224.12 759.965 1234.88 776.698 1235.15C793.236 1235.42 790.465 1220.99 806.873 1219.13C822.393 1217.38 823.497 1226.69 839.169 1226.63C854.842 1226.58 853.932 1219.4 869.54 1218.1C885.147 1216.8 888.372 1213.18 903.568 1216.53C921.491 1220.49 910.949 1245.02 928.483 1250.01C943.289 1254.23 952.229 1250.94 966.819 1246.23C985.63 1240.18 976.841 1226.07 996.085 1221.08C1011.28 1217.14 1009.33 1225.01 1024.31 1229.47C1040.89 1234.43 1041.35 1232.33 1058.34 1236.16C1073.43 1239.56 1073.3 1234.64 1088.91 1234.25C1104.51 1233.85 1103.36 1229.18 1118.91 1227.47C1134.45 1225.75 1136.35 1236.18 1152.07 1234.19C1167.78 1232.2 1166.27 1231.7 1181.81 1233.69C1198.54 1235.82 1196.86 1238.39 1213.65 1236.71C1232.23 1234.84 1224.91 1219.47 1242.9 1215.13C1262.06 1210.52 1266.9 1213.6 1280.61 1225.71C1294.31 1237.83 1281.73 1238.5 1279.03 1255.08C1276.84 1268.49 1288.7 1269.07 1287.51 1282.58C1286.32 1296.09 1266.25 1296.18 1268.35 1309.27C1270.45 1322.36 1273.48 1320.12 1271.84 1333.37C1270.11 1347.33 1259.87 1346.71 1259.96 1360.75C1260.04 1374.78 1285.74 1372.97 1284.35 1387C1282.88 1401.95 1280.95 1399.35 1279.22 1414.27C1277.62 1428.15 1266.95 1426.17 1268.03 1440.09C1269.05 1453.54 1269.57 1451.95 1266.73 1465.22C1263.94 1478.28 1274.29 1476.98 1278.05 1489.85C1282.42 1504.86 1280.45 1503.45 1282.62 1518.78C1284.59 1532.74 1287.36 1533.23 1282.64 1546.73C1277.92 1560.24 1272.03 1557.78 1270.91 1571.16C1269.78 1584.54 1254.65 1587.51 1259.44 1600.06C1264.93 1614.5 1293.85 1607.89 1295.5 1622.98C1297.04 1637.05 1265.97 1635.66 1265.84 1649.78C1265.71 1663.9 1291.06 1662.31 1289.44 1676.29C1287.68 1691.35 1268.38 1687.28 1268.29 1702.42C1268.2 1717.55 1285.26 1713.68 1288.46 1728.51C1291.32 1741.69 1297.86 1744.95 1293.66 1757.89C1289.46 1770.84 1285.26 1769.68 1281.97 1783.3C1278.85 1796.21 1265.06 1794.09 1263.51 1807.2C1261.95 1820.31 1268.14 1820.67 1267.9 1833.94C1267.66 1847.22 1259.2 1848.54 1264.48 1861.01C1270.58 1875.46 1273.53 1870.96 1273.18 1886.29C1272.84 1901.62 1274.48 1898.46 1270.04 1913.59C1266.28 1926.5 1271.64 1924.73 1276.9 1937.28C1282.84 1951.46 1281.88 1951.02 1284.81 1965.81C1287.4 1978.92 1288.55 1975.85 1292.69 1988.69C1299.33 2009.34 1305.2 2018.61 1291.58 2030.29V2030.37Z" fill="white"/>
<path d="M531.808 1891.78C540.014 1899.05 540.834 1903 552.623 1898.61C564.438 1894.2 556.169 1878.2 567.634 1873.03C577.846 1868.43 580.642 1882.5 591.561 1883.03C604.052 1883.64 603.14 1888.01 615.778 1887.38C627.249 1886.82 625.745 1873.01 637.129 1870.68C648.145 1868.41 648.162 1877.07 659.228 1876.82C670.15 1876.58 670.587 1874.47 681.524 1872.86C692.713 1871.22 692.312 1867.17 703.402 1867.6C715.008 1868.04 712.767 1869.51 724.501 1868.22C737.662 1866.77 734.567 1866.31 747.603 1866.73C760.323 1867.14 757.596 1867.54 769.323 1870.99C779.525 1874 778.273 1880.8 789.439 1880.08C801.507 1879.3 802.08 1870.44 813.544 1872.67C825.008 1874.9 830.301 1870.37 838.241 1876.91C846.18 1883.45 830.984 1895.77 837.983 1903.27C844.425 1910.17 861.373 1899.07 866.587 1906.76C871.8 1914.45 860.871 1920.04 863.634 1928.83C866.246 1937.16 875.548 1934.14 878.205 1942.46C880.908 1950.91 879.849 1951.9 881.135 1960.72C882.42 1969.54 868.115 1972.64 870.518 1981.31C873.427 1991.84 881.276 1988.66 883.091 1999.46C884.669 2008.85 884.348 2008.23 879.979 2017.48C875.373 2027.23 868.498 2025.81 866.044 2035.95C863.591 2046.09 870.016 2045.11 866.822 2055.14C863.495 2065.57 864.123 2064.41 858.987 2074.43C854.335 2083.5 857.87 2083.62 855.559 2093.15C853.248 2102.68 855.5 2100.82 856.805 2110.19C858.388 2121.51 866.042 2119.26 867.097 2130.67C867.963 2140.13 856.128 2141.62 850.548 2150.39C843.958 2160.76 844.81 2157.61 844.638 2168.92C844.456 2181.16 846.713 2177.07 850.22 2188.59C852.951 2197.56 850.576 2197.77 849.849 2207.33C849.128 2216.78 843.692 2217.42 845.091 2226.62C846.5 2235.82 861.332 2235.33 859.28 2244.74C856.766 2256.29 832.991 2255.36 834.804 2266.6C836.6 2277.74 856.908 2268.98 859.314 2279.97C861.722 2290.98 841.814 2291.93 843.557 2303.09C845.161 2313.39 864.396 2305.31 868.131 2315C871.739 2324.38 860.875 2326.95 862.423 2336.91C863.862 2346.17 855.662 2351.09 861.251 2358.74C867.051 2366.66 882.356 2358.21 885.458 2367.37C888.854 2377.38 866.952 2385.27 872.69 2394.27C878.427 2403.27 903.597 2386.2 910.153 2395.22C916.38 2403.77 900.017 2410.69 903.649 2420.47C906.909 2429.25 913.989 2425.22 919.605 2432.88C925.222 2440.55 920.853 2443.03 927.526 2450.06C934.288 2457.19 928.838 2464.42 938.195 2468.95C948.248 2473.81 960.692 2459.82 967.151 2468.03C974.345 2477.18 968.586 2479.41 973.279 2489.85C977.139 2498.44 975.797 2495.02 985.262 2499.09C996.024 2503.73 992.971 2506.13 1002.83 2511.96C1012 2517.39 1004.91 2522.52 1013.8 2528.27C1022.71 2534.04 1026.99 2527.61 1037.69 2530.79C1047.53 2533.7 1042.01 2539.89 1050.24 2545.15C1058.47 2550.41 1061.33 2547.51 1070.07 2552.74C1075.37 2555.91 1091.5 2552.61 1086.79 2557.25C1081.08 2562.89 1076.86 2556.3 1071.08 2551.76C1061.91 2544.55 1057.95 2548.97 1050.51 2540.36C1044.27 2533.13 1044.6 2536.67 1035.57 2532.08C1026.55 2527.48 1034.37 2516.15 1024.74 2511.8C1014.73 2507.28 1013.77 2512.13 1008.17 2503.67C1001.85 2494.12 1010.52 2492.14 1004.75 2482.3C999.632 2473.57 987.594 2481.99 981.931 2473.55C976.342 2465.22 981.723 2464.31 975.757 2456.2C968.772 2446.71 970.984 2447.79 964.745 2437.89C959.323 2429.29 964.126 2432.31 967.438 2422.19C970.862 2411.72 971.961 2412 973.285 2401.37C974.609 2390.74 969.444 2391.8 967.7 2381.93C965.956 2372.06 958.331 2372.03 962.837 2362.61C967.531 2352.79 979.394 2358.46 986.043 2349.39C992.068 2341.16 981.273 2336.85 985.689 2327.98C990.119 2319.1 1002.82 2323.08 1007.46 2314.25C1012.14 2305.37 999.359 2300.82 1005.2 2292.39C1011.05 2283.95 1008.7 2282.7 1014.9 2274.44C1021.1 2266.17 1028.45 2270.99 1036.41 2263.92C1045.22 2256.09 1046.53 2258.54 1055.86 2251.19C1064.17 2244.64 1054.01 2240.4 1057.83 2231.45C1062.38 2220.82 1059.99 2220.92 1064.57 2210.29C1068.46 2201.22 1073.37 2200.76 1081.65 2193.96C1090.42 2186.76 1096.98 2193.3 1105.48 2185.86C1113.53 2178.79 1109.05 2175.58 1115.29 2167.31C1121.54 2159.05 1123.64 2160.87 1131.56 2153.72C1139.63 2146.44 1137.29 2144.53 1146.47 2138.34C1155.62 2132.18 1154.89 2131.67 1163.4 2124.84C1171.74 2118.13 1166.96 2114.88 1174.49 2107.49C1182.03 2100.1 1189.5 2105.52 1196.59 2097.83C1203.75 2090.07 1205.12 2090.49 1211.02 2082.04C1217.31 2073.03 1207.91 2068.82 1214.21 2059.82C1220.18 2051.27 1222.98 2050.28 1232.9 2045.21C1244.87 2039.08 1250.85 2050.86 1261.25 2042.74C1271.29 2034.88 1267.59 2032.73 1274.43 2022.7C1280.22 2014.21 1275.16 2012.27 1285.16 2007.62C1296.67 2002.26 1299.58 2009.01 1310.8 2003.14C1320.6 1998 1318.65 1994.58 1326.74 1987.46C1334.75 1980.41 1332.41 1978.49 1341.72 1972.83C1351.03 1967.18 1350.91 1966.77 1360.43 1960.83C1369.94 1954.9 1378.66 1960.4 1384.81 1952.1C1391.91 1942.54 1377.02 1935.55 1385.05 1926.52C1392.14 1918.54 1392.29 1917.49 1401.27 1911.09C1410.04 1904.84 1419.75 1912.81 1425.9 1904.59C1432.32 1896 1417.27 1887.34 1425 1879.54C1433 1871.48 1444.85 1882.56 1454.72 1876.3C1464.63 1870.03 1468.23 1869.97 1474.65 1860.95C1481.07 1851.93 1480.7 1849.39 1482.13 1839.42C1483.56 1829.44 1471.77 1829.07 1473.52 1818.92C1475.15 1809.46 1482.92 1812.13 1489.29 1803.9C1497.09 1793.83 1489 1791.25 1496.05 1780.81C1502.03 1771.96 1515.84 1774.17 1516.8 1764.33C1517.76 1754.5 1506.18 1754.86 1505.7 1745.14C1505.23 1735.41 1508.77 1735 1508.36 1725.24C1507.96 1715.8 1503.05 1716.09 1506.61 1706.79C1510.88 1695.65 1523.55 1697.15 1522.93 1685.85C1522.29 1674.2 1511.28 1678.24 1505.81 1668.01C1501.38 1659.75 1500.88 1659.95 1501.61 1650.43C1502.4 1640.15 1503.93 1640.34 1505.49 1630.05C1507.06 1619.75 1500.68 1622.8 1497.52 1613.67C1494.36 1604.54 1492.87 1606.04 1488.21 1597.02C1483.87 1588.62 1485.05 1586.65 1483.44 1577.34C1481.69 1567.18 1498.35 1559.3 1487.29 1556.09C1476.23 1552.88 1480.32 1565.94 1469.33 1571.32C1459.4 1576.19 1458.43 1571.65 1447.57 1571.56C1434.32 1571.46 1435.28 1576.93 1421.94 1578.06C1410.94 1578.99 1412.66 1574.75 1403.87 1581.26C1393.49 1588.96 1392.71 1587.13 1381.97 1594.44C1372.97 1600.57 1374.66 1602.2 1363.76 1603.34C1351.31 1604.64 1351.01 1592.02 1338.63 1594.27C1327.52 1596.29 1329.04 1606.51 1319.18 1611.91C1309.32 1617.32 1309.28 1617.07 1299.19 1622.12C1289.27 1627.07 1292.2 1633.67 1281.79 1637.62C1271.37 1641.57 1269.74 1638.86 1258.94 1638.64C1245 1638.36 1247.2 1633.59 1233.14 1635C1221.8 1636.14 1224.24 1639.16 1213.42 1643.08C1202.59 1647.01 1201.1 1639.4 1190.26 1642.61C1179.55 1645.78 1183.34 1658.05 1172.61 1661.13C1161.89 1664.21 1157.72 1652.32 1148.25 1658.32C1136.19 1665.97 1149.11 1681.22 1135.93 1687.12C1124.25 1692.37 1121.4 1670.92 1108.76 1671.59C1097.87 1672.17 1097.26 1678.99 1087 1683.08C1076.54 1687.26 1077.01 1688.06 1066.65 1692.47C1056.51 1696.8 1058.22 1701.73 1047.7 1705.11C1037.18 1708.49 1030.99 1695.91 1021.27 1701.03C1010.72 1706.59 1016.76 1714.12 1005.38 1717.93C993.998 1721.75 994.124 1729.5 982.433 1729.58C970.742 1729.66 971.125 1717.61 960.291 1722.11C948.683 1726.93 954.04 1733.45 941.962 1736.99C929.491 1740.63 931.362 1735.58 918.778 1738.76C907.009 1741.75 911.537 1746.74 900.302 1751.33C889.669 1755.66 887.354 1746.14 876.276 1749.21C865.468 1752.2 869.005 1761.38 858.555 1765.43C848.243 1769.43 846.906 1764.38 837.471 1769.95C826.599 1776.37 831.934 1784.56 820.164 1789.43C809.204 1793.96 806.548 1783.4 795.075 1786.42C784.06 1789.31 787.657 1799.01 776.681 1802.05C765.367 1805.2 763.404 1793.64 752.049 1796.61C741.12 1799.46 739.949 1796.21 729.446 1800.37C718.942 1804.53 722.124 1812.48 711.419 1815.27C700.704 1818.07 697.572 1809.1 687.283 1813.2C676.76 1817.39 680.874 1830.68 669.712 1832.02C656.403 1833.61 658.133 1816.67 644.82 1817.38C633.92 1817.96 634.665 1826.75 626.167 1833.42C615.253 1841.99 619.868 1845.39 608.053 1852.97C598.715 1858.96 596.656 1849.27 585.576 1850.05C573.797 1850.88 572.575 1849.53 561.322 1853.58C549.77 1857.74 556.699 1868.02 546.261 1874.24C539.813 1878.08 538.187 1874.15 532.001 1878.32C523.24 1884.22 523.528 1884.47 531.788 1891.78L531.808 1891.78Z" fill="white"/>
<path d="M1478.54 875.037C1463.51 887.271 1448.14 865.559 1426.59 865.79C1408.96 865.983 1411.88 861.128 1394.69 858.026C1375.09 854.481 1377.98 851.668 1358.65 847.295C1341.77 843.481 1339.29 856.254 1321.8 857.39C1304.32 858.527 1304 861.995 1286.17 861.706C1268.35 861.417 1268.52 847.758 1250.79 850.012C1231.14 852.497 1238.19 869.431 1219.34 874.478C1202.56 878.987 1198.45 867.62 1180.8 868.872C1163.14 870.124 1163.65 872.244 1146.31 870.047C1127.93 867.736 1130.92 855.618 1112.51 853.402C1095.15 851.302 1092.37 854.192 1074.89 855.425C1057.4 856.658 1058.01 863.324 1040.4 864.75C1022.8 866.175 1020.24 881.607 1003.02 878.698C983.788 875.442 991.23 855.194 972.626 850.146C955.772 845.581 951.273 839.358 933.69 841.593C914.357 844.059 919.585 860.608 901.054 865.636C884.152 870.221 883.082 868.795 865.256 869.354C847.624 869.893 848.184 871.839 830.552 872.513C812.921 873.188 813.042 871.531 795.241 873.168C777.804 874.787 777.293 875.461 760.707 870.914C740.328 865.328 748.621 848.586 727.803 844.155C710.61 840.475 704.846 843.808 687.287 846.236C669.753 848.663 672.842 851.803 655.04 851.457C637.238 851.11 637.652 857.332 619.68 857.891C601.392 858.45 602.34 871.589 584.052 870.741C565.083 869.874 568.707 844.521 549.713 844.116C530.72 843.712 533.249 869.681 514.596 870.144C496.284 870.587 497.67 855.04 479.528 853.094C461.386 851.148 461.507 853.364 444.362 856.273C425.88 859.413 425.539 856.119 407.056 859.259C389.887 862.168 393.584 861.224 376.414 858.353C357.591 855.213 357.713 859.991 338.525 858.797C319.337 857.602 319.288 852.805 301.584 856.504C283.879 860.203 287.333 870.895 269.628 873.515C251.924 876.135 251.316 868.082 233.611 868.121C215.907 868.159 212.235 881.183 195.527 876.559C176.534 871.3 178.625 868.66 159.486 863.728C142.73 859.413 146.038 856.138 128.43 856.35C110.823 856.562 110.848 853.422 93.435 855.753C76.0224 858.084 76.0467 865.212 58.0748 865C40.1029 864.788 41.1486 863.285 23.055 863.285C4.96151 863.285 6.32338 868.699 -11.7702 869.123C-25.7051 869.45 -28.9882 863.382 -40.3696 857.005C-54.5478 849.068 -49.4407 847.873 -49.0516 834.118C-48.5652 817.434 -39.7373 822.501 -37.9134 805.875C-36.211 790.424 -49.1732 793.68 -47.9573 778.21C-46.6683 761.912 -38.4241 766.015 -37.354 749.717C-36.3326 734.112 -51.0458 737.657 -53.3561 722.129C-55.4962 707.757 -36.1138 709.279 -33.0738 695.004C-30.0339 680.728 -26.386 677.723 -31.0797 664.179C-36.6001 648.228 -52.8211 654.2 -53.4534 637.67C-54.0857 621.141 -58.0497 623.78 -54.4991 607.925C-51.3376 593.823 -37.6945 594.439 -42.1449 580.549C-46.5954 566.659 -45.428 566.851 -48.395 552.46C-51.3619 538.069 -46.7899 540.381 -45.8658 526.394C-44.9417 512.408 -52.6266 512.138 -51.216 498.036C-49.8055 483.934 -52.6022 483.953 -51.216 469.986C-49.8298 456.018 -62.5975 453.379 -57.3445 439.874C-51.5565 425.04 -31.104 429.606 -28.4775 414.213C-26.0456 400.034 -34.1439 399.34 -41.0992 386.124C-49.1246 370.866 -69.8203 376.877 -75.9244 361.079C-81.0801 347.69 -66.0994 343.606 -65.3699 329.6C-64.6403 315.594 -60.0683 315.864 -56.8824 302.051C-53.575 287.679 -61.5031 286.388 -57.4661 272.132C-53.5507 258.319 -30.7635 260.997 -28.8666 246.914C-26.9697 232.966 -51.897 231.617 -51.7024 217.592C-51.5079 203.567 -44.7957 203.567 -42.5584 189.657C-40.2237 175.151 -39.2509 177.578 -42.68 163.206C-46.6197 146.6 -57.1743 150.761 -59.8251 134C-62.2083 118.896 -27.5777 121.555 -26.2888 106.374C-25.0728 91.8093 -63.1811 92.5606 -63.8864 77.9768C-64.5916 63.3931 -45.0146 63.9518 -41.7558 49.8304C-39.2023 38.8492 -52.0186 33.7439 -42.8016 25.3057C-33.5846 16.8675 -26.1429 11.0302 -11.7458 11.4155C6.56657 11.8971 4.66966 29.9101 22.9334 28.9854C41.1972 28.0606 38.7896 16.3667 57.8316 15.1722C76.8736 13.9778 75.4631 13.7658 93.6296 14.3053C111.48 14.8447 110.24 15.7502 128.09 15.4227C145.819 15.1144 146.305 33.9365 164.01 33.1274C182.127 32.2797 179.793 7.90922 197.911 7.29273C216.029 6.67624 217.998 12.6677 235.095 16.6556C253.286 20.9132 250.975 23.3599 269.75 25.402C287.284 27.3093 283.563 25.98 300.222 21.2215C319.337 15.7694 319.434 18.3124 339.376 15.23C356.91 12.5136 355.743 5.90563 373.617 5.75151C391.492 5.59739 390.495 2.3801 408.443 1.89847C426.39 1.41684 427.266 9.00734 444.849 10.9724C462.431 12.9374 462.164 10.9531 479.795 12.032C497.427 13.1108 496.454 25.2479 513.988 25.5562C531.522 25.8644 531.985 16.1933 549.494 17.0217C567.004 17.8501 566.712 22.0499 584.003 24.7663C601.951 27.5983 604.164 43.5692 621.942 40.1207C643.634 35.9016 630.478 2.88099 652.56 0.164596C671.772 -2.18576 670.167 21.3563 689.111 24.8048C706.208 27.9258 705.259 18.4473 722.307 15.1529C741.13 11.5311 740.036 7.90922 759.321 6.38726C777.39 4.96164 777.074 13.7851 794.098 18.7941C812.289 24.1305 810.513 30.4303 829.92 30.2761C849.327 30.122 845.484 17.5996 865.013 16.7905C883.812 16.0199 881.282 27.4827 900.081 27.7717C918.661 28.0606 915.548 12.687 933.982 10.7027C951.419 8.83395 952.659 18.7555 970.267 18.6977C987.874 18.6399 986.852 10.9917 1004.39 9.60456C1021.92 8.21746 1025.54 4.36442 1042.62 7.92848C1062.75 12.1476 1050.91 38.2905 1070.61 43.6077C1087.24 48.0965 1097.29 44.5902 1113.68 39.5813C1134.81 33.1274 1124.94 18.1005 1146.56 12.7833C1163.63 8.5835 1161.44 16.9639 1178.27 21.7224C1196.9 27.0011 1197.41 24.7663 1216.5 28.8505C1233.45 32.4724 1233.3 27.2322 1250.84 26.8084C1268.37 26.3846 1267.08 21.4141 1284.54 19.5839C1302.01 17.7537 1304.15 28.8698 1321.8 26.7506C1339.46 24.6314 1337.76 24.092 1355.22 26.2112C1374.02 28.4845 1372.12 31.2201 1390.99 29.4285C1411.86 27.4442 1403.64 11.0687 1423.85 6.44506C1445.37 1.53243 1450.82 4.80752 1466.21 17.7152C1481.6 30.6229 1467.47 31.3357 1464.43 49.002C1461.98 63.2968 1475.31 63.9132 1473.97 78.3044C1472.63 92.6955 1450.09 92.7918 1452.44 106.74C1454.8 120.688 1458.21 118.299 1456.36 132.42C1454.41 147.293 1442.91 146.638 1443.01 161.588C1443.11 176.538 1471.97 174.611 1470.42 189.561C1468.76 205.493 1466.6 202.719 1464.65 218.613C1462.85 233.409 1450.86 231.29 1452.08 246.124C1453.22 260.457 1453.81 258.762 1450.62 272.902C1447.48 286.812 1459.11 285.425 1463.34 299.142C1468.25 315.132 1466.04 313.629 1468.47 329.966C1470.68 344.839 1473.8 345.359 1468.5 359.75C1463.19 374.141 1456.58 371.521 1455.31 385.777C1454.05 400.034 1437.05 403.193 1442.43 416.563C1448.6 431.956 1481.09 424.905 1482.94 440.992C1484.67 455.98 1449.77 454.496 1449.62 469.543C1449.48 484.589 1477.96 482.893 1476.13 497.785C1474.16 513.833 1452.47 509.499 1452.37 525.624C1452.27 541.749 1471.44 537.626 1475.04 553.423C1478.25 567.468 1485.59 570.936 1480.87 584.729C1476.16 598.523 1471.44 597.29 1467.74 611.797C1464.24 625.552 1448.75 623.298 1447 637.266C1445.25 651.233 1452.2 651.618 1451.93 665.759C1451.67 679.9 1442.16 681.306 1448.09 694.599C1454.95 709.992 1458.26 705.195 1457.87 721.532C1457.48 737.869 1459.33 734.497 1454.34 750.622C1450.11 764.378 1456.14 762.49 1462.05 775.86C1468.71 790.964 1467.64 790.501 1470.93 806.26C1473.85 820.228 1475.13 816.953 1479.78 830.631C1487.25 852.632 1493.84 862.515 1478.54 874.96V875.037Z" fill="white"/>
</svg>
