<svg width="258" height="258" viewBox="0 0 258 258" fill="none" xmlns="http://www.w3.org/2000/svg">
<path d="M155.722 87.0327L120.977 82.4334C109.295 80.887 104.569 86.6617 101.102 94.4317L92.7154 93.3215L100.812 62.0871L183.182 72.9907L182.191 80.4789C135.922 114.584 130.904 150.188 125.551 190.625L101.889 187.492C108.352 138.669 131.922 107.96 155.722 87.0327ZM144.214 15.1062C206.815 23.393 250.734 80.7137 242.447 143.315C234.081 206.515 176.721 250.734 114.12 242.447C50.9197 234.081 6.74053 176.421 15.1066 113.221C23.3933 50.6198 81.0136 6.7402 144.214 15.1062ZM115.745 230.166C171.158 237.502 222.673 198.3 230.167 141.689C237.502 86.2768 198.001 34.722 142.588 27.3868C85.9775 19.8931 34.7223 59.4341 27.3872 114.847C19.8934 171.457 59.1349 222.673 115.745 230.166Z" fill="#111111"/>
</svg>
