<svg width="310" height="104" viewBox="0 0 310 104" fill="none" xmlns="http://www.w3.org/2000/svg">
<mask id="path-1-outside-1_1902_2" maskUnits="userSpaceOnUse" x="-0.999023" y="0" width="311" height="104" fill="black">
<rect fill="white" x="-0.999023" width="311" height="104"/>
<path d="M296.61 101C296.588 101 296.565 100.999 296.544 100.997C296.336 100.98 296.148 100.877 296.032 100.719L291.82 95.0055L284.862 94.2655C284.851 94.2646 284.84 94.2629 284.828 94.2612L277.928 93.2146L270.848 95.2312C270.781 95.2508 270.71 95.2601 270.64 95.2601C270.583 95.2601 270.524 95.2533 270.467 95.2406L263.547 93.6233L256.574 94.0296L250.01 94.4818C249.992 94.4826 249.974 94.4835 249.957 94.4835C249.907 94.4835 249.858 94.4784 249.811 94.469L243.375 93.2044L237.293 96.7769C237.18 96.8441 237.048 96.8782 236.916 96.8782C236.842 96.8782 236.768 96.8671 236.696 96.8458L230.186 94.8693L223.172 97.2018C223.095 97.2274 223.014 97.2401 222.934 97.2401C222.815 97.2401 222.696 97.212 222.589 97.1567L215.705 93.5816C215.59 93.522 215.496 93.4326 215.434 93.3261L211.931 87.2908C211.902 87.2414 211.88 87.1894 211.867 87.1349L210.269 80.8151C210.255 80.7606 210.25 80.7053 210.252 80.649L210.485 74.4612L208.169 69.4453L201.19 71.4261C201.123 71.4448 201.053 71.4551 200.983 71.4551C200.927 71.4551 200.87 71.4491 200.815 71.4363L193.862 69.8668L187.486 71.157C187.47 71.1604 187.455 71.163 187.439 71.1647L180.835 72.0759C180.8 72.081 180.765 72.0827 180.731 72.0827C180.714 72.0827 180.696 72.0827 180.679 72.081L174.158 71.6441L168.2 75.9107C168.076 75.9993 167.924 76.0461 167.77 76.0461C167.725 76.0461 167.68 76.0418 167.635 76.0342L160.981 74.8325L154.596 76.7052C154.467 76.8228 154.291 76.8934 154.102 76.8934C154.081 76.8934 154.061 76.8934 154.04 76.8909C153.796 76.8713 153.588 76.7376 153.48 76.5477L147.286 77.717C147.24 77.7255 147.192 77.7306 147.145 77.7306C146.974 77.7306 146.807 77.6727 146.677 77.5662L140.629 72.5732L134.056 74.4859C133.997 74.503 133.937 74.5132 133.875 74.5149L127.035 74.7934C127.025 74.7934 127.014 74.7934 127.004 74.7934C126.888 74.7934 126.773 74.767 126.671 74.7159L120.642 71.7182L113.873 72.6822C113.838 72.6873 113.801 72.6899 113.766 72.6899C113.689 72.6899 113.612 72.678 113.539 72.655L107.189 70.6588L99.3201 69.3294L98.6665 74.4885L100.855 81.5799C100.905 81.7425 100.883 81.9171 100.792 82.0644L97.239 87.892C97.1654 88.0129 97.05 88.1092 96.9112 88.1654L90.0412 90.9433L85.7589 96.6994C85.6238 96.8808 85.405 96.9787 85.1806 96.9787C85.0549 96.9787 84.9283 96.948 84.8137 96.8833L77.8767 92.9548L71.7683 92.1773L65.092 95.8622C64.9821 95.9227 64.8574 95.9542 64.7307 95.9542C64.6776 95.9542 64.6236 95.9482 64.5715 95.9372L58.0758 94.5422L51.6266 93.1958L44.6207 92.4004L37.5486 93.0783C37.5244 93.0809 37.5002 93.0817 37.476 93.0817C37.4285 93.0817 37.3801 93.0775 37.3335 93.0681L30.3434 91.7362L24.3505 96.7701C24.2369 96.8654 24.0916 96.9242 23.9371 96.9361L16.9749 97.4794L9.36271 98.1173C9.34129 98.119 9.31988 98.1199 9.29846 98.1199C8.96231 98.1199 8.669 97.8984 8.61127 97.5902C8.54888 97.2623 8.77329 96.9455 9.1262 96.8629L9.20814 96.8433L9.45955 91.4705C9.46327 91.3921 9.48283 91.3155 9.51635 91.244L12.0696 85.8584C12.0742 85.849 12.0789 85.8405 12.0835 85.8311L14.8155 80.7325L16.7085 75.1732C16.7281 75.1153 16.757 75.0599 16.7942 75.0088L20.2972 70.1947L23.0972 65.068L22.3783 60.7546L21.5803 57.9144L16.7039 52.7009L10.2836 48.5586C10.2454 48.5339 10.2101 48.5058 10.1784 48.4752L4.43879 42.9201C4.34009 42.8247 4.27677 42.7047 4.25535 42.5744L3.00854 34.8426C2.96478 34.5726 3.11376 34.3069 3.37914 34.1817C3.48064 34.1341 3.59051 34.1111 3.69946 34.1111C3.87544 34.1111 4.0505 34.1724 4.18366 34.289L5.41463 35.3697L8.89155 31.9999C8.95673 31.9369 9.03587 31.8858 9.1234 31.8517L15.1843 29.4638C15.2718 29.4298 15.3658 29.4119 15.4608 29.4119C15.4738 29.4119 15.4859 29.4119 15.499 29.4127L21.8485 29.7295L28.131 28.8123C28.1645 28.8072 28.1989 28.8047 28.2334 28.8047L34.5941 28.7391L40.8598 28.5398L46.5109 27.7086L46.1766 21.7797C46.1701 21.6699 46.1953 21.5592 46.2493 21.4604L49.093 16.2672C49.1489 16.1659 49.2327 16.0799 49.336 16.0177L54.0476 13.2108C54.1361 13.158 54.2357 13.1248 54.34 13.112L60.7407 12.3643L66.201 8.45287C66.2299 8.43243 66.2597 8.41369 66.2913 8.39751L72.449 5.25847C72.5533 5.20567 72.6706 5.17757 72.7889 5.17757C72.8299 5.17757 72.8708 5.18098 72.9118 5.18779L79.7371 6.3051L86.1248 4.49202C86.1416 4.48776 86.1583 4.48351 86.1751 4.47925L93.1056 3.01618C93.1568 3.00511 93.2099 3 93.263 3C93.3086 3 93.3552 3.00426 93.3999 3.01277L100.253 4.2672L106.992 5.29083L113.792 5.55483C113.832 5.55654 113.871 5.56079 113.909 5.56846L120.588 6.88675L127.337 7.56378C127.409 7.57145 127.481 7.58848 127.547 7.61658L133.775 10.1842L140.766 8.06623C140.837 8.04494 140.912 8.03387 140.985 8.03387C141.119 8.03387 141.253 8.06964 141.367 8.13777L147.37 11.7248L153.93 10.191C153.987 10.1774 154.046 10.1714 154.103 10.1714C154.204 10.1714 154.305 10.191 154.397 10.231L161.096 13.0703L166.828 8.56443C166.923 8.49034 167.037 8.44009 167.16 8.41965L173.891 7.31682C173.932 7.31 173.973 7.3066 174.014 7.3066C174.023 7.3066 174.031 7.3066 174.039 7.3066L180.963 7.53568L187.801 7.66087L194.485 6.97617L201.154 5.56931C201.206 5.55824 201.259 5.55313 201.312 5.55313C201.353 5.55313 201.393 5.55654 201.433 5.5625L208.32 6.6747L215.082 7.34066L221.727 8.04154L228.074 8.67854L234.829 7.50502C234.872 7.49736 234.916 7.49395 234.96 7.49395C235.063 7.49395 235.166 7.51524 235.261 7.55612L241.162 10.1365L248.352 8.45712C248.408 8.4435 248.466 8.43754 248.525 8.43754C248.588 8.43754 248.651 8.4452 248.714 8.46138L255.357 10.1655C255.503 10.2029 255.63 10.2821 255.723 10.3911L260.084 15.5809C260.128 15.6328 260.163 15.6916 260.187 15.7537L262.433 21.4553C262.465 21.5353 262.479 21.6205 262.473 21.7056L262.128 27.609L267.382 28.4666L273.705 29.2066C273.732 29.21 273.759 29.2143 273.786 29.2203L279.985 30.6373L286.168 29.1819C286.225 29.1683 286.284 29.1615 286.342 29.1615C286.353 29.1615 286.363 29.1615 286.373 29.1615L292.778 29.417C292.819 29.4187 292.86 29.4238 292.901 29.4323C292.901 29.4323 299.242 30.7438 299.244 30.7446L306.467 32.3457C306.776 32.4146 306.996 32.665 307.001 32.9563C307.006 33.2475 306.795 33.5047 306.489 33.5822L302.946 34.4755L303.435 42.1494C303.449 42.3828 303.324 42.6042 303.108 42.7277L295.962 46.8179L291.515 52.4684L287.774 58.8717C287.753 58.9066 287.729 58.9398 287.702 58.9713L285.946 60.9675L285.751 64.5485L288.383 69.9298L291.399 75.0838C291.43 75.1366 291.453 75.1928 291.467 75.2507L292.804 80.9412L296.704 85.5169C296.776 85.6012 296.823 85.7008 296.843 85.8056L297.859 91.4458L300.537 97.0962C300.65 97.3364 300.593 97.6157 300.391 97.8014L297.112 100.808C296.981 100.928 296.802 100.995 296.618 100.995L296.61 101Z"/>
</mask>
<path d="M296.61 101C296.588 101 296.565 100.999 296.544 100.997C296.336 100.98 296.148 100.877 296.032 100.719L291.82 95.0055L284.862 94.2655C284.851 94.2646 284.84 94.2629 284.828 94.2612L277.928 93.2146L270.848 95.2312C270.781 95.2508 270.71 95.2601 270.64 95.2601C270.583 95.2601 270.524 95.2533 270.467 95.2406L263.547 93.6233L256.574 94.0296L250.01 94.4818C249.992 94.4826 249.974 94.4835 249.957 94.4835C249.907 94.4835 249.858 94.4784 249.811 94.469L243.375 93.2044L237.293 96.7769C237.18 96.8441 237.048 96.8782 236.916 96.8782C236.842 96.8782 236.768 96.8671 236.696 96.8458L230.186 94.8693L223.172 97.2018C223.095 97.2274 223.014 97.2401 222.934 97.2401C222.815 97.2401 222.696 97.212 222.589 97.1567L215.705 93.5816C215.59 93.522 215.496 93.4326 215.434 93.3261L211.931 87.2908C211.902 87.2414 211.88 87.1894 211.867 87.1349L210.269 80.8151C210.255 80.7606 210.25 80.7053 210.252 80.649L210.485 74.4612L208.169 69.4453L201.19 71.4261C201.123 71.4448 201.053 71.4551 200.983 71.4551C200.927 71.4551 200.87 71.4491 200.815 71.4363L193.862 69.8668L187.486 71.157C187.47 71.1604 187.455 71.163 187.439 71.1647L180.835 72.0759C180.8 72.081 180.765 72.0827 180.731 72.0827C180.714 72.0827 180.696 72.0827 180.679 72.081L174.158 71.6441L168.2 75.9107C168.076 75.9993 167.924 76.0461 167.77 76.0461C167.725 76.0461 167.68 76.0418 167.635 76.0342L160.981 74.8325L154.596 76.7052C154.467 76.8228 154.291 76.8934 154.102 76.8934C154.081 76.8934 154.061 76.8934 154.04 76.8909C153.796 76.8713 153.588 76.7376 153.48 76.5477L147.286 77.717C147.24 77.7255 147.192 77.7306 147.145 77.7306C146.974 77.7306 146.807 77.6727 146.677 77.5662L140.629 72.5732L134.056 74.4859C133.997 74.503 133.937 74.5132 133.875 74.5149L127.035 74.7934C127.025 74.7934 127.014 74.7934 127.004 74.7934C126.888 74.7934 126.773 74.767 126.671 74.7159L120.642 71.7182L113.873 72.6822C113.838 72.6873 113.801 72.6899 113.766 72.6899C113.689 72.6899 113.612 72.678 113.539 72.655L107.189 70.6588L99.3201 69.3294L98.6665 74.4885L100.855 81.5799C100.905 81.7425 100.883 81.9171 100.792 82.0644L97.239 87.892C97.1654 88.0129 97.05 88.1092 96.9112 88.1654L90.0412 90.9433L85.7589 96.6994C85.6238 96.8808 85.405 96.9787 85.1806 96.9787C85.0549 96.9787 84.9283 96.948 84.8137 96.8833L77.8767 92.9548L71.7683 92.1773L65.092 95.8622C64.9821 95.9227 64.8574 95.9542 64.7307 95.9542C64.6776 95.9542 64.6236 95.9482 64.5715 95.9372L58.0758 94.5422L51.6266 93.1958L44.6207 92.4004L37.5486 93.0783C37.5244 93.0809 37.5002 93.0817 37.476 93.0817C37.4285 93.0817 37.3801 93.0775 37.3335 93.0681L30.3434 91.7362L24.3505 96.7701C24.2369 96.8654 24.0916 96.9242 23.9371 96.9361L16.9749 97.4794L9.36271 98.1173C9.34129 98.119 9.31988 98.1199 9.29846 98.1199C8.96231 98.1199 8.669 97.8984 8.61127 97.5902C8.54888 97.2623 8.77329 96.9455 9.1262 96.8629L9.20814 96.8433L9.45955 91.4705C9.46327 91.3921 9.48283 91.3155 9.51635 91.244L12.0696 85.8584C12.0742 85.849 12.0789 85.8405 12.0835 85.8311L14.8155 80.7325L16.7085 75.1732C16.7281 75.1153 16.757 75.0599 16.7942 75.0088L20.2972 70.1947L23.0972 65.068L22.3783 60.7546L21.5803 57.9144L16.7039 52.7009L10.2836 48.5586C10.2454 48.5339 10.2101 48.5058 10.1784 48.4752L4.43879 42.9201C4.34009 42.8247 4.27677 42.7047 4.25535 42.5744L3.00854 34.8426C2.96478 34.5726 3.11376 34.3069 3.37914 34.1817C3.48064 34.1341 3.59051 34.1111 3.69946 34.1111C3.87544 34.1111 4.0505 34.1724 4.18366 34.289L5.41463 35.3697L8.89155 31.9999C8.95673 31.9369 9.03587 31.8858 9.1234 31.8517L15.1843 29.4638C15.2718 29.4298 15.3658 29.4119 15.4608 29.4119C15.4738 29.4119 15.4859 29.4119 15.499 29.4127L21.8485 29.7295L28.131 28.8123C28.1645 28.8072 28.1989 28.8047 28.2334 28.8047L34.5941 28.7391L40.8598 28.5398L46.5109 27.7086L46.1766 21.7797C46.1701 21.6699 46.1953 21.5592 46.2493 21.4604L49.093 16.2672C49.1489 16.1659 49.2327 16.0799 49.336 16.0177L54.0476 13.2108C54.1361 13.158 54.2357 13.1248 54.34 13.112L60.7407 12.3643L66.201 8.45287C66.2299 8.43243 66.2597 8.41369 66.2913 8.39751L72.449 5.25847C72.5533 5.20567 72.6706 5.17757 72.7889 5.17757C72.8299 5.17757 72.8708 5.18098 72.9118 5.18779L79.7371 6.3051L86.1248 4.49202C86.1416 4.48776 86.1583 4.48351 86.1751 4.47925L93.1056 3.01618C93.1568 3.00511 93.2099 3 93.263 3C93.3086 3 93.3552 3.00426 93.3999 3.01277L100.253 4.2672L106.992 5.29083L113.792 5.55483C113.832 5.55654 113.871 5.56079 113.909 5.56846L120.588 6.88675L127.337 7.56378C127.409 7.57145 127.481 7.58848 127.547 7.61658L133.775 10.1842L140.766 8.06623C140.837 8.04494 140.912 8.03387 140.985 8.03387C141.119 8.03387 141.253 8.06964 141.367 8.13777L147.37 11.7248L153.93 10.191C153.987 10.1774 154.046 10.1714 154.103 10.1714C154.204 10.1714 154.305 10.191 154.397 10.231L161.096 13.0703L166.828 8.56443C166.923 8.49034 167.037 8.44009 167.16 8.41965L173.891 7.31682C173.932 7.31 173.973 7.3066 174.014 7.3066C174.023 7.3066 174.031 7.3066 174.039 7.3066L180.963 7.53568L187.801 7.66087L194.485 6.97617L201.154 5.56931C201.206 5.55824 201.259 5.55313 201.312 5.55313C201.353 5.55313 201.393 5.55654 201.433 5.5625L208.32 6.6747L215.082 7.34066L221.727 8.04154L228.074 8.67854L234.829 7.50502C234.872 7.49736 234.916 7.49395 234.96 7.49395C235.063 7.49395 235.166 7.51524 235.261 7.55612L241.162 10.1365L248.352 8.45712C248.408 8.4435 248.466 8.43754 248.525 8.43754C248.588 8.43754 248.651 8.4452 248.714 8.46138L255.357 10.1655C255.503 10.2029 255.63 10.2821 255.723 10.3911L260.084 15.5809C260.128 15.6328 260.163 15.6916 260.187 15.7537L262.433 21.4553C262.465 21.5353 262.479 21.6205 262.473 21.7056L262.128 27.609L267.382 28.4666L273.705 29.2066C273.732 29.21 273.759 29.2143 273.786 29.2203L279.985 30.6373L286.168 29.1819C286.225 29.1683 286.284 29.1615 286.342 29.1615C286.353 29.1615 286.363 29.1615 286.373 29.1615L292.778 29.417C292.819 29.4187 292.86 29.4238 292.901 29.4323C292.901 29.4323 299.242 30.7438 299.244 30.7446L306.467 32.3457C306.776 32.4146 306.996 32.665 307.001 32.9563C307.006 33.2475 306.795 33.5047 306.489 33.5822L302.946 34.4755L303.435 42.1494C303.449 42.3828 303.324 42.6042 303.108 42.7277L295.962 46.8179L291.515 52.4684L287.774 58.8717C287.753 58.9066 287.729 58.9398 287.702 58.9713L285.946 60.9675L285.751 64.5485L288.383 69.9298L291.399 75.0838C291.43 75.1366 291.453 75.1928 291.467 75.2507L292.804 80.9412L296.704 85.5169C296.776 85.6012 296.823 85.7008 296.843 85.8056L297.859 91.4458L300.537 97.0962C300.65 97.3364 300.593 97.6157 300.391 97.8014L297.112 100.808C296.981 100.928 296.802 100.995 296.618 100.995L296.61 101Z" fill="#7A7A7A"/>
<path d="M296.61 101C296.588 101 296.565 100.999 296.544 100.997C296.336 100.98 296.148 100.877 296.032 100.719L291.82 95.0055L284.862 94.2655C284.851 94.2646 284.84 94.2629 284.828 94.2612L277.928 93.2146L270.848 95.2312C270.781 95.2508 270.71 95.2601 270.64 95.2601C270.583 95.2601 270.524 95.2533 270.467 95.2406L263.547 93.6233L256.574 94.0296L250.01 94.4818C249.992 94.4826 249.974 94.4835 249.957 94.4835C249.907 94.4835 249.858 94.4784 249.811 94.469L243.375 93.2044L237.293 96.7769C237.18 96.8441 237.048 96.8782 236.916 96.8782C236.842 96.8782 236.768 96.8671 236.696 96.8458L230.186 94.8693L223.172 97.2018C223.095 97.2274 223.014 97.2401 222.934 97.2401C222.815 97.2401 222.696 97.212 222.589 97.1567L215.705 93.5816C215.59 93.522 215.496 93.4326 215.434 93.3261L211.931 87.2908C211.902 87.2414 211.88 87.1894 211.867 87.1349L210.269 80.8151C210.255 80.7606 210.25 80.7053 210.252 80.649L210.485 74.4612L208.169 69.4453L201.19 71.4261C201.123 71.4448 201.053 71.4551 200.983 71.4551C200.927 71.4551 200.87 71.4491 200.815 71.4363L193.862 69.8668L187.486 71.157C187.47 71.1604 187.455 71.163 187.439 71.1647L180.835 72.0759C180.8 72.081 180.765 72.0827 180.731 72.0827C180.714 72.0827 180.696 72.0827 180.679 72.081L174.158 71.6441L168.2 75.9107C168.076 75.9993 167.924 76.0461 167.77 76.0461C167.725 76.0461 167.68 76.0418 167.635 76.0342L160.981 74.8325L154.596 76.7052C154.467 76.8228 154.291 76.8934 154.102 76.8934C154.081 76.8934 154.061 76.8934 154.04 76.8909C153.796 76.8713 153.588 76.7376 153.48 76.5477L147.286 77.717C147.24 77.7255 147.192 77.7306 147.145 77.7306C146.974 77.7306 146.807 77.6727 146.677 77.5662L140.629 72.5732L134.056 74.4859C133.997 74.503 133.937 74.5132 133.875 74.5149L127.035 74.7934C127.025 74.7934 127.014 74.7934 127.004 74.7934C126.888 74.7934 126.773 74.767 126.671 74.7159L120.642 71.7182L113.873 72.6822C113.838 72.6873 113.801 72.6899 113.766 72.6899C113.689 72.6899 113.612 72.678 113.539 72.655L107.189 70.6588L99.3201 69.3294L98.6665 74.4885L100.855 81.5799C100.905 81.7425 100.883 81.9171 100.792 82.0644L97.239 87.892C97.1654 88.0129 97.05 88.1092 96.9112 88.1654L90.0412 90.9433L85.7589 96.6994C85.6238 96.8808 85.405 96.9787 85.1806 96.9787C85.0549 96.9787 84.9283 96.948 84.8137 96.8833L77.8767 92.9548L71.7683 92.1773L65.092 95.8622C64.9821 95.9227 64.8574 95.9542 64.7307 95.9542C64.6776 95.9542 64.6236 95.9482 64.5715 95.9372L58.0758 94.5422L51.6266 93.1958L44.6207 92.4004L37.5486 93.0783C37.5244 93.0809 37.5002 93.0817 37.476 93.0817C37.4285 93.0817 37.3801 93.0775 37.3335 93.0681L30.3434 91.7362L24.3505 96.7701C24.2369 96.8654 24.0916 96.9242 23.9371 96.9361L16.9749 97.4794L9.36271 98.1173C9.34129 98.119 9.31988 98.1199 9.29846 98.1199C8.96231 98.1199 8.669 97.8984 8.61127 97.5902C8.54888 97.2623 8.77329 96.9455 9.1262 96.8629L9.20814 96.8433L9.45955 91.4705C9.46327 91.3921 9.48283 91.3155 9.51635 91.244L12.0696 85.8584C12.0742 85.849 12.0789 85.8405 12.0835 85.8311L14.8155 80.7325L16.7085 75.1732C16.7281 75.1153 16.757 75.0599 16.7942 75.0088L20.2972 70.1947L23.0972 65.068L22.3783 60.7546L21.5803 57.9144L16.7039 52.7009L10.2836 48.5586C10.2454 48.5339 10.2101 48.5058 10.1784 48.4752L4.43879 42.9201C4.34009 42.8247 4.27677 42.7047 4.25535 42.5744L3.00854 34.8426C2.96478 34.5726 3.11376 34.3069 3.37914 34.1817C3.48064 34.1341 3.59051 34.1111 3.69946 34.1111C3.87544 34.1111 4.0505 34.1724 4.18366 34.289L5.41463 35.3697L8.89155 31.9999C8.95673 31.9369 9.03587 31.8858 9.1234 31.8517L15.1843 29.4638C15.2718 29.4298 15.3658 29.4119 15.4608 29.4119C15.4738 29.4119 15.4859 29.4119 15.499 29.4127L21.8485 29.7295L28.131 28.8123C28.1645 28.8072 28.1989 28.8047 28.2334 28.8047L34.5941 28.7391L40.8598 28.5398L46.5109 27.7086L46.1766 21.7797C46.1701 21.6699 46.1953 21.5592 46.2493 21.4604L49.093 16.2672C49.1489 16.1659 49.2327 16.0799 49.336 16.0177L54.0476 13.2108C54.1361 13.158 54.2357 13.1248 54.34 13.112L60.7407 12.3643L66.201 8.45287C66.2299 8.43243 66.2597 8.41369 66.2913 8.39751L72.449 5.25847C72.5533 5.20567 72.6706 5.17757 72.7889 5.17757C72.8299 5.17757 72.8708 5.18098 72.9118 5.18779L79.7371 6.3051L86.1248 4.49202C86.1416 4.48776 86.1583 4.48351 86.1751 4.47925L93.1056 3.01618C93.1568 3.00511 93.2099 3 93.263 3C93.3086 3 93.3552 3.00426 93.3999 3.01277L100.253 4.2672L106.992 5.29083L113.792 5.55483C113.832 5.55654 113.871 5.56079 113.909 5.56846L120.588 6.88675L127.337 7.56378C127.409 7.57145 127.481 7.58848 127.547 7.61658L133.775 10.1842L140.766 8.06623C140.837 8.04494 140.912 8.03387 140.985 8.03387C141.119 8.03387 141.253 8.06964 141.367 8.13777L147.37 11.7248L153.93 10.191C153.987 10.1774 154.046 10.1714 154.103 10.1714C154.204 10.1714 154.305 10.191 154.397 10.231L161.096 13.0703L166.828 8.56443C166.923 8.49034 167.037 8.44009 167.16 8.41965L173.891 7.31682C173.932 7.31 173.973 7.3066 174.014 7.3066C174.023 7.3066 174.031 7.3066 174.039 7.3066L180.963 7.53568L187.801 7.66087L194.485 6.97617L201.154 5.56931C201.206 5.55824 201.259 5.55313 201.312 5.55313C201.353 5.55313 201.393 5.55654 201.433 5.5625L208.32 6.6747L215.082 7.34066L221.727 8.04154L228.074 8.67854L234.829 7.50502C234.872 7.49736 234.916 7.49395 234.96 7.49395C235.063 7.49395 235.166 7.51524 235.261 7.55612L241.162 10.1365L248.352 8.45712C248.408 8.4435 248.466 8.43754 248.525 8.43754C248.588 8.43754 248.651 8.4452 248.714 8.46138L255.357 10.1655C255.503 10.2029 255.63 10.2821 255.723 10.3911L260.084 15.5809C260.128 15.6328 260.163 15.6916 260.187 15.7537L262.433 21.4553C262.465 21.5353 262.479 21.6205 262.473 21.7056L262.128 27.609L267.382 28.4666L273.705 29.2066C273.732 29.21 273.759 29.2143 273.786 29.2203L279.985 30.6373L286.168 29.1819C286.225 29.1683 286.284 29.1615 286.342 29.1615C286.353 29.1615 286.363 29.1615 286.373 29.1615L292.778 29.417C292.819 29.4187 292.86 29.4238 292.901 29.4323C292.901 29.4323 299.242 30.7438 299.244 30.7446L306.467 32.3457C306.776 32.4146 306.996 32.665 307.001 32.9563C307.006 33.2475 306.795 33.5047 306.489 33.5822L302.946 34.4755L303.435 42.1494C303.449 42.3828 303.324 42.6042 303.108 42.7277L295.962 46.8179L291.515 52.4684L287.774 58.8717C287.753 58.9066 287.729 58.9398 287.702 58.9713L285.946 60.9675L285.751 64.5485L288.383 69.9298L291.399 75.0838C291.43 75.1366 291.453 75.1928 291.467 75.2507L292.804 80.9412L296.704 85.5169C296.776 85.6012 296.823 85.7008 296.843 85.8056L297.859 91.4458L300.537 97.0962C300.65 97.3364 300.593 97.6157 300.391 97.8014L297.112 100.808C296.981 100.928 296.802 100.995 296.618 100.995L296.61 101Z" stroke="white" stroke-width="6" mask="url(#path-1-outside-1_1902_2)"/>
<path d="M296.61 101C296.588 101 296.565 100.999 296.544 100.997C296.336 100.98 296.148 100.877 296.032 100.719L291.82 95.0055L284.862 94.2655C284.851 94.2646 284.84 94.2629 284.828 94.2612L277.928 93.2146L270.848 95.2312C270.781 95.2508 270.71 95.2601 270.64 95.2601C270.583 95.2601 270.524 95.2533 270.467 95.2406L263.547 93.6233L256.574 94.0296L250.01 94.4818C249.992 94.4826 249.974 94.4835 249.957 94.4835C249.907 94.4835 249.858 94.4784 249.811 94.469L243.375 93.2044L237.293 96.7769C237.18 96.8441 237.048 96.8782 236.916 96.8782C236.842 96.8782 236.768 96.8671 236.696 96.8458L230.186 94.8693L223.172 97.2018C223.095 97.2274 223.014 97.2401 222.934 97.2401C222.815 97.2401 222.696 97.212 222.589 97.1567L215.705 93.5816C215.59 93.522 215.496 93.4326 215.434 93.3261L211.931 87.2908C211.902 87.2414 211.88 87.1894 211.867 87.1349L210.269 80.8151C210.255 80.7606 210.25 80.7053 210.252 80.649L210.485 74.4612L208.169 69.4453L201.19 71.4261C201.123 71.4448 201.053 71.4551 200.983 71.4551C200.927 71.4551 200.87 71.4491 200.815 71.4363L193.862 69.8668L187.486 71.157C187.47 71.1604 187.455 71.163 187.439 71.1647L180.835 72.0759C180.8 72.081 180.765 72.0827 180.731 72.0827C180.714 72.0827 180.696 72.0827 180.679 72.081L174.158 71.6441L168.2 75.9107C168.076 75.9993 167.924 76.0461 167.77 76.0461C167.725 76.0461 167.68 76.0418 167.635 76.0342L160.981 74.8325L154.596 76.7052C154.467 76.8228 154.291 76.8934 154.102 76.8934C154.081 76.8934 154.061 76.8934 154.04 76.8909C153.796 76.8713 153.588 76.7376 153.48 76.5477L147.286 77.717C147.24 77.7255 147.192 77.7306 147.145 77.7306C146.974 77.7306 146.807 77.6727 146.677 77.5662L140.629 72.5732L134.056 74.4859C133.997 74.503 133.937 74.5132 133.875 74.5149L127.035 74.7934C127.025 74.7934 127.014 74.7934 127.004 74.7934C126.888 74.7934 126.773 74.767 126.671 74.7159L120.642 71.7182L113.873 72.6822C113.838 72.6873 113.801 72.6899 113.766 72.6899C113.689 72.6899 113.612 72.678 113.539 72.655L107.189 70.6588L99.3201 69.3294L98.6665 74.4885L100.855 81.5799C100.905 81.7425 100.883 81.9171 100.792 82.0644L97.239 87.892C97.1654 88.0129 97.05 88.1092 96.9112 88.1654L90.0412 90.9433L85.7589 96.6994C85.6238 96.8808 85.405 96.9787 85.1806 96.9787C85.0549 96.9787 84.9283 96.948 84.8137 96.8833L77.8767 92.9548L71.7683 92.1773L65.092 95.8622C64.9821 95.9227 64.8574 95.9542 64.7307 95.9542C64.6776 95.9542 64.6236 95.9482 64.5715 95.9372L58.0758 94.5422L51.6266 93.1958L44.6207 92.4004L37.5486 93.0783C37.5244 93.0809 37.5002 93.0817 37.476 93.0817C37.4285 93.0817 37.3801 93.0775 37.3335 93.0681L30.3434 91.7362L24.3505 96.7701C24.2369 96.8654 24.0916 96.9242 23.9371 96.9361L16.9749 97.4794L9.36271 98.1173C9.34129 98.119 9.31988 98.1199 9.29846 98.1199C8.96231 98.1199 8.669 97.8984 8.61127 97.5902C8.54888 97.2623 8.77329 96.9455 9.1262 96.8629L9.20814 96.8433L9.45955 91.4705C9.46327 91.3921 9.48283 91.3155 9.51635 91.244L12.0696 85.8584C12.0742 85.849 12.0789 85.8405 12.0835 85.8311L14.8155 80.7325L16.7085 75.1732C16.7281 75.1153 16.757 75.0599 16.7942 75.0088L20.2972 70.1947L23.0972 65.068L22.3783 60.7546L21.5803 57.9144L16.7039 52.7009L10.2836 48.5586C10.2454 48.5339 10.2101 48.5058 10.1784 48.4752L4.43879 42.9201C4.34009 42.8247 4.27677 42.7047 4.25535 42.5744L3.00854 34.8426C2.96478 34.5726 3.11376 34.3069 3.37914 34.1817C3.48064 34.1341 3.59051 34.1111 3.69946 34.1111C3.87544 34.1111 4.0505 34.1724 4.18366 34.289L5.41463 35.3697L8.89155 31.9999C8.95673 31.9369 9.03587 31.8858 9.1234 31.8517L15.1843 29.4638C15.2718 29.4298 15.3658 29.4119 15.4608 29.4119C15.4738 29.4119 15.4859 29.4119 15.499 29.4127L21.8485 29.7295L28.131 28.8123C28.1645 28.8072 28.1989 28.8047 28.2334 28.8047L34.5941 28.7391L40.8598 28.5398L46.5109 27.7086L46.1766 21.7797C46.1701 21.6699 46.1953 21.5592 46.2493 21.4604L49.093 16.2672C49.1489 16.1659 49.2327 16.0799 49.336 16.0177L54.0476 13.2108C54.1361 13.158 54.2357 13.1248 54.34 13.112L60.7407 12.3643L66.201 8.45287C66.2299 8.43243 66.2597 8.41369 66.2913 8.39751L72.449 5.25847C72.5533 5.20567 72.6706 5.17757 72.7889 5.17757C72.8299 5.17757 72.8708 5.18098 72.9118 5.18779L79.7371 6.3051L86.1248 4.49202C86.1416 4.48776 86.1583 4.48351 86.1751 4.47925L93.1056 3.01618C93.1568 3.00511 93.2099 3 93.263 3C93.3086 3 93.3552 3.00426 93.3999 3.01277L100.253 4.2672L106.992 5.29083L113.792 5.55483C113.832 5.55654 113.871 5.56079 113.909 5.56846L120.588 6.88675L127.337 7.56378C127.409 7.57145 127.481 7.58848 127.547 7.61658L133.775 10.1842L140.766 8.06623C140.837 8.04494 140.912 8.03387 140.985 8.03387C141.119 8.03387 141.253 8.06964 141.367 8.13777L147.37 11.7248L153.93 10.191C153.987 10.1774 154.046 10.1714 154.103 10.1714C154.204 10.1714 154.305 10.191 154.397 10.231L161.096 13.0703L166.828 8.56443C166.923 8.49034 167.037 8.44009 167.16 8.41965L173.891 7.31682C173.932 7.31 173.973 7.3066 174.014 7.3066C174.023 7.3066 174.031 7.3066 174.039 7.3066L180.963 7.53568L187.801 7.66087L194.485 6.97617L201.154 5.56931C201.206 5.55824 201.259 5.55313 201.312 5.55313C201.353 5.55313 201.393 5.55654 201.433 5.5625L208.32 6.6747L215.082 7.34066L221.727 8.04154L228.074 8.67854L234.829 7.50502C234.872 7.49736 234.916 7.49395 234.96 7.49395C235.063 7.49395 235.166 7.51524 235.261 7.55612L241.162 10.1365L248.352 8.45712C248.408 8.4435 248.466 8.43754 248.525 8.43754C248.588 8.43754 248.651 8.4452 248.714 8.46138L255.357 10.1655C255.503 10.2029 255.63 10.2821 255.723 10.3911L260.084 15.5809C260.128 15.6328 260.163 15.6916 260.187 15.7537L262.433 21.4553C262.465 21.5353 262.479 21.6205 262.473 21.7056L262.128 27.609L267.382 28.4666L273.705 29.2066C273.732 29.21 273.759 29.2143 273.786 29.2203L279.985 30.6373L286.168 29.1819C286.225 29.1683 286.284 29.1615 286.342 29.1615C286.353 29.1615 286.363 29.1615 286.373 29.1615L292.778 29.417C292.819 29.4187 292.86 29.4238 292.901 29.4323C292.901 29.4323 299.242 30.7438 299.244 30.7446L306.467 32.3457C306.776 32.4146 306.996 32.665 307.001 32.9563C307.006 33.2475 306.795 33.5047 306.489 33.5822L302.946 34.4755L303.435 42.1494C303.449 42.3828 303.324 42.6042 303.108 42.7277L295.962 46.8179L291.515 52.4684L287.774 58.8717C287.753 58.9066 287.729 58.9398 287.702 58.9713L285.946 60.9675L285.751 64.5485L288.383 69.9298L291.399 75.0838C291.43 75.1366 291.453 75.1928 291.467 75.2507L292.804 80.9412L296.704 85.5169C296.776 85.6012 296.823 85.7008 296.843 85.8056L297.859 91.4458L300.537 97.0962C300.65 97.3364 300.593 97.6157 300.391 97.8014L297.112 100.808C296.981 100.928 296.802 100.995 296.618 100.995L296.61 101Z" stroke="#111111" stroke-width="6" mask="url(#path-1-outside-1_1902_2)"/>
</svg>
