<svg width="310" height="105" viewBox="0 0 310 105" fill="none" xmlns="http://www.w3.org/2000/svg">
<mask id="path-1-outside-1_1902_4" maskUnits="userSpaceOnUse" x="-0.999023" y="0" width="311" height="105" fill="black">
<rect fill="white" x="-0.999023" width="311" height="105"/>
<path d="M296.61 102C296.588 102 296.565 101.999 296.544 101.997C296.336 101.979 296.148 101.876 296.032 101.716L291.82 95.9443L284.862 95.1967C284.851 95.1959 284.84 95.1942 284.828 95.1924L277.928 94.1351L270.848 96.1723C270.781 96.1921 270.71 96.2016 270.64 96.2016C270.583 96.2016 270.524 96.1947 270.467 96.1818L263.547 94.5481L256.574 94.9584L250.01 95.4153C249.992 95.4161 249.974 95.417 249.957 95.417C249.907 95.417 249.858 95.4118 249.811 95.4024L243.375 94.1248L237.293 97.7338C237.18 97.8017 237.048 97.8361 236.916 97.8361C236.842 97.8361 236.768 97.825 236.696 97.8035L230.186 95.8067L223.172 98.1631C223.095 98.1889 223.014 98.2018 222.934 98.2018C222.815 98.2018 222.696 98.1734 222.589 98.1175L215.705 94.5059C215.59 94.4457 215.496 94.3554 215.434 94.2478L211.931 88.1509C211.902 88.101 211.88 88.0485 211.867 87.9934L210.269 81.6091C210.255 81.5541 210.25 81.4982 210.252 81.4414L210.485 75.1904L208.169 70.1233L201.19 72.1243C201.123 72.1433 201.053 72.1536 200.983 72.1536C200.927 72.1536 200.87 72.1476 200.815 72.1347L193.862 70.5491L187.486 71.8525C187.47 71.8559 187.455 71.8585 187.439 71.8602L180.835 72.7807C180.8 72.7859 180.765 72.7876 180.731 72.7876C180.714 72.7876 180.696 72.7876 180.679 72.7859L174.158 72.3446L168.2 76.6547C168.076 76.7441 167.924 76.7915 167.77 76.7915C167.725 76.7915 167.68 76.7872 167.635 76.7794L160.981 75.5655L154.596 77.4573C154.467 77.5761 154.291 77.6475 154.102 77.6475C154.081 77.6475 154.061 77.6475 154.04 77.6449C153.796 77.6251 153.588 77.49 153.48 77.2982L147.286 78.4794C147.24 78.488 147.192 78.4931 147.145 78.4931C146.974 78.4931 146.807 78.4346 146.677 78.3271L140.629 73.2831L134.056 75.2154C133.997 75.2326 133.937 75.2429 133.875 75.2446L127.035 75.526C127.025 75.526 127.014 75.526 127.004 75.526C126.888 75.526 126.773 75.4993 126.671 75.4477L120.642 72.4194L113.873 73.3933C113.838 73.3984 113.801 73.401 113.766 73.401C113.689 73.401 113.612 73.389 113.539 73.3657L107.189 71.3492L99.3201 70.0063L98.6665 75.218L100.855 82.3817C100.905 82.546 100.883 82.7224 100.792 82.8712L97.239 88.7582C97.1654 88.8804 97.05 88.9776 96.9112 89.0344L90.0412 91.8407L85.7589 97.6555C85.6238 97.8387 85.405 97.9377 85.1806 97.9377C85.0549 97.9377 84.9283 97.9067 84.8137 97.8413L77.8767 93.8727L71.7683 93.0873L65.092 96.8098C64.9821 96.8709 64.8574 96.9027 64.7307 96.9027C64.6776 96.9027 64.6236 96.8967 64.5715 96.8855L58.0758 95.4763L51.6266 94.1162L44.6207 93.3127L37.5486 93.9975C37.5244 94.0001 37.5002 94.0009 37.476 94.0009C37.4285 94.0009 37.3801 93.9966 37.3335 93.9872L30.3434 92.6416L24.3505 97.7269C24.2369 97.8232 24.0916 97.8826 23.9371 97.8946L16.9749 98.4435L9.36271 99.0879C9.34129 99.0896 9.31988 99.0905 9.29846 99.0905C8.96231 99.0905 8.669 98.8668 8.61127 98.5554C8.54888 98.2241 8.77329 97.9041 9.1262 97.8207L9.20814 97.8009L9.45955 92.3732C9.46327 92.2941 9.48283 92.2167 9.51635 92.1444L12.0696 86.7038C12.0742 86.6944 12.0789 86.6858 12.0835 86.6763L14.8155 81.5257L16.7085 75.9097C16.7281 75.8512 16.757 75.7952 16.7942 75.7436L20.2972 70.8803L23.0972 65.7013L22.3783 61.3439L21.5803 58.4748L16.7039 53.208L10.2836 49.0235C10.2454 48.9986 10.2101 48.9702 10.1784 48.9392L4.43879 43.3275C4.34009 43.2311 4.27677 43.1098 4.25535 42.9782L3.00854 35.1675C2.96478 34.8948 3.11376 34.6264 3.37914 34.4999C3.48064 34.4517 3.59051 34.4285 3.69946 34.4285C3.87544 34.4285 4.0505 34.4905 4.18366 34.6083L5.41463 35.7L8.89155 32.2958C8.95673 32.2322 9.03587 32.1806 9.1234 32.1461L15.1843 29.7339C15.2718 29.6994 15.3658 29.6814 15.4608 29.6814C15.4738 29.6814 15.4859 29.6814 15.499 29.6822L21.8485 30.0023L28.131 29.0757C28.1645 29.0706 28.1989 29.068 28.2334 29.068L34.5941 29.0017L40.8598 28.8004L46.5109 27.9608L46.1766 21.9714C46.1701 21.8604 46.1953 21.7485 46.2493 21.6487L49.093 16.4026C49.1489 16.3003 49.2327 16.2134 49.336 16.1506L54.0476 13.315C54.1361 13.2617 54.2357 13.2281 54.34 13.2152L60.7407 12.4599L66.201 8.50851C66.2299 8.48786 66.2597 8.46893 66.2913 8.45259L72.449 5.28152C72.5533 5.22818 72.6706 5.19979 72.7889 5.19979C72.8299 5.19979 72.8708 5.20323 72.9118 5.21011L79.7371 6.33883L86.1248 4.50725C86.1416 4.50295 86.1583 4.49864 86.1751 4.49434L93.1056 3.01635C93.1568 3.00516 93.2099 3 93.263 3C93.3086 3 93.3552 3.0043 93.3999 3.0129L100.253 4.28013L106.992 5.31421L113.792 5.5809C113.832 5.58262 113.871 5.58693 113.909 5.59467L120.588 6.92641L127.337 7.61035C127.409 7.6181 127.481 7.6353 127.547 7.66369L133.775 10.2575L140.766 8.11793C140.837 8.09642 140.912 8.08524 140.985 8.08524C141.119 8.08524 141.253 8.12137 141.367 8.1902L147.37 11.8138L153.93 10.2644C153.987 10.2506 154.046 10.2446 154.103 10.2446C154.204 10.2446 154.305 10.2644 154.397 10.3048L161.096 13.1731L166.828 8.62121C166.923 8.54636 167.037 8.4956 167.16 8.47496L173.891 7.36087C173.932 7.35398 173.973 7.35054 174.014 7.35054C174.023 7.35054 174.031 7.35054 174.039 7.35054L180.963 7.58196L187.801 7.70843L194.485 7.01675L201.154 5.59553C201.206 5.58434 201.259 5.57918 201.312 5.57918C201.353 5.57918 201.393 5.58262 201.433 5.58865L208.32 6.7122L215.082 7.38495L221.727 8.09298L228.074 8.73649L234.829 7.55099C234.872 7.54325 234.916 7.53981 234.96 7.53981C235.063 7.53981 235.166 7.56132 235.261 7.60261L241.162 10.2093L248.352 8.51281C248.408 8.49904 248.466 8.49302 248.525 8.49302C248.588 8.49302 248.651 8.50076 248.714 8.51711L255.357 10.2386C255.503 10.2764 255.63 10.3564 255.723 10.4666L260.084 15.7092C260.128 15.7617 260.163 15.8211 260.187 15.8839L262.433 21.6436C262.465 21.7245 262.479 21.8105 262.473 21.8965L262.128 27.8601L267.382 28.7264L273.705 29.474C273.732 29.4775 273.759 29.4818 273.786 29.4878L279.985 30.9193L286.168 29.4491C286.225 29.4353 286.284 29.4284 286.342 29.4284C286.353 29.4284 286.363 29.4284 286.373 29.4284L292.778 29.6865C292.819 29.6883 292.86 29.6934 292.901 29.702C292.901 29.702 299.242 31.0269 299.244 31.0277L306.467 32.6451C306.776 32.7148 306.996 32.9677 307.001 33.2619C307.006 33.5562 306.795 33.816 306.489 33.8943L302.946 34.7967L303.435 42.5489C303.449 42.7846 303.324 43.0083 303.108 43.133L295.962 47.2651L291.515 52.9732L287.774 59.4418C287.753 59.477 287.729 59.5106 287.702 59.5424L285.946 61.559L285.751 65.1765L288.383 70.6128L291.399 75.8193C291.43 75.8727 291.453 75.9294 291.467 75.9879L292.804 81.7365L296.704 86.3589C296.776 86.444 296.823 86.5447 296.843 86.6505L297.859 92.3483L300.537 98.0564C300.65 98.299 300.593 98.5812 300.391 98.7687L297.112 101.806C296.981 101.928 296.802 101.995 296.618 101.995L296.61 102Z"/>
</mask>
<path d="M296.61 102C296.588 102 296.565 101.999 296.544 101.997C296.336 101.979 296.148 101.876 296.032 101.716L291.82 95.9443L284.862 95.1967C284.851 95.1959 284.84 95.1942 284.828 95.1924L277.928 94.1351L270.848 96.1723C270.781 96.1921 270.71 96.2016 270.64 96.2016C270.583 96.2016 270.524 96.1947 270.467 96.1818L263.547 94.5481L256.574 94.9584L250.01 95.4153C249.992 95.4161 249.974 95.417 249.957 95.417C249.907 95.417 249.858 95.4118 249.811 95.4024L243.375 94.1248L237.293 97.7338C237.18 97.8017 237.048 97.8361 236.916 97.8361C236.842 97.8361 236.768 97.825 236.696 97.8035L230.186 95.8067L223.172 98.1631C223.095 98.1889 223.014 98.2018 222.934 98.2018C222.815 98.2018 222.696 98.1734 222.589 98.1175L215.705 94.5059C215.59 94.4457 215.496 94.3554 215.434 94.2478L211.931 88.1509C211.902 88.101 211.88 88.0485 211.867 87.9934L210.269 81.6091C210.255 81.5541 210.25 81.4982 210.252 81.4414L210.485 75.1904L208.169 70.1233L201.19 72.1243C201.123 72.1433 201.053 72.1536 200.983 72.1536C200.927 72.1536 200.87 72.1476 200.815 72.1347L193.862 70.5491L187.486 71.8525C187.47 71.8559 187.455 71.8585 187.439 71.8602L180.835 72.7807C180.8 72.7859 180.765 72.7876 180.731 72.7876C180.714 72.7876 180.696 72.7876 180.679 72.7859L174.158 72.3446L168.2 76.6547C168.076 76.7441 167.924 76.7915 167.77 76.7915C167.725 76.7915 167.68 76.7872 167.635 76.7794L160.981 75.5655L154.596 77.4573C154.467 77.5761 154.291 77.6475 154.102 77.6475C154.081 77.6475 154.061 77.6475 154.04 77.6449C153.796 77.6251 153.588 77.49 153.48 77.2982L147.286 78.4794C147.24 78.488 147.192 78.4931 147.145 78.4931C146.974 78.4931 146.807 78.4346 146.677 78.3271L140.629 73.2831L134.056 75.2154C133.997 75.2326 133.937 75.2429 133.875 75.2446L127.035 75.526C127.025 75.526 127.014 75.526 127.004 75.526C126.888 75.526 126.773 75.4993 126.671 75.4477L120.642 72.4194L113.873 73.3933C113.838 73.3984 113.801 73.401 113.766 73.401C113.689 73.401 113.612 73.389 113.539 73.3657L107.189 71.3492L99.3201 70.0063L98.6665 75.218L100.855 82.3817C100.905 82.546 100.883 82.7224 100.792 82.8712L97.239 88.7582C97.1654 88.8804 97.05 88.9776 96.9112 89.0344L90.0412 91.8407L85.7589 97.6555C85.6238 97.8387 85.405 97.9377 85.1806 97.9377C85.0549 97.9377 84.9283 97.9067 84.8137 97.8413L77.8767 93.8727L71.7683 93.0873L65.092 96.8098C64.9821 96.8709 64.8574 96.9027 64.7307 96.9027C64.6776 96.9027 64.6236 96.8967 64.5715 96.8855L58.0758 95.4763L51.6266 94.1162L44.6207 93.3127L37.5486 93.9975C37.5244 94.0001 37.5002 94.0009 37.476 94.0009C37.4285 94.0009 37.3801 93.9966 37.3335 93.9872L30.3434 92.6416L24.3505 97.7269C24.2369 97.8232 24.0916 97.8826 23.9371 97.8946L16.9749 98.4435L9.36271 99.0879C9.34129 99.0896 9.31988 99.0905 9.29846 99.0905C8.96231 99.0905 8.669 98.8668 8.61127 98.5554C8.54888 98.2241 8.77329 97.9041 9.1262 97.8207L9.20814 97.8009L9.45955 92.3732C9.46327 92.2941 9.48283 92.2167 9.51635 92.1444L12.0696 86.7038C12.0742 86.6944 12.0789 86.6858 12.0835 86.6763L14.8155 81.5257L16.7085 75.9097C16.7281 75.8512 16.757 75.7952 16.7942 75.7436L20.2972 70.8803L23.0972 65.7013L22.3783 61.3439L21.5803 58.4748L16.7039 53.208L10.2836 49.0235C10.2454 48.9986 10.2101 48.9702 10.1784 48.9392L4.43879 43.3275C4.34009 43.2311 4.27677 43.1098 4.25535 42.9782L3.00854 35.1675C2.96478 34.8948 3.11376 34.6264 3.37914 34.4999C3.48064 34.4517 3.59051 34.4285 3.69946 34.4285C3.87544 34.4285 4.0505 34.4905 4.18366 34.6083L5.41463 35.7L8.89155 32.2958C8.95673 32.2322 9.03587 32.1806 9.1234 32.1461L15.1843 29.7339C15.2718 29.6994 15.3658 29.6814 15.4608 29.6814C15.4738 29.6814 15.4859 29.6814 15.499 29.6822L21.8485 30.0023L28.131 29.0757C28.1645 29.0706 28.1989 29.068 28.2334 29.068L34.5941 29.0017L40.8598 28.8004L46.5109 27.9608L46.1766 21.9714C46.1701 21.8604 46.1953 21.7485 46.2493 21.6487L49.093 16.4026C49.1489 16.3003 49.2327 16.2134 49.336 16.1506L54.0476 13.315C54.1361 13.2617 54.2357 13.2281 54.34 13.2152L60.7407 12.4599L66.201 8.50851C66.2299 8.48786 66.2597 8.46893 66.2913 8.45259L72.449 5.28152C72.5533 5.22818 72.6706 5.19979 72.7889 5.19979C72.8299 5.19979 72.8708 5.20323 72.9118 5.21011L79.7371 6.33883L86.1248 4.50725C86.1416 4.50295 86.1583 4.49864 86.1751 4.49434L93.1056 3.01635C93.1568 3.00516 93.2099 3 93.263 3C93.3086 3 93.3552 3.0043 93.3999 3.0129L100.253 4.28013L106.992 5.31421L113.792 5.5809C113.832 5.58262 113.871 5.58693 113.909 5.59467L120.588 6.92641L127.337 7.61035C127.409 7.6181 127.481 7.6353 127.547 7.66369L133.775 10.2575L140.766 8.11793C140.837 8.09642 140.912 8.08524 140.985 8.08524C141.119 8.08524 141.253 8.12137 141.367 8.1902L147.37 11.8138L153.93 10.2644C153.987 10.2506 154.046 10.2446 154.103 10.2446C154.204 10.2446 154.305 10.2644 154.397 10.3048L161.096 13.1731L166.828 8.62121C166.923 8.54636 167.037 8.4956 167.16 8.47496L173.891 7.36087C173.932 7.35398 173.973 7.35054 174.014 7.35054C174.023 7.35054 174.031 7.35054 174.039 7.35054L180.963 7.58196L187.801 7.70843L194.485 7.01675L201.154 5.59553C201.206 5.58434 201.259 5.57918 201.312 5.57918C201.353 5.57918 201.393 5.58262 201.433 5.58865L208.32 6.7122L215.082 7.38495L221.727 8.09298L228.074 8.73649L234.829 7.55099C234.872 7.54325 234.916 7.53981 234.96 7.53981C235.063 7.53981 235.166 7.56132 235.261 7.60261L241.162 10.2093L248.352 8.51281C248.408 8.49904 248.466 8.49302 248.525 8.49302C248.588 8.49302 248.651 8.50076 248.714 8.51711L255.357 10.2386C255.503 10.2764 255.63 10.3564 255.723 10.4666L260.084 15.7092C260.128 15.7617 260.163 15.8211 260.187 15.8839L262.433 21.6436C262.465 21.7245 262.479 21.8105 262.473 21.8965L262.128 27.8601L267.382 28.7264L273.705 29.474C273.732 29.4775 273.759 29.4818 273.786 29.4878L279.985 30.9193L286.168 29.4491C286.225 29.4353 286.284 29.4284 286.342 29.4284C286.353 29.4284 286.363 29.4284 286.373 29.4284L292.778 29.6865C292.819 29.6883 292.86 29.6934 292.901 29.702C292.901 29.702 299.242 31.0269 299.244 31.0277L306.467 32.6451C306.776 32.7148 306.996 32.9677 307.001 33.2619C307.006 33.5562 306.795 33.816 306.489 33.8943L302.946 34.7967L303.435 42.5489C303.449 42.7846 303.324 43.0083 303.108 43.133L295.962 47.2651L291.515 52.9732L287.774 59.4418C287.753 59.477 287.729 59.5106 287.702 59.5424L285.946 61.559L285.751 65.1765L288.383 70.6128L291.399 75.8193C291.43 75.8727 291.453 75.9294 291.467 75.9879L292.804 81.7365L296.704 86.3589C296.776 86.444 296.823 86.5447 296.843 86.6505L297.859 92.3483L300.537 98.0564C300.65 98.299 300.593 98.5812 300.391 98.7687L297.112 101.806C296.981 101.928 296.802 101.995 296.618 101.995L296.61 102Z" fill="#111111"/>
<path d="M296.61 102C296.588 102 296.565 101.999 296.544 101.997C296.336 101.979 296.148 101.876 296.032 101.716L291.82 95.9443L284.862 95.1967C284.851 95.1959 284.84 95.1942 284.828 95.1924L277.928 94.1351L270.848 96.1723C270.781 96.1921 270.71 96.2016 270.64 96.2016C270.583 96.2016 270.524 96.1947 270.467 96.1818L263.547 94.5481L256.574 94.9584L250.01 95.4153C249.992 95.4161 249.974 95.417 249.957 95.417C249.907 95.417 249.858 95.4118 249.811 95.4024L243.375 94.1248L237.293 97.7338C237.18 97.8017 237.048 97.8361 236.916 97.8361C236.842 97.8361 236.768 97.825 236.696 97.8035L230.186 95.8067L223.172 98.1631C223.095 98.1889 223.014 98.2018 222.934 98.2018C222.815 98.2018 222.696 98.1734 222.589 98.1175L215.705 94.5059C215.59 94.4457 215.496 94.3554 215.434 94.2478L211.931 88.1509C211.902 88.101 211.88 88.0485 211.867 87.9934L210.269 81.6091C210.255 81.5541 210.25 81.4982 210.252 81.4414L210.485 75.1904L208.169 70.1233L201.19 72.1243C201.123 72.1433 201.053 72.1536 200.983 72.1536C200.927 72.1536 200.87 72.1476 200.815 72.1347L193.862 70.5491L187.486 71.8525C187.47 71.8559 187.455 71.8585 187.439 71.8602L180.835 72.7807C180.8 72.7859 180.765 72.7876 180.731 72.7876C180.714 72.7876 180.696 72.7876 180.679 72.7859L174.158 72.3446L168.2 76.6547C168.076 76.7441 167.924 76.7915 167.77 76.7915C167.725 76.7915 167.68 76.7872 167.635 76.7794L160.981 75.5655L154.596 77.4573C154.467 77.5761 154.291 77.6475 154.102 77.6475C154.081 77.6475 154.061 77.6475 154.04 77.6449C153.796 77.6251 153.588 77.49 153.48 77.2982L147.286 78.4794C147.24 78.488 147.192 78.4931 147.145 78.4931C146.974 78.4931 146.807 78.4346 146.677 78.3271L140.629 73.2831L134.056 75.2154C133.997 75.2326 133.937 75.2429 133.875 75.2446L127.035 75.526C127.025 75.526 127.014 75.526 127.004 75.526C126.888 75.526 126.773 75.4993 126.671 75.4477L120.642 72.4194L113.873 73.3933C113.838 73.3984 113.801 73.401 113.766 73.401C113.689 73.401 113.612 73.389 113.539 73.3657L107.189 71.3492L99.3201 70.0063L98.6665 75.218L100.855 82.3817C100.905 82.546 100.883 82.7224 100.792 82.8712L97.239 88.7582C97.1654 88.8804 97.05 88.9776 96.9112 89.0344L90.0412 91.8407L85.7589 97.6555C85.6238 97.8387 85.405 97.9377 85.1806 97.9377C85.0549 97.9377 84.9283 97.9067 84.8137 97.8413L77.8767 93.8727L71.7683 93.0873L65.092 96.8098C64.9821 96.8709 64.8574 96.9027 64.7307 96.9027C64.6776 96.9027 64.6236 96.8967 64.5715 96.8855L58.0758 95.4763L51.6266 94.1162L44.6207 93.3127L37.5486 93.9975C37.5244 94.0001 37.5002 94.0009 37.476 94.0009C37.4285 94.0009 37.3801 93.9966 37.3335 93.9872L30.3434 92.6416L24.3505 97.7269C24.2369 97.8232 24.0916 97.8826 23.9371 97.8946L16.9749 98.4435L9.36271 99.0879C9.34129 99.0896 9.31988 99.0905 9.29846 99.0905C8.96231 99.0905 8.669 98.8668 8.61127 98.5554C8.54888 98.2241 8.77329 97.9041 9.1262 97.8207L9.20814 97.8009L9.45955 92.3732C9.46327 92.2941 9.48283 92.2167 9.51635 92.1444L12.0696 86.7038C12.0742 86.6944 12.0789 86.6858 12.0835 86.6763L14.8155 81.5257L16.7085 75.9097C16.7281 75.8512 16.757 75.7952 16.7942 75.7436L20.2972 70.8803L23.0972 65.7013L22.3783 61.3439L21.5803 58.4748L16.7039 53.208L10.2836 49.0235C10.2454 48.9986 10.2101 48.9702 10.1784 48.9392L4.43879 43.3275C4.34009 43.2311 4.27677 43.1098 4.25535 42.9782L3.00854 35.1675C2.96478 34.8948 3.11376 34.6264 3.37914 34.4999C3.48064 34.4517 3.59051 34.4285 3.69946 34.4285C3.87544 34.4285 4.0505 34.4905 4.18366 34.6083L5.41463 35.7L8.89155 32.2958C8.95673 32.2322 9.03587 32.1806 9.1234 32.1461L15.1843 29.7339C15.2718 29.6994 15.3658 29.6814 15.4608 29.6814C15.4738 29.6814 15.4859 29.6814 15.499 29.6822L21.8485 30.0023L28.131 29.0757C28.1645 29.0706 28.1989 29.068 28.2334 29.068L34.5941 29.0017L40.8598 28.8004L46.5109 27.9608L46.1766 21.9714C46.1701 21.8604 46.1953 21.7485 46.2493 21.6487L49.093 16.4026C49.1489 16.3003 49.2327 16.2134 49.336 16.1506L54.0476 13.315C54.1361 13.2617 54.2357 13.2281 54.34 13.2152L60.7407 12.4599L66.201 8.50851C66.2299 8.48786 66.2597 8.46893 66.2913 8.45259L72.449 5.28152C72.5533 5.22818 72.6706 5.19979 72.7889 5.19979C72.8299 5.19979 72.8708 5.20323 72.9118 5.21011L79.7371 6.33883L86.1248 4.50725C86.1416 4.50295 86.1583 4.49864 86.1751 4.49434L93.1056 3.01635C93.1568 3.00516 93.2099 3 93.263 3C93.3086 3 93.3552 3.0043 93.3999 3.0129L100.253 4.28013L106.992 5.31421L113.792 5.5809C113.832 5.58262 113.871 5.58693 113.909 5.59467L120.588 6.92641L127.337 7.61035C127.409 7.6181 127.481 7.6353 127.547 7.66369L133.775 10.2575L140.766 8.11793C140.837 8.09642 140.912 8.08524 140.985 8.08524C141.119 8.08524 141.253 8.12137 141.367 8.1902L147.37 11.8138L153.93 10.2644C153.987 10.2506 154.046 10.2446 154.103 10.2446C154.204 10.2446 154.305 10.2644 154.397 10.3048L161.096 13.1731L166.828 8.62121C166.923 8.54636 167.037 8.4956 167.16 8.47496L173.891 7.36087C173.932 7.35398 173.973 7.35054 174.014 7.35054C174.023 7.35054 174.031 7.35054 174.039 7.35054L180.963 7.58196L187.801 7.70843L194.485 7.01675L201.154 5.59553C201.206 5.58434 201.259 5.57918 201.312 5.57918C201.353 5.57918 201.393 5.58262 201.433 5.58865L208.32 6.7122L215.082 7.38495L221.727 8.09298L228.074 8.73649L234.829 7.55099C234.872 7.54325 234.916 7.53981 234.96 7.53981C235.063 7.53981 235.166 7.56132 235.261 7.60261L241.162 10.2093L248.352 8.51281C248.408 8.49904 248.466 8.49302 248.525 8.49302C248.588 8.49302 248.651 8.50076 248.714 8.51711L255.357 10.2386C255.503 10.2764 255.63 10.3564 255.723 10.4666L260.084 15.7092C260.128 15.7617 260.163 15.8211 260.187 15.8839L262.433 21.6436C262.465 21.7245 262.479 21.8105 262.473 21.8965L262.128 27.8601L267.382 28.7264L273.705 29.474C273.732 29.4775 273.759 29.4818 273.786 29.4878L279.985 30.9193L286.168 29.4491C286.225 29.4353 286.284 29.4284 286.342 29.4284C286.353 29.4284 286.363 29.4284 286.373 29.4284L292.778 29.6865C292.819 29.6883 292.86 29.6934 292.901 29.702C292.901 29.702 299.242 31.0269 299.244 31.0277L306.467 32.6451C306.776 32.7148 306.996 32.9677 307.001 33.2619C307.006 33.5562 306.795 33.816 306.489 33.8943L302.946 34.7967L303.435 42.5489C303.449 42.7846 303.324 43.0083 303.108 43.133L295.962 47.2651L291.515 52.9732L287.774 59.4418C287.753 59.477 287.729 59.5106 287.702 59.5424L285.946 61.559L285.751 65.1765L288.383 70.6128L291.399 75.8193C291.43 75.8727 291.453 75.9294 291.467 75.9879L292.804 81.7365L296.704 86.3589C296.776 86.444 296.823 86.5447 296.843 86.6505L297.859 92.3483L300.537 98.0564C300.65 98.299 300.593 98.5812 300.391 98.7687L297.112 101.806C296.981 101.928 296.802 101.995 296.618 101.995L296.61 102Z" stroke="#111111" stroke-width="6" mask="url(#path-1-outside-1_1902_4)"/>
</svg>
