<svg width="376" height="395" viewBox="0 0 376 395" fill="none" xmlns="http://www.w3.org/2000/svg">
<path d="M74.1055 200.241L90.6191 201.044L90.6445 201.046L107.16 202.061L107.276 202.067L107.392 202.088L123.476 204.983L139.566 200.879L139.939 200.783L140.32 200.834L156.821 202.994H156.822L173.219 205.02L189.525 205.069L205.97 203.847L206.117 203.836L206.265 203.847L222.577 205.046L238.892 202.944L239.106 202.917L239.322 202.936L255.564 204.365L271.808 201.327L272.136 201.266L272.466 201.313L288.785 203.704L305.104 202.876L305.312 202.865L305.519 202.897L321.404 205.405L322.599 205.594L322.986 206.739L327.415 219.818L327.589 220.331L327.479 220.861L324.253 236.594L326.322 251.896L326.339 252.018L326.34 252.14L326.53 267.664L330.049 283.387L330.2 284.062L329.902 284.686L322.828 299.496L320.976 315.405L320.915 315.932L320.601 316.358L310.979 329.454L310.875 329.597L310.746 329.719L299.185 340.719L290.435 350.133L291.596 351.514L303.38 356.528L304.111 356.84L304.43 357.567L310.575 371.632L310.773 372.085L310.737 372.579L309.605 388.012L309.471 389.856L307.62 389.865L290.875 389.942L274.23 391.446L273.984 391.469L273.739 391.431L257.105 388.813L240.486 387.789L224.009 387.13L207.498 390.066L207.223 390.115L206.945 390.087L190.328 388.396L173.763 388.475L157.093 389.544L157.041 389.547L156.99 389.548L140.263 389.759L140.118 389.761L139.974 389.742L123.644 387.57L107.303 391.957L107.05 392.024L106.788 392.025L90.0615 392.062L90.0117 392.062L89.9609 392.06L73.2324 391.257L73.207 391.256L73.1826 391.254L56.4941 390.04L39.7861 389.344L38.4336 389.287L37.9834 388.01L35.7158 381.576L35.4062 380.698L35.8779 379.896L44.8701 364.623L45.0244 364.36L45.251 364.155L56.1279 354.299L54.0381 351.378L54.0059 351.333L53.9766 351.286L44.916 337.016L33.332 323.979L33.0898 323.705L32.959 323.364L26.7764 307.186L26.7139 307.023L26.6807 306.853L23.4004 289.938L19.8594 273.288L19.832 273.158L19.8213 273.025L18.5244 256.166L15.7598 239.282L15.6855 238.829L15.8164 238.39L20.6729 222.028L19.6104 204.808L19.543 203.716L20.4258 203.07L23.2725 200.988L23.832 200.579L24.5254 200.604L40.9971 201.205L57.4316 201.17L73.8965 200.242L74.001 200.236L74.1055 200.241Z" stroke="white" stroke-width="4"/>
<path d="M74.1055 200.241L90.6191 201.044L90.6445 201.046L107.16 202.061L107.276 202.067L107.392 202.088L123.476 204.983L139.566 200.879L139.939 200.783L140.32 200.834L156.821 202.994H156.822L173.219 205.02L189.525 205.069L205.97 203.847L206.117 203.836L206.265 203.847L222.577 205.046L238.892 202.944L239.106 202.917L239.322 202.936L255.564 204.365L271.808 201.327L272.136 201.266L272.466 201.313L288.785 203.704L305.104 202.876L305.312 202.865L305.519 202.897L321.404 205.405L322.599 205.594L322.986 206.739L327.415 219.818L327.589 220.331L327.479 220.861L324.253 236.594L326.322 251.896L326.339 252.018L326.34 252.14L326.53 267.664L330.049 283.387L330.2 284.062L329.902 284.686L322.828 299.496L320.976 315.405L320.915 315.932L320.601 316.358L310.979 329.454L310.875 329.597L310.746 329.719L299.185 340.719L290.435 350.133L291.596 351.514L303.38 356.528L304.111 356.84L304.43 357.567L310.575 371.632L310.773 372.085L310.737 372.579L309.605 388.012L309.471 389.856L307.62 389.865L290.875 389.942L274.23 391.446L273.984 391.469L273.739 391.431L257.105 388.813L240.486 387.789L224.009 387.13L207.498 390.066L207.223 390.115L206.945 390.087L190.328 388.396L173.763 388.475L157.093 389.544L157.041 389.547L156.99 389.548L140.263 389.759L140.118 389.761L139.974 389.742L123.644 387.57L107.303 391.957L107.05 392.024L106.788 392.025L90.0615 392.062L90.0117 392.062L89.9609 392.06L73.2324 391.257L73.207 391.256L73.1826 391.254L56.4941 390.04L39.7861 389.344L38.4336 389.287L37.9834 388.01L35.7158 381.576L35.4062 380.698L35.8779 379.896L44.8701 364.623L45.0244 364.36L45.251 364.155L56.1279 354.299L54.0381 351.378L54.0059 351.333L53.9766 351.286L44.916 337.016L33.332 323.979L33.0898 323.705L32.959 323.364L26.7764 307.186L26.7139 307.023L26.6807 306.853L23.4004 289.938L19.8594 273.288L19.832 273.158L19.8213 273.025L18.5244 256.166L15.7598 239.282L15.6855 238.829L15.8164 238.39L20.6729 222.028L19.6104 204.808L19.543 203.716L20.4258 203.07L23.2725 200.988L23.832 200.579L24.5254 200.604L40.9971 201.205L57.4316 201.17L73.8965 200.242L74.001 200.236L74.1055 200.241Z" stroke="white" stroke-width="4" stroke-miterlimit="10"/>
<path d="M322.907 2.11621L336.997 5.47461L337.212 5.52539L337.411 5.62305L351.031 12.2754L351.366 12.4395L351.619 12.7129L362.403 24.335L362.6 24.5469L362.729 24.8066L369.927 39.3193L370.033 39.5352L370.086 39.7695L373.583 55.333L373.76 56.1191L373.343 56.8076L365.333 70.0254L364.951 70.6562L364.25 70.8877L351.058 75.2471L347.909 77.1514L340.69 91.8252L340.671 91.8643L332.875 106.871L332.865 106.891L324.937 121.745L317.866 137.128L317.833 137.2L317.794 137.27L309.934 151.303L309.36 152.325H308.188L291.404 152.327L274.018 155.728L273.844 155.762L273.667 155.765L256.055 156.062L255.974 156.062L255.893 156.058L238.294 154.918L222.001 154.107L218.719 153.943L220.372 151.104L229.264 135.824L229.349 135.679L229.456 135.55L241.404 121.214L251.8 105.57L261.246 88.9463L261.309 88.8359L261.385 88.7344L272.687 73.668L272.731 73.6094L284.502 59.0615L294.949 43.9463L295.326 24.4209L295.334 24.0273L295.49 23.665L303.342 5.51367L303.793 4.4707L304.919 4.32422L322.186 2.07812L322.55 2.03125L322.907 2.11621Z" stroke="white" stroke-width="4"/>
<path d="M78.9131 151.812L96.0205 153.145L96.2061 153.159L96.3848 153.207L113.319 157.761L129.792 159.121L146.473 152.714L147.003 152.51L147.562 152.615L164.661 155.851L181.462 158.497L196.68 156.959L196.896 154.662L197.075 152.754L198.989 152.852L216.533 153.742L234.035 153.159L251.615 152.199L251.661 152.196H251.708L269.322 152.057H269.374L269.425 152.059L287.049 152.822H287.056L307.544 153.777L307.677 153.784L307.808 153.808L328.008 157.472L328.163 157.5L328.312 157.552L341.723 162.242L342.692 162.581L342.981 163.567L347.503 178.997L347.702 179.675L347.431 180.328L342.377 192.462L342.184 192.925L341.795 193.242L332.053 201.194L331.395 201.731L330.551 201.631L314.018 199.656L297.337 203.607L296.971 203.694L296.597 203.642L279.908 201.285L263.217 204.62L262.749 204.713L262.288 204.585L245.813 199.991L229.336 204.787L229.055 204.868L228.763 204.866L211.738 204.742H211.722L194.695 204.481L194.439 204.478L194.192 204.41L177.812 199.879L161.407 206.336L160.805 206.573L160.177 206.411L143.683 202.165L127.185 206.981L126.797 207.095L126.396 207.049L109.498 205.11L92.6045 205.377L92.376 205.38L92.1523 205.332L75.5391 201.755L58.9277 205.211L58.7793 205.242L58.6279 205.25L41.5996 206.174L41.3682 206.187L41.1396 206.146L24.1104 203.104L23.3652 202.97L22.8955 202.377L21.4395 200.541L7.48145 198.971L6.06641 198.812L5.75391 197.423L2.14551 181.401L2.04785 180.969L2.14258 180.536L6.54297 160.348L6.80957 159.128L8.02148 158.831L27.0439 154.175L27.5068 154.062L27.9707 154.169L44.6533 158.033L61.2969 156.059L78.2783 151.865L78.5918 151.788L78.9131 151.812Z" stroke="white" stroke-width="4"/>
<path d="M78.9131 151.812L96.0205 153.145L96.2061 153.159L96.3848 153.207L113.319 157.761L129.792 159.121L146.473 152.714L147.003 152.51L147.562 152.615L164.661 155.851L181.462 158.497L196.68 156.959L196.896 154.662L197.075 152.754L198.989 152.852L216.533 153.742L234.035 153.159L251.615 152.199L251.661 152.196H251.708L269.322 152.057H269.374L269.425 152.059L287.049 152.822H287.056L307.544 153.777L307.677 153.784L307.808 153.808L328.008 157.472L328.163 157.5L328.312 157.552L341.723 162.242L342.692 162.581L342.981 163.567L347.503 178.997L347.702 179.675L347.431 180.328L342.377 192.462L342.184 192.925L341.795 193.242L332.053 201.194L331.395 201.731L330.551 201.631L314.018 199.656L297.337 203.607L296.971 203.694L296.597 203.642L279.908 201.285L263.217 204.62L262.749 204.713L262.288 204.585L245.813 199.991L229.336 204.787L229.055 204.868L228.763 204.866L211.738 204.742H211.722L194.695 204.481L194.439 204.478L194.192 204.41L177.812 199.879L161.407 206.336L160.805 206.573L160.177 206.411L143.683 202.165L127.185 206.981L126.797 207.095L126.396 207.049L109.498 205.11L92.6045 205.377L92.376 205.38L92.1523 205.332L75.5391 201.755L58.9277 205.211L58.7793 205.242L58.6279 205.25L41.5996 206.174L41.3682 206.187L41.1396 206.146L24.1104 203.104L23.3652 202.97L22.8955 202.377L21.4395 200.541L7.48145 198.971L6.06641 198.812L5.75391 197.423L2.14551 181.401L2.04785 180.969L2.14258 180.536L6.54297 160.348L6.80957 159.128L8.02148 158.831L27.0439 154.175L27.5068 154.062L27.9707 154.169L44.6533 158.033L61.2969 156.059L78.2783 151.865L78.5918 151.788L78.9131 151.812Z" stroke="white" stroke-width="4" stroke-miterlimit="10"/>
</svg>
