<svg width="723" height="438" viewBox="0 0 723 438" fill="none" xmlns="http://www.w3.org/2000/svg">
<path d="M505.748 329.307L491.338 359.852L465.662 397.074L138.622 336.942L8.0506 319.085L7.23178 311.505L2.99203 301.003L9.43638 299.144L18.2393 291.038L23.0075 288.583L97.0902 301.327L99.6485 305.963L109.69 317.557L113.591 316.936L140.154 319.111L155.714 309.74L147.625 295.03L143.576 272.994L159.506 256.456L157.982 236.797L158.119 219.459L174.198 201.445L177.202 201.523L181.137 189.085L186.538 160.215L188.637 158.703L210.552 143.747L207.415 122.21L206.362 117.065L185.734 105.212L185.703 97.6206L174.734 102.627L170.589 95.2022L168.296 86.7904L164.857 85.1369L128.071 50.8128L123.156 52.8549L112.729 50.8302L105.215 46.9954L105.799 35.304L102.609 25.8912L119.344 19.9722L123.145 16.3255L134.064 13.8377L137.192 22.5487L146.333 31.6886L143.665 36.5024L179.435 63.1543L181.506 68.0566L194.33 67.9347L200.989 70.054L207.294 84.4393L206.257 87.6741L508.251 325.88L504.796 333.76L505.748 329.307Z" fill="#111111" stroke="white" stroke-width="3.89175" stroke-linecap="round" stroke-linejoin="round"/>
<path d="M665.729 426.377L657.409 430.095L655.503 430.763L491.843 402.917L528.024 343.077L583.651 371.154L586.516 374.021L589.397 384.889L593.484 387.969L620.488 396.703L633.644 401.717L655.368 409.202L661.465 409.098L668.07 407.246L669.321 412.868L665.729 426.377Z" fill="#111111" stroke="white" stroke-width="3.89175" stroke-linecap="round" stroke-linejoin="round"/>
<path d="M241.196 132.96L235.333 137.317L231.308 131.181L237.223 126.812L241.196 132.96Z" fill="#111111" stroke="white" stroke-width="3.89175" stroke-miterlimit="10"/>
<path d="M285.34 164.185L279.533 168.234L275.452 162.407L281.312 158.347L285.34 164.185Z" fill="#111111" stroke="white" stroke-width="3.89175" stroke-miterlimit="10"/>
<path d="M330.616 199.76L324.811 203.811L320.729 197.982L326.589 193.923L330.616 199.76Z" fill="#111111" stroke="white" stroke-width="3.89175" stroke-miterlimit="10"/>
<path d="M378.592 238.058L372.731 242.415L368.705 236.28L374.62 231.909L378.592 238.058Z" fill="#111111" stroke="white" stroke-width="3.89175" stroke-miterlimit="10"/>
<path d="M166.601 334.854L160.795 338.904L156.714 333.076L162.574 329.017L166.601 334.854Z" fill="#111111" stroke="white" stroke-width="3.89175" stroke-miterlimit="10"/>
<path d="M220.365 344.524L214.559 348.574L210.478 342.746L216.337 338.687L220.365 344.524Z" fill="#111111" stroke="white" stroke-width="3.89175" stroke-miterlimit="10"/>
<path d="M277.837 354.862L272.03 358.912L267.949 353.084L273.809 349.025L277.837 354.862Z" fill="#111111" stroke="white" stroke-width="3.89175" stroke-miterlimit="10"/>
<path d="M335.926 365.311L330.119 369.361L326.038 363.533L331.898 359.474L335.926 365.311Z" fill="#111111" stroke="white" stroke-width="3.89175" stroke-miterlimit="10"/>
<path d="M394.015 375.759L387.903 379.754L383.51 373.87L389.681 369.867L394.015 375.759Z" fill="#111111" stroke="white" stroke-width="3.89175" stroke-miterlimit="10"/>
<path d="M451.486 386.097L445.679 390.147L441.599 384.319L447.457 380.26L451.486 386.097Z" fill="#111111" stroke="white" stroke-width="3.89175" stroke-linecap="round" stroke-linejoin="round"/>
<path d="M427.299 275.844L421.492 279.894L417.411 274.066L423.271 270.006L427.299 275.844Z" fill="#111111" stroke="white" stroke-width="3.89175" stroke-linecap="round" stroke-linejoin="round"/>
<path d="M472.352 312.658L466.547 316.707L462.465 310.879L468.326 306.82L472.352 312.658Z" fill="#111111" stroke="white" stroke-width="3.89175" stroke-linecap="round" stroke-linejoin="round"/>
<path d="M214.47 136.116L490.388 347.152" stroke="white" stroke-width="3.89175" stroke-linecap="round" stroke-linejoin="round"/>
<path d="M216.179 147.907L493.258 348.945" stroke="white" stroke-width="3.89175" stroke-linecap="round" stroke-linejoin="round"/>
<path d="M219.17 156.102L493.257 348.945" stroke="white" stroke-width="3.89175" stroke-linecap="round" stroke-linejoin="round"/>
<path d="M213.177 164.592L495 349.895" stroke="white" stroke-width="3.89175" stroke-linecap="round" stroke-linejoin="round"/>
<path d="M180.467 211.66L485.743 355.249" stroke="white" stroke-width="3.89175" stroke-linecap="round" stroke-linejoin="round"/>
<path d="M171.607 218.359L488.722 356.422" stroke="white" stroke-width="3.89175" stroke-linecap="round" stroke-linejoin="round"/>
<path d="M171.607 218.359L488.722 356.422" stroke="white" stroke-width="3.89175" stroke-linecap="round" stroke-linejoin="round"/>
<path d="M172.584 230.656L490.464 357.373" stroke="white" stroke-width="3.89175" stroke-linecap="round" stroke-linejoin="round"/>
<path d="M149.048 287.029L475.451 377.001" stroke="white" stroke-width="3.89175" stroke-linecap="round" stroke-linejoin="round"/>
<path d="M155.921 298.474L475.451 377.002" stroke="white" stroke-width="3.89175" stroke-linecap="round" stroke-linejoin="round"/>
<path d="M160.211 310.091L475.451 377.002" stroke="white" stroke-width="3.89175" stroke-linecap="round" stroke-linejoin="round"/>
<path d="M528.213 342.586L492.117 402.828L465.269 398.137L489.18 358.852L507.48 330.45L522.426 340.155L528.213 342.586Z" fill="#111111" stroke="white" stroke-width="3.89175" stroke-linecap="round" stroke-linejoin="round"/>
<path d="M606.078 406.24L608.635 392.026" stroke="white" stroke-width="3.89175" stroke-miterlimit="10"/>
<path d="M618.437 408.464L620.66 396.104" stroke="white" stroke-width="3.89175" stroke-miterlimit="10"/>
<path d="M631.589 413.38L633.812 401.021" stroke="white" stroke-width="3.89175" stroke-miterlimit="10"/>
</svg>
