<svg width="216" height="179" viewBox="0 0 216 179" fill="none" xmlns="http://www.w3.org/2000/svg">
<path d="M201.822 172.753C208.519 173.909 218.977 172.289 215.067 176.145C210.196 180.947 206.411 176.87 201.822 172.753ZM172.039 154.024C174.02 154.619 175.484 155.427 178.788 159.252C186.221 167.866 190.18 163.444 199.355 170.652C200.209 171.322 201.027 172.039 201.822 172.753C200.455 172.517 199.243 172.169 198.344 171.631C189.608 166.4 186.739 169.302 178.513 164.044C173.317 160.723 173.602 157.029 172.039 154.024ZM161.045 148.789C162.537 148.883 164.159 149.144 165.963 149.68C169.587 150.753 171.127 152.272 172.039 154.024C170.275 153.495 168.101 153.133 163.849 150.969C162.638 150.353 161.732 149.614 161.045 148.789ZM95.8096 0C95.8687 0.266641 95.9237 0.540951 95.9736 0.823242C97.7179 10.6894 102.883 9.63282 101.56 20.2637C100.236 30.8949 99.1357 30.6158 95.7119 41.0811C92.3997 51.198 87.5971 48.1801 93.0186 56.7793C99.2581 66.6843 97.0466 65.6052 104.031 75.0947C109.997 83.2045 104.617 84.1107 110.205 92.4424C115.868 100.881 127.907 92.4593 133.028 101.189C138.796 111.027 130.127 113.016 136.444 122.56C142.048 131.026 143.008 126.174 153.019 130.693C161.349 134.455 156.606 143.459 161.045 148.789C153.69 148.326 149.479 151.956 142.072 147.164C133.187 141.416 140.271 136.284 131.108 130.856C121.245 125.019 124.299 122.62 113.536 117.985C104.072 113.91 105.413 117.329 101.553 108.744C96.8603 98.3012 102.619 96.0673 95.4248 86.9248C88.9653 78.7142 76.5224 92.6987 66.4697 87.8408C57.112 83.3125 62.5617 76.0844 55.7998 68.9551C49.1272 61.9195 53.4959 59.4436 47.8799 51.7764C42.2635 44.1089 35.1822 48.1419 31.9229 39.3604C28.291 29.5867 44.6541 22.6594 38.4268 14.1104C31.8707 5.09565 6.70096 22.157 0.963867 13.1611C-1.925 8.63125 2.19327 4.38106 6.56152 0H95.8096Z" fill="white"/>
</svg>
