<svg width="274" height="223" viewBox="0 0 274 223" fill="none" xmlns="http://www.w3.org/2000/svg">
<path d="M200 135L195.783 130.819L195 130L195.755 130.856L200 135Z" stroke="#111111" stroke-width="2" stroke-miterlimit="10"/>
<path d="M244 139L241 137" stroke="#111111" stroke-width="2" stroke-miterlimit="10"/>
<path d="M245 140L244 139" stroke="#111111" stroke-width="2" stroke-miterlimit="10"/>
<mask id="path-4-inside-1_1859_114" fill="white">
<path d="M263.413 147.751L264.303 154.145L260.91 158.596L259.103 160.938L261.335 158.815L262.665 153.335L262.626 147.391L265 147.597L263.426 147.738L263.413 147.751ZM247.297 18.4352L248.174 17.1101L247.284 20.1848V18.4352H247.297ZM30.9613 19.2971L32.1871 17.1101L30.9484 19.2714V19.2971H30.9613ZM201.181 112.322L200.703 107.099L203.968 104.127L208.794 102.236L211.31 98.7496L212.703 94.4657L213.142 89.5256L217.71 87.4544L217.89 82.3342L221.787 79.787L223.052 75.413L228.548 73.985L230.626 70.1771L231.09 65.2499L234.316 62.2395L236.974 58.8304L238.639 54.7394L241.271 51.3174L245.813 49.2076L245.929 44.0231L247.748 45.9785L244.123 48.3714L240.6 50.9057L235.8 51.7033L233.426 55.7814L228.858 56.9135L226.845 61.4805L223.013 63.6032L218.11 64.2722L214.213 66.3177L212.355 71.1033L206.845 70.9618L205.335 76.2235L202.239 79.3367L197.271 79.9285L193.039 81.5238L191.477 86.7082L186.884 87.8146L183.877 91.0694L179.71 91.7898L180.471 88.8438L181.065 84.5341L179.568 79.3882L183.942 76.3521L186.548 72.8143L187.258 67.6813L190.677 64.6195L194.174 61.7121L196.535 57.7497L199.697 54.6108L203.077 51.6776L204.948 47.6252L209.516 44.9622L207.748 40.2537L210.123 35.571L208.768 31.2098L207.748 26.8101L202.729 23.9798L203.103 19.0912L199.581 15.7207L199.684 10.9607L198.484 4.4126L197.387 10.8964L197.787 15.219L197.529 19.5029L199.594 23.6454L197.542 28.0837L198.458 32.3033L197.348 35.8926L195.194 39.7134L190.6 40.5367L188.587 45.1938L184.755 47.1363L179.271 46.8791L178.381 52.7968L175.116 55.4727L172.006 58.2901L168.677 60.863L163.116 61.4548L160.961 65.3399L158.858 69.1479L157.116 73.0845L153.052 75.8633L155.142 79.7999L154.058 75.889L150.729 71.9267L150.084 67.4755L147.942 63.2944L150.652 58.2257L149.503 53.8646L147.258 49.7093L145.606 45.4382L148.006 40.421L147.103 36.0212L144.2 31.9817L145.361 27.196L141.181 23.4009L144.006 18.3065L139.232 14.6143L139.748 9.94443L137.774 5.7248L138.51 0L138.148 5.40318L139.335 10.0088L136.51 13.984L135.348 18.2165L134.406 22.4875L135.761 27.106L134.561 31.3385L130.923 35.1979L132.781 39.9064L130.303 43.9459L133.206 48.8216L129.658 52.6939L128.2 56.8878L130.716 61.6992L130.6 66.099L129.955 70.4215L127.606 74.4867L125.839 78.6421L125.955 83.1962L122.174 80.2244L119.155 76.841L115.839 73.4061L114.394 68.9421L116.11 63.9377L115.877 59.5765L115.632 55.1768L111.258 50.7899L112.626 46.2615L114.935 41.656L115.065 37.0118L114.135 32.3934L110.006 28.9328L108.523 24.7131L104.29 22.9378L100.742 20.4292L97.8 16.4154L93.1032 15.9909L88.0968 16.4411L84.2 14.2412L80.1355 12.3373L76.4065 8.06618L79.7742 11.9513L82.3161 15.4248L85.3226 18.4866L89.0516 20.7379L90.9355 25.1119L95.3097 26.6171L98.4839 29.8848L98.6258 34.5675L95.2323 38.3626L96.5226 43.084L92.7419 46.8791L95.3484 51.7548V56.1417L94.3806 60.3999L93.7226 64.7096L92.8968 69.045L94.0194 73.3418L95.1419 77.5228L92.7936 82.3342L94.3419 86.541L95.6194 92.4716L91.671 89.5642L89.4645 85.0358L86.0968 82.1927L82.8452 79.1824L77.2452 79.5812L75.671 74.1394L70.5613 73.8178L68.471 69.1222L64.0065 67.8614L59.5161 66.6393L57.6065 61.6864L52.4323 61.4419L48.4323 59.5251L45.8258 55.5627L42.9097 52.0507L39.1032 49.8379L33.9032 49.6192L32.4065 44.7178L30.7419 41.1671L32.2258 36.5487L29.1806 31.8402L31.7871 27.3247L32.0323 23.8126L31.1935 27.2861L32.4839 31.956L29 36.5101L29.4903 41.18L31.4387 45.7856L31.4774 45.9142L31.2968 48.2298L32.5742 44.6535L35.0387 48.6158L36.2387 53.2085L37.5161 57.7497L40.8065 60.8244L44.071 63.9248L48.5097 66.1633L49.1161 71.1934L51.6839 74.7955L53.3097 79.0923L57 81.884L60.471 84.83L61.8 89.3455L66.2903 91.5582L68.8323 95.1861L68.9097 100.615L73.7613 102.558L77 105.684L77.2194 111.023L82.7806 113.274L76.5484 115.114L71.7742 115.731L68.0452 111.499L64.0323 110.032L58.6774 110.289L54.2258 108.398L52.8065 102.995L47.8 101.657L46.1613 96.807L42.5613 93.9768L39.5548 90.7864L38.9742 86.5153L34.1742 83.1576L35.0645 78.269L35.929 73.509L33.5548 69.4052L36.5613 73.3804L35.6452 78.1275L34.5871 83.0418L36.0452 87.3643L36.6903 91.9442L39.9032 95.572L40.6258 100.088L42.1226 104.346L46.3806 107.253L49.3226 110.662L50.6258 114.985L51.1936 119.925L56.4194 121.636L59.529 124.711L59.4903 130.616L64.5742 131.902L66.9484 135.826L70.3032 138.759L72.7548 142.979L76.4323 145.667L81.0258 146.825L85.7097 147.533L89.3355 150.234L93.5936 151.572L97.2452 154.57L101.839 154.93L106.316 155.432L110.2 158.403L115.271 155.702L119.232 158.802L123.813 157.953L128.252 157.927L132.561 159.767L137 160.346L141.465 159.6L145.942 158.661L150.561 162.134L154.897 158.609L159.477 159.497L163.929 158.725L168.29 157.477L173.271 159.69L176.974 155.277L181.297 154.197L185.748 153.528L190.665 153.978L194.316 150.89L199.065 150.401L201.8 145.886L206.652 145.32L210.845 143.416L212.445 138.141L216.097 135.659L219.103 132.468L223.335 130.294L226.897 127.335L228.845 123.18L230.69 119.05L233.052 115.216L234.419 110.92L237.723 106.224L232.032 105.221L227.297 105.092L222.51 104.217L217.942 106.906L213.555 108.758L208.548 107.781L204.832 111.254L201.194 112.309L201.181 112.322ZM241.271 181.92L240.484 187.671L236.484 190.346L233.323 194L237.013 190.578L239.555 186.127L240.884 181.058L241.258 181.92H241.271Z"/>
</mask>
<path d="M263.413 147.751L264.303 154.145L260.91 158.596L259.103 160.938L261.335 158.815L262.665 153.335L262.626 147.391L265 147.597L263.426 147.738L263.413 147.751ZM247.297 18.4352L248.174 17.1101L247.284 20.1848V18.4352H247.297ZM30.9613 19.2971L32.1871 17.1101L30.9484 19.2714V19.2971H30.9613ZM201.181 112.322L200.703 107.099L203.968 104.127L208.794 102.236L211.31 98.7496L212.703 94.4657L213.142 89.5256L217.71 87.4544L217.89 82.3342L221.787 79.787L223.052 75.413L228.548 73.985L230.626 70.1771L231.09 65.2499L234.316 62.2395L236.974 58.8304L238.639 54.7394L241.271 51.3174L245.813 49.2076L245.929 44.0231L247.748 45.9785L244.123 48.3714L240.6 50.9057L235.8 51.7033L233.426 55.7814L228.858 56.9135L226.845 61.4805L223.013 63.6032L218.11 64.2722L214.213 66.3177L212.355 71.1033L206.845 70.9618L205.335 76.2235L202.239 79.3367L197.271 79.9285L193.039 81.5238L191.477 86.7082L186.884 87.8146L183.877 91.0694L179.71 91.7898L180.471 88.8438L181.065 84.5341L179.568 79.3882L183.942 76.3521L186.548 72.8143L187.258 67.6813L190.677 64.6195L194.174 61.7121L196.535 57.7497L199.697 54.6108L203.077 51.6776L204.948 47.6252L209.516 44.9622L207.748 40.2537L210.123 35.571L208.768 31.2098L207.748 26.8101L202.729 23.9798L203.103 19.0912L199.581 15.7207L199.684 10.9607L198.484 4.4126L197.387 10.8964L197.787 15.219L197.529 19.5029L199.594 23.6454L197.542 28.0837L198.458 32.3033L197.348 35.8926L195.194 39.7134L190.6 40.5367L188.587 45.1938L184.755 47.1363L179.271 46.8791L178.381 52.7968L175.116 55.4727L172.006 58.2901L168.677 60.863L163.116 61.4548L160.961 65.3399L158.858 69.1479L157.116 73.0845L153.052 75.8633L155.142 79.7999L154.058 75.889L150.729 71.9267L150.084 67.4755L147.942 63.2944L150.652 58.2257L149.503 53.8646L147.258 49.7093L145.606 45.4382L148.006 40.421L147.103 36.0212L144.2 31.9817L145.361 27.196L141.181 23.4009L144.006 18.3065L139.232 14.6143L139.748 9.94443L137.774 5.7248L138.51 0L138.148 5.40318L139.335 10.0088L136.51 13.984L135.348 18.2165L134.406 22.4875L135.761 27.106L134.561 31.3385L130.923 35.1979L132.781 39.9064L130.303 43.9459L133.206 48.8216L129.658 52.6939L128.2 56.8878L130.716 61.6992L130.6 66.099L129.955 70.4215L127.606 74.4867L125.839 78.6421L125.955 83.1962L122.174 80.2244L119.155 76.841L115.839 73.4061L114.394 68.9421L116.11 63.9377L115.877 59.5765L115.632 55.1768L111.258 50.7899L112.626 46.2615L114.935 41.656L115.065 37.0118L114.135 32.3934L110.006 28.9328L108.523 24.7131L104.29 22.9378L100.742 20.4292L97.8 16.4154L93.1032 15.9909L88.0968 16.4411L84.2 14.2412L80.1355 12.3373L76.4065 8.06618L79.7742 11.9513L82.3161 15.4248L85.3226 18.4866L89.0516 20.7379L90.9355 25.1119L95.3097 26.6171L98.4839 29.8848L98.6258 34.5675L95.2323 38.3626L96.5226 43.084L92.7419 46.8791L95.3484 51.7548V56.1417L94.3806 60.3999L93.7226 64.7096L92.8968 69.045L94.0194 73.3418L95.1419 77.5228L92.7936 82.3342L94.3419 86.541L95.6194 92.4716L91.671 89.5642L89.4645 85.0358L86.0968 82.1927L82.8452 79.1824L77.2452 79.5812L75.671 74.1394L70.5613 73.8178L68.471 69.1222L64.0065 67.8614L59.5161 66.6393L57.6065 61.6864L52.4323 61.4419L48.4323 59.5251L45.8258 55.5627L42.9097 52.0507L39.1032 49.8379L33.9032 49.6192L32.4065 44.7178L30.7419 41.1671L32.2258 36.5487L29.1806 31.8402L31.7871 27.3247L32.0323 23.8126L31.1935 27.2861L32.4839 31.956L29 36.5101L29.4903 41.18L31.4387 45.7856L31.4774 45.9142L31.2968 48.2298L32.5742 44.6535L35.0387 48.6158L36.2387 53.2085L37.5161 57.7497L40.8065 60.8244L44.071 63.9248L48.5097 66.1633L49.1161 71.1934L51.6839 74.7955L53.3097 79.0923L57 81.884L60.471 84.83L61.8 89.3455L66.2903 91.5582L68.8323 95.1861L68.9097 100.615L73.7613 102.558L77 105.684L77.2194 111.023L82.7806 113.274L76.5484 115.114L71.7742 115.731L68.0452 111.499L64.0323 110.032L58.6774 110.289L54.2258 108.398L52.8065 102.995L47.8 101.657L46.1613 96.807L42.5613 93.9768L39.5548 90.7864L38.9742 86.5153L34.1742 83.1576L35.0645 78.269L35.929 73.509L33.5548 69.4052L36.5613 73.3804L35.6452 78.1275L34.5871 83.0418L36.0452 87.3643L36.6903 91.9442L39.9032 95.572L40.6258 100.088L42.1226 104.346L46.3806 107.253L49.3226 110.662L50.6258 114.985L51.1936 119.925L56.4194 121.636L59.529 124.711L59.4903 130.616L64.5742 131.902L66.9484 135.826L70.3032 138.759L72.7548 142.979L76.4323 145.667L81.0258 146.825L85.7097 147.533L89.3355 150.234L93.5936 151.572L97.2452 154.57L101.839 154.93L106.316 155.432L110.2 158.403L115.271 155.702L119.232 158.802L123.813 157.953L128.252 157.927L132.561 159.767L137 160.346L141.465 159.6L145.942 158.661L150.561 162.134L154.897 158.609L159.477 159.497L163.929 158.725L168.29 157.477L173.271 159.69L176.974 155.277L181.297 154.197L185.748 153.528L190.665 153.978L194.316 150.89L199.065 150.401L201.8 145.886L206.652 145.32L210.845 143.416L212.445 138.141L216.097 135.659L219.103 132.468L223.335 130.294L226.897 127.335L228.845 123.18L230.69 119.05L233.052 115.216L234.419 110.92L237.723 106.224L232.032 105.221L227.297 105.092L222.51 104.217L217.942 106.906L213.555 108.758L208.548 107.781L204.832 111.254L201.194 112.309L201.181 112.322ZM241.271 181.92L240.484 187.671L236.484 190.346L233.323 194L237.013 190.578L239.555 186.127L240.884 181.058L241.258 181.92H241.271Z" fill="white" stroke="#111111" stroke-width="8" stroke-miterlimit="10" stroke-linejoin="round" mask="url(#path-4-inside-1_1859_114)"/>
<mask id="path-5-inside-2_1859_114" fill="white">
<path d="M274 95.2202L272.313 99.1626L270.084 102.963L269.144 106.764L270.947 110.861L267.856 114.919L268.964 119.648L269.428 124.376L264.353 127.648L265.074 132.505L265.731 137.53L260.514 140.274L260.669 140.364L262.575 141.627L260.089 146.484L256.972 151.006L255.182 151.715L257.681 153.699L252.026 155.735L252.722 161.674L247.75 163.864L244.839 167.42L242.946 171.813L239.275 174.764L240.898 176.387L240.602 176.761L236.544 179.363L232.307 181.772L231.547 187.699L228.301 185.29L225.571 190.276L222.235 194.746L217.945 195.996L214.03 197.645L211.299 200.969L206.701 201.407L202.463 203.301L198.303 205.272L194.864 208.776L191.219 212.113L187.265 215.025L182.499 212.461L179.241 218.014L174.024 217.112L169.696 219.689L164.66 218.8L159.92 219.161L155.515 223L148.882 219.135L144.657 218.143L140.407 220.217L136.118 220.617L131.854 220.256L127.668 219.315L123.083 221.209L118.691 221.119L115.316 215.966L111.362 214.329L106.236 217.305L103.08 212.732L97.7348 215.656L93.6775 211.637L88.1648 211.856L85.9108 206.341L81.2095 206.986L77.5773 205.066L73.1465 204.847L69.0506 203.816L67.2216 198.366L62.4173 199.5L59.0556 197.851L56.8789 194.218L57.1365 193.728L53.5429 193.522L50.3486 193.29L50.9926 192.221L48.803 192.041L47.7468 190.649L46.4202 186.733L46.3686 185.161L44.6685 186.552L44.0502 187.364L44.5525 184.594L41.6545 187.003L41.4613 186.475L41.3454 184.439L40.2892 185.599L39.4391 180.858L37.1078 183.28L35.9486 177.456L32.9604 172.329L30.848 172.728L29.1092 169.739L26.1854 170.035L25.6702 168.902L23.1972 167.613L24.8974 164.753L20.2348 162.859L21.4841 157.01L18.9467 153.699L14.1553 151.547L14.8895 145.299L13.2279 140.377L11.0254 136.615L5.88624 133.768L6.56889 128.911L5.77032 124.569L6.13096 120.021L3.50341 116.066L2.53739 111.737L0.412166 107.485L0 103.015L1.03041 98.5184L4.40502 94.1638L1.84187 89.6674L3.90269 84.7459L2.26691 80.1722L5.74456 76.3586L3.88981 71.6046L7.88267 68.0744L8.03723 63.694L10.2269 59.8805L9.9435 55.281L9.51845 50.527L13.6659 47.4735L14.3228 43.0802L15.8941 39.0348L19.0884 35.7752L20.7242 31.7813L21.1364 27.1174L22.3857 22.8272L27.6795 20.8817L25.7475 14.6461L30.5518 12.5074L30.6419 12.3528L30.7707 12.4687L31.1571 12.7779L28.813 12.5074L32.6512 13.0356L31.5693 13.4737L32.7028 14.1565L29.9464 15.0841L28.2205 15.5608L30.2942 20.3922L28.5554 24.9401L30.5775 29.6039L30.5647 34.2034L29.3668 38.8544L31.0541 38.9059L28.9031 41.4698L27.7568 44.098L27.7697 49.4705L28.7486 51.4417L33.1536 55.1522L32.4967 58.7596L29.7661 62.7664L30.5003 67.2628L32.9217 71.3984L36.7471 75.0831L35.1114 80.185L39.5164 83.4961L39.0656 88.2888L42.2341 91.7674L40.0831 97.5264L42.5303 101.353L47.1028 103.955L48.4166 108.284L50.6062 112.149L54.0967 115.074L56.647 118.643L57.3941 123.912L62.8681 124.814L66.6936 127.081L69.8363 130.07L73.2496 132.737L75.4521 137.324L80.3337 137.775L83.2188 141.717L88.4095 141.047L92.1577 143.353L95.3262 147.476L99.3706 149.602L104.51 147.76L107.936 152.604L113.062 149.705L117.506 149.654L121.524 153.055L125.852 154.91L130.541 151.47L134.894 153.776L139.351 152.874L143.884 155.142L148.38 153.944L152.901 153.931L157.112 150.349L161.904 153.003L166.438 152.746L170.366 149.061L174.848 148.752L179.331 148.275L183.272 145.853L187.523 144.59L191.94 143.676L195.56 140.918L200.944 141.601L203.533 137.118L209.11 137.337L212.562 134.258L216.335 131.565L216.542 125.381L221.359 123.732L222.247 118.784L226.395 116.259L231.135 113.747L231.367 108.697L232.526 104.277L234.471 100.193L233.891 95.3233L237.845 91.8963L238.309 87.387L240.615 83.3673L239.288 78.4715L242.302 74.5549L240.009 69.5947L241.413 65.3431L245.96 61.5167L241.735 56.4534L242.186 52.073L242.482 47.6668L243.281 43.2992L247.712 39.1249L246.887 34.6028L246.333 30.1193L245.664 25.6487L248.356 21.1909L248.497 16.6817L247.815 12.1853L246.733 11.9147L245.87 11.6184L247.75 11L246.668 17.0038L249.18 20.5596L252.735 23.6131L255.594 27.0916L254.074 32.6574L255.929 36.574L259.87 39.6532L259.278 44.5618L264.482 47.3447L261.79 52.846L267.496 55.6933L267.135 60.3829L269.492 64.3511L267.547 69.2726L269.956 73.2794L272.763 77.3507L270.793 82.0532L270.613 86.4723L270.535 90.8656L274 95.2202Z"/>
</mask>
<path d="M274 95.2202L272.313 99.1626L270.084 102.963L269.144 106.764L270.947 110.861L267.856 114.919L268.964 119.648L269.428 124.376L264.353 127.648L265.074 132.505L265.731 137.53L260.514 140.274L260.669 140.364L262.575 141.627L260.089 146.484L256.972 151.006L255.182 151.715L257.681 153.699L252.026 155.735L252.722 161.674L247.75 163.864L244.839 167.42L242.946 171.813L239.275 174.764L240.898 176.387L240.602 176.761L236.544 179.363L232.307 181.772L231.547 187.699L228.301 185.29L225.571 190.276L222.235 194.746L217.945 195.996L214.03 197.645L211.299 200.969L206.701 201.407L202.463 203.301L198.303 205.272L194.864 208.776L191.219 212.113L187.265 215.025L182.499 212.461L179.241 218.014L174.024 217.112L169.696 219.689L164.66 218.8L159.92 219.161L155.515 223L148.882 219.135L144.657 218.143L140.407 220.217L136.118 220.617L131.854 220.256L127.668 219.315L123.083 221.209L118.691 221.119L115.316 215.966L111.362 214.329L106.236 217.305L103.08 212.732L97.7348 215.656L93.6775 211.637L88.1648 211.856L85.9108 206.341L81.2095 206.986L77.5773 205.066L73.1465 204.847L69.0506 203.816L67.2216 198.366L62.4173 199.5L59.0556 197.851L56.8789 194.218L57.1365 193.728L53.5429 193.522L50.3486 193.29L50.9926 192.221L48.803 192.041L47.7468 190.649L46.4202 186.733L46.3686 185.161L44.6685 186.552L44.0502 187.364L44.5525 184.594L41.6545 187.003L41.4613 186.475L41.3454 184.439L40.2892 185.599L39.4391 180.858L37.1078 183.28L35.9486 177.456L32.9604 172.329L30.848 172.728L29.1092 169.739L26.1854 170.035L25.6702 168.902L23.1972 167.613L24.8974 164.753L20.2348 162.859L21.4841 157.01L18.9467 153.699L14.1553 151.547L14.8895 145.299L13.2279 140.377L11.0254 136.615L5.88624 133.768L6.56889 128.911L5.77032 124.569L6.13096 120.021L3.50341 116.066L2.53739 111.737L0.412166 107.485L0 103.015L1.03041 98.5184L4.40502 94.1638L1.84187 89.6674L3.90269 84.7459L2.26691 80.1722L5.74456 76.3586L3.88981 71.6046L7.88267 68.0744L8.03723 63.694L10.2269 59.8805L9.9435 55.281L9.51845 50.527L13.6659 47.4735L14.3228 43.0802L15.8941 39.0348L19.0884 35.7752L20.7242 31.7813L21.1364 27.1174L22.3857 22.8272L27.6795 20.8817L25.7475 14.6461L30.5518 12.5074L30.6419 12.3528L30.7707 12.4687L31.1571 12.7779L28.813 12.5074L32.6512 13.0356L31.5693 13.4737L32.7028 14.1565L29.9464 15.0841L28.2205 15.5608L30.2942 20.3922L28.5554 24.9401L30.5775 29.6039L30.5647 34.2034L29.3668 38.8544L31.0541 38.9059L28.9031 41.4698L27.7568 44.098L27.7697 49.4705L28.7486 51.4417L33.1536 55.1522L32.4967 58.7596L29.7661 62.7664L30.5003 67.2628L32.9217 71.3984L36.7471 75.0831L35.1114 80.185L39.5164 83.4961L39.0656 88.2888L42.2341 91.7674L40.0831 97.5264L42.5303 101.353L47.1028 103.955L48.4166 108.284L50.6062 112.149L54.0967 115.074L56.647 118.643L57.3941 123.912L62.8681 124.814L66.6936 127.081L69.8363 130.07L73.2496 132.737L75.4521 137.324L80.3337 137.775L83.2188 141.717L88.4095 141.047L92.1577 143.353L95.3262 147.476L99.3706 149.602L104.51 147.76L107.936 152.604L113.062 149.705L117.506 149.654L121.524 153.055L125.852 154.91L130.541 151.47L134.894 153.776L139.351 152.874L143.884 155.142L148.38 153.944L152.901 153.931L157.112 150.349L161.904 153.003L166.438 152.746L170.366 149.061L174.848 148.752L179.331 148.275L183.272 145.853L187.523 144.59L191.94 143.676L195.56 140.918L200.944 141.601L203.533 137.118L209.11 137.337L212.562 134.258L216.335 131.565L216.542 125.381L221.359 123.732L222.247 118.784L226.395 116.259L231.135 113.747L231.367 108.697L232.526 104.277L234.471 100.193L233.891 95.3233L237.845 91.8963L238.309 87.387L240.615 83.3673L239.288 78.4715L242.302 74.5549L240.009 69.5947L241.413 65.3431L245.96 61.5167L241.735 56.4534L242.186 52.073L242.482 47.6668L243.281 43.2992L247.712 39.1249L246.887 34.6028L246.333 30.1193L245.664 25.6487L248.356 21.1909L248.497 16.6817L247.815 12.1853L246.733 11.9147L245.87 11.6184L247.75 11L246.668 17.0038L249.18 20.5596L252.735 23.6131L255.594 27.0916L254.074 32.6574L255.929 36.574L259.87 39.6532L259.278 44.5618L264.482 47.3447L261.79 52.846L267.496 55.6933L267.135 60.3829L269.492 64.3511L267.547 69.2726L269.956 73.2794L272.763 77.3507L270.793 82.0532L270.613 86.4723L270.535 90.8656L274 95.2202Z" fill="white" stroke="#111111" stroke-width="8" stroke-miterlimit="10" mask="url(#path-5-inside-2_1859_114)"/>
<path d="M110.165 131.446C110.165 128.284 112.722 125.726 115.884 125.726C119.046 125.726 121.604 128.284 121.604 131.446C121.604 134.608 119.046 137.165 115.884 137.165C112.722 137.165 110.165 134.608 110.165 131.446Z" fill="#111111"/>
<path d="M157.165 131.446C157.165 128.284 159.722 125.726 162.884 125.726C166.046 125.726 168.604 128.284 168.604 131.446C168.604 134.608 166.046 137.165 162.884 137.165C159.722 137.165 157.165 134.608 157.165 131.446Z" fill="#111111"/>
</svg>
