<svg width="297" height="297" viewBox="0 0 297 297" fill="none" xmlns="http://www.w3.org/2000/svg">
<g clip-path="url(#clip0_1769_5523)">
<path d="M294.902 295.34L276.78 291.606L259.616 295.499L242.457 294.044L225.293 292.235L208.129 294.58L190.97 296.887L173.806 292.588L156.643 294.218L139.479 295.963L122.32 296.868L105.156 296.355L87.9967 296.379L70.8328 292.157L53.6641 293.884L36.5002 293.371L19.3363 295.117L4.16016 292.39L4.01507 277.218L1.46153 260.054L1.60178 242.895L4.38263 225.731L4.07311 208.572L4.87109 191.408L3.76842 174.249L4.46968 157.086L2.2982 139.922L0.000976562 122.758L1.06012 105.599L4.8324 88.4348L5.0065 71.271L2.245 54.1071L1.29709 36.9432L0.866667 19.7745L3.6185 4.05664L19.3315 2.6638L36.4954 3.80032L53.6544 0.535848L70.8183 5.17382L87.9774 4.50642L105.141 1.31449L122.305 2.34461L139.464 4.82561L156.628 0.400433L173.792 4.7579L190.951 -0.000976563L208.115 5.12062L225.279 3.09423L242.443 0.0764036L259.606 2.55257L276.775 3.89705L292.856 3.69392L292.416 19.7696L295.177 36.9335L296.106 54.0974L293.741 71.2564L295.656 88.4203L295.134 105.579L296.73 122.743L293.891 139.907L296.251 157.071L295.419 174.23L296.468 191.394L292.459 208.558L292.759 225.722L296.246 242.886L294.887 260.049L295.936 277.16L294.902 295.34Z" fill="white"/>
<path d="M75.9624 19.4024L93.9823 22.2897L112.002 21.5256L130.027 23.5133L148.047 21.9318L166.067 23.2183L184.087 21.0323H202.111L220.136 19.8667L238.161 22.0817L256.186 19.5814L273.306 22.5073L276.377 39.6228L276.682 57.6427L274.501 75.6626L272.189 93.6825L272.232 111.702L275.497 129.727L275.545 147.747L275.081 165.767L272.334 183.787L274.317 201.807L276.72 219.831L271.865 237.856L276.445 255.992L272.508 272.194L256.2 273.229L238.18 271.725L220.16 276.126L202.14 272.532L184.121 274.829L166.096 275.598L148.076 273.277L130.056 272.677L112.036 275.25L94.0162 273.296L75.9915 275.869L57.9667 275.105L39.942 274.757L22.8361 272.982L19.8086 255.881L22.0237 237.861L24.1613 219.841L20.5438 201.821L23.4552 183.801L20.9162 165.777L22.3815 147.757L20.5679 129.737L22.2413 111.717L21.835 93.6971L20.892 75.6723L21.5981 57.6476L21.4143 39.6228L22.9087 22.5847L39.942 21.8399L57.9619 22.2462L75.9818 19.3928M75.9624 15.9735L75.4305 16.0558L57.7104 18.8608L39.9952 18.4642H39.884H39.7727L22.7394 19.209L19.7748 19.3396L19.5136 22.2945L18.0192 39.3327L18.0047 39.4971V39.6615L18.1885 57.6041L17.4872 75.5417V75.6965V75.8513L18.4255 93.8228L18.8269 111.601L17.1729 129.427L17.1439 129.751L17.1777 130.075L18.9575 147.791L17.5163 165.506L17.4872 165.878L17.5404 166.251L20.0069 183.768L17.1777 201.284L17.081 201.889L17.2019 202.489L20.713 219.981L18.6383 237.464L16.4281 255.47L16.3652 255.973L16.4523 256.471L19.4798 273.572L19.9247 276.087L22.4638 276.348L39.5696 278.123L39.7099 278.137H39.8501L57.8361 278.49L75.8174 279.255L76.1317 279.269L76.4412 279.226L94.0452 276.711L111.644 278.616L112.065 278.66L112.486 278.602L130.216 276.072L147.776 276.658L165.636 278.96L165.922 278.998L166.212 278.984L184.237 278.215H184.377L184.517 278.191L201.99 275.961L219.469 279.448L220.204 279.593L220.934 279.414L238.417 275.144L255.891 276.599L256.137 276.619L256.384 276.604L272.692 275.569L275.178 275.41L275.768 272.987L279.704 256.785L279.903 255.973L279.699 255.16L275.337 237.88L279.965 220.712L280.144 220.054L280.053 219.382L277.654 201.396L275.724 183.855L278.403 166.27L278.437 166.062V165.849L278.911 147.829V147.781V147.733L278.863 129.713V129.413L278.81 129.118L275.598 111.393L275.56 93.8905L277.842 76.0882L280.028 58.0441L280.057 57.812V57.5799L279.753 39.56V39.2891L279.699 39.0231L276.628 21.9076L276.208 19.5669L273.867 19.1655L256.747 16.2395L256.229 16.1525L255.712 16.225L238.127 18.6673L220.542 16.5055L220.228 16.4668L219.914 16.4862L202 17.6372H184.087L183.884 17.642L183.68 17.6662L165.98 19.8135L148.284 18.5513L148.013 18.5319L147.747 18.5561L130.061 20.1085L112.37 18.1547L112.113 18.1257L111.857 18.1353L94.1758 18.885L76.4944 16.0509L75.9624 15.9639V15.9735Z" fill="#111111"/>
</g>
<defs>
<clipPath id="clip0_1769_5523">
<rect width="296.729" height="296.888" fill="white"/>
</clipPath>
</defs>
</svg>
